<?xml version="1.0" encoding="utf-8"?>
<!-- Generator: Adobe Illustrator 15.1.0, SVG Export Plug-In . SVG Version: 6.00 Build 0)  -->
<!DOCTYPE svg PUBLIC "-//W3C//DTD SVG 1.1//EN" "http://www.w3.org/Graphics/SVG/1.1/DTD/svg11.dtd">
<svg version="1.1" id="Layer_1" xmlns="http://www.w3.org/2000/svg" xmlns:xlink="http://www.w3.org/1999/xlink" x="0px" y="0px"
	 width="42.417px" height="17.583px" viewBox="0 0 42.417 17.583" enable-background="new 0 0 42.417 17.583" xml:space="preserve">
<line fill="none" stroke="#000000" stroke-width="0.5" stroke-miterlimit="10" x1="0" y1="14.625" x2="42.417" y2="14.625"/>
<g>
	
		<line fill="none" stroke="#000000" stroke-width="0.5" stroke-linecap="round" stroke-linejoin="round" stroke-miterlimit="10" x1="9.737" y1="17.223" x2="12.415" y2="13.005"/>
	
		<line fill="none" stroke="#000000" stroke-width="0.5" stroke-linecap="round" stroke-linejoin="round" stroke-miterlimit="10" x1="12.415" y1="13.005" x2="9.871" y2="9"/>
</g>
<line fill="none" stroke="#000000" stroke-width="0.5" stroke-miterlimit="10" x1="0" y1="11.346" x2="42.417" y2="11.346"/>
<g>
	
		<line fill="none" stroke="#000000" stroke-width="0.5" stroke-linecap="round" stroke-linejoin="round" stroke-miterlimit="10" x1="28.656" y1="17.222" x2="31.333" y2="13.004"/>
	
		<line fill="none" stroke="#000000" stroke-width="0.5" stroke-linecap="round" stroke-linejoin="round" stroke-miterlimit="10" x1="31.333" y1="13.004" x2="28.789" y2="8.999"/>
</g>
<g>
	<g>
		<path fill="#010101" d="M9.966,1.018L9.703,1.807H8.028C7.515,2.984,7.185,3.791,7.039,4.228C6.923,4.574,6.904,4.826,6.983,4.981
			C7.063,5.137,7.2,5.215,7.397,5.215c0.146,0,0.29-0.051,0.431-0.15c0.141-0.102,0.277-0.272,0.408-0.516h0.188
			C8.167,5.136,7.901,5.541,7.626,5.765C7.352,5.989,7.08,6.1,6.812,6.1c-0.283,0-0.476-0.128-0.581-0.384
			C6.127,5.46,6.185,5.003,6.404,4.345c0.173-0.519,0.52-1.364,1.04-2.538H6.938c-0.29,0-0.534,0.053-0.734,0.158
			c-0.2,0.106-0.429,0.305-0.688,0.599H5.317C5.804,1.876,6.179,1.447,6.44,1.276C6.7,1.104,7.019,1.018,7.395,1.018H9.966z"/>
	</g>
</g>
<g>
	<g>
		<path fill="#010101" d="M35.697,7.964c-0.773,0-1.35-0.304-1.727-0.912s-0.566-1.531-0.566-2.77c0-0.658,0.059-1.227,0.175-1.707
			s0.278-0.876,0.488-1.189s0.461-0.545,0.755-0.695c0.293-0.15,0.613-0.226,0.961-0.226c0.783,0,1.366,0.302,1.75,0.907
			c0.383,0.605,0.574,1.519,0.574,2.743c0,1.267-0.205,2.224-0.615,2.874C37.083,7.639,36.484,7.964,35.697,7.964z M34.451,4.121
			c0,1.167,0.108,2.022,0.324,2.568c0.217,0.545,0.553,0.818,1.008,0.818c0.433,0,0.754-0.257,0.963-0.771
			c0.21-0.514,0.314-1.309,0.314-2.385c0-0.823-0.054-1.489-0.161-2c-0.107-0.51-0.257-0.875-0.448-1.097
			c-0.191-0.222-0.424-0.333-0.695-0.333c-0.247,0-0.453,0.073-0.62,0.22c-0.167,0.146-0.301,0.358-0.403,0.633
			c-0.102,0.275-0.174,0.611-0.217,1.006C34.473,3.177,34.451,3.624,34.451,4.121z"/>
	</g>
</g>
</svg>
