<?xml version="1.0" encoding="utf-8"?>
<!-- Generator: Adobe Illustrator 15.1.0, SVG Export Plug-In . SVG Version: 6.00 Build 0)  -->
<!DOCTYPE svg PUBLIC "-//W3C//DTD SVG 1.1//EN" "http://www.w3.org/Graphics/SVG/1.1/DTD/svg11.dtd">
<svg version="1.1" id="Layer_1" xmlns="http://www.w3.org/2000/svg" xmlns:xlink="http://www.w3.org/1999/xlink" x="0px" y="0px"
	 width="100.615px" height="66.972px" viewBox="0 0 100.615 66.972" enable-background="new 0 0 100.615 66.972"
	 xml:space="preserve">
<g>
	<g>
		<g>
			
				<line fill="none" stroke="#000000" stroke-width="0.5" stroke-miterlimit="10" x1="42.875" y1="51.615" x2="21.734" y2="51.615"/>
			<g>
				<path d="M22.632,51.615l1.096,1.802l-0.062,0.041l-2.938-1.167c-1.023-0.226-2.047-0.45-3.07-0.676
					c1.023-0.225,2.047-0.45,3.07-0.676l2.938-1.167l0.062,0.031L22.632,51.615z"/>
			</g>
		</g>
	</g>
	<line fill="none" stroke="#000000" stroke-width="0.5" stroke-miterlimit="10" x1="21.734" y1="51.615" x2="0.594" y2="51.615"/>
</g>
<line fill="none" stroke="#000000" stroke-width="0.5" stroke-miterlimit="10" stroke-dasharray="2,1" x1="42.875" y1="51.615" x2="42.875" y2="15.725"/>
<g>
	<g>
		<g>
			<line fill="none" stroke="#000000" stroke-width="0.5" stroke-miterlimit="10" x1="85.75" y1="15.725" x2="64.016" y2="15.725"/>
			<g>
				<path d="M64.913,15.725l1.096,1.802l-0.062,0.041l-2.938-1.167c-1.023-0.226-2.047-0.45-3.07-0.676
					c1.023-0.225,2.047-0.45,3.07-0.676l2.938-1.167l0.062,0.031L64.913,15.725z"/>
			</g>
		</g>
	</g>
	<line fill="none" stroke="#000000" stroke-width="0.5" stroke-miterlimit="10" x1="64.016" y1="15.725" x2="42.281" y2="15.725"/>
</g>
<g>
	<g>
		<path fill="#010101" stroke="#010101" stroke-width="0.314" stroke-miterlimit="10" d="M7.532,61.17h0.172
			c0.118,0,0.215-0.013,0.29-0.038c0.09-0.032,0.188-0.087,0.295-0.164c0.107-0.077,0.26-0.207,0.457-0.389
			c0.164-0.154,0.289-0.285,0.373-0.392c0.084-0.107,0.142-0.206,0.174-0.295c0.029-0.075,0.043-0.15,0.043-0.226
			c0-0.107-0.033-0.191-0.1-0.252c-0.066-0.061-0.174-0.102-0.324-0.124v-0.263h2.313v0.263c-0.165,0.032-0.34,0.105-0.526,0.22
			c-0.186,0.114-0.377,0.265-0.574,0.451l-1.234,1.17l1.546,2.018c0.179,0.236,0.341,0.41,0.485,0.523
			c0.146,0.112,0.304,0.187,0.476,0.223v0.263H9.336v-0.263c0.094-0.011,0.162-0.031,0.207-0.062
			c0.045-0.031,0.066-0.082,0.066-0.153c0-0.054-0.01-0.106-0.029-0.158s-0.06-0.123-0.121-0.212
			c-0.061-0.09-0.172-0.245-0.332-0.467l-0.639-0.859c-0.122-0.161-0.209-0.267-0.261-0.317s-0.106-0.086-0.163-0.107
			C8.006,61.541,7.93,61.53,7.833,61.53H7.532v1.288c0,0.308,0.015,0.521,0.043,0.642s0.083,0.211,0.163,0.273
			c0.081,0.063,0.213,0.117,0.395,0.164v0.263H6.002v-0.263c0.18-0.047,0.304-0.095,0.373-0.146c0.07-0.05,0.12-0.109,0.15-0.18
			c0.031-0.069,0.053-0.164,0.064-0.284c0.013-0.12,0.02-0.276,0.02-0.47v-4.492c0-0.343-0.004-0.583-0.009-0.719
			c-0.005-0.136-0.02-0.251-0.042-0.346c-0.023-0.095-0.057-0.169-0.098-0.223c-0.041-0.053-0.096-0.096-0.166-0.128
			s-0.196-0.064-0.379-0.097v-0.279l1.294-0.054h0.322V61.17z"/>
	</g>
	<g>
		<path fill="#010101" d="M12.479,63.607v-0.591c0.24-0.114,0.465-0.199,0.675-0.255c0.209-0.057,0.412-0.084,0.606-0.084
			c0.234,0,0.439,0.036,0.616,0.108c0.176,0.072,0.312,0.177,0.404,0.313c0.094,0.136,0.141,0.298,0.141,0.487
			c0,0.176-0.036,0.331-0.106,0.465s-0.169,0.25-0.297,0.35s-0.293,0.197-0.496,0.292v0.028c0.126,0.022,0.248,0.062,0.365,0.117
			c0.117,0.055,0.222,0.125,0.313,0.213c0.092,0.087,0.165,0.191,0.22,0.313s0.082,0.26,0.082,0.415c0,0.24-0.052,0.454-0.157,0.641
			c-0.104,0.187-0.265,0.334-0.48,0.441c-0.216,0.108-0.478,0.162-0.787,0.162c-0.178,0-0.37-0.021-0.577-0.061
			c-0.206-0.041-0.396-0.094-0.567-0.16v-0.659h0.373c0.072,0.215,0.169,0.372,0.288,0.47c0.119,0.097,0.281,0.146,0.486,0.146
			c0.27,0,0.474-0.073,0.611-0.221c0.139-0.147,0.207-0.365,0.207-0.653c0-0.303-0.091-0.533-0.273-0.693
			c-0.183-0.159-0.45-0.239-0.803-0.239h-0.28v-0.274c0.28-0.016,0.517-0.07,0.708-0.161c0.191-0.092,0.335-0.209,0.428-0.352
			c0.094-0.144,0.14-0.304,0.14-0.482c0-0.229-0.061-0.407-0.184-0.531c-0.122-0.125-0.301-0.187-0.534-0.187
			c-0.195,0-0.354,0.053-0.477,0.158s-0.213,0.268-0.271,0.485H12.479z"/>
	</g>
</g>
<g>
	<g>
		<path fill="#010101" d="M30.03,40.633c-0.022,0.026-0.048,0.039-0.077,0.039c-0.051,0-0.084-0.009-0.098-0.025
			c-0.416-0.384-0.771-0.82-1.066-1.313c-0.295-0.491-0.537-1.018-0.727-1.579s-0.33-1.148-0.421-1.762
			c-0.092-0.613-0.137-1.229-0.137-1.847c0-0.618,0.045-1.233,0.137-1.847c0.091-0.614,0.231-1.201,0.421-1.762
			c0.189-0.561,0.432-1.087,0.727-1.579s0.65-0.929,1.066-1.312c0.014-0.017,0.047-0.026,0.098-0.026
			c0.029,0,0.055,0.013,0.077,0.039c0.015,0.035,0.021,0.065,0.021,0.091c0,0.035-0.011,0.065-0.033,0.091
			c-0.35,0.392-0.645,0.831-0.885,1.318s-0.436,1.003-0.585,1.547s-0.255,1.107-0.317,1.69c-0.062,0.583-0.093,1.167-0.093,1.749
			c0,0.592,0.031,1.177,0.093,1.755c0.063,0.579,0.168,1.141,0.317,1.684c0.149,0.544,0.345,1.06,0.585,1.547
			s0.535,0.927,0.885,1.318c0.022,0.026,0.033,0.057,0.033,0.092C30.052,40.568,30.045,40.599,30.03,40.633z"/>
	</g>
	<g>
		<path fill="#010101" d="M39.886,35.994c-0.091,0.613-0.231,1.2-0.421,1.762s-0.432,1.088-0.727,1.579
			c-0.296,0.492-0.65,0.929-1.066,1.313c-0.029,0.017-0.051,0.025-0.065,0.025h-0.032c-0.029,0-0.055-0.013-0.077-0.039
			c-0.015-0.034-0.021-0.065-0.021-0.091c0-0.035,0.011-0.065,0.032-0.092c0.351-0.392,0.646-0.831,0.886-1.318
			s0.436-1.003,0.585-1.547c0.149-0.543,0.255-1.104,0.317-1.684c0.062-0.578,0.093-1.164,0.093-1.755
			c0-0.583-0.031-1.166-0.093-1.749c-0.063-0.583-0.168-1.146-0.317-1.69s-0.345-1.06-0.585-1.547s-0.535-0.927-0.886-1.318
			c-0.021-0.026-0.032-0.056-0.032-0.091c0-0.043,0.007-0.074,0.021-0.091c0.022-0.026,0.048-0.039,0.077-0.039h0.032
			c0.015,0,0.036,0.009,0.065,0.026c0.416,0.383,0.771,0.82,1.066,1.312c0.295,0.492,0.537,1.018,0.727,1.579
			c0.189,0.562,0.33,1.148,0.421,1.762c0.091,0.613,0.137,1.229,0.137,1.847C40.022,34.765,39.977,35.38,39.886,35.994z"/>
	</g>
	<g>
		<path fill="#010101" d="M25.643,31.771l0.146,0.269c-0.133,0.318-0.233,0.555-0.304,0.708c-0.069,0.154-0.164,0.346-0.284,0.577
			c-0.12,0.231-0.254,0.473-0.402,0.728c-0.148,0.254-0.318,0.526-0.508,0.815c-0.189,0.29-0.405,0.608-0.647,0.955
			c-0.24,0.348-0.524,0.735-0.85,1.165h-0.672l-0.499-4.052c-0.032-0.261-0.067-0.448-0.104-0.561s-0.092-0.195-0.164-0.247
			c-0.071-0.052-0.184-0.083-0.338-0.094l0.059-0.263h1.38l0.408,4.267c0.615-0.848,1.071-1.562,1.369-2.141
			c0.297-0.58,0.445-1.05,0.445-1.412c0-0.168-0.036-0.283-0.107-0.343c-0.071-0.061-0.193-0.097-0.365-0.107l0.054-0.263H25.643z"
			/>
	</g>
	<g>
		<path fill="#010101" d="M16.539,30.469c-0.025,0.025-0.055,0.038-0.09,0.038h-3.625c-0.034,0-0.063-0.013-0.09-0.038
			c-0.025-0.025-0.037-0.055-0.037-0.089c0-0.034,0.012-0.064,0.037-0.089c0.026-0.025,0.056-0.038,0.09-0.038h3.625
			c0.035,0,0.064,0.013,0.09,0.038s0.038,0.055,0.038,0.089C16.577,30.414,16.564,30.443,16.539,30.469z"/>
	</g>
	<g>
		<path fill="#010101" stroke="#010101" stroke-width="0.314" stroke-miterlimit="10" d="M36.298,39.209h-2.19v-0.263
			c0.172-0.036,0.296-0.075,0.373-0.118s0.137-0.098,0.178-0.164s0.069-0.155,0.086-0.268c0.016-0.113,0.023-0.287,0.023-0.523
			v-1.852c-0.192,0.218-0.373,0.393-0.539,0.523c-0.166,0.13-0.352,0.236-0.556,0.319c-0.204,0.082-0.421,0.123-0.649,0.123
			c-0.591,0-1.044-0.22-1.361-0.66c-0.316-0.44-0.475-1.08-0.475-1.921c0-0.594,0.103-1.096,0.309-1.505s0.493-0.715,0.861-0.918
			c0.369-0.202,0.795-0.303,1.277-0.303c0.255,0,0.483,0.026,0.688,0.078s0.413,0.135,0.628,0.25l0.376-0.328l0.365,0.086v6.108
			c0,0.211,0.008,0.378,0.024,0.502c0.016,0.123,0.044,0.221,0.086,0.292c0.041,0.071,0.102,0.127,0.183,0.166
			c0.08,0.04,0.185,0.077,0.313,0.113V39.209z M34.768,33.703c0-0.333-0.021-0.59-0.064-0.773c-0.043-0.182-0.116-0.337-0.22-0.464
			s-0.226-0.218-0.365-0.274c-0.14-0.055-0.304-0.083-0.493-0.083c-0.462,0-0.815,0.186-1.061,0.558s-0.368,0.896-0.368,1.572
			c0,0.688,0.1,1.21,0.298,1.567c0.199,0.357,0.497,0.536,0.895,0.536c0.15,0,0.278-0.013,0.384-0.04
			c0.105-0.026,0.209-0.07,0.312-0.131c0.102-0.062,0.205-0.144,0.311-0.247s0.182-0.198,0.229-0.282s0.082-0.182,0.107-0.292
			c0.025-0.111,0.037-0.254,0.037-0.43V33.703z"/>
	</g>
	<g>
		<path fill="#010101" d="M19.291,31.16c0,0.121,0.007,0.211,0.021,0.272c0.013,0.061,0.037,0.111,0.071,0.149
			c0.035,0.038,0.084,0.068,0.148,0.09c0.064,0.022,0.145,0.039,0.242,0.05c0.098,0.012,0.227,0.02,0.386,0.023v0.227h-2.3v-0.227
			c0.23-0.01,0.396-0.024,0.494-0.042c0.098-0.018,0.174-0.044,0.225-0.079c0.053-0.036,0.09-0.085,0.114-0.149
			c0.024-0.064,0.036-0.169,0.036-0.314v-2.522c0-0.083-0.016-0.144-0.044-0.182c-0.029-0.039-0.071-0.058-0.128-0.058
			c-0.066,0-0.16,0.034-0.283,0.103c-0.122,0.068-0.273,0.163-0.453,0.283l-0.138-0.24l1.456-0.868h0.172
			c-0.014,0.199-0.02,0.475-0.02,0.827V31.16z"/>
	</g>
	<g>
		<path fill="#010101" d="M11.245,36.54c-0.161,0.19-0.382,0.337-0.659,0.439c-0.096,0.036-0.197,0.049-0.303,0.038
			c-0.106-0.011-0.197-0.051-0.275-0.121c-0.076-0.069-0.128-0.172-0.153-0.308c-0.026-0.136-0.009-0.313,0.05-0.533l0.813-2.913
			c0.022-0.073,0.041-0.17,0.056-0.291s-0.026-0.21-0.121-0.27c-0.059-0.036-0.124-0.055-0.198-0.055
			c-0.072,0-0.16,0.029-0.264,0.088c-0.213,0.132-0.434,0.324-0.665,0.577s-0.452,0.541-0.665,0.863s-0.405,0.661-0.577,1.017
			c-0.173,0.355-0.302,0.698-0.391,1.027l-0.22,0.803H6.858l1.539-5.605H7.266l0.033-0.44h1.22l0.121-0.451
			c0.036-0.146,0.055-0.256,0.055-0.33c0-0.081-0.024-0.137-0.071-0.17c-0.048-0.033-0.119-0.049-0.215-0.049
			c-0.088,0-0.205,0-0.352,0v-0.198l1.594-0.275c0,0.176-0.021,0.352-0.065,0.527l-0.264,0.945h1.572v0.44H9.2l-0.847,3.078
			c0.337-0.55,0.689-1.028,1.056-1.435s0.766-0.702,1.198-0.885c0.117-0.051,0.222-0.075,0.313-0.071
			c0.091,0.003,0.172,0.022,0.241,0.055c0.07,0.033,0.129,0.075,0.177,0.126s0.086,0.099,0.115,0.143
			c0.059,0.095,0.095,0.214,0.11,0.357c0.014,0.143,0.004,0.273-0.033,0.39l-0.726,2.649c-0.022,0.081-0.05,0.173-0.083,0.275
			s-0.051,0.197-0.055,0.285s0.015,0.154,0.055,0.198c0.041,0.044,0.127,0.044,0.259,0c0.081-0.029,0.153-0.079,0.22-0.148
			s0.129-0.145,0.188-0.226c0.059-0.08,0.109-0.157,0.153-0.23s0.085-0.125,0.121-0.154c0.088-0.073,0.134-0.077,0.138-0.011
			c0.004,0.065-0.035,0.157-0.115,0.274C11.553,36.159,11.406,36.349,11.245,36.54z"/>
	</g>
</g>
<g>
	<g>
		<path fill="#010101" d="M65.779,31.835c-0.043,0.044-0.095,0.066-0.153,0.066h-6.86c-0.059,0-0.11-0.022-0.154-0.066
			s-0.066-0.095-0.066-0.154s0.022-0.11,0.066-0.154s0.096-0.066,0.154-0.066h6.86c0.059,0,0.11,0.022,0.153,0.066
			c0.045,0.044,0.066,0.095,0.066,0.154S65.824,31.792,65.779,31.835z M65.779,33.968c-0.043,0.044-0.095,0.065-0.153,0.065h-6.86
			c-0.059,0-0.11-0.021-0.154-0.065s-0.066-0.096-0.066-0.154s0.022-0.11,0.066-0.154s0.096-0.065,0.154-0.065h6.86
			c0.059,0,0.11,0.021,0.153,0.065c0.045,0.044,0.066,0.096,0.066,0.154S65.824,33.924,65.779,33.968z"/>
		<path fill="#010101" d="M88.396,32.902c-0.044,0.044-0.095,0.066-0.153,0.066h-6.256c-0.06,0-0.11-0.022-0.154-0.066
			s-0.066-0.095-0.066-0.154c0-0.059,0.022-0.11,0.066-0.154s0.095-0.066,0.154-0.066h6.256c0.059,0,0.109,0.022,0.153,0.066
			s0.066,0.095,0.066,0.154C88.462,32.807,88.439,32.858,88.396,32.902z"/>
	</g>
	<g>
		<path fill="#010101" stroke="#010101" stroke-width="0.314" stroke-miterlimit="10" d="M55.63,37.803h-2.19v-0.263
			c0.172-0.036,0.297-0.075,0.373-0.118c0.077-0.043,0.137-0.098,0.178-0.164s0.069-0.155,0.086-0.268
			c0.016-0.113,0.023-0.287,0.023-0.523v-1.852c-0.193,0.218-0.373,0.393-0.539,0.523c-0.166,0.13-0.352,0.236-0.556,0.319
			c-0.204,0.082-0.421,0.123-0.649,0.123c-0.591,0-1.045-0.22-1.361-0.66S50.52,33.841,50.52,33c0-0.594,0.103-1.096,0.309-1.505
			c0.205-0.41,0.492-0.715,0.861-0.918c0.369-0.202,0.795-0.303,1.277-0.303c0.254,0,0.484,0.026,0.688,0.078
			c0.204,0.052,0.414,0.135,0.629,0.25l0.375-0.328l0.365,0.086v6.108c0,0.211,0.008,0.378,0.023,0.502
			c0.017,0.123,0.045,0.221,0.086,0.292c0.042,0.071,0.103,0.127,0.184,0.166c0.08,0.04,0.185,0.077,0.313,0.113V37.803z
			 M54.1,32.297c0-0.333-0.021-0.59-0.064-0.773c-0.043-0.182-0.115-0.337-0.22-0.464s-0.226-0.218-0.364-0.274
			c-0.141-0.055-0.305-0.083-0.494-0.083c-0.463,0-0.815,0.186-1.061,0.558c-0.246,0.372-0.368,0.896-0.368,1.572
			c0,0.688,0.1,1.21,0.298,1.567c0.199,0.357,0.497,0.536,0.895,0.536c0.15,0,0.277-0.013,0.383-0.04
			c0.105-0.026,0.21-0.07,0.313-0.131c0.102-0.062,0.205-0.144,0.311-0.247s0.182-0.198,0.229-0.282s0.082-0.182,0.107-0.292
			c0.025-0.111,0.037-0.254,0.037-0.43V32.297z"/>
		<path fill="#010101" stroke="#010101" stroke-width="0.314" stroke-miterlimit="10" d="M70.429,32.506h0.172
			c0.118,0,0.215-0.013,0.29-0.038c0.09-0.032,0.188-0.087,0.295-0.164c0.107-0.077,0.26-0.207,0.457-0.389
			c0.164-0.154,0.289-0.285,0.373-0.392c0.084-0.107,0.142-0.206,0.174-0.295c0.029-0.075,0.043-0.15,0.043-0.226
			c0-0.107-0.033-0.191-0.1-0.252c-0.066-0.061-0.174-0.102-0.324-0.124v-0.263h2.313v0.263c-0.165,0.032-0.34,0.105-0.526,0.22
			c-0.186,0.114-0.377,0.265-0.574,0.451l-1.234,1.17l1.546,2.018c0.179,0.236,0.341,0.41,0.485,0.523
			c0.146,0.112,0.304,0.187,0.476,0.223v0.263h-2.062v-0.263c0.094-0.011,0.162-0.031,0.207-0.062
			c0.045-0.031,0.066-0.082,0.066-0.153c0-0.054-0.01-0.106-0.029-0.158s-0.06-0.123-0.121-0.212
			c-0.061-0.09-0.172-0.245-0.332-0.467l-0.639-0.859c-0.122-0.161-0.209-0.267-0.261-0.317s-0.106-0.086-0.163-0.107
			c-0.059-0.021-0.135-0.032-0.231-0.032h-0.301v1.288c0,0.308,0.015,0.521,0.043,0.642s0.083,0.211,0.163,0.273
			c0.081,0.063,0.213,0.117,0.395,0.164v0.263h-2.131v-0.263c0.18-0.047,0.304-0.095,0.373-0.146c0.07-0.05,0.12-0.109,0.15-0.18
			c0.031-0.069,0.053-0.164,0.064-0.284c0.013-0.12,0.02-0.276,0.02-0.47v-4.492c0-0.343-0.004-0.583-0.009-0.719
			c-0.005-0.136-0.02-0.251-0.042-0.346c-0.023-0.095-0.057-0.169-0.098-0.223c-0.041-0.053-0.096-0.096-0.166-0.128
			s-0.196-0.064-0.379-0.097v-0.279l1.294-0.054h0.322V32.506z"/>
		<path fill="#010101" stroke="#010101" stroke-width="0.314" stroke-miterlimit="10" d="M92.631,32.506h0.172
			c0.118,0,0.215-0.013,0.29-0.038c0.089-0.032,0.188-0.087,0.295-0.164c0.107-0.077,0.26-0.207,0.456-0.389
			c0.165-0.154,0.289-0.285,0.373-0.392c0.085-0.107,0.143-0.206,0.175-0.295c0.028-0.075,0.043-0.15,0.043-0.226
			c0-0.107-0.033-0.191-0.1-0.252c-0.065-0.061-0.174-0.102-0.324-0.124v-0.263h2.313v0.263c-0.164,0.032-0.34,0.105-0.526,0.22
			c-0.186,0.114-0.377,0.265-0.574,0.451l-1.234,1.17l1.546,2.018c0.179,0.236,0.341,0.41,0.486,0.523
			c0.145,0.112,0.303,0.187,0.475,0.223v0.263h-2.062v-0.263c0.093-0.011,0.162-0.031,0.207-0.062
			c0.045-0.031,0.066-0.082,0.066-0.153c0-0.054-0.01-0.106-0.029-0.158s-0.06-0.123-0.12-0.212
			c-0.062-0.09-0.172-0.245-0.333-0.467l-0.639-0.859c-0.122-0.161-0.209-0.267-0.261-0.317s-0.106-0.086-0.164-0.107
			c-0.057-0.021-0.134-0.032-0.23-0.032h-0.301v1.288c0,0.308,0.015,0.521,0.043,0.642s0.083,0.211,0.164,0.273
			c0.08,0.063,0.212,0.117,0.395,0.164v0.263h-2.132v-0.263c0.18-0.047,0.304-0.095,0.373-0.146c0.07-0.05,0.12-0.109,0.15-0.18
			c0.03-0.069,0.052-0.164,0.064-0.284s0.019-0.276,0.019-0.47v-4.492c0-0.343-0.002-0.583-0.008-0.719
			c-0.005-0.136-0.02-0.251-0.043-0.346s-0.056-0.169-0.097-0.223c-0.041-0.053-0.097-0.096-0.166-0.128
			c-0.07-0.032-0.196-0.064-0.379-0.097v-0.279l1.294-0.054h0.322V32.506z"/>
	</g>
	<g>
		<path fill="#010101" d="M77.045,37.497c0,0.12,0.007,0.211,0.021,0.271c0.014,0.062,0.037,0.111,0.071,0.149
			c0.034,0.039,0.084,0.068,0.148,0.091c0.063,0.021,0.145,0.038,0.242,0.05c0.098,0.011,0.227,0.019,0.386,0.022v0.228h-2.3v-0.228
			c0.23-0.01,0.396-0.023,0.494-0.042c0.099-0.018,0.174-0.044,0.226-0.079s0.089-0.085,0.113-0.149
			c0.023-0.063,0.036-0.169,0.036-0.313v-2.522c0-0.083-0.015-0.144-0.044-0.183c-0.029-0.038-0.071-0.058-0.128-0.058
			c-0.066,0-0.16,0.034-0.283,0.104c-0.122,0.068-0.273,0.162-0.453,0.282l-0.138-0.239l1.456-0.867h0.171
			c-0.012,0.198-0.019,0.475-0.019,0.827V37.497z"/>
		<path fill="#010101" d="M97.582,34.943v-0.591c0.24-0.114,0.465-0.199,0.675-0.255c0.209-0.057,0.412-0.084,0.606-0.084
			c0.234,0,0.439,0.036,0.616,0.108c0.176,0.072,0.312,0.177,0.404,0.313c0.094,0.136,0.141,0.298,0.141,0.487
			c0,0.176-0.036,0.331-0.106,0.465s-0.169,0.25-0.297,0.35s-0.293,0.197-0.496,0.292v0.028c0.126,0.022,0.248,0.062,0.365,0.117
			c0.117,0.055,0.222,0.125,0.313,0.213c0.092,0.087,0.165,0.191,0.22,0.313s0.082,0.26,0.082,0.415c0,0.24-0.052,0.454-0.157,0.641
			c-0.104,0.187-0.265,0.334-0.48,0.441c-0.216,0.108-0.478,0.162-0.787,0.162c-0.178,0-0.37-0.021-0.577-0.061
			c-0.206-0.041-0.396-0.094-0.567-0.16v-0.659h0.373c0.072,0.215,0.169,0.372,0.288,0.47c0.119,0.097,0.281,0.146,0.486,0.146
			c0.27,0,0.474-0.073,0.611-0.221c0.139-0.147,0.207-0.365,0.207-0.653c0-0.303-0.091-0.533-0.273-0.693
			c-0.183-0.159-0.45-0.239-0.803-0.239h-0.28v-0.274c0.28-0.016,0.517-0.07,0.708-0.161c0.191-0.092,0.335-0.209,0.428-0.352
			c0.094-0.144,0.14-0.304,0.14-0.482c0-0.229-0.061-0.407-0.184-0.531c-0.122-0.125-0.301-0.187-0.534-0.187
			c-0.195,0-0.354,0.053-0.477,0.158s-0.213,0.268-0.271,0.485H97.582z"/>
	</g>
</g>
<g>
	<g>
		<path fill="#010101" d="M26.327,7.205c-0.044,0.044-0.096,0.066-0.154,0.066h-6.86c-0.059,0-0.11-0.022-0.154-0.066
			s-0.066-0.095-0.066-0.154s0.022-0.11,0.066-0.154s0.096-0.066,0.154-0.066h6.86c0.059,0,0.11,0.022,0.154,0.066
			s0.065,0.095,0.065,0.154S26.371,7.161,26.327,7.205z M26.327,9.337c-0.044,0.044-0.096,0.065-0.154,0.065h-6.86
			c-0.059,0-0.11-0.021-0.154-0.065s-0.066-0.096-0.066-0.154s0.022-0.11,0.066-0.154s0.096-0.065,0.154-0.065h6.86
			c0.059,0,0.11,0.021,0.154,0.065s0.065,0.096,0.065,0.154S26.371,9.293,26.327,9.337z"/>
	</g>
	<g>
		<path fill="#010101" stroke="#010101" stroke-width="0.314" stroke-miterlimit="10" d="M7.532,7.875h0.172
			c0.118,0,0.215-0.013,0.29-0.038c0.09-0.032,0.188-0.087,0.295-0.164c0.107-0.077,0.26-0.207,0.457-0.389
			C8.91,7.131,9.035,7,9.119,6.893c0.084-0.107,0.142-0.206,0.174-0.295c0.029-0.075,0.043-0.15,0.043-0.226
			c0-0.107-0.033-0.191-0.1-0.252C9.17,6.06,9.063,6.019,8.912,5.997V5.734h2.313v0.263c-0.165,0.032-0.34,0.105-0.526,0.22
			c-0.186,0.114-0.377,0.265-0.574,0.451l-1.234,1.17l1.546,2.018c0.179,0.236,0.341,0.41,0.485,0.523
			c0.146,0.112,0.304,0.187,0.476,0.223v0.263H9.336v-0.263c0.094-0.011,0.162-0.031,0.207-0.062
			c0.045-0.031,0.066-0.082,0.066-0.153c0-0.054-0.01-0.106-0.029-0.158s-0.06-0.123-0.121-0.212
			C9.398,9.927,9.287,9.772,9.127,9.55L8.488,8.691C8.366,8.53,8.279,8.425,8.228,8.375S8.121,8.289,8.064,8.267
			C8.006,8.246,7.93,8.235,7.833,8.235H7.532v1.288c0,0.308,0.015,0.521,0.043,0.642s0.083,0.211,0.163,0.273
			c0.081,0.063,0.213,0.117,0.395,0.164v0.263H6.002v-0.263c0.18-0.047,0.304-0.095,0.373-0.146c0.07-0.05,0.12-0.109,0.15-0.18
			c0.031-0.069,0.053-0.164,0.064-0.284c0.013-0.12,0.02-0.276,0.02-0.47V5.031c0-0.343-0.004-0.583-0.009-0.719
			c-0.005-0.136-0.02-0.251-0.042-0.346C6.535,3.871,6.502,3.796,6.461,3.743C6.42,3.689,6.365,3.646,6.295,3.614
			S6.099,3.55,5.916,3.518V3.238L7.21,3.185h0.322V7.875z"/>
	</g>
	<g>
		<path fill="#010101" d="M14.139,12.866c0,0.12,0.007,0.211,0.021,0.271c0.013,0.062,0.037,0.111,0.071,0.149
			c0.035,0.039,0.084,0.068,0.148,0.091c0.064,0.021,0.145,0.038,0.242,0.05c0.098,0.011,0.227,0.019,0.386,0.022v0.228h-2.3V13.45
			c0.23-0.01,0.396-0.023,0.494-0.042c0.098-0.018,0.174-0.044,0.225-0.079c0.053-0.035,0.09-0.085,0.114-0.149
			c0.024-0.063,0.036-0.169,0.036-0.313v-2.522c0-0.083-0.016-0.144-0.044-0.183c-0.029-0.038-0.071-0.058-0.128-0.058
			c-0.066,0-0.16,0.034-0.283,0.104c-0.122,0.068-0.273,0.162-0.453,0.282L12.53,10.25l1.456-0.867h0.172
			c-0.014,0.198-0.02,0.475-0.02,0.827V12.866z"/>
	</g>
	<g>
		<path fill="#010101" d="M31.665,10.951c-0.773,0-1.349-0.304-1.727-0.912s-0.566-1.532-0.566-2.77
			c0-0.658,0.059-1.227,0.175-1.707s0.279-0.876,0.488-1.189s0.461-0.545,0.754-0.695c0.294-0.15,0.614-0.226,0.961-0.226
			c0.784,0,1.367,0.302,1.751,0.907c0.383,0.605,0.574,1.519,0.574,2.743c0,1.267-0.205,2.224-0.615,2.874
			C33.051,10.625,32.452,10.951,31.665,10.951z M30.419,7.108c0,1.167,0.108,2.022,0.325,2.568c0.216,0.545,0.552,0.818,1.006,0.818
			c0.434,0,0.755-0.257,0.964-0.771c0.21-0.514,0.314-1.309,0.314-2.385c0-0.823-0.054-1.489-0.161-2
			c-0.107-0.51-0.257-0.875-0.448-1.097c-0.191-0.222-0.424-0.333-0.695-0.333c-0.247,0-0.454,0.073-0.62,0.22
			c-0.166,0.146-0.301,0.358-0.402,0.633c-0.103,0.275-0.175,0.611-0.218,1.006C30.44,6.164,30.419,6.611,30.419,7.108z"/>
	</g>
</g>
<circle fill="#FFFFFF" stroke="#000000" stroke-width="0.5" stroke-miterlimit="10" cx="40.04" cy="15.725" r="2.836"/>
<circle fill="#FFFFFF" stroke="#000000" stroke-width="0.5" stroke-miterlimit="10" cx="45.71" cy="51.615" r="2.836"/>
<g>
	<g>
		<path fill="#010101" stroke="#010101" stroke-width="0.314" stroke-miterlimit="10" d="M71.298,7.733h0.172
			c0.118,0,0.215-0.013,0.29-0.038c0.09-0.032,0.188-0.087,0.295-0.164c0.107-0.077,0.26-0.207,0.457-0.389
			c0.164-0.154,0.289-0.285,0.373-0.392c0.084-0.107,0.142-0.206,0.174-0.295c0.029-0.075,0.043-0.15,0.043-0.226
			c0-0.107-0.033-0.191-0.1-0.252c-0.066-0.061-0.174-0.102-0.324-0.124V5.591h2.313v0.263c-0.165,0.032-0.34,0.105-0.526,0.22
			c-0.186,0.114-0.377,0.265-0.574,0.451l-1.234,1.17l1.546,2.018c0.179,0.236,0.341,0.41,0.485,0.523
			c0.146,0.112,0.304,0.187,0.476,0.223v0.263h-2.062v-0.263c0.094-0.011,0.162-0.031,0.207-0.062
			c0.045-0.031,0.066-0.082,0.066-0.153c0-0.054-0.01-0.106-0.029-0.158s-0.06-0.123-0.121-0.212
			c-0.061-0.09-0.172-0.245-0.332-0.467l-0.639-0.859c-0.122-0.161-0.209-0.267-0.261-0.317s-0.106-0.086-0.163-0.107
			c-0.059-0.021-0.135-0.032-0.231-0.032h-0.301V9.38c0,0.308,0.015,0.521,0.043,0.642s0.083,0.211,0.163,0.273
			c0.081,0.063,0.213,0.117,0.395,0.164v0.263h-2.131v-0.263c0.18-0.047,0.304-0.095,0.373-0.146c0.07-0.05,0.12-0.109,0.15-0.18
			c0.031-0.069,0.053-0.164,0.064-0.284c0.013-0.12,0.02-0.276,0.02-0.47V4.888c0-0.343-0.004-0.583-0.009-0.719
			c-0.005-0.136-0.02-0.251-0.042-0.346c-0.023-0.095-0.057-0.169-0.098-0.223c-0.041-0.053-0.096-0.096-0.166-0.128
			s-0.196-0.064-0.379-0.097V3.096l1.294-0.054h0.322V7.733z"/>
	</g>
	<g>
		<path fill="#010101" d="M78.036,13.037c0.102,0,0.184-0.006,0.245-0.019c0.063-0.012,0.112-0.033,0.149-0.062
			c0.037-0.029,0.067-0.067,0.089-0.114c0.021-0.046,0.049-0.118,0.082-0.216h0.265l-0.053,0.908h-2.561v-0.149
			c0.089-0.218,0.209-0.44,0.361-0.669c0.151-0.228,0.365-0.496,0.644-0.806c0.24-0.265,0.414-0.466,0.52-0.603
			c0.116-0.149,0.203-0.279,0.26-0.388c0.058-0.108,0.098-0.212,0.123-0.308c0.024-0.097,0.037-0.193,0.037-0.291
			c0-0.155-0.024-0.293-0.074-0.412s-0.126-0.213-0.229-0.281c-0.104-0.068-0.232-0.103-0.388-0.103
			c-0.388,0-0.649,0.215-0.784,0.646h-0.376V9.576c0.251-0.119,0.485-0.204,0.704-0.257s0.416-0.079,0.59-0.079
			c0.386,0,0.677,0.084,0.874,0.253s0.296,0.414,0.296,0.735c0,0.11-0.011,0.211-0.033,0.304c-0.021,0.092-0.056,0.184-0.103,0.273
			c-0.047,0.091-0.109,0.188-0.188,0.291c-0.078,0.104-0.165,0.209-0.261,0.315c-0.096,0.107-0.261,0.285-0.495,0.533
			c-0.394,0.417-0.684,0.781-0.868,1.092H78.036z"/>
	</g>
</g>
<g>
	<g>
		<path fill="#010101" d="M90.491,60.5c-0.044,0.044-0.096,0.066-0.154,0.066h-6.86c-0.059,0-0.11-0.022-0.154-0.066
			s-0.066-0.095-0.066-0.154s0.022-0.11,0.066-0.154s0.096-0.066,0.154-0.066h6.86c0.059,0,0.11,0.022,0.154,0.066
			s0.065,0.095,0.065,0.154S90.535,60.456,90.491,60.5z M90.491,62.632c-0.044,0.044-0.096,0.065-0.154,0.065h-6.86
			c-0.059,0-0.11-0.021-0.154-0.065s-0.066-0.096-0.066-0.154s0.022-0.11,0.066-0.154s0.096-0.065,0.154-0.065h6.86
			c0.059,0,0.11,0.021,0.154,0.065s0.065,0.096,0.065,0.154S90.535,62.588,90.491,62.632z"/>
	</g>
	<g>
		<path fill="#010101" stroke="#010101" stroke-width="0.314" stroke-miterlimit="10" d="M71.298,61.17h0.172
			c0.118,0,0.215-0.013,0.29-0.038c0.09-0.032,0.188-0.087,0.295-0.164c0.107-0.077,0.26-0.207,0.457-0.389
			c0.164-0.154,0.289-0.285,0.373-0.392c0.084-0.107,0.142-0.206,0.174-0.295c0.029-0.075,0.043-0.15,0.043-0.226
			c0-0.107-0.033-0.191-0.1-0.252c-0.066-0.061-0.174-0.102-0.324-0.124v-0.263h2.313v0.263c-0.165,0.032-0.34,0.105-0.526,0.22
			c-0.186,0.114-0.377,0.265-0.574,0.451l-1.234,1.17l1.546,2.018c0.179,0.236,0.341,0.41,0.485,0.523
			c0.146,0.112,0.304,0.187,0.476,0.223v0.263h-2.062v-0.263c0.094-0.011,0.162-0.031,0.207-0.062
			c0.045-0.031,0.066-0.082,0.066-0.153c0-0.054-0.01-0.106-0.029-0.158s-0.06-0.123-0.121-0.212
			c-0.061-0.09-0.172-0.245-0.332-0.467l-0.639-0.859c-0.122-0.161-0.209-0.267-0.261-0.317s-0.106-0.086-0.163-0.107
			c-0.059-0.021-0.135-0.032-0.231-0.032h-0.301v1.288c0,0.308,0.015,0.521,0.043,0.642s0.083,0.211,0.163,0.273
			c0.081,0.063,0.213,0.117,0.395,0.164v0.263h-2.131v-0.263c0.18-0.047,0.304-0.095,0.373-0.146c0.07-0.05,0.12-0.109,0.15-0.18
			c0.031-0.069,0.053-0.164,0.064-0.284c0.013-0.12,0.02-0.276,0.02-0.47v-4.492c0-0.343-0.004-0.583-0.009-0.719
			c-0.005-0.136-0.02-0.251-0.042-0.346c-0.023-0.095-0.057-0.169-0.098-0.223c-0.041-0.053-0.096-0.096-0.166-0.128
			s-0.196-0.064-0.379-0.097v-0.279l1.294-0.054h0.322V61.17z"/>
	</g>
	<g>
		<path fill="#010101" d="M77.629,66.82c0.129-0.033,0.215-0.07,0.258-0.11c0.044-0.041,0.072-0.098,0.086-0.173
			c0.014-0.074,0.02-0.188,0.02-0.342v-0.511h-1.729v-0.232l1.819-2.747h0.444v2.678h0.066c0.119,0,0.206-0.009,0.258-0.026
			s0.095-0.048,0.129-0.093c0.035-0.045,0.066-0.118,0.096-0.22h0.236l-0.037,0.641h-0.748v0.511c0,0.139,0.006,0.24,0.015,0.305
			s0.024,0.115,0.047,0.152c0.021,0.037,0.054,0.068,0.097,0.093c0.042,0.025,0.111,0.05,0.207,0.075v0.152h-1.264V66.82z
			 M76.776,65.382h1.216v-0.774c0-0.194,0.004-0.413,0.01-0.654s0.014-0.424,0.021-0.546h-0.031l-1.216,1.932V65.382z"/>
	</g>
	<g>
		<path fill="#010101" d="M95.845,64.246c-0.773,0-1.349-0.304-1.727-0.912s-0.566-1.532-0.566-2.77
			c0-0.658,0.059-1.227,0.175-1.707s0.279-0.876,0.488-1.189s0.461-0.545,0.754-0.695c0.294-0.15,0.614-0.226,0.961-0.226
			c0.784,0,1.367,0.302,1.751,0.907c0.383,0.605,0.574,1.519,0.574,2.743c0,1.267-0.205,2.224-0.615,2.874
			C97.23,63.92,96.632,64.246,95.845,64.246z M94.599,60.403c0,1.167,0.108,2.022,0.325,2.568c0.216,0.545,0.552,0.818,1.006,0.818
			c0.434,0,0.755-0.257,0.964-0.771c0.21-0.514,0.314-1.309,0.314-2.385c0-0.823-0.054-1.489-0.161-2
			c-0.107-0.51-0.257-0.875-0.448-1.097c-0.191-0.222-0.424-0.333-0.695-0.333c-0.247,0-0.454,0.073-0.62,0.22
			c-0.166,0.146-0.301,0.358-0.402,0.633c-0.103,0.275-0.175,0.611-0.218,1.006C94.62,59.459,94.599,59.906,94.599,60.403z"/>
	</g>
</g>
</svg>
