<?xml version="1.0" encoding="utf-8"?>
<!-- Generator: Adobe Illustrator 15.1.0, SVG Export Plug-In . SVG Version: 6.00 Build 0)  -->
<!DOCTYPE svg PUBLIC "-//W3C//DTD SVG 1.1//EN" "http://www.w3.org/Graphics/SVG/1.1/DTD/svg11.dtd">
<svg version="1.1" id="Layer_1" xmlns="http://www.w3.org/2000/svg" xmlns:xlink="http://www.w3.org/1999/xlink" x="0px" y="0px"
	 width="170.515px" height="151.098px" viewBox="0 0 170.515 151.098" enable-background="new 0 0 170.515 151.098"
	 xml:space="preserve">
<g>
	<g>
		<line fill="none" stroke="#000000" stroke-width="0.5" stroke-miterlimit="10" x1="19.492" y1="151.098" x2="19.492" y2="4.327"/>
		<g>
			<path d="M19.492,5.224L17.69,6.32l-0.041-0.062l1.167-2.938c0.225-1.023,0.45-2.047,0.675-3.07
				c0.225,1.023,0.45,2.047,0.675,3.07l1.167,2.938L21.303,6.32L19.492,5.224z"/>
		</g>
	</g>
</g>
<g>
	<g>
		<line fill="none" stroke="#000000" stroke-width="0.5" stroke-miterlimit="10" x1="0" y1="138.386" x2="166.438" y2="138.386"/>
		<g>
			<path d="M165.541,138.386l-1.096-1.802l0.062-0.041l2.938,1.167c1.023,0.226,2.047,0.45,3.07,0.676
				c-1.023,0.225-2.047,0.45-3.07,0.676l-2.938,1.167l-0.062-0.031L165.541,138.386z"/>
		</g>
	</g>
</g>
<g>
	<g>
		<path fill="#010101" d="M35.773,14.194c-0.021,0.026-0.047,0.039-0.076,0.039c-0.051,0-0.084-0.009-0.099-0.025
			c-0.416-0.384-0.771-0.82-1.066-1.313c-0.295-0.491-0.537-1.018-0.727-1.579c-0.19-0.562-0.33-1.148-0.421-1.762
			c-0.091-0.613-0.137-1.229-0.137-1.847c0-0.618,0.045-1.233,0.137-1.847c0.091-0.614,0.231-1.201,0.421-1.762
			c0.189-0.561,0.432-1.087,0.727-1.579c0.295-0.492,0.65-0.929,1.066-1.312c0.015-0.017,0.047-0.026,0.099-0.026
			c0.029,0,0.055,0.013,0.076,0.039c0.015,0.035,0.022,0.065,0.022,0.091c0,0.035-0.011,0.065-0.033,0.091
			c-0.35,0.392-0.645,0.831-0.885,1.318c-0.241,0.487-0.436,1.003-0.585,1.547s-0.255,1.107-0.317,1.69
			c-0.062,0.583-0.093,1.167-0.093,1.749c0,0.592,0.031,1.177,0.093,1.755c0.062,0.579,0.167,1.141,0.317,1.684
			c0.149,0.544,0.344,1.06,0.585,1.547c0.24,0.487,0.536,0.927,0.885,1.318c0.022,0.026,0.033,0.057,0.033,0.092
			C35.795,14.128,35.788,14.16,35.773,14.194z"/>
	</g>
	<g>
		<path fill="#010101" d="M46.137,9.554c-0.091,0.613-0.231,1.2-0.421,1.762s-0.432,1.088-0.727,1.579
			c-0.296,0.492-0.65,0.929-1.066,1.313c-0.029,0.017-0.051,0.025-0.065,0.025h-0.032c-0.029,0-0.055-0.013-0.077-0.039
			c-0.015-0.034-0.021-0.065-0.021-0.091c0-0.035,0.011-0.065,0.032-0.092c0.351-0.392,0.646-0.831,0.886-1.318
			s0.436-1.003,0.585-1.547c0.149-0.543,0.255-1.104,0.317-1.684c0.062-0.578,0.093-1.164,0.093-1.755
			c0-0.583-0.031-1.166-0.093-1.749c-0.063-0.583-0.168-1.146-0.317-1.69s-0.345-1.06-0.585-1.547s-0.535-0.927-0.886-1.318
			c-0.021-0.026-0.032-0.056-0.032-0.091c0-0.043,0.007-0.074,0.021-0.091c0.022-0.026,0.048-0.039,0.077-0.039h0.032
			c0.015,0,0.036,0.009,0.065,0.026c0.416,0.383,0.771,0.82,1.066,1.312c0.295,0.492,0.537,1.018,0.727,1.579
			c0.189,0.562,0.33,1.148,0.421,1.762c0.091,0.613,0.137,1.229,0.137,1.847C46.273,8.325,46.228,8.941,46.137,9.554z"/>
	</g>
	<g>
		<path fill="#010101" d="M32.248,3.137l-0.37,1.647h-0.516c-0.011-0.257-0.03-0.459-0.059-0.604
			c-0.028-0.145-0.061-0.252-0.097-0.322c-0.036-0.07-0.077-0.122-0.123-0.156c-0.047-0.034-0.105-0.058-0.175-0.072
			s-0.169-0.021-0.298-0.021h-1.75l-0.612,2.813h1.025c0.158,0,0.289-0.021,0.395-0.064c0.105-0.043,0.203-0.117,0.292-0.223
			c0.089-0.105,0.189-0.267,0.3-0.485h0.489l-0.483,2.061h-0.456c0-0.196-0.007-0.341-0.021-0.435
			c-0.014-0.093-0.033-0.162-0.057-0.207c-0.023-0.045-0.053-0.08-0.088-0.104c-0.036-0.025-0.083-0.043-0.14-0.054
			s-0.152-0.016-0.285-0.016h-1.073L27.459,9.99h1.589c0.157,0,0.291-0.011,0.4-0.034c0.109-0.023,0.208-0.063,0.298-0.121
			s0.175-0.132,0.258-0.223c0.082-0.091,0.167-0.208,0.255-0.352c0.087-0.144,0.207-0.361,0.357-0.655h0.521l-0.473,1.857h-4.762
			l0.059-0.263c0.136-0.021,0.238-0.057,0.306-0.104c0.068-0.049,0.125-0.116,0.172-0.202c0.046-0.085,0.089-0.19,0.129-0.313
			s0.099-0.362,0.177-0.717l0.913-4.132c0.079-0.357,0.118-0.646,0.118-0.864c0-0.168-0.043-0.286-0.129-0.352
			c-0.086-0.066-0.218-0.105-0.397-0.116l0.059-0.263H32.248z"/>
	</g>
	<g>
		<path fill="#010101" stroke="#010101" stroke-width="0.314" stroke-miterlimit="10" d="M38.475,7.473h0.172
			c0.118,0,0.215-0.013,0.29-0.038c0.089-0.032,0.188-0.087,0.295-0.164c0.107-0.077,0.26-0.207,0.456-0.389
			c0.165-0.154,0.289-0.285,0.373-0.392c0.085-0.107,0.143-0.206,0.175-0.295c0.028-0.075,0.043-0.15,0.043-0.226
			c0-0.107-0.033-0.191-0.1-0.252c-0.065-0.061-0.174-0.102-0.324-0.124V5.332h2.313v0.263c-0.164,0.032-0.34,0.105-0.526,0.22
			c-0.186,0.114-0.377,0.265-0.574,0.451l-1.234,1.17l1.546,2.018c0.179,0.236,0.341,0.41,0.486,0.523
			c0.145,0.112,0.303,0.187,0.475,0.223v0.263h-2.062V10.2c0.093-0.011,0.162-0.031,0.207-0.062
			c0.045-0.031,0.066-0.082,0.066-0.153c0-0.054-0.01-0.106-0.029-0.158s-0.06-0.123-0.12-0.212
			c-0.062-0.09-0.172-0.245-0.333-0.467l-0.639-0.859c-0.122-0.161-0.209-0.267-0.261-0.317s-0.106-0.086-0.164-0.107
			c-0.057-0.021-0.134-0.032-0.23-0.032h-0.301v1.288c0,0.308,0.015,0.521,0.043,0.642s0.083,0.211,0.164,0.273
			c0.08,0.063,0.212,0.117,0.395,0.164v0.263h-2.131V10.2c0.179-0.047,0.303-0.095,0.373-0.146c0.07-0.05,0.12-0.109,0.15-0.18
			c0.03-0.069,0.052-0.164,0.064-0.284s0.019-0.276,0.019-0.47V4.628c0-0.343-0.002-0.583-0.008-0.719
			c-0.005-0.136-0.02-0.251-0.043-0.346s-0.056-0.169-0.097-0.223c-0.041-0.053-0.097-0.096-0.166-0.128
			c-0.07-0.032-0.196-0.064-0.378-0.097V2.836l1.293-0.054h0.322V7.473z"/>
	</g>
</g>
<path fill="none" stroke="#010101" stroke-miterlimit="10" d="M19.492,138.386c0,0,22.023-37.788,46.856-56.538
	c30.823-23.272,49.5-51,56-69.25"/>
<circle fill="none" stroke="#010101" stroke-width="0.5" stroke-miterlimit="10" cx="66.453" cy="81.814" r="1.75"/>
<g>
	<path d="M32.792,54.064c0,0.227-0.043,0.381-0.129,0.463s-0.244,0.123-0.475,0.123c-0.227,0-0.382-0.04-0.466-0.12
		s-0.126-0.231-0.126-0.454c0-0.227,0.043-0.381,0.129-0.463s0.244-0.123,0.475-0.123c0.227,0,0.382,0.04,0.466,0.12
		S32.792,53.841,32.792,54.064z M32.681,61.119c0,0.031-0.008,0.058-0.023,0.079s-0.041,0.04-0.076,0.056s-0.084,0.027-0.146,0.035
		s-0.143,0.012-0.24,0.012c-0.094,0-0.172-0.004-0.234-0.012s-0.112-0.02-0.149-0.035s-0.063-0.034-0.076-0.056
		s-0.021-0.048-0.021-0.079v-5.273c0-0.027,0.007-0.053,0.021-0.076s0.039-0.043,0.076-0.059s0.087-0.027,0.149-0.035
		s0.141-0.012,0.234-0.012c0.098,0,0.178,0.004,0.24,0.012s0.111,0.02,0.146,0.035s0.061,0.035,0.076,0.059s0.023,0.049,0.023,0.076
		V61.119z"/>
	<path d="M39.009,61.119c0,0.031-0.008,0.058-0.023,0.079s-0.041,0.04-0.076,0.056s-0.084,0.027-0.146,0.035
		S38.623,61.3,38.529,61.3c-0.098,0-0.178-0.004-0.24-0.012s-0.111-0.02-0.146-0.035s-0.061-0.034-0.076-0.056
		s-0.023-0.048-0.023-0.079v-3.088c0-0.301-0.023-0.543-0.07-0.727s-0.115-0.342-0.205-0.475s-0.206-0.234-0.349-0.305
		s-0.308-0.105-0.495-0.105c-0.242,0-0.484,0.086-0.727,0.258s-0.496,0.424-0.762,0.756v3.686c0,0.031-0.008,0.058-0.023,0.079
		s-0.041,0.04-0.076,0.056s-0.084,0.027-0.146,0.035s-0.143,0.012-0.24,0.012c-0.094,0-0.172-0.004-0.234-0.012
		s-0.112-0.02-0.149-0.035s-0.063-0.034-0.076-0.056s-0.021-0.048-0.021-0.079v-5.273c0-0.031,0.006-0.058,0.018-0.079
		s0.035-0.041,0.07-0.059s0.08-0.029,0.135-0.035s0.127-0.009,0.217-0.009c0.086,0,0.157,0.003,0.214,0.009s0.101,0.018,0.132,0.035
		s0.054,0.037,0.067,0.059s0.021,0.048,0.021,0.079v0.697c0.297-0.332,0.593-0.575,0.888-0.729s0.593-0.231,0.894-0.231
		c0.352,0,0.647,0.06,0.888,0.179s0.435,0.278,0.583,0.478s0.255,0.433,0.319,0.7s0.097,0.589,0.097,0.964V61.119z"/>
	<path d="M45.267,61.119c0,0.031-0.008,0.058-0.023,0.079s-0.042,0.04-0.079,0.056s-0.087,0.027-0.149,0.035
		S44.875,61.3,44.781,61.3s-0.172-0.004-0.234-0.012s-0.112-0.02-0.149-0.035s-0.063-0.034-0.079-0.056s-0.023-0.048-0.023-0.079
		v-7.154c-0.008,0.012-0.02,0.021-0.035,0.026S44.222,54,44.195,54c-0.043,0-0.111-0.011-0.205-0.032s-0.192-0.04-0.296-0.056
		s-0.202-0.027-0.296-0.035s-0.184-0.012-0.27-0.012c-0.242,0-0.441,0.024-0.598,0.073s-0.279,0.124-0.369,0.226
		s-0.151,0.232-0.185,0.393s-0.05,0.348-0.05,0.563v0.574h1.084c0.031,0,0.059,0.007,0.082,0.021s0.044,0.037,0.062,0.07
		s0.03,0.075,0.038,0.126s0.012,0.113,0.012,0.188c0,0.141-0.017,0.242-0.05,0.305s-0.081,0.094-0.144,0.094h-1.084v4.623
		c0,0.031-0.008,0.058-0.023,0.079s-0.042,0.04-0.079,0.056s-0.087,0.027-0.149,0.035S41.535,61.3,41.441,61.3
		s-0.172-0.004-0.234-0.012s-0.112-0.02-0.149-0.035s-0.063-0.034-0.079-0.056s-0.023-0.048-0.023-0.079v-4.623H40.21
		c-0.063,0-0.109-0.031-0.141-0.094s-0.047-0.164-0.047-0.305c0-0.074,0.004-0.137,0.012-0.188s0.02-0.093,0.035-0.126
		s0.035-0.057,0.059-0.07s0.051-0.021,0.082-0.021h0.744V55.13c0-0.363,0.041-0.676,0.123-0.938s0.208-0.476,0.378-0.642
		s0.386-0.289,0.647-0.369s0.574-0.12,0.938-0.12c0.102,0,0.207,0.004,0.316,0.012s0.216,0.019,0.319,0.032s0.193,0.027,0.27,0.041
		s0.137,0.027,0.182,0.041s0.081,0.03,0.108,0.05s0.047,0.045,0.059,0.076c0.004-0.039,0.013-0.07,0.026-0.094
		s0.037-0.045,0.07-0.064s0.081-0.033,0.144-0.041s0.145-0.012,0.246-0.012c0.094,0,0.172,0.004,0.234,0.012s0.112,0.02,0.149,0.035
		s0.063,0.035,0.079,0.059s0.023,0.051,0.023,0.082V61.119z"/>
	<path d="M51.554,58.253c0,0.152-0.038,0.261-0.115,0.325s-0.164,0.097-0.262,0.097h-3.473c0,0.293,0.029,0.557,0.088,0.791
		c0.059,0.234,0.157,0.436,0.294,0.604c0.137,0.168,0.316,0.297,0.536,0.387s0.489,0.135,0.807,0.135
		c0.251,0,0.475-0.021,0.671-0.062s0.366-0.087,0.509-0.138c0.143-0.051,0.261-0.097,0.353-0.138s0.162-0.062,0.209-0.062
		c0.027,0,0.052,0.007,0.073,0.021s0.038,0.034,0.05,0.062c0.012,0.027,0.021,0.065,0.026,0.114s0.009,0.108,0.009,0.179
		c0,0.051-0.002,0.095-0.006,0.132s-0.009,0.07-0.015,0.1s-0.016,0.056-0.029,0.079s-0.031,0.046-0.053,0.067
		s-0.085,0.057-0.19,0.105s-0.242,0.097-0.41,0.144s-0.362,0.089-0.583,0.126s-0.456,0.056-0.706,0.056
		c-0.434,0-0.813-0.061-1.14-0.182s-0.601-0.301-0.823-0.539s-0.391-0.537-0.504-0.896s-0.17-0.777-0.17-1.254
		c0-0.453,0.059-0.86,0.176-1.222s0.286-0.668,0.507-0.92s0.487-0.445,0.8-0.58s0.662-0.202,1.049-0.202
		c0.414,0,0.767,0.066,1.058,0.199s0.53,0.312,0.718,0.536s0.325,0.488,0.413,0.791s0.132,0.626,0.132,0.97V58.253z M50.582,57.966
		c0.012-0.508-0.102-0.906-0.339-1.195c-0.238-0.289-0.591-0.434-1.058-0.434c-0.24,0-0.45,0.045-0.631,0.135
		c-0.181,0.09-0.333,0.209-0.454,0.357c-0.122,0.148-0.216,0.321-0.283,0.519s-0.104,0.403-0.112,0.618H50.582z"/>
	<path d="M56.839,61.007c0.031,0.055,0.047,0.101,0.047,0.138s-0.019,0.067-0.056,0.091s-0.094,0.04-0.17,0.05
		S56.486,61.3,56.365,61.3c-0.117,0-0.21-0.003-0.278-0.009s-0.123-0.016-0.164-0.029s-0.072-0.031-0.094-0.053
		s-0.04-0.046-0.056-0.073l-1.266-2.092l-1.26,2.092c-0.016,0.027-0.034,0.052-0.056,0.073s-0.053,0.039-0.094,0.053
		s-0.095,0.023-0.161,0.029S52.783,61.3,52.673,61.3c-0.113,0-0.206-0.005-0.278-0.015s-0.125-0.026-0.158-0.05
		s-0.049-0.054-0.047-0.091s0.021-0.083,0.056-0.138l1.641-2.572l-1.553-2.479c-0.031-0.055-0.048-0.101-0.05-0.138
		s0.016-0.068,0.053-0.094s0.094-0.042,0.17-0.05s0.177-0.012,0.302-0.012c0.113,0,0.204,0.003,0.272,0.009s0.122,0.015,0.161,0.026
		s0.068,0.027,0.088,0.047s0.037,0.043,0.053,0.07l1.201,1.963l1.219-1.963c0.016-0.023,0.033-0.045,0.053-0.064
		s0.046-0.036,0.079-0.05s0.08-0.023,0.141-0.029s0.144-0.009,0.249-0.009c0.113,0,0.206,0.004,0.278,0.012s0.126,0.022,0.161,0.044
		s0.051,0.052,0.047,0.091s-0.023,0.088-0.059,0.146l-1.541,2.449L56.839,61.007z"/>
	<path d="M59.119,54.064c0,0.227-0.043,0.381-0.129,0.463s-0.244,0.123-0.475,0.123c-0.227,0-0.382-0.04-0.466-0.12
		s-0.126-0.231-0.126-0.454c0-0.227,0.043-0.381,0.129-0.463s0.244-0.123,0.475-0.123c0.227,0,0.382,0.04,0.466,0.12
		S59.119,53.841,59.119,54.064z M59.007,61.119c0,0.031-0.008,0.058-0.023,0.079s-0.041,0.04-0.076,0.056s-0.084,0.027-0.146,0.035
		s-0.143,0.012-0.24,0.012c-0.094,0-0.172-0.004-0.234-0.012s-0.112-0.02-0.149-0.035s-0.063-0.034-0.076-0.056
		s-0.021-0.048-0.021-0.079v-5.273c0-0.027,0.007-0.053,0.021-0.076s0.039-0.043,0.076-0.059s0.087-0.027,0.149-0.035
		s0.141-0.012,0.234-0.012c0.098,0,0.178,0.004,0.24,0.012s0.111,0.02,0.146,0.035s0.061,0.035,0.076,0.059s0.023,0.049,0.023,0.076
		V61.119z"/>
	<path d="M65.699,58.423c0,0.43-0.057,0.825-0.17,1.187s-0.282,0.673-0.507,0.935s-0.506,0.466-0.844,0.612s-0.729,0.22-1.175,0.22
		c-0.434,0-0.812-0.064-1.134-0.193s-0.591-0.316-0.806-0.563s-0.375-0.545-0.48-0.896s-0.158-0.75-0.158-1.195
		c0-0.43,0.056-0.825,0.167-1.187s0.279-0.673,0.504-0.935s0.505-0.465,0.841-0.609s0.729-0.217,1.178-0.217
		c0.434,0,0.812,0.064,1.134,0.193s0.591,0.316,0.806,0.563s0.376,0.545,0.483,0.896S65.699,57.982,65.699,58.423z M64.697,58.488
		c0-0.285-0.027-0.555-0.08-0.809c-0.054-0.254-0.141-0.477-0.263-0.668c-0.123-0.191-0.288-0.343-0.497-0.454
		c-0.208-0.111-0.469-0.167-0.78-0.167c-0.288,0-0.535,0.051-0.742,0.152c-0.207,0.102-0.377,0.245-0.512,0.431
		c-0.134,0.186-0.233,0.405-0.298,0.659s-0.098,0.531-0.098,0.832c0,0.289,0.026,0.561,0.08,0.814s0.142,0.476,0.266,0.665
		c0.125,0.189,0.291,0.34,0.5,0.451s0.469,0.167,0.781,0.167c0.284,0,0.53-0.051,0.739-0.152s0.38-0.244,0.515-0.428
		c0.134-0.184,0.232-0.402,0.295-0.656S64.697,58.792,64.697,58.488z M63.542,53.267c0.023-0.043,0.051-0.078,0.082-0.105
		s0.069-0.049,0.114-0.064s0.101-0.027,0.167-0.035s0.146-0.012,0.24-0.012c0.109,0,0.198,0.007,0.267,0.021
		s0.116,0.033,0.144,0.059s0.039,0.055,0.035,0.088s-0.021,0.067-0.053,0.103l-1.061,1.365c-0.031,0.039-0.06,0.07-0.085,0.094
		s-0.055,0.042-0.088,0.056s-0.076,0.023-0.129,0.029s-0.118,0.009-0.196,0.009c-0.086,0-0.154-0.006-0.205-0.018
		s-0.087-0.027-0.108-0.047s-0.029-0.045-0.023-0.076s0.022-0.068,0.05-0.111L63.542,53.267z"/>
	<path d="M70.433,59.683c0,0.27-0.05,0.51-0.149,0.721s-0.241,0.389-0.425,0.533s-0.402,0.254-0.656,0.328s-0.533,0.111-0.838,0.111
		c-0.188,0-0.366-0.015-0.536-0.044s-0.322-0.066-0.457-0.111s-0.249-0.092-0.343-0.141s-0.162-0.093-0.205-0.132
		s-0.074-0.094-0.094-0.164s-0.029-0.166-0.029-0.287c0-0.074,0.004-0.137,0.012-0.188s0.018-0.092,0.029-0.123
		s0.028-0.054,0.05-0.067s0.046-0.021,0.073-0.021c0.043,0,0.106,0.026,0.19,0.079s0.188,0.11,0.311,0.173s0.269,0.12,0.437,0.173
		s0.361,0.079,0.58,0.079c0.164,0,0.313-0.018,0.445-0.053s0.248-0.087,0.346-0.155s0.173-0.155,0.226-0.261s0.079-0.23,0.079-0.375
		c0-0.148-0.038-0.273-0.114-0.375s-0.177-0.191-0.302-0.27s-0.266-0.147-0.422-0.208s-0.317-0.124-0.483-0.19
		s-0.328-0.142-0.486-0.226s-0.3-0.187-0.425-0.308s-0.226-0.266-0.302-0.434s-0.114-0.369-0.114-0.604
		c0-0.207,0.04-0.405,0.12-0.595s0.2-0.355,0.36-0.498s0.36-0.257,0.601-0.343s0.521-0.129,0.841-0.129
		c0.141,0,0.281,0.012,0.422,0.035s0.268,0.053,0.381,0.088s0.21,0.073,0.29,0.114s0.141,0.077,0.182,0.108s0.068,0.059,0.082,0.082
		s0.023,0.05,0.029,0.079s0.012,0.065,0.018,0.108s0.009,0.096,0.009,0.158c0,0.066-0.003,0.124-0.009,0.173
		s-0.016,0.089-0.029,0.12s-0.03,0.054-0.05,0.067s-0.041,0.021-0.064,0.021c-0.035,0-0.086-0.021-0.152-0.064
		s-0.152-0.089-0.258-0.138s-0.229-0.095-0.372-0.138s-0.306-0.064-0.489-0.064c-0.164,0-0.309,0.019-0.434,0.056
		s-0.228,0.09-0.308,0.158s-0.141,0.149-0.182,0.243s-0.062,0.195-0.062,0.305c0,0.152,0.039,0.28,0.117,0.384
		s0.18,0.194,0.305,0.272s0.268,0.148,0.428,0.211s0.323,0.127,0.489,0.193s0.33,0.141,0.492,0.223s0.306,0.182,0.431,0.299
		s0.226,0.258,0.302,0.422S70.433,59.457,70.433,59.683z"/>
	<path d="M53.822,68.4c0,0.461-0.05,0.875-0.149,1.242s-0.246,0.679-0.439,0.935s-0.433,0.453-0.718,0.592s-0.611,0.208-0.979,0.208
		c-0.156,0-0.301-0.016-0.434-0.047s-0.263-0.08-0.39-0.146s-0.253-0.15-0.378-0.252s-0.258-0.221-0.398-0.357v2.637
		c0,0.031-0.008,0.059-0.023,0.082s-0.041,0.043-0.076,0.059s-0.084,0.027-0.146,0.035s-0.143,0.012-0.24,0.012
		c-0.094,0-0.172-0.004-0.234-0.012s-0.112-0.02-0.149-0.035s-0.063-0.035-0.076-0.059s-0.021-0.051-0.021-0.082v-7.365
		c0-0.035,0.006-0.063,0.018-0.085s0.035-0.04,0.07-0.056s0.08-0.026,0.135-0.032s0.121-0.009,0.199-0.009
		c0.082,0,0.149,0.003,0.202,0.009s0.097,0.017,0.132,0.032s0.06,0.034,0.073,0.056s0.021,0.05,0.021,0.085v0.709
		c0.16-0.164,0.314-0.307,0.463-0.428s0.298-0.222,0.448-0.302s0.305-0.141,0.463-0.182s0.325-0.062,0.501-0.062
		c0.383,0,0.709,0.074,0.979,0.223s0.489,0.352,0.659,0.609s0.294,0.558,0.372,0.899S53.822,68.017,53.822,68.4z M52.82,68.511
		c0-0.27-0.021-0.53-0.062-0.782c-0.041-0.252-0.112-0.476-0.212-0.671c-0.101-0.195-0.235-0.352-0.404-0.469
		c-0.169-0.117-0.379-0.176-0.631-0.176c-0.126,0-0.25,0.019-0.372,0.056c-0.122,0.037-0.246,0.096-0.372,0.176
		c-0.125,0.08-0.257,0.186-0.395,0.316c-0.137,0.131-0.283,0.292-0.436,0.483v2.098c0.267,0.324,0.521,0.572,0.761,0.744
		c0.239,0.172,0.491,0.258,0.754,0.258c0.244,0,0.453-0.059,0.628-0.176s0.316-0.273,0.424-0.469s0.188-0.414,0.239-0.656
		S52.82,68.757,52.82,68.511z"/>
	<path d="M60.179,68.423c0,0.43-0.057,0.825-0.17,1.187s-0.282,0.673-0.507,0.935s-0.506,0.466-0.844,0.612s-0.729,0.22-1.175,0.22
		c-0.434,0-0.812-0.064-1.134-0.193s-0.591-0.316-0.806-0.563s-0.375-0.545-0.48-0.896s-0.158-0.75-0.158-1.195
		c0-0.43,0.056-0.825,0.167-1.187s0.279-0.673,0.504-0.935s0.505-0.465,0.841-0.609s0.729-0.217,1.178-0.217
		c0.434,0,0.812,0.064,1.134,0.193s0.591,0.316,0.806,0.563s0.376,0.545,0.483,0.896S60.179,67.982,60.179,68.423z M59.177,68.488
		c0-0.285-0.027-0.555-0.08-0.809c-0.054-0.254-0.141-0.477-0.263-0.668c-0.123-0.191-0.288-0.343-0.497-0.454
		c-0.208-0.111-0.469-0.167-0.78-0.167c-0.288,0-0.535,0.051-0.742,0.152c-0.207,0.102-0.377,0.245-0.512,0.431
		c-0.134,0.186-0.233,0.405-0.298,0.659s-0.098,0.531-0.098,0.832c0,0.289,0.026,0.561,0.08,0.814s0.142,0.476,0.266,0.665
		c0.125,0.189,0.291,0.34,0.5,0.451s0.469,0.167,0.781,0.167c0.284,0,0.53-0.051,0.739-0.152s0.38-0.244,0.515-0.428
		c0.134-0.184,0.232-0.402,0.295-0.656S59.177,68.792,59.177,68.488z"/>
	<path d="M66.144,71.119c0,0.031-0.008,0.058-0.023,0.079s-0.041,0.04-0.076,0.056s-0.084,0.027-0.146,0.035
		S65.757,71.3,65.664,71.3c-0.098,0-0.178-0.004-0.24-0.012s-0.111-0.02-0.146-0.035s-0.061-0.034-0.076-0.056
		s-0.023-0.048-0.023-0.079v-3.088c0-0.301-0.023-0.543-0.07-0.727s-0.115-0.342-0.205-0.475s-0.206-0.234-0.349-0.305
		s-0.308-0.105-0.495-0.105c-0.242,0-0.484,0.086-0.727,0.258s-0.496,0.424-0.762,0.756v3.686c0,0.031-0.008,0.058-0.023,0.079
		s-0.041,0.04-0.076,0.056s-0.084,0.027-0.146,0.035s-0.143,0.012-0.24,0.012c-0.094,0-0.172-0.004-0.234-0.012
		s-0.112-0.02-0.149-0.035s-0.063-0.034-0.076-0.056s-0.021-0.048-0.021-0.079v-5.273c0-0.031,0.006-0.058,0.018-0.079
		s0.035-0.041,0.07-0.059s0.08-0.029,0.135-0.035s0.127-0.009,0.217-0.009c0.086,0,0.157,0.003,0.214,0.009s0.101,0.018,0.132,0.035
		s0.054,0.037,0.067,0.059s0.021,0.048,0.021,0.079v0.697c0.297-0.332,0.593-0.575,0.888-0.729s0.593-0.231,0.894-0.231
		c0.352,0,0.647,0.06,0.888,0.179s0.435,0.278,0.583,0.478s0.255,0.433,0.319,0.7s0.097,0.589,0.097,0.964V71.119z"/>
	<path d="M70.539,70.732c0,0.113-0.008,0.203-0.023,0.27s-0.039,0.115-0.07,0.146s-0.078,0.061-0.141,0.088s-0.134,0.05-0.214,0.067
		s-0.165,0.032-0.255,0.044s-0.18,0.018-0.27,0.018c-0.273,0-0.508-0.036-0.703-0.108s-0.355-0.182-0.48-0.328
		s-0.216-0.332-0.272-0.557s-0.085-0.489-0.085-0.794v-3.082h-0.738c-0.059,0-0.105-0.031-0.141-0.094s-0.053-0.164-0.053-0.305
		c0-0.074,0.005-0.137,0.015-0.188s0.022-0.093,0.038-0.126s0.036-0.057,0.062-0.07s0.054-0.021,0.085-0.021h0.732v-1.254
		c0-0.027,0.007-0.053,0.021-0.076s0.039-0.044,0.076-0.062s0.087-0.03,0.149-0.038s0.141-0.012,0.234-0.012
		c0.098,0,0.178,0.004,0.24,0.012s0.111,0.021,0.146,0.038s0.061,0.038,0.076,0.062s0.023,0.049,0.023,0.076v1.254h1.354
		c0.031,0,0.059,0.007,0.082,0.021s0.044,0.037,0.062,0.07s0.03,0.075,0.038,0.126s0.012,0.113,0.012,0.188
		c0,0.141-0.018,0.242-0.053,0.305s-0.082,0.094-0.141,0.094h-1.354v2.941c0,0.363,0.054,0.638,0.161,0.823s0.3,0.278,0.577,0.278
		c0.09,0,0.17-0.009,0.24-0.026s0.133-0.036,0.188-0.056s0.102-0.038,0.141-0.056s0.074-0.026,0.105-0.026
		c0.02,0,0.038,0.005,0.056,0.015s0.031,0.028,0.041,0.056s0.019,0.064,0.026,0.111S70.539,70.662,70.539,70.732z"/>
</g>
<g>
	<g>
		<path fill="#010101" d="M48.272,125.34c-0.021,0.026-0.047,0.039-0.076,0.039c-0.051,0-0.084-0.009-0.099-0.025
			c-0.416-0.384-0.771-0.82-1.066-1.313c-0.295-0.491-0.537-1.018-0.727-1.579c-0.19-0.562-0.33-1.148-0.421-1.762
			c-0.091-0.613-0.137-1.229-0.137-1.847c0-0.618,0.045-1.233,0.137-1.847c0.091-0.614,0.231-1.201,0.421-1.762
			c0.189-0.561,0.432-1.087,0.727-1.579c0.295-0.492,0.65-0.929,1.066-1.312c0.015-0.017,0.047-0.026,0.099-0.026
			c0.029,0,0.055,0.013,0.076,0.039c0.015,0.035,0.022,0.065,0.022,0.091c0,0.035-0.011,0.065-0.033,0.091
			c-0.35,0.392-0.645,0.831-0.885,1.318c-0.241,0.487-0.436,1.003-0.585,1.547s-0.255,1.107-0.317,1.69
			c-0.062,0.583-0.093,1.167-0.093,1.749c0,0.592,0.031,1.177,0.093,1.755c0.062,0.579,0.167,1.141,0.317,1.684
			c0.149,0.544,0.344,1.06,0.585,1.547c0.24,0.487,0.536,0.927,0.885,1.318c0.022,0.026,0.033,0.057,0.033,0.092
			C48.294,125.275,48.287,125.306,48.272,125.34z"/>
	</g>
	<g>
		<path fill="#010101" d="M58.636,120.701c-0.091,0.613-0.231,1.2-0.421,1.762s-0.432,1.088-0.727,1.579
			c-0.295,0.492-0.65,0.929-1.065,1.313c-0.029,0.017-0.051,0.025-0.066,0.025h-0.033c-0.029,0-0.055-0.013-0.077-0.039
			c-0.015-0.034-0.021-0.065-0.021-0.091c0-0.035,0.011-0.065,0.033-0.092c0.35-0.392,0.645-0.831,0.885-1.318
			c0.241-0.487,0.436-1.003,0.585-1.547c0.149-0.543,0.255-1.104,0.317-1.684c0.062-0.578,0.093-1.164,0.093-1.755
			c0-0.583-0.031-1.166-0.093-1.749c-0.063-0.583-0.168-1.146-0.317-1.69s-0.344-1.06-0.585-1.547
			c-0.24-0.487-0.536-0.927-0.885-1.318c-0.022-0.026-0.033-0.056-0.033-0.091c0-0.043,0.007-0.074,0.021-0.091
			c0.022-0.026,0.047-0.039,0.077-0.039h0.033c0.015,0,0.037,0.009,0.066,0.026c0.415,0.383,0.771,0.82,1.065,1.312
			c0.295,0.492,0.538,1.018,0.727,1.579c0.189,0.562,0.33,1.148,0.421,1.762c0.091,0.613,0.137,1.229,0.137,1.847
			C58.773,119.472,58.727,120.087,58.636,120.701z"/>
	</g>
	<g>
		<path fill="#010101" d="M44.747,114.283l-0.37,1.647h-0.516c-0.011-0.257-0.03-0.459-0.059-0.604
			c-0.028-0.145-0.061-0.252-0.097-0.322c-0.036-0.07-0.077-0.122-0.123-0.156c-0.047-0.034-0.105-0.058-0.175-0.072
			s-0.169-0.021-0.298-0.021h-1.75l-0.612,2.813h1.025c0.158,0,0.289-0.021,0.395-0.064c0.105-0.043,0.203-0.117,0.292-0.223
			c0.089-0.105,0.189-0.267,0.3-0.485h0.489l-0.483,2.061H42.31c0-0.196-0.007-0.341-0.021-0.435
			c-0.014-0.093-0.033-0.162-0.057-0.207c-0.023-0.045-0.053-0.08-0.088-0.104c-0.036-0.025-0.083-0.043-0.14-0.054
			s-0.152-0.016-0.285-0.016h-1.073l-0.688,3.096h1.589c0.157,0,0.291-0.011,0.4-0.034c0.109-0.023,0.208-0.063,0.298-0.121
			s0.175-0.132,0.258-0.223c0.082-0.091,0.167-0.208,0.255-0.352c0.087-0.144,0.207-0.361,0.357-0.655h0.521l-0.473,1.857h-4.762
			l0.059-0.263c0.136-0.021,0.238-0.057,0.306-0.104c0.068-0.049,0.125-0.116,0.172-0.202c0.046-0.085,0.089-0.19,0.129-0.313
			s0.099-0.362,0.177-0.717l0.913-4.132c0.079-0.357,0.118-0.646,0.118-0.864c0-0.168-0.043-0.286-0.129-0.352
			c-0.086-0.066-0.218-0.105-0.397-0.116l0.059-0.263H44.747z"/>
		<path fill="#010101" d="M72.887,118.62h0.172c0.11,0,0.23-0.021,0.359-0.064s0.267-0.11,0.414-0.201
			c0.146-0.091,0.343-0.235,0.59-0.432c0.187-0.15,0.324-0.278,0.414-0.384c0.089-0.105,0.149-0.198,0.182-0.276
			s0.049-0.154,0.049-0.226c0-0.175-0.122-0.273-0.365-0.295l0.06-0.263H76.5l0.102,0.263c-0.297,0.268-0.612,0.531-0.944,0.789
			l-1.358,1.057l0.805,2.034c0.072,0.183,0.146,0.322,0.221,0.421s0.162,0.171,0.26,0.218c0.099,0.046,0.225,0.075,0.379,0.086
			l-0.059,0.263h-1.434l-0.784-2.206c-0.05-0.14-0.093-0.234-0.129-0.285c-0.035-0.05-0.077-0.086-0.123-0.107
			c-0.047-0.021-0.122-0.032-0.226-0.032h-0.397l-0.559,2.63h-0.929l1.38-6.134c0.039-0.179,0.067-0.309,0.083-0.389
			c0.017-0.081,0.028-0.155,0.035-0.223s0.011-0.129,0.011-0.183c0-0.15-0.046-0.256-0.137-0.316
			c-0.092-0.061-0.255-0.095-0.491-0.102l0.064-0.279l1.358-0.048h0.311L72.887,118.62z"/>
	</g>
	<g>
		<path fill="#010101" stroke="#010101" stroke-width="0.314" stroke-miterlimit="10" d="M50.974,118.62h0.172
			c0.118,0,0.215-0.013,0.29-0.038c0.089-0.032,0.188-0.087,0.295-0.164c0.107-0.077,0.26-0.207,0.457-0.389
			c0.165-0.154,0.289-0.285,0.373-0.392c0.084-0.107,0.142-0.206,0.174-0.295c0.029-0.075,0.043-0.15,0.043-0.226
			c0-0.107-0.033-0.191-0.099-0.252c-0.066-0.061-0.174-0.102-0.325-0.124v-0.263h2.313v0.263c-0.165,0.032-0.34,0.105-0.526,0.22
			c-0.186,0.114-0.378,0.265-0.575,0.451l-1.234,1.17l1.546,2.018c0.179,0.236,0.341,0.41,0.486,0.523
			c0.145,0.112,0.303,0.187,0.475,0.223v0.263h-2.062v-0.263c0.093-0.011,0.162-0.031,0.207-0.062
			c0.044-0.031,0.067-0.082,0.067-0.153c0-0.054-0.01-0.106-0.029-0.158c-0.02-0.052-0.06-0.123-0.121-0.212
			c-0.061-0.09-0.172-0.245-0.333-0.467l-0.639-0.859c-0.122-0.161-0.208-0.267-0.26-0.317s-0.106-0.086-0.164-0.107
			c-0.058-0.021-0.134-0.032-0.231-0.032h-0.301v1.288c0,0.308,0.014,0.521,0.043,0.642s0.083,0.211,0.164,0.273
			s0.212,0.117,0.395,0.164v0.263h-2.131v-0.263c0.179-0.047,0.303-0.095,0.373-0.146c0.07-0.05,0.12-0.109,0.15-0.18
			c0.03-0.069,0.052-0.164,0.064-0.284c0.013-0.12,0.019-0.276,0.019-0.47v-4.492c0-0.343-0.003-0.583-0.008-0.719
			c-0.005-0.136-0.02-0.251-0.042-0.346c-0.023-0.095-0.056-0.169-0.097-0.223c-0.042-0.053-0.097-0.096-0.167-0.128
			s-0.196-0.064-0.378-0.097v-0.279l1.293-0.054h0.322V118.62z"/>
	</g>
	<g>
		<path fill="#010101" d="M67.175,118.729c-0.092,0.14-0.259,0.268-0.501,0.385c-0.314,0.147-0.639,0.202-0.973,0.165
			s-0.742-0.139-1.226-0.308c-0.367-0.132-0.671-0.213-0.913-0.242c-0.241-0.029-0.445-0.022-0.61,0.022
			c-0.164,0.044-0.304,0.118-0.417,0.22c-0.114,0.103-0.229,0.22-0.347,0.352l-0.451-0.275c0.052-0.059,0.11-0.134,0.177-0.225
			c0.065-0.092,0.153-0.182,0.264-0.27c0.109-0.088,0.249-0.165,0.418-0.231c0.168-0.066,0.377-0.11,0.626-0.132
			c0.169-0.015,0.334-0.007,0.495,0.022c0.161,0.029,0.318,0.068,0.473,0.116c0.154,0.047,0.301,0.099,0.439,0.154
			c0.14,0.055,0.275,0.104,0.407,0.148c0.33,0.103,0.606,0.148,0.83,0.137c0.224-0.011,0.407-0.051,0.55-0.121
			c0.143-0.069,0.257-0.15,0.341-0.242c0.084-0.091,0.152-0.167,0.203-0.225l0.407,0.264
			C67.331,118.495,67.266,118.59,67.175,118.729z"/>
	</g>
	<g>
		<path fill="#010101" d="M32.149,128.367c0,0.068-0.004,0.123-0.011,0.164c-0.007,0.042-0.016,0.075-0.024,0.1
			s-0.021,0.042-0.035,0.051c-0.015,0.009-0.032,0.014-0.054,0.014c-0.025,0-0.057-0.008-0.094-0.024s-0.083-0.034-0.137-0.054
			c-0.054-0.02-0.117-0.038-0.19-0.054c-0.074-0.016-0.159-0.024-0.255-0.024c-0.132,0-0.245,0.021-0.338,0.064
			c-0.093,0.043-0.168,0.11-0.226,0.201s-0.099,0.209-0.124,0.354c-0.025,0.145-0.038,0.321-0.038,0.529v0.526h1.079
			c0.029,0,0.053,0.006,0.072,0.019c0.02,0.012,0.038,0.034,0.054,0.064c0.016,0.03,0.029,0.069,0.038,0.115
			c0.009,0.046,0.014,0.104,0.014,0.172c0,0.128-0.016,0.222-0.048,0.279s-0.075,0.086-0.129,0.086h-1.079v4.234
			c0,0.029-0.007,0.053-0.021,0.073c-0.014,0.02-0.039,0.037-0.072,0.051c-0.034,0.014-0.08,0.025-0.137,0.032
			s-0.129,0.011-0.214,0.011c-0.086,0-0.158-0.003-0.215-0.011c-0.058-0.007-0.103-0.018-0.137-0.032
			c-0.034-0.014-0.058-0.031-0.072-0.051c-0.014-0.02-0.021-0.044-0.021-0.073v-4.234h-0.682c-0.058,0-0.101-0.029-0.129-0.086
			c-0.029-0.057-0.043-0.15-0.043-0.279c0-0.068,0.003-0.125,0.011-0.172c0.007-0.046,0.018-0.085,0.032-0.115
			c0.014-0.031,0.032-0.052,0.054-0.064c0.021-0.013,0.046-0.019,0.075-0.019h0.682v-0.499c0-0.336,0.031-0.625,0.094-0.867
			c0.063-0.242,0.159-0.439,0.288-0.593c0.128-0.154,0.291-0.267,0.486-0.341c0.195-0.073,0.425-0.11,0.689-0.11
			c0.125,0,0.247,0.012,0.365,0.035c0.118,0.023,0.209,0.048,0.274,0.075s0.107,0.051,0.129,0.073s0.039,0.049,0.054,0.083
			c0.014,0.034,0.024,0.075,0.029,0.124S32.149,128.299,32.149,128.367z"/>
		<path fill="#010101" d="M37.351,132.714c0,0.394-0.052,0.756-0.156,1.087c-0.104,0.331-0.259,0.616-0.464,0.856
			c-0.206,0.24-0.464,0.427-0.773,0.561c-0.31,0.134-0.668,0.201-1.077,0.201c-0.397,0-0.744-0.059-1.039-0.177
			c-0.295-0.118-0.542-0.29-0.738-0.515s-0.344-0.499-0.44-0.821c-0.097-0.322-0.145-0.687-0.145-1.095
			c0-0.394,0.051-0.756,0.153-1.087c0.102-0.331,0.256-0.616,0.461-0.856c0.206-0.24,0.463-0.426,0.771-0.558
			s0.667-0.199,1.079-0.199c0.397,0,0.744,0.059,1.039,0.177c0.295,0.118,0.541,0.29,0.738,0.515
			c0.197,0.226,0.345,0.499,0.443,0.821C37.302,131.947,37.351,132.31,37.351,132.714z M36.433,132.773
			c0-0.261-0.024-0.508-0.073-0.741c-0.049-0.232-0.129-0.437-0.241-0.612s-0.264-0.314-0.455-0.416
			c-0.191-0.102-0.43-0.153-0.715-0.153c-0.264,0-0.49,0.047-0.68,0.14c-0.189,0.093-0.346,0.225-0.468,0.395
			c-0.123,0.17-0.214,0.371-0.273,0.604c-0.06,0.233-0.089,0.487-0.089,0.762c0,0.265,0.024,0.514,0.073,0.746
			s0.13,0.436,0.244,0.609c0.114,0.174,0.266,0.312,0.458,0.414s0.43,0.153,0.715,0.153c0.26,0,0.486-0.046,0.677-0.14
			c0.191-0.093,0.349-0.224,0.471-0.392c0.123-0.168,0.213-0.369,0.271-0.601S36.433,133.053,36.433,132.773z"/>
		<path fill="#010101" d="M42.816,135.183c0,0.029-0.008,0.053-0.021,0.073c-0.015,0.02-0.038,0.037-0.07,0.051
			s-0.077,0.025-0.134,0.032c-0.058,0.007-0.129,0.011-0.215,0.011c-0.09,0-0.163-0.003-0.221-0.011
			c-0.057-0.007-0.102-0.018-0.134-0.032s-0.056-0.031-0.07-0.051c-0.014-0.02-0.021-0.044-0.021-0.073v-2.828
			c0-0.275-0.021-0.498-0.064-0.666c-0.042-0.168-0.105-0.313-0.188-0.435s-0.188-0.215-0.319-0.279s-0.282-0.097-0.454-0.097
			c-0.222,0-0.443,0.079-0.665,0.236c-0.222,0.157-0.455,0.388-0.698,0.692v3.375c0,0.029-0.007,0.053-0.021,0.073
			c-0.015,0.02-0.037,0.037-0.069,0.051s-0.077,0.025-0.135,0.032c-0.057,0.007-0.131,0.011-0.22,0.011
			c-0.086,0-0.157-0.003-0.215-0.011s-0.103-0.018-0.137-0.032s-0.058-0.031-0.07-0.051c-0.013-0.02-0.019-0.044-0.019-0.073v-4.83
			c0-0.029,0.006-0.053,0.017-0.072c0.011-0.02,0.032-0.038,0.064-0.054s0.073-0.027,0.123-0.032s0.116-0.008,0.198-0.008
			c0.079,0,0.145,0.003,0.196,0.008s0.092,0.016,0.121,0.032c0.028,0.016,0.049,0.034,0.062,0.054
			c0.013,0.02,0.019,0.043,0.019,0.072v0.639c0.272-0.304,0.543-0.527,0.813-0.668c0.271-0.142,0.543-0.212,0.818-0.212
			c0.322,0,0.594,0.055,0.813,0.164c0.221,0.109,0.398,0.255,0.534,0.437c0.136,0.183,0.233,0.396,0.293,0.642
			c0.059,0.245,0.089,0.54,0.089,0.883V135.183z"/>
		<path fill="#010101" d="M48.925,132.714c0,0.394-0.052,0.756-0.155,1.087s-0.259,0.616-0.465,0.856
			c-0.205,0.24-0.463,0.427-0.772,0.561c-0.31,0.134-0.669,0.201-1.076,0.201c-0.397,0-0.744-0.059-1.039-0.177
			c-0.296-0.118-0.542-0.29-0.738-0.515c-0.197-0.226-0.344-0.499-0.44-0.821c-0.097-0.322-0.145-0.687-0.145-1.095
			c0-0.394,0.051-0.756,0.152-1.087c0.103-0.331,0.256-0.616,0.462-0.856s0.463-0.426,0.771-0.558s0.668-0.199,1.079-0.199
			c0.397,0,0.743,0.059,1.039,0.177c0.295,0.118,0.541,0.29,0.738,0.515c0.196,0.226,0.344,0.499,0.442,0.821
			C48.876,131.947,48.925,132.31,48.925,132.714z M48.007,132.773c0-0.261-0.024-0.508-0.073-0.741
			c-0.049-0.232-0.129-0.437-0.24-0.612c-0.112-0.175-0.264-0.314-0.455-0.416c-0.191-0.102-0.43-0.153-0.716-0.153
			c-0.264,0-0.49,0.047-0.68,0.14c-0.189,0.093-0.346,0.225-0.469,0.395c-0.122,0.17-0.214,0.371-0.273,0.604
			c-0.06,0.233-0.089,0.487-0.089,0.762c0,0.265,0.024,0.514,0.073,0.746s0.13,0.436,0.243,0.609
			c0.114,0.174,0.267,0.312,0.458,0.414s0.43,0.153,0.715,0.153c0.26,0,0.486-0.046,0.678-0.14c0.191-0.093,0.348-0.224,0.471-0.392
			s0.213-0.369,0.271-0.601C47.979,133.309,48.007,133.053,48.007,132.773z"/>
		<path fill="#010101" d="M54.391,135.183c0,0.029-0.008,0.053-0.021,0.073c-0.015,0.02-0.038,0.037-0.07,0.051
			s-0.077,0.025-0.134,0.032c-0.058,0.007-0.129,0.011-0.215,0.011c-0.09,0-0.163-0.003-0.221-0.011
			c-0.057-0.007-0.102-0.018-0.134-0.032s-0.056-0.031-0.07-0.051c-0.014-0.02-0.021-0.044-0.021-0.073v-2.828
			c0-0.275-0.021-0.498-0.064-0.666c-0.042-0.168-0.105-0.313-0.188-0.435s-0.188-0.215-0.319-0.279s-0.282-0.097-0.454-0.097
			c-0.222,0-0.443,0.079-0.665,0.236c-0.222,0.157-0.455,0.388-0.698,0.692v3.375c0,0.029-0.007,0.053-0.021,0.073
			c-0.015,0.02-0.037,0.037-0.069,0.051s-0.077,0.025-0.135,0.032c-0.057,0.007-0.131,0.011-0.22,0.011
			c-0.086,0-0.157-0.003-0.215-0.011s-0.103-0.018-0.137-0.032s-0.058-0.031-0.07-0.051c-0.013-0.02-0.019-0.044-0.019-0.073v-4.83
			c0-0.029,0.006-0.053,0.017-0.072c0.011-0.02,0.032-0.038,0.064-0.054s0.073-0.027,0.123-0.032s0.116-0.008,0.198-0.008
			c0.079,0,0.145,0.003,0.196,0.008s0.092,0.016,0.121,0.032c0.028,0.016,0.049,0.034,0.062,0.054
			c0.013,0.02,0.019,0.043,0.019,0.072v0.639c0.272-0.304,0.543-0.527,0.813-0.668c0.271-0.142,0.543-0.212,0.818-0.212
			c0.322,0,0.594,0.055,0.813,0.164c0.221,0.109,0.398,0.255,0.534,0.437c0.136,0.183,0.233,0.396,0.293,0.642
			c0.059,0.245,0.089,0.54,0.089,0.883V135.183z"/>
		<path fill="#010101" d="M62.528,130.573c0,0.125-0.017,0.215-0.051,0.271c-0.034,0.055-0.078,0.083-0.132,0.083h-0.692
			c0.125,0.129,0.213,0.271,0.263,0.427c0.051,0.156,0.075,0.317,0.075,0.486c0,0.279-0.045,0.526-0.134,0.74
			c-0.09,0.215-0.218,0.396-0.384,0.545c-0.167,0.148-0.364,0.262-0.594,0.341c-0.229,0.079-0.482,0.118-0.762,0.118
			c-0.197,0-0.384-0.026-0.562-0.078c-0.177-0.052-0.313-0.117-0.41-0.196c-0.064,0.064-0.117,0.138-0.158,0.22
			c-0.042,0.083-0.063,0.177-0.063,0.284c0,0.125,0.059,0.229,0.175,0.312s0.271,0.127,0.465,0.134l1.261,0.054
			c0.24,0.007,0.46,0.04,0.661,0.099c0.2,0.059,0.374,0.143,0.521,0.252c0.146,0.109,0.261,0.243,0.344,0.402
			c0.082,0.159,0.123,0.344,0.123,0.556c0,0.222-0.047,0.433-0.14,0.633c-0.093,0.201-0.235,0.377-0.427,0.529
			s-0.436,0.272-0.732,0.36c-0.297,0.087-0.648,0.131-1.053,0.131c-0.39,0-0.722-0.033-0.995-0.1
			c-0.274-0.066-0.499-0.156-0.674-0.271c-0.176-0.114-0.303-0.251-0.382-0.41c-0.078-0.16-0.118-0.332-0.118-0.518
			c0-0.118,0.015-0.232,0.043-0.344c0.029-0.111,0.073-0.216,0.132-0.316s0.133-0.196,0.22-0.287
			c0.088-0.091,0.189-0.182,0.304-0.271c-0.176-0.089-0.305-0.202-0.39-0.338c-0.084-0.136-0.126-0.282-0.126-0.44
			c0-0.218,0.045-0.413,0.135-0.585c0.089-0.172,0.2-0.326,0.333-0.461c-0.111-0.132-0.199-0.282-0.264-0.448
			s-0.097-0.368-0.097-0.604c0-0.276,0.047-0.522,0.14-0.741s0.222-0.403,0.387-0.553c0.164-0.15,0.362-0.266,0.593-0.346
			c0.231-0.081,0.482-0.121,0.755-0.121c0.146,0,0.283,0.008,0.41,0.024s0.246,0.039,0.357,0.067h1.46
			c0.061,0,0.106,0.03,0.137,0.089C62.513,130.361,62.528,130.452,62.528,130.573z M61.589,135.671c0-0.208-0.085-0.367-0.255-0.48
			s-0.4-0.173-0.689-0.18l-1.251-0.042c-0.115,0.089-0.209,0.174-0.282,0.255s-0.132,0.157-0.175,0.23s-0.072,0.146-0.088,0.217
			c-0.017,0.072-0.024,0.145-0.024,0.22c0,0.232,0.118,0.409,0.354,0.529c0.236,0.12,0.565,0.18,0.987,0.18
			c0.269,0,0.493-0.026,0.674-0.078c0.181-0.052,0.327-0.121,0.438-0.207c0.111-0.085,0.19-0.184,0.239-0.295
			C61.564,135.91,61.589,135.793,61.589,135.671z M61.144,131.845c0-0.329-0.091-0.586-0.271-0.771
			c-0.181-0.184-0.438-0.276-0.771-0.276c-0.172,0-0.321,0.029-0.448,0.086s-0.232,0.136-0.316,0.236s-0.146,0.215-0.188,0.346
			c-0.042,0.13-0.063,0.268-0.063,0.411c0,0.318,0.091,0.569,0.271,0.751c0.181,0.183,0.434,0.274,0.76,0.274
			c0.175,0,0.327-0.028,0.456-0.083c0.129-0.056,0.235-0.132,0.319-0.231s0.146-0.212,0.188-0.341
			C61.123,132.119,61.144,131.984,61.144,131.845z"/>
		<path fill="#010101" d="M67.789,132.559c0,0.14-0.035,0.239-0.105,0.298c-0.069,0.059-0.149,0.089-0.239,0.089h-3.183
			c0,0.268,0.027,0.51,0.081,0.725c0.054,0.214,0.144,0.399,0.27,0.553s0.29,0.272,0.491,0.354c0.201,0.083,0.448,0.124,0.739,0.124
			c0.23,0,0.435-0.019,0.615-0.056c0.18-0.038,0.335-0.08,0.466-0.126c0.132-0.046,0.239-0.088,0.324-0.126
			c0.084-0.038,0.148-0.056,0.191-0.056c0.025,0,0.048,0.006,0.067,0.019s0.035,0.031,0.046,0.056
			c0.011,0.025,0.019,0.06,0.024,0.105c0.005,0.045,0.008,0.099,0.008,0.164c0,0.046-0.002,0.087-0.005,0.121
			c-0.004,0.034-0.009,0.064-0.014,0.091c-0.006,0.027-0.015,0.051-0.027,0.073c-0.012,0.021-0.028,0.042-0.048,0.062
			s-0.078,0.052-0.175,0.097s-0.222,0.088-0.376,0.131c-0.153,0.043-0.332,0.082-0.534,0.115c-0.202,0.034-0.417,0.051-0.646,0.051
			c-0.397,0-0.745-0.056-1.044-0.167s-0.551-0.275-0.755-0.494c-0.203-0.218-0.357-0.492-0.461-0.821
			c-0.104-0.329-0.156-0.712-0.156-1.148c0-0.415,0.054-0.788,0.161-1.119c0.107-0.331,0.263-0.612,0.465-0.842
			c0.202-0.231,0.446-0.408,0.732-0.531c0.286-0.124,0.606-0.186,0.961-0.186c0.38,0,0.702,0.061,0.969,0.183
			s0.486,0.286,0.658,0.491s0.298,0.447,0.378,0.725c0.081,0.277,0.121,0.573,0.121,0.888V132.559z M66.897,132.296
			c0.011-0.465-0.093-0.83-0.311-1.095c-0.218-0.265-0.541-0.397-0.969-0.397c-0.22,0-0.413,0.042-0.578,0.124
			c-0.166,0.083-0.305,0.191-0.416,0.328c-0.111,0.136-0.198,0.294-0.26,0.475c-0.061,0.181-0.095,0.37-0.103,0.566H66.897z"/>
		<path fill="#010101" d="M71.961,130.67c0,0.079-0.002,0.145-0.006,0.198s-0.011,0.096-0.021,0.126
			c-0.011,0.031-0.024,0.054-0.04,0.07c-0.017,0.016-0.038,0.024-0.067,0.024c-0.028,0-0.063-0.008-0.104-0.024
			s-0.088-0.032-0.14-0.048s-0.11-0.031-0.175-0.045s-0.134-0.021-0.209-0.021c-0.09,0-0.177,0.018-0.263,0.054
			s-0.177,0.095-0.271,0.177c-0.095,0.082-0.194,0.191-0.298,0.327c-0.104,0.136-0.219,0.302-0.344,0.499v3.177
			c0,0.029-0.007,0.053-0.021,0.073c-0.015,0.02-0.037,0.037-0.069,0.051s-0.077,0.025-0.135,0.032
			c-0.057,0.007-0.131,0.011-0.22,0.011c-0.086,0-0.157-0.003-0.215-0.011s-0.103-0.018-0.137-0.032s-0.058-0.031-0.07-0.051
			c-0.013-0.02-0.019-0.044-0.019-0.073v-4.83c0-0.029,0.006-0.053,0.017-0.072c0.011-0.02,0.032-0.038,0.064-0.054
			s0.073-0.027,0.123-0.032s0.116-0.008,0.198-0.008c0.079,0,0.145,0.003,0.196,0.008s0.092,0.016,0.121,0.032
			c0.028,0.016,0.049,0.034,0.062,0.054c0.013,0.02,0.019,0.043,0.019,0.072v0.703c0.133-0.193,0.257-0.351,0.373-0.472
			s0.227-0.218,0.33-0.287c0.104-0.07,0.207-0.118,0.309-0.145c0.103-0.027,0.205-0.041,0.31-0.041c0.046,0,0.099,0.003,0.158,0.008
			c0.059,0.005,0.12,0.015,0.185,0.029c0.064,0.015,0.123,0.031,0.175,0.048c0.052,0.018,0.089,0.036,0.11,0.054
			c0.021,0.018,0.035,0.035,0.043,0.051c0.007,0.016,0.013,0.037,0.019,0.062c0.005,0.025,0.009,0.062,0.011,0.11
			S71.961,130.587,71.961,130.67z"/>
		<path fill="#010101" d="M73.958,135.398c0,0.358-0.027,0.646-0.081,0.867s-0.138,0.405-0.252,0.556
			c-0.115,0.15-0.262,0.264-0.44,0.341c-0.179,0.077-0.396,0.115-0.649,0.115c-0.115,0-0.212-0.007-0.293-0.021
			c-0.08-0.014-0.142-0.03-0.185-0.048s-0.073-0.039-0.089-0.062c-0.017-0.023-0.028-0.05-0.035-0.081
			c-0.007-0.031-0.012-0.062-0.014-0.094c-0.001-0.032-0.002-0.071-0.002-0.118c0-0.064,0.002-0.12,0.008-0.167
			c0.005-0.047,0.015-0.084,0.026-0.113c0.013-0.029,0.027-0.049,0.043-0.062c0.017-0.013,0.037-0.019,0.063-0.019
			c0.021,0,0.063,0.004,0.126,0.014c0.063,0.009,0.135,0.013,0.217,0.013c0.118,0,0.22-0.018,0.304-0.054s0.153-0.094,0.207-0.174
			s0.093-0.185,0.118-0.314c0.024-0.129,0.037-0.324,0.037-0.585v-5.04c0-0.025,0.007-0.048,0.021-0.07s0.038-0.039,0.072-0.054
			c0.034-0.014,0.08-0.025,0.137-0.032c0.058-0.007,0.129-0.011,0.215-0.011s0.158,0.004,0.215,0.011
			c0.058,0.007,0.104,0.018,0.137,0.032c0.034,0.015,0.059,0.032,0.073,0.054c0.014,0.021,0.021,0.045,0.021,0.07V135.398z
			 M74.06,128.722c0,0.208-0.039,0.349-0.118,0.424s-0.224,0.113-0.435,0.113c-0.208,0-0.35-0.037-0.424-0.11
			c-0.075-0.073-0.113-0.212-0.113-0.416c0-0.208,0.038-0.349,0.115-0.424s0.222-0.113,0.433-0.113s0.354,0.037,0.43,0.11
			S74.06,128.518,74.06,128.722z"/>
		<path fill="#010101" d="M79.724,132.559c0,0.14-0.035,0.239-0.105,0.298c-0.069,0.059-0.149,0.089-0.239,0.089h-3.183
			c0,0.268,0.027,0.51,0.081,0.725c0.054,0.214,0.144,0.399,0.27,0.553s0.29,0.272,0.491,0.354c0.201,0.083,0.448,0.124,0.739,0.124
			c0.23,0,0.435-0.019,0.615-0.056c0.18-0.038,0.335-0.08,0.466-0.126c0.132-0.046,0.239-0.088,0.324-0.126
			c0.084-0.038,0.148-0.056,0.191-0.056c0.025,0,0.048,0.006,0.067,0.019s0.035,0.031,0.046,0.056
			c0.011,0.025,0.019,0.06,0.024,0.105c0.005,0.045,0.008,0.099,0.008,0.164c0,0.046-0.002,0.087-0.005,0.121
			c-0.004,0.034-0.009,0.064-0.014,0.091c-0.006,0.027-0.015,0.051-0.027,0.073c-0.012,0.021-0.028,0.042-0.048,0.062
			s-0.078,0.052-0.175,0.097s-0.222,0.088-0.376,0.131c-0.153,0.043-0.332,0.082-0.534,0.115c-0.202,0.034-0.417,0.051-0.646,0.051
			c-0.397,0-0.745-0.056-1.044-0.167s-0.551-0.275-0.755-0.494c-0.203-0.218-0.357-0.492-0.461-0.821
			c-0.104-0.329-0.156-0.712-0.156-1.148c0-0.415,0.054-0.788,0.161-1.119c0.107-0.331,0.263-0.612,0.465-0.842
			c0.202-0.231,0.446-0.408,0.732-0.531c0.286-0.124,0.606-0.186,0.961-0.186c0.38,0,0.702,0.061,0.969,0.183
			s0.486,0.286,0.658,0.491s0.298,0.447,0.378,0.725c0.081,0.277,0.121,0.573,0.121,0.888V132.559z M78.832,132.296
			c0.011-0.465-0.093-0.83-0.311-1.095c-0.218-0.265-0.541-0.397-0.969-0.397c-0.22,0-0.413,0.042-0.578,0.124
			c-0.166,0.083-0.305,0.191-0.416,0.328c-0.111,0.136-0.198,0.294-0.26,0.475c-0.061,0.181-0.095,0.37-0.103,0.566H78.832z"/>
		<path fill="#010101" d="M84.104,133.868c0,0.247-0.046,0.467-0.137,0.66c-0.092,0.193-0.221,0.356-0.39,0.488
			c-0.168,0.133-0.368,0.233-0.601,0.301c-0.233,0.068-0.489,0.102-0.768,0.102c-0.172,0-0.336-0.014-0.491-0.041
			c-0.156-0.027-0.296-0.061-0.419-0.102c-0.124-0.042-0.229-0.084-0.314-0.129c-0.086-0.045-0.148-0.085-0.188-0.121
			c-0.04-0.036-0.068-0.085-0.086-0.15c-0.019-0.064-0.027-0.152-0.027-0.263c0-0.068,0.004-0.125,0.011-0.172
			c0.008-0.046,0.017-0.084,0.027-0.112c0.011-0.029,0.025-0.049,0.045-0.062c0.021-0.012,0.043-0.019,0.067-0.019
			c0.039,0,0.098,0.024,0.175,0.072s0.172,0.101,0.284,0.158c0.113,0.058,0.246,0.11,0.4,0.159c0.153,0.048,0.331,0.072,0.531,0.072
			c0.15,0,0.286-0.016,0.408-0.048c0.121-0.032,0.228-0.08,0.316-0.142c0.09-0.063,0.158-0.142,0.207-0.239
			c0.048-0.097,0.072-0.211,0.072-0.344c0-0.136-0.035-0.25-0.104-0.343c-0.07-0.093-0.162-0.175-0.276-0.247
			c-0.115-0.071-0.244-0.135-0.387-0.19c-0.144-0.056-0.291-0.114-0.443-0.174c-0.151-0.061-0.3-0.13-0.445-0.207
			c-0.145-0.077-0.274-0.171-0.389-0.282c-0.115-0.111-0.207-0.244-0.277-0.397c-0.069-0.154-0.104-0.338-0.104-0.553
			c0-0.189,0.037-0.371,0.11-0.545c0.073-0.173,0.184-0.325,0.33-0.456c0.146-0.13,0.33-0.235,0.55-0.314
			c0.221-0.079,0.478-0.118,0.771-0.118c0.129,0,0.258,0.011,0.387,0.032s0.245,0.048,0.349,0.081
			c0.104,0.032,0.192,0.067,0.267,0.105c0.073,0.037,0.129,0.07,0.166,0.099s0.063,0.054,0.075,0.075s0.021,0.045,0.026,0.072
			c0.006,0.027,0.011,0.06,0.017,0.099c0.005,0.04,0.008,0.088,0.008,0.145c0,0.061-0.003,0.114-0.008,0.159
			c-0.006,0.044-0.015,0.081-0.027,0.11c-0.012,0.029-0.027,0.049-0.045,0.062c-0.019,0.013-0.038,0.019-0.06,0.019
			c-0.032,0-0.078-0.02-0.14-0.059c-0.061-0.04-0.14-0.082-0.236-0.126c-0.096-0.044-0.21-0.086-0.341-0.126
			c-0.13-0.039-0.279-0.059-0.448-0.059c-0.15,0-0.282,0.017-0.396,0.051c-0.115,0.034-0.209,0.082-0.282,0.145
			c-0.073,0.063-0.129,0.137-0.166,0.223c-0.038,0.085-0.057,0.179-0.057,0.279c0,0.14,0.035,0.257,0.107,0.352
			c0.071,0.095,0.164,0.178,0.279,0.25c0.114,0.072,0.245,0.136,0.392,0.193s0.296,0.116,0.448,0.177
			c0.152,0.061,0.303,0.128,0.451,0.204s0.279,0.167,0.395,0.274c0.114,0.107,0.206,0.236,0.276,0.386
			C84.069,133.482,84.104,133.661,84.104,133.868z"/>
		<path fill="#010101" d="M88.453,134.942c0,0.068-0.006,0.126-0.017,0.174s-0.023,0.087-0.037,0.118
			c-0.015,0.03-0.034,0.052-0.06,0.064c-0.025,0.012-0.052,0.019-0.08,0.019h-2.975c-0.075,0-0.137-0.025-0.186-0.075
			c-0.048-0.05-0.072-0.134-0.072-0.252v-0.183c0-0.05,0.004-0.095,0.011-0.134c0.008-0.04,0.019-0.079,0.032-0.118
			c0.015-0.039,0.034-0.081,0.06-0.126c0.024-0.045,0.055-0.096,0.091-0.153l2.132-3.317h-2.067c-0.058,0-0.103-0.029-0.137-0.088
			s-0.051-0.155-0.051-0.287c0-0.064,0.003-0.121,0.011-0.169c0.007-0.048,0.019-0.087,0.034-0.118
			c0.017-0.031,0.036-0.052,0.06-0.064c0.023-0.013,0.051-0.019,0.083-0.019h2.771c0.039,0,0.074,0.005,0.104,0.016
			s0.057,0.029,0.078,0.054s0.038,0.057,0.051,0.097s0.019,0.089,0.019,0.15v0.171c0,0.05-0.004,0.097-0.011,0.14
			s-0.018,0.085-0.032,0.126c-0.015,0.041-0.034,0.085-0.059,0.131c-0.025,0.046-0.056,0.098-0.092,0.156l-2.12,3.316h2.266
			c0.028,0,0.054,0.006,0.077,0.019c0.023,0.012,0.043,0.033,0.06,0.062c0.016,0.029,0.029,0.067,0.04,0.115
			S88.453,134.874,88.453,134.942z"/>
		<path fill="#010101" d="M92.227,134.829c0,0.104-0.008,0.186-0.021,0.247c-0.015,0.061-0.036,0.106-0.064,0.134
			c-0.028,0.029-0.071,0.056-0.129,0.081s-0.123,0.045-0.196,0.062s-0.151,0.03-0.233,0.041s-0.164,0.016-0.247,0.016
			c-0.25,0-0.465-0.033-0.644-0.099c-0.18-0.066-0.326-0.167-0.44-0.301c-0.115-0.134-0.198-0.304-0.25-0.51
			s-0.078-0.448-0.078-0.728v-2.823h-0.676c-0.054,0-0.097-0.029-0.129-0.086s-0.049-0.15-0.049-0.279
			c0-0.068,0.005-0.125,0.014-0.172s0.021-0.085,0.035-0.115c0.014-0.031,0.033-0.052,0.057-0.064
			c0.022-0.013,0.049-0.019,0.077-0.019h0.671v-1.148c0-0.025,0.007-0.048,0.02-0.07s0.035-0.04,0.069-0.056s0.08-0.028,0.137-0.035
			c0.058-0.007,0.129-0.011,0.215-0.011c0.09,0,0.163,0.004,0.221,0.011c0.057,0.007,0.102,0.019,0.134,0.035
			s0.056,0.035,0.07,0.056c0.014,0.021,0.021,0.045,0.021,0.07v1.148h1.239c0.029,0,0.054,0.006,0.075,0.019
			c0.021,0.012,0.041,0.034,0.057,0.064c0.017,0.03,0.027,0.069,0.035,0.115c0.007,0.046,0.011,0.104,0.011,0.172
			c0,0.128-0.017,0.222-0.049,0.279s-0.075,0.086-0.129,0.086H90.81v2.694c0,0.333,0.049,0.584,0.147,0.754
			c0.098,0.17,0.274,0.255,0.528,0.255c0.082,0,0.156-0.008,0.221-0.024s0.121-0.033,0.172-0.051
			c0.05-0.018,0.093-0.035,0.128-0.051c0.036-0.016,0.068-0.024,0.097-0.024c0.019,0,0.035,0.005,0.052,0.014
			c0.016,0.009,0.028,0.026,0.037,0.051c0.009,0.025,0.017,0.059,0.024,0.102C92.223,134.711,92.227,134.765,92.227,134.829z"/>
		<path fill="#010101" d="M97.52,132.559c0,0.14-0.035,0.239-0.105,0.298c-0.069,0.059-0.149,0.089-0.239,0.089h-3.183
			c0,0.268,0.027,0.51,0.081,0.725c0.054,0.214,0.144,0.399,0.27,0.553s0.29,0.272,0.491,0.354c0.201,0.083,0.448,0.124,0.739,0.124
			c0.23,0,0.435-0.019,0.615-0.056c0.18-0.038,0.335-0.08,0.466-0.126c0.132-0.046,0.239-0.088,0.324-0.126
			c0.084-0.038,0.148-0.056,0.191-0.056c0.025,0,0.048,0.006,0.067,0.019s0.035,0.031,0.046,0.056
			c0.011,0.025,0.019,0.06,0.024,0.105c0.005,0.045,0.008,0.099,0.008,0.164c0,0.046-0.002,0.087-0.005,0.121
			c-0.004,0.034-0.009,0.064-0.014,0.091c-0.006,0.027-0.015,0.051-0.027,0.073c-0.012,0.021-0.028,0.042-0.048,0.062
			s-0.078,0.052-0.175,0.097s-0.222,0.088-0.376,0.131c-0.153,0.043-0.332,0.082-0.534,0.115c-0.202,0.034-0.417,0.051-0.646,0.051
			c-0.397,0-0.745-0.056-1.044-0.167s-0.551-0.275-0.755-0.494c-0.203-0.218-0.357-0.492-0.461-0.821
			c-0.104-0.329-0.156-0.712-0.156-1.148c0-0.415,0.054-0.788,0.161-1.119c0.107-0.331,0.263-0.612,0.465-0.842
			c0.202-0.231,0.446-0.408,0.732-0.531c0.286-0.124,0.606-0.186,0.961-0.186c0.38,0,0.702,0.061,0.969,0.183
			s0.486,0.286,0.658,0.491s0.298,0.447,0.378,0.725c0.081,0.277,0.121,0.573,0.121,0.888V132.559z M96.628,132.296
			c0.011-0.465-0.093-0.83-0.311-1.095c-0.218-0.265-0.541-0.397-0.969-0.397c-0.22,0-0.413,0.042-0.578,0.124
			c-0.166,0.083-0.305,0.191-0.416,0.328c-0.111,0.136-0.198,0.294-0.26,0.475c-0.061,0.181-0.095,0.37-0.103,0.566H96.628z
			 M95.759,127.992c0.021-0.04,0.046-0.072,0.075-0.097c0.028-0.025,0.063-0.045,0.104-0.059s0.092-0.025,0.153-0.032
			c0.061-0.007,0.134-0.011,0.22-0.011c0.101,0,0.182,0.006,0.244,0.019c0.063,0.012,0.106,0.03,0.132,0.054
			c0.025,0.023,0.036,0.05,0.032,0.08c-0.004,0.031-0.02,0.062-0.049,0.094l-0.972,1.25c-0.028,0.036-0.054,0.064-0.077,0.086
			s-0.051,0.038-0.081,0.051s-0.069,0.021-0.118,0.027c-0.048,0.005-0.108,0.008-0.18,0.008c-0.078,0-0.142-0.005-0.188-0.016
			c-0.047-0.011-0.08-0.025-0.1-0.042c-0.02-0.018-0.026-0.042-0.021-0.07c0.006-0.029,0.021-0.063,0.046-0.102L95.759,127.992z"/>
		<path fill="#010101" d="M101.9,133.868c0,0.247-0.046,0.467-0.137,0.66c-0.092,0.193-0.221,0.356-0.39,0.488
			c-0.168,0.133-0.368,0.233-0.601,0.301c-0.233,0.068-0.489,0.102-0.768,0.102c-0.172,0-0.336-0.014-0.491-0.041
			c-0.156-0.027-0.296-0.061-0.419-0.102c-0.124-0.042-0.229-0.084-0.314-0.129c-0.086-0.045-0.148-0.085-0.188-0.121
			c-0.04-0.036-0.068-0.085-0.086-0.15c-0.019-0.064-0.027-0.152-0.027-0.263c0-0.068,0.004-0.125,0.011-0.172
			c0.008-0.046,0.017-0.084,0.027-0.112c0.011-0.029,0.025-0.049,0.045-0.062c0.021-0.012,0.043-0.019,0.067-0.019
			c0.039,0,0.098,0.024,0.175,0.072s0.172,0.101,0.284,0.158c0.113,0.058,0.246,0.11,0.4,0.159c0.153,0.048,0.331,0.072,0.531,0.072
			c0.15,0,0.286-0.016,0.408-0.048c0.121-0.032,0.228-0.08,0.316-0.142c0.09-0.063,0.158-0.142,0.207-0.239
			c0.048-0.097,0.072-0.211,0.072-0.344c0-0.136-0.035-0.25-0.104-0.343c-0.07-0.093-0.162-0.175-0.276-0.247
			c-0.115-0.071-0.244-0.135-0.387-0.19c-0.144-0.056-0.291-0.114-0.443-0.174c-0.151-0.061-0.3-0.13-0.445-0.207
			c-0.145-0.077-0.274-0.171-0.389-0.282c-0.115-0.111-0.207-0.244-0.277-0.397c-0.069-0.154-0.104-0.338-0.104-0.553
			c0-0.189,0.037-0.371,0.11-0.545c0.073-0.173,0.184-0.325,0.33-0.456c0.146-0.13,0.33-0.235,0.55-0.314
			c0.221-0.079,0.478-0.118,0.771-0.118c0.129,0,0.258,0.011,0.387,0.032s0.245,0.048,0.349,0.081
			c0.104,0.032,0.192,0.067,0.267,0.105c0.073,0.037,0.129,0.07,0.166,0.099s0.063,0.054,0.075,0.075s0.021,0.045,0.026,0.072
			c0.006,0.027,0.011,0.06,0.017,0.099c0.005,0.04,0.008,0.088,0.008,0.145c0,0.061-0.003,0.114-0.008,0.159
			c-0.006,0.044-0.015,0.081-0.027,0.11c-0.012,0.029-0.027,0.049-0.045,0.062c-0.019,0.013-0.038,0.019-0.06,0.019
			c-0.032,0-0.078-0.02-0.14-0.059c-0.061-0.04-0.14-0.082-0.236-0.126c-0.096-0.044-0.21-0.086-0.341-0.126
			c-0.13-0.039-0.279-0.059-0.448-0.059c-0.15,0-0.282,0.017-0.396,0.051c-0.115,0.034-0.209,0.082-0.282,0.145
			c-0.073,0.063-0.129,0.137-0.166,0.223c-0.038,0.085-0.057,0.179-0.057,0.279c0,0.14,0.035,0.257,0.107,0.352
			c0.071,0.095,0.164,0.178,0.279,0.25c0.114,0.072,0.245,0.136,0.392,0.193s0.296,0.116,0.448,0.177
			c0.152,0.061,0.303,0.128,0.451,0.204s0.279,0.167,0.395,0.274c0.114,0.107,0.206,0.236,0.276,0.386
			C101.865,133.482,101.9,133.661,101.9,133.868z"/>
	</g>
</g>
<g>
	<g>
		<path fill="#010101" d="M159.462,131.82h0.172c0.111,0,0.231-0.021,0.359-0.064c0.129-0.043,0.267-0.11,0.414-0.201
			s0.343-0.235,0.59-0.432c0.187-0.15,0.324-0.278,0.414-0.384c0.089-0.105,0.149-0.198,0.182-0.276s0.049-0.154,0.049-0.226
			c0-0.175-0.122-0.273-0.365-0.295l0.06-0.263h1.739l0.102,0.263c-0.297,0.268-0.612,0.531-0.944,0.789l-1.358,1.057l0.805,2.034
			c0.072,0.183,0.146,0.322,0.221,0.421s0.162,0.171,0.26,0.218c0.099,0.046,0.225,0.075,0.379,0.086l-0.059,0.263h-1.434
			l-0.784-2.206c-0.05-0.14-0.093-0.234-0.129-0.284c-0.036-0.05-0.077-0.086-0.124-0.107c-0.046-0.021-0.122-0.032-0.225-0.032
			h-0.397l-0.558,2.63H157.9l1.379-6.134c0.04-0.179,0.067-0.309,0.083-0.389s0.027-0.155,0.035-0.223s0.011-0.129,0.011-0.183
			c0-0.15-0.045-0.256-0.137-0.316c-0.091-0.061-0.255-0.095-0.491-0.102l0.064-0.279l1.358-0.048h0.312L159.462,131.82z"/>
	</g>
</g>
<g>
	<g>
		<path fill="none" stroke="#000000" stroke-miterlimit="10" d="M19.492,138.386c0,0,0.272-0.454,0.784-1.274"/>
		<path fill="none" stroke="#000000" stroke-miterlimit="10" stroke-dasharray="2.9826,1.9884" d="M21.336,135.434
			c6.917-10.814,31.937-47.62,51.845-47.336c15.337,0.219,16.849,20.333,33,20.333c23.914,0,50.338-62.786,55.479-79.1"/>
		<path fill="none" stroke="#000000" stroke-miterlimit="10" d="M161.953,28.375c0.165-0.557,0.297-1.041,0.395-1.444"/>
	</g>
</g>
<g>
	<g>
		<path fill="#010101" d="M148.187,80.252c-0.046,0.211-0.077,0.378-0.091,0.502c-0.014,0.123-0.021,0.235-0.021,0.335
			c0,0.161,0.041,0.274,0.121,0.341s0.215,0.106,0.405,0.121l-0.059,0.263h-2.147l0.059-0.263c0.136-0.021,0.238-0.057,0.306-0.104
			c0.068-0.049,0.125-0.116,0.171-0.202c0.047-0.085,0.09-0.19,0.129-0.313c0.04-0.123,0.099-0.362,0.177-0.717l0.44-1.991h-2.883
			l-0.446,2.029c-0.029,0.132-0.051,0.24-0.067,0.324s-0.028,0.167-0.035,0.247s-0.011,0.169-0.011,0.266
			c0,0.154,0.036,0.265,0.107,0.333c0.072,0.067,0.211,0.11,0.419,0.129l-0.059,0.263h-2.147l0.059-0.263
			c0.136-0.021,0.238-0.057,0.306-0.104c0.068-0.049,0.125-0.116,0.172-0.202c0.046-0.085,0.089-0.19,0.129-0.313
			s0.099-0.362,0.177-0.717l0.913-4.132c0.032-0.146,0.06-0.303,0.083-0.469c0.023-0.167,0.035-0.298,0.035-0.395
			c0-0.168-0.043-0.286-0.129-0.352c-0.086-0.066-0.218-0.105-0.397-0.116l0.059-0.263h2.147l-0.059,0.263
			c-0.136,0.029-0.233,0.061-0.292,0.097c-0.059,0.036-0.113,0.089-0.161,0.161s-0.097,0.184-0.145,0.335s-0.11,0.4-0.185,0.743
			l-0.365,1.643h2.883l0.365-1.648c0.032-0.146,0.06-0.303,0.083-0.469c0.023-0.167,0.035-0.298,0.035-0.395
			c0-0.168-0.043-0.286-0.129-0.352c-0.086-0.066-0.218-0.105-0.397-0.116l0.059-0.263h2.147l-0.059,0.263
			c-0.122,0.029-0.208,0.056-0.257,0.081c-0.05,0.025-0.096,0.059-0.137,0.102c-0.041,0.043-0.081,0.104-0.118,0.185
			s-0.078,0.199-0.121,0.354c-0.043,0.155-0.093,0.36-0.15,0.614L148.187,80.252z"/>
		<path fill="#010101" d="M154.066,80.746c-0.265,0.29-0.52,0.52-0.763,0.688s-0.486,0.288-0.729,0.359
			c-0.244,0.071-0.513,0.107-0.806,0.107c-0.283,0-0.526-0.046-0.73-0.137c-0.204-0.092-0.373-0.217-0.507-0.376
			s-0.234-0.349-0.298-0.568c-0.064-0.221-0.096-0.459-0.096-0.717c0-0.383,0.069-0.794,0.207-1.231
			c0.138-0.438,0.346-0.832,0.625-1.181c0.279-0.349,0.613-0.619,1.004-0.811c0.39-0.191,0.805-0.287,1.245-0.287
			c0.434,0,0.758,0.088,0.975,0.263s0.325,0.449,0.325,0.821c0,0.608-0.286,1.064-0.856,1.368c-0.571,0.305-1.418,0.456-2.542,0.456
			c-0.043,0.215-0.064,0.447-0.064,0.698c0,0.376,0.073,0.648,0.22,0.818s0.387,0.255,0.72,0.255c0.329,0,0.628-0.071,0.896-0.215
			c0.269-0.143,0.549-0.363,0.843-0.66L154.066,80.746z M151.21,79.044c0.329-0.003,0.618-0.022,0.867-0.056
			c0.249-0.034,0.463-0.081,0.642-0.14c0.179-0.06,0.327-0.13,0.445-0.212c0.118-0.083,0.212-0.173,0.282-0.271
			c0.069-0.099,0.118-0.202,0.145-0.311c0.027-0.109,0.041-0.223,0.041-0.341c0-0.218-0.052-0.389-0.153-0.513
			c-0.103-0.124-0.253-0.185-0.454-0.185c-0.25,0-0.496,0.09-0.738,0.271c-0.241,0.181-0.454,0.424-0.639,0.73
			C151.463,78.323,151.317,78.666,151.21,79.044z"/>
	</g>
	<g>
		<path fill="#010101" d="M156.459,76.724c0.129-0.033,0.215-0.07,0.258-0.11c0.044-0.041,0.072-0.098,0.086-0.173
			s0.021-0.188,0.021-0.342v-0.51h-1.73v-0.233l1.82-2.747h0.445v2.678h0.065c0.12,0,0.206-0.009,0.258-0.026
			s0.095-0.049,0.129-0.093c0.034-0.045,0.066-0.118,0.095-0.219h0.237l-0.038,0.641h-0.746v0.51c0,0.139,0.004,0.24,0.014,0.305
			c0.01,0.064,0.025,0.115,0.047,0.152c0.021,0.037,0.054,0.068,0.097,0.093c0.042,0.025,0.111,0.05,0.206,0.075v0.152h-1.263
			V76.724z M155.606,75.287h1.217v-0.774c0-0.195,0.003-0.413,0.009-0.655c0.007-0.242,0.014-0.423,0.022-0.546h-0.031l-1.217,1.932
			V75.287z"/>
	</g>
</g>
<g>
	<path d="M128.306,103.358c0,0.086-0.002,0.158-0.006,0.217s-0.012,0.104-0.023,0.138s-0.026,0.059-0.044,0.076
		s-0.042,0.026-0.073,0.026s-0.069-0.009-0.114-0.026s-0.096-0.035-0.152-0.053s-0.12-0.034-0.19-0.05s-0.146-0.023-0.229-0.023
		c-0.098,0-0.193,0.02-0.287,0.059s-0.192,0.104-0.296,0.193s-0.212,0.209-0.325,0.357s-0.238,0.33-0.375,0.545v3.469
		c0,0.031-0.008,0.058-0.023,0.079s-0.041,0.04-0.076,0.056s-0.084,0.027-0.146,0.035s-0.143,0.012-0.24,0.012
		c-0.094,0-0.172-0.004-0.234-0.012s-0.112-0.02-0.149-0.035s-0.063-0.034-0.076-0.056s-0.021-0.048-0.021-0.079v-5.273
		c0-0.031,0.006-0.058,0.018-0.079s0.035-0.041,0.07-0.059s0.08-0.029,0.135-0.035s0.127-0.009,0.217-0.009
		c0.086,0,0.157,0.003,0.214,0.009s0.101,0.018,0.132,0.035s0.054,0.037,0.067,0.059s0.021,0.048,0.021,0.079v0.768
		c0.145-0.211,0.28-0.383,0.407-0.516s0.247-0.237,0.36-0.313s0.226-0.129,0.337-0.158s0.224-0.044,0.337-0.044
		c0.051,0,0.108,0.003,0.173,0.009s0.132,0.017,0.202,0.032s0.134,0.033,0.19,0.053s0.097,0.039,0.12,0.059s0.039,0.038,0.047,0.056
		s0.015,0.04,0.021,0.067s0.01,0.067,0.012,0.12S128.306,103.268,128.306,103.358z"/>
	<path d="M134.119,105.59c0,0.43-0.057,0.825-0.17,1.187s-0.282,0.673-0.507,0.935s-0.506,0.466-0.844,0.612s-0.729,0.22-1.175,0.22
		c-0.434,0-0.812-0.064-1.134-0.193s-0.591-0.316-0.806-0.563s-0.375-0.545-0.48-0.896s-0.158-0.75-0.158-1.195
		c0-0.43,0.056-0.825,0.167-1.187s0.279-0.673,0.504-0.935s0.505-0.465,0.841-0.609s0.729-0.217,1.178-0.217
		c0.434,0,0.812,0.064,1.134,0.193s0.591,0.316,0.806,0.563s0.376,0.545,0.483,0.896S134.119,105.149,134.119,105.59z
		 M133.117,105.655c0-0.285-0.027-0.555-0.08-0.809c-0.054-0.254-0.141-0.477-0.263-0.668c-0.123-0.191-0.288-0.343-0.497-0.454
		c-0.208-0.111-0.469-0.167-0.78-0.167c-0.288,0-0.535,0.051-0.742,0.152c-0.207,0.102-0.377,0.245-0.512,0.431
		c-0.134,0.186-0.233,0.405-0.298,0.659s-0.098,0.531-0.098,0.832c0,0.289,0.026,0.561,0.08,0.814s0.142,0.476,0.266,0.665
		c0.125,0.189,0.291,0.34,0.5,0.451s0.469,0.167,0.781,0.167c0.284,0,0.53-0.051,0.739-0.152s0.38-0.244,0.515-0.428
		c0.134-0.184,0.232-0.402,0.295-0.656S133.117,105.959,133.117,105.655z"/>
	<path d="M138.285,107.899c0,0.113-0.008,0.203-0.023,0.27s-0.039,0.115-0.07,0.146s-0.078,0.061-0.141,0.088
		s-0.134,0.05-0.214,0.067s-0.165,0.032-0.255,0.044s-0.18,0.018-0.27,0.018c-0.273,0-0.508-0.036-0.703-0.108
		s-0.355-0.182-0.48-0.328s-0.216-0.332-0.272-0.557s-0.085-0.489-0.085-0.794v-3.082h-0.738c-0.059,0-0.105-0.031-0.141-0.094
		s-0.053-0.164-0.053-0.305c0-0.074,0.005-0.137,0.015-0.188s0.022-0.093,0.038-0.126s0.036-0.057,0.062-0.07
		s0.054-0.021,0.085-0.021h0.732v-1.254c0-0.027,0.007-0.053,0.021-0.076s0.039-0.044,0.076-0.062s0.087-0.03,0.149-0.038
		s0.141-0.012,0.234-0.012c0.098,0,0.178,0.004,0.24,0.012s0.111,0.021,0.146,0.038s0.061,0.038,0.076,0.062
		s0.023,0.049,0.023,0.076v1.254h1.354c0.031,0,0.059,0.007,0.082,0.021s0.044,0.037,0.062,0.07s0.03,0.075,0.038,0.126
		s0.012,0.113,0.012,0.188c0,0.141-0.018,0.242-0.053,0.305s-0.082,0.094-0.141,0.094h-1.354v2.941c0,0.363,0.054,0.638,0.161,0.823
		s0.3,0.278,0.577,0.278c0.09,0,0.17-0.009,0.24-0.026s0.133-0.036,0.188-0.056s0.102-0.038,0.141-0.056s0.074-0.026,0.105-0.026
		c0.02,0,0.038,0.005,0.056,0.015s0.031,0.028,0.041,0.056s0.019,0.064,0.026,0.111S138.285,107.829,138.285,107.899z"/>
	<path d="M144.349,105.59c0,0.43-0.057,0.825-0.17,1.187s-0.282,0.673-0.507,0.935s-0.506,0.466-0.844,0.612s-0.729,0.22-1.175,0.22
		c-0.434,0-0.812-0.064-1.134-0.193s-0.591-0.316-0.806-0.563s-0.375-0.545-0.48-0.896s-0.158-0.75-0.158-1.195
		c0-0.43,0.056-0.825,0.167-1.187s0.279-0.673,0.504-0.935s0.505-0.465,0.841-0.609s0.729-0.217,1.178-0.217
		c0.434,0,0.812,0.064,1.134,0.193s0.591,0.316,0.806,0.563s0.376,0.545,0.483,0.896S144.349,105.149,144.349,105.59z
		 M143.347,105.655c0-0.285-0.027-0.555-0.08-0.809c-0.054-0.254-0.141-0.477-0.263-0.668c-0.123-0.191-0.288-0.343-0.497-0.454
		c-0.208-0.111-0.469-0.167-0.78-0.167c-0.288,0-0.535,0.051-0.742,0.152c-0.207,0.102-0.377,0.245-0.512,0.431
		c-0.134,0.186-0.233,0.405-0.298,0.659s-0.098,0.531-0.098,0.832c0,0.289,0.026,0.561,0.08,0.814s0.142,0.476,0.266,0.665
		c0.125,0.189,0.291,0.34,0.5,0.451s0.469,0.167,0.781,0.167c0.284,0,0.53-0.051,0.739-0.152s0.38-0.244,0.515-0.428
		c0.134-0.184,0.232-0.402,0.295-0.656S143.347,105.959,143.347,105.655z"/>
	<path d="M150.314,108.286c0,0.031-0.008,0.058-0.023,0.079s-0.041,0.04-0.076,0.056s-0.084,0.027-0.146,0.035
		s-0.141,0.012-0.234,0.012c-0.098,0-0.178-0.004-0.24-0.012s-0.111-0.02-0.146-0.035s-0.061-0.034-0.076-0.056
		s-0.023-0.048-0.023-0.079v-3.088c0-0.301-0.023-0.543-0.07-0.727s-0.115-0.342-0.205-0.475s-0.206-0.234-0.349-0.305
		s-0.308-0.105-0.495-0.105c-0.242,0-0.484,0.086-0.727,0.258s-0.496,0.424-0.762,0.756v3.686c0,0.031-0.008,0.058-0.023,0.079
		s-0.041,0.04-0.076,0.056s-0.084,0.027-0.146,0.035s-0.143,0.012-0.24,0.012c-0.094,0-0.172-0.004-0.234-0.012
		s-0.112-0.02-0.149-0.035s-0.063-0.034-0.076-0.056s-0.021-0.048-0.021-0.079v-5.273c0-0.031,0.006-0.058,0.018-0.079
		s0.035-0.041,0.07-0.059s0.08-0.029,0.135-0.035s0.127-0.009,0.217-0.009c0.086,0,0.157,0.003,0.214,0.009s0.101,0.018,0.132,0.035
		s0.054,0.037,0.067,0.059s0.021,0.048,0.021,0.079v0.697c0.297-0.332,0.593-0.575,0.888-0.729s0.593-0.231,0.894-0.231
		c0.352,0,0.647,0.06,0.888,0.179s0.435,0.278,0.583,0.478s0.255,0.433,0.319,0.7s0.097,0.589,0.097,0.964V108.286z"/>
	<path d="M108.056,113.252c0,0.137-0.019,0.235-0.056,0.296s-0.085,0.091-0.144,0.091h-0.756c0.137,0.141,0.232,0.296,0.287,0.466
		s0.082,0.347,0.082,0.53c0,0.305-0.049,0.574-0.146,0.809s-0.237,0.433-0.419,0.595s-0.397,0.286-0.647,0.372
		s-0.527,0.129-0.832,0.129c-0.215,0-0.419-0.028-0.612-0.085s-0.343-0.128-0.448-0.214c-0.07,0.07-0.128,0.15-0.173,0.24
		s-0.067,0.193-0.067,0.311c0,0.137,0.063,0.25,0.19,0.34s0.296,0.139,0.507,0.146l1.377,0.059c0.262,0.008,0.502,0.044,0.721,0.108
		s0.408,0.156,0.568,0.275s0.285,0.266,0.375,0.439s0.135,0.376,0.135,0.606c0,0.242-0.051,0.473-0.152,0.691
		s-0.257,0.411-0.466,0.577s-0.476,0.297-0.8,0.393s-0.707,0.144-1.148,0.144c-0.426,0-0.788-0.036-1.087-0.108
		s-0.544-0.171-0.735-0.296s-0.33-0.274-0.416-0.448s-0.129-0.362-0.129-0.565c0-0.129,0.016-0.254,0.047-0.375
		s0.079-0.236,0.144-0.346s0.145-0.214,0.24-0.313s0.206-0.198,0.331-0.296c-0.191-0.098-0.333-0.221-0.425-0.369
		s-0.138-0.309-0.138-0.48c0-0.238,0.049-0.451,0.146-0.639s0.219-0.355,0.363-0.504c-0.121-0.145-0.217-0.308-0.287-0.489
		s-0.105-0.401-0.105-0.659c0-0.301,0.051-0.57,0.152-0.809s0.242-0.439,0.422-0.604s0.396-0.29,0.647-0.378
		s0.526-0.132,0.823-0.132c0.16,0,0.31,0.009,0.448,0.026s0.269,0.042,0.39,0.073h1.594c0.066,0,0.116,0.032,0.149,0.097
		S108.056,113.12,108.056,113.252z M107.031,118.819c0-0.227-0.093-0.401-0.278-0.524s-0.437-0.188-0.753-0.196l-1.365-0.047
		c-0.125,0.098-0.228,0.19-0.308,0.278s-0.144,0.172-0.19,0.252s-0.079,0.159-0.097,0.237s-0.026,0.158-0.026,0.24
		c0,0.254,0.129,0.446,0.387,0.577s0.617,0.196,1.078,0.196c0.293,0,0.538-0.028,0.735-0.085s0.356-0.132,0.478-0.226
		s0.208-0.201,0.261-0.322S107.031,118.952,107.031,118.819z M106.544,114.641c0-0.359-0.099-0.64-0.296-0.841
		s-0.478-0.302-0.841-0.302c-0.188,0-0.351,0.031-0.489,0.094s-0.254,0.148-0.346,0.258s-0.16,0.235-0.205,0.378
		s-0.067,0.292-0.067,0.448c0,0.348,0.099,0.621,0.296,0.82s0.474,0.299,0.829,0.299c0.191,0,0.357-0.03,0.498-0.091
		s0.257-0.145,0.349-0.252s0.16-0.231,0.205-0.372S106.544,114.793,106.544,114.641z"/>
	<path d="M113.699,115.42c0,0.152-0.038,0.261-0.115,0.325s-0.164,0.097-0.262,0.097h-3.473c0,0.293,0.029,0.557,0.088,0.791
		c0.059,0.234,0.157,0.436,0.294,0.604c0.137,0.168,0.316,0.297,0.536,0.387s0.489,0.135,0.807,0.135
		c0.251,0,0.475-0.021,0.671-0.062s0.366-0.087,0.509-0.138c0.143-0.051,0.261-0.097,0.353-0.138s0.162-0.062,0.209-0.062
		c0.027,0,0.052,0.007,0.073,0.021s0.038,0.034,0.05,0.062c0.012,0.027,0.021,0.065,0.026,0.114s0.009,0.108,0.009,0.179
		c0,0.051-0.002,0.095-0.006,0.132s-0.009,0.07-0.015,0.1s-0.016,0.056-0.029,0.079s-0.031,0.046-0.053,0.067
		s-0.085,0.057-0.19,0.105s-0.242,0.097-0.41,0.144s-0.362,0.089-0.583,0.126s-0.456,0.056-0.706,0.056
		c-0.434,0-0.813-0.061-1.14-0.182s-0.601-0.301-0.823-0.539s-0.391-0.537-0.504-0.896s-0.17-0.777-0.17-1.254
		c0-0.453,0.059-0.86,0.176-1.222s0.286-0.668,0.507-0.92s0.487-0.445,0.8-0.58s0.662-0.202,1.049-0.202
		c0.414,0,0.767,0.066,1.058,0.199s0.53,0.312,0.718,0.536s0.325,0.488,0.413,0.791s0.132,0.626,0.132,0.97V115.42z
		 M112.726,115.133c0.012-0.508-0.102-0.906-0.339-1.195c-0.238-0.289-0.591-0.434-1.058-0.434c-0.24,0-0.45,0.045-0.631,0.135
		c-0.181,0.09-0.333,0.209-0.454,0.357c-0.122,0.148-0.216,0.321-0.283,0.519s-0.104,0.403-0.112,0.618H112.726z"/>
	<path d="M118.251,113.358c0,0.086-0.002,0.158-0.006,0.217s-0.012,0.104-0.023,0.138s-0.026,0.059-0.044,0.076
		s-0.042,0.026-0.073,0.026s-0.069-0.009-0.114-0.026s-0.096-0.035-0.152-0.053s-0.12-0.034-0.19-0.05s-0.146-0.023-0.229-0.023
		c-0.098,0-0.193,0.02-0.287,0.059s-0.192,0.104-0.296,0.193s-0.212,0.209-0.325,0.357s-0.238,0.33-0.375,0.545v3.469
		c0,0.031-0.008,0.058-0.023,0.079s-0.041,0.04-0.076,0.056s-0.084,0.027-0.146,0.035s-0.143,0.012-0.24,0.012
		c-0.094,0-0.172-0.004-0.234-0.012s-0.112-0.02-0.149-0.035s-0.063-0.034-0.076-0.056s-0.021-0.048-0.021-0.079v-5.273
		c0-0.031,0.006-0.058,0.018-0.079s0.035-0.041,0.07-0.059s0.08-0.029,0.135-0.035s0.127-0.009,0.217-0.009
		c0.086,0,0.157,0.003,0.214,0.009s0.101,0.018,0.132,0.035s0.054,0.037,0.067,0.059s0.021,0.048,0.021,0.079v0.768
		c0.145-0.211,0.28-0.383,0.407-0.516s0.247-0.237,0.36-0.313s0.226-0.129,0.337-0.158s0.224-0.044,0.337-0.044
		c0.051,0,0.108,0.003,0.173,0.009s0.132,0.017,0.202,0.032s0.134,0.033,0.19,0.053s0.097,0.039,0.12,0.059s0.039,0.038,0.047,0.056
		s0.015,0.04,0.021,0.067s0.01,0.067,0.012,0.12S118.251,113.268,118.251,113.358z"/>
	<path d="M120.431,118.52c0,0.391-0.029,0.706-0.088,0.946s-0.15,0.442-0.275,0.606s-0.285,0.288-0.48,0.372
		s-0.432,0.126-0.709,0.126c-0.125,0-0.231-0.008-0.319-0.023s-0.155-0.033-0.202-0.053s-0.079-0.042-0.097-0.067
		s-0.03-0.055-0.038-0.088s-0.013-0.067-0.015-0.103s-0.003-0.078-0.003-0.129c0-0.07,0.003-0.131,0.009-0.182
		s0.016-0.092,0.029-0.123s0.029-0.054,0.047-0.067s0.04-0.021,0.067-0.021c0.023,0,0.069,0.005,0.138,0.015
		s0.147,0.015,0.237,0.015c0.129,0,0.239-0.02,0.331-0.059s0.167-0.103,0.226-0.19s0.102-0.202,0.129-0.343s0.041-0.354,0.041-0.639
		v-5.502c0-0.027,0.008-0.053,0.023-0.076s0.042-0.043,0.079-0.059s0.087-0.027,0.149-0.035s0.141-0.012,0.234-0.012
		s0.172,0.004,0.234,0.012s0.112,0.02,0.149,0.035s0.063,0.035,0.079,0.059s0.023,0.049,0.023,0.076V118.52z M120.542,111.231
		c0,0.227-0.043,0.381-0.129,0.463s-0.244,0.123-0.475,0.123c-0.227,0-0.381-0.04-0.463-0.12s-0.123-0.231-0.123-0.454
		c0-0.227,0.042-0.381,0.126-0.463s0.241-0.123,0.472-0.123s0.387,0.04,0.469,0.12S120.542,111.008,120.542,111.231z"/>
	<path d="M126.724,115.42c0,0.152-0.038,0.261-0.115,0.325s-0.164,0.097-0.262,0.097h-3.473c0,0.293,0.029,0.557,0.088,0.791
		c0.059,0.234,0.157,0.436,0.294,0.604c0.137,0.168,0.316,0.297,0.536,0.387s0.489,0.135,0.807,0.135
		c0.251,0,0.475-0.021,0.671-0.062s0.366-0.087,0.509-0.138c0.143-0.051,0.261-0.097,0.353-0.138s0.162-0.062,0.209-0.062
		c0.027,0,0.052,0.007,0.073,0.021s0.038,0.034,0.05,0.062c0.012,0.027,0.021,0.065,0.026,0.114s0.009,0.108,0.009,0.179
		c0,0.051-0.002,0.095-0.006,0.132s-0.009,0.07-0.015,0.1s-0.016,0.056-0.029,0.079s-0.031,0.046-0.053,0.067
		s-0.085,0.057-0.19,0.105s-0.242,0.097-0.41,0.144s-0.362,0.089-0.583,0.126s-0.456,0.056-0.706,0.056
		c-0.434,0-0.813-0.061-1.14-0.182s-0.601-0.301-0.823-0.539s-0.391-0.537-0.504-0.896s-0.17-0.777-0.17-1.254
		c0-0.453,0.059-0.86,0.176-1.222s0.286-0.668,0.507-0.92s0.487-0.445,0.8-0.58s0.662-0.202,1.049-0.202
		c0.414,0,0.767,0.066,1.058,0.199s0.53,0.312,0.718,0.536s0.325,0.488,0.413,0.791s0.132,0.626,0.132,0.97V115.42z
		 M125.751,115.133c0.012-0.508-0.102-0.906-0.339-1.195c-0.238-0.289-0.591-0.434-1.058-0.434c-0.24,0-0.45,0.045-0.631,0.135
		c-0.181,0.09-0.333,0.209-0.454,0.357c-0.122,0.148-0.216,0.321-0.283,0.519s-0.104,0.403-0.112,0.618H125.751z"/>
	<path d="M131.505,116.85c0,0.27-0.05,0.51-0.149,0.721s-0.241,0.389-0.425,0.533s-0.402,0.254-0.656,0.328
		s-0.533,0.111-0.838,0.111c-0.188,0-0.366-0.015-0.536-0.044s-0.322-0.066-0.457-0.111s-0.249-0.092-0.343-0.141
		s-0.162-0.093-0.205-0.132s-0.074-0.094-0.094-0.164s-0.029-0.166-0.029-0.287c0-0.074,0.004-0.137,0.012-0.188
		s0.018-0.092,0.029-0.123s0.028-0.054,0.05-0.067s0.046-0.021,0.073-0.021c0.043,0,0.106,0.026,0.19,0.079s0.188,0.11,0.311,0.173
		s0.269,0.12,0.437,0.173s0.361,0.079,0.58,0.079c0.164,0,0.313-0.018,0.445-0.053s0.248-0.087,0.346-0.155s0.173-0.155,0.226-0.261
		s0.079-0.23,0.079-0.375c0-0.148-0.038-0.273-0.114-0.375s-0.177-0.191-0.302-0.27s-0.266-0.147-0.422-0.208
		s-0.317-0.124-0.483-0.19s-0.328-0.142-0.486-0.226s-0.3-0.187-0.425-0.308s-0.226-0.266-0.302-0.434s-0.114-0.369-0.114-0.604
		c0-0.207,0.04-0.405,0.12-0.595s0.2-0.355,0.36-0.498s0.36-0.257,0.601-0.343s0.521-0.129,0.841-0.129
		c0.141,0,0.281,0.012,0.422,0.035s0.268,0.053,0.381,0.088s0.21,0.073,0.29,0.114s0.141,0.077,0.182,0.108s0.068,0.059,0.082,0.082
		s0.023,0.05,0.029,0.079s0.012,0.065,0.018,0.108s0.009,0.096,0.009,0.158c0,0.066-0.003,0.124-0.009,0.173
		s-0.016,0.089-0.029,0.12s-0.03,0.054-0.05,0.067s-0.041,0.021-0.064,0.021c-0.035,0-0.086-0.021-0.152-0.064
		s-0.152-0.089-0.258-0.138s-0.229-0.095-0.372-0.138s-0.306-0.064-0.489-0.064c-0.164,0-0.309,0.019-0.434,0.056
		s-0.228,0.09-0.308,0.158s-0.141,0.149-0.182,0.243s-0.062,0.195-0.062,0.305c0,0.152,0.039,0.28,0.117,0.384
		s0.18,0.194,0.305,0.272s0.268,0.148,0.428,0.211s0.323,0.127,0.489,0.193s0.33,0.141,0.492,0.223s0.306,0.182,0.431,0.299
		s0.226,0.258,0.302,0.422S131.505,116.624,131.505,116.85z"/>
	<path d="M136.146,118.022c0,0.074-0.006,0.138-0.018,0.19s-0.025,0.096-0.041,0.129s-0.037,0.057-0.064,0.07
		s-0.057,0.021-0.088,0.021h-3.246c-0.082,0-0.149-0.027-0.202-0.082s-0.079-0.146-0.079-0.275v-0.199
		c0-0.055,0.004-0.104,0.012-0.146s0.02-0.086,0.035-0.129s0.037-0.089,0.064-0.138s0.061-0.104,0.1-0.167l2.326-3.621h-2.256
		c-0.063,0-0.112-0.032-0.149-0.097s-0.056-0.169-0.056-0.313c0-0.07,0.004-0.132,0.012-0.185s0.021-0.096,0.038-0.129
		s0.039-0.057,0.064-0.07s0.056-0.021,0.091-0.021h3.023c0.043,0,0.081,0.006,0.114,0.018s0.062,0.031,0.085,0.059
		s0.042,0.063,0.056,0.105s0.021,0.098,0.021,0.164v0.188c0,0.055-0.004,0.105-0.012,0.152s-0.02,0.093-0.035,0.138
		s-0.037,0.093-0.064,0.144s-0.061,0.107-0.1,0.17l-2.314,3.621h2.473c0.031,0,0.06,0.007,0.085,0.021s0.047,0.036,0.064,0.067
		s0.032,0.073,0.044,0.126S136.146,117.948,136.146,118.022z"/>
	<path d="M140.265,117.899c0,0.113-0.008,0.203-0.023,0.27s-0.039,0.115-0.07,0.146s-0.078,0.061-0.141,0.088
		s-0.134,0.05-0.214,0.067s-0.165,0.032-0.255,0.044s-0.18,0.018-0.27,0.018c-0.273,0-0.508-0.036-0.703-0.108
		s-0.355-0.182-0.48-0.328s-0.216-0.332-0.272-0.557s-0.085-0.489-0.085-0.794v-3.082h-0.738c-0.059,0-0.105-0.031-0.141-0.094
		s-0.053-0.164-0.053-0.305c0-0.074,0.005-0.137,0.015-0.188s0.022-0.093,0.038-0.126s0.036-0.057,0.062-0.07
		s0.054-0.021,0.085-0.021h0.732v-1.254c0-0.027,0.007-0.053,0.021-0.076s0.039-0.044,0.076-0.062s0.087-0.03,0.149-0.038
		s0.141-0.012,0.234-0.012c0.098,0,0.178,0.004,0.24,0.012s0.111,0.021,0.146,0.038s0.061,0.038,0.076,0.062
		s0.023,0.049,0.023,0.076v1.254h1.354c0.031,0,0.059,0.007,0.082,0.021s0.044,0.037,0.062,0.07s0.03,0.075,0.038,0.126
		s0.012,0.113,0.012,0.188c0,0.141-0.018,0.242-0.053,0.305s-0.082,0.094-0.141,0.094h-1.354v2.941c0,0.363,0.054,0.638,0.161,0.823
		s0.3,0.278,0.577,0.278c0.09,0,0.17-0.009,0.24-0.026s0.133-0.036,0.188-0.056s0.102-0.038,0.141-0.056s0.074-0.026,0.105-0.026
		c0.02,0,0.038,0.005,0.056,0.015s0.031,0.028,0.041,0.056s0.019,0.064,0.026,0.111S140.265,117.829,140.265,117.899z"/>
	<path d="M145.914,115.42c0,0.152-0.038,0.261-0.115,0.325s-0.164,0.097-0.262,0.097h-3.473c0,0.293,0.029,0.557,0.088,0.791
		c0.059,0.234,0.157,0.436,0.294,0.604c0.137,0.168,0.316,0.297,0.536,0.387s0.489,0.135,0.807,0.135
		c0.251,0,0.475-0.021,0.671-0.062s0.366-0.087,0.509-0.138c0.143-0.051,0.261-0.097,0.353-0.138s0.162-0.062,0.209-0.062
		c0.027,0,0.052,0.007,0.073,0.021s0.038,0.034,0.05,0.062c0.012,0.027,0.021,0.065,0.026,0.114s0.009,0.108,0.009,0.179
		c0,0.051-0.002,0.095-0.006,0.132s-0.009,0.07-0.015,0.1s-0.016,0.056-0.029,0.079s-0.031,0.046-0.053,0.067
		s-0.085,0.057-0.19,0.105s-0.242,0.097-0.41,0.144s-0.362,0.089-0.583,0.126s-0.456,0.056-0.706,0.056
		c-0.434,0-0.813-0.061-1.14-0.182s-0.601-0.301-0.823-0.539s-0.391-0.537-0.504-0.896s-0.17-0.777-0.17-1.254
		c0-0.453,0.059-0.86,0.176-1.222s0.286-0.668,0.507-0.92s0.487-0.445,0.8-0.58s0.662-0.202,1.049-0.202
		c0.414,0,0.767,0.066,1.058,0.199s0.53,0.312,0.718,0.536s0.325,0.488,0.413,0.791s0.132,0.626,0.132,0.97V115.42z
		 M144.941,115.133c0.012-0.508-0.102-0.906-0.339-1.195c-0.238-0.289-0.591-0.434-1.058-0.434c-0.24,0-0.45,0.045-0.631,0.135
		c-0.181,0.09-0.333,0.209-0.454,0.357c-0.122,0.148-0.216,0.321-0.283,0.519s-0.104,0.403-0.112,0.618H144.941z M143.992,110.434
		c0.023-0.043,0.051-0.078,0.082-0.105s0.069-0.049,0.114-0.064s0.101-0.027,0.167-0.035s0.146-0.012,0.24-0.012
		c0.109,0,0.198,0.007,0.267,0.021s0.116,0.033,0.144,0.059s0.039,0.055,0.035,0.088s-0.021,0.067-0.053,0.103l-1.061,1.365
		c-0.031,0.039-0.06,0.07-0.085,0.094s-0.055,0.042-0.088,0.056s-0.076,0.023-0.129,0.029s-0.118,0.009-0.196,0.009
		c-0.086,0-0.154-0.006-0.205-0.018s-0.087-0.027-0.108-0.047s-0.029-0.045-0.023-0.076s0.022-0.068,0.05-0.111L143.992,110.434z"/>
	<path d="M150.695,116.85c0,0.27-0.05,0.51-0.149,0.721s-0.241,0.389-0.425,0.533s-0.402,0.254-0.656,0.328
		s-0.533,0.111-0.838,0.111c-0.188,0-0.366-0.015-0.536-0.044s-0.322-0.066-0.457-0.111s-0.249-0.092-0.343-0.141
		s-0.162-0.093-0.205-0.132s-0.074-0.094-0.094-0.164s-0.029-0.166-0.029-0.287c0-0.074,0.004-0.137,0.012-0.188
		s0.018-0.092,0.029-0.123s0.028-0.054,0.05-0.067s0.046-0.021,0.073-0.021c0.043,0,0.106,0.026,0.19,0.079s0.188,0.11,0.311,0.173
		s0.269,0.12,0.437,0.173s0.361,0.079,0.58,0.079c0.164,0,0.313-0.018,0.445-0.053s0.248-0.087,0.346-0.155s0.173-0.155,0.226-0.261
		s0.079-0.23,0.079-0.375c0-0.148-0.038-0.273-0.114-0.375s-0.177-0.191-0.302-0.27s-0.266-0.147-0.422-0.208
		s-0.317-0.124-0.483-0.19s-0.328-0.142-0.486-0.226s-0.3-0.187-0.425-0.308s-0.226-0.266-0.302-0.434s-0.114-0.369-0.114-0.604
		c0-0.207,0.04-0.405,0.12-0.595s0.2-0.355,0.36-0.498s0.36-0.257,0.601-0.343s0.521-0.129,0.841-0.129
		c0.141,0,0.281,0.012,0.422,0.035s0.268,0.053,0.381,0.088s0.21,0.073,0.29,0.114s0.141,0.077,0.182,0.108s0.068,0.059,0.082,0.082
		s0.023,0.05,0.029,0.079s0.012,0.065,0.018,0.108s0.009,0.096,0.009,0.158c0,0.066-0.003,0.124-0.009,0.173
		s-0.016,0.089-0.029,0.12s-0.03,0.054-0.05,0.067s-0.041,0.021-0.064,0.021c-0.035,0-0.086-0.021-0.152-0.064
		s-0.152-0.089-0.258-0.138s-0.229-0.095-0.372-0.138s-0.306-0.064-0.489-0.064c-0.164,0-0.309,0.019-0.434,0.056
		s-0.228,0.09-0.308,0.158s-0.141,0.149-0.182,0.243s-0.062,0.195-0.062,0.305c0,0.152,0.039,0.28,0.117,0.384
		s0.18,0.194,0.305,0.272s0.268,0.148,0.428,0.211s0.323,0.127,0.489,0.193s0.33,0.141,0.492,0.223s0.306,0.182,0.431,0.299
		s0.226,0.258,0.302,0.422S150.695,116.624,150.695,116.85z"/>
</g>
</svg>
