<?xml version="1.0" encoding="utf-8"?>
<!-- Generator: Adobe Illustrator 13.0.0, SVG Export Plug-In . SVG Version: 6.00 Build 14948)  -->
<!DOCTYPE svg PUBLIC "-//W3C//DTD SVG 1.1 Tiny//EN" "http://www.w3.org/Graphics/SVG/1.1/DTD/svg11-tiny.dtd">
<svg version="1.1" baseProfile="tiny" xmlns="http://www.w3.org/2000/svg" xmlns:xlink="http://www.w3.org/1999/xlink" x="0px"
	 y="0px" width="331.974px" height="95.819px" viewBox="0 0 331.974 95.819" xml:space="preserve">
<g id="Layer_1">
	<g>
		<line fill="none" stroke="#000000" stroke-width="0.5" x1="0" y1="82.258" x2="324" y2="82.258"/>
		<polygon points="322.216,84.84 331.974,82.226 322.216,79.611 		"/>
	</g>
	<line fill="none" stroke="#000000" stroke-width="0.5" x1="162" y1="95.819" x2="162" y2="9.757"/>
	<polygon points="164.581,9.757 161.968,0 159.354,9.757 	"/>
	<path fill="none" stroke="#000000" d="M283.5,82.258"/>
	<path fill="none" stroke="#000000" d="M162,25.404"/>
	<path fill="none" stroke="#000000" d="M40.5,82.258"/>
	<line fill="none" x1="148.036" y1="50.257" x2="175.036" y2="50.257"/>
	<line fill="none" stroke="#000000" x1="67.036" y1="50.257" x2="250.974" y2="50.257"/>
	
		<line fill="none" stroke="#000000" stroke-width="0.25" stroke-dasharray="1,0.5" x1="121.036" y1="48.569" x2="121.036" y2="51.944"/>
	<rect x="148.036" y="23.257" fill="none" stroke="#000000" stroke-width="0.25" stroke-dasharray="1,0.5" width="27" height="54"/>
	<rect x="175.036" y="36.757" fill="none" stroke="#000000" stroke-width="0.25" stroke-dasharray="1,0.5" width="27" height="27"/>
	
		<rect x="121.036" y="43.507" fill="none" stroke="#000000" stroke-width="0.25" stroke-dasharray="1,0.5" width="27" height="13.5"/>
	
		<rect x="202.036" y="46.882" fill="none" stroke="#000000" stroke-width="0.25" stroke-dasharray="1,0.5" width="27" height="6.75"/>
	
		<rect x="94.036" y="48.569" fill="none" stroke="#000000" stroke-width="0.25" stroke-dasharray="1,0.5" width="27" height="3.375"/>
	<line fill="none" stroke="#000000" x1="148.036" y1="48.569" x2="148.036" y2="51.944"/>
	<line fill="none" stroke="#000000" x1="175.036" y1="48.569" x2="175.036" y2="51.944"/>
	<line fill="none" stroke="#000000" x1="202.036" y1="48.569" x2="202.036" y2="51.944"/>
	<line fill="none" stroke="#000000" x1="229.036" y1="48.569" x2="229.036" y2="51.944"/>
	<line fill="none" stroke="#000000" stroke-dasharray="3,1" x1="94.036" y1="48.569" x2="94.036" y2="51.944"/>
	<line fill="none" stroke="#000000" x1="121.036" y1="48.569" x2="121.036" y2="51.944"/>
	<g>
		<path d="M157.369,43.507l0.097-0.431c0.264-0.023,0.47-0.1,0.62-0.229s0.255-0.308,0.316-0.536s0.092-0.53,0.092-0.905
			c0-0.229-0.009-0.478-0.026-0.747l-0.062-1.134h-3.867l-0.483,0.861c-0.229,0.404-0.396,0.751-0.501,1.042
			s-0.158,0.546-0.158,0.769c0,0.492,0.296,0.785,0.888,0.879l-0.097,0.431h-3.595l0.097-0.431c0.182-0.023,0.353-0.095,0.514-0.215
			s0.333-0.302,0.514-0.545s0.437-0.646,0.765-1.208l5.634-9.738h1.327l0.633,9.8c0.029,0.463,0.082,0.825,0.158,1.085
			s0.18,0.454,0.312,0.58s0.324,0.207,0.576,0.242l-0.097,0.431H157.369z M154.935,38.761h3.437l-0.149-2.83
			c-0.018-0.387-0.032-0.87-0.044-1.45s-0.018-0.999-0.018-1.257h-0.097L154.935,38.761z"/>
		<path d="M166.073,46.478c0,0.227,0.013,0.397,0.038,0.513s0.07,0.209,0.135,0.281s0.157,0.129,0.278,0.17s0.273,0.072,0.457,0.094
			s0.426,0.036,0.727,0.044v0.428h-4.33v-0.428c0.434-0.02,0.743-0.046,0.929-0.079s0.327-0.083,0.425-0.149s0.169-0.16,0.214-0.281
			s0.067-0.318,0.067-0.592v-4.752c0-0.156-0.027-0.271-0.082-0.343s-0.135-0.108-0.24-0.108c-0.125,0-0.303,0.064-0.533,0.193
			s-0.516,0.307-0.855,0.533l-0.258-0.451l2.742-1.635h0.322c-0.023,0.375-0.035,0.895-0.035,1.559V46.478z"/>
	</g>
	<g>
		<path d="M186.057,28.319l0.097-0.431c0.264-0.023,0.47-0.1,0.62-0.229c0.148-0.129,0.254-0.308,0.316-0.536
			c0.061-0.229,0.092-0.53,0.092-0.905c0-0.229-0.009-0.478-0.026-0.747l-0.062-1.134h-3.867l-0.483,0.861
			c-0.229,0.404-0.396,0.751-0.501,1.042s-0.158,0.546-0.158,0.769c0,0.492,0.296,0.785,0.888,0.879l-0.097,0.431h-3.595
			l0.097-0.431c0.182-0.023,0.354-0.095,0.514-0.215c0.162-0.12,0.333-0.302,0.515-0.545s0.437-0.646,0.765-1.208l5.634-9.738h1.327
			l0.633,9.8c0.029,0.463,0.082,0.825,0.158,1.085s0.18,0.454,0.313,0.58c0.131,0.126,0.323,0.207,0.575,0.242l-0.097,0.431H186.057
			z M183.622,23.573h3.437l-0.149-2.83c-0.018-0.387-0.032-0.87-0.044-1.45s-0.018-0.999-0.018-1.257h-0.097L183.622,23.573z"/>
		<path d="M194.802,31.882c0.191,0,0.346-0.012,0.463-0.035s0.211-0.063,0.281-0.117s0.126-0.126,0.167-0.214
			s0.093-0.224,0.155-0.407h0.498l-0.1,1.711h-4.822v-0.281c0.168-0.41,0.395-0.83,0.68-1.26s0.689-0.936,1.213-1.518
			c0.453-0.5,0.779-0.879,0.979-1.137c0.219-0.281,0.382-0.524,0.489-0.729s0.185-0.398,0.231-0.58s0.07-0.364,0.07-0.548
			c0-0.293-0.047-0.552-0.141-0.776s-0.237-0.401-0.431-0.53s-0.437-0.193-0.729-0.193c-0.73,0-1.223,0.406-1.477,1.219h-0.709
			V25.36c0.473-0.223,0.915-0.384,1.327-0.483s0.782-0.149,1.11-0.149c0.727,0,1.275,0.159,1.646,0.478s0.557,0.78,0.557,1.386
			c0,0.207-0.021,0.397-0.062,0.571s-0.105,0.346-0.193,0.516s-0.206,0.353-0.354,0.548s-0.313,0.394-0.492,0.595
			s-0.49,0.536-0.932,1.005c-0.742,0.785-1.287,1.471-1.635,2.057H194.802z"/>
	</g>
	<g>
		<path d="M133.744,36.757l0.097-0.431c0.264-0.023,0.47-0.1,0.62-0.229s0.255-0.308,0.316-0.536s0.092-0.53,0.092-0.905
			c0-0.229-0.009-0.478-0.026-0.747l-0.062-1.134h-3.867l-0.483,0.861c-0.229,0.404-0.396,0.751-0.501,1.042
			s-0.158,0.546-0.158,0.769c0,0.492,0.296,0.785,0.888,0.879l-0.097,0.431h-3.595l0.097-0.431c0.182-0.023,0.353-0.095,0.514-0.215
			s0.333-0.302,0.514-0.545s0.437-0.646,0.765-1.208l5.634-9.738h1.327l0.633,9.8c0.029,0.463,0.082,0.825,0.158,1.085
			s0.18,0.454,0.312,0.58s0.324,0.207,0.576,0.242l-0.097,0.431H133.744z M131.31,32.011h3.437l-0.149-2.83
			c-0.018-0.387-0.032-0.87-0.044-1.45s-0.018-0.999-0.018-1.257h-0.097L131.31,32.011z"/>
		<path d="M139.308,34.917v-1.113c0.453-0.215,0.877-0.375,1.271-0.48s0.775-0.158,1.143-0.158c0.441,0,0.828,0.068,1.16,0.205
			s0.586,0.333,0.762,0.589s0.264,0.562,0.264,0.917c0,0.332-0.066,0.624-0.199,0.876s-0.319,0.472-0.56,0.659
			s-0.552,0.371-0.935,0.551v0.053c0.238,0.043,0.468,0.116,0.688,0.22s0.417,0.237,0.589,0.401s0.31,0.36,0.413,0.589
			s0.155,0.489,0.155,0.782c0,0.453-0.099,0.855-0.296,1.207s-0.499,0.629-0.905,0.832s-0.9,0.305-1.482,0.305
			c-0.336,0-0.698-0.038-1.087-0.114s-0.745-0.177-1.069-0.302v-1.242h0.703c0.137,0.406,0.317,0.701,0.542,0.885
			s0.53,0.275,0.917,0.275c0.508,0,0.892-0.139,1.151-0.416s0.39-0.688,0.39-1.23c0-0.57-0.172-1.006-0.516-1.307
			s-0.848-0.451-1.512-0.451h-0.527v-0.516c0.527-0.031,0.972-0.133,1.333-0.305s0.63-0.393,0.806-0.662s0.264-0.572,0.264-0.908
			c0-0.434-0.115-0.768-0.346-1.002s-0.566-0.352-1.008-0.352c-0.367,0-0.666,0.1-0.896,0.299s-0.4,0.504-0.51,0.914H139.308z"/>
	</g>
	<g>
		<path d="M216.432,38.444l0.097-0.431c0.264-0.023,0.47-0.1,0.62-0.229c0.148-0.129,0.254-0.308,0.316-0.536
			c0.061-0.229,0.092-0.53,0.092-0.905c0-0.229-0.009-0.478-0.026-0.747l-0.062-1.134h-3.867l-0.483,0.861
			c-0.229,0.404-0.396,0.751-0.501,1.042s-0.158,0.546-0.158,0.769c0,0.492,0.296,0.785,0.888,0.879l-0.097,0.431h-3.595
			l0.097-0.431c0.182-0.023,0.354-0.095,0.514-0.215c0.162-0.12,0.333-0.302,0.515-0.545s0.437-0.646,0.765-1.208l5.634-9.738h1.327
			l0.633,9.8c0.029,0.463,0.082,0.825,0.158,1.085s0.18,0.454,0.313,0.58c0.131,0.126,0.323,0.207,0.575,0.242l-0.097,0.431H216.432
			z M213.997,33.698h3.437l-0.149-2.83c-0.018-0.387-0.032-0.87-0.044-1.45s-0.018-0.999-0.018-1.257h-0.097L213.997,33.698z"/>
		<path d="M224.087,42.657c0.242-0.063,0.404-0.132,0.486-0.208s0.136-0.185,0.161-0.325s0.038-0.355,0.038-0.645v-0.961h-3.258
			v-0.439l3.428-5.174h0.838v5.045h0.123c0.227,0,0.389-0.017,0.486-0.05s0.179-0.092,0.243-0.176s0.124-0.222,0.179-0.413h0.445
			l-0.07,1.207h-1.406v0.961c0,0.262,0.009,0.453,0.026,0.574s0.047,0.217,0.088,0.287s0.102,0.129,0.182,0.176
			s0.21,0.094,0.39,0.141v0.287h-2.379V42.657z M222.481,39.95h2.291v-1.459c0-0.367,0.006-0.778,0.018-1.233
			s0.025-0.798,0.041-1.028h-0.059l-2.291,3.639V39.95z"/>
	</g>
	<g>
		<path d="M108.432,41.819l0.097-0.431c0.264-0.023,0.47-0.1,0.62-0.229s0.255-0.308,0.316-0.536s0.092-0.53,0.092-0.905
			c0-0.229-0.009-0.478-0.026-0.747l-0.062-1.134h-3.867l-0.483,0.861c-0.229,0.404-0.396,0.751-0.501,1.042
			s-0.158,0.546-0.158,0.769c0,0.492,0.296,0.785,0.888,0.879l-0.097,0.431h-3.595l0.097-0.431c0.182-0.023,0.353-0.095,0.514-0.215
			s0.333-0.302,0.514-0.545s0.437-0.646,0.765-1.208l5.634-9.738h1.327l0.633,9.8c0.029,0.463,0.082,0.825,0.158,1.085
			s0.18,0.454,0.312,0.58s0.324,0.207,0.576,0.242l-0.097,0.431H108.432z M105.997,37.073h3.437l-0.149-2.83
			c-0.018-0.387-0.032-0.87-0.044-1.45s-0.018-0.999-0.018-1.257h-0.097L105.997,37.073z"/>
		<path d="M113.942,45.997v-1.242h0.709c0.117,0.398,0.294,0.691,0.53,0.879s0.542,0.281,0.917,0.281
			c0.52,0,0.912-0.156,1.178-0.469s0.398-0.779,0.398-1.4c0-0.414-0.07-0.757-0.211-1.028s-0.33-0.468-0.568-0.589
			s-0.516-0.182-0.832-0.182c-0.266,0-0.494,0.017-0.686,0.05s-0.396,0.085-0.615,0.155l-0.469-0.275v-3.855h3.229
			c0.133,0,0.229-0.011,0.287-0.032s0.105-0.055,0.141-0.1s0.076-0.13,0.123-0.255h0.457l-0.088,1.359h-3.369v2.572
			c0.203-0.086,0.424-0.15,0.662-0.193s0.477-0.064,0.715-0.064c0.465,0,0.877,0.095,1.236,0.284s0.637,0.459,0.832,0.809
			s0.293,0.755,0.293,1.216c0,0.523-0.109,0.973-0.328,1.348s-0.535,0.66-0.949,0.855s-0.904,0.293-1.471,0.293
			C115.388,46.413,114.681,46.274,113.942,45.997z"/>
	</g>
</g>
<g id="Layer_2">
</g>
</svg>
