<?xml version="1.0" encoding="utf-8"?>
<!-- Generator: Adobe Illustrator 13.0.0, SVG Export Plug-In . SVG Version: 6.00 Build 14948)  -->
<!DOCTYPE svg PUBLIC "-//W3C//DTD SVG 1.1 Tiny//EN" "http://www.w3.org/Graphics/SVG/1.1/DTD/svg11-tiny.dtd">
<svg version="1.1" baseProfile="tiny" id="Layer_1" xmlns="http://www.w3.org/2000/svg" xmlns:xlink="http://www.w3.org/1999/xlink"
	 x="0px" y="0px" width="600.75px" height="57.05px" viewBox="0 0 600.75 57.05" xml:space="preserve">
<line fill="none" stroke="#010101" x1="0" y1="56.55" x2="216" y2="56.55"/>
<line fill="none" stroke="#010101" x1="384.75" y1="56.55" x2="600.75" y2="56.55"/>
<line fill="none" stroke="#010101" x1="108" y1="29.55" x2="108" y2="56.55"/>
<g>
	<path fill="none" stroke="#010101" stroke-width="0.5" d="M0,49.8c40.5,0,81-23.625,108-23.625S175.5,49.8,216,49.8"/>
	<polygon fill="#010101" points="214.811,51.521 221.316,49.779 214.811,48.035 	"/>
</g>
<g>
	<path fill="none" stroke="#010101" stroke-width="0.5" d="M0,39.675c33.75,0,74.25-16.875,108-16.875s74.25,16.875,108,16.875"/>
	<polygon fill="#010101" points="214.811,41.396 221.316,39.654 214.811,37.91 	"/>
</g>
<g>
	<path fill="none" stroke="#010101" stroke-width="0.5" d="M0,29.55c27,0,67.5-10.125,108-10.125S189,29.55,216,29.55"/>
	<polygon fill="#010101" points="214.811,31.271 221.316,29.529 214.811,27.785 	"/>
</g>
<g>
	<line fill="none" stroke="#010101" x1="236.25" y1="43.05" x2="346.637" y2="43.05"/>
	<polygon fill="#010101" points="343.396,44.771 361.125,43.029 343.396,41.285 	"/>
</g>
<polyline fill="#010101" points="300.155,22.032 302.676,20.438 306.568,27.327 310.955,6.77 358.485,6.77 358.485,7.669 
	311.682,7.669 307.017,29.55 306.096,29.55 301.712,21.793 300.489,22.563 "/>
<g>
	<path fill="#010101" d="M242.93,24.181c-0.041,0.175-0.073,0.325-0.096,0.448s-0.044,0.274-0.062,0.453
		c-0.02,0.178-0.028,0.335-0.028,0.47c0,0.182,0.031,0.323,0.089,0.425c0.059,0.102,0.146,0.177,0.265,0.223
		c0.116,0.047,0.318,0.083,0.605,0.105l-0.097,0.431h-3.612l0.097-0.431c0.222-0.034,0.391-0.093,0.502-0.171
		c0.11-0.078,0.204-0.189,0.28-0.33c0.076-0.141,0.148-0.312,0.212-0.515c0.064-0.202,0.16-0.594,0.289-1.173l1.494-6.768
		c0.129-0.586,0.193-1.048,0.193-1.389c0-0.287-0.067-0.486-0.202-0.597c-0.135-0.111-0.354-0.176-0.658-0.194l0.095-0.43h7.929
		l-0.606,2.698h-0.844c-0.025-0.415-0.056-0.742-0.097-0.979c-0.041-0.237-0.093-0.415-0.154-0.531
		c-0.063-0.117-0.13-0.205-0.208-0.26c-0.076-0.055-0.17-0.094-0.284-0.118c-0.114-0.024-0.278-0.035-0.488-0.035h-2.707
		l-1.046,4.782h1.645c0.258,0,0.472-0.035,0.643-0.105c0.17-0.07,0.328-0.197,0.474-0.382c0.145-0.185,0.327-0.5,0.545-0.945h0.8
		l-0.854,3.709h-0.772c0-0.362-0.009-0.647-0.023-0.853c-0.015-0.204-0.05-0.348-0.104-0.431c-0.057-0.082-0.137-0.139-0.237-0.171
		c-0.103-0.031-0.289-0.048-0.558-0.048h-1.724L242.93,24.181z"/>
	<path fill="#010101" d="M267.939,24.267l-0.535,2.47h-6.363l-0.167-0.431l4.809-5.536c0.68-0.78,1.178-1.334,1.493-1.66
		l-0.053-0.062h-2.057c-0.305,0-0.527,0.021-0.667,0.062c-0.142,0.04-0.283,0.112-0.422,0.215c-0.14,0.104-0.292,0.255-0.453,0.458
		c-0.163,0.203-0.343,0.491-0.541,0.866H262.2l0.521-2.312h6.249l0.165,0.439l-6.311,7.189l0.053,0.062h1.986
		c0.352,0,0.621-0.02,0.809-0.057c0.188-0.037,0.353-0.109,0.492-0.216c0.141-0.107,0.284-0.266,0.436-0.479
		c0.148-0.213,0.335-0.549,0.558-1.006h0.782V24.267z"/>
</g>
<g>
	<path fill="#010101" d="M318.596,18.387l-0.236,1.283c-0.463,0.48-1.348,1.511-2.654,3.09c-1.309,1.58-1.962,2.485-1.962,2.719
		v0.08c1.683,0,3.129-0.05,4.344-0.15l-0.185,1.328h-6.084l0.22-1.275c0.316-0.287,1.19-1.277,2.624-2.967
		c1.433-1.69,2.148-2.639,2.148-2.844v-0.089c-1.791,0-3.196,0.035-4.21,0.105l0.185-1.283h5.812L318.596,18.387L318.596,18.387z"/>
</g>
<g>
	<path fill="#010101" d="M260.186,32.857c-0.035,0.044-0.079,0.064-0.126,0.064c-0.085,0-0.14-0.016-0.161-0.041
		c-0.685-0.627-1.271-1.346-1.755-2.148c-0.486-0.805-0.887-1.667-1.198-2.586c-0.313-0.92-0.542-1.88-0.693-2.885
		c-0.15-1.004-0.224-2.012-0.224-3.023c0-1.013,0.075-2.02,0.224-3.024c0.151-1.003,0.381-1.967,0.693-2.885
		c0.312-0.918,0.712-1.78,1.198-2.586c0.484-0.804,1.07-1.52,1.755-2.146c0.022-0.028,0.078-0.043,0.161-0.043
		c0.047,0,0.091,0.021,0.126,0.064c0.024,0.057,0.035,0.106,0.035,0.149c0,0.057-0.02,0.106-0.055,0.15
		c-0.576,0.641-1.062,1.361-1.458,2.157c-0.396,0.799-0.718,1.643-0.964,2.532c-0.246,0.892-0.42,1.812-0.522,2.768
		c-0.102,0.954-0.154,1.908-0.154,2.864c0,0.969,0.051,1.927,0.154,2.874c0.101,0.946,0.276,1.865,0.522,2.755
		c0.246,0.89,0.567,1.734,0.964,2.532c0.396,0.797,0.882,1.517,1.458,2.156c0.035,0.042,0.055,0.094,0.055,0.151
		C260.221,32.751,260.21,32.802,260.186,32.857z"/>
	<path fill="#010101" d="M277.475,25.263c-0.152,1.004-0.382,1.967-0.693,2.885c-0.313,0.917-0.713,1.779-1.198,2.585
		c-0.484,0.804-1.071,1.521-1.755,2.147c-0.048,0.029-0.085,0.043-0.106,0.043h-0.055c-0.048,0-0.092-0.021-0.126-0.063
		c-0.024-0.06-0.037-0.108-0.037-0.151c0-0.057,0.02-0.105,0.055-0.149c0.576-0.642,1.062-1.358,1.459-2.156
		c0.396-0.799,0.718-1.643,0.964-2.532c0.246-0.889,0.419-1.809,0.521-2.755c0.104-0.947,0.155-1.905,0.155-2.874
		c0-0.955-0.051-1.908-0.155-2.864c-0.103-0.955-0.274-1.876-0.521-2.767c-0.246-0.89-0.567-1.734-0.964-2.533
		c-0.397-0.796-0.883-1.516-1.459-2.156c-0.035-0.042-0.055-0.094-0.055-0.15c0-0.071,0.014-0.122,0.037-0.15
		c0.034-0.044,0.078-0.064,0.126-0.064h0.055c0.022,0,0.059,0.015,0.106,0.043c0.684,0.627,1.271,1.343,1.755,2.146
		c0.485,0.806,0.886,1.667,1.198,2.586c0.312,0.917,0.541,1.879,0.693,2.884c0.148,1.003,0.223,2.011,0.223,3.024
		C277.698,23.253,277.625,24.258,277.475,25.263z"/>
</g>
<g>
	<path fill="#010101" d="M526.43,13.494c-0.039,0.175-0.073,0.325-0.097,0.448c-0.021,0.123-0.043,0.275-0.061,0.454
		c-0.018,0.178-0.028,0.334-0.028,0.469c0,0.182,0.03,0.324,0.089,0.426c0.06,0.103,0.146,0.177,0.265,0.224
		c0.117,0.047,0.319,0.083,0.606,0.105l-0.098,0.431h-3.611l0.097-0.431c0.222-0.035,0.391-0.093,0.502-0.172
		c0.11-0.077,0.205-0.188,0.28-0.329c0.077-0.142,0.147-0.313,0.213-0.515c0.063-0.202,0.158-0.594,0.287-1.172l1.494-6.769
		c0.129-0.587,0.193-1.048,0.193-1.389c0-0.286-0.066-0.486-0.201-0.597c-0.135-0.111-0.354-0.176-0.658-0.193l0.097-0.431h7.928
		l-0.607,2.698h-0.844c-0.024-0.416-0.055-0.743-0.096-0.979c-0.04-0.237-0.093-0.414-0.154-0.531
		c-0.061-0.117-0.131-0.204-0.207-0.26c-0.077-0.055-0.171-0.095-0.285-0.118c-0.113-0.024-0.276-0.035-0.487-0.035h-2.707
		l-1.045,4.783h1.643c0.26,0,0.473-0.035,0.645-0.105c0.17-0.07,0.327-0.198,0.474-0.383c0.146-0.185,0.329-0.499,0.545-0.944h0.799
		l-0.852,3.709h-0.773c0-0.363-0.008-0.647-0.022-0.852c-0.017-0.204-0.05-0.348-0.104-0.431c-0.056-0.082-0.135-0.139-0.237-0.17
		c-0.103-0.032-0.289-0.049-0.559-0.049h-1.721L526.43,13.494z"/>
	<path fill="#010101" d="M551.44,13.582l-0.536,2.469h-6.363l-0.166-0.431l4.808-5.537c0.68-0.78,1.178-1.333,1.494-1.661
		l-0.054-0.062h-2.055c-0.305,0-0.529,0.021-0.668,0.062c-0.14,0.041-0.283,0.112-0.422,0.216c-0.14,0.104-0.292,0.255-0.453,0.458
		c-0.162,0.203-0.343,0.491-0.541,0.866h-0.783l0.52-2.312h6.249l0.167,0.439l-6.312,7.189l0.054,0.062h1.984
		c0.353,0,0.621-0.02,0.81-0.057c0.188-0.037,0.352-0.109,0.491-0.216c0.142-0.106,0.285-0.265,0.436-0.478s0.335-0.549,0.558-1.006
		L551.44,13.582L551.44,13.582L551.44,13.582z"/>
</g>
<g>
	<path fill="#010101" d="M543.686,22.172c-0.035,0.043-0.079,0.064-0.126,0.064c-0.085,0-0.14-0.015-0.161-0.042
		c-0.684-0.627-1.269-1.344-1.755-2.147c-0.486-0.806-0.885-1.667-1.196-2.586c-0.313-0.92-0.544-1.879-0.692-2.885
		c-0.152-1.003-0.227-2.011-0.227-3.023c0-1.012,0.075-2.019,0.227-3.024c0.148-1.003,0.381-1.966,0.692-2.884
		c0.313-0.918,0.71-1.78,1.196-2.586c0.486-0.805,1.071-1.52,1.755-2.147c0.023-0.029,0.078-0.043,0.161-0.043
		c0.047,0,0.091,0.021,0.126,0.064c0.025,0.058,0.035,0.106,0.035,0.15c0,0.057-0.019,0.106-0.056,0.149
		c-0.574,0.641-1.062,1.361-1.457,2.157c-0.396,0.798-0.718,1.643-0.964,2.532c-0.245,0.891-0.419,1.813-0.521,2.768
		c-0.103,0.953-0.152,1.908-0.152,2.863c0,0.969,0.049,1.927,0.152,2.874c0.102,0.946,0.276,1.866,0.521,2.756
		c0.246,0.889,0.568,1.733,0.964,2.532c0.396,0.797,0.883,1.516,1.457,2.157c0.037,0.042,0.056,0.093,0.056,0.15
		C543.721,22.065,543.712,22.115,543.686,22.172z"/>
	<path fill="#010101" d="M560.975,14.577c-0.15,1.004-0.382,1.966-0.692,2.885c-0.313,0.918-0.712,1.78-1.197,2.586
		c-0.484,0.804-1.07,1.521-1.756,2.147c-0.048,0.029-0.085,0.043-0.105,0.043h-0.055c-0.05,0-0.092-0.021-0.127-0.064
		c-0.023-0.058-0.034-0.107-0.034-0.15c0-0.057,0.018-0.107,0.053-0.15c0.577-0.64,1.062-1.36,1.459-2.157
		c0.396-0.798,0.718-1.643,0.964-2.532c0.246-0.89,0.419-1.81,0.521-2.756c0.104-0.947,0.154-1.905,0.154-2.874
		c0-0.954-0.052-1.908-0.154-2.863c-0.104-0.955-0.275-1.877-0.521-2.768c-0.246-0.89-0.566-1.734-0.964-2.532
		c-0.397-0.796-0.882-1.517-1.459-2.156c-0.035-0.043-0.053-0.094-0.053-0.15c0-0.071,0.012-0.122,0.034-0.15
		c0.035-0.044,0.077-0.064,0.127-0.064h0.055c0.022,0,0.059,0.015,0.105,0.043c0.686,0.627,1.271,1.342,1.756,2.147
		c0.485,0.806,0.885,1.666,1.197,2.586c0.312,0.918,0.542,1.879,0.692,2.884c0.151,1.003,0.225,2.011,0.225,3.024
		C561.2,12.569,561.127,13.572,560.975,14.577z"/>
	<path fill="#010101" d="M571.628,12.948h-4.079v-1.362h4.079V12.948z"/>
	<path fill="#010101" d="M579.318,10.417h-0.846c-0.129-0.351-0.281-0.628-0.457-0.831s-0.375-0.344-0.598-0.426
		c-0.222-0.083-0.495-0.123-0.817-0.123c-0.469,0-0.843,0.11-1.12,0.331c-0.277,0.22-0.418,0.52-0.418,0.901
		c0,0.27,0.056,0.491,0.167,0.667c0.111,0.176,0.284,0.341,0.519,0.492c0.236,0.151,0.648,0.354,1.239,0.606
		c0.599,0.258,1.061,0.495,1.384,0.712c0.327,0.218,0.582,0.47,0.768,0.756c0.185,0.287,0.275,0.63,0.275,1.029
		c0,0.464-0.078,0.852-0.235,1.168c-0.157,0.316-0.381,0.575-0.667,0.774c-0.287,0.2-0.628,0.344-1.025,0.431
		c-0.396,0.087-0.827,0.132-1.296,0.132c-0.491,0-0.969-0.036-1.432-0.109c-0.466-0.074-0.914-0.168-1.354-0.285v-1.839h0.861
		c0.156,0.539,0.393,0.931,0.703,1.173c0.311,0.243,0.737,0.365,1.28,0.365c0.214,0,0.418-0.023,0.62-0.066
		c0.204-0.044,0.384-0.117,0.54-0.219c0.157-0.103,0.285-0.242,0.379-0.418c0.096-0.175,0.142-0.396,0.142-0.658
		c0-0.298-0.06-0.541-0.176-0.729s-0.299-0.358-0.545-0.515c-0.245-0.156-0.68-0.364-1.301-0.628
		c-0.533-0.223-0.961-0.44-1.283-0.651c-0.32-0.212-0.574-0.461-0.761-0.747c-0.184-0.286-0.276-0.627-0.276-1.021
		c0-0.479,0.131-0.898,0.393-1.252c0.26-0.354,0.637-0.626,1.129-0.813s1.069-0.282,1.731-0.282c0.387,0,0.761,0.02,1.12,0.057
		c0.36,0.037,0.813,0.112,1.357,0.224V10.417L579.318,10.417z"/>
	<path fill="#010101" d="M581.162,16.464c0.229-0.07,0.392-0.132,0.488-0.185c0.095-0.053,0.178-0.126,0.246-0.219
		c0.066-0.093,0.119-0.237,0.156-0.431c0.038-0.193,0.057-0.495,0.057-0.906V10.89c0-0.375-0.006-0.676-0.018-0.905
		c-0.013-0.23-0.054-0.412-0.123-0.55c-0.07-0.138-0.178-0.24-0.32-0.308s-0.348-0.124-0.611-0.17V8.493l2.049-0.08h0.534v6.284
		c0,0.504,0.024,0.854,0.071,1.05c0.046,0.196,0.137,0.345,0.269,0.448c0.133,0.104,0.347,0.192,0.646,0.269v0.431h-3.445
		L581.162,16.464L581.162,16.464z M585.093,4.221V4.66l-2.785,2.831l-0.572-0.458l1.82-2.813h1.537V4.221z"/>
	<path fill="#010101" d="M588.512,12h0.281c0.192,0,0.352-0.021,0.475-0.062c0.146-0.053,0.307-0.142,0.481-0.268
		c0.176-0.127,0.425-0.339,0.746-0.638c0.271-0.252,0.474-0.466,0.611-0.642c0.137-0.175,0.232-0.337,0.285-0.483
		c0.047-0.123,0.07-0.246,0.07-0.369c0-0.175-0.056-0.313-0.162-0.413c-0.107-0.099-0.285-0.166-0.531-0.202v-0.43h3.787v0.431
		c-0.271,0.052-0.557,0.172-0.859,0.36c-0.305,0.188-0.619,0.434-0.94,0.738l-2.022,1.916l2.532,3.305
		c0.292,0.387,0.559,0.671,0.795,0.856s0.496,0.306,0.779,0.365v0.431h-3.375v-0.431c0.151-0.019,0.265-0.051,0.338-0.101
		c0.073-0.05,0.108-0.134,0.108-0.25c0-0.089-0.016-0.175-0.048-0.26c-0.029-0.085-0.097-0.201-0.197-0.346
		c-0.101-0.146-0.281-0.402-0.546-0.765l-1.044-1.407c-0.198-0.265-0.343-0.437-0.427-0.52c-0.083-0.083-0.174-0.141-0.268-0.176
		c-0.097-0.034-0.221-0.052-0.378-0.052h-0.492v2.108c0,0.504,0.022,0.854,0.07,1.051c0.047,0.197,0.136,0.345,0.269,0.448
		c0.131,0.104,0.347,0.191,0.646,0.269v0.431h-3.487v-0.431c0.291-0.077,0.496-0.156,0.608-0.237
		c0.113-0.081,0.197-0.18,0.246-0.294c0.049-0.114,0.086-0.27,0.105-0.466c0.019-0.196,0.03-0.454,0.03-0.77V7.341
		c0-0.563-0.006-0.956-0.014-1.178c-0.01-0.222-0.03-0.411-0.069-0.567c-0.039-0.156-0.093-0.277-0.157-0.365
		c-0.065-0.086-0.158-0.158-0.274-0.211c-0.115-0.054-0.319-0.105-0.619-0.158V4.406l2.118-0.088h0.528L588.512,12L588.512,12z"/>
</g>
<g>
	<path fill="#010101" d="M294.665,20.744c-0.073,0.071-0.157,0.107-0.252,0.107h-11.231c-0.096,0-0.181-0.036-0.252-0.107
		c-0.072-0.072-0.108-0.156-0.108-0.252c0-0.096,0.037-0.181,0.108-0.252c0.071-0.073,0.156-0.108,0.252-0.108h11.231
		c0.094,0,0.179,0.036,0.252,0.108c0.072,0.071,0.107,0.156,0.107,0.252C294.772,20.588,294.737,20.672,294.665,20.744z
		 M294.665,24.236c-0.073,0.071-0.157,0.107-0.252,0.107h-11.231c-0.096,0-0.181-0.036-0.252-0.107
		c-0.072-0.073-0.108-0.157-0.108-0.252c0-0.097,0.037-0.181,0.108-0.253s0.156-0.107,0.252-0.107h11.231
		c0.094,0,0.179,0.036,0.252,0.107c0.072,0.072,0.107,0.156,0.107,0.253C294.772,24.079,294.737,24.164,294.665,24.236z"/>
	<path fill="#010101" d="M345.623,22.49c-0.073,0.071-0.155,0.107-0.252,0.107h-5.256v5.274c0,0.096-0.035,0.18-0.108,0.252
		c-0.071,0.071-0.154,0.107-0.252,0.107c-0.096,0-0.181-0.036-0.253-0.107c-0.07-0.072-0.105-0.156-0.105-0.252v-5.274h-5.257
		c-0.097,0-0.181-0.036-0.252-0.107c-0.072-0.073-0.107-0.156-0.107-0.252c0-0.097,0.035-0.181,0.107-0.252
		c0.071-0.073,0.155-0.108,0.252-0.108h5.257v-5.274c0-0.096,0.035-0.18,0.105-0.252c0.072-0.072,0.157-0.107,0.253-0.107
		s0.181,0.036,0.252,0.107c0.073,0.072,0.108,0.156,0.108,0.252v5.274h5.256c0.096,0,0.179,0.036,0.252,0.108
		c0.071,0.071,0.106,0.155,0.106,0.252C345.729,22.334,345.694,22.417,345.623,22.49z"/>
</g>
<g>
	<path fill="#010101" d="M326.273,17.824c0.164,0,0.299-0.01,0.401-0.031c0.101-0.019,0.183-0.054,0.245-0.101
		c0.06-0.047,0.106-0.109,0.143-0.186c0.037-0.076,0.082-0.193,0.135-0.353h0.434l-0.087,1.483h-4.183v-0.244
		c0.146-0.356,0.344-0.72,0.59-1.094c0.248-0.372,0.599-0.812,1.054-1.315c0.394-0.434,0.675-0.762,0.848-0.985
		c0.19-0.245,0.331-0.455,0.425-0.633c0.093-0.179,0.158-0.345,0.2-0.503c0.043-0.157,0.061-0.314,0.061-0.475
		c0-0.253-0.038-0.478-0.12-0.673c-0.081-0.195-0.205-0.348-0.374-0.459c-0.167-0.112-0.378-0.168-0.634-0.168
		c-0.633,0-1.06,0.353-1.281,1.058h-0.613V12.17c0.408-0.194,0.793-0.333,1.15-0.421c0.358-0.087,0.68-0.129,0.965-0.129
		c0.63,0,1.104,0.138,1.427,0.414c0.322,0.276,0.482,0.677,0.482,1.202c0,0.179-0.018,0.345-0.055,0.496
		c-0.035,0.151-0.09,0.3-0.166,0.447s-0.178,0.306-0.309,0.475c-0.129,0.169-0.271,0.342-0.424,0.516
		c-0.157,0.174-0.428,0.465-0.81,0.871c-0.645,0.681-1.117,1.275-1.418,1.783H326.273L326.273,17.824L326.273,17.824z"/>
</g>
<g>
	<path fill="#010101" d="M354.473,24.442c0,0.341,0.02,0.596,0.058,0.77c0.036,0.173,0.104,0.313,0.202,0.421
		c0.098,0.108,0.236,0.193,0.418,0.255c0.183,0.062,0.408,0.108,0.687,0.141c0.274,0.033,0.639,0.054,1.09,0.066v0.643h-6.496
		v-0.643c0.652-0.03,1.115-0.069,1.394-0.119c0.28-0.049,0.491-0.125,0.64-0.223c0.146-0.099,0.253-0.24,0.32-0.421
		c0.066-0.182,0.101-0.478,0.101-0.888v-7.128c0-0.234-0.04-0.407-0.123-0.515c-0.082-0.108-0.203-0.162-0.359-0.162
		c-0.188,0-0.455,0.097-0.8,0.29c-0.346,0.193-0.774,0.46-1.283,0.799l-0.387-0.676l4.113-2.453h0.482
		c-0.035,0.563-0.053,1.343-0.053,2.339v7.504H354.473z"/>
</g>
<g>
	<path fill="#010101" d="M172.38,10.204l-0.534,2.47h-6.363l-0.167-0.431l4.808-5.536c0.681-0.78,1.178-1.334,1.494-1.66
		l-0.053-0.062h-2.058c-0.305,0-0.526,0.021-0.667,0.062c-0.141,0.04-0.282,0.112-0.422,0.215c-0.139,0.104-0.292,0.255-0.453,0.458
		c-0.163,0.203-0.343,0.491-0.541,0.866h-0.78l0.519-2.312h6.249l0.167,0.439l-6.311,7.189l0.051,0.062h1.986
		c0.352,0,0.62-0.02,0.809-0.057c0.188-0.037,0.352-0.109,0.492-0.216c0.14-0.107,0.286-0.266,0.435-0.479
		c0.149-0.213,0.335-0.549,0.559-1.006h0.778v-0.002H172.38z"/>
	<path fill="#010101" d="M178.497,8.727h-4.078V7.365h4.078V8.727z"/>
	<path fill="#010101" d="M186.188,6.196h-0.844c-0.13-0.351-0.283-0.628-0.458-0.83c-0.175-0.203-0.375-0.344-0.597-0.427
		c-0.223-0.083-0.495-0.123-0.816-0.123c-0.471,0-0.845,0.11-1.121,0.331c-0.278,0.22-0.417,0.52-0.417,0.902
		c0,0.27,0.056,0.491,0.167,0.667c0.11,0.175,0.283,0.341,0.519,0.492c0.236,0.151,0.649,0.354,1.239,0.605
		c0.598,0.258,1.059,0.495,1.384,0.713c0.325,0.218,0.58,0.47,0.765,0.756c0.186,0.286,0.278,0.63,0.278,1.029
		c0,0.463-0.079,0.852-0.237,1.168c-0.157,0.317-0.381,0.575-0.668,0.774c-0.285,0.199-0.628,0.343-1.023,0.431
		c-0.396,0.087-0.828,0.132-1.296,0.132c-0.492,0-0.968-0.036-1.434-0.109c-0.463-0.074-0.913-0.168-1.352-0.285v-1.839h0.86
		c0.157,0.538,0.394,0.93,0.704,1.173c0.312,0.243,0.737,0.364,1.282,0.364c0.212,0,0.417-0.022,0.62-0.065
		c0.202-0.044,0.382-0.117,0.541-0.219c0.157-0.102,0.283-0.242,0.378-0.417c0.094-0.175,0.142-0.396,0.142-0.658
		c0-0.298-0.06-0.542-0.177-0.729c-0.116-0.188-0.299-0.358-0.543-0.515c-0.246-0.155-0.68-0.364-1.301-0.628
		c-0.533-0.222-0.962-0.439-1.283-0.65c-0.32-0.212-0.576-0.461-0.76-0.747c-0.185-0.287-0.277-0.627-0.277-1.021
		c0-0.479,0.131-0.898,0.392-1.252c0.261-0.354,0.637-0.625,1.129-0.813c0.492-0.188,1.069-0.282,1.73-0.282
		c0.388,0,0.761,0.02,1.121,0.058c0.359,0.037,0.813,0.112,1.356,0.223v1.793h-0.004V6.196z"/>
	<path fill="#010101" d="M188.033,12.243c0.228-0.07,0.391-0.132,0.488-0.185c0.095-0.053,0.177-0.126,0.246-0.219
		c0.066-0.093,0.119-0.237,0.156-0.431c0.038-0.194,0.058-0.495,0.058-0.906V6.671c0-0.375-0.006-0.677-0.019-0.906
		s-0.053-0.411-0.123-0.549c-0.069-0.139-0.177-0.24-0.32-0.308c-0.146-0.067-0.348-0.125-0.611-0.171V4.272l2.048-0.08h0.535v6.284
		c0,0.504,0.025,0.853,0.07,1.05c0.047,0.196,0.136,0.345,0.27,0.448c0.132,0.104,0.347,0.192,0.646,0.269v0.431h-3.445
		L188.033,12.243L188.033,12.243z M191.963,0v0.439l-2.785,2.831l-0.571-0.458L190.424,0H191.963z"/>
	<path fill="#010101" d="M195.381,7.779h0.283c0.193,0,0.351-0.021,0.474-0.062c0.147-0.053,0.308-0.143,0.482-0.269
		s0.425-0.339,0.747-0.638c0.271-0.252,0.473-0.466,0.611-0.642c0.138-0.175,0.232-0.337,0.284-0.483
		c0.047-0.123,0.071-0.246,0.071-0.369c0-0.176-0.054-0.313-0.163-0.412c-0.108-0.099-0.285-0.166-0.531-0.203v-0.43h3.788v0.43
		c-0.271,0.053-0.558,0.173-0.861,0.36s-0.618,0.434-0.94,0.738l-2.021,1.916l2.531,3.305c0.293,0.387,0.558,0.671,0.795,0.856
		c0.236,0.185,0.497,0.307,0.778,0.365v0.431h-3.375v-0.43c0.152-0.018,0.266-0.051,0.338-0.101c0.073-0.049,0.11-0.134,0.11-0.251
		c0-0.088-0.018-0.173-0.048-0.259c-0.032-0.085-0.098-0.201-0.198-0.347s-0.283-0.402-0.545-0.765l-1.046-1.407
		c-0.199-0.264-0.341-0.437-0.425-0.519c-0.085-0.083-0.174-0.141-0.271-0.176c-0.094-0.035-0.218-0.052-0.378-0.052h-0.492v2.109
		c0,0.504,0.025,0.853,0.07,1.05c0.047,0.196,0.138,0.345,0.271,0.448c0.132,0.103,0.346,0.192,0.646,0.269v0.431h-3.489v-0.431
		c0.293-0.077,0.497-0.156,0.611-0.237c0.114-0.08,0.196-0.18,0.246-0.293c0.05-0.114,0.085-0.27,0.104-0.466
		c0.02-0.196,0.031-0.454,0.031-0.77V3.12c0-0.563-0.004-0.956-0.013-1.178s-0.032-0.411-0.07-0.566
		c-0.04-0.156-0.092-0.278-0.158-0.365c-0.065-0.086-0.156-0.157-0.271-0.211c-0.115-0.054-0.321-0.105-0.62-0.158V0.185
		l2.118-0.088h0.526V7.78h-0.002V7.779z"/>
</g>
<g>
	<line fill="none" stroke="#010101" stroke-width="0.5" x1="394.875" y1="49.8" x2="590.625" y2="49.8"/>
	<polygon fill="#010101" points="589.436,51.521 595.942,49.779 589.436,48.035 	"/>
</g>
<g>
	<line fill="none" stroke="#010101" stroke-width="0.5" x1="394.875" y1="39.675" x2="590.625" y2="39.675"/>
	<polygon fill="#010101" points="589.436,41.396 595.942,39.654 589.436,37.91 	"/>
</g>
<g>
	<line fill="none" stroke="#010101" stroke-width="0.5" x1="394.875" y1="29.55" x2="590.625" y2="29.55"/>
	<polygon fill="#010101" points="589.436,31.271 595.942,29.529 589.436,27.785 	"/>
</g>
<g>
	<path d="M117.483,39.231c0,0.34,0.019,0.597,0.057,0.77s0.105,0.313,0.202,0.422s0.236,0.193,0.417,0.254
		c0.182,0.063,0.41,0.109,0.686,0.141c0.275,0.033,0.639,0.055,1.09,0.066v0.642h-6.495v-0.642c0.65-0.029,1.115-0.068,1.393-0.119
		c0.278-0.049,0.491-0.124,0.637-0.224s0.253-0.24,0.321-0.422s0.101-0.478,0.101-0.888v-7.128c0-0.234-0.041-0.406-0.123-0.514
		c-0.082-0.109-0.202-0.163-0.36-0.163c-0.188,0-0.454,0.097-0.8,0.29s-0.773,0.46-1.283,0.8l-0.387-0.677l4.113-2.452h0.483
		c-0.035,0.563-0.053,1.342-0.053,2.338V39.231z"/>
</g>
</svg>
