<?xml version="1.0" encoding="utf-8"?>
<!-- Generator: Adobe Illustrator 15.1.0, SVG Export Plug-In . SVG Version: 6.00 Build 0)  -->
<!DOCTYPE svg PUBLIC "-//W3C//DTD SVG 1.1//EN" "http://www.w3.org/Graphics/SVG/1.1/DTD/svg11.dtd">
<svg version="1.1" id="Layer_1" xmlns="http://www.w3.org/2000/svg" xmlns:xlink="http://www.w3.org/1999/xlink" x="0px" y="0px"
	 width="120.598px" height="67.114px" viewBox="0 0 120.598 67.114" enable-background="new 0 0 120.598 67.114"
	 xml:space="preserve">
<g>
	<g>
		<line fill="none" stroke="#000000" stroke-width="0.5" stroke-miterlimit="10" x1="19.492" y1="67.114" x2="19.492" y2="4.175"/>
		<g>
			<path d="M19.492,5.073L17.69,6.168l-0.041-0.062l1.167-2.938c0.225-1.023,0.45-2.047,0.675-3.07
				c0.225,1.023,0.45,2.047,0.675,3.07l1.167,2.938l-0.031,0.062L19.492,5.073z"/>
		</g>
	</g>
</g>
<g>
	<g>
		<line fill="none" stroke="#000000" stroke-width="0.5" stroke-miterlimit="10" x1="0" y1="27.902" x2="116.521" y2="27.902"/>
		<g>
			<path d="M115.624,27.902l-1.096-1.802l0.062-0.041l2.938,1.167c1.023,0.226,2.047,0.45,3.07,0.676
				c-1.023,0.225-2.047,0.45-3.07,0.676l-2.938,1.167l-0.062-0.031L115.624,27.902z"/>
		</g>
	</g>
</g>
<g>
	<g>
		<path fill="#010101" d="M35.022,12.908c-0.02,0.023-0.043,0.036-0.07,0.036c-0.046,0-0.076-0.009-0.089-0.024
			c-0.378-0.348-0.702-0.746-0.97-1.192c-0.269-0.447-0.489-0.926-0.661-1.437c-0.173-0.511-0.3-1.044-0.383-1.603
			c-0.083-0.558-0.124-1.117-0.124-1.679c0-0.562,0.041-1.122,0.124-1.68c0.083-0.558,0.21-1.092,0.383-1.602
			c0.172-0.51,0.393-0.989,0.661-1.436c0.269-0.447,0.592-0.845,0.97-1.193c0.013-0.016,0.043-0.024,0.089-0.024
			c0.026,0,0.05,0.012,0.07,0.036c0.013,0.032,0.02,0.059,0.02,0.083c0,0.032-0.01,0.06-0.03,0.083
			c-0.318,0.356-0.587,0.756-0.806,1.199c-0.219,0.443-0.396,0.912-0.532,1.407s-0.232,1.007-0.289,1.537
			c-0.056,0.53-0.084,1.06-0.084,1.59c0,0.538,0.028,1.07,0.084,1.596c0.057,0.526,0.153,1.037,0.289,1.531s0.313,0.963,0.532,1.406
			s0.487,0.843,0.806,1.199c0.02,0.023,0.03,0.051,0.03,0.083C35.042,12.848,35.036,12.876,35.022,12.908z"/>
	</g>
	<g>
		<path fill="#010101" d="M44.305,8.688c-0.083,0.559-0.211,1.092-0.384,1.603c-0.172,0.511-0.393,0.989-0.661,1.437
			c-0.269,0.446-0.592,0.845-0.97,1.192c-0.026,0.016-0.047,0.024-0.06,0.024h-0.03c-0.026,0-0.05-0.013-0.069-0.036
			c-0.014-0.031-0.021-0.06-0.021-0.083c0-0.032,0.011-0.06,0.03-0.083c0.318-0.356,0.587-0.756,0.806-1.199
			s0.396-0.912,0.532-1.406s0.232-1.005,0.288-1.531c0.057-0.526,0.085-1.058,0.085-1.596c0-0.53-0.028-1.06-0.085-1.59
			c-0.056-0.53-0.152-1.042-0.288-1.537s-0.313-0.963-0.532-1.407c-0.219-0.443-0.487-0.843-0.806-1.199
			c-0.02-0.023-0.03-0.051-0.03-0.083c0-0.04,0.007-0.067,0.021-0.083c0.02-0.024,0.043-0.036,0.069-0.036h0.03
			c0.013,0,0.033,0.008,0.06,0.024c0.378,0.348,0.701,0.746,0.97,1.193c0.269,0.447,0.489,0.926,0.661,1.436
			c0.173,0.51,0.301,1.044,0.384,1.602c0.082,0.558,0.124,1.118,0.124,1.68C44.429,7.571,44.387,8.13,44.305,8.688z"/>
	</g>
	<g>
		<path fill="#010101" d="M27.136,2.826l-0.079,0.239c-0.158,0.026-0.283,0.059-0.375,0.097c-0.091,0.039-0.167,0.095-0.23,0.166
			c-0.063,0.071-0.114,0.167-0.155,0.288c-0.037,0.11-0.064,0.23-0.081,0.358c-0.018,0.129-0.027,0.272-0.032,0.432L26,8.389
			l2.736-4.011c0.04-0.062,0.081-0.127,0.124-0.196c0.042-0.068,0.082-0.135,0.119-0.2c0.036-0.065,0.065-0.123,0.086-0.171
			c0.021-0.049,0.038-0.094,0.052-0.137c0.065-0.196,0.068-0.337,0.008-0.427c-0.06-0.089-0.191-0.15-0.395-0.183l0.079-0.239h2.049
			l-0.079,0.239c-0.144,0.033-0.267,0.08-0.37,0.141c-0.102,0.062-0.215,0.161-0.34,0.298c-0.126,0.136-0.295,0.354-0.508,0.654
			l-3.827,5.407h-0.639l0.168-5.441c0.011-0.296,0.005-0.507-0.019-0.632c-0.022-0.126-0.063-0.22-0.119-0.284
			c-0.058-0.063-0.149-0.111-0.274-0.144l0.079-0.239H27.136z"/>
		<path fill="#010101" d="M38.664,5.632l0.063,0.014c0.252-0.218,0.476-0.389,0.669-0.514c0.195-0.126,0.393-0.222,0.593-0.291
			c0.2-0.069,0.412-0.102,0.637-0.102c0.188,0,0.355,0.009,0.502,0.029l-0.373,1.123h-0.553c-0.02-0.176-0.06-0.304-0.121-0.383
			c-0.061-0.08-0.168-0.12-0.32-0.12c-0.117,0-0.244,0.034-0.383,0.103c-0.139,0.067-0.283,0.167-0.434,0.297
			c-0.151,0.13-0.266,0.252-0.344,0.366c-0.079,0.114-0.145,0.25-0.195,0.405l-0.57,1.708c-0.099,0.297-0.148,0.5-0.15,0.612
			s0.03,0.194,0.096,0.247c0.066,0.052,0.177,0.092,0.333,0.122l-0.08,0.239h-1.966l0.08-0.239c0.136-0.039,0.236-0.073,0.3-0.104
			c0.063-0.028,0.122-0.069,0.179-0.121c0.057-0.053,0.113-0.132,0.168-0.24c0.055-0.106,0.121-0.273,0.197-0.502l0.709-2.128
			c0.069-0.208,0.122-0.375,0.157-0.502s0.047-0.229,0.033-0.306c-0.014-0.076-0.054-0.134-0.12-0.171
			c-0.068-0.037-0.17-0.069-0.308-0.095l0.085-0.254l1.157-0.048h0.298L38.664,5.632z"/>
	</g>
</g>
<g>
	<g>
		<path fill="#010101" d="M108.123,21.383l0.063,0.014c0.252-0.218,0.476-0.389,0.669-0.514c0.195-0.126,0.393-0.222,0.593-0.291
			c0.2-0.069,0.412-0.102,0.637-0.102c0.188,0,0.355,0.009,0.502,0.029l-0.373,1.123h-0.553c-0.02-0.176-0.06-0.304-0.121-0.383
			c-0.061-0.08-0.168-0.12-0.32-0.12c-0.117,0-0.244,0.034-0.383,0.103c-0.139,0.067-0.283,0.167-0.434,0.297
			c-0.151,0.13-0.265,0.252-0.344,0.366c-0.079,0.114-0.144,0.25-0.196,0.405l-0.569,1.708c-0.099,0.297-0.149,0.5-0.151,0.612
			c-0.001,0.112,0.031,0.194,0.097,0.247c0.066,0.052,0.176,0.092,0.333,0.122l-0.08,0.239h-1.966l0.08-0.239
			c0.136-0.039,0.236-0.073,0.3-0.104c0.063-0.028,0.123-0.069,0.179-0.121c0.057-0.053,0.113-0.132,0.168-0.24
			c0.055-0.106,0.121-0.273,0.197-0.502l0.709-2.128c0.069-0.208,0.122-0.375,0.157-0.502s0.047-0.229,0.033-0.306
			c-0.014-0.076-0.054-0.134-0.121-0.171c-0.068-0.037-0.169-0.069-0.307-0.095l0.085-0.254l1.157-0.048h0.298L108.123,21.383z"/>
	</g>
</g>
<g>
	<g>
		<path fill="#010101" d="M16.326,62.662c-0.406,0-0.709-0.159-0.907-0.479c-0.198-0.319-0.297-0.805-0.297-1.456
			c0-0.346,0.03-0.645,0.091-0.897c0.062-0.252,0.147-0.46,0.257-0.624c0.11-0.165,0.242-0.287,0.396-0.366s0.322-0.118,0.505-0.118
			c0.412,0,0.719,0.159,0.92,0.477c0.201,0.318,0.302,0.799,0.302,1.442c0,0.666-0.107,1.169-0.323,1.511
			C17.054,62.491,16.74,62.662,16.326,62.662z M15.671,60.643c0,0.613,0.057,1.063,0.171,1.35c0.113,0.287,0.29,0.431,0.528,0.431
			c0.228,0,0.396-0.136,0.507-0.405c0.109-0.27,0.165-0.688,0.165-1.254c0-0.433-0.028-0.783-0.085-1.051
			c-0.057-0.269-0.135-0.461-0.235-0.577c-0.101-0.117-0.223-0.175-0.365-0.175c-0.13,0-0.238,0.038-0.326,0.115
			c-0.087,0.077-0.158,0.188-0.212,0.333c-0.053,0.145-0.091,0.321-0.114,0.529C15.682,60.146,15.671,60.381,15.671,60.643z"/>
	</g>
	<g>
		<path fill="#010101" d="M12.784,53.358l-0.079,0.239c-0.158,0.026-0.283,0.059-0.375,0.097c-0.091,0.039-0.167,0.095-0.229,0.166
			c-0.063,0.071-0.114,0.167-0.155,0.288c-0.036,0.11-0.063,0.23-0.08,0.358c-0.018,0.129-0.027,0.272-0.032,0.432l-0.185,3.982
			l2.736-4.011c0.04-0.062,0.081-0.127,0.123-0.196c0.043-0.068,0.082-0.135,0.119-0.2c0.036-0.065,0.064-0.123,0.086-0.171
			c0.021-0.049,0.038-0.094,0.053-0.137c0.064-0.196,0.067-0.337,0.008-0.427c-0.06-0.089-0.191-0.15-0.395-0.183l0.079-0.239h2.049
			l-0.079,0.239c-0.145,0.033-0.268,0.08-0.369,0.141c-0.102,0.062-0.215,0.161-0.341,0.298c-0.126,0.136-0.295,0.354-0.509,0.654
			l-3.826,5.407h-0.639l0.168-5.441c0.011-0.296,0.005-0.507-0.019-0.632c-0.022-0.126-0.063-0.22-0.119-0.284
			c-0.058-0.063-0.149-0.111-0.274-0.144l0.079-0.239H12.784z"/>
	</g>
	<g>
		<path fill="#010101" d="M9.776,57.68c-0.04,0.04-0.086,0.06-0.14,0.06H3.951c-0.054,0-0.1-0.02-0.14-0.06s-0.06-0.086-0.06-0.14
			c0-0.054,0.02-0.1,0.06-0.14s0.086-0.06,0.14-0.06h5.686c0.053,0,0.1,0.02,0.14,0.06s0.06,0.086,0.06,0.14
			C9.836,57.594,9.816,57.64,9.776,57.68z"/>
	</g>
</g>
<line fill="none" stroke="#000000" stroke-linecap="round" stroke-linejoin="round" stroke-miterlimit="10" x1="19.492" y1="55.114" x2="75.098" y2="55.114"/>
<line fill="none" stroke="#000000" stroke-linecap="round" stroke-miterlimit="10" x1="75.098" y1="55.114" x2="75.098" y2="27.902"/>
<line fill="none" stroke="#000000" stroke-linecap="round" stroke-miterlimit="10" x1="75.098" y1="27.902" x2="115.348" y2="27.902"/>
</svg>
