<?xml version="1.0" encoding="utf-8"?>
<!-- Generator: Adobe Illustrator 15.1.0, SVG Export Plug-In . SVG Version: 6.00 Build 0)  -->
<!DOCTYPE svg PUBLIC "-//W3C//DTD SVG 1.1//EN" "http://www.w3.org/Graphics/SVG/1.1/DTD/svg11.dtd">
<svg version="1.1" id="Layer_1" xmlns="http://www.w3.org/2000/svg" xmlns:xlink="http://www.w3.org/1999/xlink" x="0px" y="0px"
	 width="628.945px" height="54.343px" viewBox="0 0 628.945 54.343" enable-background="new 0 0 628.945 54.343"
	 xml:space="preserve">
<g>
	<g>
		<g>
			
				<line fill="none" stroke="#000000" stroke-width="0.5" stroke-miterlimit="10" x1="42.281" y1="38.978" x2="21.141" y2="38.978"/>
			<g>
				<path d="M22.038,38.978l1.096,1.802l-0.062,0.041l-2.938-1.167c-1.023-0.226-2.047-0.45-3.07-0.676
					c1.023-0.225,2.047-0.45,3.07-0.676l2.938-1.167l0.062,0.031L22.038,38.978z"/>
			</g>
		</g>
	</g>
	<line fill="none" stroke="#000000" stroke-width="0.5" stroke-miterlimit="10" x1="21.141" y1="38.978" x2="0" y2="38.978"/>
</g>
<g>
	<g>
		<g>
			
				<line fill="none" stroke="#000000" stroke-width="0.5" stroke-miterlimit="10" x1="84.563" y1="38.977" x2="63.422" y2="38.977"/>
			<g>
				<path d="M64.319,38.977l1.096,1.802l-0.062,0.041l-2.938-1.167c-1.023-0.226-2.047-0.45-3.07-0.676
					c1.023-0.225,2.047-0.45,3.07-0.676l2.938-1.167l0.062,0.031L64.319,38.977z"/>
			</g>
		</g>
	</g>
	<line fill="none" stroke="#000000" stroke-width="0.5" stroke-miterlimit="10" x1="63.422" y1="38.977" x2="42.281" y2="38.977"/>
</g>
<line fill="none" stroke="#000000" stroke-width="0.5" stroke-miterlimit="10" stroke-dasharray="2,1" x1="42.281" y1="38.977" x2="42.281" y2="3.088"/>
<circle fill="#FFFFFF" stroke="#000000" stroke-width="0.5" stroke-miterlimit="10" cx="45.117" cy="3.088" r="2.836"/>
<circle fill="#FFFFFF" stroke="#000000" stroke-width="0.5" stroke-miterlimit="10" cx="39.444" cy="3.088" r="2.836"/>
<g>
	<g>
		<path fill="#010101" d="M99.714,22.423c-0.04,0.04-0.087,0.06-0.141,0.06h-2.917v2.929c0,0.053-0.021,0.1-0.061,0.14
			c-0.039,0.04-0.086,0.061-0.14,0.061s-0.101-0.021-0.14-0.061c-0.04-0.04-0.061-0.087-0.061-0.14v-2.929h-2.918
			c-0.053,0-0.1-0.02-0.139-0.06c-0.041-0.04-0.061-0.086-0.061-0.14c0-0.054,0.02-0.1,0.061-0.14c0.039-0.04,0.086-0.06,0.139-0.06
			h2.918v-2.929c0-0.053,0.021-0.1,0.061-0.14c0.039-0.04,0.086-0.06,0.14-0.06s0.101,0.02,0.14,0.06
			c0.04,0.04,0.061,0.086,0.061,0.14v2.929h2.917c0.054,0,0.101,0.02,0.141,0.06c0.039,0.04,0.06,0.086,0.06,0.14
			C99.773,22.337,99.753,22.383,99.714,22.423z"/>
	</g>
</g>
<g>
	<g>
		<g>
			
				<line fill="none" stroke="#000000" stroke-width="0.5" stroke-miterlimit="10" x1="149.361" y1="40.271" x2="128.221" y2="40.271"/>
			<g>
				<path d="M129.118,40.271l1.096,1.802l-0.062,0.04l-2.938-1.166c-1.023-0.226-2.047-0.45-3.07-0.676
					c1.023-0.225,2.047-0.45,3.07-0.676l2.938-1.166l0.062,0.03L129.118,40.271z"/>
			</g>
		</g>
	</g>
	<line fill="none" stroke="#000000" stroke-width="0.5" stroke-miterlimit="10" x1="128.221" y1="40.271" x2="107.08" y2="40.271"/>
</g>
<g>
	<g>
		<g>
			
				<line fill="none" stroke="#000000" stroke-width="0.5" stroke-miterlimit="10" x1="191.643" y1="40.27" x2="170.502" y2="40.27"/>
			<g>
				<path d="M171.399,40.27l1.096,1.802l-0.062,0.041l-2.938-1.167c-1.023-0.226-2.047-0.45-3.07-0.676
					c1.023-0.226,2.047-0.45,3.07-0.676l2.938-1.167l0.062,0.031L171.399,40.27z"/>
			</g>
		</g>
	</g>
	<line fill="none" stroke="#000000" stroke-width="0.5" stroke-miterlimit="10" x1="170.502" y1="40.27" x2="149.361" y2="40.27"/>
</g>
<line fill="none" stroke="#000000" stroke-width="0.5" stroke-miterlimit="10" stroke-dasharray="2,1" x1="149.361" y1="40.27" x2="149.361" y2="4.381"/>
<circle fill="#FFFFFF" stroke="#000000" stroke-width="0.5" stroke-miterlimit="10" cx="194.479" cy="4.381" r="2.836"/>
<circle fill="#FFFFFF" stroke="#000000" stroke-width="0.5" stroke-miterlimit="10" cx="146.524" cy="4.381" r="2.836"/>
<g>
	<g>
		<g>
			
				<line fill="none" stroke="#000000" stroke-width="0.5" stroke-miterlimit="10" x1="233.924" y1="40.271" x2="212.783" y2="40.271"/>
			<g>
				<path d="M213.681,40.271l1.096,1.801l-0.062,0.041l-2.938-1.166c-1.023-0.227-2.047-0.451-3.07-0.676
					c1.023-0.227,2.047-0.451,3.07-0.676l2.938-1.168l0.062,0.031L213.681,40.271z"/>
			</g>
		</g>
	</g>
	
		<line fill="none" stroke="#000000" stroke-width="0.5" stroke-miterlimit="10" x1="212.783" y1="40.271" x2="191.643" y2="40.271"/>
</g>
<line fill="none" stroke="#000000" stroke-width="0.5" stroke-miterlimit="10" stroke-dasharray="2,1" x1="191.643" y1="40.271" x2="191.643" y2="4.381"/>
<g>
	<g>
		<g>
			
				<line fill="none" stroke="#000000" stroke-width="0.5" stroke-miterlimit="10" x1="191.643" y1="4.381" x2="170.502" y2="4.381"/>
			<g>
				<path d="M171.399,4.381l1.096,1.801l-0.062,0.041l-2.938-1.166c-1.023-0.227-2.047-0.451-3.07-0.676
					c1.023-0.227,2.047-0.451,3.07-0.676l2.938-1.168l0.062,0.031L171.399,4.381z"/>
			</g>
		</g>
	</g>
	<line fill="none" stroke="#000000" stroke-width="0.5" stroke-miterlimit="10" x1="170.502" y1="4.381" x2="149.361" y2="4.381"/>
</g>
<g>
	<g>
		<path fill="#010101" d="M250.214,22.423c-0.04,0.04-0.087,0.06-0.141,0.06h-2.917v2.929c0,0.053-0.021,0.1-0.061,0.14
			c-0.039,0.04-0.086,0.061-0.14,0.061s-0.101-0.021-0.14-0.061c-0.04-0.04-0.061-0.087-0.061-0.14v-2.929h-2.918
			c-0.053,0-0.1-0.02-0.139-0.06c-0.041-0.04-0.061-0.086-0.061-0.14c0-0.054,0.02-0.1,0.061-0.14c0.039-0.04,0.086-0.06,0.139-0.06
			h2.918v-2.929c0-0.053,0.021-0.1,0.061-0.14c0.039-0.04,0.086-0.06,0.14-0.06s0.101,0.02,0.14,0.06
			c0.04,0.04,0.061,0.086,0.061,0.14v2.929h2.917c0.054,0,0.101,0.02,0.141,0.06c0.039,0.04,0.06,0.086,0.06,0.14
			C250.273,22.337,250.253,22.383,250.214,22.423z"/>
	</g>
</g>
<g>
	<g>
		<g>
			
				<line fill="none" stroke="#000000" stroke-width="0.5" stroke-miterlimit="10" x1="304.635" y1="40.271" x2="283.494" y2="40.271"/>
			<g>
				<path d="M284.392,40.271l1.096,1.802l-0.062,0.04l-2.938-1.166c-1.023-0.226-2.047-0.45-3.07-0.676
					c1.023-0.225,2.047-0.45,3.07-0.676l2.938-1.166l0.062,0.03L284.392,40.271z"/>
			</g>
		</g>
	</g>
	
		<line fill="none" stroke="#000000" stroke-width="0.5" stroke-miterlimit="10" x1="283.494" y1="40.271" x2="262.354" y2="40.271"/>
</g>
<g>
	<g>
		<g>
			
				<line fill="none" stroke="#000000" stroke-width="0.5" stroke-miterlimit="10" x1="346.916" y1="40.27" x2="325.775" y2="40.27"/>
			<g>
				<path d="M326.673,40.27l1.096,1.801l-0.062,0.041l-2.938-1.167c-1.023-0.225-2.047-0.45-3.07-0.675
					c1.023-0.225,2.047-0.45,3.07-0.675l2.938-1.167l0.062,0.031L326.673,40.27z"/>
			</g>
		</g>
	</g>
	<line fill="none" stroke="#000000" stroke-width="0.5" stroke-miterlimit="10" x1="325.775" y1="40.27" x2="304.635" y2="40.27"/>
</g>
<line fill="none" stroke="#000000" stroke-width="0.5" stroke-miterlimit="10" stroke-dasharray="2,1" x1="304.635" y1="40.27" x2="304.635" y2="4.381"/>
<circle fill="#FFFFFF" stroke="#000000" stroke-width="0.5" stroke-miterlimit="10" cx="392.033" cy="4.381" r="2.836"/>
<circle fill="#FFFFFF" stroke="#000000" stroke-width="0.5" stroke-miterlimit="10" cx="301.798" cy="4.381" r="2.836"/>
<g>
	<g>
		<g>
			
				<line fill="none" stroke="#000000" stroke-width="0.5" stroke-miterlimit="10" x1="431.479" y1="40.271" x2="410.338" y2="40.271"/>
			<g>
				<path d="M411.235,40.271l1.096,1.802l-0.062,0.041l-2.938-1.167c-1.023-0.226-2.047-0.45-3.07-0.676
					c1.023-0.225,2.047-0.45,3.07-0.676l2.938-1.167l0.062,0.031L411.235,40.271z"/>
			</g>
		</g>
	</g>
	
		<line fill="none" stroke="#000000" stroke-width="0.5" stroke-miterlimit="10" x1="410.338" y1="40.271" x2="389.197" y2="40.271"/>
</g>
<line fill="none" stroke="#000000" stroke-width="0.5" stroke-miterlimit="10" stroke-dasharray="2,1" x1="389.197" y1="40.271" x2="389.197" y2="4.381"/>
<g>
	<g>
		<g>
			
				<line fill="none" stroke="#000000" stroke-width="0.5" stroke-miterlimit="10" x1="389.197" y1="4.381" x2="368.057" y2="4.381"/>
			<g>
				<path d="M368.954,4.381l1.096,1.801l-0.062,0.041l-2.938-1.167c-1.023-0.225-2.047-0.45-3.07-0.675
					c1.023-0.225,2.047-0.45,3.07-0.675l2.938-1.167l0.062,0.031L368.954,4.381z"/>
			</g>
		</g>
	</g>
	<line fill="none" stroke="#000000" stroke-width="0.5" stroke-miterlimit="10" x1="368.057" y1="4.381" x2="346.916" y2="4.381"/>
</g>
<g>
	<g>
		<g>
			
				<line fill="none" stroke="#000000" stroke-width="0.5" stroke-miterlimit="10" x1="389.197" y1="40.271" x2="368.057" y2="40.271"/>
			<g>
				<path d="M368.954,40.271l1.096,1.801l-0.062,0.041l-2.938-1.167c-1.023-0.225-2.047-0.45-3.07-0.675
					c1.023-0.225,2.047-0.45,3.07-0.675l2.938-1.167l0.062,0.031L368.954,40.271z"/>
			</g>
		</g>
	</g>
	
		<line fill="none" stroke="#000000" stroke-width="0.5" stroke-miterlimit="10" x1="368.057" y1="40.271" x2="346.916" y2="40.271"/>
</g>
<line fill="none" stroke="#000000" stroke-width="0.5" stroke-miterlimit="10" stroke-dasharray="2,1" x1="346.916" y1="40.271" x2="346.916" y2="4.382"/>
<g>
	<g>
		<g>
			<line fill="none" stroke="#000000" stroke-width="0.5" stroke-miterlimit="10" x1="346.916" y1="4.38" x2="325.775" y2="4.38"/>
			<g>
				<path d="M326.673,4.38l1.096,1.801l-0.062,0.041l-2.938-1.167c-1.023-0.225-2.047-0.45-3.07-0.675
					c1.023-0.225,2.047-0.45,3.07-0.675l2.938-1.167l0.062,0.031L326.673,4.38z"/>
			</g>
		</g>
	</g>
	<line fill="none" stroke="#000000" stroke-width="0.5" stroke-miterlimit="10" x1="325.775" y1="4.38" x2="304.635" y2="4.38"/>
</g>
<g>
	<g>
		<path fill="#010101" d="M448.332,22.423c-0.04,0.04-0.087,0.06-0.141,0.06h-2.918v2.929c0,0.053-0.02,0.1-0.06,0.14
			s-0.087,0.061-0.14,0.061s-0.1-0.021-0.141-0.061c-0.039-0.04-0.059-0.087-0.059-0.14v-2.929h-2.918c-0.054,0-0.1-0.02-0.141-0.06
			c-0.039-0.04-0.06-0.086-0.06-0.14c0-0.054,0.021-0.1,0.06-0.14c0.041-0.04,0.087-0.06,0.141-0.06h2.918v-2.929
			c0-0.053,0.02-0.1,0.059-0.14c0.041-0.04,0.088-0.06,0.141-0.06s0.1,0.02,0.14,0.06s0.06,0.086,0.06,0.14v2.929h2.918
			c0.054,0,0.101,0.02,0.141,0.06c0.039,0.04,0.06,0.086,0.06,0.14C448.392,22.337,448.371,22.383,448.332,22.423z"/>
	</g>
</g>
<g>
	<path d="M476.051,24.144c0,0.277-0.046,0.462-0.138,0.554s-0.259,0.138-0.501,0.138c-0.234,0-0.396-0.045-0.486-0.135
		s-0.135-0.27-0.135-0.539c0-0.277,0.046-0.462,0.138-0.554s0.259-0.138,0.501-0.138c0.234,0,0.396,0.045,0.486,0.135
		S476.051,23.874,476.051,24.144z"/>
	<path d="M479.08,24.144c0,0.277-0.046,0.462-0.138,0.554s-0.259,0.138-0.501,0.138c-0.234,0-0.396-0.045-0.486-0.135
		s-0.135-0.27-0.135-0.539c0-0.277,0.046-0.462,0.138-0.554s0.259-0.138,0.501-0.138c0.234,0,0.396,0.045,0.486,0.135
		S479.08,23.874,479.08,24.144z"/>
	<path d="M482.109,24.144c0,0.277-0.046,0.462-0.138,0.554s-0.259,0.138-0.501,0.138c-0.234,0-0.396-0.045-0.486-0.135
		s-0.135-0.27-0.135-0.539c0-0.277,0.046-0.462,0.138-0.554s0.259-0.138,0.501-0.138c0.234,0,0.396,0.045,0.486,0.135
		S482.109,23.874,482.109,24.144z"/>
</g>
<g>
	<path d="M510.279,20.528v-0.779h7.219v0.779H510.279z M510.279,22.96v-0.779h7.219v0.779H510.279z"/>
</g>
<rect x="573.283" y="10.721" fill="none" stroke="#000000" stroke-width="0.5" stroke-miterlimit="10" width="24.623" height="24.625"/>
<g>
	<g>
		<g>
			
				<line fill="none" stroke="#000000" stroke-width="0.5" stroke-miterlimit="10" x1="573.283" y1="31.304" x2="557.764" y2="31.304"/>
			<g>
				<path d="M558.66,31.304l1.096,1.803l-0.061,0.039l-2.938-1.166c-1.023-0.225-2.047-0.449-3.07-0.676
					c1.023-0.225,2.047-0.449,3.07-0.676l2.938-1.166l0.061,0.031L558.66,31.304z"/>
			</g>
		</g>
	</g>
	
		<line fill="none" stroke="#000000" stroke-width="0.5" stroke-miterlimit="10" x1="557.764" y1="31.304" x2="542.244" y2="31.304"/>
</g>
<g>
	<g>
		<g>
			
				<line fill="none" stroke="#000000" stroke-width="0.5" stroke-miterlimit="10" x1="628.945" y1="31.304" x2="613.426" y2="31.304"/>
			<g>
				<path d="M614.322,31.304l1.096,1.803l-0.061,0.039l-2.938-1.166c-1.023-0.225-2.047-0.449-3.07-0.676
					c1.023-0.225,2.047-0.449,3.07-0.676l2.938-1.166l0.061,0.031L614.322,31.304z"/>
			</g>
		</g>
	</g>
	
		<line fill="none" stroke="#000000" stroke-width="0.5" stroke-miterlimit="10" x1="613.426" y1="31.304" x2="597.906" y2="31.304"/>
</g>
<circle fill="#FFFFFF" stroke="#000000" stroke-width="0.5" stroke-miterlimit="10" cx="600.742" cy="16.395" r="2.836"/>
<circle fill="#FFFFFF" stroke="#000000" stroke-width="0.5" stroke-miterlimit="10" cx="570.447" cy="16.395" r="2.836"/>
<g>
	<g>
		<path fill="#010101" d="M589.527,22.483c0,0.084,0.005,0.147,0.015,0.19c0.01,0.043,0.026,0.078,0.05,0.104
			s0.059,0.048,0.104,0.063s0.101,0.027,0.169,0.035s0.158,0.013,0.27,0.016v0.159h-1.604v-0.159
			c0.16-0.007,0.275-0.017,0.344-0.029s0.121-0.031,0.157-0.055c0.036-0.025,0.063-0.06,0.079-0.104s0.025-0.118,0.025-0.219v-1.762
			c0-0.058-0.01-0.1-0.03-0.127s-0.05-0.04-0.089-0.04c-0.047,0-0.112,0.023-0.198,0.071c-0.085,0.048-0.19,0.114-0.316,0.198
			l-0.096-0.167l1.016-0.606h0.12c-0.009,0.139-0.014,0.332-0.014,0.578V22.483z"/>
	</g>
	<g>
		<path fill="#010101" d="M595.029,21.42l0.041,1.221h-0.139c-0.027-0.328-0.116-0.56-0.267-0.695s-0.412-0.203-0.785-0.203h-1.638
			v4.039c0,0.215,0.046,0.368,0.138,0.458c0.091,0.09,0.243,0.135,0.456,0.135h0.203v0.139h-2.272v-0.139h0.131
			c0.221,0,0.378-0.045,0.472-0.135c0.094-0.09,0.141-0.239,0.141-0.447v-3.652c0-0.208-0.046-0.357-0.139-0.447
			c-0.093-0.09-0.251-0.135-0.474-0.135h-0.131V21.42H595.029z"/>
	</g>
	<g>
		<path fill="#010101" d="M587.604,22c-0.018,0.018-0.038,0.027-0.063,0.027h-2.53c-0.023,0-0.044-0.009-0.063-0.027
			c-0.018-0.018-0.026-0.039-0.026-0.063c0-0.023,0.009-0.044,0.026-0.062c0.019-0.018,0.039-0.027,0.063-0.027h2.53
			c0.024,0,0.045,0.009,0.063,0.027c0.018,0.018,0.026,0.039,0.026,0.062C587.631,21.962,587.622,21.982,587.604,22z"/>
	</g>
	<g>
		<path fill="#010101" d="M580.184,24.699c-0.031,0.031-0.067,0.046-0.108,0.046h-4.377c-0.041,0-0.076-0.015-0.107-0.046
			c-0.03-0.031-0.046-0.067-0.046-0.108s0.016-0.077,0.046-0.107c0.031-0.031,0.066-0.046,0.107-0.046h4.377
			c0.041,0,0.077,0.016,0.108,0.046c0.03,0.031,0.046,0.066,0.046,0.107S580.214,24.668,580.184,24.699z"/>
	</g>
	<g>
		<path fill="#010101" d="M583.927,26.261c-0.112,0.133-0.267,0.236-0.461,0.308c-0.067,0.026-0.138,0.035-0.212,0.027
			c-0.074-0.007-0.139-0.036-0.192-0.084s-0.09-0.121-0.107-0.215c-0.019-0.095-0.007-0.219,0.034-0.373l0.569-2.04
			c0.016-0.051,0.028-0.119,0.038-0.204c0.011-0.085-0.018-0.147-0.084-0.188c-0.041-0.026-0.088-0.039-0.139-0.039
			c-0.052,0-0.113,0.021-0.185,0.062c-0.148,0.092-0.304,0.227-0.466,0.404c-0.161,0.177-0.316,0.378-0.465,0.604
			c-0.149,0.226-0.283,0.463-0.404,0.712c-0.12,0.249-0.211,0.489-0.272,0.72l-0.154,0.562h-0.569l1.077-3.924h-0.792l0.022-0.308
			h0.854l0.084-0.315c0.025-0.103,0.039-0.179,0.039-0.23c0-0.057-0.017-0.096-0.051-0.12c-0.033-0.023-0.083-0.035-0.149-0.035
			c-0.062,0-0.144,0-0.246,0v-0.138l1.115-0.192c0,0.123-0.016,0.246-0.046,0.369l-0.185,0.662h1.1v0.308h-1.185l-0.593,2.154
			c0.236-0.385,0.482-0.719,0.739-1.004c0.256-0.285,0.535-0.491,0.838-0.62c0.082-0.036,0.155-0.052,0.22-0.05
			c0.063,0.002,0.12,0.015,0.169,0.039c0.049,0.023,0.09,0.052,0.123,0.088c0.033,0.036,0.061,0.069,0.081,0.1
			c0.041,0.066,0.066,0.15,0.077,0.25c0.01,0.1,0.002,0.191-0.023,0.273l-0.508,1.854c-0.016,0.057-0.034,0.121-0.058,0.192
			s-0.036,0.139-0.038,0.2c-0.003,0.062,0.01,0.108,0.038,0.139s0.089,0.031,0.181,0c0.057-0.021,0.107-0.055,0.154-0.104
			c0.046-0.049,0.089-0.101,0.131-0.158c0.041-0.057,0.076-0.11,0.107-0.162c0.03-0.051,0.059-0.087,0.085-0.108
			c0.062-0.051,0.093-0.054,0.096-0.008c0.003,0.046-0.024,0.111-0.081,0.192C584.143,25.994,584.04,26.127,583.927,26.261z"/>
	</g>
</g>
</svg>
