<?xml version="1.0" encoding="utf-8"?>
<!-- Generator: Adobe Illustrator 15.1.0, SVG Export Plug-In . SVG Version: 6.00 Build 0)  -->
<!DOCTYPE svg PUBLIC "-//W3C//DTD SVG 1.1//EN" "http://www.w3.org/Graphics/SVG/1.1/DTD/svg11.dtd">
<svg version="1.1" id="Layer_1" xmlns="http://www.w3.org/2000/svg" xmlns:xlink="http://www.w3.org/1999/xlink" x="0px" y="0px"
	 width="416.678px" height="41.814px" viewBox="0 0 416.678 41.814" enable-background="new 0 0 416.678 41.814"
	 xml:space="preserve">
<g>
	<g>
		<g>
			
				<line fill="none" stroke="#000000" stroke-width="0.5" stroke-miterlimit="10" x1="374.396" y1="3.087" x2="353.256" y2="3.087"/>
			<g>
				<path d="M354.153,3.087l1.096,1.801l-0.062,0.041l-2.938-1.167c-1.023-0.225-2.047-0.45-3.07-0.675
					c1.023-0.225,2.047-0.45,3.07-0.675l2.938-1.167l0.062,0.031L354.153,3.087z"/>
			</g>
		</g>
	</g>
	<line fill="none" stroke="#000000" stroke-width="0.5" stroke-miterlimit="10" x1="353.256" y1="3.087" x2="332.115" y2="3.087"/>
</g>
<g>
	<g>
		
			<line fill="none" stroke="#000000" stroke-width="0.5" stroke-miterlimit="10" x1="158.586" y1="21.304" x2="137.445" y2="21.304"/>
		<g>
			<path d="M138.343,21.304l1.096,1.802l-0.062,0.041l-2.938-1.167c-1.023-0.226-2.047-0.45-3.07-0.676
				c1.023-0.225,2.047-0.45,3.07-0.676l2.938-1.167l0.062,0.031L138.343,21.304z"/>
		</g>
	</g>
</g>
<line fill="none" stroke="#000000" stroke-width="0.5" stroke-miterlimit="10" x1="137.445" y1="21.304" x2="116.305" y2="21.304"/>
<g>
	<g>
		<g>
			
				<line fill="none" stroke="#000000" stroke-width="0.5" stroke-miterlimit="10" x1="191.346" y1="21.304" x2="170.205" y2="21.304"/>
			<g>
				<path d="M171.103,21.304l1.096,1.802l-0.062,0.041l-2.938-1.167c-1.023-0.226-2.047-0.45-3.07-0.676
					c1.023-0.225,2.047-0.45,3.07-0.676l2.938-1.167l0.062,0.031L171.103,21.304z"/>
			</g>
		</g>
	</g>
	
		<line fill="none" stroke="#000000" stroke-width="0.5" stroke-miterlimit="10" x1="170.205" y1="21.304" x2="149.064" y2="21.304"/>
</g>
<polygon fill="#FFFFFF" stroke="#000000" stroke-width="0.5" stroke-miterlimit="10" points="151.222,24.14 153.419,17.927 
	155.616,24.14 "/>
<rect x="31.039" y="8.721" fill="none" stroke="#000000" stroke-width="0.5" stroke-miterlimit="10" width="24.623" height="24.625"/>
<g>
	<g>
		<g>
			<line fill="none" stroke="#000000" stroke-width="0.5" stroke-miterlimit="10" x1="31.039" y1="21.033" x2="15.52" y2="21.033"/>
			<g>
				<path d="M16.416,21.033l1.096,1.803l-0.061,0.039l-2.938-1.166c-1.023-0.225-2.047-0.449-3.07-0.676
					c1.023-0.225,2.047-0.449,3.07-0.676l2.938-1.166l0.061,0.031L16.416,21.033z"/>
			</g>
		</g>
	</g>
	<line fill="none" stroke="#000000" stroke-width="0.5" stroke-miterlimit="10" x1="15.52" y1="21.033" x2="0" y2="21.033"/>
</g>
<g>
	<g>
		<g>
			
				<line fill="none" stroke="#000000" stroke-width="0.5" stroke-miterlimit="10" x1="86.701" y1="21.033" x2="71.182" y2="21.033"/>
			<g>
				<path d="M72.078,21.033l1.096,1.803l-0.061,0.039l-2.938-1.166c-1.023-0.225-2.047-0.449-3.07-0.676
					c1.023-0.225,2.047-0.449,3.07-0.676l2.938-1.166l0.061,0.031L72.078,21.033z"/>
			</g>
		</g>
	</g>
	<line fill="none" stroke="#000000" stroke-width="0.5" stroke-miterlimit="10" x1="71.182" y1="21.033" x2="55.662" y2="21.033"/>
</g>
<g>
	<path d="M92.607,20.621v-0.719h6.189v0.719H92.607z M92.607,22.972v-0.72h6.189v0.72H92.607z"/>
	<path d="M204.086,18.283v2.818h2.711v0.72h-2.711v2.842h-0.768v-2.842h-2.711v-0.72h2.711v-2.818H204.086z"/>
	<path d="M314.631,18.283v2.818h2.709v0.72h-2.709v2.842h-0.768v-2.842h-2.711v-0.72h2.711v-2.818H314.631z"/>
</g>
<g>
	<g>
		<g>
			
				<line fill="none" stroke="#000000" stroke-width="0.5" stroke-miterlimit="10" x1="416.678" y1="38.977" x2="395.537" y2="38.977"/>
			<g>
				<path d="M396.435,38.977l1.096,1.802l-0.062,0.041l-2.938-1.167c-1.023-0.226-2.047-0.45-3.07-0.676
					c1.023-0.225,2.047-0.45,3.07-0.676l2.938-1.167l0.062,0.031L396.435,38.977z"/>
			</g>
		</g>
	</g>
	
		<line fill="none" stroke="#000000" stroke-width="0.5" stroke-miterlimit="10" x1="395.537" y1="38.977" x2="374.396" y2="38.977"/>
</g>
<line fill="none" stroke="#000000" stroke-width="0.5" stroke-miterlimit="10" stroke-dasharray="2,1" x1="374.396" y1="38.977" x2="374.396" y2="3.087"/>
<circle fill="#FFFFFF" stroke="#000000" stroke-width="0.5" stroke-miterlimit="10" cx="377.232" cy="3.088" r="2.836"/>
<circle fill="#FFFFFF" stroke="#000000" stroke-width="0.5" stroke-miterlimit="10" cx="371.561" cy="38.977" r="2.836"/>
<g>
	<g>
		<g>
			
				<line fill="none" stroke="#000000" stroke-width="0.5" stroke-miterlimit="10" x1="262.17" y1="38.978" x2="241.029" y2="38.978"/>
			<g>
				<path d="M241.927,38.978l1.096,1.802l-0.062,0.041l-2.938-1.167c-1.023-0.226-2.047-0.45-3.07-0.676
					c1.023-0.225,2.047-0.45,3.07-0.676l2.938-1.167l0.062,0.031L241.927,38.978z"/>
			</g>
		</g>
	</g>
	
		<line fill="none" stroke="#000000" stroke-width="0.5" stroke-miterlimit="10" x1="241.029" y1="38.978" x2="219.889" y2="38.978"/>
</g>
<g>
	<g>
		<g>
			
				<line fill="none" stroke="#000000" stroke-width="0.5" stroke-miterlimit="10" x1="304.451" y1="38.977" x2="283.311" y2="38.977"/>
			<g>
				<path d="M284.208,38.977l1.096,1.802l-0.062,0.041l-2.938-1.167c-1.023-0.226-2.047-0.45-3.07-0.676
					c1.023-0.225,2.047-0.45,3.07-0.676l2.938-1.167l0.062,0.031L284.208,38.977z"/>
			</g>
		</g>
	</g>
	<line fill="none" stroke="#000000" stroke-width="0.5" stroke-miterlimit="10" x1="283.311" y1="38.977" x2="262.17" y2="38.977"/>
</g>
<line fill="none" stroke="#000000" stroke-width="0.5" stroke-miterlimit="10" stroke-dasharray="2,1" x1="262.17" y1="38.977" x2="262.17" y2="3.088"/>
<circle fill="#FFFFFF" stroke="#000000" stroke-width="0.5" stroke-miterlimit="10" cx="265.006" cy="3.088" r="2.836"/>
<circle fill="#FFFFFF" stroke="#000000" stroke-width="0.5" stroke-miterlimit="10" cx="259.333" cy="3.088" r="2.836"/>
<g>
	<g>
		<path fill="#010101" d="M269.532,24.741c-0.702,0-1.226-0.276-1.569-0.83c-0.343-0.553-0.514-1.392-0.514-2.518
			c0-0.599,0.053-1.116,0.158-1.552s0.254-0.796,0.443-1.081c0.191-0.285,0.42-0.496,0.686-0.632
			c0.268-0.137,0.559-0.205,0.873-0.205c0.713,0,1.243,0.275,1.591,0.825c0.349,0.55,0.522,1.381,0.522,2.494
			c0,1.152-0.187,2.023-0.559,2.614S270.248,24.741,269.532,24.741z M268.4,21.247c0,1.061,0.098,1.839,0.295,2.335
			s0.502,0.744,0.914,0.744c0.395,0,0.686-0.233,0.877-0.7c0.189-0.467,0.285-1.19,0.285-2.169c0-0.748-0.049-1.354-0.146-1.818
			c-0.098-0.463-0.233-0.796-0.408-0.998c-0.174-0.202-0.384-0.303-0.631-0.303c-0.225,0-0.412,0.067-0.564,0.2
			c-0.15,0.133-0.272,0.326-0.365,0.576s-0.158,0.555-0.197,0.915C268.42,20.389,268.4,20.794,268.4,21.247z"/>
	</g>
</g>
<g>
	<g>
		<path fill="#010101" stroke="#010101" stroke-width="0.2856" stroke-miterlimit="10" d="M381.844,21.944H382
			c0.107,0,0.195-0.011,0.264-0.034c0.082-0.029,0.171-0.078,0.269-0.148s0.235-0.188,0.415-0.354
			c0.149-0.14,0.262-0.258,0.339-0.356c0.076-0.098,0.13-0.187,0.159-0.269c0.025-0.068,0.038-0.137,0.038-0.205
			c0-0.098-0.03-0.174-0.09-0.229c-0.061-0.055-0.159-0.093-0.296-0.112v-0.239h2.104v0.239c-0.149,0.029-0.31,0.096-0.479,0.2
			c-0.169,0.104-0.343,0.241-0.521,0.41l-1.123,1.063l1.405,1.835c0.163,0.215,0.311,0.374,0.442,0.477
			c0.131,0.103,0.275,0.17,0.432,0.202v0.239h-1.874v-0.239c0.085-0.01,0.147-0.028,0.188-0.056c0.04-0.028,0.061-0.074,0.061-0.14
			c0-0.049-0.009-0.097-0.027-0.144c-0.018-0.047-0.055-0.111-0.109-0.193c-0.055-0.081-0.156-0.223-0.303-0.424l-0.58-0.781
			c-0.111-0.146-0.189-0.242-0.236-0.288c-0.048-0.045-0.098-0.078-0.149-0.098s-0.122-0.029-0.21-0.029h-0.273v1.172
			c0,0.279,0.014,0.474,0.039,0.583c0.026,0.108,0.076,0.191,0.149,0.249c0.073,0.057,0.192,0.106,0.358,0.148v0.239h-1.938v-0.239
			c0.163-0.042,0.276-0.086,0.34-0.132c0.063-0.045,0.109-0.1,0.137-0.163s0.047-0.149,0.059-0.259s0.017-0.251,0.017-0.427v-4.085
			c0-0.312-0.003-0.53-0.007-0.654c-0.006-0.124-0.018-0.229-0.039-0.315c-0.021-0.086-0.051-0.154-0.088-0.202
			c-0.037-0.049-0.088-0.088-0.151-0.117s-0.179-0.059-0.344-0.088v-0.254l1.176-0.049h0.292V21.944z"/>
	</g>
</g>
</svg>
