<?xml version="1.0" encoding="utf-8"?>
<!-- Generator: Adobe Illustrator 15.1.0, SVG Export Plug-In . SVG Version: 6.00 Build 0)  -->
<!DOCTYPE svg PUBLIC "-//W3C//DTD SVG 1.1//EN" "http://www.w3.org/Graphics/SVG/1.1/DTD/svg11.dtd">
<svg version="1.1" id="Layer_1" xmlns="http://www.w3.org/2000/svg" xmlns:xlink="http://www.w3.org/1999/xlink" x="0px" y="0px"
	 width="157.087px" height="77.524px" viewBox="0 0 157.087 77.524" enable-background="new 0 0 157.087 77.524"
	 xml:space="preserve">
<g>
	<g>
		<g>
			<line fill="none" stroke="#000000" stroke-width="0.5" stroke-miterlimit="10" x1="55.92" y1="62.167" x2="34.779" y2="62.167"/>
			<g>
				<path d="M35.677,62.167l1.096,1.802l-0.062,0.041l-2.938-1.167c-1.023-0.226-2.047-0.45-3.07-0.676
					c1.023-0.225,2.047-0.45,3.07-0.676l2.938-1.167l0.062,0.031L35.677,62.167z"/>
			</g>
		</g>
	</g>
	<line fill="none" stroke="#000000" stroke-width="0.5" stroke-miterlimit="10" x1="34.779" y1="62.167" x2="13.639" y2="62.167"/>
</g>
<g>
	<g>
		<g>
			
				<line fill="none" stroke="#000000" stroke-width="0.5" stroke-miterlimit="10" x1="144.329" y1="26.277" x2="122.595" y2="26.277"/>
			<g>
				<path d="M123.492,26.277l1.096,1.802l-0.062,0.041l-2.938-1.167c-1.023-0.226-2.047-0.45-3.07-0.676
					c1.023-0.225,2.047-0.45,3.07-0.676l2.938-1.167l0.062,0.031L123.492,26.277z"/>
			</g>
		</g>
	</g>
	<line fill="none" stroke="#000000" stroke-width="0.5" stroke-miterlimit="10" x1="122.595" y1="26.277" x2="100.86" y2="26.277"/>
</g>
<g>
	<g>
		<path fill="#010101" stroke="#010101" stroke-width="0.314" stroke-miterlimit="10" d="M129.877,18.427h0.172
			c0.118,0,0.215-0.013,0.29-0.038c0.089-0.032,0.188-0.087,0.295-0.164c0.107-0.077,0.26-0.207,0.456-0.389
			c0.165-0.154,0.289-0.285,0.373-0.392c0.084-0.107,0.143-0.206,0.175-0.295c0.028-0.075,0.043-0.15,0.043-0.226
			c0-0.107-0.033-0.191-0.099-0.252c-0.066-0.061-0.175-0.102-0.325-0.124v-0.263h2.313v0.263c-0.164,0.032-0.34,0.105-0.525,0.22
			c-0.187,0.114-0.379,0.265-0.575,0.451l-1.234,1.17l1.546,2.018c0.18,0.236,0.341,0.41,0.486,0.523
			c0.145,0.112,0.303,0.187,0.475,0.223v0.263h-2.062v-0.263c0.093-0.011,0.162-0.031,0.207-0.062
			c0.044-0.031,0.067-0.082,0.067-0.153c0-0.054-0.01-0.106-0.029-0.158c-0.021-0.052-0.061-0.123-0.121-0.212
			c-0.062-0.09-0.172-0.245-0.334-0.467l-0.639-0.859c-0.121-0.161-0.208-0.267-0.26-0.317s-0.106-0.086-0.164-0.107
			c-0.057-0.021-0.134-0.032-0.23-0.032h-0.301v1.288c0,0.308,0.014,0.521,0.043,0.642s0.083,0.211,0.164,0.273
			c0.08,0.063,0.212,0.117,0.395,0.164v0.263h-2.131v-0.263c0.178-0.047,0.303-0.095,0.373-0.146c0.069-0.05,0.119-0.109,0.15-0.18
			c0.029-0.069,0.051-0.164,0.063-0.284s0.019-0.276,0.019-0.47v-4.492c0-0.343-0.002-0.583-0.008-0.719
			c-0.006-0.136-0.02-0.251-0.043-0.346s-0.055-0.169-0.096-0.223c-0.042-0.053-0.098-0.096-0.167-0.128s-0.196-0.064-0.378-0.097
			V13.79l1.293-0.054h0.322V18.427z"/>
	</g>
	<g>
		<path fill="#010101" d="M134.824,20.864v-0.591c0.24-0.114,0.465-0.199,0.675-0.255c0.209-0.057,0.412-0.084,0.606-0.084
			c0.234,0,0.439,0.036,0.616,0.108c0.176,0.072,0.312,0.177,0.404,0.313c0.094,0.136,0.141,0.298,0.141,0.487
			c0,0.176-0.036,0.331-0.106,0.465s-0.169,0.25-0.297,0.35s-0.293,0.197-0.496,0.292v0.028c0.126,0.022,0.248,0.062,0.365,0.117
			c0.117,0.055,0.222,0.125,0.313,0.213c0.092,0.087,0.165,0.191,0.22,0.313s0.082,0.26,0.082,0.415c0,0.24-0.052,0.454-0.157,0.641
			c-0.104,0.187-0.265,0.334-0.48,0.441c-0.216,0.108-0.478,0.162-0.787,0.162c-0.178,0-0.37-0.021-0.577-0.061
			c-0.206-0.041-0.396-0.094-0.567-0.16v-0.659h0.373c0.072,0.215,0.169,0.372,0.288,0.47c0.119,0.097,0.281,0.146,0.486,0.146
			c0.27,0,0.474-0.073,0.611-0.221c0.139-0.147,0.207-0.365,0.207-0.653c0-0.303-0.091-0.533-0.273-0.693
			c-0.183-0.159-0.45-0.239-0.803-0.239h-0.28v-0.274c0.28-0.016,0.517-0.07,0.708-0.161c0.191-0.092,0.335-0.209,0.428-0.352
			c0.094-0.144,0.14-0.304,0.14-0.482c0-0.229-0.061-0.407-0.184-0.531c-0.122-0.125-0.301-0.187-0.534-0.187
			c-0.195,0-0.354,0.053-0.477,0.158s-0.213,0.268-0.271,0.485H134.824z"/>
	</g>
</g>
<g>
	<path fill="#010101" stroke="#010101" stroke-width="0.314" stroke-miterlimit="10" d="M20.577,18.427h0.172
		c0.118,0,0.215-0.013,0.29-0.038c0.09-0.032,0.188-0.087,0.295-0.164c0.107-0.077,0.26-0.207,0.457-0.389
		c0.164-0.154,0.289-0.285,0.373-0.392c0.084-0.107,0.142-0.206,0.174-0.295c0.029-0.075,0.043-0.15,0.043-0.226
		c0-0.107-0.033-0.191-0.1-0.252c-0.066-0.061-0.174-0.102-0.324-0.124v-0.263h2.313v0.263c-0.165,0.032-0.34,0.105-0.526,0.22
		c-0.186,0.114-0.377,0.265-0.574,0.451l-1.234,1.17l1.546,2.018c0.179,0.236,0.341,0.41,0.485,0.523
		c0.146,0.112,0.304,0.187,0.476,0.223v0.263h-2.062v-0.263c0.094-0.011,0.162-0.031,0.207-0.062
		c0.045-0.031,0.066-0.082,0.066-0.153c0-0.054-0.01-0.106-0.029-0.158s-0.06-0.123-0.121-0.212
		c-0.061-0.09-0.172-0.245-0.332-0.467l-0.639-0.859c-0.122-0.161-0.209-0.267-0.261-0.317s-0.106-0.086-0.163-0.107
		c-0.059-0.021-0.135-0.032-0.231-0.032h-0.301v1.288c0,0.308,0.015,0.521,0.043,0.642s0.083,0.211,0.163,0.273
		c0.081,0.063,0.213,0.117,0.395,0.164v0.263h-2.131v-0.263c0.18-0.047,0.304-0.095,0.373-0.146c0.07-0.05,0.12-0.109,0.15-0.18
		c0.031-0.069,0.053-0.164,0.064-0.284c0.013-0.12,0.02-0.276,0.02-0.47v-4.492c0-0.343-0.004-0.583-0.009-0.719
		c-0.005-0.136-0.02-0.251-0.042-0.346c-0.023-0.095-0.057-0.169-0.098-0.223c-0.041-0.053-0.096-0.096-0.166-0.128
		s-0.196-0.064-0.379-0.097V13.79l1.294-0.054h0.322V18.427z"/>
</g>
<g>
	<path fill="#010101" d="M27.184,23.417c0,0.12,0.007,0.211,0.021,0.271c0.013,0.062,0.037,0.111,0.071,0.149
		c0.035,0.039,0.084,0.068,0.148,0.091c0.064,0.021,0.145,0.038,0.242,0.05c0.098,0.011,0.227,0.019,0.386,0.022v0.228h-2.3v-0.228
		c0.23-0.01,0.396-0.023,0.494-0.042c0.098-0.018,0.174-0.044,0.225-0.079c0.053-0.035,0.09-0.085,0.114-0.149
		c0.024-0.063,0.036-0.169,0.036-0.313v-2.522c0-0.083-0.016-0.144-0.044-0.183c-0.029-0.038-0.071-0.058-0.128-0.058
		c-0.066,0-0.16,0.034-0.283,0.104c-0.122,0.068-0.273,0.162-0.453,0.282l-0.138-0.239l1.456-0.867h0.172
		c-0.014,0.198-0.02,0.475-0.02,0.827V23.417z"/>
</g>
<g>
	<g>
		<path fill="#010101" stroke="#010101" stroke-width="0.314" stroke-miterlimit="10" d="M20.577,71.722h0.172
			c0.118,0,0.215-0.013,0.29-0.038c0.09-0.032,0.188-0.087,0.295-0.164c0.107-0.077,0.26-0.207,0.457-0.389
			c0.164-0.154,0.289-0.285,0.373-0.392c0.084-0.107,0.142-0.206,0.174-0.295c0.029-0.075,0.043-0.15,0.043-0.226
			c0-0.107-0.033-0.191-0.1-0.252c-0.066-0.061-0.174-0.102-0.324-0.124V69.58h2.313v0.263c-0.165,0.032-0.34,0.105-0.526,0.22
			c-0.186,0.114-0.377,0.265-0.574,0.451l-1.234,1.17l1.546,2.018c0.179,0.236,0.341,0.41,0.485,0.523
			c0.146,0.112,0.304,0.187,0.476,0.223v0.263h-2.062v-0.263c0.094-0.011,0.162-0.031,0.207-0.062
			c0.045-0.031,0.066-0.082,0.066-0.153c0-0.054-0.01-0.106-0.029-0.158s-0.06-0.123-0.121-0.212
			c-0.061-0.09-0.172-0.245-0.332-0.467l-0.639-0.859c-0.122-0.161-0.209-0.267-0.261-0.317s-0.106-0.086-0.163-0.107
			c-0.059-0.021-0.135-0.032-0.231-0.032h-0.301v1.288c0,0.308,0.015,0.521,0.043,0.642s0.083,0.211,0.163,0.273
			c0.081,0.063,0.213,0.117,0.395,0.164v0.263h-2.131v-0.263c0.18-0.047,0.304-0.095,0.373-0.146c0.07-0.05,0.12-0.109,0.15-0.18
			c0.031-0.069,0.053-0.164,0.064-0.284c0.013-0.12,0.02-0.276,0.02-0.47v-4.492c0-0.343-0.004-0.583-0.009-0.719
			c-0.005-0.136-0.02-0.251-0.042-0.346c-0.023-0.095-0.057-0.169-0.098-0.223c-0.041-0.053-0.096-0.096-0.166-0.128
			s-0.196-0.064-0.379-0.097v-0.279l1.294-0.054h0.322V71.722z"/>
	</g>
	<g>
		<path fill="#010101" d="M27.315,77.025c0.102,0,0.184-0.006,0.245-0.019c0.063-0.012,0.112-0.033,0.149-0.062
			c0.037-0.029,0.067-0.067,0.089-0.114c0.021-0.046,0.049-0.118,0.082-0.216h0.265l-0.053,0.908h-2.561v-0.149
			c0.089-0.218,0.209-0.44,0.361-0.669c0.151-0.228,0.365-0.496,0.644-0.806c0.24-0.265,0.414-0.466,0.52-0.603
			c0.116-0.149,0.203-0.279,0.26-0.388c0.058-0.108,0.098-0.212,0.123-0.308c0.024-0.097,0.037-0.193,0.037-0.291
			c0-0.155-0.024-0.293-0.074-0.412s-0.126-0.213-0.229-0.281c-0.104-0.068-0.232-0.103-0.388-0.103
			c-0.388,0-0.649,0.215-0.784,0.646h-0.376v-0.597c0.251-0.119,0.485-0.204,0.704-0.257s0.416-0.079,0.59-0.079
			c0.386,0,0.677,0.084,0.874,0.253s0.296,0.414,0.296,0.735c0,0.11-0.011,0.211-0.033,0.304c-0.021,0.092-0.056,0.184-0.103,0.273
			c-0.047,0.091-0.109,0.188-0.188,0.291c-0.078,0.104-0.165,0.209-0.261,0.315c-0.096,0.107-0.261,0.285-0.495,0.533
			c-0.394,0.417-0.684,0.781-0.868,1.092H27.315z"/>
	</g>
</g>
<g>
	<path fill="#010101" stroke="#010101" stroke-width="0.314" stroke-miterlimit="10" d="M129.877,71.722h0.172
		c0.118,0,0.215-0.013,0.29-0.038c0.089-0.032,0.188-0.087,0.295-0.164c0.107-0.077,0.26-0.207,0.456-0.389
		c0.165-0.154,0.289-0.285,0.373-0.392c0.084-0.107,0.143-0.206,0.175-0.295c0.028-0.075,0.043-0.15,0.043-0.226
		c0-0.107-0.033-0.191-0.099-0.252c-0.066-0.061-0.175-0.102-0.325-0.124v-0.263h2.313v0.263c-0.164,0.032-0.34,0.105-0.525,0.22
		c-0.187,0.114-0.379,0.265-0.575,0.451l-1.234,1.17l1.546,2.018c0.18,0.236,0.341,0.41,0.486,0.523
		c0.145,0.112,0.303,0.187,0.475,0.223v0.263h-2.062v-0.263c0.093-0.011,0.162-0.031,0.207-0.062
		c0.044-0.031,0.067-0.082,0.067-0.153c0-0.054-0.01-0.106-0.029-0.158c-0.021-0.052-0.061-0.123-0.121-0.212
		c-0.062-0.09-0.172-0.245-0.334-0.467l-0.639-0.859c-0.121-0.161-0.208-0.267-0.26-0.317s-0.106-0.086-0.164-0.107
		c-0.057-0.021-0.134-0.032-0.23-0.032h-0.301v1.288c0,0.308,0.014,0.521,0.043,0.642s0.083,0.211,0.164,0.273
		c0.08,0.063,0.212,0.117,0.395,0.164v0.263h-2.131v-0.263c0.178-0.047,0.303-0.095,0.373-0.146c0.069-0.05,0.119-0.109,0.15-0.18
		c0.029-0.069,0.051-0.164,0.063-0.284s0.019-0.276,0.019-0.47v-4.492c0-0.343-0.002-0.583-0.008-0.719
		c-0.006-0.136-0.02-0.251-0.043-0.346s-0.055-0.169-0.096-0.223c-0.042-0.053-0.098-0.096-0.167-0.128s-0.196-0.064-0.378-0.097
		v-0.279l1.293-0.054h0.322V71.722z"/>
</g>
<g>
	<path fill="#010101" d="M136.208,77.372c0.128-0.033,0.215-0.07,0.259-0.11c0.043-0.041,0.071-0.098,0.085-0.173
		c0.014-0.074,0.021-0.188,0.021-0.342v-0.511h-1.73v-0.232l1.82-2.747h0.445v2.678h0.064c0.121,0,0.207-0.009,0.259-0.026
		s0.095-0.048,0.129-0.093s0.065-0.118,0.095-0.22h0.236l-0.037,0.641h-0.746v0.511c0,0.139,0.004,0.24,0.014,0.305
		s0.025,0.115,0.047,0.152s0.054,0.068,0.096,0.093c0.043,0.025,0.111,0.05,0.207,0.075v0.152h-1.263V77.372z M135.355,75.934h1.217
		V75.16c0-0.194,0.003-0.413,0.01-0.654c0.006-0.241,0.013-0.424,0.021-0.546h-0.031l-1.217,1.932V75.934z"/>
</g>
<g>
</g>
<g>
	<g>
		<g>
			
				<line fill="none" stroke="#000000" stroke-width="0.5" stroke-miterlimit="10" x1="144.924" y1="62.167" x2="122.892" y2="62.167"/>
			<g>
				<path d="M123.789,62.167l1.096,1.802l-0.062,0.041l-2.938-1.167c-1.023-0.226-2.047-0.45-3.07-0.676
					c1.023-0.225,2.047-0.45,3.07-0.676l2.938-1.167l0.062,0.031L123.789,62.167z"/>
			</g>
		</g>
	</g>
	<line fill="none" stroke="#000000" stroke-width="0.5" stroke-miterlimit="10" x1="122.892" y1="62.167" x2="100.86" y2="62.167"/>
</g>
<g>
	<g>
		<g>
			<line fill="none" stroke="#000000" stroke-width="0.5" stroke-miterlimit="10" x1="55.92" y1="26.277" x2="34.779" y2="26.277"/>
			<g>
				<path d="M35.677,26.277l1.096,1.802l-0.062,0.041l-2.938-1.167c-1.023-0.226-2.047-0.45-3.07-0.676
					c1.023-0.225,2.047-0.45,3.07-0.676l2.938-1.167l0.062,0.031L35.677,26.277z"/>
			</g>
		</g>
	</g>
	<line fill="none" stroke="#000000" stroke-width="0.5" stroke-miterlimit="10" x1="34.779" y1="26.277" x2="13.639" y2="26.277"/>
</g>
<rect x="55.92" y="21.705" fill="none" stroke="#000000" stroke-width="0.5" stroke-miterlimit="10" width="44.666" height="44.666"/>
<g>
	<g>
		<path fill="#010101" d="M7.908,49.257c0,0.109,0.006,0.191,0.018,0.247s0.034,0.101,0.064,0.135
			c0.031,0.035,0.076,0.063,0.135,0.082s0.131,0.035,0.22,0.045c0.089,0.011,0.205,0.018,0.35,0.021v0.206H6.61v-0.206
			c0.208-0.01,0.357-0.022,0.446-0.038c0.09-0.016,0.158-0.04,0.205-0.072c0.047-0.031,0.081-0.077,0.104-0.135
			c0.021-0.059,0.031-0.153,0.031-0.285v-2.288c0-0.075-0.013-0.131-0.039-0.165c-0.026-0.035-0.064-0.053-0.115-0.053
			c-0.061,0-0.146,0.031-0.257,0.094c-0.11,0.062-0.249,0.147-0.412,0.257l-0.124-0.218l1.32-0.787h0.154
			c-0.011,0.181-0.016,0.431-0.016,0.751V49.257z"/>
		<path fill="#010101" d="M27.815,49.542c0.092,0,0.166-0.006,0.223-0.018c0.057-0.011,0.102-0.029,0.135-0.056
			c0.034-0.026,0.062-0.062,0.081-0.104s0.044-0.107,0.074-0.196h0.24l-0.048,0.824h-2.321v-0.136
			c0.08-0.197,0.189-0.399,0.327-0.606c0.137-0.207,0.331-0.45,0.584-0.73c0.218-0.241,0.375-0.424,0.471-0.548
			c0.105-0.135,0.184-0.252,0.235-0.351s0.089-0.192,0.111-0.279c0.022-0.088,0.034-0.176,0.034-0.265
			c0-0.141-0.022-0.266-0.068-0.373c-0.045-0.108-0.113-0.193-0.207-0.256c-0.093-0.062-0.21-0.093-0.351-0.093
			c-0.352,0-0.589,0.195-0.711,0.587h-0.342v-0.542c0.228-0.107,0.44-0.185,0.639-0.232c0.199-0.048,0.377-0.072,0.535-0.072
			c0.35,0,0.613,0.077,0.792,0.229c0.179,0.153,0.269,0.376,0.269,0.668c0,0.1-0.01,0.191-0.03,0.274
			c-0.02,0.084-0.051,0.167-0.093,0.249s-0.099,0.17-0.171,0.264c-0.071,0.094-0.15,0.189-0.236,0.286
			c-0.087,0.097-0.236,0.258-0.448,0.484c-0.357,0.378-0.62,0.708-0.787,0.99H27.815z"/>
	</g>
	<g>
		<path fill="#010101" d="M17.989,45.056c-0.04,0.04-0.087,0.06-0.14,0.06h-5.686c-0.054,0-0.1-0.02-0.141-0.06
			c-0.039-0.04-0.06-0.086-0.06-0.14c0-0.054,0.021-0.1,0.06-0.14c0.041-0.04,0.087-0.06,0.141-0.06h5.686
			c0.053,0,0.1,0.02,0.14,0.06s0.06,0.086,0.06,0.14C18.049,44.97,18.029,45.016,17.989,45.056z"/>
		<path fill="#010101" d="M38.783,44.087c-0.04,0.04-0.087,0.06-0.141,0.06h-6.234c-0.054,0-0.101-0.02-0.141-0.06
			c-0.04-0.04-0.06-0.087-0.06-0.14s0.02-0.1,0.06-0.14s0.087-0.06,0.141-0.06h6.234c0.054,0,0.101,0.02,0.141,0.06
			c0.039,0.04,0.06,0.087,0.06,0.14S38.822,44.047,38.783,44.087z M38.783,46.025c-0.04,0.04-0.087,0.061-0.141,0.061h-6.234
			c-0.054,0-0.101-0.021-0.141-0.061s-0.06-0.086-0.06-0.14c0-0.053,0.02-0.1,0.06-0.14c0.04-0.04,0.087-0.06,0.141-0.06h6.234
			c0.054,0,0.101,0.02,0.141,0.06c0.039,0.04,0.06,0.086,0.06,0.14C38.843,45.939,38.822,45.985,38.783,46.025z"/>
	</g>
	<g>
		<path fill="#010101" stroke="#010101" stroke-width="0.2856" stroke-miterlimit="10" d="M1.918,44.697h0.156
			c0.107,0,0.195-0.012,0.264-0.034c0.082-0.029,0.171-0.079,0.269-0.149s0.235-0.188,0.415-0.354
			c0.149-0.14,0.262-0.258,0.339-0.356c0.076-0.098,0.13-0.187,0.159-0.269c0.025-0.068,0.038-0.137,0.038-0.205
			c0-0.098-0.03-0.174-0.09-0.229c-0.061-0.055-0.159-0.093-0.296-0.112V42.75h2.104v0.239c-0.15,0.029-0.309,0.096-0.479,0.2
			c-0.169,0.104-0.343,0.241-0.521,0.41l-1.123,1.064l1.406,1.834C4.721,46.712,4.867,46.871,5,46.974
			c0.131,0.103,0.275,0.17,0.432,0.202v0.239H3.558v-0.239c0.085-0.01,0.147-0.028,0.188-0.056c0.04-0.028,0.061-0.074,0.061-0.14
			c0-0.049-0.009-0.097-0.027-0.144c-0.018-0.047-0.055-0.111-0.109-0.193c-0.055-0.081-0.156-0.223-0.303-0.424l-0.58-0.781
			c-0.111-0.146-0.189-0.242-0.236-0.288c-0.048-0.045-0.098-0.078-0.149-0.098s-0.122-0.029-0.21-0.029H1.918v1.172
			c0,0.279,0.014,0.474,0.039,0.583c0.026,0.108,0.076,0.191,0.149,0.249c0.073,0.057,0.192,0.106,0.358,0.148v0.239H0.527v-0.239
			c0.163-0.042,0.276-0.086,0.34-0.132c0.063-0.045,0.109-0.1,0.137-0.163s0.047-0.149,0.059-0.259s0.017-0.251,0.017-0.427V42.11
			c0-0.312-0.003-0.53-0.007-0.654c-0.006-0.124-0.018-0.229-0.039-0.315c-0.021-0.086-0.051-0.154-0.088-0.202
			c-0.037-0.049-0.088-0.088-0.151-0.117s-0.179-0.059-0.344-0.088V40.48l1.176-0.049h0.292V44.697z"/>
		<path fill="#010101" stroke="#010101" stroke-width="0.2856" stroke-miterlimit="10" d="M21.707,44.697h0.156
			c0.107,0,0.195-0.012,0.263-0.034c0.081-0.029,0.171-0.079,0.269-0.149s0.236-0.188,0.414-0.354c0.15-0.14,0.264-0.258,0.34-0.356
			s0.129-0.187,0.158-0.269c0.026-0.068,0.039-0.137,0.039-0.205c0-0.098-0.029-0.174-0.09-0.229
			c-0.061-0.055-0.158-0.093-0.295-0.112V42.75h2.103v0.239c-0.149,0.029-0.31,0.096-0.479,0.2c-0.169,0.104-0.343,0.241-0.522,0.41
			l-1.121,1.064l1.404,1.834c0.163,0.215,0.311,0.374,0.442,0.477c0.131,0.103,0.275,0.17,0.432,0.202v0.239h-1.874v-0.239
			c0.085-0.01,0.147-0.028,0.188-0.056c0.041-0.028,0.062-0.074,0.062-0.14c0-0.049-0.009-0.097-0.026-0.144
			c-0.019-0.047-0.055-0.111-0.11-0.193c-0.056-0.081-0.155-0.223-0.302-0.424l-0.581-0.781c-0.11-0.146-0.189-0.242-0.237-0.288
			c-0.047-0.045-0.096-0.078-0.148-0.098c-0.052-0.02-0.121-0.029-0.209-0.029h-0.273v1.172c0,0.279,0.013,0.474,0.039,0.583
			c0.025,0.108,0.075,0.191,0.148,0.249c0.073,0.057,0.192,0.106,0.358,0.148v0.239h-1.937v-0.239
			c0.162-0.042,0.275-0.086,0.339-0.132c0.063-0.045,0.108-0.1,0.137-0.163c0.027-0.063,0.047-0.149,0.059-0.259
			c0.011-0.109,0.017-0.251,0.017-0.427V42.11c0-0.312-0.002-0.53-0.008-0.654c-0.004-0.124-0.018-0.229-0.038-0.315
			c-0.021-0.086-0.051-0.154-0.088-0.202c-0.038-0.049-0.088-0.088-0.151-0.117s-0.178-0.059-0.344-0.088V40.48l1.176-0.049h0.293
			V44.697z"/>
		<path fill="#010101" stroke="#010101" stroke-width="0.2856" stroke-miterlimit="10" d="M43.095,44.697h0.155
			c0.107,0,0.195-0.012,0.264-0.034c0.081-0.029,0.171-0.079,0.269-0.149s0.235-0.188,0.415-0.354
			c0.149-0.14,0.263-0.258,0.339-0.356s0.129-0.187,0.158-0.269c0.026-0.068,0.039-0.137,0.039-0.205c0-0.098-0.03-0.174-0.09-0.229
			c-0.061-0.055-0.159-0.093-0.295-0.112V42.75h2.103v0.239c-0.149,0.029-0.31,0.096-0.479,0.2c-0.169,0.104-0.343,0.241-0.521,0.41
			l-1.122,1.064l1.404,1.834c0.163,0.215,0.311,0.374,0.442,0.477c0.131,0.103,0.275,0.17,0.432,0.202v0.239h-1.874v-0.239
			c0.085-0.01,0.147-0.028,0.188-0.056c0.04-0.028,0.061-0.074,0.061-0.14c0-0.049-0.009-0.097-0.026-0.144
			c-0.019-0.047-0.055-0.111-0.11-0.193c-0.056-0.081-0.156-0.223-0.303-0.424l-0.58-0.781c-0.11-0.146-0.189-0.242-0.236-0.288
			c-0.048-0.045-0.098-0.078-0.149-0.098s-0.122-0.029-0.21-0.029h-0.272v1.172c0,0.279,0.013,0.474,0.039,0.583
			c0.025,0.108,0.075,0.191,0.148,0.249c0.073,0.057,0.192,0.106,0.358,0.148v0.239h-1.937v-0.239
			c0.162-0.042,0.275-0.086,0.339-0.132c0.063-0.045,0.108-0.1,0.137-0.163c0.027-0.063,0.047-0.149,0.059-0.259
			c0.011-0.109,0.017-0.251,0.017-0.427V42.11c0-0.312-0.002-0.53-0.007-0.654s-0.019-0.229-0.039-0.315
			c-0.021-0.086-0.051-0.154-0.088-0.202c-0.037-0.049-0.088-0.088-0.151-0.117s-0.178-0.059-0.344-0.088V40.48l1.176-0.049h0.293
			V44.697z"/>
	</g>
</g>
<g>
	<g>
		<path fill="#010101" d="M115.914,43.496l-0.264-1.445c-0.075-0.4-0.113-0.67-0.113-0.81c0-0.208,0.043-0.359,0.127-0.454
			c0.085-0.095,0.201-0.142,0.348-0.142c0.146,0,0.267,0.048,0.363,0.144c0.096,0.096,0.144,0.222,0.144,0.378
			c0,0.121-0.042,0.417-0.127,0.888l-0.264,1.44H115.914z"/>
	</g>
	<g>
		<path fill="#010101" d="M134.356,46.94v-0.536c0.219-0.104,0.423-0.181,0.612-0.231s0.373-0.076,0.55-0.076
			c0.213,0,0.398,0.033,0.559,0.099c0.16,0.066,0.282,0.16,0.367,0.283c0.084,0.124,0.127,0.271,0.127,0.442
			c0,0.159-0.032,0.3-0.097,0.422c-0.063,0.121-0.153,0.227-0.269,0.317c-0.116,0.09-0.266,0.179-0.45,0.265v0.025
			c0.114,0.021,0.225,0.057,0.331,0.106s0.201,0.114,0.284,0.192c0.082,0.079,0.148,0.174,0.198,0.284s0.075,0.235,0.075,0.377
			c0,0.218-0.048,0.411-0.143,0.581c-0.095,0.169-0.24,0.303-0.436,0.4c-0.196,0.098-0.434,0.146-0.714,0.146
			c-0.162,0-0.336-0.019-0.523-0.055c-0.188-0.037-0.358-0.085-0.515-0.146V49.24h0.339c0.065,0.195,0.152,0.337,0.261,0.426
			c0.107,0.088,0.255,0.133,0.441,0.133c0.244,0,0.429-0.067,0.554-0.2c0.125-0.134,0.188-0.331,0.188-0.593
			c0-0.274-0.082-0.484-0.248-0.63c-0.165-0.145-0.408-0.217-0.728-0.217h-0.254v-0.248c0.254-0.016,0.468-0.064,0.642-0.146
			c0.174-0.083,0.304-0.189,0.388-0.319c0.085-0.13,0.127-0.275,0.127-0.438c0-0.209-0.056-0.369-0.166-0.482
			c-0.111-0.112-0.272-0.169-0.485-0.169c-0.177,0-0.32,0.048-0.432,0.144s-0.192,0.243-0.245,0.44H134.356z"/>
		<path fill="#010101" d="M155.343,49.854c0.117-0.029,0.195-0.063,0.234-0.1c0.04-0.037,0.065-0.089,0.078-0.156
			c0.012-0.068,0.018-0.172,0.018-0.311v-0.463h-1.568v-0.212l1.65-2.491h0.403v2.43h0.06c0.108,0,0.187-0.009,0.233-0.024
			c0.048-0.016,0.087-0.044,0.117-0.085c0.031-0.04,0.06-0.106,0.086-0.198h0.215l-0.034,0.581h-0.677v0.463
			c0,0.126,0.004,0.218,0.013,0.276s0.022,0.104,0.042,0.138c0.021,0.034,0.049,0.063,0.088,0.085
			c0.038,0.022,0.101,0.045,0.188,0.067v0.139h-1.146V49.854z M154.57,48.552h1.103v-0.703c0-0.177,0.003-0.375,0.009-0.594
			s0.012-0.384,0.02-0.495h-0.028l-1.103,1.752V48.552z"/>
	</g>
	<g>
		<path fill="#010101" d="M125.551,44.087c-0.041,0.04-0.087,0.06-0.141,0.06h-6.234c-0.054,0-0.1-0.02-0.141-0.06
			c-0.039-0.04-0.06-0.087-0.06-0.14s0.021-0.1,0.06-0.14c0.041-0.04,0.087-0.06,0.141-0.06h6.234c0.054,0,0.1,0.02,0.141,0.06
			c0.039,0.04,0.06,0.087,0.06,0.14S125.59,44.047,125.551,44.087z M125.551,46.025c-0.041,0.04-0.087,0.061-0.141,0.061h-6.234
			c-0.054,0-0.1-0.021-0.141-0.061c-0.039-0.04-0.06-0.086-0.06-0.14c0-0.053,0.021-0.1,0.06-0.14c0.041-0.04,0.087-0.06,0.141-0.06
			h6.234c0.054,0,0.1,0.02,0.141,0.06c0.039,0.04,0.06,0.086,0.06,0.14C125.61,45.939,125.59,45.985,125.551,46.025z"/>
		<path fill="#010101" d="M145.845,45.056c-0.04,0.04-0.087,0.06-0.14,0.06h-5.686c-0.054,0-0.1-0.02-0.14-0.06
			s-0.061-0.086-0.061-0.14c0-0.054,0.021-0.1,0.061-0.14s0.086-0.06,0.14-0.06h5.686c0.053,0,0.1,0.02,0.14,0.06
			s0.06,0.086,0.06,0.14C145.904,44.97,145.885,45.016,145.845,45.056z"/>
	</g>
	<g>
		<path fill="#010101" stroke="#010101" stroke-width="0.2856" stroke-miterlimit="10" d="M110.074,44.697h0.156
			c0.107,0,0.195-0.012,0.264-0.034c0.082-0.029,0.171-0.079,0.269-0.149s0.235-0.188,0.415-0.354
			c0.149-0.14,0.262-0.258,0.339-0.356c0.076-0.098,0.13-0.187,0.159-0.269c0.025-0.068,0.038-0.137,0.038-0.205
			c0-0.098-0.03-0.174-0.09-0.229c-0.061-0.055-0.159-0.093-0.296-0.112V42.75h2.104v0.239c-0.15,0.029-0.309,0.096-0.479,0.2
			c-0.169,0.104-0.343,0.241-0.521,0.41l-1.123,1.064l1.406,1.834c0.162,0.215,0.309,0.374,0.441,0.477
			c0.131,0.103,0.275,0.17,0.432,0.202v0.239h-1.874v-0.239c0.085-0.01,0.147-0.028,0.188-0.056c0.04-0.028,0.061-0.074,0.061-0.14
			c0-0.049-0.009-0.097-0.027-0.144c-0.018-0.047-0.055-0.111-0.109-0.193c-0.055-0.081-0.156-0.223-0.303-0.424l-0.58-0.781
			c-0.111-0.146-0.189-0.242-0.236-0.288c-0.048-0.045-0.098-0.078-0.149-0.098s-0.122-0.029-0.21-0.029h-0.273v1.172
			c0,0.279,0.014,0.474,0.039,0.583c0.026,0.108,0.076,0.191,0.149,0.249c0.073,0.057,0.192,0.106,0.358,0.148v0.239h-1.938v-0.239
			c0.163-0.042,0.276-0.086,0.34-0.132c0.063-0.045,0.109-0.1,0.137-0.163s0.047-0.149,0.059-0.259s0.017-0.251,0.017-0.427V42.11
			c0-0.312-0.003-0.53-0.007-0.654c-0.006-0.124-0.018-0.229-0.039-0.315c-0.021-0.086-0.051-0.154-0.088-0.202
			c-0.037-0.049-0.088-0.088-0.151-0.117s-0.179-0.059-0.344-0.088V40.48l1.176-0.049h0.292V44.697z"/>
		<path fill="#010101" stroke="#010101" stroke-width="0.2856" stroke-miterlimit="10" d="M129.863,44.697h0.156
			c0.107,0,0.195-0.012,0.263-0.034c0.081-0.029,0.171-0.079,0.269-0.149s0.236-0.188,0.414-0.354c0.15-0.14,0.264-0.258,0.34-0.356
			s0.129-0.187,0.158-0.269c0.026-0.068,0.039-0.137,0.039-0.205c0-0.098-0.029-0.174-0.09-0.229
			c-0.061-0.055-0.158-0.093-0.295-0.112V42.75h2.103v0.239c-0.149,0.029-0.31,0.096-0.479,0.2c-0.169,0.104-0.343,0.241-0.522,0.41
			l-1.121,1.064l1.404,1.834c0.163,0.215,0.311,0.374,0.441,0.477c0.133,0.103,0.276,0.17,0.432,0.202v0.239h-1.873v-0.239
			c0.085-0.01,0.147-0.028,0.188-0.056c0.041-0.028,0.062-0.074,0.062-0.14c0-0.049-0.009-0.097-0.026-0.144
			c-0.019-0.047-0.055-0.111-0.11-0.193c-0.056-0.081-0.155-0.223-0.302-0.424l-0.581-0.781c-0.11-0.146-0.189-0.242-0.237-0.288
			c-0.047-0.045-0.096-0.078-0.148-0.098c-0.052-0.02-0.121-0.029-0.209-0.029h-0.273v1.172c0,0.279,0.013,0.474,0.039,0.583
			c0.025,0.108,0.075,0.191,0.148,0.249c0.073,0.057,0.192,0.106,0.358,0.148v0.239h-1.937v-0.239
			c0.162-0.042,0.275-0.086,0.339-0.132c0.063-0.045,0.108-0.1,0.137-0.163c0.027-0.063,0.047-0.149,0.059-0.259
			c0.011-0.109,0.017-0.251,0.017-0.427V42.11c0-0.312-0.002-0.53-0.008-0.654c-0.004-0.124-0.018-0.229-0.038-0.315
			c-0.021-0.086-0.051-0.154-0.088-0.202c-0.038-0.049-0.088-0.088-0.151-0.117s-0.178-0.059-0.344-0.088V40.48l1.176-0.049h0.293
			V44.697z"/>
		<path fill="#010101" stroke="#010101" stroke-width="0.2856" stroke-miterlimit="10" d="M149.562,44.697h0.155
			c0.107,0,0.195-0.012,0.264-0.034c0.081-0.029,0.171-0.079,0.269-0.149s0.235-0.188,0.415-0.354
			c0.149-0.14,0.263-0.258,0.339-0.356s0.129-0.187,0.158-0.269c0.026-0.068,0.039-0.137,0.039-0.205c0-0.098-0.03-0.174-0.09-0.229
			c-0.061-0.055-0.159-0.093-0.295-0.112V42.75h2.103v0.239c-0.149,0.029-0.31,0.096-0.479,0.2c-0.169,0.104-0.343,0.241-0.521,0.41
			l-1.122,1.064l1.404,1.834c0.163,0.215,0.311,0.374,0.442,0.477c0.131,0.103,0.275,0.17,0.432,0.202v0.239H151.2v-0.239
			c0.085-0.01,0.147-0.028,0.188-0.056c0.04-0.028,0.061-0.074,0.061-0.14c0-0.049-0.009-0.097-0.026-0.144
			c-0.019-0.047-0.055-0.111-0.11-0.193c-0.056-0.081-0.156-0.223-0.303-0.424l-0.58-0.781c-0.11-0.146-0.189-0.242-0.236-0.288
			c-0.048-0.045-0.098-0.078-0.149-0.098s-0.122-0.029-0.21-0.029h-0.272v1.172c0,0.279,0.013,0.474,0.039,0.583
			c0.025,0.108,0.075,0.191,0.148,0.249c0.073,0.057,0.192,0.106,0.358,0.148v0.239h-1.937v-0.239
			c0.162-0.042,0.275-0.086,0.339-0.132c0.063-0.045,0.108-0.1,0.137-0.163c0.027-0.063,0.047-0.149,0.059-0.259
			c0.011-0.109,0.017-0.251,0.017-0.427V42.11c0-0.312-0.002-0.53-0.007-0.654s-0.019-0.229-0.039-0.315
			c-0.021-0.086-0.051-0.154-0.088-0.202c-0.037-0.049-0.088-0.088-0.151-0.117s-0.178-0.059-0.344-0.088V40.48l1.176-0.049h0.293
			V44.697z"/>
	</g>
</g>
<g>
	<g>
		<path fill="#010101" d="M39.885,10.069c0,0.109,0.006,0.191,0.019,0.247s0.034,0.101,0.065,0.135
			c0.031,0.035,0.075,0.063,0.134,0.082c0.058,0.02,0.132,0.035,0.22,0.045c0.088,0.011,0.205,0.018,0.35,0.021v0.206h-2.084v-0.206
			c0.209-0.01,0.357-0.022,0.447-0.038c0.089-0.016,0.157-0.04,0.204-0.072c0.047-0.031,0.081-0.077,0.103-0.135
			c0.021-0.059,0.033-0.153,0.033-0.285V7.781c0-0.075-0.014-0.131-0.04-0.165c-0.026-0.035-0.065-0.053-0.116-0.053
			c-0.06,0-0.145,0.031-0.256,0.094c-0.111,0.062-0.248,0.147-0.412,0.257l-0.124-0.218l1.32-0.787h0.155
			c-0.012,0.181-0.018,0.431-0.018,0.751V10.069z"/>
		<path fill="#010101" d="M60.416,10.354c0.093,0,0.167-0.006,0.224-0.018c0.056-0.011,0.102-0.029,0.136-0.056
			c0.033-0.026,0.061-0.062,0.08-0.104S60.9,10.07,60.93,9.981h0.24l-0.049,0.824h-2.32v-0.136c0.08-0.197,0.189-0.399,0.326-0.606
			c0.138-0.207,0.332-0.45,0.584-0.73c0.219-0.241,0.375-0.424,0.472-0.548c0.104-0.135,0.184-0.252,0.235-0.351
			s0.089-0.192,0.111-0.279c0.023-0.088,0.034-0.176,0.034-0.265c0-0.141-0.022-0.266-0.067-0.373
			c-0.045-0.108-0.115-0.193-0.208-0.256c-0.093-0.062-0.21-0.093-0.351-0.093c-0.352,0-0.589,0.195-0.711,0.587h-0.342V7.213
			c0.228-0.107,0.441-0.185,0.639-0.232c0.199-0.048,0.377-0.072,0.535-0.072c0.35,0,0.613,0.077,0.793,0.229
			c0.178,0.153,0.268,0.376,0.268,0.668c0,0.1-0.01,0.191-0.029,0.274c-0.02,0.084-0.051,0.167-0.094,0.249
			c-0.042,0.082-0.1,0.17-0.17,0.264c-0.072,0.094-0.15,0.189-0.237,0.286s-0.236,0.258-0.448,0.484
			c-0.357,0.378-0.62,0.708-0.787,0.99H60.416z"/>
		<path fill="#010101" d="M98.441,7.752V7.216c0.219-0.104,0.423-0.181,0.612-0.231s0.373-0.076,0.55-0.076
			c0.213,0,0.398,0.033,0.559,0.099c0.16,0.066,0.282,0.16,0.367,0.283c0.084,0.124,0.127,0.271,0.127,0.442
			c0,0.159-0.032,0.3-0.097,0.422c-0.063,0.121-0.153,0.227-0.269,0.317c-0.116,0.09-0.266,0.179-0.45,0.265v0.025
			c0.114,0.021,0.225,0.057,0.331,0.106s0.201,0.114,0.284,0.192c0.082,0.079,0.148,0.174,0.198,0.284s0.075,0.235,0.075,0.377
			c0,0.218-0.048,0.411-0.143,0.581c-0.095,0.169-0.24,0.303-0.436,0.4c-0.196,0.098-0.434,0.146-0.714,0.146
			c-0.162,0-0.336-0.019-0.523-0.055c-0.188-0.037-0.358-0.085-0.515-0.146v-0.598h0.339c0.065,0.195,0.152,0.337,0.261,0.426
			c0.107,0.088,0.255,0.133,0.441,0.133c0.244,0,0.429-0.067,0.554-0.2c0.125-0.134,0.188-0.331,0.188-0.593
			c0-0.274-0.082-0.484-0.248-0.63c-0.165-0.145-0.408-0.217-0.728-0.217h-0.254V8.723c0.254-0.016,0.468-0.064,0.642-0.146
			c0.174-0.083,0.304-0.189,0.388-0.319c0.085-0.13,0.127-0.275,0.127-0.438c0-0.209-0.056-0.369-0.166-0.482
			c-0.111-0.112-0.272-0.169-0.485-0.169c-0.177,0-0.32,0.048-0.432,0.144s-0.192,0.243-0.245,0.44H98.441z"/>
		<path fill="#010101" d="M120.053,10.667c0.117-0.029,0.195-0.063,0.234-0.1c0.04-0.037,0.065-0.089,0.078-0.156
			c0.012-0.068,0.018-0.172,0.018-0.311V9.637h-1.568V9.425l1.65-2.491h0.403v2.43h0.06c0.108,0,0.187-0.009,0.233-0.024
			c0.048-0.016,0.087-0.044,0.117-0.085c0.031-0.04,0.06-0.106,0.086-0.198h0.215l-0.034,0.581h-0.677V10.1
			c0,0.126,0.004,0.218,0.013,0.276s0.022,0.104,0.042,0.138c0.021,0.034,0.049,0.063,0.088,0.085
			c0.038,0.022,0.101,0.045,0.188,0.067v0.139h-1.146V10.667z M119.28,9.364h1.103V8.661c0-0.177,0.003-0.375,0.009-0.594
			s0.012-0.384,0.02-0.495h-0.028l-1.103,1.752V9.364z"/>
	</g>
	<g>
		<path fill="#010101" d="M50.559,5.868c-0.039,0.04-0.086,0.06-0.139,0.06h-2.918v2.929c0,0.053-0.021,0.1-0.061,0.14
			c-0.039,0.04-0.086,0.061-0.14,0.061s-0.101-0.021-0.14-0.061c-0.04-0.04-0.061-0.087-0.061-0.14V5.928h-2.918
			c-0.053,0-0.1-0.02-0.139-0.06c-0.041-0.04-0.061-0.086-0.061-0.14c0-0.054,0.02-0.1,0.061-0.14c0.039-0.04,0.086-0.06,0.139-0.06
			h2.918V2.6c0-0.053,0.021-0.1,0.061-0.14c0.039-0.04,0.086-0.06,0.14-0.06s0.101,0.02,0.14,0.06c0.04,0.04,0.061,0.086,0.061,0.14
			v2.929h2.918c0.053,0,0.1,0.02,0.139,0.06c0.041,0.04,0.061,0.086,0.061,0.14C50.619,5.782,50.6,5.828,50.559,5.868z"/>
		<path fill="#010101" d="M71.383,4.899c-0.04,0.04-0.086,0.06-0.14,0.06h-6.235c-0.053,0-0.1-0.02-0.14-0.06
			c-0.04-0.04-0.06-0.087-0.06-0.14s0.02-0.1,0.06-0.14s0.087-0.06,0.14-0.06h6.235c0.054,0,0.1,0.02,0.14,0.06
			s0.061,0.087,0.061,0.14S71.423,4.859,71.383,4.899z M71.383,6.837c-0.04,0.04-0.086,0.061-0.14,0.061h-6.235
			c-0.053,0-0.1-0.021-0.14-0.061s-0.06-0.086-0.06-0.14c0-0.053,0.02-0.1,0.06-0.14c0.04-0.04,0.087-0.06,0.14-0.06h6.235
			c0.054,0,0.1,0.02,0.14,0.06c0.04,0.04,0.061,0.086,0.061,0.14C71.443,6.751,71.423,6.797,71.383,6.837z"/>
		<path fill="#010101" d="M89.648,4.899c-0.04,0.04-0.087,0.06-0.141,0.06h-6.234c-0.054,0-0.101-0.02-0.141-0.06
			c-0.04-0.04-0.06-0.087-0.06-0.14s0.02-0.1,0.06-0.14s0.087-0.06,0.141-0.06h6.234c0.054,0,0.101,0.02,0.141,0.06
			c0.039,0.04,0.06,0.087,0.06,0.14S89.688,4.859,89.648,4.899z M89.648,6.837c-0.04,0.04-0.087,0.061-0.141,0.061h-6.234
			c-0.054,0-0.101-0.021-0.141-0.061s-0.06-0.086-0.06-0.14c0-0.053,0.02-0.1,0.06-0.14c0.04-0.04,0.087-0.06,0.141-0.06h6.234
			c0.054,0,0.101,0.02,0.141,0.06c0.039,0.04,0.06,0.086,0.06,0.14C89.708,6.751,89.688,6.797,89.648,6.837z"/>
		<path fill="#010101" d="M110.532,5.868c-0.04,0.04-0.087,0.06-0.141,0.06h-2.917v2.929c0,0.053-0.021,0.1-0.061,0.14
			s-0.087,0.061-0.14,0.061c-0.054,0-0.1-0.021-0.14-0.061s-0.061-0.087-0.061-0.14V5.928h-2.917c-0.054,0-0.101-0.02-0.141-0.06
			s-0.06-0.086-0.06-0.14c0-0.054,0.02-0.1,0.06-0.14s0.087-0.06,0.141-0.06h2.917V2.6c0-0.053,0.021-0.1,0.061-0.14
			s0.086-0.06,0.14-0.06c0.053,0,0.1,0.02,0.14,0.06s0.061,0.086,0.061,0.14v2.929h2.917c0.054,0,0.101,0.02,0.141,0.06
			c0.039,0.04,0.06,0.086,0.06,0.14C110.592,5.782,110.571,5.828,110.532,5.868z"/>
	</g>
	<g>
		<path fill="#010101" stroke="#010101" stroke-width="0.2856" stroke-miterlimit="10" d="M33.896,5.509h0.156
			c0.107,0,0.195-0.012,0.263-0.034c0.081-0.029,0.171-0.079,0.269-0.149s0.236-0.188,0.414-0.354c0.15-0.14,0.264-0.258,0.34-0.356
			s0.129-0.187,0.158-0.269c0.026-0.068,0.039-0.137,0.039-0.205c0-0.098-0.029-0.174-0.09-0.229
			C35.385,3.857,35.287,3.82,35.15,3.8V3.562h2.103V3.8c-0.149,0.029-0.31,0.096-0.479,0.2c-0.169,0.104-0.343,0.241-0.522,0.41
			l-1.121,1.064l1.404,1.834c0.163,0.215,0.311,0.374,0.441,0.477c0.133,0.103,0.276,0.17,0.432,0.202v0.239h-1.873V7.988
			c0.085-0.01,0.147-0.028,0.188-0.056c0.041-0.028,0.062-0.074,0.062-0.14c0-0.049-0.009-0.097-0.026-0.144
			c-0.019-0.047-0.055-0.111-0.11-0.193c-0.056-0.081-0.155-0.223-0.302-0.424L34.765,6.25c-0.11-0.146-0.189-0.242-0.237-0.288
			c-0.047-0.045-0.096-0.078-0.148-0.098c-0.052-0.02-0.121-0.029-0.209-0.029h-0.273v1.172c0,0.279,0.013,0.474,0.039,0.583
			c0.025,0.108,0.075,0.191,0.148,0.249c0.073,0.057,0.192,0.106,0.358,0.148v0.239h-1.937V7.988
			c0.162-0.042,0.275-0.086,0.339-0.132c0.063-0.045,0.108-0.1,0.137-0.163c0.027-0.063,0.047-0.149,0.059-0.259
			c0.011-0.109,0.017-0.251,0.017-0.427V2.922c0-0.312-0.002-0.53-0.008-0.654c-0.004-0.124-0.018-0.229-0.038-0.315
			c-0.021-0.086-0.051-0.154-0.088-0.202c-0.038-0.049-0.088-0.088-0.151-0.117s-0.178-0.059-0.344-0.088V1.292l1.176-0.049h0.293
			V5.509z"/>
		<path fill="#010101" stroke="#010101" stroke-width="0.2856" stroke-miterlimit="10" d="M54.314,5.509h0.156
			c0.107,0,0.195-0.012,0.263-0.034c0.081-0.029,0.171-0.079,0.269-0.149s0.236-0.188,0.414-0.354c0.15-0.14,0.264-0.258,0.34-0.356
			s0.129-0.187,0.158-0.269c0.026-0.068,0.039-0.137,0.039-0.205c0-0.098-0.029-0.174-0.09-0.229
			C55.803,3.857,55.705,3.82,55.568,3.8V3.562h2.103V3.8c-0.149,0.029-0.31,0.096-0.479,0.2c-0.169,0.104-0.343,0.241-0.522,0.41
			l-1.121,1.064l1.404,1.834c0.163,0.215,0.311,0.374,0.441,0.477c0.133,0.103,0.276,0.17,0.432,0.202v0.239h-1.873V7.988
			c0.085-0.01,0.147-0.028,0.188-0.056c0.041-0.028,0.062-0.074,0.062-0.14c0-0.049-0.009-0.097-0.026-0.144
			c-0.019-0.047-0.055-0.111-0.11-0.193c-0.056-0.081-0.155-0.223-0.302-0.424L55.183,6.25c-0.11-0.146-0.189-0.242-0.237-0.288
			c-0.047-0.045-0.096-0.078-0.148-0.098c-0.052-0.02-0.121-0.029-0.209-0.029h-0.273v1.172c0,0.279,0.013,0.474,0.039,0.583
			c0.025,0.108,0.075,0.191,0.148,0.249c0.073,0.057,0.192,0.106,0.358,0.148v0.239h-1.937V7.988
			c0.162-0.042,0.275-0.086,0.339-0.132c0.063-0.045,0.108-0.1,0.137-0.163c0.027-0.063,0.047-0.149,0.059-0.259
			c0.011-0.109,0.017-0.251,0.017-0.427V2.922c0-0.312-0.002-0.53-0.008-0.654c-0.004-0.124-0.018-0.229-0.038-0.315
			c-0.021-0.086-0.051-0.154-0.088-0.202c-0.038-0.049-0.088-0.088-0.151-0.117s-0.178-0.059-0.344-0.088V1.292l1.176-0.049h0.293
			V5.509z"/>
		<path fill="#010101" stroke="#010101" stroke-width="0.2856" stroke-miterlimit="10" d="M75.834,4.577h0.146
			c0.123,0,0.236-0.02,0.339-0.059s0.218-0.112,0.344-0.22c0.127-0.107,0.32-0.308,0.581-0.6c0.313-0.348,0.525-0.601,0.639-0.757
			c0.144-0.185,0.239-0.341,0.288-0.468c0.039-0.094,0.059-0.186,0.059-0.273c0-0.13-0.037-0.225-0.112-0.286
			c-0.075-0.06-0.178-0.097-0.308-0.11V1.565h2.127v0.239c-0.104,0.023-0.206,0.063-0.307,0.12
			c-0.102,0.057-0.204,0.135-0.311,0.234c-0.105,0.099-0.261,0.263-0.466,0.491l-1.639,1.845l1.775,2.582
			c0.188,0.272,0.337,0.464,0.444,0.573c0.107,0.108,0.21,0.188,0.308,0.239c0.098,0.05,0.201,0.083,0.312,0.1v0.239h-2.151V7.988
			c0.12-0.01,0.208-0.032,0.264-0.068c0.056-0.035,0.083-0.089,0.083-0.161c0-0.059-0.019-0.129-0.057-0.212
			c-0.037-0.083-0.097-0.184-0.178-0.301l-1.137-1.693c-0.134-0.202-0.231-0.335-0.293-0.4s-0.128-0.113-0.2-0.144
			c-0.071-0.031-0.167-0.046-0.287-0.046h-0.259v2.045c0,0.218,0.007,0.377,0.022,0.478c0.014,0.102,0.039,0.181,0.072,0.239
			c0.034,0.059,0.085,0.107,0.151,0.146c0.067,0.039,0.175,0.078,0.325,0.117v0.239h-2.055V7.988
			c0.201-0.052,0.336-0.109,0.404-0.173s0.113-0.154,0.135-0.271s0.031-0.296,0.031-0.536V2.785c0-0.224-0.008-0.388-0.023-0.49
			c-0.017-0.103-0.043-0.182-0.081-0.239c-0.037-0.057-0.087-0.103-0.148-0.137s-0.168-0.072-0.317-0.115V1.565h2.055v0.239
			C76.267,1.84,76.163,1.876,76.1,1.912c-0.063,0.036-0.113,0.081-0.151,0.134C75.911,2.1,75.883,2.18,75.865,2.288
			s-0.026,0.273-0.026,0.498L75.834,4.577z"/>
		<path fill="#010101" stroke="#010101" stroke-width="0.2856" stroke-miterlimit="10" d="M93.961,5.509h0.155
			c0.107,0,0.195-0.012,0.264-0.034c0.081-0.029,0.171-0.079,0.269-0.149s0.235-0.188,0.415-0.354
			c0.149-0.14,0.263-0.258,0.339-0.356s0.129-0.187,0.158-0.269C95.587,4.279,95.6,4.21,95.6,4.142c0-0.098-0.03-0.174-0.09-0.229
			C95.449,3.857,95.351,3.82,95.215,3.8V3.562h2.103V3.8c-0.149,0.029-0.31,0.096-0.479,0.2c-0.169,0.104-0.343,0.241-0.521,0.41
			l-1.122,1.064L96.6,7.309c0.163,0.215,0.311,0.374,0.442,0.477c0.131,0.103,0.275,0.17,0.432,0.202v0.239H95.6V7.988
			c0.085-0.01,0.147-0.028,0.188-0.056c0.04-0.028,0.061-0.074,0.061-0.14c0-0.049-0.009-0.097-0.026-0.144
			c-0.019-0.047-0.055-0.111-0.11-0.193c-0.056-0.081-0.156-0.223-0.303-0.424l-0.58-0.781c-0.11-0.146-0.189-0.242-0.236-0.288
			c-0.048-0.045-0.098-0.078-0.149-0.098s-0.122-0.029-0.21-0.029h-0.272v1.172c0,0.279,0.013,0.474,0.039,0.583
			c0.025,0.108,0.075,0.191,0.148,0.249c0.073,0.057,0.192,0.106,0.358,0.148v0.239H92.57V7.988
			c0.162-0.042,0.275-0.086,0.339-0.132c0.063-0.045,0.108-0.1,0.137-0.163c0.027-0.063,0.047-0.149,0.059-0.259
			c0.011-0.109,0.017-0.251,0.017-0.427V2.922c0-0.312-0.002-0.53-0.007-0.654s-0.019-0.229-0.039-0.315
			c-0.021-0.086-0.051-0.154-0.088-0.202c-0.037-0.049-0.088-0.088-0.151-0.117s-0.178-0.059-0.344-0.088V1.292l1.176-0.049h0.293
			V5.509z"/>
		<path fill="#010101" stroke="#010101" stroke-width="0.2856" stroke-miterlimit="10" d="M114.278,5.509h0.155
			c0.107,0,0.195-0.012,0.264-0.034c0.081-0.029,0.171-0.079,0.269-0.149s0.235-0.188,0.415-0.354
			c0.149-0.14,0.263-0.258,0.339-0.356s0.129-0.187,0.158-0.269c0.026-0.068,0.039-0.137,0.039-0.205c0-0.098-0.03-0.174-0.09-0.229
			c-0.061-0.055-0.159-0.093-0.295-0.112V3.562h2.103V3.8c-0.149,0.029-0.31,0.096-0.479,0.2c-0.169,0.104-0.343,0.241-0.521,0.41
			l-1.122,1.064l1.404,1.834c0.163,0.215,0.311,0.374,0.442,0.477c0.131,0.103,0.275,0.17,0.432,0.202v0.239h-1.874V7.988
			c0.085-0.01,0.147-0.028,0.188-0.056c0.04-0.028,0.061-0.074,0.061-0.14c0-0.049-0.009-0.097-0.026-0.144
			c-0.019-0.047-0.055-0.111-0.11-0.193c-0.056-0.081-0.156-0.223-0.303-0.424l-0.58-0.781c-0.11-0.146-0.189-0.242-0.236-0.288
			c-0.048-0.045-0.098-0.078-0.149-0.098s-0.122-0.029-0.21-0.029h-0.272v1.172c0,0.279,0.013,0.474,0.039,0.583
			c0.025,0.108,0.075,0.191,0.148,0.249c0.073,0.057,0.192,0.106,0.358,0.148v0.239h-1.937V7.988
			c0.162-0.042,0.275-0.086,0.339-0.132c0.063-0.045,0.108-0.1,0.137-0.163c0.027-0.063,0.047-0.149,0.059-0.259
			c0.011-0.109,0.017-0.251,0.017-0.427V2.922c0-0.312-0.002-0.53-0.007-0.654s-0.019-0.229-0.039-0.315
			c-0.021-0.086-0.051-0.154-0.088-0.202c-0.037-0.049-0.088-0.088-0.151-0.117s-0.178-0.059-0.344-0.088V1.292l1.176-0.049h0.293
			V5.509z"/>
	</g>
</g>
</svg>
