<?xml version="1.0" encoding="utf-8"?>
<!DOCTYPE svg PUBLIC "-//W3C//DTD SVG 1.1 Tiny//EN" "http://www.w3.org/Graphics/SVG/1.1/DTD/svg11-tiny.dtd" [
	<!ENTITY ns_flows "http://ns.adobe.com/Flows/1.0/">
]>
<svg version="1.1" baseProfile="tiny"
	 xmlns="http://www.w3.org/2000/svg" xmlns:xlink="http://www.w3.org/1999/xlink" xmlns:a="http://ns.adobe.com/AdobeSVGViewerExtensions/3.0/"
	 x="0px" y="0px" width="229px" height="156px" viewBox="-0.114 -0.345 229 156" xml:space="preserve">
<defs>
</defs>
<line fill="none" stroke="#000000" stroke-width="0.5" x1="0" y1="114.989" x2="216" y2="114.989"/>
<polygon points="214.811,116.71 221.315,114.968 214.811,113.225 "/>
<line fill="none" stroke="#000000" stroke-width="0.5" x1="108" y1="155.489" x2="108" y2="6.989"/>
<polygon points="109.721,6.989 107.979,0.484 106.235,6.989 "/>
<polygon points="136.934,118.476 143.438,115.045 136.934,111.614 "/>
<polygon points="177.332,66.749 170.663,63.648 171.87,70.902 "/>
<polygon points="77.165,36.431 72.553,42.16 79.884,42.73 "/>
<path fill="none" stroke="#000000" d="M27,114.989c0-44.735,36.265-81,81-81c44.736,0,81,36.265,81,81"/>
<line fill="none" stroke="#000000" stroke-linecap="round" stroke-linejoin="round" x1="27" y1="114.989" x2="189" y2="114.989"/>
<g>
	<path d="M31.903,124.051c0,0.229-0.026,0.387-0.079,0.475s-0.129,0.132-0.229,0.132h-3.674c-0.105,0-0.185-0.045-0.237-0.136
		s-0.079-0.248-0.079-0.47s0.026-0.378,0.079-0.466s0.132-0.132,0.237-0.132h3.674c0.047,0,0.089,0.009,0.127,0.026
		s0.07,0.051,0.097,0.101s0.047,0.113,0.062,0.189S31.903,123.939,31.903,124.051z"/>
	<path d="M41.844,119.498c0,0.404-0.057,0.788-0.171,1.151s-0.287,0.697-0.519,1.002s-0.521,0.576-0.87,0.813
		s-0.754,0.429-1.217,0.576c0.311,0.111,0.563,0.346,0.756,0.703s0.343,0.829,0.448,1.415l0.466,2.514
		c0.018,0.111,0.034,0.215,0.048,0.312s0.022,0.183,0.022,0.259c0,0.053-0.015,0.098-0.044,0.136s-0.076,0.069-0.141,0.092
		s-0.154,0.041-0.268,0.053s-0.253,0.018-0.417,0.018c-0.152,0-0.275-0.006-0.369-0.018s-0.166-0.032-0.215-0.062
		s-0.085-0.066-0.105-0.11s-0.037-0.104-0.048-0.18l-0.448-2.672c-0.047-0.311-0.113-0.592-0.198-0.844s-0.204-0.47-0.356-0.655
		s-0.347-0.328-0.584-0.431s-0.526-0.154-0.866-0.154h-1.011l-0.976,4.852c-0.012,0.041-0.032,0.079-0.062,0.114
		s-0.076,0.063-0.141,0.083s-0.146,0.038-0.246,0.053s-0.223,0.022-0.369,0.022c-0.135,0-0.25-0.006-0.347-0.018
		s-0.171-0.028-0.224-0.048s-0.089-0.048-0.11-0.083s-0.025-0.076-0.013-0.123l2.109-10.538c0.047-0.229,0.141-0.388,0.281-0.479
		s0.296-0.136,0.466-0.136h2.47c0.539,0,1.012,0.053,1.419,0.158s0.749,0.259,1.024,0.461s0.482,0.451,0.62,0.747
		S41.844,119.117,41.844,119.498z M40.209,119.735c0-0.199-0.035-0.384-0.105-0.554s-0.18-0.316-0.33-0.439
		s-0.346-0.217-0.589-0.281s-0.532-0.097-0.866-0.097h-1.573l-0.773,3.832h1.336c0.521,0,0.965-0.07,1.332-0.211
		s0.665-0.327,0.896-0.558s0.401-0.494,0.51-0.787S40.209,120.046,40.209,119.735z"/>
</g>
<g>
	<path d="M198.333,119.498c0,0.404-0.057,0.788-0.172,1.151c-0.113,0.363-0.287,0.697-0.518,1.002
		c-0.232,0.305-0.522,0.576-0.871,0.813s-0.754,0.429-1.217,0.576c0.311,0.111,0.563,0.346,0.756,0.703s0.343,0.829,0.448,1.415
		l0.466,2.514c0.018,0.111,0.033,0.215,0.049,0.312c0.014,0.097,0.021,0.183,0.021,0.259c0,0.053-0.015,0.098-0.044,0.136
		s-0.076,0.069-0.141,0.092s-0.153,0.041-0.269,0.053c-0.113,0.012-0.253,0.018-0.417,0.018c-0.152,0-0.275-0.006-0.369-0.018
		s-0.166-0.032-0.216-0.062s-0.085-0.066-0.105-0.11s-0.036-0.104-0.048-0.18l-0.448-2.672c-0.047-0.311-0.113-0.592-0.197-0.844
		c-0.086-0.252-0.204-0.47-0.356-0.655s-0.347-0.328-0.585-0.431c-0.236-0.103-0.525-0.154-0.865-0.154h-1.011l-0.976,4.852
		c-0.012,0.041-0.032,0.079-0.062,0.114s-0.076,0.063-0.141,0.083s-0.146,0.038-0.246,0.053s-0.223,0.022-0.369,0.022
		c-0.135,0-0.251-0.006-0.347-0.018c-0.098-0.012-0.172-0.028-0.225-0.048s-0.09-0.048-0.109-0.083
		c-0.021-0.035-0.025-0.076-0.014-0.123l2.109-10.538c0.047-0.229,0.141-0.388,0.281-0.479s0.296-0.136,0.466-0.136h2.47
		c0.539,0,1.012,0.053,1.42,0.158c0.406,0.105,0.748,0.259,1.023,0.461s0.481,0.451,0.619,0.747S198.333,119.117,198.333,119.498z
		 M196.698,119.735c0-0.199-0.035-0.384-0.105-0.554s-0.18-0.316-0.33-0.439c-0.148-0.123-0.346-0.217-0.588-0.281
		c-0.244-0.064-0.532-0.097-0.866-0.097h-1.573l-0.773,3.832h1.336c0.521,0,0.965-0.07,1.332-0.211
		c0.365-0.141,0.664-0.327,0.896-0.558c0.23-0.231,0.4-0.494,0.51-0.787C196.644,120.348,196.698,120.046,196.698,119.735z"/>
</g>
<g>
	<path d="M62.094,23.478c0,0.047-0.003,0.101-0.009,0.163s-0.016,0.126-0.031,0.193s-0.032,0.138-0.053,0.211
		s-0.045,0.138-0.075,0.193s-0.063,0.101-0.101,0.136s-0.081,0.053-0.127,0.053c-0.064,0-0.154-0.038-0.268-0.114
		s-0.261-0.157-0.439-0.242s-0.391-0.166-0.637-0.242s-0.53-0.114-0.853-0.114c-0.357,0-0.671,0.054-0.94,0.163
		s-0.495,0.255-0.677,0.439s-0.318,0.394-0.409,0.628s-0.136,0.478-0.136,0.729c0,0.258,0.057,0.483,0.171,0.677
		s0.264,0.369,0.448,0.527s0.396,0.308,0.633,0.448s0.479,0.284,0.725,0.431s0.489,0.303,0.729,0.47s0.453,0.36,0.637,0.58
		s0.334,0.472,0.448,0.756s0.171,0.614,0.171,0.989c0,0.498-0.103,0.965-0.308,1.402s-0.497,0.817-0.875,1.143
		s-0.833,0.583-1.367,0.773s-1.128,0.286-1.784,0.286c-0.357,0-0.69-0.031-0.998-0.092s-0.584-0.138-0.831-0.229
		s-0.454-0.185-0.624-0.281s-0.293-0.183-0.369-0.259s-0.114-0.188-0.114-0.334c0-0.035,0.004-0.085,0.013-0.149
		s0.022-0.135,0.04-0.211s0.037-0.151,0.057-0.224s0.047-0.141,0.079-0.202s0.067-0.111,0.105-0.149s0.083-0.057,0.136-0.057
		c0.094,0,0.211,0.047,0.352,0.141s0.315,0.195,0.523,0.303s0.456,0.209,0.743,0.303s0.624,0.141,1.011,0.141
		c0.41,0,0.776-0.057,1.099-0.171s0.593-0.27,0.813-0.466s0.388-0.426,0.505-0.69s0.176-0.545,0.176-0.844
		c0-0.264-0.056-0.494-0.167-0.69s-0.258-0.374-0.439-0.532s-0.391-0.305-0.628-0.439s-0.478-0.275-0.721-0.422
		s-0.482-0.303-0.716-0.47s-0.442-0.36-0.624-0.58s-0.33-0.472-0.444-0.756s-0.171-0.617-0.171-0.998
		c0-0.463,0.091-0.896,0.272-1.301s0.439-0.759,0.773-1.063s0.738-0.545,1.213-0.721s1.005-0.264,1.591-0.264
		c0.281,0,0.549,0.023,0.804,0.07s0.485,0.104,0.69,0.171s0.381,0.141,0.527,0.22s0.246,0.145,0.299,0.198s0.091,0.107,0.114,0.163
		S62.094,23.396,62.094,23.478z"/>
	<path d="M68.36,32.495c0,0.27-0.038,0.525-0.114,0.768s-0.191,0.465-0.346,0.668s-0.348,0.384-0.58,0.542s-0.503,0.286-0.812,0.384
		c0.207,0.074,0.375,0.23,0.504,0.469s0.229,0.553,0.299,0.943l0.311,1.676c0.012,0.074,0.022,0.144,0.032,0.208
		s0.015,0.122,0.015,0.173c0,0.035-0.01,0.065-0.029,0.091s-0.051,0.046-0.094,0.062s-0.103,0.027-0.179,0.035
		s-0.169,0.012-0.278,0.012c-0.102,0-0.184-0.004-0.246-0.012s-0.11-0.021-0.144-0.041s-0.057-0.044-0.07-0.073
		s-0.024-0.069-0.032-0.12l-0.299-1.781c-0.031-0.207-0.075-0.395-0.132-0.563s-0.136-0.313-0.237-0.437s-0.231-0.219-0.39-0.287
		s-0.351-0.103-0.577-0.103h-0.674l-0.65,3.234c-0.008,0.027-0.021,0.053-0.041,0.076s-0.051,0.042-0.094,0.056
		s-0.098,0.025-0.164,0.035s-0.148,0.015-0.246,0.015c-0.09,0-0.167-0.004-0.231-0.012s-0.114-0.019-0.149-0.032
		s-0.06-0.032-0.073-0.056s-0.017-0.051-0.009-0.082l1.406-7.025c0.031-0.152,0.094-0.259,0.188-0.319s0.197-0.091,0.311-0.091
		h1.646c0.359,0,0.675,0.035,0.946,0.105s0.499,0.173,0.683,0.308s0.321,0.301,0.413,0.498S68.36,32.241,68.36,32.495z
		 M67.271,32.653c0-0.133-0.023-0.256-0.07-0.369s-0.12-0.211-0.22-0.293s-0.23-0.145-0.393-0.188s-0.354-0.064-0.577-0.064h-1.049
		l-0.516,2.555h0.891c0.348,0,0.644-0.047,0.888-0.141s0.443-0.218,0.598-0.372s0.268-0.329,0.34-0.524S67.271,32.86,67.271,32.653z
		"/>
</g>
<g>
	<path d="M155.431,81.049c0,0.035-0.004,0.082-0.014,0.141c-0.008,0.059-0.019,0.125-0.03,0.198s-0.03,0.145-0.058,0.215
		c-0.025,0.07-0.057,0.135-0.092,0.193s-0.074,0.107-0.119,0.145c-0.043,0.038-0.095,0.057-0.153,0.057h-4.113l-1.978,9.888
		c-0.006,0.047-0.025,0.088-0.057,0.123c-0.033,0.035-0.081,0.063-0.146,0.083s-0.146,0.038-0.246,0.053s-0.22,0.022-0.36,0.022
		c-0.152,0-0.275-0.007-0.369-0.022s-0.167-0.032-0.22-0.053s-0.088-0.048-0.105-0.083s-0.021-0.076-0.009-0.123l2.101-10.494
		c0.047-0.234,0.142-0.401,0.286-0.501c0.143-0.1,0.291-0.149,0.443-0.149h5.027c0.076,0,0.13,0.028,0.162,0.083
		S155.431,80.955,155.431,81.049z"/>
	<path d="M160.326,90.62c0,0.27-0.038,0.525-0.114,0.768s-0.191,0.465-0.346,0.668s-0.348,0.384-0.58,0.542
		s-0.503,0.286-0.812,0.384c0.207,0.074,0.375,0.23,0.504,0.469s0.229,0.553,0.299,0.943l0.311,1.676
		c0.012,0.074,0.022,0.144,0.032,0.208s0.015,0.122,0.015,0.173c0,0.035-0.01,0.065-0.029,0.091s-0.051,0.046-0.094,0.062
		s-0.103,0.027-0.179,0.035s-0.169,0.012-0.278,0.012c-0.102,0-0.184-0.004-0.246-0.012s-0.11-0.021-0.144-0.041
		s-0.057-0.044-0.07-0.073s-0.024-0.069-0.032-0.12l-0.299-1.781c-0.031-0.207-0.075-0.395-0.132-0.563s-0.136-0.313-0.237-0.437
		s-0.231-0.219-0.39-0.287s-0.351-0.103-0.577-0.103h-0.674l-0.65,3.234c-0.008,0.027-0.021,0.053-0.041,0.076
		s-0.051,0.042-0.094,0.056s-0.098,0.025-0.164,0.035s-0.148,0.015-0.246,0.015c-0.09,0-0.167-0.004-0.231-0.012
		s-0.114-0.019-0.149-0.032s-0.06-0.032-0.073-0.056s-0.017-0.051-0.009-0.082l1.406-7.025c0.031-0.152,0.094-0.259,0.188-0.319
		s0.197-0.091,0.311-0.091h1.646c0.359,0,0.675,0.035,0.946,0.105s0.499,0.173,0.683,0.308s0.321,0.301,0.413,0.498
		S160.326,90.366,160.326,90.62z M159.236,90.778c0-0.133-0.023-0.256-0.07-0.369s-0.12-0.211-0.22-0.293s-0.23-0.145-0.393-0.188
		s-0.354-0.064-0.577-0.064h-1.049l-0.516,2.555h0.891c0.348,0,0.644-0.047,0.888-0.141s0.443-0.218,0.598-0.372
		s0.268-0.329,0.34-0.524S159.236,90.985,159.236,90.778z"/>
</g>
<line fill="none" stroke="#000000" stroke-width="0.5" x1="106.313" y1="141.989" x2="109.688" y2="141.989"/>
<line fill="none" stroke="#000000" stroke-width="0.5" x1="106.313" y1="87.989" x2="109.688" y2="87.989"/>
<g>
	<path d="M115.083,92.832c-0.012,0.047-0.032,0.086-0.062,0.119s-0.073,0.06-0.132,0.083s-0.136,0.041-0.233,0.053
		s-0.215,0.018-0.356,0.018c-0.146,0-0.265-0.006-0.356-0.018s-0.161-0.029-0.211-0.053s-0.082-0.051-0.097-0.083
		s-0.016-0.072-0.004-0.119l1.573-7.91c0.006-0.041,0.023-0.079,0.053-0.114s0.073-0.064,0.132-0.088s0.136-0.041,0.233-0.053
		s0.218-0.018,0.365-0.018c0.141,0,0.256,0.006,0.347,0.018s0.161,0.029,0.211,0.053s0.082,0.053,0.097,0.088
		s0.019,0.073,0.013,0.114L115.083,92.832z M117.359,82.259c-0.029,0.164-0.069,0.302-0.119,0.413s-0.116,0.201-0.198,0.268
		s-0.185,0.116-0.308,0.145s-0.272,0.044-0.448,0.044c-0.17,0-0.311-0.015-0.422-0.044s-0.193-0.078-0.246-0.145
		s-0.082-0.157-0.088-0.268s0.006-0.249,0.035-0.413c0.035-0.164,0.079-0.3,0.132-0.409s0.119-0.199,0.198-0.272
		s0.18-0.123,0.303-0.149s0.272-0.04,0.448-0.04c0.17,0,0.309,0.013,0.417,0.04s0.19,0.076,0.246,0.149s0.086,0.164,0.092,0.272
		S117.395,82.095,117.359,82.259z"/>
</g>
<g>
	<path d="M114.688,145.681c0,0.035-0.001,0.082-0.004,0.141s-0.013,0.122-0.031,0.189s-0.038,0.135-0.062,0.202
		s-0.051,0.13-0.083,0.189s-0.073,0.105-0.123,0.141s-0.104,0.053-0.163,0.053h-3.683c-0.076,0-0.132-0.026-0.167-0.079
		s-0.053-0.132-0.053-0.237c0-0.029,0.003-0.072,0.009-0.127s0.016-0.117,0.031-0.185s0.034-0.136,0.057-0.207
		s0.053-0.133,0.088-0.189s0.075-0.1,0.119-0.132s0.098-0.048,0.163-0.048h3.683c0.082,0,0.139,0.026,0.171,0.079
		S114.688,145.593,114.688,145.681z"/>
	<path d="M117.219,150.207c-0.012,0.047-0.032,0.086-0.062,0.119s-0.073,0.06-0.132,0.083s-0.136,0.041-0.233,0.053
		s-0.215,0.018-0.356,0.018c-0.146,0-0.265-0.006-0.356-0.018s-0.161-0.029-0.211-0.053s-0.082-0.051-0.097-0.083
		s-0.016-0.072-0.004-0.119l1.573-7.91c0.006-0.041,0.023-0.079,0.053-0.114s0.073-0.064,0.132-0.088s0.136-0.041,0.233-0.053
		s0.218-0.018,0.365-0.018c0.141,0,0.256,0.006,0.347,0.018s0.161,0.029,0.211,0.053s0.082,0.053,0.097,0.088
		s0.019,0.073,0.013,0.114L117.219,150.207z M119.495,139.634c-0.029,0.164-0.069,0.302-0.119,0.413s-0.116,0.201-0.198,0.268
		s-0.185,0.116-0.308,0.145s-0.272,0.044-0.448,0.044c-0.17,0-0.311-0.015-0.422-0.044s-0.193-0.078-0.246-0.145
		s-0.082-0.157-0.088-0.268s0.006-0.249,0.035-0.413c0.035-0.164,0.079-0.3,0.132-0.409s0.119-0.199,0.198-0.272
		s0.18-0.123,0.303-0.149s0.272-0.04,0.448-0.04c0.17,0,0.309,0.013,0.417,0.04s0.19,0.076,0.246,0.149s0.086,0.164,0.092,0.272
		S119.53,139.47,119.495,139.634z"/>
</g>
<g>
	<path fill="#010101" d="M208.547,97.977l-1.008,0.558c-0.313,0.168-0.643,0.345-0.99,0.531s-0.695,0.327-1.043,0.423l0.233,4.122
		c-0.06,0.42-0.032,0.81,0.081,1.17c0.114,0.36,0.333,0.642,0.656,0.846l1.477-1.17c0.072-0.048,0.138-0.048,0.198,0l0.162,0.09
		c0.107,0.072,0.132,0.15,0.071,0.234l-1.854,1.404c-0.024,0.024-0.061,0.036-0.108,0.036h-0.198c-0.348,0-0.66-0.075-0.939-0.225
		c-0.278-0.15-0.51-0.345-0.693-0.585c-0.184-0.24-0.312-0.519-0.384-0.837c-0.071-0.318-0.06-0.639,0.037-0.963l-0.216-4.014h-2.07
		v1.674c0,0.601-0.057,1.191-0.171,1.773s-0.31,1.143-0.585,1.683c-0.097,0.18-0.207,0.36-0.333,0.54
		c-0.126,0.18-0.271,0.342-0.432,0.486c-0.162,0.144-0.34,0.258-0.531,0.342c-0.192,0.084-0.402,0.126-0.63,0.126
		c-0.24,0-0.466-0.045-0.676-0.135c-0.21-0.09-0.398-0.21-0.566-0.36s-0.318-0.321-0.45-0.513s-0.24-0.396-0.324-0.612l-0.126-0.306
		l-0.27,0.108c-0.072,0.048-0.133,0.036-0.181-0.036l-0.035-0.036l-0.036-0.054c-0.036-0.072-0.024-0.138,0.036-0.198l0.054-0.036
		l0.288-0.108l-0.072-0.18c-0.024-0.072-0.012-0.132,0.036-0.18l0.072-0.072l0.054-0.036c0.072-0.036,0.138-0.024,0.198,0.036
		l0.036,0.054l0.09,0.216l0.306-0.126c0.06-0.036,0.12-0.024,0.18,0.036l0.036,0.036l0.036,0.054
		c0.036,0.072,0.024,0.138-0.036,0.198l-0.054,0.036l-0.324,0.126l0.108,0.252c0.168,0.384,0.387,0.72,0.657,1.008
		c0.27,0.288,0.591,0.432,0.963,0.432c0.239,0,0.429-0.12,0.566-0.36s0.262-0.541,0.369-0.902c0.132-0.444,0.207-0.961,0.226-1.55
		c0.018-0.589,0.026-1.171,0.026-1.749v-3.443c0-0.553-0.015-1.09-0.045-1.613c-0.03-0.522-0.147-1.024-0.351-1.505
		c-0.133-0.325-0.307-0.604-0.522-0.838s-0.468-0.352-0.756-0.352c-0.216,0-0.411,0.048-0.585,0.145s-0.327,0.225-0.459,0.388
		s-0.234,0.349-0.306,0.559c-0.072,0.21-0.108,0.436-0.108,0.677c0,0.216,0.072,0.412,0.216,0.586
		c0.145,0.174,0.318,0.357,0.522,0.55c0.312,0.277,0.591,0.593,0.837,0.947c0.246,0.355,0.369,0.761,0.369,1.218
		c0,0.313-0.016,0.638-0.045,0.975c-0.03,0.337-0.1,0.644-0.207,0.92c-0.108,0.277-0.259,0.508-0.45,0.695
		c-0.192,0.186-0.45,0.279-0.774,0.279c-0.18,0-0.336-0.048-0.468-0.144c-0.132-0.096-0.237-0.216-0.315-0.36
		s-0.135-0.303-0.171-0.477c-0.036-0.174-0.054-0.345-0.054-0.513c0-0.12,0.054-0.18,0.162-0.18h0.108c0.119,0,0.18,0.06,0.18,0.18
		c0,0.313,0.048,0.573,0.144,0.783c0.097,0.21,0.234,0.315,0.414,0.315c0.204,0,0.366-0.063,0.486-0.189s0.213-0.3,0.279-0.522
		c0.065-0.222,0.107-0.48,0.126-0.774c0.018-0.294,0.026-0.609,0.026-0.945c0-0.348-0.114-0.66-0.342-0.936
		c-0.228-0.276-0.492-0.563-0.792-0.864c-0.192-0.204-0.372-0.426-0.54-0.666c-0.168-0.24-0.252-0.516-0.252-0.828
		c0-0.288,0.048-0.567,0.144-0.837s0.233-0.507,0.413-0.711s0.393-0.366,0.638-0.486c0.246-0.12,0.513-0.18,0.8-0.18
		c0.479,0,0.91,0.138,1.293,0.414c0.383,0.276,0.707,0.606,0.971,0.99c0.048,0.084,0.093,0.162,0.134,0.234
		c0.042,0.072,0.087,0.15,0.136,0.234c0.191-0.336,0.445-0.633,0.763-0.891c0.317-0.258,0.677-0.474,1.078-0.648
		c0.401-0.174,0.826-0.306,1.275-0.396s0.907-0.135,1.374-0.135c0.072,0,0.12,0.03,0.145,0.09l2.646,4.734
		C208.661,97.827,208.643,97.905,208.547,97.977z M204.587,93.567c-0.72,0.132-1.347,0.375-1.881,0.729s-0.897,0.807-1.089,1.359
		c0.228,0.672,0.342,1.392,0.342,2.16v1.224h2.79c0.36,0,0.744-0.093,1.152-0.279c0.407-0.186,0.821-0.399,1.241-0.639
		L204.587,93.567z"/>
</g>
<g>
	<path fill="#010101" d="M130.624,19.822c-0.035,0.036-0.077,0.054-0.124,0.054c-0.083,0-0.137-0.012-0.16-0.036
		c-0.677-0.522-1.255-1.119-1.735-1.789c-0.48-0.671-0.876-1.389-1.184-2.154c-0.309-0.765-0.537-1.566-0.686-2.403
		s-0.223-1.676-0.223-2.519c0-0.842,0.074-1.682,0.223-2.519c0.148-0.836,0.377-1.637,0.686-2.403
		c0.308-0.765,0.703-1.483,1.184-2.153s1.059-1.267,1.735-1.789c0.023-0.023,0.077-0.035,0.16-0.035
		c0.047,0,0.089,0.018,0.124,0.053c0.023,0.047,0.036,0.089,0.036,0.125c0,0.047-0.019,0.089-0.054,0.125
		c-0.569,0.534-1.05,1.133-1.441,1.798s-0.709,1.368-0.952,2.109c-0.244,0.742-0.416,1.51-0.517,2.305s-0.151,1.59-0.151,2.385
		c0,0.807,0.051,1.605,0.151,2.394s0.272,1.555,0.517,2.296c0.243,0.742,0.561,1.444,0.952,2.109
		c0.392,0.664,0.872,1.264,1.441,1.797c0.035,0.036,0.054,0.077,0.054,0.125C130.66,19.733,130.647,19.775,130.624,19.822z"/>
</g>
<g>
	<path fill="#010101" d="M141.49,13.495c-0.148,0.836-0.376,1.638-0.685,2.403s-0.703,1.483-1.184,2.154
		c-0.48,0.67-1.06,1.266-1.735,1.789c-0.048,0.023-0.083,0.036-0.107,0.036h-0.053c-0.048,0-0.089-0.018-0.125-0.054
		c-0.023-0.047-0.035-0.089-0.035-0.125c0-0.047,0.018-0.089,0.053-0.125c0.57-0.534,1.051-1.133,1.442-1.797
		c0.392-0.665,0.708-1.368,0.952-2.109c0.243-0.741,0.415-1.507,0.516-2.296s0.151-1.587,0.151-2.394
		c0-0.795-0.051-1.59-0.151-2.385s-0.272-1.563-0.516-2.305c-0.244-0.741-0.561-1.444-0.952-2.109s-0.872-1.264-1.442-1.798
		c-0.035-0.036-0.053-0.077-0.053-0.125c0-0.059,0.012-0.101,0.035-0.125c0.036-0.036,0.077-0.053,0.125-0.053h0.053
		c0.024,0,0.06,0.012,0.107,0.035c0.676,0.522,1.255,1.119,1.735,1.789s0.875,1.388,1.184,2.153
		c0.309,0.766,0.536,1.566,0.685,2.403c0.148,0.837,0.223,1.676,0.223,2.519C141.713,11.819,141.639,12.659,141.49,13.495z"/>
</g>
<g>
	<path fill="#010101" d="M137.404,6.64c0,0.029-0.003,0.072-0.009,0.127s-0.015,0.114-0.026,0.176s-0.023,0.123-0.035,0.185
		s-0.023,0.113-0.035,0.154c-0.035,0.129-0.09,0.25-0.163,0.365s-0.174,0.248-0.303,0.4l-4.474,5.432h3.63
		c0.07,0,0.123,0.026,0.158,0.079s0.053,0.129,0.053,0.229c0,0.047-0.003,0.103-0.009,0.167s-0.018,0.129-0.035,0.193
		s-0.038,0.13-0.062,0.198s-0.053,0.127-0.088,0.18s-0.073,0.095-0.114,0.127s-0.088,0.048-0.141,0.048h-4.896
		c-0.111,0-0.193-0.031-0.246-0.092s-0.079-0.145-0.079-0.25c0-0.041,0.006-0.094,0.018-0.158s0.023-0.13,0.035-0.198
		s0.024-0.13,0.04-0.189c0.014-0.059,0.027-0.103,0.039-0.132c0.012-0.047,0.026-0.089,0.044-0.127s0.044-0.082,0.079-0.132
		s0.079-0.11,0.132-0.18s0.117-0.152,0.193-0.246l4.5-5.432h-3.305c-0.076,0-0.134-0.025-0.171-0.075
		c-0.039-0.05-0.058-0.127-0.058-0.233c0-0.053,0.005-0.111,0.013-0.176c0.01-0.064,0.021-0.13,0.035-0.198s0.035-0.135,0.063-0.202
		c0.025-0.067,0.057-0.126,0.092-0.176s0.074-0.089,0.119-0.119c0.043-0.029,0.092-0.044,0.145-0.044h4.562
		c0.111,0,0.188,0.026,0.233,0.079C137.382,6.473,137.404,6.546,137.404,6.64z"/>
</g>
<g>
	<path fill="#010101" d="M125.328,7.135c-0.126,0.168-0.291,0.303-0.494,0.405c-0.205,0.102-0.43,0.174-0.676,0.216
		s-0.482,0.063-0.711,0.063c-0.384,0-0.747-0.075-1.089-0.225c-0.342-0.15-0.651-0.345-0.927-0.585
		c-0.276-0.252-0.543-0.544-0.801-0.876c-0.259-0.332-0.522-0.652-0.792-0.96c-0.27-0.308-0.558-0.568-0.864-0.78
		c-0.306-0.211-0.651-0.317-1.035-0.317c-0.456,0-0.885,0.078-1.287,0.234c-0.402,0.156-0.753,0.369-1.053,0.639
		c-0.3,0.27-0.54,0.588-0.72,0.954c-0.18,0.366-0.27,0.765-0.27,1.197s0.093,0.834,0.279,1.206c0.186,0.372,0.438,0.693,0.756,0.963
		s0.684,0.48,1.098,0.63s0.855,0.225,1.323,0.225c0.12,0,0.18,0.054,0.18,0.162v0.054c0,0.12-0.06,0.18-0.18,0.18
		c-0.528,0-1.032-0.083-1.512-0.252c-0.48-0.168-0.903-0.402-1.269-0.702c-0.366-0.3-0.66-0.66-0.882-1.08s-0.333-0.882-0.333-1.386
		s0.105-0.966,0.315-1.386c0.209-0.42,0.495-0.783,0.855-1.089c0.36-0.306,0.774-0.54,1.242-0.702
		c0.468-0.162,0.954-0.243,1.458-0.243c0.528,0,1.038,0.075,1.53,0.225s0.947,0.36,1.368,0.63c0.42,0.27,0.801,0.597,1.143,0.981
		c0.342,0.384,0.633,0.81,0.873,1.278c0.096,0.205,0.189,0.36,0.279,0.468s0.194,0.162,0.314,0.162c0.42,0,0.78-0.081,1.08-0.243
		s0.45-0.387,0.45-0.675c0-0.12,0.06-0.18,0.18-0.18h0.198c0.108,0,0.162,0.06,0.162,0.18
		C125.518,6.757,125.454,6.967,125.328,7.135z M125.355,10.519h-0.198c-0.12,0-0.18-0.06-0.18-0.18c0-0.372-0.15-0.681-0.45-0.927
		c-0.3-0.246-0.66-0.369-1.08-0.369c-0.3,0-0.513,0.166-0.639,0.495c-0.126,0.33-0.189,0.723-0.189,1.179
		c0,0.288,0.087,0.552,0.262,0.792c0.174,0.24,0.362,0.48,0.566,0.72c0.204,0.24,0.394,0.489,0.567,0.747
		c0.174,0.258,0.261,0.555,0.261,0.891c0,0.408-0.087,0.777-0.261,1.107c-0.174,0.33-0.408,0.615-0.702,0.855
		c-0.294,0.24-0.63,0.426-1.008,0.558s-0.771,0.198-1.179,0.198h-1.152c-0.396,0-0.765-0.075-1.107-0.225
		c-0.342-0.15-0.664-0.342-0.963-0.576s-0.591-0.483-0.873-0.747c-0.282-0.264-0.567-0.513-0.855-0.747
		c-0.288-0.234-0.591-0.426-0.909-0.576c-0.318-0.15-0.663-0.225-1.035-0.225c-0.108,0-0.162-0.06-0.162-0.18v-0.054
		c0-0.108,0.054-0.162,0.162-0.162h1.152c0.372,0,0.714,0.066,1.026,0.199c0.312,0.133,0.609,0.302,0.891,0.507
		c0.282,0.206,0.552,0.432,0.81,0.679c0.258,0.248,0.519,0.485,0.783,0.715c0.264,0.229,0.534,0.435,0.81,0.616
		c0.276,0.181,0.576,0.308,0.9,0.38c0.3-0.06,0.582-0.159,0.846-0.297c0.264-0.139,0.495-0.307,0.693-0.506s0.354-0.427,0.468-0.686
		s0.171-0.533,0.171-0.822s-0.087-0.554-0.261-0.794s-0.363-0.479-0.567-0.713c-0.204-0.234-0.393-0.484-0.566-0.749
		c-0.174-0.265-0.261-0.566-0.261-0.903c0-0.3,0.063-0.58,0.188-0.837c0.126-0.258,0.297-0.48,0.513-0.666
		c0.217-0.186,0.462-0.33,0.738-0.432s0.57-0.153,0.882-0.153c0.264,0,0.52,0.039,0.766,0.117c0.245,0.078,0.465,0.192,0.656,0.342
		c0.192,0.15,0.349,0.33,0.469,0.54c0.119,0.21,0.18,0.447,0.18,0.711C125.518,10.459,125.464,10.519,125.355,10.519z"/>
</g>
<g>
	<path fill="#010101" d="M215.104,109.26c-0.035,0.036-0.077,0.054-0.124,0.054c-0.083,0-0.137-0.012-0.16-0.036
		c-0.677-0.522-1.255-1.119-1.735-1.789c-0.48-0.671-0.876-1.389-1.184-2.154c-0.309-0.765-0.537-1.566-0.686-2.403
		s-0.223-1.676-0.223-2.519c0-0.842,0.074-1.682,0.223-2.519c0.148-0.836,0.377-1.637,0.686-2.403
		c0.308-0.765,0.703-1.483,1.184-2.153s1.059-1.267,1.735-1.789c0.023-0.023,0.077-0.035,0.16-0.035
		c0.047,0,0.089,0.018,0.124,0.053c0.023,0.047,0.036,0.089,0.036,0.125c0,0.047-0.019,0.089-0.054,0.125
		c-0.569,0.534-1.05,1.133-1.441,1.798s-0.709,1.368-0.952,2.109c-0.244,0.742-0.416,1.51-0.517,2.305s-0.151,1.59-0.151,2.385
		c0,0.807,0.051,1.605,0.151,2.394s0.272,1.555,0.517,2.296c0.243,0.742,0.561,1.444,0.952,2.109
		c0.392,0.664,0.872,1.264,1.441,1.797c0.035,0.036,0.054,0.077,0.054,0.125C215.141,109.171,215.128,109.212,215.104,109.26z"/>
</g>
<g>
	<path fill="#010101" d="M225.971,102.933c-0.148,0.836-0.376,1.638-0.685,2.403s-0.703,1.483-1.184,2.154
		c-0.48,0.67-1.06,1.266-1.735,1.789c-0.048,0.023-0.083,0.036-0.107,0.036h-0.053c-0.048,0-0.089-0.018-0.125-0.054
		c-0.023-0.047-0.035-0.089-0.035-0.125c0-0.047,0.018-0.089,0.053-0.125c0.57-0.534,1.051-1.133,1.442-1.797
		c0.392-0.665,0.708-1.368,0.952-2.109c0.243-0.741,0.415-1.507,0.516-2.296s0.151-1.587,0.151-2.394
		c0-0.795-0.051-1.59-0.151-2.385s-0.272-1.563-0.516-2.305c-0.244-0.741-0.561-1.444-0.952-2.109s-0.872-1.264-1.442-1.798
		c-0.035-0.036-0.053-0.077-0.053-0.125c0-0.059,0.012-0.101,0.035-0.125c0.036-0.036,0.077-0.053,0.125-0.053h0.053
		c0.024,0,0.06,0.012,0.107,0.035c0.676,0.522,1.255,1.119,1.735,1.789s0.875,1.388,1.184,2.153
		c0.309,0.766,0.536,1.566,0.685,2.403c0.148,0.837,0.223,1.676,0.223,2.519C226.193,101.257,226.119,102.096,225.971,102.933z"/>
</g>
<g>
	<path fill="#010101" d="M221.885,96.078c0,0.029-0.003,0.072-0.009,0.127s-0.015,0.114-0.026,0.176s-0.023,0.123-0.035,0.185
		s-0.023,0.113-0.035,0.154c-0.035,0.129-0.09,0.25-0.163,0.365s-0.174,0.248-0.303,0.4l-4.474,5.432h3.63
		c0.07,0,0.123,0.026,0.158,0.079s0.053,0.129,0.053,0.229c0,0.047-0.003,0.103-0.009,0.167s-0.018,0.129-0.035,0.193
		s-0.038,0.13-0.062,0.198s-0.053,0.127-0.088,0.18s-0.073,0.095-0.114,0.127s-0.088,0.048-0.141,0.048h-4.896
		c-0.111,0-0.193-0.031-0.246-0.092s-0.079-0.145-0.079-0.25c0-0.041,0.006-0.094,0.018-0.158s0.023-0.13,0.035-0.198
		s0.024-0.13,0.04-0.189c0.014-0.059,0.027-0.103,0.039-0.132c0.012-0.047,0.026-0.089,0.044-0.127s0.044-0.082,0.079-0.132
		s0.079-0.11,0.132-0.18s0.117-0.152,0.193-0.246l4.5-5.432h-3.305c-0.076,0-0.134-0.025-0.171-0.075
		c-0.039-0.05-0.058-0.127-0.058-0.233c0-0.053,0.005-0.111,0.013-0.176c0.01-0.064,0.021-0.13,0.035-0.198s0.035-0.135,0.063-0.202
		c0.025-0.067,0.057-0.126,0.092-0.176s0.074-0.089,0.119-0.119c0.043-0.029,0.092-0.044,0.145-0.044h4.562
		c0.111,0,0.188,0.026,0.233,0.079C221.862,95.911,221.885,95.984,221.885,96.078z"/>
</g>
</svg>
