<?xml version="1.0" encoding="utf-8"?>
<!DOCTYPE svg PUBLIC "-//W3C//DTD SVG 1.1 Tiny//EN" "http://www.w3.org/Graphics/SVG/1.1/DTD/svg11-tiny.dtd" [
	<!ENTITY ns_flows "http://ns.adobe.com/Flows/1.0/">
]>
<svg version="1.1" baseProfile="tiny"
	 xmlns="http://www.w3.org/2000/svg" xmlns:xlink="http://www.w3.org/1999/xlink" xmlns:a="http://ns.adobe.com/AdobeSVGViewerExtensions/3.0/"
	 x="0px" y="0px" width="281px" height="146px" viewBox="-0.294 -0.73 281 146" xml:space="preserve">
<defs>
</defs>
<line fill="none" stroke="#000000" stroke-width="0.5" stroke-linecap="round" x1="17.258" y1="7.725" x2="17.258" y2="137.481"/>
<polygon points="19.553,9.452 17.229,0 14.905,9.452 "/>
<line fill="none" stroke="#000000" stroke-width="0.5" stroke-linecap="round" x1="0.25" y1="120.474" x2="262.273" y2="120.474"/>
<path d="M265.795,119.449c-2.467-0.499-4.067-0.959-6.045-1.492v5.045c0.707-0.226,3.578-0.992,6.045-1.491
	c2.64-0.535,5.029-0.9,6.581-1.031C270.824,120.349,268.435,119.983,265.795,119.449z"/>
<line fill="none" stroke="#000000" stroke-linecap="round" x1="28.597" y1="117.284" x2="28.597" y2="122.954"/>
<line fill="none" stroke="#000000" stroke-linecap="round" x1="85.289" y1="117.284" x2="85.289" y2="122.954"/>
<line fill="none" stroke="#000000" stroke-linecap="round" x1="141.982" y1="117.284" x2="141.982" y2="122.954"/>
<line fill="none" stroke="#000000" stroke-linecap="round" x1="198.675" y1="117.284" x2="198.675" y2="122.954"/>
<line fill="none" stroke="#000000" stroke-linecap="round" x1="255.368" y1="117.284" x2="255.368" y2="123.002"/>
<g>
	<path d="M26.773,111.322c-0.031,0.133-0.117,0.227-0.258,0.281s-0.375,0.082-0.703,0.082c-0.156,0-0.285-0.008-0.387-0.023
		s-0.184-0.037-0.246-0.064s-0.105-0.063-0.129-0.105s-0.023-0.1,0-0.17l0.387-1.992c-0.102,0.25-0.285,0.523-0.551,0.82
		s-0.58,0.57-0.943,0.82s-0.768,0.457-1.213,0.621s-0.898,0.246-1.359,0.246c-0.625,0-1.143-0.109-1.553-0.328
		s-0.736-0.508-0.979-0.867s-0.408-0.766-0.498-1.219s-0.135-0.918-0.135-1.395c0-0.438,0.041-0.934,0.123-1.488
		s0.215-1.121,0.398-1.699s0.422-1.141,0.715-1.688s0.646-1.037,1.061-1.471s0.895-0.781,1.441-1.043s1.168-0.393,1.863-0.393
		s1.291,0.141,1.787,0.422s0.939,0.668,1.33,1.16l0.223-1.066c0.031-0.125,0.121-0.215,0.27-0.27s0.379-0.082,0.691-0.082
		c0.156,0,0.287,0.006,0.393,0.018s0.189,0.033,0.252,0.064s0.102,0.07,0.117,0.117s0.02,0.098,0.012,0.152L26.773,111.322z
		 M26.41,103.529c-0.367-0.539-0.764-0.943-1.189-1.213s-0.904-0.404-1.436-0.404c-0.422,0-0.803,0.1-1.143,0.299
		s-0.641,0.463-0.902,0.791s-0.488,0.701-0.68,1.119s-0.348,0.85-0.469,1.295s-0.211,0.883-0.27,1.313s-0.088,0.816-0.088,1.16
		c0,0.273,0.021,0.545,0.064,0.814s0.125,0.516,0.246,0.738s0.287,0.402,0.498,0.539s0.484,0.205,0.82,0.205
		c0.43,0,0.861-0.119,1.295-0.357s0.838-0.568,1.213-0.99s0.707-0.918,0.996-1.488s0.504-1.199,0.645-1.887L26.41,103.529z"/>
</g>
<g>
	<path d="M255.467,104.068c0,0.469-0.043,0.986-0.129,1.553s-0.225,1.137-0.416,1.711s-0.432,1.133-0.721,1.676
		s-0.643,1.023-1.061,1.441s-0.898,0.754-1.441,1.008s-1.154,0.381-1.834,0.381c-0.703,0-1.305-0.133-1.805-0.398
		s-0.945-0.648-1.336-1.148l-0.211,1.031c-0.016,0.133-0.1,0.227-0.252,0.281s-0.385,0.082-0.697,0.082
		c-0.328,0-0.547-0.031-0.656-0.094s-0.148-0.152-0.117-0.27l3.117-15.656c0.016-0.063,0.041-0.117,0.076-0.164
		s0.094-0.086,0.176-0.117s0.188-0.055,0.316-0.07s0.291-0.023,0.486-0.023c0.188,0,0.34,0.008,0.457,0.023s0.211,0.039,0.281,0.07
		s0.113,0.07,0.129,0.117s0.02,0.102,0.012,0.164l-0.938,4.711c-0.039,0.203-0.086,0.414-0.141,0.633s-0.111,0.436-0.17,0.65
		s-0.117,0.418-0.176,0.609s-0.111,0.357-0.158,0.498c0.125-0.273,0.322-0.557,0.592-0.85s0.586-0.563,0.949-0.809
		s0.76-0.451,1.189-0.615s0.863-0.246,1.301-0.246c0.469,0,0.871,0.063,1.207,0.188s0.621,0.291,0.855,0.498
		s0.424,0.443,0.568,0.709s0.256,0.539,0.334,0.82s0.133,0.561,0.164,0.838S255.467,103.833,255.467,104.068z M253.439,104.232
		c0-0.211-0.02-0.453-0.059-0.727s-0.115-0.527-0.229-0.762s-0.277-0.432-0.492-0.592s-0.502-0.24-0.861-0.24
		c-0.422,0-0.852,0.121-1.289,0.363s-0.844,0.576-1.219,1.002s-0.709,0.926-1.002,1.5s-0.506,1.201-0.639,1.881l-0.387,1.945
		c0.367,0.539,0.762,0.938,1.184,1.195s0.898,0.387,1.43,0.387c0.406,0,0.773-0.094,1.102-0.281s0.625-0.438,0.891-0.75
		s0.496-0.67,0.691-1.072s0.357-0.824,0.486-1.266s0.227-0.885,0.293-1.33S253.439,104.623,253.439,104.232z"/>
</g>
<line fill="none" stroke="#010101" stroke-width="0.4961" stroke-linecap="square" stroke-miterlimit="10" x1="107.967" y1="96.408" x2="135.508" y2="96.408"/>
<g>
	<path fill="#010101" d="M173.275,105.226c0,0.217,0.012,0.38,0.037,0.49c0.024,0.11,0.068,0.2,0.13,0.269
		c0.062,0.069,0.151,0.124,0.268,0.163c0.116,0.039,0.263,0.069,0.439,0.09c0.177,0.021,0.41,0.034,0.699,0.042v0.409h-4.165v-0.409
		c0.417-0.019,0.714-0.044,0.893-0.076c0.178-0.032,0.314-0.08,0.409-0.143c0.094-0.063,0.163-0.153,0.206-0.269
		c0.043-0.116,0.065-0.305,0.065-0.566v-4.542c0-0.149-0.026-0.259-0.079-0.328c-0.052-0.069-0.129-0.104-0.231-0.104
		c-0.12,0-0.291,0.062-0.513,0.185c-0.222,0.123-0.496,0.293-0.823,0.51l-0.248-0.432L173,98.952h0.31
		c-0.022,0.358-0.034,0.855-0.034,1.49V105.226z"/>
</g>
<g>
	<path fill="#010101" d="M122.694,108.177c0.197,0,0.355-0.012,0.476-0.036s0.217-0.064,0.29-0.12
		c0.072-0.056,0.129-0.128,0.171-0.218c0.042-0.09,0.096-0.229,0.16-0.417h0.513l-0.103,1.749h-4.96v-0.288
		c0.173-0.419,0.406-0.849,0.699-1.288c0.293-0.439,0.709-0.957,1.248-1.551c0.466-0.511,0.802-0.898,1.006-1.162
		c0.225-0.288,0.393-0.536,0.503-0.746c0.11-0.21,0.19-0.408,0.238-0.593c0.048-0.186,0.072-0.372,0.072-0.56
		c0-0.299-0.048-0.564-0.145-0.793c-0.097-0.229-0.244-0.411-0.443-0.542c-0.199-0.132-0.449-0.198-0.75-0.198
		c-0.751,0-1.258,0.415-1.519,1.246h-0.729v-1.15c0.486-0.228,0.941-0.392,1.365-0.494s0.805-0.153,1.142-0.153
		c0.748,0,1.312,0.163,1.694,0.488c0.381,0.326,0.572,0.798,0.572,1.417c0,0.212-0.021,0.406-0.063,0.584
		c-0.042,0.178-0.108,0.354-0.199,0.527c-0.091,0.173-0.212,0.36-0.365,0.56c-0.153,0.2-0.322,0.402-0.506,0.608
		c-0.185,0.206-0.504,0.548-0.958,1.027c-0.763,0.802-1.324,1.503-1.681,2.102H122.694z"/>
</g>
<g>
	<path fill="#010101" d="M113,86.23l0.555-0.396l0.386,0.096l-0.922,4.067c-0.056,0.239-0.094,0.424-0.114,0.554
		c-0.02,0.13-0.03,0.237-0.03,0.321c0,0.164,0.046,0.282,0.139,0.356c0.092,0.074,0.269,0.121,0.53,0.141l-0.054,0.293h-1.724
		l0.38-1.503l-0.079-0.024c-0.386,0.559-0.751,0.968-1.097,1.228c-0.346,0.259-0.711,0.389-1.097,0.389
		c-0.442,0-0.785-0.166-1.027-0.497c-0.243-0.332-0.365-0.797-0.365-1.396c0-0.383,0.044-0.768,0.132-1.153
		c0.088-0.385,0.222-0.75,0.401-1.096c0.179-0.345,0.393-0.65,0.642-0.913c0.249-0.264,0.537-0.473,0.865-0.629
		s0.684-0.234,1.07-0.234c0.249,0,0.486,0.029,0.711,0.087C112.525,85.979,112.759,86.082,113,86.23z M112.469,88.015
		c0.036-0.164,0.06-0.305,0.072-0.425c0.012-0.12,0.018-0.25,0.018-0.389c0-0.312-0.066-0.538-0.199-0.68
		c-0.133-0.142-0.354-0.213-0.663-0.213c-0.168,0-0.33,0.027-0.482,0.081c-0.153,0.054-0.308,0.144-0.464,0.27
		c-0.157,0.125-0.306,0.291-0.449,0.494c-0.143,0.204-0.272,0.451-0.389,0.743c-0.117,0.292-0.207,0.604-0.271,0.938
		s-0.096,0.658-0.096,0.973c0,0.416,0.057,0.726,0.171,0.932c0.115,0.206,0.307,0.308,0.576,0.308c0.125,0,0.254-0.028,0.389-0.083
		c0.135-0.056,0.284-0.159,0.449-0.309c0.165-0.15,0.352-0.37,0.561-0.662c0.188-0.267,0.338-0.532,0.449-0.793
		c0.111-0.261,0.202-0.57,0.274-0.925L112.469,88.015z"/>
	<path fill="#010101" d="M129.162,91.369l-0.555,0.389l-0.386-0.096l1.561-6.846c0.024-0.1,0.053-0.244,0.087-0.431
		c0.034-0.188,0.051-0.339,0.051-0.456c0-0.167-0.051-0.285-0.154-0.354c-0.102-0.067-0.286-0.105-0.551-0.114l0.072-0.311
		l1.525-0.054h0.35l-1.061,4.193l0.078,0.024c0.39-0.519,0.755-0.895,1.097-1.126c0.342-0.231,0.683-0.348,1.025-0.348
		c0.438,0,0.778,0.166,1.021,0.498c0.243,0.331,0.365,0.798,0.365,1.401c0,0.431-0.06,0.865-0.178,1.3
		c-0.119,0.435-0.283,0.829-0.495,1.18c-0.211,0.351-0.446,0.64-0.705,0.865c-0.259,0.226-0.532,0.395-0.819,0.506
		c-0.288,0.112-0.59,0.167-0.907,0.167C130.05,91.758,129.576,91.629,129.162,91.369z M129.692,89.578
		c-0.04,0.18-0.065,0.333-0.075,0.458c-0.01,0.126-0.015,0.245-0.015,0.356c0,0.316,0.069,0.543,0.208,0.683s0.369,0.209,0.69,0.209
		c0.209,0,0.4-0.04,0.573-0.12c0.172-0.08,0.336-0.197,0.491-0.351c0.154-0.154,0.295-0.34,0.422-0.56
		c0.126-0.219,0.238-0.47,0.334-0.751c0.096-0.282,0.169-0.573,0.22-0.875c0.05-0.302,0.076-0.582,0.076-0.842
		c0-0.415-0.06-0.727-0.178-0.934c-0.119-0.208-0.309-0.312-0.57-0.312c-0.193,0-0.383,0.061-0.569,0.183
		c-0.187,0.122-0.395,0.323-0.624,0.605c-0.229,0.281-0.416,0.57-0.561,0.865c-0.145,0.296-0.267,0.673-0.368,1.132L129.692,89.578z
		"/>
</g>
<g>
	<path fill="#010101" d="M166.165,94.594c-0.013-0.491-0.054-0.846-0.122-1.066c-0.068-0.219-0.179-0.384-0.332-0.494
		c-0.152-0.11-0.369-0.165-0.648-0.165c-0.657,0-1.247,0.26-1.77,0.78c-0.523,0.52-0.951,1.256-1.282,2.209
		c-0.331,0.953-0.497,1.869-0.497,2.747c0,0.271,0.024,0.526,0.073,0.765c0.049,0.239,0.133,0.446,0.253,0.62
		s0.279,0.312,0.478,0.412c0.198,0.101,0.45,0.15,0.756,0.15c0.591,0,1.103-0.111,1.535-0.334c0.432-0.223,0.889-0.573,1.37-1.051
		l0.595,0.591c-0.611,0.672-1.227,1.163-1.847,1.473s-1.289,0.465-2.003,0.465c-0.942,0-1.657-0.277-2.145-0.833
		c-0.487-0.556-0.731-1.363-0.731-2.422c0-0.691,0.13-1.45,0.39-2.277c0.26-0.827,0.64-1.553,1.141-2.18
		c0.5-0.626,1.085-1.095,1.754-1.405c0.669-0.31,1.385-0.465,2.145-0.465c0.52,0,0.973,0.029,1.36,0.087s0.729,0.126,1.029,0.203
		l-0.478,2.19H166.165z"/>
</g>
<g>
	<path fill="#010101" d="M125.538,88.768c-0.049,0.049-0.107,0.074-0.173,0.074h-3.604v3.594c0,0.065-0.025,0.123-0.074,0.171
		c-0.049,0.049-0.107,0.074-0.173,0.074s-0.124-0.024-0.173-0.074c-0.049-0.049-0.074-0.106-0.074-0.171v-3.594h-3.604
		c-0.066,0-0.124-0.025-0.173-0.074c-0.049-0.049-0.074-0.106-0.074-0.172c0-0.065,0.024-0.123,0.074-0.171
		c0.049-0.049,0.107-0.074,0.173-0.074h3.604v-3.594c0-0.065,0.024-0.123,0.074-0.172c0.049-0.049,0.107-0.074,0.173-0.074
		s0.124,0.025,0.173,0.074c0.049,0.049,0.074,0.106,0.074,0.172v3.594h3.604c0.066,0,0.124,0.024,0.173,0.074
		c0.049,0.049,0.074,0.106,0.074,0.171C125.612,88.662,125.587,88.718,125.538,88.768z"/>
</g>
<g>
	<path fill="#010101" d="M154.786,94.924c-0.08,0.079-0.173,0.119-0.279,0.119h-12.458c-0.107,0-0.2-0.04-0.28-0.119
		c-0.08-0.08-0.12-0.172-0.12-0.278s0.04-0.199,0.12-0.278c0.08-0.08,0.173-0.119,0.28-0.119h12.458c0.106,0,0.2,0.04,0.279,0.119
		c0.08,0.079,0.12,0.172,0.12,0.278S154.866,94.844,154.786,94.924z M154.786,98.773c-0.08,0.08-0.173,0.119-0.279,0.119h-12.458
		c-0.107,0-0.2-0.04-0.28-0.119c-0.08-0.079-0.12-0.171-0.12-0.278c0-0.105,0.04-0.198,0.12-0.277c0.08-0.08,0.173-0.119,0.28-0.119
		h12.458c0.106,0,0.2,0.04,0.279,0.119c0.08,0.079,0.12,0.172,0.12,0.277C154.906,98.602,154.866,98.694,154.786,98.773z"/>
</g>
<g>
	<path fill="#010101" d="M82.558,107.318c0,0.217,0.012,0.38,0.037,0.49c0.024,0.11,0.068,0.2,0.13,0.269
		c0.062,0.069,0.151,0.124,0.268,0.163c0.116,0.039,0.263,0.069,0.439,0.09c0.177,0.021,0.41,0.034,0.699,0.042v0.409h-4.165v-0.409
		c0.417-0.019,0.714-0.044,0.893-0.076c0.178-0.032,0.314-0.08,0.409-0.143c0.094-0.063,0.163-0.153,0.206-0.269
		c0.043-0.116,0.065-0.305,0.065-0.566v-4.542c0-0.149-0.026-0.259-0.079-0.328c-0.052-0.069-0.129-0.104-0.231-0.104
		c-0.12,0-0.291,0.062-0.513,0.185c-0.222,0.123-0.496,0.293-0.823,0.51l-0.248-0.432l2.638-1.563h0.31
		c-0.022,0.358-0.034,0.855-0.034,1.49V107.318z"/>
</g>
<g>
	<path fill="#010101" d="M76.763,92.501c0.052-0.213,0.098-0.449,0.137-0.708c0.039-0.258,0.059-0.484,0.059-0.678
		s-0.036-0.34-0.107-0.441c-0.072-0.1-0.174-0.172-0.307-0.218c-0.133-0.045-0.372-0.078-0.716-0.097l0.117-0.504l2.447-0.087h0.575
		l-2.525,11.162c-0.091,0.407-0.153,0.71-0.185,0.911c-0.033,0.2-0.049,0.368-0.049,0.504c0,0.265,0.075,0.457,0.224,0.576
		c0.149,0.12,0.436,0.196,0.858,0.228l-0.087,0.475h-2.789l0.614-2.432l-0.126-0.039c-0.624,0.904-1.215,1.566-1.774,1.986
		s-1.15,0.63-1.774,0.63c-0.715,0-1.269-0.268-1.662-0.804s-0.59-1.289-0.59-2.258c0-0.62,0.071-1.242,0.214-1.865
		c0.143-0.624,0.359-1.214,0.648-1.773c0.289-0.559,0.635-1.051,1.038-1.478c0.403-0.427,0.87-0.766,1.399-1.018
		c0.529-0.252,1.106-0.378,1.73-0.378c0.396,0,0.762,0.041,1.097,0.121c0.334,0.081,0.677,0.222,1.028,0.421L76.763,92.501z
		 M75.554,97.724c0.098-0.465,0.146-0.904,0.146-1.318c0-0.503-0.107-0.87-0.322-1.1c-0.214-0.229-0.572-0.344-1.072-0.344
		c-0.273,0-0.533,0.043-0.78,0.131c-0.247,0.087-0.498,0.232-0.751,0.436c-0.253,0.203-0.496,0.47-0.726,0.799
		c-0.231,0.329-0.44,0.73-0.629,1.201c-0.188,0.472-0.335,0.977-0.438,1.516c-0.104,0.54-0.156,1.064-0.156,1.575
		c0,0.672,0.093,1.174,0.278,1.506c0.185,0.333,0.496,0.499,0.931,0.499c0.201,0,0.411-0.045,0.629-0.136
		c0.217-0.09,0.459-0.256,0.726-0.499c0.267-0.243,0.569-0.599,0.907-1.071c0.305-0.433,0.547-0.861,0.726-1.284
		s0.327-0.922,0.444-1.497L75.554,97.724z"/>
</g>
<g>
	<path fill="#010101" d="M205.466,107.884c0.185,0,0.333-0.011,0.445-0.034c0.113-0.022,0.203-0.06,0.271-0.112
		c0.068-0.052,0.122-0.12,0.161-0.204s0.089-0.214,0.149-0.39h0.479l-0.096,1.636h-4.638v-0.269
		c0.162-0.392,0.379-0.793,0.654-1.204s0.663-0.894,1.167-1.451c0.436-0.478,0.749-0.84,0.94-1.087
		c0.211-0.269,0.368-0.501,0.471-0.697c0.104-0.196,0.178-0.381,0.223-0.554c0.046-0.174,0.068-0.348,0.068-0.524
		c0-0.28-0.046-0.527-0.136-0.742s-0.229-0.384-0.414-0.507c-0.187-0.124-0.42-0.185-0.702-0.185c-0.702,0-1.176,0.389-1.42,1.165
		h-0.682v-1.075c0.455-0.213,0.88-0.367,1.277-0.462s0.752-0.143,1.068-0.143c0.698,0,1.227,0.152,1.583,0.457
		c0.357,0.304,0.536,0.746,0.536,1.325c0,0.198-0.021,0.38-0.06,0.546c-0.039,0.167-0.102,0.331-0.186,0.493
		c-0.085,0.162-0.198,0.337-0.342,0.523c-0.143,0.187-0.301,0.376-0.473,0.569c-0.173,0.192-0.472,0.512-0.896,0.96
		c-0.714,0.75-1.238,1.406-1.572,1.966H205.466z"/>
</g>
<g>
	<path fill="#010101" d="M199.632,92.501c0.052-0.213,0.098-0.449,0.137-0.708c0.039-0.258,0.059-0.484,0.059-0.678
		s-0.036-0.34-0.107-0.441c-0.072-0.1-0.174-0.172-0.307-0.218c-0.133-0.045-0.372-0.078-0.716-0.097l0.117-0.504l2.447-0.087h0.575
		l-2.525,11.162c-0.091,0.407-0.153,0.71-0.185,0.911c-0.033,0.2-0.049,0.368-0.049,0.504c0,0.265,0.075,0.457,0.224,0.576
		c0.149,0.12,0.436,0.196,0.858,0.228l-0.087,0.475h-2.789l0.614-2.432l-0.126-0.039c-0.624,0.904-1.215,1.566-1.774,1.986
		s-1.15,0.63-1.774,0.63c-0.715,0-1.269-0.268-1.662-0.804s-0.59-1.289-0.59-2.258c0-0.62,0.071-1.242,0.214-1.865
		c0.143-0.624,0.359-1.214,0.648-1.773c0.289-0.559,0.635-1.051,1.038-1.478c0.403-0.427,0.87-0.766,1.399-1.018
		c0.529-0.252,1.106-0.378,1.73-0.378c0.396,0,0.762,0.041,1.097,0.121c0.334,0.081,0.677,0.222,1.028,0.421L199.632,92.501z
		 M198.423,97.724c0.098-0.465,0.146-0.904,0.146-1.318c0-0.503-0.107-0.87-0.322-1.1c-0.214-0.229-0.572-0.344-1.072-0.344
		c-0.273,0-0.533,0.043-0.78,0.131c-0.247,0.087-0.498,0.232-0.751,0.436c-0.253,0.203-0.496,0.47-0.726,0.799
		c-0.231,0.329-0.44,0.73-0.629,1.201c-0.188,0.472-0.335,0.977-0.438,1.516c-0.104,0.54-0.156,1.064-0.156,1.575
		c0,0.672,0.093,1.174,0.278,1.506c0.185,0.333,0.496,0.499,0.931,0.499c0.201,0,0.411-0.045,0.629-0.136
		c0.217-0.09,0.459-0.256,0.726-0.499c0.267-0.243,0.569-0.599,0.907-1.071c0.305-0.433,0.547-0.861,0.726-1.284
		s0.327-0.922,0.444-1.497L198.423,97.724z"/>
</g>
<g>
	<path d="M280.627,129.333c-1.516,1.617-3.102,3.215-4.758,4.793l1.09,2.566c0.289,0.688,0.52,1.193,0.691,1.518
		s0.328,0.559,0.469,0.703s0.281,0.25,0.422,0.316s0.363,0.119,0.668,0.158l-0.129,0.574h-2.918l-1.629-4.711
		c-0.188,0.164-0.436,0.393-0.744,0.686s-0.607,0.605-0.896,0.938s-0.492,0.6-0.609,0.803s-0.193,0.379-0.229,0.527
		s-0.053,0.301-0.053,0.457c0,0.203,0.057,0.363,0.17,0.48s0.307,0.199,0.58,0.246l-0.129,0.574h-3.34l-0.223-0.574
		c1.711-1.836,3.395-3.527,5.051-5.074l-1.113-2.613c-0.227-0.531-0.41-0.936-0.551-1.213s-0.275-0.492-0.404-0.645
		s-0.277-0.27-0.445-0.352s-0.408-0.135-0.721-0.158l0.129-0.574h2.918l1.559,4.418c0.383-0.352,0.746-0.715,1.09-1.09
		s0.586-0.672,0.727-0.891s0.238-0.414,0.293-0.586s0.082-0.352,0.082-0.539c0-0.43-0.25-0.676-0.75-0.738l0.129-0.574h3.34
		L280.627,129.333z"/>
</g>
</svg>
