<?xml version="1.0" encoding="utf-8"?>
<!-- Generator: Adobe Illustrator 15.1.0, SVG Export Plug-In . SVG Version: 6.00 Build 0)  -->
<!DOCTYPE svg PUBLIC "-//W3C//DTD SVG 1.1//EN" "http://www.w3.org/Graphics/SVG/1.1/DTD/svg11.dtd">
<svg version="1.1" id="Layer_1" xmlns="http://www.w3.org/2000/svg" xmlns:xlink="http://www.w3.org/1999/xlink" x="0px" y="0px"
	 width="170.515px" height="107.667px" viewBox="0 0 170.515 107.667" enable-background="new 0 0 170.515 107.667"
	 xml:space="preserve">
<g>
	<g>
		<line fill="none" stroke="#000000" stroke-width="0.5" stroke-miterlimit="10" x1="19.492" y1="107.667" x2="19.492" y2="4.076"/>
		<g>
			<path d="M19.492,4.974L17.69,6.069l-0.041-0.062l1.167-2.938c0.225-1.023,0.45-2.047,0.675-3.07
				c0.225,1.023,0.45,2.047,0.675,3.07l1.167,2.938l-0.031,0.062L19.492,4.974z"/>
		</g>
	</g>
</g>
<g>
	<g>
		
			<line fill="none" stroke="#000000" stroke-width="0.5" stroke-miterlimit="10" x1="12.848" y1="53.833" x2="166.438" y2="53.833"/>
		<g>
			<path d="M165.541,53.833l-1.096-1.802l0.062-0.041l2.938,1.167c1.023,0.226,2.047,0.45,3.07,0.676
				c-1.023,0.225-2.047,0.45-3.07,0.676l-2.938,1.167l-0.062-0.031L165.541,53.833z"/>
		</g>
	</g>
</g>
<path fill="none" stroke="#000000" stroke-width="0.5" stroke-miterlimit="10" d="M29.848,11.878
	c6.667,70.333,12.333,85.333,30.667,85.333s34.333-34,105.333-36"/>
<g>
	
		<line fill="none" stroke="#010101" stroke-width="0.4998" stroke-linecap="square" stroke-miterlimit="10" x1="139.275" y1="34.338" x2="139.275" y2="46.207"/>
	
		<line fill="none" stroke="#010101" stroke-width="0.4998" stroke-linecap="square" stroke-miterlimit="10" x1="165.848" y1="34.338" x2="165.848" y2="46.207"/>
	<g>
		<path fill="#010101" d="M145.546,44.622c0,0.109,0.006,0.191,0.018,0.247s0.034,0.101,0.065,0.135
			c0.031,0.035,0.076,0.063,0.134,0.082c0.058,0.02,0.131,0.035,0.22,0.045c0.088,0.011,0.205,0.018,0.35,0.021v0.206h-2.084v-0.206
			c0.208-0.01,0.357-0.022,0.447-0.038s0.158-0.04,0.205-0.072c0.047-0.031,0.081-0.077,0.103-0.135
			c0.021-0.059,0.032-0.153,0.032-0.285v-2.288c0-0.075-0.013-0.131-0.04-0.165c-0.026-0.035-0.065-0.053-0.116-0.053
			c-0.06,0-0.146,0.031-0.256,0.094c-0.111,0.062-0.249,0.147-0.412,0.257l-0.124-0.218l1.32-0.787h0.155
			c-0.011,0.181-0.017,0.431-0.017,0.751V44.622z"/>
		<path fill="#010101" d="M162.958,44.907c0.092,0,0.166-0.006,0.223-0.018c0.057-0.011,0.102-0.029,0.135-0.056
			c0.034-0.026,0.062-0.062,0.081-0.104s0.044-0.107,0.074-0.196h0.24l-0.048,0.824h-2.321v-0.136
			c0.08-0.197,0.189-0.399,0.327-0.606c0.137-0.207,0.331-0.45,0.584-0.73c0.218-0.241,0.375-0.424,0.471-0.548
			c0.105-0.135,0.184-0.252,0.235-0.351s0.089-0.192,0.111-0.279c0.022-0.088,0.034-0.176,0.034-0.265
			c0-0.141-0.022-0.266-0.068-0.373c-0.045-0.108-0.113-0.193-0.207-0.256c-0.093-0.062-0.21-0.093-0.351-0.093
			c-0.352,0-0.589,0.195-0.711,0.587h-0.342v-0.542c0.228-0.107,0.44-0.185,0.639-0.232c0.199-0.048,0.377-0.072,0.535-0.072
			c0.35,0,0.613,0.077,0.792,0.229c0.179,0.153,0.269,0.376,0.269,0.668c0,0.1-0.01,0.191-0.03,0.274
			c-0.02,0.084-0.051,0.167-0.093,0.249s-0.099,0.17-0.171,0.264c-0.071,0.094-0.15,0.189-0.236,0.286
			c-0.087,0.097-0.236,0.258-0.448,0.484c-0.357,0.378-0.62,0.708-0.787,0.99H162.958z"/>
	</g>
	<g>
		<path fill="#010101" d="M155.62,40.413c-0.04,0.04-0.087,0.06-0.14,0.06h-5.686c-0.054,0-0.1-0.02-0.14-0.06
			s-0.06-0.086-0.06-0.14c0-0.054,0.02-0.1,0.06-0.14s0.086-0.06,0.14-0.06h5.686c0.053,0,0.1,0.02,0.14,0.06s0.06,0.086,0.06,0.14
			C155.68,40.327,155.66,40.373,155.62,40.413z"/>
	</g>
	<g>
		<path fill="#010101" stroke="#010101" stroke-width="0.2856" stroke-miterlimit="10" d="M142.072,38.917l0.068,0.015
			c0.179-0.218,0.345-0.39,0.498-0.515c0.153-0.125,0.318-0.222,0.495-0.29s0.378-0.103,0.603-0.103c0.189,0,0.359,0.01,0.513,0.029
			v1.123h-0.552c-0.078-0.176-0.161-0.304-0.249-0.383s-0.208-0.12-0.361-0.12c-0.117,0-0.233,0.034-0.349,0.103
			c-0.116,0.068-0.227,0.167-0.334,0.298c-0.107,0.13-0.182,0.252-0.222,0.366c-0.041,0.114-0.061,0.249-0.061,0.405v1.708
			c0,0.296,0.018,0.5,0.054,0.612s0.095,0.194,0.178,0.246c0.083,0.053,0.207,0.093,0.373,0.122v0.239h-1.966v-0.239
			c0.124-0.039,0.212-0.073,0.266-0.103s0.1-0.069,0.139-0.122c0.039-0.052,0.068-0.132,0.087-0.239s0.029-0.274,0.029-0.502v-2.128
			c0-0.208-0.003-0.375-0.01-0.502c-0.006-0.127-0.029-0.229-0.068-0.305c-0.039-0.076-0.099-0.133-0.178-0.171
			c-0.08-0.037-0.193-0.069-0.339-0.095v-0.253l1.142-0.049h0.298L142.072,38.917z"/>
		<path fill="#010101" stroke="#010101" stroke-width="0.2856" stroke-miterlimit="10" d="M159.364,38.917l0.067,0.015
			c0.18-0.218,0.345-0.39,0.498-0.515c0.153-0.125,0.318-0.222,0.495-0.29c0.178-0.068,0.378-0.103,0.603-0.103
			c0.188,0,0.359,0.01,0.513,0.029v1.123h-0.552c-0.078-0.176-0.161-0.304-0.249-0.383c-0.087-0.08-0.208-0.12-0.36-0.12
			c-0.117,0-0.233,0.034-0.349,0.103c-0.116,0.068-0.228,0.167-0.335,0.298c-0.107,0.13-0.181,0.252-0.222,0.366
			c-0.041,0.114-0.061,0.249-0.061,0.405v1.708c0,0.296,0.018,0.5,0.053,0.612c0.036,0.112,0.096,0.194,0.179,0.246
			c0.083,0.053,0.207,0.093,0.373,0.122v0.239h-1.966v-0.239c0.123-0.039,0.212-0.073,0.266-0.103s0.1-0.069,0.139-0.122
			c0.039-0.052,0.068-0.132,0.088-0.239s0.029-0.274,0.029-0.502v-2.128c0-0.208-0.003-0.375-0.01-0.502s-0.029-0.229-0.068-0.305
			c-0.039-0.076-0.099-0.133-0.178-0.171c-0.08-0.037-0.192-0.069-0.339-0.095v-0.253l1.142-0.049h0.298L159.364,38.917z"/>
	</g>
</g>
<g>
	<g>
		<path fill="#010101" d="M34.106,13.803c-0.02,0.023-0.043,0.036-0.07,0.036c-0.046,0-0.076-0.009-0.089-0.024
			c-0.378-0.348-0.702-0.746-0.97-1.192c-0.269-0.447-0.489-0.926-0.661-1.437c-0.173-0.511-0.3-1.044-0.383-1.603
			c-0.083-0.558-0.124-1.117-0.124-1.679c0-0.562,0.041-1.122,0.124-1.68c0.083-0.558,0.21-1.092,0.383-1.602
			c0.172-0.51,0.393-0.989,0.661-1.436c0.269-0.447,0.592-0.845,0.97-1.193C33.96,1.978,33.99,1.97,34.036,1.97
			c0.026,0,0.05,0.012,0.07,0.036c0.013,0.032,0.02,0.059,0.02,0.083c0,0.032-0.01,0.06-0.03,0.083
			c-0.318,0.356-0.587,0.756-0.806,1.199c-0.219,0.443-0.396,0.912-0.532,1.407s-0.232,1.007-0.289,1.537
			c-0.056,0.53-0.084,1.06-0.084,1.59c0,0.538,0.028,1.07,0.084,1.596c0.057,0.526,0.153,1.037,0.289,1.531s0.313,0.963,0.532,1.406
			s0.487,0.843,0.806,1.199c0.02,0.023,0.03,0.051,0.03,0.083C34.125,13.744,34.119,13.772,34.106,13.803z"/>
	</g>
	<g>
		<path fill="#010101" d="M62.404,9.583c-0.083,0.559-0.211,1.092-0.384,1.603c-0.172,0.511-0.393,0.989-0.661,1.437
			c-0.269,0.446-0.592,0.845-0.97,1.192c-0.026,0.016-0.047,0.024-0.06,0.024H60.3c-0.026,0-0.05-0.013-0.069-0.036
			c-0.014-0.031-0.021-0.06-0.021-0.083c0-0.032,0.011-0.06,0.03-0.083c0.318-0.356,0.587-0.756,0.806-1.199
			s0.396-0.912,0.532-1.406s0.232-1.005,0.288-1.531c0.057-0.526,0.085-1.058,0.085-1.596c0-0.53-0.028-1.06-0.085-1.59
			c-0.056-0.53-0.152-1.042-0.288-1.537s-0.313-0.963-0.532-1.407c-0.219-0.443-0.487-0.843-0.806-1.199
			c-0.02-0.023-0.03-0.051-0.03-0.083c0-0.04,0.007-0.067,0.021-0.083C60.25,1.981,60.273,1.97,60.3,1.97h0.03
			c0.013,0,0.033,0.008,0.06,0.024c0.378,0.348,0.701,0.746,0.97,1.193c0.269,0.447,0.489,0.926,0.661,1.436
			c0.173,0.51,0.301,1.044,0.384,1.602c0.082,0.558,0.124,1.118,0.124,1.68C62.528,8.466,62.486,9.026,62.404,9.583z"/>
	</g>
	<g>
		<path fill="#010101" d="M40.075,12.252c0,0.109,0.006,0.191,0.018,0.247s0.034,0.101,0.065,0.135
			c0.031,0.035,0.076,0.063,0.134,0.082c0.058,0.02,0.131,0.035,0.22,0.045c0.088,0.011,0.205,0.018,0.35,0.021v0.206h-2.084v-0.206
			c0.208-0.01,0.357-0.022,0.447-0.038s0.158-0.04,0.205-0.072c0.047-0.031,0.081-0.077,0.103-0.135
			c0.021-0.059,0.032-0.153,0.032-0.285V9.964c0-0.075-0.013-0.131-0.04-0.165c-0.026-0.035-0.065-0.053-0.116-0.053
			c-0.06,0-0.146,0.031-0.256,0.094c-0.111,0.062-0.249,0.147-0.412,0.257l-0.124-0.218l1.32-0.787h0.155
			c-0.011,0.181-0.017,0.431-0.017,0.751V12.252z"/>
		<path fill="#010101" d="M57.486,12.538c0.092,0,0.166-0.006,0.223-0.018c0.057-0.011,0.102-0.029,0.135-0.056
			c0.034-0.026,0.062-0.062,0.081-0.104s0.044-0.107,0.074-0.196h0.24l-0.048,0.824H55.87v-0.136
			c0.08-0.197,0.189-0.399,0.327-0.606c0.137-0.207,0.331-0.45,0.584-0.73c0.218-0.241,0.375-0.424,0.471-0.548
			c0.105-0.135,0.184-0.252,0.235-0.351s0.089-0.192,0.111-0.279c0.022-0.088,0.034-0.176,0.034-0.265
			c0-0.141-0.022-0.266-0.068-0.373c-0.045-0.108-0.113-0.193-0.207-0.256c-0.093-0.062-0.21-0.093-0.351-0.093
			c-0.352,0-0.589,0.195-0.711,0.587h-0.342V9.397c0.228-0.107,0.44-0.185,0.639-0.232c0.199-0.048,0.377-0.072,0.535-0.072
			c0.35,0,0.613,0.077,0.792,0.229c0.179,0.153,0.269,0.376,0.269,0.668c0,0.1-0.01,0.191-0.03,0.274
			c-0.02,0.084-0.051,0.167-0.093,0.249s-0.099,0.17-0.171,0.264c-0.071,0.094-0.15,0.189-0.236,0.286
			c-0.087,0.097-0.236,0.258-0.448,0.484c-0.357,0.378-0.62,0.708-0.787,0.99H57.486z"/>
	</g>
	<g>
		<path fill="#010101" d="M26.212,3.722L26.133,3.96c-0.158,0.026-0.283,0.059-0.375,0.097c-0.091,0.039-0.167,0.095-0.23,0.166
			c-0.063,0.071-0.114,0.167-0.155,0.288c-0.037,0.11-0.064,0.23-0.081,0.358c-0.018,0.129-0.027,0.272-0.032,0.432l-0.185,3.982
			l2.736-4.011c0.04-0.062,0.081-0.127,0.124-0.196c0.042-0.068,0.082-0.135,0.119-0.2c0.036-0.065,0.065-0.123,0.086-0.171
			c0.021-0.049,0.038-0.094,0.052-0.137c0.065-0.196,0.068-0.337,0.008-0.427c-0.06-0.089-0.191-0.15-0.395-0.183l0.079-0.239h2.049
			L29.855,3.96c-0.144,0.033-0.267,0.08-0.37,0.141c-0.102,0.062-0.215,0.161-0.34,0.298c-0.126,0.136-0.295,0.354-0.508,0.654
			L24.81,10.46h-0.639L24.34,5.02c0.011-0.296,0.005-0.507-0.019-0.632c-0.022-0.126-0.063-0.22-0.119-0.284
			c-0.058-0.063-0.149-0.111-0.274-0.144l0.079-0.239H26.212z"/>
	</g>
	<g>
		<path fill="#010101" d="M50.156,8.044c-0.04,0.04-0.087,0.06-0.14,0.06h-5.686c-0.054,0-0.1-0.02-0.14-0.06
			s-0.061-0.086-0.061-0.14c0-0.054,0.021-0.1,0.061-0.14s0.086-0.06,0.14-0.06h5.686c0.053,0,0.1,0.02,0.14,0.06
			s0.06,0.086,0.06,0.14C50.216,7.958,50.196,8.004,50.156,8.044z"/>
	</g>
	<g>
		<path fill="#010101" stroke="#010101" stroke-width="0.2856" stroke-miterlimit="10" d="M36.6,6.547l0.068,0.015
			c0.179-0.218,0.345-0.39,0.498-0.515c0.153-0.125,0.318-0.222,0.495-0.29s0.378-0.103,0.603-0.103c0.189,0,0.359,0.01,0.513,0.029
			v1.123h-0.552c-0.078-0.176-0.161-0.304-0.249-0.383s-0.208-0.12-0.361-0.12c-0.117,0-0.233,0.034-0.349,0.103
			c-0.116,0.068-0.227,0.167-0.334,0.298c-0.107,0.13-0.182,0.252-0.222,0.366c-0.041,0.114-0.061,0.249-0.061,0.405v1.708
			c0,0.296,0.018,0.5,0.054,0.612s0.095,0.194,0.178,0.246c0.083,0.053,0.207,0.093,0.373,0.122v0.239h-1.966v-0.239
			c0.124-0.039,0.212-0.073,0.266-0.103s0.1-0.069,0.139-0.122c0.039-0.052,0.068-0.132,0.087-0.239s0.029-0.274,0.029-0.502V7.069
			c0-0.208-0.003-0.375-0.01-0.502c-0.006-0.127-0.029-0.229-0.068-0.305c-0.039-0.076-0.099-0.133-0.178-0.171
			c-0.08-0.037-0.193-0.069-0.339-0.095V5.742l1.142-0.049h0.298L36.6,6.547z"/>
		<path fill="#010101" stroke="#010101" stroke-width="0.2856" stroke-miterlimit="10" d="M53.893,6.547l0.067,0.015
			c0.18-0.218,0.345-0.39,0.498-0.515c0.153-0.125,0.318-0.222,0.495-0.29c0.178-0.068,0.378-0.103,0.603-0.103
			c0.188,0,0.359,0.01,0.513,0.029v1.123h-0.552c-0.078-0.176-0.161-0.304-0.249-0.383c-0.087-0.08-0.208-0.12-0.36-0.12
			c-0.117,0-0.233,0.034-0.349,0.103c-0.116,0.068-0.228,0.167-0.335,0.298c-0.107,0.13-0.181,0.252-0.222,0.366
			c-0.041,0.114-0.061,0.249-0.061,0.405v1.708c0,0.296,0.018,0.5,0.053,0.612c0.036,0.112,0.096,0.194,0.179,0.246
			c0.083,0.053,0.207,0.093,0.373,0.122v0.239H52.58v-0.239c0.123-0.039,0.212-0.073,0.266-0.103s0.1-0.069,0.139-0.122
			c0.039-0.052,0.068-0.132,0.088-0.239s0.029-0.274,0.029-0.502V7.069c0-0.208-0.003-0.375-0.01-0.502s-0.029-0.229-0.068-0.305
			c-0.039-0.076-0.099-0.133-0.178-0.171c-0.08-0.037-0.192-0.069-0.339-0.095V5.742l1.142-0.049h0.298L53.893,6.547z"/>
	</g>
</g>
<line fill="none" stroke="#000000" stroke-width="0.5" stroke-linecap="round" stroke-miterlimit="10" x1="130.181" y1="52" x2="130.181" y2="55.667"/>
<g>
	<g>
		<path fill="#010101" d="M126.297,63.062c-0.406,0-0.709-0.159-0.907-0.479c-0.198-0.319-0.297-0.805-0.297-1.456
			c0-0.346,0.031-0.645,0.091-0.897c0.062-0.252,0.147-0.46,0.257-0.624c0.11-0.165,0.242-0.287,0.396-0.366
			s0.322-0.118,0.505-0.118c0.412,0,0.719,0.159,0.92,0.477c0.201,0.318,0.302,0.799,0.302,1.442c0,0.666-0.107,1.169-0.323,1.511
			C127.026,62.891,126.711,63.062,126.297,63.062z M125.643,61.042c0,0.613,0.057,1.063,0.171,1.35
			c0.113,0.287,0.29,0.431,0.528,0.431c0.228,0,0.396-0.136,0.507-0.405c0.109-0.27,0.165-0.688,0.165-1.254
			c0-0.433-0.028-0.783-0.085-1.051c-0.057-0.269-0.135-0.461-0.235-0.577c-0.101-0.117-0.223-0.175-0.365-0.175
			c-0.13,0-0.238,0.038-0.326,0.115c-0.087,0.077-0.158,0.188-0.212,0.333c-0.053,0.145-0.091,0.321-0.114,0.529
			C125.654,60.546,125.643,60.781,125.643,61.042z"/>
	</g>
	<g>
		<path fill="#010101" d="M123.956,56.564l0.063,0.014c0.252-0.218,0.476-0.389,0.669-0.514c0.195-0.126,0.393-0.222,0.593-0.291
			c0.2-0.069,0.412-0.102,0.637-0.102c0.188,0,0.355,0.009,0.502,0.029l-0.373,1.123h-0.553c-0.02-0.176-0.06-0.304-0.121-0.383
			c-0.061-0.08-0.168-0.12-0.32-0.12c-0.117,0-0.245,0.034-0.383,0.103c-0.139,0.067-0.283,0.167-0.434,0.297
			c-0.151,0.13-0.265,0.252-0.343,0.366c-0.079,0.114-0.144,0.25-0.196,0.405l-0.569,1.708c-0.099,0.297-0.149,0.5-0.151,0.612
			c-0.001,0.112,0.031,0.194,0.097,0.247c0.066,0.052,0.176,0.092,0.333,0.122l-0.08,0.239h-1.966l0.08-0.239
			c0.136-0.039,0.236-0.073,0.3-0.104c0.063-0.028,0.123-0.069,0.179-0.121c0.057-0.053,0.113-0.132,0.168-0.24
			c0.055-0.106,0.121-0.273,0.197-0.502l0.709-2.128c0.069-0.208,0.122-0.375,0.157-0.502s0.047-0.229,0.033-0.306
			c-0.014-0.076-0.054-0.134-0.121-0.171c-0.068-0.037-0.169-0.069-0.307-0.095l0.085-0.254l1.157-0.048h0.298L123.956,56.564z"/>
	</g>
</g>
<g>
	<g>
		<path fill="#010101" d="M52.827,28.474c-0.023,0.023-0.05,0.035-0.081,0.035h-3.287c-0.03,0-0.058-0.012-0.081-0.035
			c-0.022-0.023-0.034-0.05-0.034-0.081c0-0.031,0.012-0.058,0.034-0.081c0.023-0.023,0.051-0.035,0.081-0.035h3.287
			c0.031,0,0.058,0.011,0.081,0.035c0.023,0.023,0.034,0.05,0.034,0.081C52.861,28.424,52.851,28.451,52.827,28.474z"/>
	</g>
	<g>
		<path fill="#010101" d="M55.316,29.102c0,0.109,0.007,0.191,0.019,0.247c0.013,0.056,0.034,0.101,0.065,0.136
			c0.03,0.035,0.075,0.062,0.134,0.082c0.058,0.02,0.132,0.035,0.22,0.045c0.089,0.01,0.205,0.018,0.35,0.021v0.206H54.02v-0.206
			c0.208-0.009,0.357-0.022,0.447-0.038c0.089-0.016,0.157-0.04,0.204-0.072c0.047-0.032,0.081-0.077,0.103-0.136
			c0.022-0.058,0.033-0.153,0.033-0.285v-2.288c0-0.075-0.014-0.13-0.04-0.165c-0.026-0.035-0.064-0.052-0.115-0.052
			c-0.061,0-0.146,0.031-0.257,0.093s-0.248,0.148-0.412,0.257l-0.124-0.217l1.32-0.787h0.155c-0.012,0.181-0.018,0.431-0.018,0.75
			V29.102z"/>
		<path fill="#010101" d="M58.495,29.386c0.092,0,0.166-0.005,0.223-0.017s0.102-0.03,0.135-0.057
			c0.034-0.026,0.062-0.061,0.081-0.103c0.02-0.042,0.044-0.107,0.074-0.196h0.24L59.2,29.838h-2.321v-0.135
			c0.08-0.198,0.189-0.4,0.327-0.607c0.137-0.207,0.331-0.45,0.584-0.73c0.218-0.241,0.375-0.423,0.471-0.547
			c0.105-0.136,0.184-0.253,0.235-0.352s0.089-0.192,0.111-0.279s0.034-0.175,0.034-0.264c0-0.141-0.022-0.266-0.068-0.374
			c-0.045-0.108-0.113-0.193-0.207-0.255c-0.093-0.062-0.21-0.093-0.351-0.093c-0.352,0-0.589,0.195-0.711,0.587h-0.342v-0.542
			c0.228-0.107,0.44-0.185,0.639-0.233c0.199-0.048,0.377-0.072,0.535-0.072c0.35,0,0.613,0.077,0.792,0.23s0.269,0.375,0.269,0.667
			c0,0.1-0.01,0.191-0.03,0.275c-0.02,0.083-0.05,0.167-0.093,0.248c-0.042,0.082-0.099,0.17-0.171,0.264
			c-0.071,0.094-0.15,0.189-0.236,0.286c-0.087,0.097-0.236,0.258-0.448,0.484c-0.357,0.378-0.62,0.708-0.787,0.99H58.495z"/>
	</g>
	<g>
		<path fill="#010101" d="M46.087,29.628h0.292l-0.341,1.201l0.059,0.02c0.309-0.426,0.61-0.742,0.905-0.947
			c0.294-0.205,0.598-0.307,0.91-0.307c0.237,0,0.436,0.018,0.595,0.054l-0.233,1.093h-0.503c-0.026-0.169-0.066-0.298-0.122-0.386
			c-0.055-0.088-0.141-0.132-0.258-0.132c-0.127,0-0.273,0.065-0.439,0.195c-0.166,0.13-0.335,0.309-0.507,0.537
			c-0.172,0.228-0.302,0.438-0.388,0.629c-0.086,0.192-0.152,0.405-0.198,0.64l-0.444,2.113H44.57l0.742-3.333
			c0.068-0.306,0.103-0.539,0.103-0.698c0-0.091-0.015-0.162-0.044-0.212c-0.029-0.05-0.077-0.088-0.142-0.112
			s-0.175-0.042-0.332-0.051l0.054-0.258L46.087,29.628z"/>
	</g>
	<g>
		<path fill="#010101" d="M41.854,31.774c-0.086,0.25-0.205,0.466-0.354,0.649s-0.327,0.326-0.53,0.43s-0.418,0.155-0.645,0.155
			s-0.438-0.044-0.634-0.13c-0.197-0.087-0.382-0.196-0.555-0.33c-0.173-0.133-0.341-0.276-0.505-0.43
			c-0.163-0.153-0.33-0.297-0.5-0.43c-0.17-0.134-0.346-0.243-0.529-0.33c-0.184-0.087-0.381-0.13-0.595-0.13
			c-0.22,0-0.415,0.045-0.584,0.135s-0.313,0.208-0.43,0.354c-0.117,0.147-0.207,0.309-0.27,0.485
			c-0.063,0.177-0.095,0.352-0.095,0.524c0,0.073-0.014,0.139-0.042,0.195s-0.057,0.085-0.088,0.085
			c-0.037,0-0.068-0.028-0.093-0.085c-0.025-0.057-0.037-0.122-0.037-0.195c0-0.3,0.043-0.574,0.13-0.824s0.205-0.467,0.354-0.649
			c0.15-0.184,0.327-0.327,0.53-0.431c0.203-0.103,0.418-0.154,0.645-0.154s0.436,0.043,0.629,0.13s0.376,0.196,0.55,0.33
			c0.173,0.133,0.341,0.276,0.504,0.43s0.33,0.296,0.5,0.43c0.17,0.133,0.347,0.243,0.53,0.33c0.183,0.086,0.385,0.13,0.604,0.13
			s0.415-0.045,0.584-0.136c0.17-0.09,0.313-0.208,0.43-0.354s0.207-0.308,0.27-0.484c0.063-0.177,0.095-0.352,0.095-0.525
			c0-0.073,0.012-0.138,0.037-0.194c0.024-0.057,0.056-0.085,0.093-0.085s0.068,0.028,0.093,0.085
			c0.024,0.057,0.037,0.121,0.037,0.194C41.984,31.249,41.94,31.524,41.854,31.774z"/>
	</g>
</g>
<g>
	<g>
		<path fill="#010101" d="M116.566,85.473c-0.023,0.023-0.05,0.035-0.081,0.035h-3.287c-0.03,0-0.058-0.012-0.081-0.035
			c-0.022-0.023-0.034-0.05-0.034-0.081c0-0.031,0.012-0.058,0.034-0.081c0.023-0.023,0.051-0.035,0.081-0.035h3.287
			c0.031,0,0.058,0.011,0.081,0.035c0.023,0.023,0.034,0.05,0.034,0.081C116.6,85.423,116.589,85.45,116.566,85.473z"/>
	</g>
	<g>
		<path fill="#010101" d="M107.559,88.978c-0.04,0.039-0.087,0.06-0.14,0.06h-5.686c-0.054,0-0.1-0.021-0.14-0.06
			c-0.04-0.04-0.06-0.087-0.06-0.141c0-0.053,0.02-0.1,0.06-0.14s0.086-0.06,0.14-0.06h5.686c0.053,0,0.1,0.02,0.14,0.06
			s0.06,0.087,0.06,0.14C107.619,88.891,107.599,88.938,107.559,88.978z"/>
	</g>
	<g>
		<path fill="#010101" d="M119.665,83.095v0.138c-0.289,0-0.546,0.062-0.77,0.186c-0.224,0.125-0.41,0.307-0.558,0.547
			c-0.147,0.241-0.251,0.527-0.312,0.858l0.028,0.011c0.158-0.113,0.313-0.195,0.467-0.248s0.319-0.079,0.498-0.079
			c0.212,0,0.394,0.046,0.543,0.14s0.262,0.224,0.337,0.392s0.113,0.365,0.113,0.591c0,0.244-0.048,0.46-0.142,0.647
			c-0.094,0.187-0.239,0.334-0.436,0.441c-0.196,0.107-0.438,0.161-0.727,0.161c-0.412,0-0.723-0.127-0.932-0.383
			c-0.21-0.256-0.315-0.633-0.315-1.132c0-0.334,0.053-0.648,0.158-0.939s0.255-0.546,0.448-0.763
			c0.194-0.217,0.419-0.388,0.675-0.513c0.256-0.125,0.524-0.195,0.807-0.21L119.665,83.095z M118.825,84.805
			c-0.093,0-0.182,0.01-0.267,0.031c-0.086,0.021-0.166,0.051-0.241,0.09s-0.148,0.089-0.221,0.149
			c-0.022,0.021-0.039,0.042-0.051,0.065c-0.019,0.036-0.03,0.08-0.036,0.133S118,85.415,118,85.539
			c0,0.359,0.061,0.633,0.181,0.821c0.12,0.188,0.303,0.282,0.547,0.282c0.142,0,0.26-0.024,0.355-0.073s0.174-0.116,0.233-0.202
			c0.059-0.085,0.102-0.186,0.127-0.302s0.038-0.241,0.038-0.377c0-0.278-0.058-0.495-0.173-0.65
			C119.195,84.882,119.033,84.805,118.825,84.805z"/>
	</g>
	<g>
		<path fill="#010101" d="M109.826,86.627h0.293l-0.342,1.201l0.059,0.02c0.31-0.426,0.611-0.742,0.905-0.947
			c0.295-0.205,0.598-0.307,0.91-0.307c0.237,0,0.436,0.018,0.595,0.054l-0.233,1.093h-0.503c-0.026-0.169-0.066-0.298-0.122-0.386
			s-0.142-0.132-0.259-0.132c-0.127,0-0.272,0.065-0.438,0.195c-0.166,0.13-0.335,0.309-0.508,0.537
			c-0.172,0.228-0.302,0.438-0.388,0.629c-0.086,0.192-0.152,0.405-0.197,0.64l-0.444,2.113h-0.844l0.741-3.333
			c0.068-0.306,0.103-0.539,0.103-0.698c0-0.091-0.015-0.162-0.044-0.212c-0.029-0.05-0.076-0.088-0.142-0.112
			s-0.176-0.042-0.332-0.051l0.054-0.258L109.826,86.627z"/>
	</g>
	<g>
		<path fill="#010101" d="M98.726,88.773c-0.086,0.25-0.205,0.466-0.354,0.649s-0.327,0.326-0.53,0.43s-0.418,0.155-0.645,0.155
			s-0.438-0.044-0.634-0.13c-0.197-0.087-0.382-0.196-0.555-0.33c-0.173-0.133-0.341-0.276-0.505-0.43
			c-0.163-0.153-0.33-0.297-0.5-0.43c-0.17-0.134-0.346-0.243-0.529-0.33c-0.184-0.087-0.381-0.13-0.595-0.13
			c-0.22,0-0.415,0.045-0.584,0.135s-0.313,0.208-0.43,0.354c-0.117,0.147-0.207,0.309-0.27,0.485
			c-0.063,0.177-0.095,0.352-0.095,0.524c0,0.073-0.014,0.139-0.042,0.195s-0.057,0.085-0.088,0.085
			c-0.037,0-0.068-0.028-0.093-0.085c-0.025-0.057-0.037-0.122-0.037-0.195c0-0.3,0.043-0.574,0.13-0.824s0.205-0.467,0.354-0.649
			c0.15-0.184,0.327-0.327,0.53-0.431c0.203-0.103,0.418-0.154,0.645-0.154s0.436,0.043,0.629,0.13s0.376,0.196,0.55,0.33
			c0.173,0.133,0.341,0.276,0.504,0.43s0.33,0.296,0.5,0.43c0.17,0.133,0.347,0.243,0.53,0.33c0.183,0.086,0.385,0.13,0.604,0.13
			s0.415-0.045,0.584-0.136c0.17-0.09,0.313-0.208,0.43-0.354s0.207-0.308,0.27-0.484c0.063-0.177,0.095-0.352,0.095-0.525
			c0-0.073,0.012-0.138,0.037-0.194c0.024-0.057,0.056-0.085,0.093-0.085s0.068,0.028,0.093,0.085
			c0.024,0.057,0.037,0.121,0.037,0.194C98.855,88.248,98.812,88.523,98.726,88.773z"/>
	</g>
</g>
</svg>
