<?xml version="1.0" encoding="utf-8"?>
<!-- Generator: Adobe Illustrator 15.1.0, SVG Export Plug-In . SVG Version: 6.00 Build 0)  -->
<!DOCTYPE svg PUBLIC "-//W3C//DTD SVG 1.1//EN" "http://www.w3.org/Graphics/SVG/1.1/DTD/svg11.dtd">
<svg version="1.1" id="Layer_1" xmlns="http://www.w3.org/2000/svg" xmlns:xlink="http://www.w3.org/1999/xlink" x="0px" y="0px"
	 width="84.767px" height="65.168px" viewBox="0 0 84.767 65.168" enable-background="new 0 0 84.767 65.168" xml:space="preserve">
<g>
	<g>
		<line fill="none" stroke="#000000" stroke-width="0.5" stroke-miterlimit="10" x1="0.149" y1="62.084" x2="52.857" y2="62.084"/>
		<g>
			<path d="M51.959,62.084l-1.096-1.802l0.062-0.041l2.938,1.167c1.023,0.226,2.047,0.45,3.07,0.676
				c-1.023,0.225-2.047,0.45-3.07,0.676l-2.938,1.167l-0.062-0.031L51.959,62.084z"/>
		</g>
	</g>
</g>
<g>
	<g>
		<line fill="none" stroke="#000000" stroke-width="0.5" stroke-miterlimit="10" x1="0.149" y1="62.084" x2="42.373" y2="30.537"/>
		<g>
			<path d="M41.654,31.074l-1.956-0.788l0.025-0.069l3.052-0.824c0.955-0.432,1.909-0.864,2.864-1.296
				c-0.685,0.793-1.37,1.586-2.055,2.379l-1.655,2.693l-0.068,0.012L41.654,31.074z"/>
		</g>
	</g>
</g>
<g>
	<g>
		
			<line fill="none" stroke="#000000" stroke-width="0.5" stroke-miterlimit="10" stroke-dasharray="3,2" x1="0.149" y1="62.084" x2="79.978" y2="2.44"/>
		<g>
			<path d="M79.259,2.977l-1.956-0.788l0.025-0.069l3.052-0.824C81.334,0.864,82.289,0.432,83.244,0
				c-0.685,0.793-1.37,1.586-2.055,2.379l-1.655,2.693l-0.068,0.012L79.259,2.977z"/>
		</g>
	</g>
</g>
<g>
	<g>
		<path fill="#010101" stroke="#010101" stroke-width="0.2856" stroke-miterlimit="10" d="M42.137,55.335h0.156
			c0.107,0,0.195-0.011,0.263-0.034c0.082-0.029,0.171-0.078,0.269-0.148s0.236-0.188,0.415-0.354
			c0.15-0.14,0.263-0.258,0.339-0.356c0.076-0.098,0.129-0.187,0.159-0.269c0.026-0.068,0.039-0.137,0.039-0.205
			c0-0.098-0.03-0.174-0.09-0.229c-0.061-0.055-0.159-0.093-0.295-0.112v-0.239h2.103v0.239c-0.149,0.029-0.31,0.096-0.479,0.2
			c-0.169,0.104-0.343,0.241-0.521,0.41l-1.123,1.063l1.405,1.835c0.163,0.215,0.311,0.374,0.442,0.477
			c0.131,0.103,0.275,0.17,0.432,0.202v0.239h-1.874v-0.239c0.085-0.01,0.147-0.028,0.188-0.056c0.041-0.028,0.061-0.074,0.061-0.14
			c0-0.049-0.009-0.097-0.027-0.144s-0.055-0.111-0.11-0.193c-0.055-0.081-0.156-0.223-0.302-0.424l-0.581-0.781
			c-0.111-0.146-0.189-0.242-0.237-0.288c-0.047-0.045-0.097-0.078-0.149-0.098c-0.052-0.02-0.122-0.029-0.209-0.029h-0.273v1.172
			c0,0.279,0.013,0.474,0.039,0.583c0.026,0.108,0.076,0.191,0.149,0.249c0.073,0.057,0.192,0.106,0.358,0.148v0.239h-1.937v-0.239
			c0.163-0.042,0.276-0.086,0.339-0.132c0.063-0.045,0.109-0.1,0.137-0.163c0.027-0.063,0.047-0.149,0.059-0.259
			c0.011-0.109,0.017-0.251,0.017-0.427v-4.085c0-0.312-0.002-0.53-0.007-0.654s-0.018-0.229-0.039-0.315
			c-0.021-0.086-0.051-0.154-0.088-0.202c-0.038-0.049-0.088-0.088-0.151-0.117s-0.178-0.059-0.344-0.088v-0.254l1.176-0.049h0.292
			V55.335z"/>
	</g>
</g>
<g>
	<g>
		<path fill="#010101" d="M31.915,30.301l-0.263-1.445c-0.075-0.4-0.112-0.67-0.112-0.81c0-0.208,0.042-0.359,0.127-0.454
			c0.084-0.095,0.199-0.142,0.346-0.142s0.268,0.048,0.364,0.144c0.096,0.096,0.144,0.222,0.144,0.378
			c0,0.121-0.042,0.417-0.127,0.888l-0.264,1.44H31.915z"/>
	</g>
	<g>
		<path fill="#010101" stroke="#010101" stroke-width="0.2856" stroke-miterlimit="10" d="M26.084,31.501h0.156
			c0.107,0,0.195-0.011,0.263-0.034c0.082-0.029,0.171-0.078,0.269-0.148s0.236-0.188,0.415-0.354
			c0.15-0.14,0.263-0.258,0.339-0.356c0.076-0.098,0.129-0.187,0.159-0.269c0.026-0.068,0.039-0.137,0.039-0.205
			c0-0.098-0.03-0.174-0.09-0.229c-0.061-0.055-0.159-0.093-0.295-0.112v-0.239h2.103v0.239c-0.149,0.029-0.31,0.096-0.479,0.2
			c-0.169,0.104-0.343,0.241-0.522,0.41l-1.122,1.063l1.405,1.835c0.163,0.215,0.31,0.374,0.442,0.477
			c0.131,0.103,0.275,0.17,0.432,0.202v0.239h-1.874v-0.239c0.085-0.01,0.147-0.028,0.188-0.056c0.041-0.028,0.061-0.074,0.061-0.14
			c0-0.049-0.009-0.097-0.027-0.144s-0.055-0.111-0.11-0.193c-0.055-0.081-0.156-0.223-0.302-0.424l-0.581-0.781
			c-0.111-0.146-0.189-0.242-0.237-0.288c-0.047-0.045-0.097-0.078-0.149-0.098c-0.052-0.02-0.122-0.029-0.209-0.029h-0.273V33
			c0,0.279,0.013,0.474,0.039,0.583c0.026,0.108,0.076,0.191,0.149,0.249c0.073,0.057,0.192,0.106,0.358,0.148v0.239h-1.937v-0.239
			c0.163-0.042,0.276-0.086,0.339-0.132c0.063-0.045,0.109-0.1,0.137-0.163c0.027-0.063,0.047-0.149,0.059-0.259
			c0.011-0.109,0.017-0.251,0.017-0.427v-4.085c0-0.312-0.002-0.53-0.007-0.654s-0.018-0.229-0.039-0.315
			c-0.021-0.086-0.051-0.154-0.088-0.202c-0.038-0.049-0.088-0.088-0.151-0.117s-0.178-0.059-0.344-0.088v-0.254l1.176-0.049h0.292
			V31.501z"/>
	</g>
</g>
<g>
	<g>
		<path fill="#010101" stroke="#010101" stroke-width="0.2856" stroke-miterlimit="10" d="M53.978,9.873l0.068,0.015
			c0.179-0.218,0.345-0.39,0.498-0.515c0.153-0.125,0.318-0.222,0.495-0.29c0.178-0.068,0.378-0.103,0.603-0.103
			c0.188,0,0.359,0.01,0.513,0.029v1.123h-0.552c-0.078-0.176-0.161-0.304-0.249-0.383c-0.087-0.08-0.208-0.12-0.36-0.12
			c-0.117,0-0.234,0.034-0.349,0.103c-0.116,0.068-0.227,0.167-0.334,0.298c-0.107,0.13-0.182,0.252-0.222,0.366
			c-0.041,0.114-0.061,0.249-0.061,0.405v1.708c0,0.296,0.018,0.5,0.054,0.612s0.095,0.194,0.178,0.246
			c0.083,0.053,0.207,0.093,0.373,0.122v0.239h-1.966v-0.239c0.124-0.039,0.212-0.073,0.266-0.103s0.1-0.069,0.139-0.122
			c0.039-0.052,0.068-0.132,0.087-0.239s0.029-0.274,0.029-0.502v-2.128c0-0.208-0.003-0.375-0.01-0.502
			c-0.006-0.127-0.029-0.229-0.068-0.305c-0.039-0.076-0.099-0.133-0.178-0.171c-0.08-0.037-0.193-0.069-0.339-0.095V9.068
			l1.142-0.049h0.298L53.978,9.873z"/>
	</g>
</g>
<g>
	
		<line fill="none" stroke="#010101" stroke-width="0.4998" stroke-linecap="square" stroke-miterlimit="10" x1="53.235" y1="31.127" x2="53.235" y2="42.996"/>
	
		<line fill="none" stroke="#010101" stroke-width="0.4998" stroke-linecap="square" stroke-miterlimit="10" x1="63.415" y1="31.127" x2="63.415" y2="42.996"/>
	
		<line fill="none" stroke="#010101" stroke-width="0.4998" stroke-linecap="square" stroke-miterlimit="10" x1="76.154" y1="31.127" x2="76.154" y2="42.996"/>
	
		<line fill="none" stroke="#010101" stroke-width="0.4998" stroke-linecap="square" stroke-miterlimit="10" x1="83.867" y1="31.127" x2="83.867" y2="42.996"/>
	<g>
		<path fill="#010101" d="M61.845,35.643l-0.264-1.445c-0.075-0.4-0.112-0.67-0.112-0.81c0-0.208,0.042-0.359,0.127-0.454
			c0.084-0.095,0.2-0.142,0.347-0.142c0.146,0,0.267,0.048,0.363,0.144c0.096,0.096,0.144,0.222,0.144,0.378
			c0,0.121-0.042,0.417-0.127,0.888l-0.264,1.44H61.845z"/>
	</g>
	<g>
		<path fill="#010101" d="M73.053,36.233c-0.04,0.04-0.087,0.06-0.141,0.06h-6.235c-0.053,0-0.1-0.02-0.14-0.06
			c-0.04-0.04-0.06-0.087-0.06-0.14s0.02-0.1,0.06-0.14s0.086-0.06,0.14-0.06h6.235c0.054,0,0.101,0.02,0.141,0.06
			c0.039,0.04,0.06,0.087,0.06,0.14S73.092,36.193,73.053,36.233z M73.053,38.172c-0.04,0.04-0.087,0.061-0.141,0.061h-6.235
			c-0.053,0-0.1-0.021-0.14-0.061s-0.06-0.086-0.06-0.14c0-0.053,0.02-0.1,0.06-0.14c0.04-0.04,0.086-0.06,0.14-0.06h6.235
			c0.054,0,0.101,0.02,0.141,0.06c0.039,0.04,0.06,0.086,0.06,0.14C73.112,38.086,73.092,38.132,73.053,38.172z"/>
	</g>
	<g>
		<path fill="#010101" stroke="#010101" stroke-width="0.2856" stroke-miterlimit="10" d="M56.014,36.843h0.156
			c0.107,0,0.195-0.012,0.263-0.034c0.082-0.029,0.171-0.079,0.269-0.149s0.236-0.188,0.415-0.354
			c0.15-0.14,0.263-0.258,0.339-0.356c0.076-0.098,0.129-0.187,0.159-0.269c0.026-0.068,0.039-0.137,0.039-0.205
			c0-0.098-0.03-0.174-0.09-0.229c-0.061-0.055-0.159-0.093-0.295-0.112v-0.239h2.103v0.239c-0.15,0.029-0.309,0.096-0.479,0.2
			c-0.169,0.104-0.343,0.241-0.522,0.41l-1.122,1.064l1.405,1.834c0.163,0.215,0.31,0.374,0.441,0.477s0.276,0.17,0.432,0.202v0.239
			h-1.874v-0.239c0.085-0.01,0.147-0.028,0.188-0.056c0.041-0.028,0.061-0.074,0.061-0.14c0-0.049-0.009-0.097-0.027-0.144
			s-0.055-0.111-0.11-0.193c-0.055-0.081-0.156-0.223-0.302-0.424l-0.581-0.781c-0.111-0.146-0.189-0.242-0.237-0.288
			c-0.047-0.045-0.097-0.078-0.149-0.098c-0.052-0.02-0.122-0.029-0.209-0.029h-0.273v1.172c0,0.279,0.013,0.474,0.039,0.583
			c0.026,0.108,0.076,0.191,0.149,0.249c0.073,0.057,0.192,0.106,0.358,0.148v0.239h-1.937v-0.239
			c0.163-0.042,0.276-0.086,0.339-0.132c0.063-0.045,0.109-0.1,0.137-0.163c0.027-0.063,0.047-0.149,0.059-0.259
			c0.011-0.109,0.017-0.251,0.017-0.427v-4.085c0-0.312-0.002-0.53-0.007-0.654s-0.018-0.229-0.039-0.315
			c-0.021-0.086-0.051-0.154-0.088-0.202c-0.038-0.049-0.088-0.088-0.151-0.117s-0.178-0.059-0.344-0.088v-0.254l1.176-0.049h0.292
			V36.843z"/>
		<path fill="#010101" stroke="#010101" stroke-width="0.2856" stroke-miterlimit="10" d="M78.931,36.843h0.155
			c0.107,0,0.195-0.012,0.264-0.034c0.081-0.029,0.171-0.079,0.269-0.149s0.235-0.188,0.415-0.354
			c0.149-0.14,0.263-0.258,0.339-0.356s0.129-0.187,0.158-0.269c0.026-0.068,0.039-0.137,0.039-0.205c0-0.098-0.03-0.174-0.09-0.229
			c-0.061-0.055-0.159-0.093-0.295-0.112v-0.239h2.103v0.239c-0.149,0.029-0.31,0.096-0.479,0.2
			c-0.169,0.104-0.343,0.241-0.521,0.41l-1.122,1.064l1.404,1.834c0.163,0.215,0.311,0.374,0.442,0.477
			c0.131,0.103,0.275,0.17,0.432,0.202v0.239h-1.874v-0.239c0.085-0.01,0.147-0.028,0.188-0.056c0.04-0.028,0.061-0.074,0.061-0.14
			c0-0.049-0.009-0.097-0.026-0.144c-0.019-0.047-0.055-0.111-0.11-0.193c-0.056-0.081-0.156-0.223-0.303-0.424l-0.58-0.781
			c-0.11-0.146-0.189-0.242-0.236-0.288c-0.048-0.045-0.098-0.078-0.149-0.098s-0.122-0.029-0.21-0.029h-0.272v1.172
			c0,0.279,0.013,0.474,0.039,0.583c0.025,0.108,0.075,0.191,0.148,0.249c0.073,0.057,0.192,0.106,0.358,0.148v0.239H77.54v-0.239
			c0.162-0.042,0.275-0.086,0.339-0.132c0.063-0.045,0.108-0.1,0.137-0.163c0.027-0.063,0.047-0.149,0.059-0.259
			c0.011-0.109,0.017-0.251,0.017-0.427v-4.085c0-0.312-0.002-0.53-0.007-0.654s-0.019-0.229-0.039-0.315
			c-0.021-0.086-0.051-0.154-0.088-0.202c-0.037-0.049-0.088-0.088-0.151-0.117s-0.178-0.059-0.344-0.088v-0.254l1.176-0.049h0.293
			V36.843z"/>
	</g>
</g>
</svg>
