<?xml version="1.0" encoding="utf-8"?>
<!-- Generator: Adobe Illustrator 15.1.0, SVG Export Plug-In . SVG Version: 6.00 Build 0)  -->
<!DOCTYPE svg PUBLIC "-//W3C//DTD SVG 1.1//EN" "http://www.w3.org/Graphics/SVG/1.1/DTD/svg11.dtd">
<svg version="1.1" id="Layer_1" xmlns="http://www.w3.org/2000/svg" xmlns:xlink="http://www.w3.org/1999/xlink" x="0px" y="0px"
	 width="402px" height="70.629px" viewBox="0 0 402 70.629" enable-background="new 0 0 402 70.629" xml:space="preserve">
<g>
	
		<line fill="none" stroke="#010101" stroke-width="0.4996" stroke-linecap="square" stroke-miterlimit="10" x1="21.827" y1="31.764" x2="19.641" y2="37.697"/>
	
		<line fill="none" stroke="#010101" stroke-width="0.4996" stroke-linecap="square" stroke-miterlimit="10" x1="19.641" y1="37.697" x2="21.827" y2="43.629"/>
	
		<line fill="none" stroke="#010101" stroke-width="0.4996" stroke-linecap="square" stroke-miterlimit="10" x1="32.541" y1="31.764" x2="34.728" y2="37.697"/>
	
		<line fill="none" stroke="#010101" stroke-width="0.4996" stroke-linecap="square" stroke-miterlimit="10" x1="34.728" y1="37.697" x2="32.541" y2="43.629"/>
	<g>
		<path fill="#010101" d="M28.959,42.83c-0.406,0-0.708-0.159-0.906-0.479c-0.199-0.319-0.298-0.805-0.298-1.455
			c0-0.346,0.03-0.646,0.092-0.897c0.061-0.252,0.146-0.46,0.257-0.624c0.109-0.165,0.242-0.287,0.396-0.366
			c0.154-0.078,0.323-0.118,0.506-0.118c0.411,0,0.718,0.159,0.92,0.477c0.201,0.318,0.302,0.799,0.302,1.441
			c0,0.666-0.108,1.169-0.323,1.511C29.688,42.659,29.373,42.83,28.959,42.83z M28.305,40.81c0,0.613,0.057,1.063,0.171,1.35
			c0.113,0.287,0.29,0.431,0.529,0.431c0.228,0,0.396-0.135,0.506-0.405c0.11-0.27,0.165-0.688,0.165-1.254
			c0-0.433-0.028-0.782-0.084-1.051c-0.057-0.268-0.136-0.46-0.236-0.576c-0.101-0.117-0.222-0.175-0.365-0.175
			c-0.13,0-0.238,0.038-0.326,0.115c-0.087,0.077-0.157,0.188-0.211,0.333s-0.092,0.321-0.114,0.529
			C28.316,40.314,28.305,40.549,28.305,40.81z"/>
	</g>
	<g>
		<path fill="#010101" d="M4.713,40.277c-0.703,0-1.226-0.276-1.569-0.829c-0.343-0.554-0.515-1.393-0.515-2.518
			c0-0.598,0.053-1.115,0.159-1.551c0.106-0.436,0.254-0.796,0.444-1.081c0.19-0.285,0.419-0.496,0.686-0.632
			c0.267-0.137,0.558-0.205,0.874-0.205c0.713,0,1.243,0.275,1.591,0.825c0.348,0.549,0.522,1.38,0.522,2.493
			c0,1.151-0.186,2.022-0.559,2.612C5.974,39.982,5.429,40.277,4.713,40.277z M3.581,36.784c0,1.06,0.099,1.838,0.295,2.334
			c0.197,0.496,0.502,0.744,0.915,0.744c0.394,0,0.686-0.233,0.876-0.7c0.19-0.467,0.286-1.189,0.286-2.168
			c0-0.748-0.049-1.354-0.146-1.817s-0.233-0.796-0.407-0.998c-0.174-0.202-0.385-0.303-0.632-0.303c-0.225,0-0.412,0.067-0.563,0.2
			s-0.273,0.325-0.366,0.576s-0.159,0.555-0.198,0.915C3.601,35.926,3.581,36.332,3.581,36.784z"/>
	</g>
	<g>
		<path fill="#010101" d="M25.153,36.345l0.018,0.004c0.307-0.237,0.554-0.41,0.741-0.517c0.187-0.107,0.37-0.189,0.551-0.246
			c0.18-0.057,0.366-0.085,0.558-0.085c0.349,0,0.618,0.089,0.807,0.266c0.19,0.177,0.294,0.443,0.311,0.797
			c0.017,0.355-0.061,0.79-0.231,1.303c-0.177,0.531-0.407,0.978-0.69,1.344s-0.612,0.643-0.989,0.829
			c-0.376,0.188-0.778,0.28-1.208,0.28c-0.24,0-0.46-0.021-0.659-0.065c-0.198-0.044-0.396-0.121-0.594-0.231l-0.441,0.297
			l-0.31-0.077l1.769-5.304c0.104-0.312,0.174-0.53,0.21-0.653c0.036-0.125,0.059-0.229,0.066-0.315
			c0.007-0.086,0-0.154-0.021-0.203c-0.021-0.048-0.06-0.087-0.112-0.117c-0.054-0.03-0.158-0.058-0.314-0.088l0.084-0.254
			l1.197-0.048h0.288L25.153,36.345z M24.439,38.487c-0.084,0.25-0.139,0.449-0.165,0.598c-0.027,0.148-0.029,0.271-0.008,0.369
			c0.021,0.097,0.069,0.187,0.145,0.268c0.074,0.081,0.171,0.138,0.288,0.168c0.116,0.032,0.253,0.047,0.409,0.047
			c0.39,0,0.74-0.159,1.047-0.479c0.309-0.318,0.568-0.797,0.781-1.434c0.215-0.644,0.284-1.128,0.209-1.452
			c-0.077-0.323-0.301-0.485-0.671-0.485c-0.186,0-0.353,0.029-0.502,0.085c-0.149,0.057-0.308,0.146-0.478,0.266
			c-0.168,0.121-0.302,0.239-0.4,0.357c-0.1,0.117-0.175,0.25-0.225,0.399L24.439,38.487z"/>
	</g>
	<g>
		<path fill="#010101" d="M16.348,36.872c-0.04,0.04-0.087,0.06-0.14,0.06H9.971c-0.054,0-0.1-0.02-0.14-0.06
			c-0.04-0.04-0.06-0.087-0.06-0.14s0.02-0.1,0.06-0.14c0.04-0.04,0.086-0.06,0.14-0.06h6.237c0.053,0,0.1,0.02,0.14,0.06
			c0.04,0.04,0.06,0.086,0.06,0.14S16.387,36.832,16.348,36.872z M16.348,38.81c-0.04,0.04-0.087,0.06-0.14,0.06H9.971
			c-0.054,0-0.1-0.02-0.14-0.06s-0.06-0.087-0.06-0.14c0-0.054,0.02-0.101,0.06-0.14c0.04-0.04,0.086-0.06,0.14-0.06h6.237
			c0.053,0,0.1,0.02,0.14,0.06c0.04,0.04,0.06,0.086,0.06,0.14C16.407,38.723,16.387,38.77,16.348,38.81z"/>
		<path fill="#010101" d="M44.484,36.872c-0.04,0.04-0.087,0.06-0.14,0.06h-6.237c-0.054,0-0.1-0.02-0.14-0.06
			c-0.04-0.04-0.061-0.087-0.061-0.14s0.021-0.1,0.061-0.14c0.04-0.04,0.086-0.06,0.14-0.06h6.237c0.053,0,0.1,0.02,0.14,0.06
			c0.04,0.04,0.06,0.086,0.06,0.14S44.524,36.832,44.484,36.872z M44.484,38.81c-0.04,0.04-0.087,0.06-0.14,0.06h-6.237
			c-0.054,0-0.1-0.02-0.14-0.06s-0.061-0.087-0.061-0.14c0-0.054,0.021-0.101,0.061-0.14c0.04-0.04,0.086-0.06,0.14-0.06h6.237
			c0.053,0,0.1,0.02,0.14,0.06c0.04,0.04,0.06,0.086,0.06,0.14C44.544,38.723,44.524,38.77,44.484,38.81z"/>
	</g>
</g>
<g>
	<g>
		<g>
			
				<line fill="none" stroke="#000000" stroke-width="0.5" stroke-miterlimit="10" x1="96.415" y1="37.629" x2="75.274" y2="37.629"/>
			<g>
				<path d="M76.172,37.629l1.096,1.802l-0.062,0.041l-2.938-1.167c-1.023-0.226-2.047-0.45-3.07-0.676
					c1.023-0.225,2.047-0.45,3.07-0.676l2.938-1.167l0.062,0.031L76.172,37.629z"/>
			</g>
		</g>
	</g>
	<line fill="none" stroke="#000000" stroke-width="0.5" stroke-miterlimit="10" x1="75.274" y1="37.629" x2="54.134" y2="37.629"/>
</g>
<circle fill="#FFFFFF" stroke="#000000" stroke-width="0.5" stroke-miterlimit="10" cx="54.133" cy="37.629" r="2.836"/>
<polygon fill="#FFFFFF" stroke="#000000" stroke-width="0.5" stroke-miterlimit="10" points="56.291,40.466 58.488,34.253 
	60.686,40.466 "/>
<g>
	<path d="M103.374,34.666v2.818h2.71v0.72h-2.71v2.842h-0.768v-2.842h-2.711v-0.72h2.711v-2.818H103.374z"/>
</g>
<g>
	<g>
		<g>
			
				<line fill="none" stroke="#000000" stroke-width="0.5" stroke-miterlimit="10" x1="167.858" y1="54.558" x2="146.717" y2="54.558"/>
			<g>
				<path d="M147.615,54.558l1.096,1.801l-0.062,0.041l-2.938-1.167c-1.023-0.225-2.047-0.45-3.07-0.675
					c1.023-0.225,2.047-0.45,3.07-0.675l2.938-1.167l0.062,0.031L147.615,54.558z"/>
			</g>
		</g>
	</g>
	
		<line fill="none" stroke="#000000" stroke-width="0.5" stroke-miterlimit="10" x1="146.717" y1="54.558" x2="125.577" y2="54.558"/>
</g>
<line fill="none" stroke="#000000" stroke-width="0.5" stroke-miterlimit="10" stroke-dasharray="2,1" x1="125.577" y1="54.558" x2="125.577" y2="18.668"/>
<circle fill="#FFFFFF" stroke="#000000" stroke-width="0.5" stroke-miterlimit="10" cx="122.74" cy="18.668" r="2.836"/>
<circle fill="#FFFFFF" stroke="#000000" stroke-width="0.5" stroke-miterlimit="10" cx="128.413" cy="18.668" r="2.836"/>
<circle fill="#FFFFFF" stroke="#000000" stroke-width="0.5" stroke-miterlimit="10" cx="122.74" cy="54.558" r="2.836"/>
<g>
	<g>
		<g>
			
				<line fill="none" stroke="#000000" stroke-width="0.5" stroke-linecap="round" stroke-miterlimit="10" x1="250.219" y1="54.558" x2="228.484" y2="54.558"/>
			<g>
				<path d="M229.382,54.558l1.096,1.801l-0.062,0.041l-2.938-1.167c-1.023-0.225-2.047-0.45-3.07-0.675
					c1.023-0.225,2.047-0.45,3.07-0.675l2.938-1.167l0.062,0.031L229.382,54.558z"/>
			</g>
		</g>
	</g>
	
		<line fill="none" stroke="#000000" stroke-width="0.5" stroke-linecap="round" stroke-miterlimit="10" x1="228.484" y1="54.558" x2="206.75" y2="54.558"/>
</g>
<g>
	<g>
		<path fill="none" stroke="#000000" stroke-width="0.5" stroke-linecap="round" stroke-miterlimit="10" d="M210.22,18.002
			c3.437-1.377,5.864-4.739,5.864-8.668c0-5.155-4.18-9.334-9.334-9.334c-5.155,0-9.334,4.179-9.334,9.334s4.179,9.334,9.334,9.334"
			/>
		<g>
			<polygon points="206.75,18.668 212.044,19.594 210.457,17.859 211.178,15.623 			"/>
		</g>
	</g>
</g>
<line fill="none" stroke="#000000" stroke-width="0.5" stroke-linecap="round" stroke-miterlimit="10" stroke-dasharray="2,1" x1="206.75" y1="54.558" x2="206.75" y2="18.668"/>
<circle fill="#FFFFFF" stroke="#000000" stroke-width="0.5" stroke-miterlimit="10" cx="203.914" cy="54.558" r="2.836"/>
<g>
	<path d="M178.816,34.666v2.818h2.71v0.72h-2.71v2.842h-0.768v-2.842h-2.711v-0.72h2.711v-2.818H178.816z"/>
</g>
<g>
	<g>
		<g>
			
				<line fill="none" stroke="#000000" stroke-width="0.5" stroke-linecap="round" stroke-miterlimit="10" x1="343.636" y1="54.554" x2="321.901" y2="54.554"/>
			<g>
				<path d="M322.799,54.554l1.096,1.801l-0.062,0.041l-2.938-1.167c-1.023-0.225-2.047-0.45-3.07-0.675
					c1.023-0.225,2.047-0.45,3.07-0.675l2.938-1.167l0.062,0.031L322.799,54.554z"/>
			</g>
		</g>
	</g>
	
		<line fill="none" stroke="#000000" stroke-width="0.5" stroke-linecap="round" stroke-miterlimit="10" x1="321.901" y1="54.554" x2="300.167" y2="54.554"/>
</g>
<g>
	<g>
		
			<line fill="none" stroke="#000000" stroke-width="0.5" stroke-linecap="round" stroke-miterlimit="10" stroke-dasharray="2,1" x1="300.167" y1="36.981" x2="300.167" y2="18.661"/>
		<g>
			<path d="M300.167,36.084l-1.802-1.096l-0.041,0.062l1.167,2.938c0.226,1.023,0.45,2.047,0.676,3.07
				c0.226-1.023,0.45-2.047,0.676-3.07l1.167-2.938l-0.031-0.062L300.167,36.084z"/>
		</g>
	</g>
</g>
<path fill="none" stroke="#000000" stroke-width="0.5" stroke-linecap="round" stroke-miterlimit="10" d="M300.167,18.782"/>
<g>
	<path d="M262.441,34.416v2.818h2.71v0.72h-2.71v2.842h-0.768v-2.842h-2.711v-0.72h2.711v-2.818H262.441z"/>
</g>
<g>
	<path fill="none" stroke="#000000" stroke-width="0.5" stroke-linecap="round" stroke-miterlimit="10" d="M314.378,25.645
		c-1.534-1.99-3.513-3.688-5.885-4.931c-2.662-1.395-5.516-2.055-8.326-2.053"/>
	<g>
		<g>
			<path fill="none" stroke="#000000" stroke-width="0.5" stroke-linecap="round" stroke-miterlimit="10" d="M300.167,54.558
				c9.913,0,17.948-8.036,17.948-17.948c0-3.489-0.995-6.746-2.718-9.501"/>
			<g>
				<path d="M315.866,27.88l-0.772,1.962l-0.07-0.024l-0.847-3.045c-0.439-0.951-0.879-1.903-1.318-2.854
					c0.798,0.679,1.597,1.358,2.395,2.037l2.705,1.634l0.013,0.068L315.866,27.88z"/>
			</g>
		</g>
	</g>
</g>
<g>
	<g>
		<path fill="#010101" d="M149.832,68.988v-0.215c0.335-0.11,0.595-0.282,0.779-0.515c0.184-0.232,0.275-0.479,0.275-0.739
			c0-0.062-0.015-0.114-0.044-0.156c-0.022-0.029-0.045-0.044-0.068-0.044c-0.036,0-0.114,0.032-0.234,0.098
			c-0.059,0.029-0.121,0.044-0.186,0.044c-0.16,0-0.286-0.047-0.381-0.142c-0.094-0.095-0.142-0.225-0.142-0.391
			c0-0.159,0.061-0.296,0.183-0.409c0.122-0.114,0.271-0.171,0.447-0.171c0.215,0,0.406,0.094,0.573,0.28
			c0.167,0.188,0.251,0.436,0.251,0.744c0,0.335-0.116,0.646-0.349,0.935C150.705,68.595,150.336,68.822,149.832,68.988z"/>
	</g>
	<g>
		<path fill="#010101" d="M146.853,67.402c-0.703,0-1.226-0.276-1.569-0.829c-0.343-0.554-0.515-1.393-0.515-2.518
			c0-0.598,0.053-1.115,0.159-1.551c0.106-0.436,0.254-0.796,0.444-1.081c0.19-0.285,0.419-0.496,0.686-0.632
			c0.267-0.137,0.558-0.205,0.874-0.205c0.713,0,1.243,0.275,1.591,0.825c0.348,0.549,0.522,1.38,0.522,2.493
			c0,1.151-0.186,2.022-0.559,2.612C148.113,67.107,147.568,67.402,146.853,67.402z M145.72,63.909c0,1.06,0.099,1.838,0.295,2.334
			c0.197,0.496,0.502,0.744,0.915,0.744c0.394,0,0.686-0.233,0.876-0.7c0.19-0.467,0.286-1.189,0.286-2.168
			c0-0.748-0.049-1.354-0.146-1.817s-0.233-0.796-0.407-0.998c-0.174-0.202-0.385-0.303-0.632-0.303c-0.225,0-0.412,0.067-0.563,0.2
			s-0.273,0.325-0.366,0.576s-0.159,0.555-0.198,0.915C145.74,63.051,145.72,63.457,145.72,63.909z"/>
		<path fill="#010101" d="M155.286,67.402c-0.703,0-1.227-0.276-1.569-0.829c-0.344-0.554-0.515-1.393-0.515-2.518
			c0-0.598,0.053-1.115,0.158-1.551s0.254-0.796,0.444-1.081c0.19-0.285,0.419-0.496,0.686-0.632
			c0.267-0.137,0.558-0.205,0.874-0.205c0.712,0,1.242,0.275,1.591,0.825c0.348,0.549,0.522,1.38,0.522,2.493
			c0,1.151-0.187,2.022-0.56,2.612C156.545,67.107,156.001,67.402,155.286,67.402z M154.153,63.909c0,1.06,0.099,1.838,0.296,2.334
			c0.196,0.496,0.501,0.744,0.915,0.744c0.394,0,0.686-0.233,0.876-0.7s0.285-1.189,0.285-2.168c0-0.748-0.049-1.354-0.146-1.817
			s-0.233-0.796-0.407-0.998s-0.385-0.303-0.632-0.303c-0.225,0-0.413,0.067-0.564,0.2s-0.272,0.325-0.365,0.576
			s-0.159,0.555-0.198,0.915C154.172,63.051,154.153,63.457,154.153,63.909z"/>
	</g>
</g>
<g>
	<g>
		<path fill="#010101" d="M234.178,68.988v-0.215c0.336-0.11,0.595-0.282,0.779-0.515c0.184-0.232,0.275-0.479,0.275-0.739
			c0-0.062-0.016-0.114-0.045-0.156c-0.021-0.029-0.045-0.044-0.067-0.044c-0.036,0-0.114,0.032-0.234,0.098
			c-0.059,0.029-0.12,0.044-0.186,0.044c-0.159,0-0.286-0.047-0.381-0.142s-0.142-0.225-0.142-0.391
			c0-0.159,0.061-0.296,0.184-0.409c0.121-0.114,0.271-0.171,0.446-0.171c0.215,0,0.405,0.094,0.573,0.28
			c0.168,0.188,0.252,0.436,0.252,0.744c0,0.335-0.117,0.646-0.35,0.935C235.051,68.595,234.682,68.822,234.178,68.988z"/>
	</g>
	<g>
		<path fill="#010101" d="M231.198,67.402c-0.702,0-1.226-0.276-1.569-0.829c-0.343-0.554-0.515-1.393-0.515-2.518
			c0-0.598,0.054-1.115,0.159-1.551s0.254-0.796,0.443-1.081c0.191-0.285,0.42-0.496,0.686-0.632
			c0.268-0.137,0.559-0.205,0.874-0.205c0.713,0,1.243,0.275,1.591,0.825c0.349,0.549,0.522,1.38,0.522,2.493
			c0,1.151-0.187,2.022-0.559,2.612C232.459,67.107,231.914,67.402,231.198,67.402z M230.066,63.909c0,1.06,0.098,1.838,0.295,2.334
			c0.197,0.496,0.502,0.744,0.915,0.744c0.394,0,0.687-0.233,0.876-0.7c0.19-0.467,0.285-1.189,0.285-2.168
			c0-0.748-0.049-1.354-0.146-1.817s-0.232-0.796-0.406-0.998c-0.175-0.202-0.385-0.303-0.633-0.303c-0.225,0-0.412,0.067-0.563,0.2
			s-0.273,0.325-0.366,0.576s-0.158,0.555-0.197,0.915C230.086,63.051,230.066,63.457,230.066,63.909z"/>
		<path fill="#010101" d="M239.631,67.402c-0.703,0-1.227-0.276-1.568-0.829c-0.344-0.554-0.516-1.393-0.516-2.518
			c0-0.598,0.053-1.115,0.158-1.551s0.254-0.796,0.445-1.081c0.189-0.285,0.418-0.496,0.686-0.632
			c0.266-0.137,0.557-0.205,0.873-0.205c0.713,0,1.242,0.275,1.592,0.825c0.348,0.549,0.521,1.38,0.521,2.493
			c0,1.151-0.186,2.022-0.559,2.612C240.891,67.107,240.348,67.402,239.631,67.402z M238.498,63.909c0,1.06,0.1,1.838,0.297,2.334
			c0.195,0.496,0.5,0.744,0.914,0.744c0.395,0,0.686-0.233,0.877-0.7c0.189-0.467,0.285-1.189,0.285-2.168
			c0-0.748-0.049-1.354-0.146-1.817s-0.234-0.796-0.408-0.998s-0.385-0.303-0.631-0.303c-0.225,0-0.414,0.067-0.564,0.2
			c-0.152,0.133-0.273,0.325-0.365,0.576c-0.094,0.25-0.16,0.555-0.199,0.915C238.518,63.051,238.498,63.457,238.498,63.909z"/>
	</g>
</g>
<g>
	<g>
		<path fill="#010101" d="M327.595,68.988v-0.215c0.335-0.11,0.595-0.282,0.778-0.515s0.275-0.479,0.275-0.739
			c0-0.062-0.014-0.114-0.043-0.156c-0.023-0.029-0.046-0.044-0.068-0.044c-0.036,0-0.114,0.032-0.234,0.098
			c-0.059,0.029-0.121,0.044-0.186,0.044c-0.16,0-0.286-0.047-0.381-0.142c-0.094-0.095-0.142-0.225-0.142-0.391
			c0-0.159,0.062-0.296,0.183-0.409c0.123-0.114,0.271-0.171,0.447-0.171c0.215,0,0.406,0.094,0.573,0.28
			c0.167,0.188,0.251,0.436,0.251,0.744c0,0.335-0.115,0.646-0.349,0.935C328.468,68.595,328.1,68.822,327.595,68.988z"/>
	</g>
	<g>
		<path fill="#010101" d="M324.615,67.402c-0.703,0-1.226-0.276-1.568-0.829c-0.344-0.554-0.516-1.393-0.516-2.518
			c0-0.598,0.053-1.115,0.158-1.551c0.106-0.436,0.254-0.796,0.445-1.081c0.189-0.285,0.418-0.496,0.686-0.632
			c0.266-0.137,0.558-0.205,0.873-0.205c0.713,0,1.243,0.275,1.592,0.825c0.348,0.549,0.521,1.38,0.521,2.493
			c0,1.151-0.186,2.022-0.559,2.612C325.875,67.107,325.331,67.402,324.615,67.402z M323.482,63.909c0,1.06,0.1,1.838,0.296,2.334
			c0.196,0.496,0.502,0.744,0.915,0.744c0.394,0,0.686-0.233,0.876-0.7s0.286-1.189,0.286-2.168c0-0.748-0.049-1.354-0.146-1.817
			s-0.234-0.796-0.408-0.998s-0.385-0.303-0.632-0.303c-0.225,0-0.412,0.067-0.563,0.2s-0.273,0.325-0.366,0.576
			s-0.159,0.555-0.198,0.915C323.502,63.051,323.482,63.457,323.482,63.909z"/>
		<path fill="#010101" d="M333.049,67.402c-0.703,0-1.227-0.276-1.57-0.829c-0.344-0.554-0.514-1.393-0.514-2.518
			c0-0.598,0.053-1.115,0.158-1.551s0.254-0.796,0.443-1.081c0.191-0.285,0.42-0.496,0.686-0.632
			c0.268-0.137,0.559-0.205,0.875-0.205c0.711,0,1.242,0.275,1.59,0.825c0.348,0.549,0.523,1.38,0.523,2.493
			c0,1.151-0.188,2.022-0.561,2.612C334.309,67.107,333.764,67.402,333.049,67.402z M331.916,63.909c0,1.06,0.098,1.838,0.295,2.334
			c0.197,0.496,0.502,0.744,0.916,0.744c0.393,0,0.686-0.233,0.875-0.7c0.191-0.467,0.285-1.189,0.285-2.168
			c0-0.748-0.049-1.354-0.146-1.817s-0.232-0.796-0.406-0.998s-0.385-0.303-0.633-0.303c-0.225,0-0.412,0.067-0.564,0.2
			c-0.15,0.133-0.271,0.325-0.365,0.576c-0.092,0.25-0.158,0.555-0.197,0.915C331.936,63.051,331.916,63.457,331.916,63.909z"/>
	</g>
</g>
<g>
	<g>
		<path fill="#010101" d="M330.283,41.415V41.2c0.335-0.11,0.594-0.282,0.778-0.515c0.184-0.232,0.275-0.479,0.275-0.739
			c0-0.062-0.015-0.114-0.044-0.156c-0.022-0.029-0.045-0.044-0.068-0.044c-0.035,0-0.113,0.032-0.234,0.098
			c-0.059,0.029-0.12,0.044-0.186,0.044c-0.159,0-0.285-0.047-0.381-0.142c-0.094-0.095-0.141-0.225-0.141-0.391
			c0-0.159,0.061-0.296,0.183-0.409c0.122-0.114,0.271-0.171,0.446-0.171c0.215,0,0.406,0.094,0.574,0.28
			c0.167,0.188,0.251,0.436,0.251,0.744c0,0.335-0.116,0.646-0.349,0.935C331.156,41.021,330.787,41.249,330.283,41.415z"/>
	</g>
	<g>
		<path fill="#010101" d="M346.675,42.382h-1.111l0.047-0.139c0.08-0.022,0.14-0.042,0.178-0.059
			c0.037-0.017,0.072-0.041,0.104-0.07c0.031-0.031,0.064-0.077,0.098-0.141c0.033-0.063,0.071-0.158,0.113-0.286l0.247-0.739
			c0.044-0.131,0.079-0.251,0.107-0.357c0.028-0.107,0.046-0.195,0.05-0.264c0.005-0.069,0.002-0.123-0.011-0.161
			s-0.032-0.071-0.058-0.099s-0.059-0.049-0.098-0.064c-0.041-0.016-0.097-0.024-0.17-0.024s-0.148,0.015-0.224,0.044
			c-0.076,0.029-0.165,0.079-0.269,0.15c-0.103,0.071-0.183,0.142-0.242,0.212c-0.059,0.069-0.104,0.149-0.133,0.239l-0.352,1.053
			c-0.054,0.161-0.084,0.274-0.09,0.337c-0.006,0.063,0.007,0.11,0.038,0.144c0.032,0.032,0.092,0.062,0.179,0.086l-0.046,0.139
			h-1.106l0.047-0.139c0.08-0.022,0.14-0.042,0.177-0.059c0.036-0.017,0.07-0.041,0.103-0.07c0.031-0.031,0.063-0.076,0.097-0.139
			c0.032-0.062,0.07-0.159,0.114-0.291l0.41-1.229c0.04-0.12,0.07-0.217,0.092-0.29c0.021-0.073,0.027-0.133,0.02-0.177
			s-0.031-0.077-0.07-0.099s-0.099-0.04-0.178-0.055l0.05-0.15l0.669-0.024h0.172l-0.185,0.459l0.036,0.012
			c0.186-0.142,0.331-0.241,0.438-0.302c0.105-0.06,0.207-0.107,0.307-0.14c0.098-0.033,0.195-0.049,0.293-0.049
			c0.102,0,0.189,0.011,0.261,0.035c0.073,0.023,0.131,0.06,0.176,0.108c0.046,0.049,0.075,0.109,0.091,0.182
			s0.016,0.159,0.002,0.261s-0.048,0.23-0.1,0.387l-0.354,1.063c-0.043,0.13-0.07,0.224-0.083,0.281
			c-0.012,0.059-0.014,0.104-0.005,0.136c0.008,0.032,0.026,0.06,0.055,0.08c0.028,0.022,0.083,0.045,0.163,0.069L346.675,42.382z"
			/>
	</g>
	<g>
		<path fill="#010101" d="M333.741,39.556c0.14-0.038,0.241-0.073,0.305-0.103c0.063-0.028,0.123-0.069,0.178-0.121
			c0.054-0.052,0.11-0.133,0.167-0.239c0.058-0.107,0.124-0.275,0.2-0.503l0.709-2.127c0.069-0.208,0.122-0.376,0.158-0.502
			c0.035-0.127,0.047-0.229,0.033-0.306c-0.014-0.076-0.054-0.133-0.122-0.17c-0.067-0.037-0.169-0.068-0.307-0.095l0.086-0.259
			l1.151-0.043h0.298l-1.163,3.488c-0.093,0.279-0.146,0.474-0.155,0.583c-0.01,0.108,0.012,0.192,0.065,0.249
			s0.158,0.106,0.31,0.148l-0.08,0.239h-1.912L333.741,39.556z M337.25,33.219l-0.315,0.946h-0.897l0.315-0.946H337.25z"/>
	</g>
	<g>
		<path fill="#010101" d="M342.304,35.37l0.059-0.175c0.55,0,0.968,0.094,1.254,0.281c0.286,0.186,0.466,0.487,0.541,0.902
			c0.075,0.414,0.03,0.869-0.135,1.364c-0.141,0.419-0.352,0.803-0.633,1.151c-0.282,0.348-0.597,0.61-0.943,0.788
			c-0.348,0.178-0.651,0.266-0.911,0.266c-0.287,0-0.503-0.082-0.651-0.244c-0.147-0.163-0.244-0.415-0.29-0.756
			c-0.294,0.345-0.58,0.598-0.86,0.759c-0.279,0.16-0.56,0.241-0.839,0.241c-0.244,0-0.473-0.087-0.687-0.261
			s-0.343-0.442-0.388-0.805c-0.045-0.363,0.003-0.756,0.144-1.179c0.153-0.458,0.385-0.876,0.696-1.254
			c0.24-0.292,0.505-0.534,0.792-0.727c0.286-0.192,0.567-0.327,0.846-0.407c0.277-0.08,0.608-0.12,0.996-0.12l-0.059,0.175
			c-0.468,0.046-0.912,0.259-1.334,0.642c-0.422,0.381-0.757,0.944-1.004,1.685c-0.244,0.732-0.311,1.269-0.2,1.61
			c0.068,0.206,0.227,0.308,0.474,0.308c0.205,0,0.428-0.084,0.668-0.254c0.24-0.168,0.499-0.474,0.776-0.917
			c-0.016-0.381-0.015-0.663,0.003-0.849c0.018-0.185,0.056-0.363,0.111-0.532c0.105-0.316,0.269-0.587,0.491-0.815
			c0.11-0.114,0.213-0.17,0.311-0.17c0.102,0,0.169,0.057,0.202,0.17c0.067,0.215,0.051,0.478-0.053,0.786
			c-0.125,0.378-0.388,0.848-0.787,1.41c-0.021,0.445,0.027,0.746,0.146,0.9c0.119,0.155,0.287,0.231,0.502,0.231
			c0.254,0,0.49-0.099,0.713-0.297c0.301-0.267,0.572-0.767,0.816-1.498c0.297-0.889,0.318-1.543,0.066-1.966
			C342.985,35.557,342.707,35.409,342.304,35.37z"/>
	</g>
	<g>
		<path fill="#010101" stroke="#010101" stroke-width="0.2855" stroke-miterlimit="10" d="M329.439,41.848h-1.992V41.61
			c0.156-0.033,0.27-0.068,0.34-0.107s0.123-0.089,0.16-0.149c0.038-0.06,0.064-0.142,0.078-0.244
			c0.016-0.103,0.022-0.261,0.022-0.476v-1.683c-0.176,0.198-0.339,0.356-0.49,0.476c-0.151,0.118-0.319,0.215-0.505,0.29
			s-0.383,0.112-0.591,0.112c-0.537,0-0.949-0.2-1.237-0.601c-0.288-0.399-0.432-0.981-0.432-1.746c0-0.54,0.094-0.996,0.28-1.369
			s0.448-0.65,0.783-0.834c0.335-0.184,0.723-0.275,1.161-0.275c0.231,0,0.439,0.023,0.625,0.071
			c0.186,0.047,0.376,0.123,0.571,0.227l0.342-0.297l0.331,0.078v5.552c0,0.192,0.008,0.345,0.022,0.456
			c0.015,0.112,0.041,0.201,0.078,0.267c0.038,0.064,0.093,0.115,0.166,0.151c0.073,0.035,0.169,0.069,0.286,0.103V41.848z
			 M328.048,36.843c0-0.303-0.02-0.537-0.059-0.703s-0.105-0.307-0.2-0.422c-0.094-0.116-0.205-0.199-0.332-0.249
			s-0.276-0.076-0.449-0.076c-0.419,0-0.74,0.169-0.963,0.507s-0.334,0.815-0.334,1.43c0,0.625,0.09,1.1,0.27,1.425
			c0.182,0.325,0.452,0.487,0.813,0.487c0.137,0,0.254-0.012,0.35-0.036s0.19-0.064,0.283-0.119
			c0.093-0.056,0.188-0.131,0.283-0.225c0.096-0.095,0.165-0.18,0.207-0.257c0.043-0.076,0.075-0.165,0.098-0.266
			c0.023-0.101,0.034-0.231,0.034-0.39V36.843z"/>
	</g>
</g>
<line fill="none" stroke="#000000" stroke-width="0.5" stroke-linecap="round" stroke-miterlimit="10" stroke-dasharray="2,1" x1="300.167" y1="54.554" x2="300.167" y2="41.058"/>
<circle fill="#FFFFFF" stroke="#000000" stroke-width="0.5" stroke-miterlimit="10" cx="297.331" cy="18.661" r="2.836"/>
<g>
	<g>
		<path fill="#010101" d="M291.178,49.89h-1.111l0.045-0.139c0.082-0.023,0.141-0.042,0.179-0.06c0.038-0.017,0.072-0.04,0.104-0.07
			s0.064-0.076,0.097-0.14c0.034-0.063,0.072-0.158,0.114-0.286l0.247-0.739c0.044-0.132,0.08-0.251,0.107-0.357
			c0.029-0.107,0.045-0.195,0.05-0.265c0.005-0.068,0.002-0.122-0.011-0.161c-0.013-0.038-0.032-0.071-0.059-0.098
			c-0.024-0.028-0.058-0.05-0.097-0.065c-0.041-0.016-0.097-0.023-0.17-0.023s-0.148,0.015-0.224,0.043
			c-0.076,0.03-0.165,0.08-0.268,0.151c-0.104,0.071-0.184,0.142-0.243,0.211c-0.058,0.069-0.104,0.15-0.134,0.24l-0.351,1.053
			c-0.054,0.161-0.083,0.273-0.09,0.337c-0.005,0.063,0.007,0.11,0.038,0.144c0.032,0.032,0.092,0.062,0.18,0.086l-0.047,0.139
			h-1.105l0.045-0.139c0.082-0.023,0.141-0.042,0.178-0.06c0.035-0.017,0.07-0.04,0.103-0.07c0.031-0.03,0.063-0.075,0.097-0.138
			c0.032-0.063,0.07-0.159,0.114-0.291l0.41-1.23c0.04-0.119,0.07-0.217,0.092-0.29c0.021-0.073,0.026-0.132,0.019-0.176
			s-0.03-0.078-0.069-0.099c-0.04-0.021-0.099-0.04-0.178-0.055l0.05-0.15l0.669-0.025h0.172l-0.185,0.46l0.036,0.011
			c0.186-0.141,0.331-0.24,0.438-0.301s0.208-0.107,0.306-0.14c0.099-0.033,0.196-0.05,0.294-0.05c0.102,0,0.188,0.012,0.261,0.035
			s0.131,0.06,0.176,0.108c0.045,0.05,0.075,0.109,0.091,0.182s0.016,0.16,0.002,0.262c-0.014,0.101-0.048,0.23-0.1,0.387
			l-0.354,1.063c-0.043,0.129-0.07,0.223-0.083,0.281c-0.012,0.059-0.013,0.104-0.005,0.135c0.008,0.033,0.025,0.06,0.055,0.081
			c0.028,0.022,0.083,0.045,0.162,0.069L291.178,49.89z"/>
	</g>
	<g>
		<path fill="#010101" d="M278.248,47.049c0.141-0.039,0.241-0.073,0.305-0.103s0.123-0.07,0.178-0.122s0.11-0.132,0.167-0.238
			c0.058-0.107,0.124-0.275,0.2-0.504l0.709-2.127c0.07-0.208,0.122-0.376,0.158-0.502c0.035-0.127,0.047-0.229,0.033-0.306
			c-0.014-0.076-0.054-0.133-0.121-0.17c-0.068-0.037-0.17-0.069-0.308-0.096l0.086-0.259l1.151-0.043h0.298l-1.163,3.487
			c-0.093,0.28-0.146,0.475-0.155,0.584c-0.01,0.108,0.013,0.191,0.065,0.248c0.055,0.058,0.158,0.106,0.31,0.149l-0.079,0.239
			h-1.914L278.248,47.049z M281.757,40.711l-0.315,0.946h-0.897l0.315-0.946H281.757z"/>
	</g>
	<g>
		<path fill="#010101" d="M286.795,42.863l0.059-0.175c0.551,0,0.969,0.093,1.254,0.28c0.286,0.187,0.466,0.487,0.541,0.902
			c0.075,0.414,0.03,0.869-0.135,1.364c-0.141,0.419-0.352,0.803-0.633,1.151c-0.282,0.347-0.597,0.61-0.943,0.787
			c-0.348,0.178-0.651,0.266-0.911,0.266c-0.287,0-0.503-0.081-0.651-0.243c-0.147-0.163-0.244-0.415-0.29-0.756
			c-0.293,0.345-0.58,0.598-0.86,0.759c-0.279,0.16-0.56,0.24-0.839,0.24c-0.244,0-0.473-0.087-0.687-0.26
			c-0.213-0.175-0.343-0.443-0.388-0.806c-0.045-0.363,0.003-0.756,0.144-1.178c0.153-0.459,0.385-0.877,0.697-1.255
			c0.24-0.293,0.504-0.534,0.791-0.728c0.286-0.191,0.568-0.326,0.846-0.406s0.609-0.119,0.996-0.119l-0.059,0.175
			c-0.468,0.046-0.912,0.26-1.334,0.642s-0.757,0.944-1.004,1.686c-0.244,0.731-0.311,1.27-0.2,1.61
			c0.068,0.205,0.227,0.308,0.474,0.308c0.205,0,0.428-0.085,0.668-0.254s0.499-0.475,0.776-0.917
			c-0.016-0.381-0.015-0.664,0.003-0.849c0.018-0.186,0.056-0.363,0.111-0.532c0.105-0.315,0.269-0.587,0.491-0.815
			c0.11-0.113,0.213-0.17,0.311-0.17c0.102,0,0.169,0.057,0.202,0.17c0.067,0.215,0.051,0.478-0.053,0.786
			c-0.125,0.378-0.388,0.848-0.787,1.41c-0.021,0.445,0.027,0.745,0.146,0.9c0.119,0.154,0.287,0.231,0.502,0.231
			c0.254,0,0.49-0.1,0.713-0.298c0.301-0.267,0.573-0.766,0.816-1.498c0.297-0.888,0.318-1.543,0.066-1.966
			C287.477,43.05,287.198,42.902,286.795,42.863z"/>
	</g>
	<g>
		<path fill="#010101" stroke="#010101" stroke-width="0.2855" stroke-miterlimit="10" d="M287.732,34.365h-1.99v-0.239
			c0.156-0.033,0.269-0.068,0.339-0.107c0.069-0.039,0.123-0.088,0.161-0.149c0.037-0.06,0.063-0.141,0.078-0.244
			s0.021-0.261,0.021-0.476v-1.684c-0.176,0.199-0.339,0.357-0.49,0.476c-0.151,0.119-0.32,0.215-0.506,0.29
			s-0.382,0.112-0.59,0.112c-0.537,0-0.949-0.2-1.237-0.6c-0.288-0.4-0.433-0.982-0.433-1.747c0-0.54,0.094-0.996,0.281-1.369
			s0.448-0.65,0.783-0.834c0.336-0.184,0.723-0.275,1.162-0.275c0.23,0,0.439,0.023,0.625,0.071c0.185,0.047,0.375,0.123,0.57,0.227
			l0.342-0.297l0.332,0.078v5.552c0,0.192,0.007,0.344,0.021,0.456s0.041,0.201,0.078,0.266c0.037,0.065,0.093,0.116,0.166,0.151
			s0.168,0.07,0.285,0.103V34.365z M286.342,29.359c0-0.303-0.02-0.537-0.059-0.703s-0.105-0.307-0.2-0.422
			c-0.095-0.116-0.204-0.199-0.331-0.249s-0.277-0.076-0.449-0.076c-0.42,0-0.741,0.169-0.965,0.507
			c-0.223,0.338-0.334,0.815-0.334,1.43c0,0.625,0.09,1.1,0.271,1.425c0.18,0.325,0.451,0.488,0.813,0.488
			c0.137,0,0.253-0.012,0.349-0.037c0.097-0.024,0.19-0.064,0.283-0.12s0.187-0.13,0.283-0.225c0.096-0.094,0.165-0.18,0.207-0.256
			c0.042-0.077,0.075-0.165,0.098-0.266c0.022-0.101,0.034-0.231,0.034-0.39V29.359z"/>
	</g>
</g>
<g>
	<g>
		<path fill="#010101" d="M75.812,53.385V53.17c0.335-0.11,0.595-0.282,0.779-0.515c0.184-0.232,0.275-0.479,0.275-0.739
			c0-0.062-0.015-0.114-0.044-0.156c-0.022-0.029-0.045-0.044-0.068-0.044c-0.036,0-0.114,0.032-0.234,0.098
			c-0.059,0.029-0.121,0.044-0.186,0.044c-0.16,0-0.286-0.047-0.381-0.142c-0.094-0.095-0.142-0.225-0.142-0.391
			c0-0.159,0.061-0.296,0.183-0.409c0.122-0.114,0.271-0.171,0.447-0.171c0.215,0,0.406,0.094,0.573,0.28
			c0.167,0.188,0.251,0.436,0.251,0.744c0,0.335-0.116,0.646-0.349,0.935C76.685,52.991,76.316,53.219,75.812,53.385z"/>
	</g>
	<g>
		<path fill="#010101" d="M72.832,51.799c-0.703,0-1.226-0.276-1.569-0.829c-0.343-0.554-0.515-1.393-0.515-2.518
			c0-0.598,0.053-1.115,0.159-1.551c0.106-0.436,0.254-0.796,0.444-1.081c0.19-0.285,0.419-0.496,0.686-0.632
			c0.267-0.137,0.558-0.205,0.874-0.205c0.713,0,1.243,0.275,1.591,0.825c0.348,0.549,0.522,1.38,0.522,2.493
			c0,1.151-0.186,2.022-0.559,2.612C74.092,51.504,73.548,51.799,72.832,51.799z M71.7,48.306c0,1.06,0.099,1.838,0.295,2.334
			c0.197,0.496,0.502,0.744,0.915,0.744c0.394,0,0.686-0.233,0.876-0.7c0.19-0.467,0.286-1.189,0.286-2.168
			c0-0.748-0.049-1.354-0.146-1.817s-0.233-0.796-0.407-0.998c-0.174-0.202-0.385-0.303-0.632-0.303c-0.225,0-0.412,0.067-0.563,0.2
			s-0.273,0.325-0.366,0.576s-0.159,0.555-0.198,0.915C71.719,47.448,71.7,47.854,71.7,48.306z"/>
		<path fill="#010101" d="M81.265,51.799c-0.703,0-1.227-0.276-1.569-0.829c-0.344-0.554-0.515-1.393-0.515-2.518
			c0-0.598,0.053-1.115,0.158-1.551s0.254-0.796,0.444-1.081c0.19-0.285,0.419-0.496,0.686-0.632
			c0.267-0.137,0.558-0.205,0.874-0.205c0.712,0,1.242,0.275,1.591,0.825c0.348,0.549,0.522,1.38,0.522,2.493
			c0,1.151-0.187,2.022-0.56,2.612C82.525,51.504,81.981,51.799,81.265,51.799z M80.132,48.306c0,1.06,0.099,1.838,0.296,2.334
			c0.196,0.496,0.501,0.744,0.915,0.744c0.394,0,0.686-0.233,0.876-0.7s0.285-1.189,0.285-2.168c0-0.748-0.049-1.354-0.146-1.817
			s-0.233-0.796-0.407-0.998s-0.385-0.303-0.632-0.303c-0.225,0-0.413,0.067-0.564,0.2s-0.272,0.325-0.365,0.576
			s-0.159,0.555-0.198,0.915C80.152,47.448,80.132,47.854,80.132,48.306z"/>
	</g>
</g>
<g>
	<path d="M361.816,34.677v2.818h2.71v0.72h-2.71v2.842h-0.768v-2.842h-2.711v-0.72h2.711v-2.818H361.816z"/>
	<path d="M394.481,40.434c0-0.432,0.3-0.756,0.72-0.756s0.707,0.312,0.707,0.756c0,0.432-0.287,0.755-0.73,0.755
		C394.77,41.189,394.481,40.866,394.481,40.434z"/>
	<path d="M396.965,40.434c0-0.432,0.301-0.756,0.721-0.756s0.707,0.312,0.707,0.756c0,0.432-0.287,0.755-0.731,0.755
		C397.254,41.189,396.965,40.866,396.965,40.434z"/>
	<path d="M399.449,40.434c0-0.432,0.3-0.756,0.72-0.756s0.708,0.312,0.708,0.756c0,0.432-0.288,0.755-0.732,0.755
		C399.737,41.189,399.449,40.866,399.449,40.434z"/>
</g>
</svg>
