<?xml version="1.0" encoding="utf-8"?>
<!-- Generator: Adobe Illustrator 15.1.0, SVG Export Plug-In . SVG Version: 6.00 Build 0)  -->
<!DOCTYPE svg PUBLIC "-//W3C//DTD SVG 1.1//EN" "http://www.w3.org/Graphics/SVG/1.1/DTD/svg11.dtd">
<svg version="1.1" id="Layer_1" xmlns="http://www.w3.org/2000/svg" xmlns:xlink="http://www.w3.org/1999/xlink" x="0px" y="0px"
	 width="403.346px" height="42.064px" viewBox="0 0 403.346 42.064" enable-background="new 0 0 403.346 42.064"
	 xml:space="preserve">
<g>
	<g>
		<g>
			
				<line fill="none" stroke="#000000" stroke-width="0.5" stroke-miterlimit="10" x1="259.436" y1="3.087" x2="238.295" y2="3.087"/>
			<g>
				<path d="M239.193,3.087l1.096,1.801l-0.062,0.041l-2.938-1.167c-1.023-0.225-2.047-0.45-3.07-0.675
					c1.023-0.225,2.047-0.45,3.07-0.675l2.938-1.167l0.062,0.031L239.193,3.087z"/>
			</g>
		</g>
	</g>
	<line fill="none" stroke="#000000" stroke-width="0.5" stroke-miterlimit="10" x1="238.295" y1="3.087" x2="217.155" y2="3.087"/>
</g>
<g>
	<g>
		
			<line fill="none" stroke="#000000" stroke-width="0.5" stroke-miterlimit="10" x1="370.586" y1="21.303" x2="349.446" y2="21.303"/>
		<g>
			<path d="M350.343,21.303l1.096,1.802l-0.062,0.04l-2.938-1.166c-1.023-0.226-2.047-0.45-3.07-0.676
				c1.023-0.225,2.047-0.45,3.07-0.676l2.938-1.167l0.062,0.031L350.343,21.303z"/>
		</g>
	</g>
</g>
<line fill="none" stroke="#000000" stroke-width="0.5" stroke-miterlimit="10" x1="349.446" y1="21.303" x2="328.305" y2="21.303"/>
<g>
	<g>
		<g>
			
				<line fill="none" stroke="#000000" stroke-width="0.5" stroke-miterlimit="10" x1="403.346" y1="21.303" x2="382.206" y2="21.303"/>
			<g>
				<path d="M383.103,21.303l1.096,1.802l-0.062,0.04l-2.938-1.166c-1.023-0.226-2.047-0.45-3.07-0.676
					c1.023-0.225,2.047-0.45,3.07-0.676l2.938-1.167l0.062,0.031L383.103,21.303z"/>
			</g>
		</g>
	</g>
	
		<line fill="none" stroke="#000000" stroke-width="0.5" stroke-miterlimit="10" x1="382.206" y1="21.303" x2="361.065" y2="21.303"/>
</g>
<polygon fill="#FFFFFF" stroke="#000000" stroke-width="0.5" stroke-miterlimit="10" points="363.222,24.139 365.419,17.927 
	367.617,24.139 "/>
<rect x="31.039" y="8.721" fill="none" stroke="#000000" stroke-width="0.5" stroke-miterlimit="10" width="24.623" height="24.625"/>
<g>
	<g>
		<g>
			<line fill="none" stroke="#000000" stroke-width="0.5" stroke-miterlimit="10" x1="31.039" y1="21.033" x2="15.52" y2="21.033"/>
			<g>
				<path d="M16.417,21.033l1.096,1.803l-0.062,0.039l-2.938-1.166c-1.023-0.225-2.047-0.449-3.07-0.676
					c1.023-0.225,2.047-0.449,3.07-0.676l2.938-1.166l0.062,0.031L16.417,21.033z"/>
			</g>
		</g>
	</g>
	<line fill="none" stroke="#000000" stroke-width="0.5" stroke-miterlimit="10" x1="15.52" y1="21.033" x2="0" y2="21.033"/>
</g>
<g>
	<g>
		<g>
			
				<line fill="none" stroke="#000000" stroke-width="0.5" stroke-miterlimit="10" x1="86.701" y1="21.033" x2="71.182" y2="21.033"/>
			<g>
				<path d="M72.078,21.033l1.096,1.803l-0.061,0.039l-2.938-1.166c-1.023-0.225-2.047-0.449-3.07-0.676
					c1.023-0.225,2.047-0.449,3.07-0.676l2.938-1.166l0.061,0.031L72.078,21.033z"/>
			</g>
		</g>
	</g>
	<line fill="none" stroke="#000000" stroke-width="0.5" stroke-miterlimit="10" x1="71.182" y1="21.033" x2="55.662" y2="21.033"/>
</g>
<g>
	<path d="M92.608,20.621v-0.719h6.189v0.719H92.608z M92.608,22.971v-0.719h6.189v0.719H92.608z"/>
	<path d="M204.086,18.282v2.818h2.711v0.72h-2.711v2.842h-0.768V21.82h-2.711v-0.72h2.711v-2.818H204.086z"/>
	<path d="M312.086,18.282v2.818h2.711v0.72h-2.711v2.842h-0.768V21.82h-2.711v-0.72h2.711v-2.818H312.086z"/>
</g>
<g>
	<g>
		<g>
			
				<line fill="none" stroke="#000000" stroke-width="0.5" stroke-miterlimit="10" x1="301.717" y1="38.976" x2="280.577" y2="38.976"/>
			<g>
				<path d="M281.474,38.976l1.096,1.802l-0.062,0.041l-2.938-1.167c-1.023-0.226-2.047-0.45-3.07-0.676
					c1.023-0.226,2.047-0.45,3.07-0.676l2.938-1.167l0.062,0.031L281.474,38.976z"/>
			</g>
		</g>
	</g>
	
		<line fill="none" stroke="#000000" stroke-width="0.5" stroke-miterlimit="10" x1="280.577" y1="38.976" x2="259.436" y2="38.976"/>
</g>
<line fill="none" stroke="#000000" stroke-width="0.5" stroke-miterlimit="10" stroke-dasharray="2,1" x1="259.436" y1="38.976" x2="259.436" y2="3.087"/>
<circle fill="#FFFFFF" stroke="#000000" stroke-width="0.5" stroke-miterlimit="10" cx="262.272" cy="3.087" r="2.836"/>
<circle fill="#FFFFFF" stroke="#000000" stroke-width="0.5" stroke-miterlimit="10" cx="256.6" cy="38.976" r="2.836"/>
<g>
	<g>
		<g>
			
				<line fill="none" stroke="#000000" stroke-width="0.5" stroke-miterlimit="10" x1="147.209" y1="38.977" x2="126.069" y2="38.977"/>
			<g>
				<path d="M126.966,38.977l1.096,1.802L128,40.82l-2.938-1.168c-1.023-0.225-2.047-0.449-3.07-0.675
					c1.023-0.226,2.047-0.45,3.07-0.675L128,37.134l0.062,0.031L126.966,38.977z"/>
			</g>
		</g>
	</g>
	
		<line fill="none" stroke="#000000" stroke-width="0.5" stroke-miterlimit="10" x1="126.069" y1="38.977" x2="104.928" y2="38.977"/>
</g>
<g>
	<g>
		<g>
			
				<line fill="none" stroke="#000000" stroke-width="0.5" stroke-miterlimit="10" x1="189.491" y1="38.976" x2="168.35" y2="38.976"/>
			<g>
				<path d="M169.248,38.976l1.096,1.802l-0.062,0.041l-2.938-1.167c-1.023-0.226-2.047-0.45-3.07-0.676
					c1.023-0.226,2.047-0.45,3.07-0.676l2.938-1.167l0.062,0.031L169.248,38.976z"/>
			</g>
		</g>
	</g>
	<line fill="none" stroke="#000000" stroke-width="0.5" stroke-miterlimit="10" x1="168.35" y1="38.976" x2="147.209" y2="38.976"/>
</g>
<line fill="none" stroke="#000000" stroke-width="0.5" stroke-miterlimit="10" stroke-dasharray="2,1" x1="147.209" y1="38.976" x2="147.209" y2="3.087"/>
<circle fill="#FFFFFF" stroke="#000000" stroke-width="0.5" stroke-miterlimit="10" cx="150.045" cy="3.087" r="2.836"/>
<circle fill="#FFFFFF" stroke="#000000" stroke-width="0.5" stroke-miterlimit="10" cx="144.373" cy="3.087" r="2.836"/>
<g>
	<g>
		<path fill="#010101" d="M49.967,27.079v-0.125c0.193-0.063,0.344-0.162,0.449-0.297c0.106-0.135,0.16-0.277,0.16-0.428
			c0-0.035-0.009-0.066-0.025-0.09c-0.014-0.018-0.026-0.025-0.04-0.025c-0.021,0-0.065,0.018-0.135,0.057
			c-0.034,0.016-0.07,0.025-0.107,0.025c-0.093,0-0.166-0.027-0.221-0.082c-0.054-0.055-0.081-0.131-0.081-0.227
			c0-0.092,0.035-0.17,0.105-0.236s0.156-0.1,0.258-0.1c0.124,0,0.234,0.055,0.332,0.162c0.097,0.109,0.145,0.252,0.145,0.432
			c0,0.193-0.066,0.373-0.201,0.539C50.471,26.852,50.258,26.983,49.967,27.079z"/>
	</g>
	<g>
		<path fill="#010101" d="M48.304,25.379c0,0.109,0.007,0.191,0.019,0.248c0.013,0.055,0.034,0.1,0.065,0.135
			c0.03,0.035,0.075,0.063,0.134,0.082c0.058,0.02,0.132,0.035,0.22,0.045c0.089,0.01,0.205,0.018,0.35,0.021v0.205h-2.084v-0.205
			c0.208-0.01,0.357-0.023,0.447-0.039c0.089-0.016,0.157-0.039,0.204-0.072c0.047-0.031,0.081-0.076,0.103-0.135
			c0.022-0.059,0.033-0.152,0.033-0.285v-2.287c0-0.076-0.014-0.131-0.04-0.166s-0.064-0.053-0.115-0.053
			c-0.061,0-0.146,0.031-0.257,0.094s-0.248,0.148-0.412,0.258l-0.124-0.219l1.32-0.787h0.155c-0.012,0.181-0.018,0.431-0.018,0.751
			V25.379z"/>
		<path fill="#010101" d="M52.889,25.379c0,0.109,0.007,0.191,0.019,0.248c0.013,0.055,0.034,0.1,0.065,0.135
			c0.03,0.035,0.075,0.063,0.134,0.082c0.058,0.02,0.132,0.035,0.22,0.045c0.089,0.01,0.205,0.018,0.35,0.021v0.205h-2.084v-0.205
			c0.208-0.01,0.357-0.023,0.447-0.039c0.089-0.016,0.157-0.039,0.204-0.072c0.047-0.031,0.081-0.076,0.103-0.135
			c0.022-0.059,0.033-0.152,0.033-0.285v-2.287c0-0.076-0.014-0.131-0.04-0.166s-0.064-0.053-0.115-0.053
			c-0.061,0-0.146,0.031-0.257,0.094s-0.248,0.148-0.412,0.258l-0.124-0.219l1.32-0.787h0.155c-0.012,0.181-0.018,0.431-0.018,0.751
			V25.379z"/>
	</g>
	<g>
		<path fill="#010101" d="M46.787,19.034l0.046-0.138c0.128-0.031,0.217-0.064,0.268-0.1c0.053-0.037,0.096-0.089,0.131-0.157
			c0.034-0.067,0.074-0.171,0.121-0.31l0.813-2.441c0.043-0.13,0.071-0.224,0.081-0.284c0.01-0.059,0.01-0.104-0.001-0.138
			c-0.011-0.033-0.03-0.06-0.06-0.079c-0.029-0.019-0.083-0.042-0.162-0.066l0.047-0.138h1.543c0.299,0,0.529,0.033,0.688,0.096
			c0.16,0.064,0.263,0.159,0.311,0.284c0.046,0.125,0.037,0.286-0.028,0.483c-0.055,0.164-0.135,0.306-0.236,0.426
			c-0.104,0.121-0.219,0.22-0.348,0.299c-0.127,0.079-0.283,0.152-0.465,0.22l-0.008,0.026c0.229,0.077,0.384,0.195,0.462,0.357
			c0.077,0.16,0.08,0.352,0.006,0.574c-0.085,0.256-0.212,0.464-0.38,0.626c-0.167,0.161-0.366,0.279-0.595,0.351
			s-0.49,0.108-0.781,0.108H46.787z M47.735,18.766c0.132,0.013,0.283,0.02,0.452,0.02c0.247,0,0.448-0.03,0.605-0.093
			c0.157-0.062,0.286-0.154,0.388-0.275c0.102-0.122,0.183-0.273,0.243-0.456c0.061-0.182,0.078-0.333,0.051-0.452
			c-0.028-0.118-0.101-0.207-0.221-0.265c-0.119-0.059-0.302-0.087-0.546-0.087h-0.438L47.735,18.766z M48.847,16.91
			c0.286,0,0.528-0.069,0.726-0.208s0.34-0.339,0.427-0.602c0.044-0.13,0.059-0.238,0.045-0.324
			c-0.014-0.085-0.05-0.154-0.106-0.205c-0.058-0.051-0.134-0.087-0.228-0.108c-0.095-0.021-0.201-0.032-0.319-0.032
			c-0.071,0-0.166,0.001-0.284,0.005c-0.117,0.004-0.207,0.007-0.266,0.011l-0.487,1.462H48.847z"/>
	</g>
	<g>
		<path fill="#010101" d="M45.633,23.53h-4.977v-0.18l2.551-3.061l-2.551-3.202v-0.175h4.825l0.151,1.649h-0.2
			c-0.049-0.449-0.173-0.77-0.373-0.961s-0.489-0.288-0.866-0.288H41.92l2.083,2.621l-2.347,2.825h2.586
			c0.433,0,0.757-0.08,0.974-0.242c0.216-0.164,0.396-0.469,0.539-0.918l0.181,0.039L45.633,23.53z"/>
	</g>
	<g>
		<path fill="#010101" d="M39.894,21.171c-0.04,0.04-0.086,0.06-0.14,0.06h-5.686c-0.054,0-0.1-0.02-0.14-0.06
			s-0.06-0.086-0.06-0.14c0-0.054,0.02-0.1,0.06-0.14s0.086-0.06,0.14-0.06h5.686c0.053,0,0.1,0.02,0.14,0.06s0.06,0.086,0.06,0.14
			C39.954,21.085,39.934,21.131,39.894,21.171z"/>
	</g>
</g>
</svg>
