<?xml version="1.0" encoding="utf-8"?>
<!-- Generator: Adobe Illustrator 15.1.0, SVG Export Plug-In . SVG Version: 6.00 Build 0)  -->
<!DOCTYPE svg PUBLIC "-//W3C//DTD SVG 1.1//EN" "http://www.w3.org/Graphics/SVG/1.1/DTD/svg11.dtd">
<svg version="1.1" id="Layer_1" xmlns="http://www.w3.org/2000/svg" xmlns:xlink="http://www.w3.org/1999/xlink" x="0px" y="0px"
	 width="210.174px" height="41.813px" viewBox="0 0 210.174 41.813" enable-background="new 0 0 210.174 41.813"
	 xml:space="preserve">
<g>
	<g>
		<g>
			
				<line fill="none" stroke="#000000" stroke-width="0.5" stroke-miterlimit="10" x1="141.172" y1="21.032" x2="120.031" y2="21.032"/>
			<g>
				<path d="M120.929,21.032l1.096,1.802l-0.062,0.04l-2.938-1.166c-1.023-0.226-2.047-0.45-3.07-0.676
					c1.023-0.225,2.047-0.45,3.07-0.676l2.938-1.167l0.062,0.031L120.929,21.032z"/>
			</g>
		</g>
	</g>
	<line fill="none" stroke="#000000" stroke-width="0.5" stroke-miterlimit="10" x1="120.031" y1="21.032" x2="98.891" y2="21.032"/>
</g>
<circle fill="#FFFFFF" stroke="#000000" stroke-width="0.5" stroke-miterlimit="10" cx="98.89" cy="21.032" r="2.836"/>
<polygon fill="#FFFFFF" stroke="#000000" stroke-width="0.5" stroke-miterlimit="10" points="101.048,23.868 103.245,17.655 
	105.442,23.868 "/>
<g>
	<path fill="#010101" d="M10.164,17.762h-0.107l-0.248-2.285c-0.011-0.1-0.017-0.174-0.017-0.223c0-0.119,0.031-0.213,0.095-0.285
		c0.063-0.071,0.139-0.107,0.227-0.107c0.089,0,0.163,0.036,0.225,0.107c0.061,0.072,0.092,0.178,0.092,0.319
		c0,0.045-0.004,0.108-0.012,0.189L10.164,17.762z M10.107,18.23c0.087,0,0.161,0.031,0.222,0.092
		c0.062,0.061,0.092,0.134,0.092,0.219c0,0.086-0.03,0.16-0.092,0.221c-0.061,0.061-0.135,0.092-0.222,0.092
		c-0.086,0-0.16-0.031-0.221-0.092c-0.062-0.061-0.092-0.135-0.092-0.221c0-0.085,0.03-0.158,0.092-0.219
		C9.947,18.261,10.021,18.23,10.107,18.23z"/>
</g>
<g>
	<path fill="#010101" d="M2.713,23.947c-0.703,0-1.226-0.276-1.569-0.829c-0.343-0.554-0.515-1.393-0.515-2.518
		c0-0.599,0.053-1.116,0.159-1.552c0.106-0.436,0.254-0.796,0.444-1.081c0.19-0.285,0.419-0.496,0.686-0.632
		c0.267-0.137,0.558-0.205,0.874-0.205c0.713,0,1.243,0.275,1.591,0.825s0.522,1.381,0.522,2.493c0,1.151-0.186,2.022-0.559,2.612
		C3.974,23.652,3.429,23.947,2.713,23.947z M1.581,20.454c0,1.061,0.099,1.838,0.295,2.334s0.502,0.744,0.915,0.744
		c0.394,0,0.686-0.233,0.876-0.7c0.19-0.467,0.286-1.189,0.286-2.168c0-0.748-0.049-1.354-0.146-1.817
		c-0.098-0.464-0.233-0.796-0.407-0.998c-0.174-0.202-0.385-0.303-0.632-0.303c-0.225,0-0.412,0.067-0.563,0.2
		s-0.273,0.325-0.366,0.576s-0.159,0.555-0.198,0.915S1.581,20.001,1.581,20.454z"/>
</g>
<g>
	<path fill="#010101" d="M13.23,20.542c-0.04,0.04-0.087,0.06-0.14,0.06H6.854c-0.054,0-0.1-0.02-0.14-0.06s-0.06-0.087-0.06-0.14
		c0-0.054,0.02-0.101,0.06-0.141s0.086-0.06,0.14-0.06h6.237c0.053,0,0.1,0.02,0.14,0.06s0.06,0.087,0.06,0.141
		C13.29,20.455,13.271,20.501,13.23,20.542z M13.23,22.48c-0.04,0.04-0.087,0.06-0.14,0.06H6.854c-0.054,0-0.1-0.02-0.14-0.06
		s-0.06-0.087-0.06-0.14c0-0.054,0.02-0.101,0.06-0.141s0.086-0.06,0.14-0.06h6.237c0.053,0,0.1,0.02,0.14,0.06
		s0.06,0.087,0.06,0.141C13.29,22.393,13.271,22.44,13.23,22.48z"/>
	<path fill="#010101" d="M88.48,20.542c-0.04,0.04-0.087,0.06-0.14,0.06h-6.237c-0.054,0-0.1-0.02-0.14-0.06
		s-0.061-0.087-0.061-0.14c0-0.054,0.021-0.101,0.061-0.141s0.086-0.06,0.14-0.06h6.237c0.053,0,0.1,0.02,0.14,0.06
		s0.06,0.087,0.06,0.141C88.54,20.455,88.521,20.501,88.48,20.542z M88.48,22.48c-0.04,0.04-0.087,0.06-0.14,0.06h-6.237
		c-0.054,0-0.1-0.02-0.14-0.06s-0.061-0.087-0.061-0.14c0-0.054,0.021-0.101,0.061-0.141s0.086-0.06,0.14-0.06h6.237
		c0.053,0,0.1,0.02,0.14,0.06s0.06,0.087,0.06,0.141C88.54,22.393,88.521,22.44,88.48,22.48z"/>
	<path fill="#010101" d="M151.235,21.51c-0.04,0.04-0.087,0.061-0.14,0.061h-2.919v2.928c0,0.053-0.021,0.1-0.061,0.14
		c-0.039,0.04-0.086,0.06-0.14,0.06s-0.1-0.02-0.14-0.06s-0.061-0.087-0.061-0.14v-2.928h-2.918c-0.054,0-0.1-0.021-0.14-0.061
		s-0.061-0.086-0.061-0.14s0.021-0.1,0.061-0.14s0.086-0.061,0.14-0.061h2.918v-2.927c0-0.053,0.021-0.1,0.061-0.14
		s0.086-0.06,0.14-0.06s0.101,0.02,0.14,0.06c0.04,0.04,0.061,0.087,0.061,0.14v2.927h2.919c0.053,0,0.1,0.021,0.14,0.061
		s0.06,0.086,0.06,0.14S151.275,21.47,151.235,21.51z"/>
</g>
<rect x="19.904" y="8.72" fill="none" stroke="#000000" stroke-width="0.5" stroke-miterlimit="10" width="24.623" height="24.625"/>
<g>
	<g>
		<path fill="#010101" d="M38.162,27.118v-0.125c0.193-0.064,0.344-0.162,0.45-0.297c0.105-0.135,0.159-0.277,0.159-0.428
			c0-0.035-0.009-0.066-0.025-0.09c-0.014-0.018-0.026-0.025-0.04-0.025c-0.021,0-0.065,0.018-0.135,0.057
			c-0.034,0.016-0.07,0.025-0.107,0.025c-0.092,0-0.166-0.027-0.22-0.082c-0.055-0.055-0.082-0.131-0.082-0.227
			c0-0.092,0.035-0.17,0.105-0.236c0.07-0.066,0.157-0.099,0.259-0.099c0.124,0,0.234,0.055,0.331,0.162
			c0.097,0.109,0.146,0.252,0.146,0.432c0,0.193-0.067,0.373-0.202,0.539S38.453,27.022,38.162,27.118z"/>
	</g>
	<g>
		<path fill="#010101" d="M36.201,26.2c-0.406,0-0.708-0.158-0.906-0.479c-0.199-0.32-0.298-0.805-0.298-1.456
			c0-0.346,0.03-0.646,0.092-0.897c0.061-0.252,0.146-0.46,0.257-0.624c0.109-0.165,0.242-0.287,0.396-0.366
			c0.154-0.079,0.323-0.119,0.506-0.119c0.411,0,0.718,0.159,0.92,0.477c0.201,0.318,0.302,0.799,0.302,1.441
			c0,0.666-0.108,1.169-0.323,1.51C36.93,26.03,36.615,26.2,36.201,26.2z M35.547,24.181c0,0.613,0.057,1.063,0.171,1.35
			c0.113,0.287,0.29,0.431,0.529,0.431c0.228,0,0.396-0.135,0.506-0.406c0.11-0.27,0.165-0.688,0.165-1.254
			c0-0.433-0.028-0.782-0.084-1.051c-0.057-0.268-0.136-0.46-0.236-0.576c-0.101-0.117-0.222-0.175-0.365-0.175
			c-0.13,0-0.238,0.039-0.326,0.116c-0.087,0.077-0.157,0.188-0.211,0.333s-0.092,0.321-0.114,0.529
			C35.559,23.685,35.547,23.92,35.547,24.181z"/>
		<path fill="#010101" d="M41.065,25.419c0,0.109,0.006,0.191,0.019,0.247c0.012,0.055,0.033,0.1,0.064,0.135
			s0.076,0.063,0.134,0.082c0.059,0.02,0.132,0.035,0.221,0.045c0.088,0.01,0.205,0.018,0.35,0.021v0.205h-2.085V25.95
			c0.209-0.01,0.357-0.021,0.447-0.039c0.089-0.016,0.157-0.039,0.204-0.07c0.047-0.033,0.082-0.078,0.104-0.137
			c0.021-0.058,0.032-0.153,0.032-0.285v-2.287c0-0.075-0.013-0.131-0.039-0.165c-0.026-0.035-0.065-0.053-0.116-0.053
			c-0.061,0-0.146,0.031-0.257,0.094c-0.11,0.062-0.248,0.147-0.412,0.256l-0.124-0.217l1.32-0.787h0.155
			c-0.011,0.181-0.017,0.431-0.017,0.75V25.419z"/>
	</g>
	<g>
		<path fill="#010101" d="M33.829,23.57h-4.978v-0.181l2.552-3.059l-2.552-3.201v-0.175h4.826l0.151,1.649h-0.2
			c-0.048-0.449-0.173-0.769-0.373-0.961s-0.489-0.288-0.866-0.288h-2.274l2.084,2.62l-2.347,2.825h2.586
			c0.433,0,0.757-0.082,0.974-0.244c0.217-0.163,0.396-0.469,0.539-0.917l0.181,0.039L33.829,23.57z"/>
	</g>
	<g>
		<path fill="#010101" d="M28.091,21.212c-0.04,0.04-0.086,0.06-0.14,0.06h-5.688c-0.053,0-0.1-0.02-0.14-0.06
			c-0.04-0.04-0.06-0.087-0.06-0.14s0.02-0.1,0.06-0.14c0.04-0.04,0.086-0.06,0.14-0.06h5.688c0.053,0,0.1,0.02,0.14,0.06
			c0.04,0.04,0.06,0.086,0.06,0.14S28.131,21.172,28.091,21.212z"/>
	</g>
</g>
<g>
	<g>
		<g>
			
				<line fill="none" stroke="#000000" stroke-width="0.5" stroke-miterlimit="10" x1="75.565" y1="21.032" x2="60.047" y2="21.032"/>
			<g>
				<path d="M60.944,21.032l1.096,1.802l-0.062,0.04l-2.938-1.166c-1.023-0.226-2.047-0.45-3.07-0.676
					c1.023-0.225,2.047-0.45,3.07-0.676l2.938-1.166l0.062,0.03L60.944,21.032z"/>
			</g>
		</g>
	</g>
	<line fill="none" stroke="#000000" stroke-width="0.5" stroke-miterlimit="10" x1="60.047" y1="21.032" x2="44.527" y2="21.032"/>
</g>
<g>
	<g>
		<g>
			
				<line fill="none" stroke="#000000" stroke-width="0.5" stroke-miterlimit="10" x1="210.174" y1="38.977" x2="189.033" y2="38.977"/>
			<g>
				<path d="M189.932,38.977l1.096,1.802l-0.063,0.041l-2.938-1.168c-1.023-0.225-2.047-0.449-3.07-0.675
					c1.023-0.226,2.047-0.45,3.07-0.675l2.938-1.168l0.063,0.031L189.932,38.977z"/>
			</g>
		</g>
	</g>
	
		<line fill="none" stroke="#000000" stroke-width="0.5" stroke-miterlimit="10" x1="189.033" y1="38.977" x2="167.893" y2="38.977"/>
</g>
<line fill="none" stroke="#000000" stroke-width="0.5" stroke-miterlimit="10" stroke-dasharray="2,1" x1="167.893" y1="38.977" x2="167.893" y2="3.087"/>
<circle fill="#FFFFFF" stroke="#000000" stroke-width="0.5" stroke-miterlimit="10" cx="165.057" cy="3.087" r="2.836"/>
<circle fill="#FFFFFF" stroke="#000000" stroke-width="0.5" stroke-miterlimit="10" cx="170.729" cy="3.087" r="2.837"/>
<circle fill="#FFFFFF" stroke="#000000" stroke-width="0.5" stroke-miterlimit="10" cx="165.057" cy="38.977" r="2.836"/>
</svg>
