<?xml version="1.0" encoding="utf-8"?>
<!-- Generator: Adobe Illustrator 15.1.0, SVG Export Plug-In . SVG Version: 6.00 Build 0)  -->
<!DOCTYPE svg PUBLIC "-//W3C//DTD SVG 1.1//EN" "http://www.w3.org/Graphics/SVG/1.1/DTD/svg11.dtd">
<svg version="1.1" id="Layer_1" xmlns="http://www.w3.org/2000/svg" xmlns:xlink="http://www.w3.org/1999/xlink" x="0px" y="0px"
	 width="166.217px" height="42.063px" viewBox="0 0 166.217 42.063" enable-background="new 0 0 166.217 42.063"
	 xml:space="preserve">
<g>
	<g>
		<g>
			
				<line fill="none" stroke="#000000" stroke-width="0.5" stroke-miterlimit="10" x1="160.295" y1="3.087" x2="139.155" y2="3.087"/>
			<g>
				<path d="M140.052,3.087l1.096,1.801l-0.062,0.041l-2.938-1.167c-1.023-0.225-2.047-0.45-3.07-0.675
					c1.023-0.225,2.047-0.45,3.07-0.675l2.938-1.167l0.062,0.031L140.052,3.087z"/>
			</g>
		</g>
	</g>
	<line fill="none" stroke="#000000" stroke-width="0.5" stroke-miterlimit="10" x1="139.155" y1="3.087" x2="118.014" y2="3.087"/>
</g>
<rect x="31.039" y="8.721" fill="none" stroke="#000000" stroke-width="0.5" stroke-miterlimit="10" width="24.623" height="24.625"/>
<g>
	<g>
		<g>
			<line fill="none" stroke="#000000" stroke-width="0.5" stroke-miterlimit="10" x1="31.039" y1="21.033" x2="15.52" y2="21.033"/>
			<g>
				<path d="M16.417,21.033l1.096,1.803l-0.062,0.039l-2.938-1.166c-1.023-0.225-2.047-0.449-3.07-0.676
					c1.023-0.225,2.047-0.449,3.07-0.676l2.938-1.166l0.062,0.031L16.417,21.033z"/>
			</g>
		</g>
	</g>
	<line fill="none" stroke="#000000" stroke-width="0.5" stroke-miterlimit="10" x1="15.52" y1="21.033" x2="0" y2="21.033"/>
</g>
<g>
	<g>
		<g>
			
				<line fill="none" stroke="#000000" stroke-width="0.5" stroke-miterlimit="10" x1="55.662" y1="21.033" x2="71.182" y2="21.033"/>
			<g>
				<path d="M70.284,21.033l-1.096-1.802l0.062-0.041l2.938,1.167c1.023,0.226,2.047,0.45,3.07,0.676
					c-1.023,0.225-2.047,0.45-3.07,0.676l-2.938,1.167l-0.062-0.031L70.284,21.033z"/>
			</g>
		</g>
	</g>
	<line fill="none" stroke="#000000" stroke-width="0.5" stroke-miterlimit="10" x1="71.182" y1="21.033" x2="86.701" y2="21.033"/>
</g>
<g>
	<path d="M92.608,20.621v-0.719h6.189v0.719H92.608z M92.608,22.971v-0.719h6.189v0.719H92.608z"/>
</g>
<g>
	<g>
		<g>
			
				<line fill="none" stroke="#000000" stroke-width="0.5" stroke-miterlimit="10" x1="160.295" y1="38.976" x2="139.155" y2="38.976"/>
			<g>
				<path d="M140.052,38.976l1.096,1.802l-0.062,0.041l-2.938-1.167c-1.023-0.226-2.047-0.45-3.07-0.676
					c1.023-0.226,2.047-0.45,3.07-0.676l2.938-1.167l0.062,0.031L140.052,38.976z"/>
			</g>
		</g>
	</g>
	
		<line fill="none" stroke="#000000" stroke-width="0.5" stroke-miterlimit="10" x1="139.155" y1="38.976" x2="118.014" y2="38.976"/>
</g>
<line fill="none" stroke="#000000" stroke-width="0.5" stroke-miterlimit="10" stroke-dasharray="2,1" x1="160.295" y1="38.976" x2="160.295" y2="3.087"/>
<circle fill="#FFFFFF" stroke="#000000" stroke-width="0.5" stroke-miterlimit="10" cx="163.131" cy="3.087" r="2.836"/>
<circle fill="#FFFFFF" stroke="#000000" stroke-width="0.5" stroke-miterlimit="10" cx="163.131" cy="38.975" r="2.836"/>
<g>
	<g>
		<path fill="#010101" d="M49.967,27.412v-0.124c0.193-0.063,0.344-0.163,0.449-0.298c0.106-0.134,0.16-0.276,0.16-0.427
			c0-0.036-0.009-0.066-0.025-0.091c-0.014-0.017-0.026-0.025-0.04-0.025c-0.021,0-0.065,0.019-0.135,0.057
			c-0.034,0.017-0.07,0.025-0.107,0.025c-0.093,0-0.166-0.027-0.221-0.082c-0.054-0.055-0.081-0.13-0.081-0.226
			c0-0.092,0.035-0.171,0.105-0.237c0.07-0.065,0.156-0.099,0.258-0.099c0.124,0,0.234,0.055,0.332,0.162
			c0.097,0.108,0.145,0.252,0.145,0.431c0,0.193-0.066,0.374-0.201,0.54C50.471,27.185,50.258,27.316,49.967,27.412z"/>
	</g>
	<g>
		<path fill="#010101" d="M48.304,25.713c0,0.109,0.007,0.191,0.019,0.247c0.013,0.056,0.034,0.101,0.065,0.135
			c0.03,0.035,0.075,0.063,0.134,0.082c0.058,0.02,0.132,0.035,0.22,0.045c0.089,0.011,0.205,0.018,0.35,0.021v0.206h-2.084v-0.206
			c0.208-0.01,0.357-0.022,0.447-0.038c0.089-0.016,0.157-0.04,0.204-0.072c0.047-0.031,0.081-0.077,0.103-0.135
			c0.022-0.059,0.033-0.153,0.033-0.285v-2.288c0-0.075-0.014-0.131-0.04-0.165c-0.026-0.035-0.064-0.053-0.115-0.053
			c-0.061,0-0.146,0.031-0.257,0.094c-0.111,0.062-0.248,0.147-0.412,0.257l-0.124-0.218l1.32-0.787h0.155
			c-0.012,0.181-0.018,0.431-0.018,0.751V25.713z"/>
		<path fill="#010101" d="M53.008,25.999c0.092,0,0.166-0.006,0.223-0.018c0.057-0.011,0.102-0.029,0.135-0.056
			c0.034-0.026,0.062-0.062,0.081-0.104s0.044-0.107,0.074-0.196h0.24l-0.048,0.824h-2.321v-0.136
			c0.08-0.197,0.189-0.399,0.327-0.606c0.137-0.207,0.331-0.45,0.584-0.73c0.218-0.241,0.375-0.424,0.471-0.548
			c0.105-0.135,0.184-0.252,0.235-0.351s0.089-0.192,0.111-0.279c0.022-0.088,0.034-0.176,0.034-0.265
			c0-0.141-0.022-0.266-0.068-0.373c-0.045-0.108-0.113-0.193-0.207-0.256c-0.093-0.062-0.21-0.093-0.351-0.093
			c-0.352,0-0.589,0.195-0.711,0.587h-0.342v-0.542c0.228-0.107,0.44-0.185,0.639-0.232c0.199-0.048,0.377-0.072,0.535-0.072
			c0.35,0,0.613,0.077,0.792,0.229c0.179,0.153,0.269,0.376,0.269,0.668c0,0.1-0.01,0.191-0.03,0.274
			c-0.02,0.084-0.05,0.167-0.093,0.249c-0.042,0.082-0.099,0.17-0.171,0.264c-0.071,0.094-0.15,0.189-0.236,0.286
			c-0.087,0.097-0.236,0.258-0.448,0.484c-0.357,0.378-0.62,0.708-0.787,0.99H53.008z"/>
	</g>
	<g>
		<path fill="#010101" d="M46.787,19.368l0.046-0.138c0.128-0.031,0.217-0.064,0.268-0.1c0.053-0.037,0.096-0.089,0.131-0.157
			c0.034-0.067,0.074-0.171,0.121-0.31l0.813-2.441c0.043-0.13,0.071-0.224,0.081-0.284c0.01-0.059,0.01-0.104-0.001-0.138
			c-0.011-0.033-0.03-0.06-0.06-0.079c-0.029-0.019-0.083-0.042-0.162-0.066l0.047-0.138h1.543c0.299,0,0.529,0.033,0.688,0.096
			c0.16,0.064,0.263,0.159,0.311,0.284c0.046,0.125,0.037,0.286-0.028,0.483c-0.055,0.164-0.135,0.306-0.236,0.426
			c-0.104,0.121-0.219,0.22-0.348,0.299c-0.127,0.079-0.283,0.152-0.465,0.22l-0.008,0.026c0.229,0.077,0.384,0.195,0.462,0.357
			c0.077,0.16,0.08,0.352,0.006,0.574c-0.085,0.256-0.212,0.464-0.38,0.626c-0.167,0.161-0.366,0.279-0.595,0.351
			s-0.49,0.108-0.781,0.108H46.787z M47.735,19.1c0.132,0.013,0.283,0.02,0.452,0.02c0.247,0,0.448-0.03,0.605-0.093
			c0.157-0.062,0.286-0.154,0.388-0.275c0.102-0.122,0.183-0.273,0.243-0.456c0.061-0.182,0.078-0.333,0.051-0.452
			c-0.028-0.118-0.101-0.207-0.221-0.265c-0.119-0.059-0.302-0.087-0.546-0.087h-0.438L47.735,19.1z M48.847,17.243
			c0.286,0,0.528-0.069,0.726-0.208s0.34-0.339,0.427-0.602c0.044-0.13,0.059-0.238,0.045-0.324
			c-0.014-0.085-0.05-0.154-0.106-0.205c-0.058-0.051-0.134-0.087-0.228-0.108c-0.095-0.021-0.201-0.032-0.319-0.032
			c-0.071,0-0.166,0.001-0.284,0.005c-0.117,0.004-0.207,0.007-0.266,0.011l-0.487,1.462H48.847z"/>
	</g>
	<g>
		<path fill="#010101" d="M45.633,23.864h-4.977v-0.181l2.551-3.06l-2.551-3.202v-0.175h4.825l0.151,1.649h-0.2
			c-0.049-0.449-0.173-0.77-0.373-0.961s-0.489-0.288-0.866-0.288H41.92l2.083,2.621l-2.347,2.825h2.586
			c0.433,0,0.757-0.081,0.974-0.243c0.216-0.163,0.396-0.469,0.539-0.918l0.181,0.039L45.633,23.864z"/>
	</g>
	<g>
		<path fill="#010101" d="M39.894,21.505c-0.04,0.04-0.086,0.06-0.14,0.06h-5.686c-0.054,0-0.1-0.02-0.14-0.06
			s-0.06-0.086-0.06-0.14c0-0.054,0.02-0.1,0.06-0.14s0.086-0.06,0.14-0.06h5.686c0.053,0,0.1,0.02,0.14,0.06s0.06,0.086,0.06,0.14
			C39.954,21.418,39.934,21.465,39.894,21.505z"/>
	</g>
</g>
</svg>
