<?xml version="1.0" encoding="utf-8"?>
<!-- Generator: Adobe Illustrator 15.1.0, SVG Export Plug-In . SVG Version: 6.00 Build 0)  -->
<!DOCTYPE svg PUBLIC "-//W3C//DTD SVG 1.1//EN" "http://www.w3.org/Graphics/SVG/1.1/DTD/svg11.dtd">
<svg version="1.1" id="Layer_1" xmlns="http://www.w3.org/2000/svg" xmlns:xlink="http://www.w3.org/1999/xlink" x="0px" y="0px"
	 width="359.451px" height="71px" viewBox="0 0 359.451 71" enable-background="new 0 0 359.451 71" xml:space="preserve">
<line fill="none" stroke="#000000" stroke-width="0.5" stroke-miterlimit="10" x1="0" y1="14.902" x2="42.417" y2="14.902"/>
<g>
	
		<line fill="none" stroke="#000000" stroke-width="0.5" stroke-linecap="round" stroke-linejoin="round" stroke-miterlimit="10" x1="12.415" y1="9.277" x2="9.737" y2="13.495"/>
	
		<line fill="none" stroke="#000000" stroke-width="0.5" stroke-linecap="round" stroke-linejoin="round" stroke-miterlimit="10" x1="9.737" y1="13.495" x2="12.282" y2="17.5"/>
</g>
<line fill="none" stroke="#000000" stroke-width="0.5" stroke-miterlimit="10" x1="0" y1="11.623" x2="42.417" y2="11.623"/>
<g>
	
		<line fill="none" stroke="#000000" stroke-width="0.5" stroke-linecap="round" stroke-linejoin="round" stroke-miterlimit="10" x1="31.333" y1="9.276" x2="28.656" y2="13.494"/>
	
		<line fill="none" stroke="#000000" stroke-width="0.5" stroke-linecap="round" stroke-linejoin="round" stroke-miterlimit="10" x1="28.656" y1="13.494" x2="31.2" y2="17.499"/>
</g>
<g>
	
		<rect x="167.35" y="1.182" fill="none" stroke="#000000" stroke-width="0.5" stroke-miterlimit="10" width="24.623" height="24.625"/>
	<g>
		<g>
			<g>
				
					<line fill="none" stroke="#000000" stroke-width="0.5" stroke-miterlimit="10" x1="167.35" y1="13.495" x2="151.831" y2="13.495"/>
				<g>
					<path d="M152.728,13.495l1.096,1.802l-0.062,0.04l-2.938-1.166c-1.023-0.226-2.047-0.45-3.07-0.676
						c1.023-0.225,2.047-0.45,3.07-0.676l2.938-1.166l0.062,0.03L152.728,13.495z"/>
				</g>
			</g>
		</g>
		
			<line fill="none" stroke="#000000" stroke-width="0.5" stroke-miterlimit="10" x1="151.831" y1="13.495" x2="136.311" y2="13.495"/>
	</g>
	<g>
		<g>
			<path fill="#010101" d="M185.82,19.672v-0.124c0.193-0.064,0.344-0.163,0.45-0.298c0.105-0.135,0.159-0.276,0.159-0.427
				c0-0.036-0.009-0.066-0.025-0.091c-0.014-0.017-0.026-0.025-0.04-0.025c-0.021,0-0.065,0.019-0.135,0.057
				c-0.034,0.017-0.07,0.025-0.107,0.025c-0.092,0-0.166-0.027-0.22-0.082c-0.055-0.055-0.082-0.13-0.082-0.226
				c0-0.092,0.035-0.171,0.105-0.237c0.07-0.065,0.157-0.099,0.259-0.099c0.124,0,0.234,0.055,0.331,0.162
				c0.097,0.108,0.146,0.252,0.146,0.431c0,0.193-0.067,0.374-0.202,0.54S186.111,19.577,185.82,19.672z"/>
		</g>
		<g>
			<path fill="#010101" d="M184.158,17.974c0,0.109,0.006,0.191,0.019,0.247c0.012,0.056,0.033,0.101,0.064,0.136
				c0.031,0.034,0.076,0.062,0.134,0.081c0.059,0.02,0.132,0.035,0.221,0.045c0.088,0.011,0.205,0.018,0.35,0.021v0.206h-2.085
				v-0.206c0.209-0.009,0.357-0.021,0.447-0.038c0.089-0.016,0.157-0.04,0.204-0.071c0.047-0.032,0.082-0.077,0.104-0.136
				s0.032-0.153,0.032-0.285v-2.287c0-0.075-0.013-0.131-0.039-0.165c-0.026-0.035-0.065-0.053-0.116-0.053
				c-0.061,0-0.146,0.031-0.257,0.094c-0.11,0.062-0.248,0.147-0.412,0.256l-0.124-0.217l1.32-0.787h0.155
				c-0.011,0.181-0.017,0.431-0.017,0.75V17.974z"/>
			<path fill="#010101" d="M188.934,17.974c0,0.109,0.006,0.191,0.019,0.247c0.012,0.056,0.033,0.101,0.064,0.136
				c0.031,0.034,0.076,0.062,0.134,0.081c0.059,0.02,0.132,0.035,0.221,0.045c0.088,0.011,0.205,0.018,0.35,0.021v0.206h-2.085
				v-0.206c0.209-0.009,0.357-0.021,0.447-0.038c0.089-0.016,0.157-0.04,0.204-0.071c0.047-0.032,0.082-0.077,0.104-0.136
				s0.032-0.153,0.032-0.285v-2.287c0-0.075-0.013-0.131-0.039-0.165c-0.026-0.035-0.065-0.053-0.116-0.053
				c-0.061,0-0.146,0.031-0.257,0.094c-0.11,0.062-0.248,0.147-0.412,0.256l-0.124-0.217l1.32-0.787h0.155
				c-0.011,0.181-0.017,0.431-0.017,0.75V17.974z"/>
		</g>
		<g>
			<path fill="#010101" d="M181.487,16.125h-4.978v-0.181l2.552-3.059l-2.552-3.201V9.509h4.826l0.151,1.649h-0.2
				c-0.048-0.449-0.173-0.769-0.373-0.961s-0.489-0.288-0.866-0.288h-2.274l2.084,2.62l-2.347,2.825h2.586
				c0.433,0,0.757-0.082,0.974-0.244c0.217-0.163,0.396-0.469,0.539-0.917l0.181,0.039L181.487,16.125z"/>
		</g>
		<g>
			<path fill="#010101" d="M175.749,13.767c-0.04,0.04-0.086,0.06-0.14,0.06h-5.688c-0.053,0-0.1-0.02-0.14-0.06
				c-0.04-0.04-0.06-0.087-0.06-0.14s0.02-0.1,0.06-0.14c0.04-0.04,0.086-0.06,0.14-0.06h5.688c0.053,0,0.1,0.02,0.14,0.06
				c0.04,0.04,0.06,0.086,0.06,0.14S175.789,13.727,175.749,13.767z"/>
		</g>
	</g>
	<g>
		
			<line fill="none" stroke="#000000" stroke-width="0.5" stroke-miterlimit="10" x1="191.973" y1="15.009" x2="234.39" y2="15.009"/>
		<g>
			
				<line fill="none" stroke="#000000" stroke-width="0.5" stroke-linecap="round" stroke-linejoin="round" stroke-miterlimit="10" x1="204.388" y1="9.384" x2="201.71" y2="13.601"/>
			
				<line fill="none" stroke="#000000" stroke-width="0.5" stroke-linecap="round" stroke-linejoin="round" stroke-miterlimit="10" x1="201.71" y1="13.601" x2="204.254" y2="17.607"/>
		</g>
		<line fill="none" stroke="#000000" stroke-width="0.5" stroke-miterlimit="10" x1="191.973" y1="11.73" x2="234.39" y2="11.73"/>
		<g>
			
				<line fill="none" stroke="#000000" stroke-width="0.5" stroke-linecap="round" stroke-linejoin="round" stroke-miterlimit="10" x1="223.306" y1="9.382" x2="220.629" y2="13.601"/>
			
				<line fill="none" stroke="#000000" stroke-width="0.5" stroke-linecap="round" stroke-linejoin="round" stroke-miterlimit="10" x1="220.629" y1="13.601" x2="223.173" y2="17.606"/>
		</g>
	</g>
</g>
<g>
	
		<rect x="292.411" y="1.181" fill="none" stroke="#000000" stroke-width="0.5" stroke-miterlimit="10" width="24.623" height="24.625"/>
	<g>
		<g>
			<g>
				
					<line fill="none" stroke="#000000" stroke-width="0.5" stroke-miterlimit="10" x1="292.411" y1="13.494" x2="276.891" y2="13.494"/>
				<g>
					<path d="M277.789,13.494l1.096,1.803l-0.062,0.039l-2.938-1.166c-1.023-0.225-2.047-0.449-3.07-0.676
						c1.023-0.225,2.047-0.449,3.07-0.676l2.938-1.166l0.062,0.031L277.789,13.494z"/>
				</g>
			</g>
		</g>
		
			<line fill="none" stroke="#000000" stroke-width="0.5" stroke-miterlimit="10" x1="276.891" y1="13.494" x2="261.372" y2="13.494"/>
	</g>
	<g>
		<g>
			<path fill="#010101" d="M310.88,19.672v-0.124c0.193-0.064,0.344-0.163,0.45-0.298c0.105-0.135,0.159-0.276,0.159-0.427
				c0-0.036-0.009-0.066-0.025-0.091c-0.014-0.017-0.026-0.025-0.04-0.025c-0.021,0-0.065,0.019-0.135,0.057
				c-0.034,0.017-0.07,0.025-0.107,0.025c-0.092,0-0.166-0.027-0.22-0.082c-0.055-0.055-0.082-0.13-0.082-0.226
				c0-0.092,0.035-0.171,0.105-0.237c0.07-0.065,0.157-0.099,0.259-0.099c0.124,0,0.234,0.055,0.331,0.162
				c0.097,0.108,0.146,0.252,0.146,0.431c0,0.193-0.067,0.374-0.202,0.54S311.171,19.576,310.88,19.672z"/>
		</g>
		<g>
			<path fill="#010101" d="M309.218,17.974c0,0.109,0.006,0.191,0.019,0.247c0.012,0.056,0.033,0.101,0.064,0.136
				c0.031,0.034,0.076,0.062,0.134,0.081c0.059,0.02,0.132,0.035,0.221,0.045c0.088,0.011,0.205,0.018,0.35,0.021v0.206h-2.085
				v-0.206c0.209-0.009,0.357-0.021,0.447-0.038c0.089-0.016,0.157-0.04,0.204-0.071c0.047-0.032,0.082-0.077,0.104-0.136
				s0.032-0.153,0.032-0.285v-2.287c0-0.075-0.013-0.131-0.039-0.165c-0.026-0.035-0.065-0.053-0.116-0.053
				c-0.061,0-0.146,0.031-0.257,0.094c-0.11,0.062-0.248,0.147-0.412,0.256l-0.124-0.217l1.32-0.787h0.155
				c-0.011,0.181-0.017,0.431-0.017,0.75V17.974z"/>
			<path fill="#010101" d="M314.014,18.259c0.093,0,0.167-0.006,0.223-0.017c0.057-0.012,0.102-0.03,0.136-0.057
				s0.061-0.061,0.081-0.104c0.02-0.042,0.044-0.107,0.074-0.195h0.24l-0.048,0.823h-2.322v-0.136
				c0.081-0.197,0.189-0.399,0.327-0.606c0.137-0.206,0.332-0.45,0.584-0.73c0.218-0.24,0.375-0.423,0.471-0.547
				c0.105-0.136,0.185-0.253,0.236-0.352s0.089-0.191,0.111-0.279c0.022-0.087,0.033-0.175,0.033-0.264
				c0-0.141-0.022-0.266-0.067-0.373c-0.045-0.108-0.114-0.193-0.207-0.256c-0.094-0.062-0.21-0.093-0.352-0.093
				c-0.352,0-0.589,0.195-0.711,0.587h-0.342v-0.542c0.228-0.107,0.441-0.185,0.64-0.232c0.198-0.048,0.377-0.072,0.534-0.072
				c0.351,0,0.614,0.077,0.793,0.23c0.179,0.154,0.269,0.375,0.269,0.667c0,0.1-0.01,0.191-0.03,0.274
				c-0.02,0.084-0.051,0.167-0.093,0.248c-0.042,0.082-0.1,0.17-0.171,0.265c-0.071,0.094-0.15,0.189-0.237,0.286
				c-0.086,0.097-0.235,0.258-0.448,0.483c-0.357,0.378-0.62,0.708-0.787,0.99H314.014z"/>
		</g>
		<g>
			<path fill="#010101" d="M306.547,16.124h-4.978v-0.181l2.552-3.059l-2.552-3.201V9.508h4.826l0.151,1.649h-0.2
				c-0.048-0.449-0.173-0.769-0.373-0.961s-0.489-0.288-0.866-0.288h-2.274l2.084,2.62l-2.347,2.825h2.586
				c0.433,0,0.757-0.082,0.974-0.244c0.217-0.163,0.396-0.469,0.539-0.917l0.181,0.039L306.547,16.124z"/>
		</g>
		<g>
			<path fill="#010101" d="M300.809,13.766c-0.039,0.04-0.086,0.06-0.14,0.06h-5.688c-0.054,0-0.1-0.02-0.14-0.06
				c-0.04-0.04-0.061-0.087-0.061-0.14s0.021-0.1,0.061-0.14c0.04-0.04,0.086-0.06,0.14-0.06h5.688c0.054,0,0.101,0.02,0.14,0.06
				c0.04,0.04,0.061,0.086,0.061,0.14S300.849,13.726,300.809,13.766z"/>
		</g>
	</g>
	
		<line fill="none" stroke="#000000" stroke-width="0.5" stroke-miterlimit="10" x1="317.034" y1="15.009" x2="359.451" y2="15.009"/>
	<g>
		
			<line fill="none" stroke="#000000" stroke-width="0.5" stroke-linecap="round" stroke-linejoin="round" stroke-miterlimit="10" x1="326.771" y1="9.384" x2="329.449" y2="13.601"/>
		
			<line fill="none" stroke="#000000" stroke-width="0.5" stroke-linecap="round" stroke-linejoin="round" stroke-miterlimit="10" x1="329.449" y1="13.601" x2="326.905" y2="17.607"/>
	</g>
	<line fill="none" stroke="#000000" stroke-width="0.5" stroke-miterlimit="10" x1="317.034" y1="11.73" x2="359.451" y2="11.73"/>
	<g>
		
			<line fill="none" stroke="#000000" stroke-width="0.5" stroke-linecap="round" stroke-linejoin="round" stroke-miterlimit="10" x1="348.367" y1="9.382" x2="345.69" y2="13.601"/>
		
			<line fill="none" stroke="#000000" stroke-width="0.5" stroke-linecap="round" stroke-linejoin="round" stroke-miterlimit="10" x1="345.69" y1="13.601" x2="348.234" y2="17.605"/>
	</g>
</g>
<g>
	
		<rect x="104.111" y="45.129" fill="none" stroke="#000000" stroke-width="0.5" stroke-miterlimit="10" width="24.623" height="24.625"/>
	<g>
		<g>
			<g>
				
					<line fill="none" stroke="#000000" stroke-width="0.5" stroke-miterlimit="10" x1="73.072" y1="57.441" x2="88.591" y2="57.441"/>
				<g>
					<path d="M87.694,57.441l-1.096-1.803L86.66,55.6l2.938,1.166c1.023,0.225,2.047,0.449,3.07,0.676
						c-1.023,0.225-2.047,0.449-3.07,0.676l-2.938,1.166l-0.062-0.031L87.694,57.441z"/>
				</g>
			</g>
		</g>
		
			<line fill="none" stroke="#000000" stroke-width="0.5" stroke-miterlimit="10" x1="88.591" y1="57.441" x2="104.111" y2="57.441"/>
	</g>
	
		<line fill="none" stroke="#000000" stroke-width="0.5" stroke-miterlimit="10" x1="128.734" y1="58.957" x2="171.151" y2="58.957"/>
	<g>
		
			<line fill="none" stroke="#000000" stroke-width="0.5" stroke-linecap="round" stroke-linejoin="round" stroke-miterlimit="10" x1="141.149" y1="53.332" x2="138.471" y2="57.549"/>
		
			<line fill="none" stroke="#000000" stroke-width="0.5" stroke-linecap="round" stroke-linejoin="round" stroke-miterlimit="10" x1="138.471" y1="57.549" x2="141.015" y2="61.555"/>
	</g>
	
		<line fill="none" stroke="#000000" stroke-width="0.5" stroke-miterlimit="10" x1="128.734" y1="55.678" x2="171.151" y2="55.678"/>
	<g>
		
			<line fill="none" stroke="#000000" stroke-width="0.5" stroke-linecap="round" stroke-linejoin="round" stroke-miterlimit="10" x1="160.067" y1="53.33" x2="157.39" y2="57.549"/>
		
			<line fill="none" stroke="#000000" stroke-width="0.5" stroke-linecap="round" stroke-linejoin="round" stroke-miterlimit="10" x1="157.39" y1="57.549" x2="159.934" y2="61.553"/>
	</g>
	<g>
		<g>
			<path fill="#010101" d="M122.898,63.496v-0.125c0.193-0.064,0.344-0.162,0.45-0.297c0.105-0.135,0.159-0.277,0.159-0.428
				c0-0.035-0.009-0.066-0.025-0.09c-0.014-0.018-0.026-0.025-0.04-0.025c-0.021,0-0.065,0.018-0.135,0.057
				c-0.034,0.016-0.07,0.025-0.107,0.025c-0.092,0-0.166-0.027-0.22-0.082c-0.055-0.055-0.082-0.131-0.082-0.227
				c0-0.092,0.035-0.17,0.105-0.236s0.157-0.1,0.259-0.1c0.124,0,0.234,0.055,0.331,0.162c0.097,0.109,0.146,0.252,0.146,0.432
				c0,0.193-0.067,0.373-0.202,0.539S123.189,63.4,122.898,63.496z"/>
		</g>
		<g>
			<path fill="#010101" d="M121.349,62.082c0.093,0,0.167-0.006,0.223-0.016c0.057-0.012,0.102-0.031,0.136-0.057
				c0.034-0.027,0.061-0.061,0.081-0.104c0.02-0.043,0.044-0.107,0.074-0.195h0.24l-0.048,0.822h-2.322v-0.135
				c0.081-0.197,0.189-0.4,0.327-0.607c0.137-0.205,0.332-0.449,0.584-0.73c0.218-0.24,0.375-0.422,0.471-0.547
				c0.105-0.135,0.185-0.252,0.236-0.352c0.052-0.098,0.089-0.191,0.111-0.279c0.022-0.086,0.033-0.174,0.033-0.264
				c0-0.141-0.022-0.266-0.067-0.373s-0.114-0.193-0.207-0.256c-0.094-0.061-0.21-0.092-0.352-0.092
				c-0.352,0-0.589,0.195-0.711,0.586h-0.342v-0.541c0.228-0.107,0.441-0.186,0.64-0.232c0.198-0.049,0.377-0.072,0.534-0.072
				c0.351,0,0.614,0.076,0.793,0.229s0.269,0.376,0.269,0.667c0,0.1-0.01,0.191-0.03,0.275c-0.02,0.084-0.051,0.166-0.093,0.248
				s-0.1,0.17-0.171,0.264s-0.15,0.189-0.237,0.287c-0.086,0.096-0.235,0.258-0.448,0.482c-0.357,0.379-0.62,0.709-0.787,0.99
				H121.349z"/>
			<path fill="#010101" d="M126.014,61.797c0,0.109,0.006,0.191,0.019,0.248c0.012,0.055,0.033,0.1,0.064,0.135
				s0.076,0.063,0.134,0.082c0.059,0.02,0.132,0.035,0.221,0.045c0.088,0.01,0.205,0.018,0.35,0.021v0.205h-2.085v-0.205
				c0.209-0.01,0.357-0.021,0.447-0.039c0.089-0.016,0.157-0.039,0.204-0.07c0.047-0.033,0.082-0.078,0.104-0.137
				s0.032-0.152,0.032-0.285V59.51c0-0.074-0.013-0.131-0.039-0.164c-0.026-0.035-0.065-0.053-0.116-0.053
				c-0.061,0-0.146,0.031-0.257,0.094c-0.11,0.061-0.248,0.146-0.412,0.256l-0.124-0.217l1.32-0.787h0.155
				c-0.011,0.18-0.017,0.43-0.017,0.75V61.797z"/>
		</g>
		<g>
			<path fill="#010101" d="M118.565,59.947h-4.978v-0.18l2.552-3.06l-2.552-3.2v-0.176h4.826l0.151,1.648h-0.2
				c-0.048-0.448-0.173-0.769-0.373-0.961c-0.2-0.191-0.489-0.287-0.866-0.287h-2.274l2.084,2.619l-2.347,2.826h2.586
				c0.433,0,0.757-0.082,0.974-0.244c0.217-0.163,0.396-0.469,0.539-0.918l0.181,0.039L118.565,59.947z"/>
		</g>
		<g>
			<path fill="#010101" d="M112.827,57.59c-0.04,0.039-0.086,0.06-0.14,0.06H107c-0.053,0-0.1-0.021-0.14-0.06
				c-0.04-0.04-0.06-0.087-0.06-0.141c0-0.053,0.02-0.1,0.06-0.139c0.04-0.041,0.086-0.061,0.14-0.061h5.688
				c0.053,0,0.1,0.02,0.14,0.061c0.04,0.039,0.06,0.086,0.06,0.139C112.887,57.503,112.867,57.55,112.827,57.59z"/>
		</g>
	</g>
</g>
<g>
	
		<rect x="226.913" y="45.236" fill="none" stroke="#000000" stroke-width="0.5" stroke-miterlimit="10" width="24.623" height="24.625"/>
	<g>
		<g>
			<g>
				
					<line fill="none" stroke="#000000" stroke-width="0.5" stroke-miterlimit="10" x1="195.874" y1="57.549" x2="211.393" y2="57.549"/>
				<g>
					<path d="M210.496,57.549l-1.096-1.803l0.062-0.039l2.938,1.166c1.023,0.225,2.047,0.449,3.07,0.676
						c-1.023,0.225-2.047,0.449-3.07,0.676l-2.938,1.166l-0.062-0.031L210.496,57.549z"/>
				</g>
			</g>
		</g>
		
			<line fill="none" stroke="#000000" stroke-width="0.5" stroke-miterlimit="10" x1="211.393" y1="57.549" x2="226.913" y2="57.549"/>
	</g>
	
		<line fill="none" stroke="#000000" stroke-width="0.5" stroke-miterlimit="10" x1="251.536" y1="59.064" x2="293.953" y2="59.064"/>
	<g>
		
			<line fill="none" stroke="#000000" stroke-width="0.5" stroke-linecap="round" stroke-linejoin="round" stroke-miterlimit="10" x1="261.273" y1="53.439" x2="263.951" y2="57.656"/>
		
			<line fill="none" stroke="#000000" stroke-width="0.5" stroke-linecap="round" stroke-linejoin="round" stroke-miterlimit="10" x1="263.951" y1="57.656" x2="261.407" y2="61.662"/>
	</g>
	
		<line fill="none" stroke="#000000" stroke-width="0.5" stroke-miterlimit="10" x1="251.536" y1="55.785" x2="293.953" y2="55.785"/>
	<g>
		
			<line fill="none" stroke="#000000" stroke-width="0.5" stroke-linecap="round" stroke-linejoin="round" stroke-miterlimit="10" x1="282.869" y1="53.438" x2="280.192" y2="57.656"/>
		
			<line fill="none" stroke="#000000" stroke-width="0.5" stroke-linecap="round" stroke-linejoin="round" stroke-miterlimit="10" x1="280.192" y1="57.656" x2="282.736" y2="61.66"/>
	</g>
	<g>
		<g>
			<path fill="#010101" d="M245.17,63.633V63.51c0.193-0.064,0.344-0.164,0.45-0.299c0.105-0.135,0.159-0.275,0.159-0.426
				c0-0.037-0.009-0.066-0.025-0.092c-0.014-0.016-0.026-0.025-0.04-0.025c-0.021,0-0.065,0.02-0.135,0.057
				c-0.034,0.018-0.07,0.025-0.107,0.025c-0.092,0-0.166-0.027-0.22-0.082c-0.055-0.055-0.082-0.129-0.082-0.225
				c0-0.092,0.035-0.172,0.105-0.238c0.07-0.064,0.157-0.098,0.259-0.098c0.124,0,0.234,0.055,0.331,0.162s0.146,0.252,0.146,0.43
				c0,0.193-0.067,0.375-0.202,0.541S245.461,63.537,245.17,63.633z"/>
		</g>
		<g>
			<path fill="#010101" d="M243.622,62.221c0.093,0,0.167-0.006,0.223-0.018c0.057-0.012,0.102-0.029,0.136-0.057
				c0.034-0.025,0.061-0.061,0.081-0.104c0.02-0.041,0.044-0.107,0.074-0.195h0.24l-0.048,0.824h-2.322v-0.137
				c0.081-0.197,0.189-0.398,0.327-0.605c0.137-0.207,0.332-0.451,0.584-0.73c0.218-0.24,0.375-0.424,0.471-0.547
				c0.105-0.137,0.185-0.254,0.236-0.352c0.052-0.1,0.089-0.191,0.111-0.279s0.033-0.176,0.033-0.264
				c0-0.141-0.022-0.266-0.067-0.373c-0.045-0.109-0.114-0.193-0.207-0.256c-0.094-0.063-0.21-0.094-0.352-0.094
				c-0.352,0-0.589,0.195-0.711,0.588h-0.342V59.08c0.228-0.106,0.441-0.184,0.64-0.232c0.198-0.048,0.377-0.072,0.534-0.072
				c0.351,0,0.614,0.077,0.793,0.23c0.179,0.154,0.269,0.375,0.269,0.668c0,0.1-0.01,0.191-0.03,0.273
				c-0.02,0.084-0.051,0.168-0.093,0.248c-0.042,0.082-0.1,0.17-0.171,0.266c-0.071,0.094-0.15,0.189-0.237,0.285
				c-0.086,0.098-0.235,0.258-0.448,0.484c-0.357,0.377-0.62,0.707-0.787,0.99H243.622z"/>
			<path fill="#010101" d="M248.398,62.221c0.093,0,0.167-0.006,0.223-0.018c0.057-0.012,0.102-0.029,0.136-0.057
				c0.034-0.025,0.061-0.061,0.081-0.104c0.02-0.041,0.044-0.107,0.074-0.195h0.24l-0.048,0.824h-2.322v-0.137
				c0.081-0.197,0.189-0.398,0.327-0.605c0.137-0.207,0.332-0.451,0.584-0.73c0.218-0.24,0.375-0.424,0.471-0.547
				c0.105-0.137,0.185-0.254,0.236-0.352c0.052-0.1,0.089-0.191,0.111-0.279s0.033-0.176,0.033-0.264
				c0-0.141-0.022-0.266-0.067-0.373c-0.045-0.109-0.114-0.193-0.207-0.256c-0.094-0.063-0.21-0.094-0.352-0.094
				c-0.352,0-0.589,0.195-0.711,0.588h-0.342V59.08c0.228-0.106,0.441-0.184,0.64-0.232c0.198-0.048,0.377-0.072,0.534-0.072
				c0.351,0,0.614,0.077,0.793,0.23c0.179,0.154,0.269,0.375,0.269,0.668c0,0.1-0.01,0.191-0.03,0.273
				c-0.02,0.084-0.051,0.168-0.093,0.248c-0.042,0.082-0.1,0.17-0.171,0.266c-0.071,0.094-0.15,0.189-0.237,0.285
				c-0.086,0.098-0.235,0.258-0.448,0.484c-0.357,0.377-0.62,0.707-0.787,0.99H248.398z"/>
		</g>
		<g>
			<path fill="#010101" d="M240.837,60.086h-4.978v-0.182l2.553-3.059l-2.553-3.201V53.47h4.826l0.151,1.649h-0.2
				c-0.048-0.449-0.173-0.77-0.373-0.961c-0.2-0.192-0.488-0.289-0.866-0.289h-2.274l2.084,2.621l-2.348,2.824h2.587
				c0.433,0,0.757-0.082,0.974-0.244s0.396-0.469,0.539-0.917l0.181,0.039L240.837,60.086z"/>
		</g>
		<g>
			<path fill="#010101" d="M235.099,57.728c-0.04,0.04-0.087,0.06-0.14,0.06h-5.688c-0.053,0-0.1-0.02-0.14-0.06
				s-0.06-0.087-0.06-0.14c0-0.054,0.02-0.101,0.06-0.141c0.04-0.039,0.087-0.06,0.14-0.06h5.688c0.053,0,0.1,0.021,0.14,0.06
				c0.04,0.04,0.06,0.087,0.06,0.141C235.159,57.641,235.139,57.688,235.099,57.728z"/>
		</g>
	</g>
</g>
<g>
	<g>
		<g>
			
				<line fill="none" stroke="#000000" stroke-width="0.5" stroke-miterlimit="10" x1="106.801" y1="13.495" x2="91.282" y2="13.495"/>
			<g>
				<path d="M92.179,13.495l1.096,1.802l-0.062,0.04l-2.938-1.166c-1.023-0.226-2.047-0.45-3.07-0.676
					c1.023-0.225,2.047-0.45,3.07-0.676l2.938-1.166l0.062,0.03L92.179,13.495z"/>
			</g>
		</g>
	</g>
	<line fill="none" stroke="#000000" stroke-width="0.5" stroke-miterlimit="10" x1="91.282" y1="13.495" x2="75.762" y2="13.495"/>
</g>
<g>
	<path d="M55.386,12.485v-0.719h6.189v0.719H55.386z M55.386,14.836v-0.72h6.189v0.72H55.386z"/>
	<path d="M122.848,10.147v2.818h2.71v0.72h-2.71v2.842h-0.768v-2.842h-2.711v-0.72h2.711v-2.818H122.848z"/>
	<path d="M249.042,10.147v2.818h2.71v0.72h-2.71v2.842h-0.768v-2.842h-2.711v-0.72h2.711v-2.818H249.042z"/>
</g>
<line fill="none" stroke="#000000" stroke-width="0.5" stroke-miterlimit="10" x1="0" y1="58.85" x2="42.417" y2="58.85"/>
<g>
	
		<line fill="none" stroke="#000000" stroke-width="0.5" stroke-linecap="round" stroke-linejoin="round" stroke-miterlimit="10" x1="9.737" y1="53.225" x2="12.415" y2="57.441"/>
	
		<line fill="none" stroke="#000000" stroke-width="0.5" stroke-linecap="round" stroke-linejoin="round" stroke-miterlimit="10" x1="12.415" y1="57.441" x2="9.87" y2="61.447"/>
</g>
<line fill="none" stroke="#000000" stroke-width="0.5" stroke-miterlimit="10" x1="0" y1="55.57" x2="42.417" y2="55.57"/>
<g>
	
		<line fill="none" stroke="#000000" stroke-width="0.5" stroke-linecap="round" stroke-linejoin="round" stroke-miterlimit="10" x1="31.333" y1="53.223" x2="28.657" y2="57.441"/>
	
		<line fill="none" stroke="#000000" stroke-width="0.5" stroke-linecap="round" stroke-linejoin="round" stroke-miterlimit="10" x1="28.657" y1="57.441" x2="31.2" y2="61.446"/>
</g>
<g>
	<path d="M55.387,56.433v-0.72h6.188v0.72H55.387z M55.387,58.783v-0.72h6.188v0.72H55.387z"/>
	<path d="M184.672,54.094v2.818h2.709v0.72h-2.709v2.843h-0.768v-2.843h-2.711v-0.72h2.711v-2.818H184.672z"/>
</g>
</svg>
