<?xml version="1.0" encoding="utf-8"?>
<!-- Generator: Adobe Illustrator 15.1.0, SVG Export Plug-In . SVG Version: 6.00 Build 0)  -->
<!DOCTYPE svg PUBLIC "-//W3C//DTD SVG 1.1//EN" "http://www.w3.org/Graphics/SVG/1.1/DTD/svg11.dtd">
<svg version="1.1" id="Layer_1" xmlns="http://www.w3.org/2000/svg" xmlns:xlink="http://www.w3.org/1999/xlink" x="0px" y="0px"
	 width="87.437px" height="40.819px" viewBox="0 0 87.437 40.819" enable-background="new 0 0 87.437 40.819" xml:space="preserve">
<g>
	<g>
		<g>
			
				<line fill="none" stroke="#000000" stroke-width="0.5" stroke-linecap="round" stroke-miterlimit="10" x1="87.187" y1="38.977" x2="65.452" y2="38.977"/>
			<g>
				<path d="M66.35,38.977l1.096,1.802l-0.062,0.041l-2.938-1.167c-1.023-0.226-2.047-0.45-3.07-0.676
					c1.023-0.226,2.047-0.45,3.07-0.676l2.938-1.167l0.062,0.031L66.35,38.977z"/>
			</g>
		</g>
	</g>
	
		<line fill="none" stroke="#000000" stroke-width="0.5" stroke-linecap="round" stroke-miterlimit="10" x1="65.452" y1="38.977" x2="43.718" y2="38.977"/>
</g>
<line fill="none" stroke="#000000" stroke-width="0.5" stroke-linecap="round" stroke-miterlimit="10" stroke-dasharray="2,1" x1="43.718" y1="38.977" x2="43.718" y2="3.087"/>
<g>
	<g>
		<g>
			
				<line fill="none" stroke="#000000" stroke-width="0.5" stroke-linecap="round" stroke-miterlimit="10" x1="43.718" y1="38.977" x2="21.984" y2="38.977"/>
			<g>
				<path d="M22.883,38.977l1.095,1.802l-0.063,0.041l-2.937-1.167c-1.023-0.226-2.047-0.45-3.07-0.676
					c1.023-0.226,2.047-0.45,3.07-0.676l2.937-1.167l0.063,0.031L22.883,38.977z"/>
			</g>
		</g>
	</g>
	
		<line fill="none" stroke="#000000" stroke-width="0.5" stroke-linecap="round" stroke-miterlimit="10" x1="21.984" y1="38.977" x2="0.25" y2="38.977"/>
</g>
<g>
	<g>
		<g>
			
				<line fill="none" stroke="#000000" stroke-width="0.5" stroke-linecap="round" stroke-miterlimit="10" x1="87.187" y1="3.087" x2="65.452" y2="3.087"/>
			<g>
				<path d="M66.35,3.087l1.096,1.802L67.384,4.93l-2.938-1.167c-1.023-0.226-2.047-0.45-3.07-0.676
					c1.023-0.226,2.047-0.45,3.07-0.676l2.938-1.167l0.062,0.031L66.35,3.087z"/>
			</g>
		</g>
	</g>
	
		<line fill="none" stroke="#000000" stroke-width="0.5" stroke-linecap="round" stroke-miterlimit="10" x1="65.452" y1="3.087" x2="43.718" y2="3.087"/>
</g>
<circle fill="#FFFFFF" stroke="#000000" stroke-width="0.5" stroke-miterlimit="10" cx="43.718" cy="3.087" r="2.836"/>
</svg>
