<?xml version="1.0" encoding="utf-8"?>
<!-- Generator: Adobe Illustrator 15.1.0, SVG Export Plug-In . SVG Version: 6.00 Build 0)  -->
<!DOCTYPE svg PUBLIC "-//W3C//DTD SVG 1.1//EN" "http://www.w3.org/Graphics/SVG/1.1/DTD/svg11.dtd">
<svg version="1.1" id="Layer_1" xmlns="http://www.w3.org/2000/svg" xmlns:xlink="http://www.w3.org/1999/xlink" x="0px" y="0px"
	 width="190.719px" height="66.788px" viewBox="0 0 190.719 66.788" enable-background="new 0 0 190.719 66.788"
	 xml:space="preserve">
<line fill="none" stroke="#000000" stroke-width="0.5" stroke-linecap="round" stroke-miterlimit="10" x1="13.196" y1="29.67" x2="55.613" y2="29.67"/>
<g>
	
		<line fill="none" stroke="#000000" stroke-width="0.5" stroke-linecap="round" stroke-linejoin="round" stroke-miterlimit="10" x1="25.611" y1="24.045" x2="22.933" y2="28.262"/>
	
		<line fill="none" stroke="#000000" stroke-width="0.5" stroke-linecap="round" stroke-linejoin="round" stroke-miterlimit="10" x1="22.933" y1="28.262" x2="25.477" y2="32.268"/>
</g>
<line fill="none" stroke="#000000" stroke-width="0.5" stroke-linecap="round" stroke-miterlimit="10" x1="13.196" y1="26.391" x2="55.613" y2="26.391"/>
<g>
	
		<line fill="none" stroke="#000000" stroke-width="0.5" stroke-linecap="round" stroke-linejoin="round" stroke-miterlimit="10" x1="41.852" y1="32.267" x2="44.529" y2="28.048"/>
	
		<line fill="none" stroke="#000000" stroke-width="0.5" stroke-linecap="round" stroke-linejoin="round" stroke-miterlimit="10" x1="44.529" y1="28.048" x2="41.985" y2="24.043"/>
</g>
<g>
	<g>
		<path fill="#010101" d="M30.882,18.319v-0.215c0.335-0.11,0.595-0.282,0.779-0.515c0.184-0.232,0.275-0.479,0.275-0.739
			c0-0.062-0.015-0.114-0.044-0.156c-0.022-0.029-0.045-0.044-0.068-0.044c-0.036,0-0.114,0.032-0.234,0.098
			c-0.059,0.029-0.121,0.044-0.186,0.044c-0.16,0-0.286-0.047-0.381-0.142c-0.094-0.095-0.142-0.225-0.142-0.391
			c0-0.159,0.061-0.296,0.183-0.409c0.122-0.114,0.271-0.171,0.447-0.171c0.215,0,0.406,0.094,0.573,0.28
			c0.167,0.188,0.251,0.436,0.251,0.744c0,0.335-0.116,0.646-0.349,0.935C31.755,17.926,31.387,18.153,30.882,18.319z"/>
	</g>
	<g>
		<path fill="#010101" d="M42.903,12.275l0.059-0.175c0.55,0,0.968,0.094,1.254,0.281c0.286,0.186,0.466,0.487,0.541,0.902
			c0.075,0.414,0.03,0.869-0.135,1.364c-0.141,0.419-0.352,0.803-0.633,1.151c-0.282,0.348-0.597,0.61-0.943,0.788
			c-0.348,0.178-0.651,0.266-0.911,0.266c-0.287,0-0.503-0.082-0.651-0.244c-0.147-0.163-0.244-0.415-0.29-0.756
			c-0.294,0.345-0.58,0.598-0.86,0.759c-0.279,0.16-0.56,0.241-0.839,0.241c-0.244,0-0.473-0.087-0.687-0.261
			s-0.343-0.442-0.388-0.805c-0.045-0.363,0.003-0.756,0.144-1.179c0.153-0.458,0.385-0.876,0.696-1.254
			c0.24-0.292,0.505-0.534,0.792-0.727c0.286-0.192,0.567-0.327,0.846-0.407c0.277-0.08,0.608-0.12,0.996-0.12l-0.059,0.175
			c-0.468,0.046-0.912,0.259-1.334,0.642c-0.422,0.381-0.757,0.944-1.004,1.685c-0.244,0.732-0.311,1.269-0.2,1.61
			c0.068,0.206,0.227,0.308,0.474,0.308c0.205,0,0.428-0.084,0.668-0.254c0.24-0.168,0.499-0.474,0.776-0.917
			c-0.016-0.381-0.015-0.663,0.003-0.849c0.018-0.185,0.056-0.363,0.111-0.532c0.105-0.316,0.269-0.587,0.491-0.815
			c0.11-0.114,0.213-0.17,0.311-0.17c0.102,0,0.169,0.057,0.202,0.17c0.067,0.215,0.051,0.478-0.053,0.786
			c-0.125,0.378-0.388,0.848-0.787,1.41c-0.021,0.445,0.027,0.746,0.146,0.9c0.119,0.155,0.287,0.231,0.502,0.231
			c0.254,0,0.49-0.099,0.713-0.297c0.301-0.267,0.572-0.767,0.816-1.498c0.297-0.889,0.318-1.543,0.066-1.966
			C43.585,12.462,43.307,12.314,42.903,12.275z"/>
	</g>
	<g>
		<path fill="#010101" stroke="#010101" stroke-width="0.2855" stroke-linecap="round" stroke-miterlimit="10" d="M26.349,13.938
			h0.156c0.107,0,0.195-0.011,0.264-0.034c0.081-0.029,0.171-0.079,0.269-0.148c0.097-0.07,0.236-0.188,0.415-0.354
			c0.15-0.14,0.263-0.258,0.339-0.356c0.076-0.098,0.129-0.187,0.159-0.269c0.026-0.068,0.039-0.137,0.039-0.205
			c0-0.098-0.03-0.174-0.09-0.229c-0.061-0.055-0.159-0.093-0.295-0.112v-0.239h2.104v0.239c-0.15,0.029-0.309,0.096-0.479,0.2
			c-0.169,0.104-0.343,0.241-0.522,0.41l-1.123,1.063l1.406,1.835c0.163,0.215,0.31,0.373,0.441,0.476s0.276,0.17,0.432,0.202v0.239
			h-1.874v-0.239c0.084-0.01,0.147-0.028,0.188-0.056c0.041-0.028,0.061-0.074,0.061-0.14c0-0.049-0.009-0.097-0.027-0.144
			c-0.018-0.047-0.054-0.111-0.11-0.192c-0.055-0.082-0.156-0.223-0.302-0.425l-0.581-0.781c-0.11-0.146-0.189-0.242-0.236-0.288
			c-0.047-0.046-0.097-0.078-0.149-0.098c-0.052-0.02-0.122-0.029-0.21-0.029h-0.273v1.171c0,0.279,0.013,0.474,0.039,0.583
			s0.076,0.192,0.149,0.249s0.193,0.106,0.359,0.148v0.239h-1.938v-0.239c0.163-0.042,0.275-0.086,0.339-0.132
			c0.063-0.045,0.109-0.1,0.137-0.163s0.047-0.149,0.059-0.259c0.011-0.108,0.017-0.251,0.017-0.427v-4.083
			c0-0.313-0.002-0.53-0.007-0.654s-0.018-0.229-0.039-0.315c-0.021-0.086-0.05-0.154-0.088-0.203
			c-0.037-0.048-0.088-0.087-0.151-0.117s-0.178-0.059-0.344-0.088V9.722l1.176-0.049h0.292V13.938z"/>
	</g>
	<g>
		<path fill="#010101" d="M47.274,19.287h-1.111l0.047-0.139c0.08-0.022,0.14-0.042,0.178-0.059c0.037-0.017,0.072-0.041,0.104-0.07
			c0.031-0.031,0.064-0.077,0.098-0.141c0.033-0.063,0.071-0.158,0.113-0.286l0.247-0.739c0.044-0.131,0.079-0.251,0.107-0.357
			c0.028-0.107,0.046-0.195,0.05-0.264c0.005-0.069,0.002-0.123-0.011-0.161S47.063,17,47.038,16.973s-0.059-0.049-0.098-0.064
			c-0.041-0.016-0.097-0.024-0.17-0.024s-0.148,0.015-0.224,0.044c-0.076,0.029-0.165,0.079-0.269,0.15
			c-0.103,0.071-0.183,0.142-0.242,0.212c-0.059,0.069-0.104,0.149-0.133,0.239l-0.352,1.053c-0.054,0.161-0.084,0.274-0.09,0.337
			c-0.006,0.063,0.007,0.11,0.038,0.144c0.032,0.032,0.092,0.062,0.179,0.086l-0.046,0.139h-1.106l0.047-0.139
			c0.08-0.022,0.14-0.042,0.177-0.059c0.036-0.017,0.07-0.041,0.103-0.07c0.031-0.031,0.063-0.076,0.097-0.139
			c0.032-0.062,0.07-0.159,0.114-0.291l0.41-1.229c0.04-0.12,0.07-0.217,0.092-0.29c0.021-0.073,0.027-0.133,0.02-0.177
			s-0.031-0.077-0.07-0.099s-0.099-0.04-0.178-0.055l0.05-0.15l0.669-0.024h0.172l-0.185,0.459l0.036,0.012
			c0.186-0.142,0.331-0.241,0.438-0.302c0.105-0.06,0.207-0.107,0.307-0.14c0.098-0.033,0.195-0.049,0.293-0.049
			c0.102,0,0.189,0.011,0.261,0.035c0.073,0.023,0.131,0.06,0.176,0.108c0.046,0.049,0.075,0.109,0.091,0.182
			s0.016,0.159,0.002,0.261s-0.048,0.23-0.1,0.387l-0.354,1.063c-0.043,0.13-0.07,0.224-0.083,0.281
			c-0.012,0.059-0.014,0.104-0.005,0.136c0.008,0.032,0.026,0.06,0.055,0.08c0.028,0.022,0.083,0.045,0.163,0.069L47.274,19.287z"/>
	</g>
	<g>
		<path fill="#010101" d="M34.333,16.461c0.14-0.038,0.241-0.073,0.305-0.103c0.063-0.028,0.123-0.069,0.178-0.121
			c0.054-0.052,0.11-0.133,0.167-0.239c0.058-0.107,0.124-0.275,0.2-0.503l0.709-2.127c0.07-0.208,0.122-0.376,0.158-0.502
			c0.035-0.127,0.047-0.229,0.033-0.306c-0.014-0.076-0.054-0.133-0.122-0.17c-0.067-0.037-0.169-0.068-0.307-0.095l0.086-0.259
			l1.151-0.043h0.298l-1.163,3.488c-0.093,0.279-0.146,0.474-0.155,0.583c-0.01,0.108,0.012,0.192,0.065,0.249
			c0.054,0.057,0.158,0.106,0.31,0.148l-0.08,0.239h-1.913L34.333,16.461z M37.842,10.124l-0.315,0.946h-0.897l0.315-0.946H37.842z"
			/>
	</g>
</g>
<g>
	<path d="M79.791,27.169V26.45h6.188v0.719H79.791z M79.791,29.521v-0.72h6.188v0.72H79.791z"/>
</g>
<g>
	<g>
		<g>
			
				<line fill="none" stroke="#000000" stroke-width="0.5" stroke-linecap="round" stroke-miterlimit="10" x1="148.892" y1="50.781" x2="127.158" y2="50.781"/>
			<g>
				<path d="M128.055,50.781l1.096,1.802l-0.062,0.041l-2.938-1.167c-1.023-0.226-2.047-0.45-3.07-0.676
					c1.023-0.225,2.047-0.45,3.07-0.676l2.938-1.167l0.062,0.031L128.055,50.781z"/>
			</g>
		</g>
	</g>
	
		<line fill="none" stroke="#000000" stroke-width="0.5" stroke-linecap="round" stroke-miterlimit="10" x1="127.158" y1="50.781" x2="105.423" y2="50.781"/>
</g>
<g>
	<g>
		<path fill="#010101" d="M124.064,65.806V65.57c0.369-0.122,0.654-0.311,0.856-0.566s0.304-0.527,0.304-0.813
			c0-0.068-0.017-0.125-0.049-0.172c-0.025-0.032-0.05-0.048-0.075-0.048c-0.039,0-0.125,0.035-0.257,0.106
			c-0.064,0.032-0.133,0.049-0.205,0.049c-0.175,0-0.314-0.052-0.418-0.155c-0.104-0.104-0.156-0.247-0.156-0.43
			c0-0.176,0.067-0.326,0.201-0.451c0.135-0.125,0.299-0.188,0.492-0.188c0.236,0,0.445,0.103,0.63,0.309
			c0.185,0.205,0.276,0.479,0.276,0.818c0,0.368-0.128,0.711-0.383,1.028C125.025,65.374,124.619,65.624,124.064,65.806z"/>
	</g>
	<g>
		<path fill="#010101" d="M139.997,64.529c0,0.072-0.005,0.145-0.013,0.215c-0.009,0.07-0.02,0.143-0.034,0.218l-0.352,1.748
			c-0.004,0.017-0.011,0.031-0.021,0.042c-0.009,0.012-0.024,0.021-0.047,0.03c-0.021,0.008-0.049,0.014-0.082,0.019
			c-0.033,0.004-0.075,0.006-0.128,0.006c-0.049,0-0.09-0.002-0.122-0.006c-0.032-0.005-0.058-0.011-0.075-0.019
			c-0.018-0.009-0.029-0.019-0.034-0.03c-0.005-0.011-0.007-0.025-0.005-0.042l0.346-1.729c0.015-0.064,0.024-0.127,0.029-0.187
			c0.005-0.061,0.008-0.113,0.008-0.159c0-0.126-0.026-0.229-0.081-0.306c-0.054-0.078-0.144-0.117-0.271-0.117
			c-0.109,0-0.222,0.031-0.337,0.095s-0.223,0.15-0.32,0.262c-0.099,0.11-0.187,0.242-0.265,0.395
			c-0.078,0.153-0.135,0.318-0.17,0.497l-0.248,1.25c-0.005,0.017-0.012,0.031-0.022,0.042c-0.01,0.012-0.025,0.021-0.047,0.03
			c-0.021,0.008-0.048,0.014-0.082,0.019c-0.034,0.004-0.076,0.006-0.126,0.006c-0.052,0-0.094-0.002-0.126-0.006
			c-0.032-0.005-0.057-0.011-0.074-0.019c-0.018-0.009-0.029-0.019-0.034-0.03c-0.006-0.011-0.006-0.025-0.002-0.042l0.563-2.803
			c0.002-0.015,0.007-0.028,0.017-0.041c0.01-0.012,0.023-0.022,0.044-0.03c0.02-0.009,0.044-0.015,0.074-0.018
			s0.065-0.005,0.107-0.005c0.044,0,0.079,0.002,0.107,0.005c0.027,0.003,0.05,0.009,0.065,0.018
			c0.016,0.008,0.025,0.019,0.029,0.03c0.004,0.013,0.005,0.026,0.003,0.041l-0.105,0.535c0.031-0.07,0.082-0.146,0.152-0.225
			c0.07-0.078,0.154-0.151,0.252-0.218s0.205-0.121,0.322-0.164c0.116-0.044,0.238-0.065,0.365-0.065
			c0.139,0,0.255,0.021,0.348,0.063c0.094,0.043,0.17,0.099,0.228,0.168s0.1,0.149,0.124,0.241
			C139.984,64.333,139.997,64.429,139.997,64.529z"/>
	</g>
	<g>
		<path fill="#010101" d="M128.458,63.841c-0.008,0.028-0.02,0.053-0.037,0.072c-0.019,0.02-0.045,0.036-0.081,0.051
			s-0.083,0.025-0.142,0.032c-0.06,0.007-0.132,0.011-0.218,0.011c-0.089,0-0.162-0.004-0.218-0.011
			c-0.055-0.007-0.098-0.018-0.129-0.032c-0.03-0.015-0.05-0.031-0.059-0.051s-0.01-0.044-0.003-0.072l0.961-4.832
			c0.003-0.025,0.015-0.048,0.032-0.07s0.045-0.039,0.08-0.054c0.036-0.014,0.084-0.025,0.143-0.032
			c0.059-0.007,0.133-0.011,0.223-0.011c0.086,0,0.156,0.004,0.212,0.011c0.056,0.007,0.099,0.018,0.129,0.032
			c0.03,0.015,0.05,0.032,0.059,0.054c0.01,0.021,0.012,0.045,0.009,0.07L128.458,63.841z M129.848,57.383
			c-0.018,0.1-0.042,0.184-0.072,0.252c-0.03,0.068-0.07,0.123-0.12,0.164c-0.051,0.041-0.113,0.071-0.188,0.088
			c-0.075,0.018-0.166,0.027-0.273,0.027c-0.104,0-0.19-0.009-0.258-0.027c-0.067-0.018-0.118-0.047-0.15-0.088
			s-0.05-0.096-0.054-0.164c-0.004-0.068,0.004-0.152,0.021-0.252c0.021-0.1,0.049-0.184,0.08-0.25
			c0.033-0.066,0.073-0.122,0.121-0.166c0.049-0.045,0.11-0.075,0.186-0.091s0.166-0.024,0.273-0.024
			c0.104,0,0.188,0.008,0.255,0.024s0.116,0.046,0.15,0.091c0.034,0.044,0.053,0.1,0.057,0.166
			C129.878,57.199,129.87,57.283,129.848,57.383z"/>
	</g>
	<g>
		<path fill="#010101" d="M135.503,59.098l0.064-0.192c0.605,0,1.064,0.103,1.379,0.308c0.314,0.206,0.513,0.537,0.595,0.993
			c0.082,0.456,0.033,0.957-0.148,1.501c-0.154,0.462-0.386,0.884-0.695,1.267c-0.311,0.383-0.656,0.672-1.038,0.867
			c-0.382,0.194-0.716,0.293-1.002,0.293c-0.314,0-0.554-0.09-0.716-0.269s-0.269-0.457-0.318-0.832
			c-0.323,0.379-0.639,0.657-0.945,0.835c-0.309,0.177-0.616,0.266-0.924,0.266c-0.269,0-0.52-0.097-0.755-0.287
			c-0.235-0.192-0.377-0.487-0.427-0.886c-0.05-0.399,0.004-0.832,0.159-1.297c0.168-0.505,0.423-0.964,0.765-1.379
			c0.266-0.322,0.555-0.588,0.87-0.8c0.315-0.211,0.626-0.361,0.931-0.448c0.305-0.088,0.67-0.131,1.096-0.131l-0.064,0.192
			c-0.514,0.051-1.003,0.287-1.467,0.706c-0.464,0.421-0.832,1.04-1.104,1.855c-0.27,0.806-0.342,1.396-0.22,1.772
			c0.074,0.225,0.248,0.338,0.52,0.338c0.226,0,0.471-0.094,0.735-0.279c0.264-0.187,0.548-0.523,0.854-1.01
			c-0.018-0.418-0.017-0.729,0.003-0.934c0.021-0.205,0.061-0.399,0.122-0.585c0.116-0.348,0.296-0.646,0.541-0.897
			c0.12-0.125,0.234-0.187,0.342-0.187c0.109,0,0.185,0.062,0.221,0.187c0.076,0.236,0.058,0.524-0.056,0.865
			c-0.139,0.415-0.429,0.933-0.867,1.551c-0.023,0.49,0.03,0.821,0.161,0.991c0.132,0.17,0.315,0.254,0.551,0.254
			c0.279,0,0.541-0.109,0.786-0.326c0.33-0.294,0.63-0.844,0.897-1.648c0.326-0.978,0.35-1.698,0.072-2.164
			C136.253,59.304,135.948,59.141,135.503,59.098z"/>
	</g>
	<g>
		<path fill="#010101" stroke="#010101" stroke-width="0.3141" stroke-linecap="round" stroke-miterlimit="10" d="M119.06,60.985
			h0.172c0.118,0,0.215-0.013,0.29-0.038c0.089-0.032,0.188-0.087,0.296-0.164c0.106-0.077,0.259-0.207,0.455-0.389
			c0.165-0.154,0.289-0.285,0.373-0.392s0.143-0.206,0.175-0.295c0.028-0.075,0.043-0.15,0.043-0.225
			c0-0.107-0.033-0.191-0.099-0.252c-0.066-0.061-0.176-0.102-0.325-0.124v-0.263h2.313v0.263c-0.165,0.032-0.34,0.105-0.526,0.22
			c-0.187,0.114-0.378,0.265-0.574,0.451l-1.234,1.17l1.546,2.019c0.178,0.235,0.34,0.41,0.485,0.522
			c0.146,0.113,0.304,0.188,0.476,0.224v0.263h-2.062v-0.263c0.093-0.011,0.161-0.031,0.206-0.063
			c0.045-0.03,0.067-0.081,0.067-0.152c0-0.054-0.01-0.106-0.029-0.158c-0.02-0.053-0.06-0.123-0.12-0.213
			c-0.062-0.089-0.172-0.245-0.334-0.467l-0.639-0.859c-0.121-0.161-0.208-0.267-0.26-0.316c-0.052-0.05-0.106-0.086-0.164-0.107
			c-0.057-0.021-0.134-0.032-0.23-0.032h-0.301v1.289c0,0.308,0.015,0.521,0.043,0.642c0.029,0.119,0.084,0.211,0.164,0.273
			s0.212,0.117,0.395,0.164v0.263h-2.131v-0.263c0.18-0.047,0.303-0.095,0.373-0.146c0.07-0.05,0.12-0.109,0.15-0.18
			c0.03-0.069,0.052-0.164,0.064-0.284c0.012-0.12,0.019-0.276,0.019-0.47V58.14c0-0.344-0.003-0.583-0.008-0.719
			c-0.005-0.136-0.021-0.251-0.043-0.347c-0.023-0.095-0.056-0.169-0.097-0.223s-0.097-0.097-0.166-0.129
			c-0.07-0.032-0.196-0.064-0.379-0.097v-0.279l1.293-0.054h0.322V60.985z"/>
	</g>
</g>
<line fill="none" stroke="#000000" stroke-width="0.5" stroke-linecap="round" stroke-miterlimit="10" stroke-dasharray="2,1" x1="149.146" y1="50.781" x2="149.146" y2="15.009"/>
<path fill="none" stroke="#000000" stroke-width="0.5" stroke-linecap="round" stroke-miterlimit="10" d="M149.146,15.009"/>
<g>
	<g>
		<path fill="#010101" d="M121.812,11.514v-0.236c0.369-0.122,0.654-0.311,0.856-0.566s0.304-0.527,0.304-0.813
			c0-0.068-0.017-0.125-0.049-0.172c-0.025-0.032-0.05-0.048-0.075-0.048c-0.039,0-0.125,0.035-0.257,0.106
			c-0.064,0.032-0.133,0.049-0.205,0.049c-0.175,0-0.314-0.052-0.418-0.155c-0.104-0.104-0.156-0.247-0.156-0.43
			c0-0.176,0.067-0.326,0.201-0.451c0.135-0.125,0.299-0.188,0.492-0.188c0.236,0,0.445,0.103,0.63,0.309
			c0.185,0.205,0.276,0.479,0.276,0.818c0,0.368-0.128,0.711-0.383,1.028C122.773,11.082,122.367,11.332,121.812,11.514z"/>
	</g>
	<g>
		<path fill="#010101" d="M137.745,10.237c0,0.072-0.005,0.145-0.013,0.215c-0.009,0.07-0.02,0.143-0.034,0.218l-0.352,1.748
			c-0.004,0.017-0.011,0.031-0.021,0.042c-0.009,0.012-0.024,0.021-0.047,0.03c-0.021,0.008-0.049,0.014-0.082,0.019
			c-0.033,0.004-0.075,0.006-0.128,0.006c-0.049,0-0.09-0.002-0.122-0.006c-0.032-0.005-0.058-0.011-0.075-0.019
			c-0.018-0.009-0.029-0.019-0.034-0.03c-0.005-0.011-0.007-0.025-0.005-0.042l0.346-1.729c0.015-0.064,0.024-0.127,0.029-0.187
			c0.005-0.061,0.008-0.113,0.008-0.159c0-0.126-0.026-0.229-0.081-0.306c-0.054-0.078-0.144-0.117-0.271-0.117
			c-0.109,0-0.222,0.031-0.337,0.095s-0.223,0.15-0.32,0.262c-0.099,0.11-0.187,0.242-0.265,0.395
			c-0.078,0.153-0.135,0.318-0.17,0.497l-0.248,1.25c-0.005,0.017-0.012,0.031-0.022,0.042c-0.01,0.012-0.025,0.021-0.047,0.03
			c-0.021,0.008-0.048,0.014-0.082,0.019c-0.034,0.004-0.076,0.006-0.126,0.006c-0.052,0-0.094-0.002-0.126-0.006
			c-0.032-0.005-0.057-0.011-0.074-0.019c-0.018-0.009-0.029-0.019-0.034-0.03c-0.006-0.011-0.006-0.025-0.002-0.042l0.563-2.803
			c0.002-0.015,0.007-0.028,0.017-0.041c0.01-0.012,0.023-0.022,0.044-0.03c0.02-0.009,0.044-0.015,0.074-0.018
			s0.065-0.005,0.107-0.005c0.044,0,0.079,0.002,0.107,0.005c0.027,0.003,0.05,0.009,0.065,0.018
			c0.016,0.008,0.025,0.019,0.029,0.03c0.004,0.013,0.005,0.026,0.003,0.041l-0.105,0.535c0.031-0.07,0.082-0.146,0.152-0.225
			c0.07-0.078,0.154-0.151,0.252-0.218s0.205-0.121,0.322-0.164c0.116-0.044,0.238-0.065,0.365-0.065
			c0.139,0,0.255,0.021,0.348,0.063c0.094,0.043,0.17,0.099,0.228,0.168s0.1,0.149,0.124,0.241
			C137.732,10.042,137.745,10.137,137.745,10.237z"/>
	</g>
	<g>
		<path fill="#010101" d="M126.207,9.549c-0.008,0.028-0.02,0.053-0.037,0.072c-0.019,0.02-0.045,0.036-0.081,0.051
			s-0.083,0.025-0.142,0.032c-0.06,0.007-0.132,0.011-0.218,0.011c-0.089,0-0.162-0.004-0.218-0.011
			c-0.055-0.007-0.098-0.018-0.129-0.032c-0.03-0.015-0.05-0.031-0.059-0.051s-0.01-0.044-0.003-0.072l0.961-4.832
			c0.003-0.025,0.015-0.048,0.032-0.07s0.045-0.039,0.08-0.054c0.036-0.014,0.084-0.025,0.143-0.032
			c0.059-0.007,0.133-0.011,0.223-0.011c0.086,0,0.156,0.004,0.212,0.011c0.056,0.007,0.099,0.018,0.129,0.032
			c0.03,0.015,0.05,0.032,0.059,0.054c0.01,0.021,0.012,0.045,0.009,0.07L126.207,9.549z M127.596,3.091
			c-0.018,0.1-0.042,0.184-0.072,0.252c-0.03,0.068-0.07,0.123-0.12,0.164c-0.051,0.041-0.113,0.071-0.188,0.088
			c-0.075,0.018-0.166,0.027-0.273,0.027c-0.104,0-0.19-0.009-0.258-0.027c-0.067-0.018-0.118-0.047-0.15-0.088
			s-0.05-0.096-0.054-0.164c-0.004-0.068,0.004-0.152,0.021-0.252c0.021-0.1,0.049-0.184,0.08-0.25
			c0.033-0.066,0.073-0.122,0.121-0.166c0.049-0.045,0.11-0.075,0.186-0.091s0.166-0.024,0.273-0.024
			c0.104,0,0.188,0.008,0.255,0.024s0.116,0.046,0.15,0.091c0.034,0.044,0.053,0.1,0.057,0.166
			C127.626,2.907,127.618,2.991,127.596,3.091z"/>
	</g>
	<g>
		<path fill="#010101" d="M133.251,4.806l0.064-0.192c0.605,0,1.064,0.103,1.379,0.308c0.314,0.206,0.513,0.537,0.595,0.993
			c0.082,0.456,0.033,0.957-0.148,1.501c-0.154,0.462-0.386,0.884-0.695,1.267c-0.311,0.383-0.656,0.672-1.038,0.867
			c-0.382,0.194-0.716,0.293-1.002,0.293c-0.314,0-0.554-0.09-0.716-0.269s-0.269-0.457-0.318-0.832
			c-0.323,0.379-0.639,0.657-0.945,0.835c-0.309,0.177-0.616,0.266-0.924,0.266c-0.269,0-0.52-0.097-0.755-0.287
			c-0.235-0.192-0.377-0.487-0.427-0.886c-0.05-0.399,0.004-0.832,0.159-1.297c0.168-0.505,0.423-0.964,0.765-1.379
			c0.266-0.322,0.555-0.588,0.87-0.8c0.315-0.211,0.626-0.361,0.931-0.448c0.305-0.088,0.67-0.131,1.096-0.131l-0.064,0.192
			c-0.514,0.051-1.003,0.287-1.467,0.706c-0.464,0.421-0.832,1.04-1.104,1.855c-0.27,0.806-0.342,1.396-0.22,1.772
			c0.074,0.225,0.248,0.338,0.52,0.338c0.226,0,0.471-0.094,0.735-0.279c0.264-0.187,0.548-0.523,0.854-1.01
			c-0.018-0.418-0.017-0.729,0.003-0.934c0.021-0.205,0.061-0.399,0.122-0.585c0.116-0.348,0.296-0.646,0.541-0.897
			c0.12-0.125,0.234-0.187,0.342-0.187c0.109,0,0.185,0.062,0.221,0.187c0.076,0.236,0.058,0.524-0.056,0.865
			c-0.139,0.415-0.429,0.933-0.867,1.551c-0.023,0.49,0.03,0.821,0.161,0.991c0.132,0.17,0.315,0.254,0.551,0.254
			c0.279,0,0.541-0.109,0.786-0.326c0.33-0.294,0.63-0.844,0.897-1.648c0.326-0.978,0.35-1.698,0.072-2.164
			C134.001,5.012,133.696,4.849,133.251,4.806z"/>
	</g>
	<g>
		<path fill="#010101" stroke="#010101" stroke-width="0.3141" stroke-linecap="round" stroke-miterlimit="10" d="M116.808,6.693
			h0.172c0.118,0,0.215-0.013,0.29-0.038c0.089-0.032,0.188-0.087,0.296-0.164c0.106-0.077,0.259-0.207,0.455-0.389
			c0.165-0.154,0.289-0.285,0.373-0.392s0.143-0.206,0.175-0.295c0.028-0.075,0.043-0.15,0.043-0.225
			c0-0.107-0.033-0.191-0.099-0.252c-0.066-0.061-0.176-0.102-0.325-0.124V4.551h2.313v0.263c-0.165,0.032-0.34,0.105-0.526,0.22
			c-0.187,0.114-0.378,0.265-0.574,0.451l-1.234,1.17l1.546,2.019c0.178,0.235,0.34,0.41,0.485,0.522
			c0.146,0.113,0.304,0.188,0.476,0.224v0.263h-2.062V9.42c0.093-0.011,0.161-0.031,0.206-0.063c0.045-0.03,0.067-0.081,0.067-0.152
			c0-0.054-0.01-0.106-0.029-0.158c-0.02-0.053-0.06-0.123-0.12-0.213c-0.062-0.089-0.172-0.245-0.334-0.467l-0.639-0.859
			c-0.121-0.161-0.208-0.267-0.26-0.316c-0.052-0.05-0.106-0.086-0.164-0.107c-0.057-0.021-0.134-0.032-0.23-0.032h-0.301v1.289
			c0,0.308,0.015,0.521,0.043,0.642c0.029,0.119,0.084,0.211,0.164,0.273s0.212,0.117,0.395,0.164v0.263h-2.131V9.42
			c0.18-0.047,0.303-0.095,0.373-0.146c0.07-0.05,0.12-0.109,0.15-0.18c0.03-0.069,0.052-0.164,0.064-0.284
			c0.012-0.12,0.019-0.276,0.019-0.47V3.848c0-0.344-0.003-0.583-0.008-0.719c-0.005-0.136-0.021-0.251-0.043-0.347
			c-0.023-0.095-0.056-0.169-0.097-0.223s-0.097-0.097-0.166-0.129c-0.07-0.032-0.196-0.064-0.379-0.097V2.055l1.293-0.054h0.322
			V6.693z"/>
	</g>
</g>
<circle fill="#FFFFFF" stroke="#000000" stroke-width="0.5" stroke-miterlimit="10" cx="151.981" cy="50.781" r="2.836"/>
<g>
	<g>
		<path fill="#010101" d="M27.674,50.048c-0.02,0.023-0.043,0.036-0.07,0.036c-0.046,0-0.076-0.009-0.089-0.024
			c-0.378-0.348-0.702-0.745-0.97-1.192c-0.269-0.447-0.489-0.926-0.662-1.436c-0.172-0.51-0.3-1.044-0.383-1.602
			s-0.125-1.118-0.125-1.679s0.042-1.122,0.125-1.679s0.21-1.091,0.383-1.602c0.173-0.51,0.393-0.989,0.662-1.436
			c0.269-0.447,0.592-0.844,0.97-1.192c0.013-0.016,0.043-0.024,0.089-0.024c0.026,0,0.05,0.012,0.07,0.036
			c0.013,0.032,0.02,0.06,0.02,0.083c0,0.032-0.01,0.06-0.03,0.083c-0.318,0.356-0.587,0.756-0.806,1.199
			c-0.219,0.443-0.396,0.912-0.533,1.406c-0.136,0.494-0.232,1.006-0.289,1.536c-0.056,0.53-0.084,1.061-0.084,1.59
			c0,0.538,0.028,1.07,0.084,1.596c0.057,0.525,0.153,1.036,0.289,1.53c0.136,0.494,0.313,0.963,0.533,1.406
			c0.219,0.442,0.487,0.843,0.806,1.198c0.02,0.023,0.03,0.052,0.03,0.083C27.694,49.989,27.688,50.017,27.674,50.048z"/>
	</g>
	<g>
		<path fill="#010101" d="M69.605,45.831c-0.084,0.558-0.211,1.092-0.383,1.602c-0.174,0.51-0.393,0.988-0.662,1.436
			s-0.592,0.845-0.971,1.192c-0.025,0.016-0.047,0.024-0.059,0.024H67.5c-0.025,0-0.049-0.013-0.068-0.036
			c-0.014-0.031-0.02-0.06-0.02-0.083c0-0.031,0.01-0.06,0.029-0.083c0.318-0.355,0.586-0.756,0.807-1.198
			c0.219-0.443,0.395-0.912,0.531-1.406s0.232-1.005,0.289-1.53c0.057-0.526,0.084-1.058,0.084-1.596c0-0.53-0.027-1.06-0.084-1.59
			c-0.057-0.53-0.152-1.042-0.289-1.536c-0.137-0.495-0.313-0.963-0.531-1.406c-0.221-0.443-0.488-0.842-0.807-1.199
			c-0.02-0.023-0.029-0.051-0.029-0.083c0-0.04,0.006-0.067,0.02-0.083c0.02-0.023,0.043-0.036,0.068-0.036h0.031
			c0.012,0,0.033,0.008,0.059,0.024c0.379,0.348,0.701,0.746,0.971,1.192c0.27,0.447,0.488,0.926,0.662,1.436
			c0.172,0.51,0.299,1.044,0.383,1.602c0.082,0.558,0.125,1.118,0.125,1.679S69.687,45.273,69.605,45.831z"/>
	</g>
	<g>
		<path fill="#010101" d="M18.406,50.197v-0.124c0.193-0.064,0.344-0.163,0.45-0.298c0.106-0.135,0.16-0.276,0.16-0.427
			c0-0.036-0.009-0.066-0.025-0.091c-0.013-0.017-0.026-0.025-0.04-0.025c-0.021,0-0.066,0.019-0.135,0.057
			c-0.034,0.017-0.07,0.025-0.107,0.025c-0.092,0-0.166-0.027-0.22-0.082s-0.082-0.13-0.082-0.226c0-0.092,0.035-0.171,0.105-0.237
			c0.071-0.065,0.157-0.099,0.258-0.099c0.124,0,0.235,0.055,0.332,0.162c0.097,0.108,0.146,0.252,0.146,0.431
			c0,0.193-0.067,0.374-0.202,0.54C18.911,49.969,18.698,50.101,18.406,50.197z"/>
	</g>
	<g>
		<path fill="#010101" d="M41.563,48.313v-0.215c0.335-0.11,0.595-0.282,0.778-0.515s0.275-0.479,0.275-0.739
			c0-0.062-0.015-0.114-0.044-0.156c-0.022-0.029-0.045-0.044-0.068-0.044c-0.035,0-0.113,0.032-0.234,0.098
			c-0.059,0.029-0.12,0.044-0.186,0.044c-0.159,0-0.286-0.047-0.38-0.142c-0.095-0.095-0.142-0.225-0.142-0.391
			c0-0.159,0.061-0.296,0.183-0.409c0.122-0.114,0.271-0.171,0.446-0.171c0.215,0,0.406,0.094,0.574,0.28
			c0.167,0.188,0.251,0.436,0.251,0.744c0,0.335-0.116,0.646-0.349,0.935C42.435,47.919,42.066,48.147,41.563,48.313z"/>
	</g>
	<g>
		<path fill="#010101" d="M60.456,42.268l0.059-0.175c0.55,0,0.968,0.094,1.253,0.281c0.286,0.187,0.466,0.487,0.541,0.902
			c0.075,0.414,0.03,0.869-0.135,1.364c-0.14,0.42-0.351,0.803-0.633,1.152c-0.282,0.348-0.597,0.61-0.943,0.787
			c-0.347,0.178-0.651,0.266-0.911,0.266c-0.287,0-0.503-0.081-0.65-0.243c-0.148-0.163-0.245-0.415-0.29-0.756
			c-0.294,0.345-0.58,0.598-0.86,0.759c-0.28,0.16-0.561,0.24-0.84,0.24c-0.244,0-0.473-0.087-0.687-0.26
			c-0.213-0.175-0.343-0.443-0.388-0.806s0.003-0.755,0.145-1.178c0.152-0.458,0.385-0.876,0.696-1.254
			c0.24-0.292,0.504-0.534,0.791-0.727c0.286-0.192,0.568-0.327,0.846-0.407s0.609-0.12,0.997-0.12l-0.059,0.175
			c-0.469,0.046-0.912,0.259-1.334,0.642c-0.422,0.382-0.758,0.944-1.004,1.685c-0.244,0.731-0.312,1.27-0.2,1.61
			c0.067,0.205,0.227,0.308,0.474,0.308c0.205,0,0.428-0.085,0.667-0.254c0.24-0.169,0.499-0.475,0.776-0.917
			c-0.016-0.381-0.015-0.664,0.003-0.849c0.019-0.185,0.056-0.363,0.112-0.532c0.105-0.316,0.268-0.587,0.49-0.815
			c0.11-0.114,0.213-0.17,0.311-0.17c0.102,0,0.169,0.056,0.202,0.17c0.068,0.215,0.051,0.477-0.052,0.786
			c-0.126,0.378-0.389,0.848-0.787,1.41c-0.022,0.445,0.027,0.745,0.146,0.9c0.119,0.154,0.287,0.231,0.502,0.231
			c0.254,0,0.491-0.1,0.714-0.298c0.301-0.267,0.572-0.766,0.816-1.498c0.296-0.889,0.318-1.543,0.065-1.966
			C61.137,42.455,60.859,42.307,60.456,42.268z"/>
	</g>
	<g>
		<path fill="#010101" d="M8.812,44.291c-0.04,0.04-0.086,0.06-0.14,0.06H2.984c-0.053,0-0.1-0.02-0.14-0.06
			c-0.04-0.04-0.06-0.087-0.06-0.14s0.02-0.1,0.06-0.14c0.04-0.04,0.086-0.06,0.14-0.06h5.688c0.053,0,0.1,0.02,0.14,0.06
			c0.04,0.04,0.06,0.086,0.06,0.14S8.852,44.251,8.812,44.291z"/>
		<path fill="#010101" d="M34.759,44.291c-0.04,0.04-0.086,0.06-0.14,0.06h-5.688c-0.053,0-0.1-0.02-0.14-0.06
			c-0.04-0.04-0.06-0.087-0.06-0.14s0.02-0.1,0.06-0.14c0.04-0.04,0.086-0.06,0.14-0.06h5.688c0.053,0,0.1,0.02,0.14,0.06
			c0.04,0.04,0.06,0.086,0.06,0.14S34.799,44.251,34.759,44.291z"/>
		<path fill="#010101" d="M51.001,44.291c-0.04,0.04-0.087,0.06-0.14,0.06h-5.688c-0.053,0-0.1-0.02-0.14-0.06
			c-0.04-0.04-0.06-0.087-0.06-0.14s0.02-0.1,0.06-0.14c0.04-0.04,0.087-0.06,0.14-0.06h5.688c0.053,0,0.1,0.02,0.14,0.06
			c0.04,0.04,0.061,0.086,0.061,0.14S51.041,44.251,51.001,44.291z"/>
	</g>
	<g>
		<path fill="#010101" stroke="#010101" stroke-width="0.2855" stroke-miterlimit="10" d="M37.028,43.931h0.156
			c0.107,0,0.195-0.011,0.264-0.034c0.081-0.029,0.171-0.079,0.269-0.148s0.235-0.188,0.415-0.354
			c0.149-0.14,0.263-0.258,0.339-0.356s0.129-0.187,0.158-0.269c0.026-0.068,0.039-0.137,0.039-0.205c0-0.098-0.03-0.174-0.09-0.229
			c-0.061-0.055-0.159-0.093-0.296-0.112v-0.239h2.104v0.239c-0.149,0.029-0.309,0.096-0.478,0.2
			c-0.17,0.104-0.344,0.241-0.522,0.41l-1.123,1.063l1.406,1.835c0.162,0.215,0.31,0.373,0.441,0.476s0.275,0.17,0.432,0.202v0.239
			h-1.874V46.41c0.085-0.01,0.147-0.028,0.188-0.056c0.04-0.028,0.061-0.074,0.061-0.14c0-0.049-0.009-0.097-0.026-0.144
			c-0.019-0.047-0.055-0.111-0.11-0.192c-0.055-0.082-0.156-0.223-0.303-0.425l-0.58-0.781c-0.111-0.146-0.189-0.242-0.237-0.288
			c-0.047-0.046-0.097-0.078-0.148-0.098s-0.122-0.029-0.21-0.029h-0.273v1.171c0,0.279,0.013,0.474,0.039,0.583
			s0.076,0.192,0.149,0.249c0.072,0.057,0.192,0.106,0.358,0.148v0.239h-1.938V46.41c0.163-0.042,0.275-0.086,0.339-0.132
			c0.063-0.045,0.109-0.1,0.137-0.163s0.047-0.149,0.059-0.259c0.011-0.108,0.017-0.251,0.017-0.427v-4.083
			c0-0.313-0.002-0.53-0.007-0.654s-0.018-0.229-0.039-0.315c-0.021-0.086-0.05-0.154-0.088-0.203
			c-0.037-0.048-0.088-0.087-0.151-0.117s-0.178-0.059-0.344-0.088v-0.254l1.176-0.049h0.293V43.931z"/>
	</g>
	<g>
		<path fill="#010101" d="M16.752,48.499c0,0.109,0.006,0.191,0.019,0.247c0.012,0.056,0.034,0.101,0.064,0.136
			c0.031,0.034,0.076,0.062,0.134,0.081c0.058,0.02,0.132,0.035,0.22,0.045c0.088,0.011,0.205,0.018,0.35,0.021v0.206h-2.085v-0.206
			c0.209-0.009,0.358-0.021,0.447-0.038c0.089-0.016,0.157-0.04,0.205-0.071c0.047-0.032,0.081-0.077,0.103-0.136
			c0.021-0.059,0.032-0.153,0.032-0.285v-2.287c0-0.075-0.013-0.131-0.04-0.165c-0.026-0.035-0.065-0.053-0.116-0.053
			c-0.06,0-0.146,0.031-0.257,0.094c-0.111,0.062-0.248,0.147-0.412,0.256l-0.124-0.217l1.32-0.787h0.155
			c-0.011,0.181-0.017,0.431-0.017,0.75V48.499z"/>
		<path fill="#010101" d="M21.641,48.784c0.092,0,0.167-0.006,0.223-0.017c0.057-0.012,0.102-0.03,0.135-0.057
			c0.034-0.026,0.061-0.061,0.081-0.104c0.02-0.042,0.044-0.107,0.075-0.195h0.24l-0.048,0.823h-2.322v-0.136
			c0.081-0.197,0.19-0.399,0.328-0.606c0.137-0.206,0.332-0.45,0.584-0.73c0.218-0.24,0.375-0.423,0.471-0.547
			c0.105-0.136,0.184-0.253,0.235-0.352s0.089-0.191,0.112-0.279c0.022-0.087,0.034-0.175,0.034-0.264
			c0-0.141-0.022-0.266-0.068-0.373c-0.045-0.108-0.114-0.193-0.207-0.256c-0.093-0.062-0.21-0.093-0.352-0.093
			c-0.352,0-0.589,0.195-0.711,0.587h-0.341v-0.542c0.228-0.107,0.44-0.185,0.639-0.232c0.198-0.048,0.376-0.072,0.535-0.072
			c0.35,0,0.614,0.077,0.792,0.23s0.268,0.375,0.268,0.667c0,0.1-0.01,0.191-0.029,0.274c-0.02,0.084-0.051,0.167-0.093,0.248
			c-0.042,0.082-0.099,0.17-0.171,0.265c-0.071,0.094-0.15,0.189-0.237,0.286s-0.236,0.258-0.449,0.483
			c-0.357,0.378-0.62,0.708-0.787,0.99H21.641z"/>
	</g>
	<g>
		<path fill="#010101" d="M64.835,49.28h-1.111l0.046-0.138c0.081-0.023,0.14-0.043,0.178-0.06s0.072-0.04,0.104-0.07
			c0.032-0.03,0.065-0.076,0.098-0.14c0.034-0.063,0.071-0.158,0.114-0.286l0.246-0.739c0.044-0.132,0.08-0.251,0.107-0.357
			c0.029-0.107,0.046-0.196,0.051-0.265s0.001-0.122-0.012-0.161c-0.012-0.038-0.031-0.071-0.058-0.098
			c-0.024-0.028-0.058-0.05-0.098-0.065s-0.097-0.023-0.17-0.023s-0.148,0.015-0.224,0.043c-0.076,0.03-0.165,0.08-0.268,0.151
			c-0.104,0.071-0.184,0.142-0.242,0.211s-0.104,0.15-0.134,0.24l-0.351,1.052c-0.055,0.162-0.084,0.274-0.09,0.338
			c-0.006,0.063,0.007,0.11,0.037,0.144c0.032,0.032,0.092,0.061,0.18,0.086l-0.046,0.138h-1.106l0.046-0.138
			c0.081-0.023,0.14-0.043,0.177-0.06c0.036-0.017,0.07-0.04,0.103-0.07s0.063-0.076,0.097-0.138
			c0.033-0.063,0.071-0.159,0.115-0.291l0.41-1.23c0.039-0.119,0.07-0.217,0.092-0.29c0.021-0.073,0.026-0.132,0.019-0.176
			c-0.008-0.045-0.03-0.078-0.069-0.099c-0.04-0.021-0.1-0.04-0.178-0.055l0.049-0.15l0.669-0.025h0.172l-0.185,0.46l0.037,0.011
			c0.186-0.141,0.331-0.24,0.437-0.301c0.106-0.061,0.208-0.107,0.307-0.14c0.099-0.034,0.196-0.05,0.294-0.05
			c0.102,0,0.188,0.012,0.261,0.035s0.13,0.06,0.176,0.108c0.045,0.05,0.075,0.109,0.091,0.182c0.015,0.072,0.015,0.159,0.002,0.262
			c-0.015,0.101-0.048,0.23-0.1,0.386l-0.355,1.063c-0.043,0.13-0.07,0.224-0.082,0.282s-0.014,0.104-0.006,0.135
			c0.008,0.033,0.026,0.06,0.056,0.081c0.027,0.022,0.083,0.044,0.162,0.069L64.835,49.28z"/>
	</g>
	<g>
		<path fill="#010101" d="M13.476,46.669l-0.414,0.102l-0.229-0.38c-0.255,0.13-0.508,0.227-0.76,0.288s-0.527,0.092-0.827,0.092
			c-0.822,0-1.349-0.281-1.578-0.846c-0.228-0.564-0.156-1.403,0.215-2.515c0.231-0.693,0.547-1.301,0.95-1.825
			c0.402-0.523,0.864-0.927,1.383-1.208c0.52-0.281,1.069-0.422,1.644-0.422c0.303,0,0.588,0.017,0.857,0.051
			c0.268,0.034,0.56,0.093,0.872,0.179l-0.447,1.341h-0.482c0.01-0.292-0.019-0.521-0.084-0.686
			c-0.066-0.164-0.171-0.282-0.314-0.351c-0.145-0.07-0.346-0.105-0.603-0.105c-0.354,0-0.703,0.114-1.046,0.342
			c-0.342,0.228-0.662,0.563-0.958,1.008c-0.296,0.444-0.549,0.979-0.758,1.607c-0.212,0.637-0.332,1.182-0.356,1.634
			c-0.026,0.452,0.047,0.793,0.217,1.022c0.171,0.229,0.438,0.344,0.798,0.344c0.384,0,0.697-0.084,0.938-0.251
			c0.242-0.168,0.42-0.425,0.537-0.773l0.098-0.293c0.097-0.292,0.152-0.504,0.164-0.634c0.013-0.13-0.008-0.231-0.062-0.302
			s-0.164-0.13-0.327-0.176l0.08-0.239h1.972l-0.08,0.239c-0.13,0.039-0.233,0.084-0.308,0.134c-0.076,0.05-0.142,0.113-0.197,0.188
			c-0.056,0.075-0.107,0.167-0.155,0.275c-0.048,0.109-0.106,0.265-0.173,0.466L13.476,46.669z"/>
		<path fill="#010101" d="M51.888,46.455c0.14-0.039,0.24-0.073,0.305-0.103c0.063-0.029,0.123-0.069,0.177-0.122
			c0.055-0.052,0.11-0.132,0.168-0.238c0.058-0.107,0.124-0.275,0.2-0.503l0.709-2.127c0.069-0.208,0.121-0.376,0.157-0.502
			s0.047-0.229,0.034-0.306c-0.014-0.076-0.055-0.133-0.122-0.17s-0.17-0.068-0.308-0.095l0.086-0.258l1.152-0.044h0.297
			l-1.162,3.488c-0.094,0.28-0.146,0.475-0.156,0.584c-0.01,0.108,0.013,0.191,0.066,0.248c0.054,0.058,0.157,0.106,0.309,0.149
			l-0.079,0.239h-1.913L51.888,46.455z M55.396,40.117l-0.314,0.946h-0.898l0.316-0.946H55.396z"/>
	</g>
</g>
<g>
	<g>
		<g>
			
				<line fill="none" stroke="#000000" stroke-width="0.5" stroke-linecap="round" stroke-miterlimit="10" x1="148.892" y1="15.009" x2="127.158" y2="15.009"/>
			<g>
				<path d="M128.055,15.009l1.096,1.802l-0.062,0.041l-2.938-1.167c-1.023-0.226-2.047-0.45-3.07-0.676
					c1.023-0.225,2.047-0.45,3.07-0.676l2.938-1.167l0.062,0.031L128.055,15.009z"/>
			</g>
		</g>
	</g>
	
		<line fill="none" stroke="#000000" stroke-width="0.5" stroke-linecap="round" stroke-miterlimit="10" x1="127.158" y1="15.009" x2="105.423" y2="15.009"/>
</g>
<circle fill="#FFFFFF" stroke="#000000" stroke-width="0.5" stroke-miterlimit="10" cx="151.981" cy="14.891" r="2.836"/>
<g>
	<g>
		<path fill="#010101" d="M165.636,32.637v-0.215c0.335-0.11,0.594-0.282,0.778-0.515c0.184-0.232,0.275-0.479,0.275-0.739
			c0-0.062-0.015-0.114-0.044-0.156c-0.022-0.029-0.045-0.044-0.068-0.044c-0.035,0-0.113,0.032-0.234,0.098
			c-0.059,0.029-0.12,0.044-0.186,0.044c-0.159,0-0.285-0.047-0.381-0.142c-0.094-0.095-0.141-0.225-0.141-0.391
			c0-0.159,0.061-0.296,0.183-0.409c0.122-0.114,0.271-0.171,0.446-0.171c0.215,0,0.406,0.094,0.574,0.28
			c0.167,0.188,0.251,0.436,0.251,0.744c0,0.335-0.116,0.646-0.349,0.935C166.509,32.243,166.14,32.471,165.636,32.637z"/>
	</g>
	<g>
		<path fill="#010101" d="M184.524,26.592l0.059-0.175c0.55,0,0.968,0.094,1.254,0.281c0.286,0.186,0.466,0.487,0.541,0.902
			c0.075,0.414,0.03,0.869-0.135,1.364c-0.141,0.419-0.352,0.803-0.633,1.151c-0.282,0.348-0.597,0.61-0.943,0.788
			c-0.348,0.178-0.651,0.266-0.911,0.266c-0.287,0-0.503-0.082-0.651-0.244c-0.147-0.163-0.244-0.415-0.29-0.756
			c-0.294,0.345-0.58,0.598-0.86,0.759c-0.279,0.16-0.56,0.241-0.839,0.241c-0.244,0-0.473-0.087-0.687-0.261
			s-0.343-0.442-0.388-0.805c-0.045-0.363,0.003-0.756,0.144-1.179c0.153-0.458,0.385-0.876,0.696-1.254
			c0.24-0.292,0.505-0.534,0.792-0.727c0.286-0.192,0.567-0.327,0.846-0.407c0.277-0.08,0.608-0.12,0.996-0.12l-0.059,0.175
			c-0.468,0.046-0.912,0.259-1.334,0.642c-0.422,0.381-0.757,0.944-1.004,1.685c-0.244,0.732-0.311,1.269-0.2,1.61
			c0.068,0.206,0.227,0.308,0.474,0.308c0.205,0,0.428-0.084,0.668-0.254c0.24-0.168,0.499-0.474,0.776-0.917
			c-0.016-0.381-0.015-0.663,0.003-0.849c0.018-0.185,0.056-0.363,0.111-0.532c0.105-0.316,0.269-0.587,0.491-0.815
			c0.11-0.114,0.213-0.17,0.311-0.17c0.102,0,0.169,0.057,0.202,0.17c0.067,0.215,0.051,0.478-0.053,0.786
			c-0.125,0.378-0.388,0.848-0.787,1.41c-0.021,0.445,0.027,0.746,0.146,0.9c0.119,0.155,0.287,0.231,0.502,0.231
			c0.254,0,0.49-0.099,0.713-0.297c0.301-0.267,0.572-0.767,0.816-1.498c0.297-0.889,0.318-1.543,0.066-1.966
			C185.206,26.779,184.927,26.631,184.524,26.592z"/>
	</g>
	<g>
		<path fill="#010101" d="M158.838,28.615c-0.04,0.04-0.087,0.06-0.14,0.06h-5.688c-0.053,0-0.1-0.02-0.14-0.06
			c-0.04-0.04-0.06-0.087-0.06-0.14s0.02-0.1,0.06-0.14c0.04-0.04,0.087-0.06,0.14-0.06h5.688c0.053,0,0.1,0.02,0.14,0.06
			c0.04,0.04,0.06,0.086,0.06,0.14S158.878,28.575,158.838,28.615z"/>
		<path fill="#010101" d="M175.081,28.615c-0.04,0.04-0.087,0.06-0.14,0.06h-5.688c-0.053,0-0.1-0.02-0.14-0.06
			c-0.04-0.04-0.06-0.087-0.06-0.14s0.02-0.1,0.06-0.14c0.04-0.04,0.087-0.06,0.14-0.06h5.688c0.053,0,0.1,0.02,0.14,0.06
			c0.04,0.04,0.061,0.086,0.061,0.14S175.121,28.575,175.081,28.615z"/>
	</g>
	<g>
		<path fill="#010101" stroke="#010101" stroke-width="0.2855" stroke-miterlimit="10" d="M161.102,28.255h0.156
			c0.107,0,0.195-0.011,0.264-0.034c0.081-0.029,0.171-0.079,0.269-0.148s0.236-0.188,0.414-0.354c0.15-0.14,0.264-0.258,0.34-0.356
			s0.129-0.187,0.158-0.269c0.026-0.068,0.039-0.137,0.039-0.205c0-0.098-0.029-0.174-0.09-0.229s-0.158-0.093-0.295-0.112v-0.239
			h2.104v0.239c-0.15,0.029-0.31,0.096-0.479,0.2c-0.17,0.104-0.344,0.241-0.522,0.41l-1.122,1.063l1.405,1.835
			c0.163,0.215,0.31,0.373,0.441,0.476s0.276,0.17,0.433,0.202v0.239h-1.875v-0.239c0.085-0.01,0.147-0.028,0.188-0.056
			c0.041-0.028,0.062-0.074,0.062-0.14c0-0.049-0.009-0.097-0.026-0.144s-0.055-0.111-0.11-0.192
			c-0.056-0.082-0.155-0.223-0.302-0.425l-0.582-0.781c-0.109-0.146-0.189-0.242-0.236-0.288c-0.047-0.046-0.097-0.078-0.148-0.098
			c-0.053-0.02-0.122-0.029-0.21-0.029h-0.273v1.171c0,0.279,0.013,0.474,0.039,0.583s0.075,0.192,0.149,0.249
			c0.072,0.057,0.192,0.106,0.358,0.148v0.239h-1.938v-0.239c0.163-0.042,0.275-0.086,0.339-0.132
			c0.063-0.045,0.109-0.1,0.137-0.163s0.047-0.149,0.059-0.259c0.012-0.108,0.018-0.251,0.018-0.427v-4.083
			c0-0.313-0.003-0.53-0.008-0.654s-0.018-0.229-0.039-0.315c-0.021-0.086-0.051-0.154-0.088-0.203
			c-0.037-0.048-0.088-0.087-0.151-0.117s-0.178-0.059-0.344-0.088V24.04l1.177-0.049h0.292V28.255z"/>
	</g>
	<g>
		<path fill="#010101" d="M188.911,33.604h-1.111l0.047-0.139c0.08-0.022,0.14-0.042,0.178-0.059
			c0.037-0.017,0.072-0.041,0.104-0.07c0.031-0.031,0.064-0.077,0.098-0.141c0.033-0.063,0.071-0.158,0.113-0.286l0.247-0.739
			c0.044-0.131,0.079-0.251,0.107-0.357c0.028-0.107,0.046-0.195,0.05-0.264c0.005-0.069,0.002-0.123-0.011-0.161
			s-0.032-0.071-0.058-0.099s-0.059-0.049-0.098-0.064c-0.041-0.016-0.097-0.024-0.17-0.024s-0.148,0.015-0.224,0.044
			c-0.076,0.029-0.165,0.079-0.269,0.15c-0.103,0.071-0.183,0.142-0.242,0.212c-0.059,0.069-0.104,0.149-0.133,0.239l-0.352,1.053
			c-0.054,0.161-0.084,0.274-0.09,0.337c-0.006,0.063,0.007,0.11,0.038,0.144c0.032,0.032,0.092,0.062,0.179,0.086l-0.046,0.139
			h-1.106l0.047-0.139c0.08-0.022,0.14-0.042,0.177-0.059c0.036-0.017,0.07-0.041,0.103-0.07c0.031-0.031,0.063-0.076,0.097-0.139
			c0.032-0.062,0.07-0.159,0.114-0.291l0.41-1.229c0.04-0.12,0.07-0.217,0.092-0.29c0.021-0.073,0.027-0.133,0.02-0.177
			s-0.031-0.077-0.07-0.099s-0.099-0.04-0.178-0.055l0.05-0.15l0.669-0.024h0.172l-0.185,0.459l0.036,0.012
			c0.186-0.142,0.331-0.241,0.438-0.302c0.105-0.06,0.207-0.107,0.307-0.14c0.098-0.033,0.195-0.049,0.293-0.049
			c0.102,0,0.189,0.011,0.261,0.035c0.073,0.023,0.131,0.06,0.176,0.108c0.046,0.049,0.075,0.109,0.091,0.182
			s0.016,0.159,0.002,0.261s-0.048,0.23-0.1,0.387l-0.354,1.063c-0.043,0.13-0.07,0.224-0.083,0.281
			c-0.012,0.059-0.014,0.104-0.005,0.136c0.008,0.032,0.026,0.06,0.055,0.08c0.028,0.022,0.083,0.045,0.163,0.069L188.911,33.604z"
			/>
	</g>
	<g>
		<path fill="#010101" d="M175.969,30.778c0.141-0.038,0.241-0.073,0.305-0.103c0.063-0.028,0.123-0.069,0.178-0.121
			s0.11-0.133,0.167-0.239c0.058-0.107,0.124-0.275,0.2-0.503l0.709-2.127c0.07-0.208,0.122-0.376,0.158-0.502
			c0.035-0.127,0.047-0.229,0.033-0.306c-0.014-0.076-0.054-0.133-0.122-0.17c-0.067-0.037-0.169-0.068-0.307-0.095l0.086-0.259
			l1.151-0.043h0.298l-1.163,3.488c-0.094,0.279-0.146,0.474-0.155,0.583c-0.01,0.108,0.012,0.192,0.065,0.249
			c0.055,0.057,0.158,0.106,0.31,0.148l-0.079,0.239h-1.914L175.969,30.778z M179.478,24.441l-0.315,0.946h-0.897l0.315-0.946
			H179.478z"/>
	</g>
</g>
</svg>
