<?xml version="1.0" encoding="utf-8"?>
<!-- Generator: Adobe Illustrator 15.1.0, SVG Export Plug-In . SVG Version: 6.00 Build 0)  -->
<!DOCTYPE svg PUBLIC "-//W3C//DTD SVG 1.1//EN" "http://www.w3.org/Graphics/SVG/1.1/DTD/svg11.dtd">
<svg version="1.1" id="Layer_1" xmlns="http://www.w3.org/2000/svg" xmlns:xlink="http://www.w3.org/1999/xlink" x="0px" y="0px"
	 width="604.199px" height="208.853px" viewBox="0 0 604.199 208.853" enable-background="new 0 0 604.199 208.853"
	 xml:space="preserve">
<g>
	<path d="M109.039,51.844v2.818h2.71v0.72h-2.71v2.842h-0.768v-2.842h-2.711v-0.72h2.711v-2.818H109.039z"/>
</g>
<g>
	<g>
		<g>
			
				<line fill="none" stroke="#000000" stroke-width="0.5" stroke-miterlimit="10" x1="216.4" y1="54.808" x2="195.259" y2="54.808"/>
			<g>
				<path d="M196.158,54.808l1.096,1.801l-0.063,0.041l-2.938-1.167c-1.023-0.225-2.047-0.45-3.07-0.675
					c1.023-0.225,2.047-0.45,3.07-0.675l2.938-1.167l0.063,0.031L196.158,54.808z"/>
			</g>
		</g>
	</g>
	
		<line fill="none" stroke="#000000" stroke-width="0.5" stroke-miterlimit="10" x1="195.259" y1="54.808" x2="174.119" y2="54.808"/>
</g>
<line fill="none" stroke="#000000" stroke-width="0.5" stroke-miterlimit="10" stroke-dasharray="2,1" x1="216.4" y1="54.808" x2="216.4" y2="18.918"/>
<circle fill="#FFFFFF" stroke="#000000" stroke-width="0.5" stroke-miterlimit="10" cx="213.564" cy="18.918" r="2.836"/>
<circle fill="#FFFFFF" stroke="#000000" stroke-width="0.5" stroke-miterlimit="10" cx="219.237" cy="18.918" r="2.837"/>
<circle fill="#FFFFFF" stroke="#000000" stroke-width="0.5" stroke-miterlimit="10" cx="219.237" cy="54.808" r="2.836"/>
<g>
	<g>
		<g>
			
				<line fill="none" stroke="#000000" stroke-width="0.5" stroke-linecap="round" stroke-miterlimit="10" x1="343.225" y1="54.808" x2="321.49" y2="54.808"/>
			<g>
				<path d="M322.387,54.808l1.096,1.801l-0.061,0.041l-2.938-1.167c-1.023-0.225-2.047-0.45-3.07-0.675
					c1.023-0.225,2.047-0.45,3.07-0.675l2.938-1.167l0.061,0.031L322.387,54.808z"/>
			</g>
		</g>
	</g>
	
		<line fill="none" stroke="#000000" stroke-width="0.5" stroke-linecap="round" stroke-miterlimit="10" x1="321.49" y1="54.808" x2="299.756" y2="54.808"/>
</g>
<g>
	<g>
		<path fill="none" stroke="#000000" stroke-width="0.5" stroke-linecap="round" stroke-miterlimit="10" d="M346.694,18.252
			c3.438-1.377,5.865-4.739,5.865-8.668c0-5.155-4.18-9.334-9.334-9.334c-5.156,0-9.334,4.179-9.334,9.334s4.178,9.334,9.334,9.334"
			/>
		<g>
			<polygon points="343.226,18.918 348.519,19.844 346.933,18.109 347.653,15.873 			"/>
		</g>
	</g>
</g>
<line fill="none" stroke="#000000" stroke-width="0.5" stroke-linecap="round" stroke-miterlimit="10" stroke-dasharray="2,1" x1="343.226" y1="54.808" x2="343.226" y2="18.918"/>
<circle fill="#FFFFFF" stroke="#000000" stroke-width="0.5" stroke-miterlimit="10" cx="346.062" cy="54.808" r="2.836"/>
<g>
	<path d="M241.981,51.844v2.818h2.71v0.72h-2.71v2.842h-0.768v-2.842h-2.711v-0.72h2.711v-2.818H241.981z"/>
</g>
<g>
	<path d="M389.173,51.594v2.818h2.71v0.72h-2.71v2.842h-0.768v-2.842h-2.711v-0.72h2.711v-2.818H389.173z"/>
</g>
<g>
	<path d="M529.005,51.855v2.818h2.711v0.72h-2.711v2.842h-0.768v-2.842h-2.711v-0.72h2.711v-2.818H529.005z"/>
	<path d="M561.671,57.612c0-0.432,0.3-0.756,0.72-0.756s0.708,0.312,0.708,0.756c0,0.432-0.288,0.755-0.732,0.755
		C561.959,58.368,561.671,58.044,561.671,57.612z"/>
	<path d="M564.155,57.612c0-0.432,0.299-0.756,0.719-0.756s0.708,0.312,0.708,0.756c0,0.432-0.288,0.755-0.731,0.755
		C564.442,58.368,564.155,58.044,564.155,57.612z"/>
	<path d="M566.639,57.612c0-0.432,0.3-0.756,0.72-0.756s0.707,0.312,0.707,0.756c0,0.432-0.287,0.755-0.73,0.755
		C566.927,58.368,566.639,58.044,566.639,57.612z"/>
	<path d="M597.526,54.194v-0.719h6.189v0.719H597.526z M597.526,56.545v-0.72h6.189v0.72H597.526z"/>
</g>
<g>
	<g>
		<g>
			
				<line fill="none" stroke="#000000" stroke-width="0.5" stroke-linecap="round" stroke-miterlimit="10" x1="493.982" y1="54.801" x2="472.248" y2="54.801"/>
			<g>
				<path d="M473.146,54.801l1.096,1.801l-0.062,0.041l-2.938-1.167c-1.023-0.225-2.047-0.45-3.07-0.675
					c1.023-0.225,2.047-0.45,3.07-0.675l2.938-1.167l0.062,0.031L473.146,54.801z"/>
			</g>
		</g>
	</g>
	
		<line fill="none" stroke="#000000" stroke-width="0.5" stroke-linecap="round" stroke-miterlimit="10" x1="472.248" y1="54.801" x2="450.514" y2="54.801"/>
</g>
<path fill="none" stroke="#000000" stroke-width="0.5" stroke-linecap="round" stroke-miterlimit="10" d="M493.982,19.029"/>
<path fill="none" stroke="#000000" stroke-width="0.5" stroke-linecap="round" stroke-miterlimit="10" d="M508.193,25.892
	c-1.534-1.99-3.513-3.688-5.885-4.931c-2.662-1.395-5.516-2.055-8.326-2.053"/>
<g>
	<g>
		<path fill="none" stroke="#000000" stroke-width="0.5" stroke-linecap="round" stroke-miterlimit="10" d="M498.038,54.345
			c7.959-1.838,13.893-8.97,13.893-17.488c0-4.957-2.009-9.443-5.257-12.691"/>
		<g>
			<path d="M498.909,54.125l0.84-1.934l-0.066-0.032l-2.751,1.557c-0.983,0.363-1.966,0.726-2.949,1.088
				c1.045,0.083,2.089,0.167,3.134,0.25l3.069,0.754l0.057-0.039L498.909,54.125z"/>
		</g>
	</g>
</g>
<line fill="none" stroke="#000000" stroke-width="0.5" stroke-linecap="round" stroke-miterlimit="10" stroke-dasharray="2,1" x1="493.982" y1="54.801" x2="493.982" y2="19.029"/>
<circle fill="#FFFFFF" stroke="#000000" stroke-width="0.5" stroke-miterlimit="10" cx="491.146" cy="19.029" r="2.836"/>
<g>
	<g>
		<g>
			
				<line fill="none" stroke="#000000" stroke-width="0.5" stroke-linecap="round" stroke-miterlimit="10" x1="493.982" y1="90.697" x2="472.248" y2="90.697"/>
			<g>
				<path d="M473.146,90.697l1.096,1.802l-0.062,0.041l-2.938-1.167c-1.023-0.226-2.047-0.45-3.07-0.676
					c1.023-0.225,2.047-0.45,3.07-0.676l2.938-1.167l0.062,0.031L473.146,90.697z"/>
			</g>
		</g>
	</g>
	
		<line fill="none" stroke="#000000" stroke-width="0.5" stroke-linecap="round" stroke-miterlimit="10" x1="472.248" y1="90.697" x2="450.514" y2="90.697"/>
</g>
<line fill="none" stroke="#000000" stroke-width="0.5" stroke-linecap="round" stroke-miterlimit="10" stroke-dasharray="2,1" x1="450.514" y1="90.697" x2="450.514" y2="54.808"/>
<g>
	<g>
		<g>
			
				<line fill="none" stroke="#000000" stroke-width="0.5" stroke-linecap="round" stroke-miterlimit="10" x1="450.514" y1="90.697" x2="428.779" y2="90.697"/>
			<g>
				<path d="M429.677,90.697l1.096,1.802l-0.062,0.041l-2.938-1.167c-1.023-0.226-2.047-0.45-3.07-0.676
					c1.023-0.225,2.047-0.45,3.07-0.676l2.938-1.167l0.062,0.031L429.677,90.697z"/>
			</g>
		</g>
	</g>
	
		<line fill="none" stroke="#000000" stroke-width="0.5" stroke-linecap="round" stroke-miterlimit="10" x1="428.779" y1="90.697" x2="407.045" y2="90.697"/>
</g>
<circle fill="#FFFFFF" stroke="#000000" stroke-width="0.5" stroke-miterlimit="10" cx="447.678" cy="54.808" r="2.836"/>
<g>
	<g>
		<g>
			
				<line fill="none" stroke="#000000" stroke-width="0.5" stroke-linecap="round" stroke-miterlimit="10" x1="217.462" y1="90.697" x2="195.728" y2="90.697"/>
			<g>
				<path d="M196.626,90.697l1.096,1.802l-0.063,0.041l-2.938-1.167c-1.023-0.226-2.047-0.45-3.07-0.676
					c1.023-0.226,2.047-0.45,3.07-0.676l2.938-1.167l0.063,0.031L196.626,90.697z"/>
			</g>
		</g>
	</g>
	
		<line fill="none" stroke="#000000" stroke-width="0.5" stroke-linecap="round" stroke-miterlimit="10" x1="195.728" y1="90.697" x2="173.994" y2="90.697"/>
</g>
<line fill="none" stroke="#000000" stroke-width="0.5" stroke-linecap="round" stroke-miterlimit="10" stroke-dasharray="2,1" x1="173.994" y1="90.697" x2="173.994" y2="54.808"/>
<g>
	<g>
		<g>
			
				<line fill="none" stroke="#000000" stroke-width="0.5" stroke-linecap="round" stroke-miterlimit="10" x1="173.994" y1="90.697" x2="152.26" y2="90.697"/>
			<g>
				<path d="M153.158,90.697l1.095,1.802l-0.063,0.041l-2.937-1.167c-1.023-0.226-2.047-0.45-3.07-0.676
					c1.023-0.226,2.047-0.45,3.07-0.676l2.937-1.167l0.063,0.031L153.158,90.697z"/>
			</g>
		</g>
	</g>
	
		<line fill="none" stroke="#000000" stroke-width="0.5" stroke-linecap="round" stroke-miterlimit="10" x1="152.26" y1="90.697" x2="130.525" y2="90.697"/>
</g>
<circle fill="#FFFFFF" stroke="#000000" stroke-width="0.5" stroke-miterlimit="10" cx="171.158" cy="54.808" r="2.836"/>
<g>
	<g>
		<g>
			<g>
				<line fill="none" stroke="#000000" stroke-width="0.5" stroke-miterlimit="10" x1="86" y1="38.485" x2="64.859" y2="38.485"/>
				<g>
					<path d="M65.756,38.485l1.096,1.802l-0.062,0.041l-2.938-1.167c-1.023-0.226-2.047-0.45-3.07-0.676
						c1.023-0.225,2.047-0.45,3.07-0.676l2.938-1.167l0.062,0.031L65.756,38.485z"/>
				</g>
			</g>
		</g>
		<line fill="none" stroke="#000000" stroke-width="0.5" stroke-miterlimit="10" x1="64.859" y1="38.485" x2="43.718" y2="38.485"/>
	</g>
	<circle fill="#FFFFFF" stroke="#000000" stroke-width="0.5" stroke-miterlimit="10" cx="88.836" cy="38.485" r="2.836"/>
	<polygon fill="#FFFFFF" stroke="#000000" stroke-width="0.5" stroke-miterlimit="10" points="90.994,41.322 93.191,35.109 
		95.388,41.322 	"/>
</g>
<g>
	<g>
		<g>
			
				<line fill="none" stroke="#000000" stroke-width="0.5" stroke-linecap="round" stroke-miterlimit="10" x1="87.187" y1="74.507" x2="65.452" y2="74.507"/>
			<g>
				<path d="M66.35,74.507l1.096,1.802l-0.062,0.041l-2.938-1.167c-1.023-0.226-2.047-0.45-3.07-0.676
					c1.023-0.225,2.047-0.45,3.07-0.676l2.938-1.167l0.062,0.031L66.35,74.507z"/>
			</g>
		</g>
	</g>
	
		<line fill="none" stroke="#000000" stroke-width="0.5" stroke-linecap="round" stroke-miterlimit="10" x1="65.452" y1="74.507" x2="43.718" y2="74.507"/>
</g>
<line fill="none" stroke="#000000" stroke-width="0.5" stroke-linecap="round" stroke-miterlimit="10" stroke-dasharray="2,1" x1="43.718" y1="74.507" x2="43.718" y2="38.617"/>
<g>
	<g>
		<g>
			
				<line fill="none" stroke="#000000" stroke-width="0.5" stroke-linecap="round" stroke-miterlimit="10" x1="43.718" y1="74.507" x2="21.983" y2="74.507"/>
			<g>
				<path d="M22.881,74.507l1.096,1.802l-0.062,0.041l-2.938-1.167c-1.023-0.226-2.047-0.45-3.07-0.676
					c1.023-0.225,2.047-0.45,3.07-0.676l2.938-1.167l0.062,0.031L22.881,74.507z"/>
			</g>
		</g>
	</g>
	
		<line fill="none" stroke="#000000" stroke-width="0.5" stroke-linecap="round" stroke-miterlimit="10" x1="21.983" y1="74.507" x2="0.25" y2="74.507"/>
</g>
<circle fill="#FFFFFF" stroke="#000000" stroke-width="0.5" stroke-miterlimit="10" cx="40.882" cy="38.485" r="2.836"/>
<g>
	<g>
		<g>
			
				<line fill="none" stroke="#000000" stroke-width="0.5" stroke-linecap="round" stroke-miterlimit="10" x1="343.225" y1="90.697" x2="321.49" y2="90.697"/>
			<g>
				<path d="M322.388,90.697l1.096,1.802l-0.062,0.041l-2.938-1.167c-1.023-0.226-2.047-0.45-3.07-0.676
					c1.023-0.225,2.047-0.45,3.07-0.676l2.938-1.167l0.062,0.031L322.388,90.697z"/>
			</g>
		</g>
	</g>
	
		<line fill="none" stroke="#000000" stroke-width="0.5" stroke-linecap="round" stroke-miterlimit="10" x1="321.49" y1="90.697" x2="299.756" y2="90.697"/>
</g>
<line fill="none" stroke="#000000" stroke-width="0.5" stroke-linecap="round" stroke-miterlimit="10" stroke-dasharray="2,1" x1="299.756" y1="90.697" x2="299.756" y2="54.808"/>
<g>
	<g>
		<g>
			
				<line fill="none" stroke="#000000" stroke-width="0.5" stroke-linecap="round" stroke-miterlimit="10" x1="299.756" y1="90.697" x2="278.021" y2="90.697"/>
			<g>
				<path d="M278.919,90.697l1.096,1.802l-0.062,0.041l-2.938-1.167c-1.023-0.226-2.047-0.45-3.07-0.676
					c1.023-0.225,2.047-0.45,3.07-0.676l2.938-1.167l0.062,0.031L278.919,90.697z"/>
			</g>
		</g>
	</g>
	
		<line fill="none" stroke="#000000" stroke-width="0.5" stroke-linecap="round" stroke-miterlimit="10" x1="278.021" y1="90.697" x2="256.287" y2="90.697"/>
</g>
<circle fill="#FFFFFF" stroke="#000000" stroke-width="0.5" stroke-miterlimit="10" cx="296.92" cy="54.808" r="2.836"/>
<g>
	<path d="M399.815,167.576v2.818h2.711v0.72h-2.711v2.842h-0.768v-2.842h-2.711v-0.72h2.711v-2.818H399.815z"/>
</g>
<g>
	<g>
		<g>
			
				<line fill="none" stroke="#000000" stroke-width="0.5" stroke-miterlimit="10" x1="257.209" y1="188.663" x2="236.068" y2="188.663"/>
			<g>
				<path d="M236.966,188.663l1.096,1.802L238,190.506l-2.938-1.167c-1.023-0.226-2.047-0.45-3.07-0.676
					c1.023-0.226,2.047-0.45,3.07-0.676L238,186.82l0.062,0.031L236.966,188.663z"/>
			</g>
		</g>
	</g>
	
		<line fill="none" stroke="#000000" stroke-width="0.5" stroke-miterlimit="10" x1="236.068" y1="188.663" x2="214.928" y2="188.663"/>
</g>
<line fill="none" stroke="#000000" stroke-width="0.5" stroke-miterlimit="10" stroke-dasharray="2,1" x1="257.209" y1="188.663" x2="257.209" y2="152.773"/>
<circle fill="#FFFFFF" stroke="#000000" stroke-width="0.5" stroke-miterlimit="10" cx="254.373" cy="152.773" r="2.836"/>
<circle fill="#FFFFFF" stroke="#000000" stroke-width="0.5" stroke-miterlimit="10" cx="260.046" cy="152.773" r="2.837"/>
<circle fill="#FFFFFF" stroke="#000000" stroke-width="0.5" stroke-miterlimit="10" cx="260.047" cy="188.663" r="2.837"/>
<g>
	<g>
		<g>
			
				<line fill="none" stroke="#000000" stroke-width="0.5" stroke-linecap="round" stroke-miterlimit="10" x1="363.922" y1="188.663" x2="342.188" y2="188.663"/>
			<g>
				<path d="M343.084,188.663l1.096,1.802l-0.061,0.041l-2.938-1.167c-1.023-0.226-2.047-0.45-3.07-0.676
					c1.023-0.226,2.047-0.45,3.07-0.676l2.938-1.167l0.061,0.031L343.084,188.663z"/>
			</g>
		</g>
	</g>
	
		<line fill="none" stroke="#000000" stroke-width="0.5" stroke-linecap="round" stroke-miterlimit="10" x1="342.188" y1="188.663" x2="320.452" y2="188.663"/>
</g>
<g>
	<g>
		<path fill="none" stroke="#000000" stroke-width="0.5" stroke-linecap="round" stroke-miterlimit="10" d="M367.393,152.107
			c3.436-1.377,5.863-4.739,5.863-8.668c0-5.155-4.18-9.334-9.334-9.334c-5.156,0-9.334,4.179-9.334,9.334s4.178,9.334,9.334,9.334"
			/>
		<g>
			<polygon points="363.922,152.773 369.217,153.699 367.629,151.965 368.35,149.728 			"/>
		</g>
	</g>
</g>
<line fill="none" stroke="#000000" stroke-width="0.5" stroke-linecap="round" stroke-miterlimit="10" stroke-dasharray="2,1" x1="363.922" y1="188.663" x2="363.922" y2="152.773"/>
<circle fill="#FFFFFF" stroke="#000000" stroke-width="0.5" stroke-miterlimit="10" cx="366.758" cy="188.545" r="2.836"/>
<g>
	<path d="M187.772,166.849v2.818h2.71v0.72h-2.71v2.843h-0.768v-2.843h-2.711v-0.72h2.711v-2.818H187.772z"/>
</g>
<g>
	<path d="M292.481,167.576v2.818h2.711v0.72h-2.711v2.842h-0.768v-2.842h-2.711v-0.72h2.711v-2.818H292.481z"/>
</g>
<g>
	<path d="M507.796,167.576v2.818h2.711v0.72h-2.711v2.842h-0.768v-2.842h-2.711v-0.72h2.711v-2.818H507.796z"/>
	<path d="M540.462,173.333c0-0.432,0.3-0.756,0.72-0.756s0.708,0.313,0.708,0.756c0,0.432-0.288,0.756-0.732,0.756
		C540.75,174.089,540.462,173.765,540.462,173.333z"/>
	<path d="M542.946,173.333c0-0.432,0.299-0.756,0.719-0.756s0.708,0.313,0.708,0.756c0,0.432-0.288,0.756-0.731,0.756
		C543.233,174.089,542.946,173.765,542.946,173.333z"/>
	<path d="M545.43,173.333c0-0.432,0.3-0.756,0.72-0.756s0.707,0.313,0.707,0.756c0,0.432-0.287,0.756-0.73,0.756
		C545.718,174.089,545.43,173.765,545.43,173.333z"/>
</g>
<g>
	<g>
		<g>
			
				<line fill="none" stroke="#000000" stroke-width="0.5" stroke-linecap="round" stroke-miterlimit="10" x1="463.599" y1="188.545" x2="441.864" y2="188.545"/>
			<g>
				<path d="M442.762,188.545l1.096,1.802l-0.062,0.04l-2.938-1.166c-1.023-0.226-2.047-0.45-3.07-0.676
					c1.023-0.225,2.047-0.45,3.07-0.676l2.938-1.166l0.062,0.03L442.762,188.545z"/>
			</g>
		</g>
	</g>
	
		<line fill="none" stroke="#000000" stroke-width="0.5" stroke-linecap="round" stroke-miterlimit="10" x1="441.864" y1="188.545" x2="420.13" y2="188.545"/>
</g>
<path fill="none" stroke="#000000" stroke-width="0.5" stroke-linecap="round" stroke-miterlimit="10" d="M463.599,152.773"/>
<path fill="none" stroke="#000000" stroke-width="0.5" stroke-linecap="round" stroke-miterlimit="10" d="M477.81,159.636
	c-1.534-1.99-3.513-3.688-5.885-4.931c-2.662-1.395-5.516-2.055-8.326-2.053"/>
<g>
	<g>
		<path fill="none" stroke="#000000" stroke-width="0.5" stroke-linecap="round" stroke-miterlimit="10" d="M467.654,188.089
			c7.959-1.839,13.893-8.97,13.893-17.488c0-4.957-2.009-9.443-5.257-12.691"/>
		<g>
			<path d="M468.525,187.869l0.84-1.934l-0.066-0.032l-2.751,1.558c-0.983,0.362-1.966,0.725-2.949,1.088
				c1.045,0.083,2.089,0.166,3.134,0.25l3.069,0.754l0.057-0.038L468.525,187.869z"/>
		</g>
	</g>
</g>
<line fill="none" stroke="#000000" stroke-width="0.5" stroke-linecap="round" stroke-miterlimit="10" stroke-dasharray="2,1" x1="463.599" y1="188.545" x2="463.599" y2="152.773"/>
<circle fill="#FFFFFF" stroke="#000000" stroke-width="0.5" stroke-miterlimit="10" cx="460.763" cy="152.652" r="2.836"/>
<g>
	<g>
		<g>
			<g>
				
					<line fill="none" stroke="#000000" stroke-width="0.5" stroke-miterlimit="10" x1="155.777" y1="170.988" x2="134.637" y2="170.988"/>
				<g>
					<path d="M135.534,170.988l1.096,1.802l-0.062,0.041l-2.938-1.167c-1.023-0.226-2.047-0.45-3.07-0.676
						c1.023-0.226,2.047-0.45,3.07-0.676l2.938-1.167l0.062,0.031L135.534,170.988z"/>
				</g>
			</g>
		</g>
		
			<line fill="none" stroke="#000000" stroke-width="0.5" stroke-miterlimit="10" x1="134.637" y1="170.988" x2="113.496" y2="170.988"/>
	</g>
	<circle fill="#FFFFFF" stroke="#000000" stroke-width="0.5" stroke-miterlimit="10" cx="158.614" cy="170.988" r="2.836"/>
	<polygon fill="#FFFFFF" stroke="#000000" stroke-width="0.5" stroke-miterlimit="10" points="160.771,173.825 162.969,167.612 
		165.166,173.825 	"/>
</g>
<g>
	<g>
		<g>
			
				<line fill="none" stroke="#000000" stroke-width="0.5" stroke-linecap="round" stroke-miterlimit="10" x1="121.478" y1="207.01" x2="99.743" y2="207.01"/>
			<g>
				<path d="M100.641,207.01l1.096,1.802l-0.062,0.041l-2.938-1.167c-1.023-0.226-2.047-0.45-3.07-0.676
					c1.023-0.226,2.047-0.45,3.07-0.676l2.938-1.167l0.062,0.031L100.641,207.01z"/>
			</g>
		</g>
	</g>
	
		<line fill="none" stroke="#000000" stroke-width="0.5" stroke-linecap="round" stroke-miterlimit="10" x1="99.743" y1="207.01" x2="78.009" y2="207.01"/>
</g>
<line fill="none" stroke="#000000" stroke-width="0.5" stroke-linecap="round" stroke-miterlimit="10" stroke-dasharray="2,1" x1="78.009" y1="207.01" x2="78.009" y2="171.12"/>
<g>
	<g>
		<g>
			
				<line fill="none" stroke="#000000" stroke-width="0.5" stroke-linecap="round" stroke-miterlimit="10" x1="78.009" y1="207.01" x2="56.274" y2="207.01"/>
			<g>
				<path d="M57.172,207.01l1.096,1.802l-0.062,0.041l-2.938-1.167c-1.023-0.226-2.047-0.45-3.07-0.676
					c1.023-0.226,2.047-0.45,3.07-0.676l2.938-1.167l0.062,0.031L57.172,207.01z"/>
			</g>
		</g>
	</g>
	
		<line fill="none" stroke="#000000" stroke-width="0.5" stroke-linecap="round" stroke-miterlimit="10" x1="56.274" y1="207.01" x2="34.541" y2="207.01"/>
</g>
<circle fill="#FFFFFF" stroke="#000000" stroke-width="0.5" stroke-miterlimit="10" cx="75.173" cy="171.12" r="2.836"/>
<g>
	<path fill="#010101" d="M105.231,198.303c-0.094,0.111-0.204,0.168-0.329,0.168c-0.219,0-0.36-0.038-0.422-0.112
		c-1.784-1.643-3.31-3.519-4.578-5.627c-1.268-2.109-2.309-4.367-3.123-6.774c-0.814-2.407-1.417-4.927-1.808-7.558
		c-0.392-2.632-0.587-5.271-0.587-7.923c0-2.649,0.195-5.29,0.587-7.922c0.391-2.631,0.993-5.15,1.808-7.558
		c0.813-2.408,1.854-4.666,3.123-6.774c1.268-2.108,2.793-3.984,4.578-5.627c0.062-0.074,0.203-0.112,0.422-0.112
		c0.125,0,0.235,0.057,0.329,0.168c0.063,0.149,0.094,0.28,0.094,0.393c0,0.149-0.047,0.279-0.141,0.392
		c-1.502,1.68-2.77,3.564-3.803,5.654c-1.033,2.091-1.871,4.303-2.512,6.635c-0.642,2.333-1.096,4.75-1.361,7.25
		c-0.267,2.501-0.399,5.002-0.399,7.502c0,2.539,0.133,5.049,0.399,7.53c0.265,2.483,0.719,4.891,1.361,7.223
		c0.641,2.332,1.479,4.544,2.512,6.635c1.033,2.09,2.301,3.975,3.803,5.654c0.094,0.112,0.141,0.242,0.141,0.392
		C105.326,198.022,105.294,198.152,105.231,198.303z"/>
</g>
<g>
	<path fill="#010101" d="M572.28,178.399c-0.393,2.631-0.994,5.15-1.808,7.558c-0.814,2.407-1.855,4.665-3.123,6.774
		c-1.268,2.108-2.793,3.984-4.577,5.627c-0.126,0.074-0.22,0.112-0.282,0.112h-0.141c-0.125,0-0.234-0.057-0.328-0.168
		c-0.063-0.15-0.095-0.28-0.095-0.393c0-0.149,0.047-0.279,0.142-0.392c1.502-1.68,2.77-3.564,3.803-5.654
		c1.033-2.091,1.87-4.303,2.512-6.635s1.096-4.739,1.361-7.223c0.266-2.481,0.399-4.991,0.399-7.53c0-2.5-0.134-5.001-0.399-7.502
		c-0.266-2.5-0.72-4.917-1.361-7.25c-0.642-2.332-1.479-4.544-2.512-6.635c-1.033-2.09-2.301-3.975-3.803-5.654
		c-0.095-0.112-0.142-0.242-0.142-0.392c0-0.187,0.031-0.317,0.095-0.393c0.094-0.111,0.203-0.168,0.328-0.168h0.141
		c0.063,0,0.156,0.038,0.282,0.112c1.784,1.643,3.31,3.519,4.577,5.627s2.309,4.366,3.123,6.774
		c0.813,2.407,1.415,4.927,1.808,7.558c0.391,2.632,0.586,5.272,0.586,7.922C572.866,173.128,572.671,175.768,572.28,178.399z"/>
</g>
<g>
	<g>
		<path fill="#010101" d="M88.384,173.044c-0.444,0.445-0.981,0.666-1.611,0.666s-1.167-0.221-1.61-0.666
			c-0.444-0.443-0.666-0.98-0.666-1.609c0-0.63,0.222-1.166,0.666-1.611c0.443-0.443,0.98-0.665,1.61-0.665s1.167,0.222,1.611,0.665
			c0.443,0.445,0.666,0.981,0.666,1.611C89.05,172.063,88.827,172.601,88.384,173.044z"/>
	</g>
</g>
<g>
	<path d="M0.729,167.078v-0.72h6.189v0.72H0.729z M0.729,169.429v-0.72h6.189v0.72H0.729z"/>
</g>
</svg>
