<?xml version="1.0" encoding="utf-8"?>
<!-- Generator: Adobe Illustrator 15.1.0, SVG Export Plug-In . SVG Version: 6.00 Build 0)  -->
<!DOCTYPE svg PUBLIC "-//W3C//DTD SVG 1.1//EN" "http://www.w3.org/Graphics/SVG/1.1/DTD/svg11.dtd">
<svg version="1.1" id="Layer_1" xmlns="http://www.w3.org/2000/svg" xmlns:xlink="http://www.w3.org/1999/xlink" x="0px" y="0px"
	 width="83.391px" height="7.212px" viewBox="0 0 83.391 7.212" enable-background="new 0 0 83.391 7.212" xml:space="preserve">
<g>
	<g>
		<g>
			<line fill="none" stroke="#000000" stroke-width="0.5" stroke-miterlimit="10" x1="83.391" y1="4.126" x2="62.25" y2="4.126"/>
			<g>
				<path d="M63.147,4.126l1.096,1.802l-0.062,0.04l-2.938-1.166c-1.023-0.226-2.047-0.45-3.07-0.676
					c1.023-0.225,2.047-0.45,3.07-0.676l2.938-1.167l0.062,0.031L63.147,4.126z"/>
			</g>
		</g>
	</g>
	<line fill="none" stroke="#000000" stroke-width="0.5" stroke-miterlimit="10" x1="62.25" y1="4.126" x2="41.109" y2="4.126"/>
</g>
<g>
	<g>
		<g>
			<line fill="none" stroke="#000000" stroke-width="0.5" stroke-miterlimit="10" x1="42.281" y1="4.126" x2="21.141" y2="4.126"/>
			<g>
				<path d="M22.038,4.126l1.096,1.802l-0.062,0.04l-2.938-1.166c-1.023-0.226-2.047-0.45-3.07-0.676
					c1.023-0.225,2.047-0.45,3.07-0.676l2.938-1.167l0.062,0.031L22.038,4.126z"/>
			</g>
		</g>
	</g>
	<line fill="none" stroke="#000000" stroke-width="0.5" stroke-miterlimit="10" x1="21.141" y1="4.126" x2="0" y2="4.126"/>
</g>
<polygon fill="#FFFFFF" stroke="#000000" stroke-width="0.5" stroke-miterlimit="10" points="38.912,6.962 41.109,0.75 
	43.307,6.962 "/>
</svg>
