<?xml version="1.0" encoding="utf-8"?>
<!-- Generator: Adobe Illustrator 15.1.0, SVG Export Plug-In . SVG Version: 6.00 Build 0)  -->
<!DOCTYPE svg PUBLIC "-//W3C//DTD SVG 1.1//EN" "http://www.w3.org/Graphics/SVG/1.1/DTD/svg11.dtd">
<svg version="1.1" id="Layer_1" xmlns="http://www.w3.org/2000/svg" xmlns:xlink="http://www.w3.org/1999/xlink" x="0px" y="0px"
	 width="203.21px" height="69.405px" viewBox="0 0 203.21 69.405" enable-background="new 0 0 203.21 69.405" xml:space="preserve">
<g>
	<g>
		<path fill="#010101" d="M49.124,58.23H43.65v-0.198l2.807-3.366l-2.807-3.522v-0.193h5.308l0.166,1.815h-0.22
			c-0.054-0.494-0.19-0.847-0.41-1.058c-0.221-0.211-0.538-0.317-0.953-0.317H45.04l2.292,2.883l-2.582,3.108h2.845
			c0.476,0,0.833-0.089,1.07-0.268c0.238-0.18,0.436-0.516,0.594-1.01l0.198,0.043L49.124,58.23z"/>
	</g>
	<g>
		<path fill="#010101" d="M42.804,55.636c-0.044,0.044-0.095,0.066-0.154,0.066h-6.254c-0.059,0-0.11-0.022-0.154-0.066
			s-0.066-0.095-0.066-0.154c0-0.059,0.022-0.109,0.066-0.153s0.095-0.066,0.154-0.066h6.254c0.059,0,0.11,0.022,0.154,0.066
			s0.066,0.095,0.066,0.153C42.87,55.541,42.848,55.592,42.804,55.636z"/>
	</g>
</g>
<rect x="31.039" y="42.495" fill="none" stroke="#000000" stroke-width="0.5" stroke-miterlimit="10" width="24.623" height="24.625"/>
<g>
	<g>
		<g>
			
				<line fill="none" stroke="#000000" stroke-width="0.5" stroke-miterlimit="10" x1="86.701" y1="54.808" x2="71.182" y2="54.808"/>
			<g>
				<path d="M72.079,54.808l1.096,1.802l-0.062,0.04l-2.938-1.166c-1.023-0.226-2.047-0.45-3.07-0.676
					c1.023-0.225,2.047-0.45,3.07-0.676l2.938-1.166l0.062,0.03L72.079,54.808z"/>
			</g>
		</g>
	</g>
	<line fill="none" stroke="#000000" stroke-width="0.5" stroke-miterlimit="10" x1="71.182" y1="54.808" x2="55.662" y2="54.808"/>
</g>
<g>
	<g>
		<g>
			<line fill="none" stroke="#000000" stroke-width="0.5" stroke-miterlimit="10" x1="31.039" y1="54.808" x2="15.52" y2="54.808"/>
			<g>
				<path d="M16.417,54.808l1.096,1.802l-0.062,0.04l-2.938-1.166c-1.023-0.226-2.047-0.45-3.07-0.676
					c1.023-0.225,2.047-0.45,3.07-0.676l2.938-1.166l0.062,0.03L16.417,54.808z"/>
			</g>
		</g>
	</g>
	<line fill="none" stroke="#000000" stroke-width="0.5" stroke-miterlimit="10" x1="15.52" y1="54.808" x2="0" y2="54.808"/>
</g>
<g>
	<path d="M98.606,54.188v-0.72h6.188v0.72H98.606z M98.606,56.539v-0.72h6.188v0.72H98.606z"/>
</g>
<g>
	<g>
		<g>
			
				<line fill="none" stroke="#000000" stroke-width="0.5" stroke-miterlimit="10" x1="203.21" y1="54.808" x2="181.476" y2="54.808"/>
			<g>
				<path d="M182.373,54.808l1.096,1.802l-0.062,0.041l-2.938-1.167c-1.023-0.226-2.047-0.45-3.07-0.676
					c1.023-0.225,2.047-0.45,3.07-0.676l2.938-1.167l0.062,0.031L182.373,54.808z"/>
			</g>
		</g>
	</g>
	
		<line fill="none" stroke="#000000" stroke-width="0.5" stroke-miterlimit="10" x1="181.476" y1="54.808" x2="159.741" y2="54.808"/>
</g>
<g>
	<g>
		<g>
			
				<line fill="none" stroke="#000000" stroke-width="0.5" stroke-miterlimit="10" x1="159.741" y1="54.808" x2="138.601" y2="54.808"/>
			<g>
				<path d="M139.498,54.808l1.096,1.802l-0.062,0.041l-2.938-1.167c-1.023-0.226-2.047-0.45-3.07-0.676
					c1.023-0.225,2.047-0.45,3.07-0.676l2.938-1.167l0.062,0.031L139.498,54.808z"/>
			</g>
		</g>
	</g>
	<line fill="none" stroke="#000000" stroke-width="0.5" stroke-miterlimit="10" x1="138.601" y1="54.808" x2="117.46" y2="54.808"/>
</g>
<line fill="none" stroke="#000000" stroke-width="0.5" stroke-miterlimit="10" stroke-dasharray="2,1" x1="159.741" y1="54.808" x2="159.741" y2="18.918"/>
<g>
	<g>
		<path fill="none" stroke="#000000" stroke-width="0.5" stroke-miterlimit="10" d="M163.211,18.252
			c3.437-1.377,5.864-4.739,5.864-8.668c0-5.155-4.18-9.334-9.334-9.334c-5.155,0-9.334,4.179-9.334,9.334s4.179,9.334,9.334,9.334"
			/>
		<g>
			<polygon points="159.741,18.918 165.035,19.844 163.448,18.109 164.169,15.873 			"/>
		</g>
	</g>
</g>
<g>
	<g>
		<path fill="#010101" d="M134.985,68.423v-0.236c0.369-0.122,0.654-0.311,0.856-0.566s0.304-0.527,0.304-0.813
			c0-0.068-0.017-0.125-0.049-0.172c-0.025-0.032-0.05-0.048-0.075-0.048c-0.039,0-0.125,0.035-0.257,0.106
			c-0.064,0.032-0.133,0.049-0.205,0.049c-0.175,0-0.314-0.052-0.418-0.155c-0.104-0.104-0.156-0.247-0.156-0.43
			c0-0.176,0.067-0.326,0.201-0.451c0.135-0.125,0.299-0.188,0.492-0.188c0.236,0,0.445,0.103,0.63,0.309
			c0.185,0.205,0.276,0.479,0.276,0.818c0,0.368-0.128,0.711-0.383,1.028C135.946,67.991,135.54,68.241,134.985,68.423z"/>
	</g>
	<g>
		<path fill="#010101" d="M150.918,67.146c0,0.072-0.005,0.145-0.013,0.215c-0.009,0.07-0.02,0.143-0.034,0.218l-0.352,1.748
			c-0.004,0.017-0.011,0.031-0.021,0.042c-0.009,0.012-0.024,0.021-0.047,0.03c-0.021,0.008-0.049,0.014-0.082,0.019
			c-0.033,0.004-0.075,0.006-0.128,0.006c-0.049,0-0.09-0.002-0.122-0.006c-0.032-0.005-0.058-0.011-0.075-0.019
			c-0.018-0.009-0.029-0.019-0.034-0.03c-0.005-0.011-0.007-0.025-0.005-0.042l0.346-1.729c0.015-0.064,0.024-0.127,0.029-0.187
			c0.005-0.061,0.008-0.113,0.008-0.159c0-0.126-0.026-0.229-0.081-0.306c-0.054-0.078-0.144-0.117-0.271-0.117
			c-0.109,0-0.222,0.031-0.337,0.095s-0.223,0.15-0.32,0.262c-0.099,0.11-0.187,0.242-0.265,0.395
			c-0.078,0.153-0.135,0.318-0.17,0.497l-0.248,1.25c-0.005,0.017-0.012,0.031-0.022,0.042c-0.01,0.012-0.025,0.021-0.047,0.03
			c-0.021,0.008-0.048,0.014-0.082,0.019c-0.034,0.004-0.076,0.006-0.126,0.006c-0.052,0-0.094-0.002-0.126-0.006
			c-0.032-0.005-0.057-0.011-0.074-0.019c-0.018-0.009-0.029-0.019-0.034-0.03c-0.006-0.011-0.006-0.025-0.002-0.042l0.563-2.803
			c0.002-0.015,0.007-0.028,0.017-0.041c0.01-0.012,0.023-0.022,0.044-0.03c0.02-0.009,0.044-0.015,0.074-0.018
			s0.065-0.005,0.107-0.005c0.044,0,0.079,0.002,0.107,0.005c0.027,0.003,0.05,0.009,0.065,0.018
			c0.016,0.008,0.025,0.019,0.029,0.03c0.004,0.013,0.005,0.026,0.003,0.041l-0.105,0.535c0.031-0.07,0.082-0.146,0.152-0.225
			c0.07-0.078,0.154-0.151,0.252-0.218s0.205-0.121,0.322-0.164c0.116-0.044,0.238-0.065,0.365-0.065
			c0.139,0,0.255,0.021,0.348,0.063c0.094,0.043,0.17,0.099,0.228,0.168s0.1,0.149,0.124,0.241
			C150.905,66.951,150.918,67.046,150.918,67.146z"/>
	</g>
	<g>
		<path fill="#010101" d="M139.38,66.458c-0.008,0.028-0.02,0.053-0.037,0.072c-0.019,0.02-0.045,0.036-0.081,0.051
			s-0.083,0.025-0.142,0.032c-0.06,0.007-0.132,0.011-0.218,0.011c-0.089,0-0.162-0.004-0.218-0.011
			c-0.055-0.007-0.098-0.018-0.129-0.032c-0.03-0.015-0.05-0.031-0.059-0.051s-0.01-0.044-0.003-0.072l0.961-4.832
			c0.003-0.025,0.015-0.048,0.032-0.07s0.045-0.039,0.08-0.054c0.036-0.014,0.084-0.025,0.143-0.032
			c0.059-0.007,0.133-0.011,0.223-0.011c0.086,0,0.156,0.004,0.212,0.011c0.056,0.007,0.099,0.018,0.129,0.032
			c0.03,0.015,0.05,0.032,0.059,0.054c0.01,0.021,0.012,0.045,0.009,0.07L139.38,66.458z M140.77,60
			c-0.018,0.1-0.042,0.184-0.072,0.252c-0.03,0.068-0.07,0.123-0.12,0.164c-0.051,0.041-0.113,0.071-0.188,0.088
			c-0.075,0.018-0.166,0.027-0.273,0.027c-0.104,0-0.19-0.009-0.258-0.027c-0.067-0.018-0.118-0.047-0.15-0.088
			s-0.05-0.096-0.054-0.164c-0.004-0.068,0.004-0.152,0.021-0.252c0.021-0.1,0.049-0.184,0.08-0.25
			c0.033-0.066,0.073-0.122,0.121-0.166c0.049-0.045,0.11-0.075,0.186-0.091s0.166-0.024,0.273-0.024
			c0.104,0,0.188,0.008,0.255,0.024s0.116,0.046,0.15,0.091c0.034,0.044,0.053,0.1,0.057,0.166C140.8,59.816,140.791,59.9,140.77,60
			z"/>
	</g>
	<g>
		<path fill="#010101" d="M146.425,61.715l0.064-0.192c0.605,0,1.064,0.103,1.379,0.308c0.314,0.206,0.513,0.537,0.595,0.993
			c0.082,0.456,0.033,0.957-0.148,1.501c-0.154,0.462-0.386,0.884-0.695,1.267c-0.311,0.383-0.656,0.672-1.038,0.867
			c-0.382,0.194-0.716,0.293-1.002,0.293c-0.314,0-0.554-0.09-0.716-0.269s-0.269-0.457-0.318-0.832
			c-0.323,0.379-0.639,0.657-0.945,0.835c-0.309,0.177-0.616,0.266-0.924,0.266c-0.269,0-0.52-0.097-0.755-0.287
			c-0.235-0.192-0.377-0.487-0.427-0.886c-0.05-0.399,0.004-0.832,0.159-1.297c0.168-0.505,0.423-0.964,0.765-1.379
			c0.266-0.322,0.555-0.588,0.87-0.8c0.315-0.211,0.626-0.361,0.931-0.448c0.305-0.088,0.67-0.131,1.096-0.131l-0.064,0.192
			c-0.514,0.051-1.003,0.287-1.467,0.706c-0.464,0.421-0.832,1.04-1.104,1.855c-0.27,0.806-0.342,1.396-0.22,1.772
			c0.074,0.225,0.248,0.338,0.52,0.338c0.226,0,0.471-0.094,0.735-0.279c0.264-0.187,0.548-0.523,0.854-1.01
			c-0.018-0.418-0.017-0.729,0.003-0.934c0.021-0.205,0.061-0.399,0.122-0.585c0.116-0.348,0.296-0.646,0.541-0.897
			c0.12-0.125,0.234-0.187,0.342-0.187c0.109,0,0.185,0.062,0.221,0.187c0.076,0.236,0.058,0.524-0.056,0.865
			c-0.139,0.415-0.429,0.933-0.867,1.551c-0.023,0.49,0.03,0.821,0.161,0.991c0.132,0.17,0.315,0.254,0.551,0.254
			c0.279,0,0.541-0.109,0.786-0.326c0.33-0.294,0.63-0.844,0.897-1.648c0.326-0.978,0.35-1.698,0.072-2.164
			C147.175,61.921,146.869,61.758,146.425,61.715z"/>
	</g>
	<g>
		<path fill="#010101" stroke="#010101" stroke-width="0.3141" stroke-miterlimit="10" d="M129.981,63.602h0.172
			c0.118,0,0.215-0.013,0.29-0.038c0.089-0.032,0.188-0.087,0.296-0.164c0.106-0.077,0.259-0.207,0.455-0.389
			c0.165-0.154,0.289-0.285,0.373-0.392s0.143-0.206,0.175-0.295c0.028-0.075,0.043-0.15,0.043-0.225
			c0-0.107-0.033-0.191-0.099-0.252c-0.066-0.061-0.176-0.102-0.325-0.124V61.46h2.313v0.263c-0.165,0.032-0.34,0.105-0.526,0.22
			c-0.187,0.114-0.378,0.265-0.574,0.451l-1.234,1.17l1.546,2.019c0.178,0.235,0.34,0.41,0.485,0.522
			c0.146,0.113,0.304,0.188,0.476,0.224v0.263h-2.062V66.33c0.093-0.011,0.161-0.031,0.206-0.063
			c0.045-0.03,0.067-0.081,0.067-0.152c0-0.054-0.01-0.106-0.029-0.158c-0.02-0.053-0.06-0.123-0.12-0.213
			c-0.062-0.089-0.172-0.245-0.334-0.467l-0.639-0.859c-0.121-0.161-0.208-0.267-0.26-0.316c-0.052-0.05-0.106-0.086-0.164-0.107
			c-0.057-0.021-0.134-0.032-0.23-0.032h-0.301v1.289c0,0.308,0.015,0.521,0.043,0.642c0.029,0.119,0.084,0.211,0.164,0.273
			s0.212,0.117,0.395,0.164v0.263h-2.131V66.33c0.18-0.047,0.303-0.095,0.373-0.146c0.07-0.05,0.12-0.109,0.15-0.18
			c0.03-0.069,0.052-0.164,0.064-0.284c0.012-0.12,0.019-0.276,0.019-0.47v-4.494c0-0.344-0.003-0.583-0.008-0.719
			c-0.005-0.136-0.021-0.251-0.043-0.347c-0.023-0.095-0.056-0.169-0.097-0.223s-0.097-0.097-0.166-0.129
			c-0.07-0.032-0.196-0.064-0.379-0.097v-0.279l1.293-0.054h0.322V63.602z"/>
	</g>
</g>
<g>
	<g>
		<path fill="#010101" d="M178.241,68.423v-0.236c0.369-0.122,0.654-0.311,0.856-0.566s0.304-0.527,0.304-0.813
			c0-0.068-0.017-0.125-0.049-0.172c-0.025-0.032-0.05-0.048-0.075-0.048c-0.039,0-0.125,0.035-0.257,0.106
			c-0.064,0.032-0.133,0.049-0.205,0.049c-0.175,0-0.314-0.052-0.418-0.155c-0.104-0.104-0.156-0.247-0.156-0.43
			c0-0.176,0.067-0.326,0.201-0.451c0.135-0.125,0.299-0.188,0.492-0.188c0.236,0,0.445,0.103,0.63,0.309
			c0.185,0.205,0.276,0.479,0.276,0.818c0,0.368-0.128,0.711-0.383,1.028C179.202,67.991,178.796,68.241,178.241,68.423z"/>
	</g>
	<g>
		<path fill="#010101" d="M194.174,67.146c0,0.072-0.005,0.145-0.013,0.215c-0.009,0.07-0.02,0.143-0.034,0.218l-0.352,1.748
			c-0.004,0.017-0.011,0.031-0.021,0.042c-0.009,0.012-0.024,0.021-0.047,0.03c-0.021,0.008-0.049,0.014-0.082,0.019
			c-0.033,0.004-0.075,0.006-0.128,0.006c-0.049,0-0.09-0.002-0.122-0.006c-0.032-0.005-0.058-0.011-0.075-0.019
			c-0.018-0.009-0.029-0.019-0.034-0.03c-0.005-0.011-0.007-0.025-0.005-0.042l0.346-1.729c0.015-0.064,0.024-0.127,0.029-0.187
			c0.005-0.061,0.008-0.113,0.008-0.159c0-0.126-0.026-0.229-0.081-0.306c-0.054-0.078-0.144-0.117-0.271-0.117
			c-0.109,0-0.222,0.031-0.337,0.095s-0.223,0.15-0.32,0.262c-0.099,0.11-0.187,0.242-0.265,0.395
			c-0.078,0.153-0.135,0.318-0.17,0.497l-0.248,1.25c-0.005,0.017-0.012,0.031-0.022,0.042c-0.01,0.012-0.025,0.021-0.047,0.03
			c-0.021,0.008-0.048,0.014-0.082,0.019c-0.034,0.004-0.076,0.006-0.126,0.006c-0.052,0-0.094-0.002-0.126-0.006
			c-0.032-0.005-0.057-0.011-0.074-0.019c-0.018-0.009-0.029-0.019-0.034-0.03c-0.006-0.011-0.006-0.025-0.002-0.042l0.563-2.803
			c0.002-0.015,0.007-0.028,0.017-0.041c0.01-0.012,0.023-0.022,0.044-0.03c0.02-0.009,0.044-0.015,0.074-0.018
			s0.065-0.005,0.107-0.005c0.044,0,0.079,0.002,0.107,0.005c0.027,0.003,0.05,0.009,0.065,0.018
			c0.016,0.008,0.025,0.019,0.029,0.03c0.004,0.013,0.005,0.026,0.003,0.041l-0.105,0.535c0.031-0.07,0.082-0.146,0.152-0.225
			c0.07-0.078,0.154-0.151,0.252-0.218s0.205-0.121,0.322-0.164c0.116-0.044,0.238-0.065,0.365-0.065
			c0.139,0,0.255,0.021,0.348,0.063c0.094,0.043,0.17,0.099,0.228,0.168s0.1,0.149,0.124,0.241
			C194.161,66.951,194.174,67.046,194.174,67.146z"/>
	</g>
	<g>
		<path fill="#010101" d="M182.636,66.458c-0.008,0.028-0.02,0.053-0.037,0.072c-0.019,0.02-0.045,0.036-0.081,0.051
			s-0.083,0.025-0.142,0.032c-0.06,0.007-0.132,0.011-0.218,0.011c-0.089,0-0.162-0.004-0.218-0.011
			c-0.055-0.007-0.098-0.018-0.129-0.032c-0.03-0.015-0.05-0.031-0.059-0.051s-0.01-0.044-0.003-0.072l0.961-4.832
			c0.003-0.025,0.015-0.048,0.032-0.07s0.045-0.039,0.08-0.054c0.036-0.014,0.084-0.025,0.143-0.032
			c0.059-0.007,0.133-0.011,0.223-0.011c0.086,0,0.156,0.004,0.212,0.011c0.056,0.007,0.099,0.018,0.129,0.032
			c0.03,0.015,0.05,0.032,0.059,0.054c0.01,0.021,0.012,0.045,0.009,0.07L182.636,66.458z M184.025,60
			c-0.018,0.1-0.042,0.184-0.072,0.252c-0.03,0.068-0.07,0.123-0.12,0.164c-0.051,0.041-0.113,0.071-0.188,0.088
			c-0.075,0.018-0.166,0.027-0.273,0.027c-0.104,0-0.19-0.009-0.258-0.027c-0.067-0.018-0.118-0.047-0.15-0.088
			s-0.05-0.096-0.054-0.164c-0.004-0.068,0.004-0.152,0.021-0.252c0.021-0.1,0.049-0.184,0.08-0.25
			c0.033-0.066,0.073-0.122,0.121-0.166c0.049-0.045,0.11-0.075,0.186-0.091s0.166-0.024,0.273-0.024
			c0.104,0,0.188,0.008,0.255,0.024s0.116,0.046,0.15,0.091c0.034,0.044,0.053,0.1,0.057,0.166
			C184.056,59.816,184.047,59.9,184.025,60z"/>
	</g>
	<g>
		<path fill="#010101" d="M189.681,61.715l0.064-0.192c0.605,0,1.064,0.103,1.379,0.308c0.314,0.206,0.513,0.537,0.595,0.993
			c0.082,0.456,0.033,0.957-0.148,1.501c-0.154,0.462-0.386,0.884-0.695,1.267c-0.311,0.383-0.656,0.672-1.038,0.867
			c-0.382,0.194-0.716,0.293-1.002,0.293c-0.314,0-0.554-0.09-0.716-0.269s-0.269-0.457-0.318-0.832
			c-0.323,0.379-0.639,0.657-0.945,0.835c-0.309,0.177-0.616,0.266-0.924,0.266c-0.269,0-0.52-0.097-0.755-0.287
			c-0.235-0.192-0.377-0.487-0.427-0.886c-0.05-0.399,0.004-0.832,0.159-1.297c0.168-0.505,0.423-0.964,0.765-1.379
			c0.266-0.322,0.555-0.588,0.87-0.8c0.315-0.211,0.626-0.361,0.931-0.448c0.305-0.088,0.67-0.131,1.096-0.131l-0.064,0.192
			c-0.514,0.051-1.003,0.287-1.467,0.706c-0.464,0.421-0.832,1.04-1.104,1.855c-0.27,0.806-0.342,1.396-0.22,1.772
			c0.074,0.225,0.248,0.338,0.52,0.338c0.226,0,0.471-0.094,0.735-0.279c0.264-0.187,0.548-0.523,0.854-1.01
			c-0.018-0.418-0.017-0.729,0.003-0.934c0.021-0.205,0.061-0.399,0.122-0.585c0.116-0.348,0.296-0.646,0.541-0.897
			c0.12-0.125,0.234-0.187,0.342-0.187c0.109,0,0.185,0.062,0.221,0.187c0.076,0.236,0.058,0.524-0.056,0.865
			c-0.139,0.415-0.429,0.933-0.867,1.551c-0.023,0.49,0.03,0.821,0.161,0.991c0.132,0.17,0.315,0.254,0.551,0.254
			c0.279,0,0.541-0.109,0.786-0.326c0.33-0.294,0.63-0.844,0.897-1.648c0.326-0.978,0.35-1.698,0.072-2.164
			C190.431,61.921,190.125,61.758,189.681,61.715z"/>
	</g>
	<g>
		<path fill="#010101" stroke="#010101" stroke-width="0.3141" stroke-miterlimit="10" d="M173.237,63.602h0.172
			c0.118,0,0.215-0.013,0.29-0.038c0.089-0.032,0.188-0.087,0.296-0.164c0.106-0.077,0.259-0.207,0.455-0.389
			c0.165-0.154,0.289-0.285,0.373-0.392s0.143-0.206,0.175-0.295c0.028-0.075,0.043-0.15,0.043-0.225
			c0-0.107-0.033-0.191-0.099-0.252c-0.066-0.061-0.176-0.102-0.325-0.124V61.46h2.313v0.263c-0.165,0.032-0.34,0.105-0.526,0.22
			c-0.187,0.114-0.378,0.265-0.574,0.451l-1.234,1.17l1.546,2.019c0.178,0.235,0.34,0.41,0.485,0.522
			c0.146,0.113,0.304,0.188,0.476,0.224v0.263h-2.062V66.33c0.093-0.011,0.161-0.031,0.206-0.063
			c0.045-0.03,0.067-0.081,0.067-0.152c0-0.054-0.01-0.106-0.029-0.158c-0.02-0.053-0.06-0.123-0.12-0.213
			c-0.062-0.089-0.172-0.245-0.334-0.467l-0.639-0.859c-0.121-0.161-0.208-0.267-0.26-0.316c-0.052-0.05-0.106-0.086-0.164-0.107
			c-0.057-0.021-0.134-0.032-0.23-0.032h-0.301v1.289c0,0.308,0.015,0.521,0.043,0.642c0.029,0.119,0.084,0.211,0.164,0.273
			s0.212,0.117,0.395,0.164v0.263h-2.131V66.33c0.18-0.047,0.303-0.095,0.373-0.146c0.07-0.05,0.12-0.109,0.15-0.18
			c0.03-0.069,0.052-0.164,0.064-0.284c0.012-0.12,0.019-0.276,0.019-0.47v-4.494c0-0.344-0.003-0.583-0.008-0.719
			c-0.005-0.136-0.021-0.251-0.043-0.347c-0.023-0.095-0.056-0.169-0.097-0.223s-0.097-0.097-0.166-0.129
			c-0.07-0.032-0.196-0.064-0.379-0.097v-0.279l1.293-0.054h0.322V63.602z"/>
	</g>
</g>
<g>
	<g>
		<path fill="#010101" d="M179.276,25.866c-0.044,0.044-0.095,0.066-0.153,0.066h-6.858c-0.06,0-0.11-0.022-0.154-0.066
			s-0.066-0.095-0.066-0.154s0.022-0.11,0.066-0.154s0.095-0.066,0.154-0.066h6.858c0.059,0,0.109,0.022,0.153,0.066
			s0.066,0.096,0.066,0.154S179.32,25.822,179.276,25.866z M179.276,27.999c-0.044,0.044-0.095,0.066-0.153,0.066h-6.858
			c-0.06,0-0.11-0.022-0.154-0.066s-0.066-0.095-0.066-0.154s0.022-0.11,0.066-0.154s0.095-0.066,0.154-0.066h6.858
			c0.059,0,0.109,0.022,0.153,0.066s0.066,0.095,0.066,0.154S179.32,27.955,179.276,27.999z"/>
	</g>
	<g>
		<path fill="#010101" stroke="#010101" stroke-width="0.3141" stroke-miterlimit="10" d="M169.144,31.835h-2.19v-0.264
			c0.172-0.035,0.296-0.074,0.373-0.117s0.136-0.098,0.177-0.164s0.07-0.156,0.086-0.269c0.017-0.112,0.024-0.287,0.024-0.523
			v-1.853c-0.192,0.219-0.373,0.394-0.539,0.523c-0.167,0.131-0.352,0.237-0.556,0.32c-0.204,0.082-0.42,0.123-0.649,0.123
			c-0.591,0-1.044-0.22-1.36-0.66s-0.475-1.081-0.475-1.922c0-0.594,0.103-1.096,0.309-1.506c0.205-0.41,0.492-0.716,0.861-0.918
			c0.368-0.202,0.794-0.303,1.277-0.303c0.254,0,0.482,0.026,0.687,0.078s0.413,0.135,0.628,0.25l0.375-0.328l0.365,0.086v6.109
			c0,0.211,0.008,0.379,0.024,0.502s0.045,0.221,0.086,0.293c0.041,0.071,0.103,0.127,0.183,0.166s0.186,0.077,0.314,0.112V31.835z
			 M167.613,26.327c0-0.333-0.021-0.59-0.064-0.773s-0.116-0.337-0.22-0.464s-0.226-0.218-0.365-0.274
			c-0.139-0.055-0.305-0.083-0.494-0.083c-0.461,0-0.814,0.186-1.06,0.558c-0.245,0.373-0.368,0.896-0.368,1.573
			c0,0.687,0.1,1.209,0.299,1.568c0.198,0.357,0.496,0.536,0.894,0.536c0.149,0,0.278-0.013,0.384-0.04
			c0.105-0.026,0.209-0.07,0.311-0.132c0.103-0.061,0.206-0.143,0.312-0.247c0.105-0.104,0.182-0.197,0.229-0.281
			c0.046-0.084,0.082-0.182,0.106-0.293c0.025-0.111,0.038-0.254,0.038-0.429V26.327z"/>
	</g>
	<g>
		<path fill="#010101" d="M184.632,29.613c-0.773,0-1.349-0.304-1.726-0.913c-0.378-0.608-0.566-1.531-0.566-2.77
			c0-0.659,0.058-1.228,0.175-1.708c0.116-0.479,0.278-0.875,0.488-1.189c0.209-0.313,0.46-0.545,0.754-0.695
			c0.293-0.15,0.613-0.226,0.961-0.226c0.783,0,1.366,0.303,1.749,0.908c0.383,0.604,0.574,1.519,0.574,2.743
			c0,1.267-0.205,2.225-0.614,2.875C186.017,29.288,185.419,29.613,184.632,29.613z M183.387,25.769
			c0,1.167,0.107,2.023,0.324,2.568c0.217,0.546,0.552,0.819,1.007,0.819c0.433,0,0.754-0.257,0.963-0.771s0.313-1.309,0.313-2.386
			c0-0.823-0.053-1.49-0.16-2c-0.107-0.51-0.257-0.876-0.448-1.098c-0.191-0.222-0.424-0.333-0.695-0.333
			c-0.247,0-0.453,0.073-0.62,0.22c-0.166,0.146-0.3,0.358-0.402,0.633c-0.102,0.276-0.174,0.611-0.217,1.007
			S183.387,25.271,183.387,25.769z"/>
	</g>
</g>
<g>
	<g>
		<path fill="#010101" d="M168.532,41.146l0.064-0.192c0.605,0,1.064,0.103,1.379,0.309c0.314,0.206,0.513,0.536,0.595,0.993
			c0.083,0.456,0.033,0.956-0.148,1.5c-0.154,0.462-0.386,0.884-0.695,1.267c-0.311,0.383-0.655,0.672-1.038,0.867
			c-0.382,0.194-0.716,0.293-1.002,0.293c-0.314,0-0.553-0.09-0.715-0.269s-0.27-0.457-0.318-0.832
			c-0.324,0.379-0.64,0.657-0.947,0.835c-0.308,0.177-0.615,0.266-0.923,0.266c-0.269,0-0.52-0.097-0.755-0.287
			c-0.235-0.192-0.377-0.487-0.427-0.886c-0.05-0.399,0.004-0.832,0.159-1.297c0.168-0.505,0.423-0.965,0.766-1.38
			c0.264-0.322,0.554-0.588,0.869-0.799c0.315-0.211,0.627-0.361,0.931-0.449c0.305-0.088,0.67-0.131,1.096-0.131l-0.064,0.192
			c-0.514,0.051-1.003,0.287-1.466,0.706c-0.465,0.421-0.833,1.04-1.105,1.855c-0.268,0.806-0.341,1.396-0.219,1.772
			c0.074,0.225,0.248,0.338,0.52,0.338c0.227,0,0.471-0.094,0.735-0.279c0.265-0.187,0.548-0.522,0.854-1.01
			c-0.018-0.418-0.017-0.729,0.003-0.934c0.021-0.205,0.061-0.399,0.123-0.585c0.115-0.347,0.295-0.646,0.54-0.897
			c0.12-0.125,0.233-0.187,0.341-0.187c0.111,0,0.186,0.062,0.223,0.187c0.075,0.236,0.057,0.524-0.057,0.865
			c-0.139,0.415-0.429,0.933-0.867,1.551c-0.023,0.49,0.03,0.821,0.161,0.991c0.132,0.17,0.315,0.255,0.551,0.255
			c0.279,0,0.542-0.109,0.786-0.327c0.33-0.294,0.629-0.844,0.897-1.648c0.326-0.978,0.35-1.698,0.071-2.164
			C169.282,41.353,168.976,41.189,168.532,41.146z"/>
	</g>
	<g>
		<path fill="#010101" d="M180.409,42.366c-0.044,0.044-0.095,0.066-0.153,0.066h-6.858c-0.06,0-0.11-0.022-0.154-0.066
			s-0.066-0.095-0.066-0.154s0.022-0.11,0.066-0.154s0.095-0.066,0.154-0.066h6.858c0.059,0,0.109,0.022,0.153,0.066
			s0.066,0.096,0.066,0.154S180.453,42.322,180.409,42.366z M180.409,44.499c-0.044,0.044-0.095,0.066-0.153,0.066h-6.858
			c-0.06,0-0.11-0.022-0.154-0.066s-0.066-0.095-0.066-0.154c0-0.059,0.022-0.109,0.066-0.153s0.095-0.066,0.154-0.066h6.858
			c0.059,0,0.109,0.022,0.153,0.066s0.066,0.095,0.066,0.153C180.476,44.404,180.453,44.455,180.409,44.499z"/>
	</g>
	<g>
		<path fill="#010101" d="M185.757,46.113c-0.773,0-1.349-0.304-1.726-0.913c-0.378-0.608-0.566-1.531-0.566-2.77
			c0-0.659,0.058-1.228,0.175-1.708c0.116-0.479,0.278-0.875,0.488-1.189c0.209-0.313,0.46-0.545,0.754-0.695
			c0.293-0.15,0.613-0.226,0.961-0.226c0.783,0,1.366,0.303,1.749,0.908c0.383,0.604,0.574,1.519,0.574,2.743
			c0,1.267-0.205,2.225-0.614,2.875C187.142,45.788,186.544,46.113,185.757,46.113z M184.512,42.269
			c0,1.167,0.107,2.023,0.324,2.568c0.217,0.546,0.552,0.819,1.007,0.819c0.433,0,0.754-0.257,0.963-0.771s0.313-1.31,0.313-2.386
			c0-0.823-0.053-1.49-0.16-2c-0.107-0.51-0.257-0.876-0.448-1.098c-0.191-0.222-0.424-0.333-0.695-0.333
			c-0.247,0-0.453,0.073-0.62,0.22c-0.166,0.146-0.3,0.358-0.402,0.633c-0.102,0.276-0.174,0.611-0.217,1.007
			S184.512,41.771,184.512,42.269z"/>
	</g>
</g>
</svg>
