<?xml version="1.0" encoding="utf-8"?>
<!-- Generator: Adobe Illustrator 15.1.0, SVG Export Plug-In . SVG Version: 6.00 Build 0)  -->
<!DOCTYPE svg PUBLIC "-//W3C//DTD SVG 1.1//EN" "http://www.w3.org/Graphics/SVG/1.1/DTD/svg11.dtd">
<svg version="1.1" id="Layer_1" xmlns="http://www.w3.org/2000/svg" xmlns:xlink="http://www.w3.org/1999/xlink" x="0px" y="0px"
	 width="321.44px" height="69.546px" viewBox="0 0 321.44 69.546" enable-background="new 0 0 321.44 69.546" xml:space="preserve">
<g>
	<g>
		<g>
			
				<line fill="none" stroke="#000000" stroke-width="0.5" stroke-miterlimit="10" x1="145.398" y1="37.879" x2="124.257" y2="37.879"/>
			<g>
				<path d="M125.155,37.879l1.096,1.802l-0.062,0.041l-2.938-1.167c-1.023-0.226-2.047-0.45-3.07-0.676
					c1.023-0.225,2.047-0.45,3.07-0.676l2.938-1.167l0.062,0.031L125.155,37.879z"/>
			</g>
		</g>
	</g>
	
		<line fill="none" stroke="#000000" stroke-width="0.5" stroke-miterlimit="10" x1="124.257" y1="37.879" x2="103.117" y2="37.879"/>
</g>
<circle fill="#FFFFFF" stroke="#000000" stroke-width="0.5" stroke-miterlimit="10" cx="103.116" cy="37.879" r="2.836"/>
<polygon fill="#FFFFFF" stroke="#000000" stroke-width="0.5" stroke-miterlimit="10" points="105.274,40.716 107.471,34.503 
	109.668,40.716 "/>
<g>
	<path d="M152.357,34.916v2.818h2.71v0.72h-2.71v2.842h-0.768v-2.842h-2.711v-0.72h2.711v-2.818H152.357z"/>
</g>
<g>
	<g>
		<g>
			
				<line fill="none" stroke="#000000" stroke-width="0.5" stroke-miterlimit="10" x1="216.841" y1="54.808" x2="195.7" y2="54.808"/>
			<g>
				<path d="M196.598,54.808l1.096,1.801l-0.062,0.041l-2.938-1.167c-1.023-0.225-2.047-0.45-3.07-0.675
					c1.023-0.225,2.047-0.45,3.07-0.675l2.938-1.167l0.062,0.031L196.598,54.808z"/>
			</g>
		</g>
	</g>
	<line fill="none" stroke="#000000" stroke-width="0.5" stroke-miterlimit="10" x1="195.7" y1="54.808" x2="174.56" y2="54.808"/>
</g>
<line fill="none" stroke="#000000" stroke-width="0.5" stroke-miterlimit="10" stroke-dasharray="2,1" x1="174.56" y1="54.808" x2="174.56" y2="18.918"/>
<circle fill="#FFFFFF" stroke="#000000" stroke-width="0.5" stroke-miterlimit="10" cx="171.723" cy="18.918" r="2.836"/>
<circle fill="#FFFFFF" stroke="#000000" stroke-width="0.5" stroke-miterlimit="10" cx="177.396" cy="18.918" r="2.836"/>
<circle fill="#FFFFFF" stroke="#000000" stroke-width="0.5" stroke-miterlimit="10" cx="171.723" cy="54.808" r="2.836"/>
<g>
	<g>
		<g>
			
				<line fill="none" stroke="#000000" stroke-width="0.5" stroke-linecap="round" stroke-miterlimit="10" x1="299.202" y1="54.808" x2="277.467" y2="54.808"/>
			<g>
				<path d="M278.365,54.808l1.096,1.801l-0.062,0.041l-2.938-1.167c-1.023-0.225-2.047-0.45-3.07-0.675
					c1.023-0.225,2.047-0.45,3.07-0.675l2.938-1.167l0.062,0.031L278.365,54.808z"/>
			</g>
		</g>
	</g>
	
		<line fill="none" stroke="#000000" stroke-width="0.5" stroke-linecap="round" stroke-miterlimit="10" x1="277.467" y1="54.808" x2="255.733" y2="54.808"/>
</g>
<g>
	<g>
		<path fill="none" stroke="#000000" stroke-width="0.5" stroke-linecap="round" stroke-miterlimit="10" d="M259.203,18.252
			c3.437-1.377,5.864-4.739,5.864-8.668c0-5.155-4.18-9.334-9.334-9.334c-5.155,0-9.334,4.179-9.334,9.334s4.179,9.334,9.334,9.334"
			/>
		<g>
			<polygon points="255.733,18.918 261.027,19.844 259.44,18.109 260.161,15.873 			"/>
		</g>
	</g>
</g>
<line fill="none" stroke="#000000" stroke-width="0.5" stroke-linecap="round" stroke-miterlimit="10" stroke-dasharray="2,1" x1="255.733" y1="54.808" x2="255.733" y2="18.918"/>
<circle fill="#FFFFFF" stroke="#000000" stroke-width="0.5" stroke-miterlimit="10" cx="252.897" cy="54.808" r="2.836"/>
<g>
	<path d="M227.799,34.916v2.818h2.71v0.72h-2.71v2.842h-0.768v-2.842h-2.711v-0.72h2.711v-2.818H227.799z"/>
</g>
<g>
	<g>
		<path fill="#010101" d="M198.815,69.238v-0.215c0.335-0.11,0.595-0.282,0.779-0.515c0.184-0.232,0.275-0.479,0.275-0.739
			c0-0.062-0.015-0.114-0.044-0.156c-0.022-0.029-0.045-0.044-0.068-0.044c-0.036,0-0.114,0.032-0.234,0.098
			c-0.059,0.029-0.121,0.044-0.186,0.044c-0.16,0-0.286-0.047-0.381-0.142c-0.094-0.095-0.142-0.225-0.142-0.391
			c0-0.159,0.061-0.296,0.183-0.409c0.122-0.114,0.271-0.171,0.447-0.171c0.215,0,0.406,0.094,0.573,0.28
			c0.167,0.188,0.251,0.436,0.251,0.744c0,0.335-0.116,0.646-0.349,0.935C199.688,68.845,199.319,69.072,198.815,69.238z"/>
	</g>
	<g>
		<path fill="#010101" d="M195.835,67.652c-0.703,0-1.226-0.276-1.569-0.829c-0.343-0.554-0.515-1.393-0.515-2.518
			c0-0.598,0.053-1.115,0.159-1.551c0.106-0.436,0.254-0.796,0.444-1.081c0.19-0.285,0.419-0.496,0.686-0.632
			c0.267-0.137,0.558-0.205,0.874-0.205c0.713,0,1.243,0.275,1.591,0.825c0.348,0.549,0.522,1.38,0.522,2.493
			c0,1.151-0.186,2.022-0.559,2.612C197.096,67.357,196.551,67.652,195.835,67.652z M194.703,64.159c0,1.06,0.099,1.838,0.295,2.334
			c0.197,0.496,0.502,0.744,0.915,0.744c0.394,0,0.686-0.233,0.876-0.7c0.19-0.467,0.286-1.189,0.286-2.168
			c0-0.748-0.049-1.354-0.146-1.817s-0.233-0.796-0.407-0.998c-0.174-0.202-0.385-0.303-0.632-0.303c-0.225,0-0.412,0.067-0.563,0.2
			s-0.273,0.325-0.366,0.576s-0.159,0.555-0.198,0.915C194.723,63.301,194.703,63.707,194.703,64.159z"/>
		<path fill="#010101" d="M204.269,67.652c-0.703,0-1.227-0.276-1.569-0.829c-0.344-0.554-0.515-1.393-0.515-2.518
			c0-0.598,0.053-1.115,0.158-1.551s0.254-0.796,0.444-1.081c0.19-0.285,0.419-0.496,0.686-0.632
			c0.267-0.137,0.558-0.205,0.874-0.205c0.712,0,1.242,0.275,1.591,0.825c0.348,0.549,0.522,1.38,0.522,2.493
			c0,1.151-0.187,2.022-0.56,2.612C205.528,67.357,204.984,67.652,204.269,67.652z M203.136,64.159c0,1.06,0.099,1.838,0.296,2.334
			c0.196,0.496,0.501,0.744,0.915,0.744c0.394,0,0.686-0.233,0.876-0.7s0.285-1.189,0.285-2.168c0-0.748-0.049-1.354-0.146-1.817
			s-0.233-0.796-0.407-0.998s-0.385-0.303-0.632-0.303c-0.225,0-0.413,0.067-0.564,0.2s-0.272,0.325-0.365,0.576
			s-0.159,0.555-0.198,0.915C203.155,63.301,203.136,63.707,203.136,64.159z"/>
	</g>
</g>
<g>
	<g>
		<path fill="#010101" d="M283.161,69.238v-0.215c0.336-0.11,0.595-0.282,0.779-0.515c0.184-0.232,0.275-0.479,0.275-0.739
			c0-0.062-0.016-0.114-0.045-0.156c-0.021-0.029-0.045-0.044-0.067-0.044c-0.036,0-0.114,0.032-0.234,0.098
			c-0.059,0.029-0.12,0.044-0.186,0.044c-0.159,0-0.286-0.047-0.381-0.142s-0.142-0.225-0.142-0.391
			c0-0.159,0.061-0.296,0.184-0.409c0.121-0.114,0.271-0.171,0.446-0.171c0.215,0,0.405,0.094,0.573,0.28
			c0.168,0.188,0.252,0.436,0.252,0.744c0,0.335-0.117,0.646-0.35,0.935C284.034,68.845,283.665,69.072,283.161,69.238z"/>
	</g>
	<g>
		<path fill="#010101" d="M280.181,67.652c-0.702,0-1.226-0.276-1.569-0.829c-0.343-0.554-0.515-1.393-0.515-2.518
			c0-0.598,0.054-1.115,0.159-1.551s0.254-0.796,0.443-1.081c0.191-0.285,0.42-0.496,0.686-0.632
			c0.268-0.137,0.559-0.205,0.874-0.205c0.713,0,1.243,0.275,1.591,0.825c0.349,0.549,0.522,1.38,0.522,2.493
			c0,1.151-0.187,2.022-0.559,2.612C281.442,67.357,280.897,67.652,280.181,67.652z M279.049,64.159c0,1.06,0.098,1.838,0.295,2.334
			c0.197,0.496,0.502,0.744,0.915,0.744c0.394,0,0.687-0.233,0.876-0.7c0.19-0.467,0.285-1.189,0.285-2.168
			c0-0.748-0.049-1.354-0.146-1.817s-0.232-0.796-0.406-0.998c-0.175-0.202-0.385-0.303-0.633-0.303c-0.225,0-0.412,0.067-0.563,0.2
			s-0.273,0.325-0.366,0.576s-0.158,0.555-0.197,0.915C279.069,63.301,279.049,63.707,279.049,64.159z"/>
		<path fill="#010101" d="M288.614,67.652c-0.703,0-1.227-0.276-1.568-0.829c-0.344-0.554-0.516-1.393-0.516-2.518
			c0-0.598,0.053-1.115,0.158-1.551s0.254-0.796,0.445-1.081c0.189-0.285,0.418-0.496,0.686-0.632
			c0.266-0.137,0.557-0.205,0.873-0.205c0.713,0,1.242,0.275,1.592,0.825c0.348,0.549,0.521,1.38,0.521,2.493
			c0,1.151-0.186,2.022-0.559,2.612C289.874,67.357,289.331,67.652,288.614,67.652z M287.481,64.159c0,1.06,0.1,1.838,0.297,2.334
			c0.195,0.496,0.5,0.744,0.914,0.744c0.395,0,0.686-0.233,0.877-0.7c0.189-0.467,0.285-1.189,0.285-2.168
			c0-0.748-0.049-1.354-0.146-1.817s-0.234-0.796-0.408-0.998s-0.385-0.303-0.631-0.303c-0.225,0-0.414,0.067-0.564,0.2
			c-0.152,0.133-0.273,0.325-0.365,0.576c-0.094,0.25-0.16,0.555-0.199,0.915C287.5,63.301,287.481,63.707,287.481,64.159z"/>
	</g>
</g>
<g>
	<g>
		<path fill="#010101" d="M124.794,53.635V53.42c0.335-0.11,0.595-0.282,0.779-0.515c0.184-0.232,0.275-0.479,0.275-0.739
			c0-0.062-0.015-0.114-0.044-0.156c-0.022-0.029-0.045-0.044-0.068-0.044c-0.036,0-0.114,0.032-0.234,0.098
			c-0.059,0.029-0.121,0.044-0.186,0.044c-0.16,0-0.286-0.047-0.381-0.142c-0.094-0.095-0.142-0.225-0.142-0.391
			c0-0.159,0.061-0.296,0.183-0.409c0.122-0.114,0.271-0.171,0.447-0.171c0.215,0,0.406,0.094,0.573,0.28
			c0.167,0.188,0.251,0.436,0.251,0.744c0,0.335-0.116,0.646-0.349,0.935C125.667,53.241,125.299,53.469,124.794,53.635z"/>
	</g>
	<g>
		<path fill="#010101" d="M121.815,52.049c-0.703,0-1.226-0.276-1.569-0.829c-0.343-0.554-0.515-1.393-0.515-2.518
			c0-0.598,0.053-1.115,0.159-1.551c0.106-0.436,0.254-0.796,0.444-1.081c0.19-0.285,0.419-0.496,0.686-0.632
			c0.267-0.137,0.558-0.205,0.874-0.205c0.713,0,1.243,0.275,1.591,0.825c0.348,0.549,0.522,1.38,0.522,2.493
			c0,1.151-0.186,2.022-0.559,2.612C123.075,51.754,122.531,52.049,121.815,52.049z M120.683,48.556c0,1.06,0.099,1.838,0.295,2.334
			c0.197,0.496,0.502,0.744,0.915,0.744c0.394,0,0.686-0.233,0.876-0.7c0.19-0.467,0.286-1.189,0.286-2.168
			c0-0.748-0.049-1.354-0.146-1.817s-0.233-0.796-0.407-0.998c-0.174-0.202-0.385-0.303-0.632-0.303c-0.225,0-0.412,0.067-0.563,0.2
			s-0.273,0.325-0.366,0.576s-0.159,0.555-0.198,0.915C120.702,47.698,120.683,48.104,120.683,48.556z"/>
		<path fill="#010101" d="M130.248,52.049c-0.703,0-1.227-0.276-1.569-0.829c-0.344-0.554-0.515-1.393-0.515-2.518
			c0-0.598,0.053-1.115,0.158-1.551s0.254-0.796,0.444-1.081c0.19-0.285,0.419-0.496,0.686-0.632
			c0.267-0.137,0.558-0.205,0.874-0.205c0.712,0,1.242,0.275,1.591,0.825c0.348,0.549,0.522,1.38,0.522,2.493
			c0,1.151-0.187,2.022-0.56,2.612C131.508,51.754,130.964,52.049,130.248,52.049z M129.115,48.556c0,1.06,0.099,1.838,0.296,2.334
			c0.196,0.496,0.501,0.744,0.915,0.744c0.394,0,0.686-0.233,0.876-0.7s0.285-1.189,0.285-2.168c0-0.748-0.049-1.354-0.146-1.817
			s-0.233-0.796-0.407-0.998s-0.385-0.303-0.632-0.303c-0.225,0-0.413,0.067-0.564,0.2s-0.272,0.325-0.365,0.576
			s-0.159,0.555-0.198,0.915C129.135,47.698,129.115,48.104,129.115,48.556z"/>
	</g>
</g>
<g>
	<g>
		<path fill="#010101" d="M2.713,41.374c-0.703,0-1.226-0.276-1.569-0.83c-0.343-0.553-0.515-1.392-0.515-2.518
			c0-0.599,0.053-1.116,0.159-1.552c0.105-0.436,0.253-0.796,0.444-1.081s0.419-0.496,0.686-0.632
			c0.267-0.137,0.558-0.205,0.873-0.205c0.712,0,1.243,0.275,1.591,0.825s0.522,1.381,0.522,2.494c0,1.152-0.186,2.023-0.559,2.614
			S3.428,41.374,2.713,41.374z M1.581,37.879c0,1.061,0.099,1.839,0.295,2.335s0.501,0.744,0.915,0.744
			c0.394,0,0.686-0.233,0.876-0.7s0.286-1.19,0.286-2.169c0-0.748-0.049-1.354-0.146-1.818c-0.098-0.463-0.233-0.796-0.408-0.998
			c-0.174-0.202-0.384-0.303-0.631-0.303c-0.225,0-0.413,0.067-0.564,0.2c-0.151,0.133-0.273,0.326-0.366,0.576
			s-0.159,0.555-0.198,0.915C1.6,37.021,1.581,37.427,1.581,37.879z"/>
	</g>
	<g>
		<path fill="#010101" d="M14.158,37.968c-0.04,0.04-0.087,0.06-0.141,0.06H7.783c-0.053,0-0.1-0.02-0.14-0.06
			c-0.04-0.04-0.06-0.087-0.06-0.14s0.02-0.1,0.06-0.14s0.086-0.06,0.14-0.06h6.235c0.054,0,0.101,0.02,0.141,0.06
			c0.039,0.04,0.06,0.087,0.06,0.14S14.197,37.928,14.158,37.968z M14.158,39.906c-0.04,0.04-0.087,0.061-0.141,0.061H7.783
			c-0.053,0-0.1-0.021-0.14-0.061s-0.06-0.086-0.06-0.14c0-0.053,0.02-0.1,0.06-0.14s0.086-0.061,0.14-0.061h6.235
			c0.054,0,0.101,0.021,0.141,0.061c0.039,0.04,0.06,0.087,0.06,0.14C14.218,39.82,14.197,39.866,14.158,39.906z"/>
	</g>
</g>
<rect x="20.462" y="25.297" fill="none" stroke="#000000" stroke-width="0.5" stroke-miterlimit="10" width="24.623" height="24.625"/>
<g>
	<g>
		<g>
			
				<line fill="none" stroke="#000000" stroke-width="0.5" stroke-miterlimit="10" x1="76.123" y1="37.609" x2="60.604" y2="37.609"/>
			<g>
				<path d="M61.502,37.609l1.096,1.802l-0.062,0.04l-2.938-1.166c-1.023-0.226-2.047-0.45-3.07-0.676
					c1.023-0.225,2.047-0.45,3.07-0.676l2.938-1.166l0.062,0.03L61.502,37.609z"/>
			</g>
		</g>
	</g>
	<line fill="none" stroke="#000000" stroke-width="0.5" stroke-miterlimit="10" x1="60.604" y1="37.609" x2="45.085" y2="37.609"/>
</g>
<g>
	<g>
		<path fill="#010101" d="M90.134,37.968c-0.04,0.04-0.087,0.06-0.141,0.06h-6.235c-0.053,0-0.1-0.02-0.14-0.06
			c-0.04-0.04-0.06-0.087-0.06-0.14s0.02-0.1,0.06-0.14s0.086-0.06,0.14-0.06h6.235c0.054,0,0.101,0.02,0.141,0.06
			c0.039,0.04,0.06,0.087,0.06,0.14S90.173,37.928,90.134,37.968z M90.134,39.907c-0.04,0.04-0.087,0.06-0.141,0.06h-6.235
			c-0.053,0-0.1-0.02-0.14-0.06s-0.06-0.087-0.06-0.14s0.02-0.1,0.06-0.14c0.04-0.04,0.086-0.06,0.14-0.06h6.235
			c0.054,0,0.101,0.02,0.141,0.06c0.039,0.04,0.06,0.086,0.06,0.14S90.173,39.867,90.134,39.907z"/>
	</g>
</g>
<g>
	<g>
		<path fill="#010101" d="M320.801,37.968c-0.041,0.04-0.088,0.06-0.141,0.06h-6.235c-0.054,0-0.1-0.02-0.14-0.06
			c-0.04-0.04-0.061-0.087-0.061-0.14s0.021-0.1,0.061-0.14s0.086-0.06,0.14-0.06h6.235c0.053,0,0.1,0.02,0.141,0.06
			c0.039,0.04,0.059,0.087,0.059,0.14S320.84,37.928,320.801,37.968z M320.801,39.907c-0.041,0.04-0.088,0.06-0.141,0.06h-6.235
			c-0.054,0-0.1-0.02-0.14-0.06s-0.061-0.087-0.061-0.14s0.021-0.1,0.061-0.14c0.04-0.04,0.086-0.06,0.14-0.06h6.235
			c0.053,0,0.1,0.02,0.141,0.06c0.039,0.04,0.059,0.086,0.059,0.14S320.84,39.867,320.801,39.907z"/>
	</g>
</g>
<g>
	<g>
		<path fill="#010101" d="M38.322,43.384V43.26c0.193-0.063,0.344-0.163,0.449-0.298c0.106-0.134,0.16-0.276,0.16-0.427
			c0-0.036-0.009-0.066-0.025-0.091c-0.014-0.017-0.026-0.025-0.04-0.025c-0.021,0-0.065,0.019-0.135,0.057
			c-0.034,0.017-0.07,0.025-0.107,0.025c-0.093,0-0.166-0.027-0.221-0.082c-0.054-0.055-0.081-0.13-0.081-0.226
			c0-0.092,0.035-0.171,0.105-0.237c0.07-0.065,0.156-0.099,0.258-0.099c0.124,0,0.234,0.055,0.332,0.162
			c0.097,0.108,0.145,0.252,0.145,0.431c0,0.193-0.066,0.374-0.201,0.54C38.826,43.158,38.613,43.289,38.322,43.384z"/>
	</g>
	<g>
		<path fill="#010101" d="M36.267,42.467c-0.406,0-0.709-0.159-0.907-0.479c-0.198-0.319-0.297-0.805-0.297-1.456
			c0-0.346,0.03-0.645,0.091-0.897c0.062-0.252,0.147-0.46,0.257-0.624c0.11-0.165,0.242-0.287,0.396-0.366s0.322-0.118,0.505-0.118
			c0.412,0,0.719,0.159,0.92,0.477c0.201,0.318,0.302,0.799,0.302,1.442c0,0.666-0.107,1.169-0.323,1.511
			C36.996,42.296,36.681,42.467,36.267,42.467z M35.613,40.448c0,0.613,0.057,1.063,0.171,1.35c0.113,0.287,0.29,0.431,0.528,0.431
			c0.228,0,0.396-0.136,0.507-0.405c0.109-0.27,0.165-0.688,0.165-1.254c0-0.433-0.028-0.783-0.085-1.051
			c-0.057-0.269-0.135-0.461-0.235-0.577c-0.101-0.117-0.223-0.175-0.365-0.175c-0.13,0-0.238,0.038-0.326,0.115
			c-0.087,0.077-0.158,0.188-0.212,0.333c-0.053,0.145-0.091,0.321-0.114,0.529C35.624,39.952,35.613,40.186,35.613,40.448z"/>
		<path fill="#010101" d="M41.244,41.686c0,0.109,0.007,0.191,0.019,0.247c0.013,0.056,0.034,0.101,0.065,0.135
			c0.03,0.035,0.075,0.063,0.134,0.082c0.058,0.02,0.132,0.035,0.22,0.045c0.089,0.011,0.205,0.018,0.35,0.021v0.206h-2.084v-0.206
			c0.208-0.01,0.357-0.022,0.447-0.038c0.089-0.016,0.157-0.04,0.204-0.072c0.047-0.031,0.081-0.077,0.103-0.135
			c0.022-0.059,0.033-0.153,0.033-0.285v-2.288c0-0.075-0.014-0.131-0.04-0.165c-0.026-0.035-0.064-0.053-0.115-0.053
			c-0.061,0-0.146,0.031-0.257,0.094c-0.111,0.062-0.248,0.147-0.412,0.257l-0.124-0.218l1.32-0.787h0.155
			c-0.012,0.181-0.018,0.431-0.018,0.751V41.686z"/>
	</g>
	<g>
		<path fill="#010101" d="M35.091,35.33l0.046-0.138c0.128-0.031,0.217-0.064,0.268-0.1c0.053-0.037,0.096-0.089,0.131-0.157
			c0.034-0.067,0.074-0.171,0.121-0.31l0.813-2.441c0.043-0.13,0.071-0.224,0.081-0.284c0.01-0.059,0.009-0.104-0.001-0.138
			c-0.011-0.033-0.03-0.06-0.06-0.079s-0.083-0.042-0.162-0.066l0.047-0.138h1.543c0.299,0,0.529,0.032,0.688,0.096
			c0.161,0.064,0.264,0.159,0.312,0.284c0.046,0.125,0.037,0.286-0.028,0.483c-0.055,0.164-0.135,0.306-0.236,0.426
			c-0.104,0.121-0.219,0.22-0.348,0.299c-0.127,0.079-0.283,0.152-0.465,0.22l-0.008,0.026c0.229,0.077,0.384,0.195,0.462,0.356
			c0.077,0.161,0.08,0.352,0.006,0.575c-0.085,0.255-0.212,0.464-0.38,0.626c-0.167,0.162-0.366,0.279-0.595,0.352
			c-0.229,0.072-0.49,0.108-0.781,0.108H35.091z M36.04,35.062c0.132,0.013,0.283,0.02,0.452,0.02c0.247,0,0.448-0.031,0.604-0.093
			c0.158-0.062,0.287-0.154,0.389-0.275c0.102-0.122,0.183-0.273,0.243-0.456s0.078-0.333,0.051-0.452
			c-0.028-0.118-0.101-0.207-0.221-0.265c-0.119-0.059-0.302-0.087-0.546-0.087h-0.438L36.04,35.062z M37.151,33.205
			c0.286,0,0.528-0.07,0.726-0.208c0.197-0.138,0.34-0.339,0.427-0.603c0.044-0.129,0.059-0.237,0.045-0.323
			c-0.014-0.085-0.05-0.154-0.106-0.205c-0.058-0.051-0.134-0.087-0.228-0.108c-0.095-0.021-0.201-0.033-0.319-0.033
			c-0.071,0-0.166,0.002-0.284,0.006c-0.117,0.003-0.207,0.007-0.266,0.011l-0.487,1.462H37.151z"/>
		<path fill="#010101" d="M41.783,34.625c-0.036,0.108-0.062,0.19-0.074,0.245S41.692,34.968,41.694,35
			c0.002,0.033,0.009,0.06,0.021,0.081s0.032,0.04,0.063,0.057c0.028,0.017,0.077,0.035,0.144,0.054l-0.046,0.138h-1.183
			l0.047-0.138c0.111-0.027,0.193-0.056,0.246-0.088c0.052-0.032,0.098-0.081,0.135-0.146c0.038-0.066,0.083-0.177,0.135-0.333
			l0.394-1.182h-1.567l-0.394,1.182c-0.042,0.126-0.069,0.218-0.079,0.276c-0.012,0.059-0.013,0.104-0.004,0.138
			c0.008,0.034,0.027,0.062,0.059,0.085c0.031,0.022,0.086,0.044,0.164,0.068l-0.046,0.138h-1.188l0.046-0.138
			c0.128-0.031,0.217-0.064,0.268-0.1c0.053-0.037,0.096-0.089,0.131-0.157c0.034-0.067,0.074-0.171,0.121-0.31l0.813-2.441
			c0.043-0.13,0.071-0.224,0.081-0.284c0.01-0.059,0.009-0.104-0.001-0.138c-0.011-0.033-0.03-0.06-0.06-0.079
			s-0.083-0.042-0.162-0.066l0.047-0.138h1.188l-0.047,0.138c-0.089,0.021-0.155,0.042-0.199,0.062
			c-0.043,0.021-0.081,0.047-0.112,0.078c-0.033,0.032-0.064,0.078-0.096,0.14c-0.03,0.062-0.067,0.157-0.11,0.287l-0.333,0.999
			h1.567l0.333-0.999c0.054-0.163,0.084-0.275,0.088-0.335c0.005-0.06-0.007-0.106-0.034-0.138
			c-0.027-0.032-0.091-0.063-0.192-0.093l0.046-0.138h1.184l-0.047,0.138c-0.114,0.027-0.197,0.056-0.25,0.089
			c-0.052,0.033-0.097,0.083-0.133,0.148c-0.038,0.066-0.082,0.176-0.133,0.33L41.783,34.625z"/>
	</g>
	<g>
		<path fill="#010101" d="M33.894,39.836h-4.977v-0.181l2.551-3.06l-2.551-3.202v-0.175h4.825l0.151,1.649h-0.2
			c-0.049-0.449-0.173-0.77-0.374-0.961c-0.2-0.192-0.489-0.288-0.866-0.288h-2.273l2.083,2.621l-2.347,2.825h2.586
			c0.433,0,0.757-0.081,0.974-0.243c0.216-0.163,0.396-0.469,0.539-0.918l0.18,0.039L33.894,39.836z"/>
	</g>
	<g>
		<path fill="#010101" d="M28.163,37.478c-0.04,0.04-0.086,0.06-0.14,0.06h-5.686c-0.054,0-0.1-0.02-0.14-0.06
			s-0.06-0.086-0.06-0.14c0-0.054,0.02-0.1,0.06-0.14s0.086-0.06,0.14-0.06h5.686c0.053,0,0.1,0.02,0.14,0.06s0.06,0.086,0.06,0.14
			C28.223,37.391,28.203,37.438,28.163,37.478z"/>
	</g>
</g>
</svg>
