<?xml version="1.0" encoding="utf-8"?>
<!-- Generator: Adobe Illustrator 15.1.0, SVG Export Plug-In . SVG Version: 6.00 Build 0)  -->
<!DOCTYPE svg PUBLIC "-//W3C//DTD SVG 1.1//EN" "http://www.w3.org/Graphics/SVG/1.1/DTD/svg11.dtd">
<svg version="1.1" id="Layer_1" xmlns="http://www.w3.org/2000/svg" xmlns:xlink="http://www.w3.org/1999/xlink" x="0px" y="0px"
	 width="155.521px" height="46.137px" viewBox="0 0 155.521 46.137" enable-background="new 0 0 155.521 46.137"
	 xml:space="preserve">
<rect x="55.364" y="1.221" fill="none" stroke="#000000" stroke-width="0.5" stroke-miterlimit="10" width="44.666" height="44.666"/>
<circle fill="#FFFFFF" stroke="#000000" stroke-width="0.5" stroke-miterlimit="10" cx="102.866" cy="11.721" r="2.836"/>
<circle fill="#FFFFFF" stroke="#000000" stroke-width="0.5" stroke-miterlimit="10" cx="102.866" cy="23.068" r="2.836"/>
<circle fill="#FFFFFF" stroke="#000000" stroke-width="0.5" stroke-miterlimit="10" cx="102.866" cy="34.416" r="2.836"/>
<circle fill="#FFFFFF" stroke="#000000" stroke-width="0.5" stroke-miterlimit="10" cx="52.528" cy="11.721" r="2.836"/>
<circle fill="#FFFFFF" stroke="#000000" stroke-width="0.5" stroke-miterlimit="10" cx="52.528" cy="23.068" r="2.836"/>
<circle fill="#FFFFFF" stroke="#000000" stroke-width="0.5" stroke-miterlimit="10" cx="52.528" cy="34.416" r="2.836"/>
<g>
	<g>
		<path fill="#010101" d="M80.676,22.65c-0.012,0.014-0.024,0.021-0.04,0.021c-0.026,0-0.044-0.004-0.052-0.014
			c-0.218-0.201-0.404-0.43-0.56-0.688c-0.155-0.257-0.282-0.533-0.382-0.828c-0.1-0.294-0.173-0.602-0.221-0.923
			s-0.072-0.644-0.072-0.968s0.024-0.646,0.072-0.968c0.048-0.321,0.121-0.629,0.221-0.923c0.1-0.294,0.227-0.57,0.382-0.828
			c0.155-0.257,0.342-0.487,0.56-0.688c0.008-0.009,0.025-0.014,0.052-0.014c0.016,0,0.028,0.007,0.04,0.021
			c0.008,0.019,0.012,0.034,0.012,0.048c0,0.019-0.006,0.034-0.018,0.048c-0.184,0.206-0.339,0.436-0.465,0.691
			s-0.229,0.526-0.307,0.811c-0.079,0.285-0.135,0.581-0.167,0.886c-0.032,0.305-0.049,0.611-0.049,0.917
			c0,0.31,0.017,0.617,0.049,0.92s0.088,0.598,0.167,0.882c0.078,0.285,0.181,0.555,0.307,0.811s0.281,0.486,0.465,0.691
			c0.012,0.014,0.018,0.03,0.018,0.048C80.688,22.616,80.684,22.632,80.676,22.65z"/>
	</g>
	<g>
		<path fill="#010101" d="M86.063,20.219c-0.049,0.321-0.122,0.629-0.222,0.923c-0.1,0.294-0.227,0.57-0.382,0.828
			c-0.154,0.258-0.342,0.487-0.56,0.688c-0.016,0.009-0.026,0.014-0.034,0.014h-0.018c-0.016,0-0.028-0.007-0.04-0.021
			c-0.008-0.018-0.012-0.034-0.012-0.048c0-0.018,0.006-0.034,0.018-0.048c0.184-0.205,0.339-0.436,0.465-0.691
			s0.229-0.525,0.308-0.811c0.078-0.285,0.134-0.579,0.166-0.882s0.049-0.61,0.049-0.92c0-0.306-0.017-0.611-0.049-0.917
			c-0.032-0.306-0.088-0.601-0.166-0.886c-0.079-0.285-0.182-0.555-0.308-0.811s-0.281-0.485-0.465-0.691
			c-0.012-0.014-0.018-0.029-0.018-0.048c0-0.022,0.004-0.039,0.012-0.048c0.012-0.014,0.024-0.021,0.04-0.021h0.018
			c0.008,0,0.019,0.005,0.034,0.014c0.218,0.201,0.405,0.43,0.56,0.688c0.155,0.258,0.282,0.534,0.382,0.828
			c0.1,0.294,0.173,0.602,0.222,0.923c0.047,0.322,0.071,0.645,0.071,0.968S86.109,19.897,86.063,20.219z"/>
	</g>
	<g>
		<path fill="#010101" d="M81.027,29.29v-0.124c0.193-0.063,0.344-0.163,0.449-0.298c0.106-0.134,0.16-0.276,0.16-0.427
			c0-0.036-0.009-0.066-0.025-0.091c-0.014-0.017-0.026-0.025-0.04-0.025c-0.021,0-0.065,0.019-0.135,0.057
			c-0.034,0.017-0.07,0.025-0.107,0.025c-0.093,0-0.166-0.027-0.221-0.082c-0.054-0.055-0.081-0.13-0.081-0.226
			c0-0.092,0.035-0.171,0.105-0.237c0.07-0.065,0.156-0.099,0.258-0.099c0.124,0,0.234,0.055,0.332,0.162
			c0.097,0.108,0.145,0.252,0.145,0.431c0,0.193-0.066,0.374-0.201,0.54C81.531,29.063,81.318,29.194,81.027,29.29z"/>
	</g>
	<g>
		<path fill="#010101" d="M82.823,18.477l0.036,0.009c0.146-0.126,0.274-0.226,0.387-0.298c0.113-0.072,0.227-0.128,0.343-0.167
			c0.115-0.04,0.238-0.059,0.368-0.059c0.109,0,0.206,0.005,0.29,0.017l-0.217,0.649h-0.318c-0.011-0.102-0.033-0.176-0.069-0.223
			c-0.035-0.045-0.099-0.068-0.187-0.068c-0.068,0-0.141,0.02-0.221,0.059c-0.08,0.039-0.164,0.097-0.252,0.172
			c-0.086,0.075-0.152,0.146-0.197,0.211c-0.046,0.066-0.084,0.144-0.113,0.234l-0.33,0.988c-0.057,0.17-0.086,0.289-0.086,0.354
			c-0.002,0.064,0.018,0.112,0.055,0.143c0.038,0.029,0.103,0.054,0.192,0.07l-0.046,0.138h-1.137l0.046-0.138
			c0.079-0.023,0.138-0.042,0.173-0.059c0.037-0.017,0.072-0.041,0.104-0.071c0.033-0.03,0.065-0.077,0.098-0.139
			c0.031-0.062,0.069-0.159,0.113-0.29l0.409-1.23c0.041-0.121,0.07-0.217,0.092-0.291c0.021-0.073,0.027-0.131,0.02-0.176
			s-0.031-0.077-0.07-0.099c-0.039-0.021-0.099-0.04-0.178-0.055l0.049-0.146l0.67-0.029h0.172L82.823,18.477z"/>
	</g>
	<g>
		<path fill="#010101" d="M78.294,28.188c0.081-0.023,0.141-0.043,0.176-0.06c0.037-0.017,0.071-0.041,0.103-0.07
			c0.032-0.03,0.065-0.077,0.098-0.139c0.033-0.063,0.071-0.159,0.115-0.29l0.409-1.23c0.041-0.121,0.07-0.217,0.092-0.291
			c0.021-0.073,0.027-0.132,0.02-0.176c-0.008-0.045-0.031-0.077-0.07-0.1c-0.039-0.021-0.099-0.04-0.178-0.055l0.05-0.149
			l0.666-0.025h0.172l-0.673,2.018c-0.053,0.161-0.083,0.274-0.09,0.337c-0.006,0.063,0.008,0.11,0.039,0.144
			s0.091,0.062,0.178,0.087l-0.046,0.138h-1.105L78.294,28.188z M80.322,24.522l-0.183,0.547h-0.519l0.183-0.547H80.322z"/>
		<path fill="#010101" d="M83.771,28.271c-0.087,0.263-0.185,0.475-0.292,0.632c-0.107,0.158-0.246,0.293-0.418,0.402
			c-0.171,0.11-0.389,0.2-0.652,0.27l-0.014-0.248c0.133-0.046,0.235-0.089,0.31-0.128c0.075-0.041,0.141-0.088,0.198-0.142
			c0.057-0.055,0.111-0.126,0.162-0.217c0.051-0.09,0.1-0.205,0.146-0.346l0.699-2.097c0.049-0.146,0.08-0.252,0.096-0.316
			c0.017-0.063,0.021-0.113,0.015-0.15c-0.007-0.037-0.025-0.067-0.059-0.09c-0.031-0.021-0.095-0.044-0.192-0.064l0.05-0.149
			l0.669-0.025h0.172L83.771,28.271z M85.035,24.522l-0.183,0.547h-0.516l0.183-0.547H85.035z"/>
	</g>
	<g>
		<path fill="#010101" d="M77.349,21.125c0.623,0.071,1.033,0.326,1.227,0.766c0.193,0.439,0.188,0.964-0.016,1.576
			c-0.094,0.28-0.225,0.551-0.393,0.813c-0.17,0.263-0.352,0.491-0.549,0.688c-0.197,0.196-0.4,0.359-0.605,0.488
			c-0.205,0.128-0.417,0.227-0.635,0.295c-0.152,0.045-0.355,0.083-0.607,0.112l-0.674,2.021H74.55l0.674-2.021
			c-0.475-0.049-0.82-0.203-1.037-0.464c-0.379-0.452-0.434-1.082-0.164-1.889c0.105-0.318,0.24-0.605,0.408-0.858
			c0.165-0.254,0.349-0.477,0.551-0.668c0.203-0.193,0.406-0.35,0.611-0.472c0.205-0.122,0.41-0.214,0.617-0.275
			c0.146-0.045,0.346-0.083,0.592-0.112l0.779-2.338h0.547L77.349,21.125z M76.703,21.422c-0.231,0.052-0.42,0.123-0.563,0.215
			c-0.234,0.146-0.453,0.355-0.656,0.627c-0.203,0.271-0.381,0.641-0.537,1.105c-0.171,0.514-0.246,0.934-0.223,1.261
			s0.105,0.573,0.244,0.739c0.064,0.081,0.182,0.149,0.352,0.205L76.703,21.422z M75.866,25.575c0.213-0.045,0.389-0.11,0.527-0.195
			c0.254-0.156,0.482-0.372,0.686-0.649c0.203-0.276,0.387-0.661,0.551-1.156c0.152-0.452,0.229-0.835,0.232-1.149
			c0.004-0.313-0.057-0.555-0.178-0.725c-0.082-0.11-0.227-0.203-0.435-0.278L75.866,25.575z"/>
	</g>
	<g>
		<path fill="#010101" d="M73.048,23.375c-0.04,0.04-0.086,0.06-0.14,0.06h-5.686c-0.054,0-0.101-0.02-0.14-0.06
			c-0.041-0.04-0.061-0.086-0.061-0.14c0-0.054,0.02-0.1,0.061-0.14c0.039-0.04,0.086-0.06,0.14-0.06h5.686
			c0.054,0,0.1,0.02,0.14,0.06s0.061,0.086,0.061,0.14C73.108,23.289,73.088,23.335,73.048,23.375z"/>
	</g>
</g>
<g>
	<g>
		<g>
			
				<line fill="none" stroke="#000000" stroke-width="0.5" stroke-miterlimit="10" x1="49.692" y1="23.068" x2="28.552" y2="23.068"/>
			<g>
				<path d="M29.449,23.068l1.096,1.802l-0.062,0.041l-2.938-1.167c-1.023-0.226-2.047-0.45-3.07-0.676
					c1.023-0.225,2.047-0.45,3.07-0.676l2.938-1.167l0.062,0.031L29.449,23.068z"/>
			</g>
		</g>
	</g>
	<line fill="none" stroke="#000000" stroke-width="0.5" stroke-miterlimit="10" x1="28.552" y1="23.068" x2="7.411" y2="23.068"/>
</g>
<g>
	<g>
		<path fill="#010101" d="M143.168,21.682c-0.011,0.014-0.024,0.021-0.04,0.021c-0.027,0-0.044-0.004-0.052-0.014
			c-0.218-0.201-0.405-0.43-0.56-0.688c-0.155-0.257-0.282-0.533-0.382-0.828c-0.1-0.294-0.173-0.602-0.222-0.923
			c-0.047-0.321-0.071-0.644-0.071-0.968s0.024-0.646,0.071-0.968c0.049-0.321,0.122-0.629,0.222-0.923
			c0.1-0.294,0.227-0.57,0.382-0.828c0.154-0.257,0.342-0.487,0.56-0.688c0.008-0.009,0.024-0.014,0.052-0.014
			c0.016,0,0.029,0.007,0.04,0.021c0.008,0.019,0.012,0.034,0.012,0.048c0,0.019-0.006,0.034-0.017,0.048
			c-0.185,0.206-0.34,0.436-0.466,0.691s-0.229,0.526-0.308,0.811c-0.078,0.285-0.133,0.581-0.166,0.886
			c-0.033,0.305-0.049,0.611-0.049,0.917c0,0.31,0.016,0.617,0.049,0.92s0.088,0.598,0.166,0.882
			c0.079,0.285,0.182,0.555,0.308,0.811s0.281,0.486,0.466,0.691c0.011,0.014,0.017,0.03,0.017,0.048
			C143.18,21.647,143.176,21.664,143.168,21.682z"/>
	</g>
	<g>
		<path fill="#010101" d="M148.555,19.25c-0.049,0.321-0.122,0.629-0.222,0.923c-0.1,0.294-0.227,0.57-0.382,0.828
			c-0.154,0.258-0.342,0.487-0.56,0.688c-0.016,0.009-0.026,0.014-0.034,0.014h-0.018c-0.016,0-0.028-0.007-0.04-0.021
			c-0.008-0.018-0.012-0.034-0.012-0.048c0-0.018,0.006-0.034,0.018-0.048c0.184-0.205,0.339-0.436,0.465-0.691
			s0.229-0.525,0.308-0.811c0.078-0.285,0.134-0.579,0.166-0.882s0.049-0.61,0.049-0.92c0-0.306-0.017-0.611-0.049-0.917
			c-0.032-0.306-0.088-0.601-0.166-0.886c-0.079-0.285-0.182-0.555-0.308-0.811s-0.281-0.485-0.465-0.691
			c-0.012-0.014-0.018-0.029-0.018-0.048c0-0.022,0.004-0.039,0.012-0.048c0.012-0.014,0.024-0.021,0.04-0.021h0.018
			c0.008,0,0.019,0.005,0.034,0.014c0.218,0.201,0.405,0.43,0.56,0.688c0.155,0.258,0.282,0.534,0.382,0.828
			c0.1,0.294,0.173,0.602,0.222,0.923c0.047,0.322,0.071,0.645,0.071,0.968S148.602,18.929,148.555,19.25z"/>
	</g>
	<g>
		<path fill="#010101" d="M153.786,28.166c-0.02,0.023-0.043,0.036-0.069,0.036c-0.047,0-0.076-0.009-0.09-0.024
			c-0.378-0.348-0.701-0.746-0.97-1.192c-0.269-0.447-0.489-0.926-0.661-1.437c-0.173-0.511-0.301-1.044-0.383-1.603
			c-0.083-0.558-0.125-1.117-0.125-1.679c0-0.562,0.042-1.122,0.125-1.68c0.082-0.558,0.21-1.092,0.383-1.602
			c0.172-0.51,0.393-0.989,0.661-1.436c0.269-0.447,0.592-0.845,0.97-1.193c0.014-0.016,0.043-0.024,0.09-0.024
			c0.026,0,0.05,0.012,0.069,0.036c0.014,0.032,0.021,0.059,0.021,0.083c0,0.032-0.01,0.06-0.03,0.083
			c-0.318,0.356-0.587,0.756-0.806,1.199c-0.219,0.443-0.396,0.912-0.532,1.407s-0.232,1.007-0.288,1.537
			c-0.057,0.53-0.085,1.06-0.085,1.59c0,0.539,0.028,1.07,0.085,1.596c0.056,0.526,0.152,1.037,0.288,1.531s0.313,0.963,0.532,1.406
			s0.487,0.843,0.806,1.199c0.021,0.023,0.03,0.051,0.03,0.083C153.807,28.106,153.8,28.135,153.786,28.166z"/>
	</g>
	<g>
		<path fill="#010101" d="M170.53,23.946c-0.083,0.559-0.211,1.092-0.384,1.603c-0.172,0.511-0.393,0.989-0.661,1.437
			c-0.269,0.446-0.592,0.845-0.97,1.192c-0.026,0.016-0.047,0.024-0.06,0.024h-0.03c-0.026,0-0.05-0.013-0.069-0.036
			c-0.014-0.031-0.021-0.06-0.021-0.083c0-0.032,0.011-0.06,0.03-0.083c0.318-0.356,0.587-0.756,0.806-1.199
			s0.396-0.912,0.532-1.406s0.232-1.005,0.288-1.531c0.057-0.526,0.085-1.058,0.085-1.596c0-0.53-0.028-1.06-0.085-1.59
			c-0.056-0.53-0.152-1.042-0.288-1.537s-0.313-0.963-0.532-1.407c-0.219-0.443-0.487-0.843-0.806-1.199
			c-0.02-0.023-0.03-0.051-0.03-0.083c0-0.04,0.007-0.067,0.021-0.083c0.02-0.024,0.043-0.036,0.069-0.036h0.03
			c0.013,0,0.033,0.008,0.06,0.024c0.378,0.348,0.701,0.746,0.97,1.193c0.269,0.447,0.489,0.926,0.661,1.436
			c0.173,0.51,0.301,1.044,0.384,1.602c0.082,0.558,0.124,1.118,0.124,1.68C170.654,22.829,170.612,23.389,170.53,23.946z"/>
	</g>
	<g>
		<path fill="#010101" d="M144.987,28.321v-0.124c0.194-0.063,0.344-0.163,0.451-0.298c0.105-0.134,0.158-0.276,0.158-0.427
			c0-0.036-0.008-0.066-0.025-0.091c-0.013-0.017-0.025-0.025-0.039-0.025c-0.021,0-0.066,0.019-0.135,0.057
			c-0.034,0.017-0.07,0.025-0.107,0.025c-0.092,0-0.166-0.027-0.221-0.082s-0.082-0.13-0.082-0.226c0-0.092,0.036-0.171,0.106-0.237
			c0.07-0.065,0.157-0.099,0.259-0.099c0.123,0,0.234,0.055,0.33,0.162c0.098,0.108,0.146,0.252,0.146,0.431
			c0,0.193-0.068,0.374-0.202,0.54C145.492,28.095,145.279,28.226,144.987,28.321z"/>
	</g>
	<g>
		<path fill="#010101" d="M159.863,26.43v-0.215c0.335-0.11,0.594-0.282,0.777-0.515c0.185-0.232,0.276-0.479,0.276-0.739
			c0-0.062-0.015-0.114-0.044-0.156c-0.023-0.029-0.046-0.044-0.068-0.044c-0.036,0-0.114,0.032-0.234,0.098
			c-0.059,0.029-0.12,0.044-0.186,0.044c-0.159,0-0.286-0.047-0.381-0.142c-0.094-0.095-0.141-0.225-0.141-0.391
			c0-0.159,0.061-0.296,0.183-0.41c0.122-0.113,0.271-0.171,0.446-0.171c0.215,0,0.406,0.094,0.573,0.281
			c0.168,0.187,0.251,0.435,0.251,0.744c0,0.335-0.116,0.646-0.349,0.935S160.367,26.264,159.863,26.43z"/>
	</g>
	<g>
		<path fill="#010101" d="M143.333,26.623c0,0.109,0.006,0.191,0.019,0.247s0.034,0.101,0.065,0.135
			c0.031,0.035,0.075,0.063,0.134,0.082c0.058,0.02,0.132,0.035,0.22,0.045c0.088,0.011,0.205,0.018,0.35,0.021v0.206h-2.084v-0.206
			c0.209-0.01,0.357-0.022,0.447-0.038c0.089-0.016,0.157-0.04,0.204-0.072c0.047-0.031,0.081-0.077,0.103-0.135
			c0.021-0.059,0.033-0.153,0.033-0.285v-2.288c0-0.075-0.014-0.131-0.04-0.165c-0.026-0.035-0.065-0.053-0.116-0.053
			c-0.06,0-0.145,0.031-0.256,0.094c-0.111,0.062-0.248,0.147-0.412,0.257l-0.124-0.218l1.32-0.787h0.155
			c-0.012,0.181-0.018,0.431-0.018,0.751V26.623z"/>
		<path fill="#010101" d="M147.625,27.404c-0.406,0-0.709-0.159-0.907-0.479c-0.198-0.319-0.297-0.805-0.297-1.456
			c0-0.346,0.03-0.645,0.091-0.897c0.062-0.252,0.147-0.46,0.257-0.624c0.11-0.165,0.242-0.287,0.396-0.366s0.322-0.118,0.505-0.118
			c0.412,0,0.719,0.159,0.92,0.477c0.201,0.318,0.302,0.799,0.302,1.442c0,0.666-0.107,1.169-0.323,1.511
			C148.354,27.233,148.039,27.404,147.625,27.404z M146.971,25.385c0,0.613,0.057,1.063,0.171,1.35
			c0.113,0.287,0.29,0.431,0.528,0.431c0.228,0,0.396-0.136,0.507-0.405c0.109-0.27,0.165-0.688,0.165-1.254
			c0-0.433-0.028-0.783-0.085-1.051c-0.057-0.269-0.135-0.461-0.235-0.577c-0.101-0.117-0.223-0.175-0.365-0.175
			c-0.13,0-0.238,0.038-0.326,0.115c-0.087,0.077-0.158,0.188-0.212,0.333c-0.053,0.145-0.091,0.321-0.114,0.529
			C146.981,24.889,146.971,25.123,146.971,25.385z"/>
	</g>
	<g>
		<path fill="#010101" d="M156.883,24.844c-0.703,0-1.226-0.276-1.568-0.83c-0.344-0.553-0.516-1.392-0.516-2.518
			c0-0.599,0.054-1.116,0.159-1.552s0.254-0.796,0.444-1.081c0.189-0.285,0.418-0.496,0.685-0.632
			c0.268-0.137,0.559-0.205,0.874-0.205c0.712,0,1.242,0.275,1.59,0.825c0.349,0.55,0.522,1.381,0.522,2.494
			c0,1.152-0.187,2.023-0.559,2.614S157.598,24.844,156.883,24.844z M155.751,21.349c0,1.061,0.098,1.839,0.295,2.335
			c0.196,0.496,0.502,0.744,0.915,0.744c0.394,0,0.686-0.233,0.876-0.7c0.189-0.467,0.285-1.19,0.285-2.169
			c0-0.748-0.049-1.354-0.146-1.818c-0.098-0.463-0.233-0.796-0.407-0.998s-0.385-0.303-0.632-0.303c-0.225,0-0.412,0.067-0.563,0.2
			s-0.273,0.326-0.366,0.576s-0.158,0.555-0.197,0.915C155.771,20.491,155.751,20.897,155.751,21.349z"/>
		<path fill="#010101" d="M165.124,24.844c-0.703,0-1.226-0.276-1.568-0.83c-0.344-0.553-0.516-1.392-0.516-2.518
			c0-0.599,0.054-1.116,0.159-1.552s0.254-0.796,0.444-1.081c0.189-0.285,0.418-0.496,0.685-0.632
			c0.268-0.137,0.559-0.205,0.874-0.205c0.712,0,1.242,0.275,1.59,0.825c0.349,0.55,0.522,1.381,0.522,2.494
			c0,1.152-0.187,2.023-0.559,2.614S165.839,24.844,165.124,24.844z M163.992,21.349c0,1.061,0.098,1.839,0.295,2.335
			c0.196,0.496,0.502,0.744,0.915,0.744c0.394,0,0.686-0.233,0.876-0.7c0.189-0.467,0.285-1.19,0.285-2.169
			c0-0.748-0.049-1.354-0.146-1.818c-0.098-0.463-0.233-0.796-0.407-0.998s-0.385-0.303-0.632-0.303c-0.225,0-0.412,0.067-0.563,0.2
			s-0.273,0.326-0.366,0.576s-0.158,0.555-0.197,0.915C164.012,20.491,163.992,20.897,163.992,21.349z"/>
	</g>
	<g>
		<path fill="#010101" d="M145.315,17.508l0.036,0.009c0.146-0.126,0.274-0.226,0.387-0.298c0.113-0.072,0.227-0.128,0.343-0.167
			c0.115-0.04,0.238-0.059,0.368-0.059c0.109,0,0.206,0.005,0.29,0.017l-0.217,0.649h-0.318c-0.011-0.102-0.033-0.176-0.069-0.223
			c-0.035-0.045-0.099-0.068-0.187-0.068c-0.068,0-0.141,0.02-0.221,0.059c-0.08,0.039-0.164,0.097-0.252,0.172
			c-0.086,0.075-0.152,0.146-0.197,0.211c-0.046,0.066-0.084,0.144-0.113,0.234l-0.33,0.988c-0.057,0.17-0.086,0.289-0.086,0.354
			c-0.002,0.064,0.018,0.112,0.055,0.143c0.038,0.029,0.103,0.054,0.192,0.07l-0.046,0.138h-1.137l0.046-0.138
			c0.079-0.023,0.138-0.042,0.173-0.059c0.037-0.017,0.072-0.041,0.104-0.071c0.033-0.03,0.065-0.077,0.098-0.139
			c0.031-0.062,0.069-0.159,0.113-0.29l0.409-1.23c0.041-0.121,0.07-0.217,0.092-0.291c0.021-0.073,0.027-0.131,0.02-0.176
			s-0.031-0.077-0.07-0.099c-0.039-0.021-0.099-0.04-0.178-0.055l0.049-0.146l0.67-0.029h0.172L145.315,17.508z"/>
	</g>
	<g>
		<path fill="#010101" d="M140.653,24.766h-4.976v-0.181l2.552-3.06l-2.552-3.202v-0.175h4.825l0.15,1.649h-0.199
			c-0.049-0.449-0.174-0.77-0.373-0.961c-0.2-0.192-0.489-0.288-0.866-0.288h-2.273l2.083,2.621l-2.347,2.825h2.586
			c0.433,0,0.757-0.081,0.974-0.243c0.216-0.163,0.396-0.469,0.539-0.918l0.18,0.039L140.653,24.766z"/>
	</g>
	<g>
		<path fill="#010101" d="M125.991,21.438c-0.039,0.04-0.086,0.06-0.139,0.06h-6.236c-0.053,0-0.1-0.02-0.139-0.06
			c-0.041-0.04-0.061-0.087-0.061-0.14s0.02-0.1,0.061-0.14c0.039-0.04,0.086-0.06,0.139-0.06h6.236c0.053,0,0.1,0.02,0.139,0.06
			c0.041,0.04,0.061,0.087,0.061,0.14S126.032,21.397,125.991,21.438z M125.991,23.376c-0.039,0.04-0.086,0.061-0.139,0.061h-6.236
			c-0.053,0-0.1-0.021-0.139-0.061c-0.041-0.04-0.061-0.086-0.061-0.14c0-0.053,0.02-0.1,0.061-0.14
			c0.039-0.04,0.086-0.061,0.139-0.061h6.236c0.053,0,0.1,0.021,0.139,0.061c0.041,0.04,0.061,0.087,0.061,0.14
			C126.052,23.29,126.032,23.336,125.991,23.376z"/>
		<path fill="#010101" d="M134.915,22.407c-0.041,0.04-0.087,0.06-0.141,0.06h-5.686c-0.053,0-0.1-0.02-0.14-0.06
			s-0.06-0.086-0.06-0.14c0-0.054,0.02-0.1,0.06-0.14s0.087-0.06,0.14-0.06h5.686c0.054,0,0.1,0.02,0.141,0.06
			c0.039,0.04,0.06,0.086,0.06,0.14C134.975,22.32,134.954,22.367,134.915,22.407z"/>
	</g>
</g>
</svg>
