<?xml version="1.0" encoding="utf-8"?>
<!-- Generator: Adobe Illustrator 15.1.0, SVG Export Plug-In . SVG Version: 6.00 Build 0)  -->
<!DOCTYPE svg PUBLIC "-//W3C//DTD SVG 1.1//EN" "http://www.w3.org/Graphics/SVG/1.1/DTD/svg11.dtd">
<svg version="1.1" id="Layer_1" xmlns="http://www.w3.org/2000/svg" xmlns:xlink="http://www.w3.org/1999/xlink" x="0px" y="0px"
	 width="168.325px" height="43.548px" viewBox="0 0 168.325 43.548" enable-background="new 0 0 168.325 43.548"
	 xml:space="preserve">
<rect x="31.038" y="9.466" fill="none" stroke="#000000" stroke-width="0.5" stroke-miterlimit="10" width="24.623" height="24.625"/>
<g>
	<g>
		<g>
			<line fill="none" stroke="#000000" stroke-width="0.5" stroke-miterlimit="10" x1="55.661" y1="21.778" x2="71.18" y2="21.778"/>
			<g>
				<path d="M70.282,21.778l-1.096-1.801l0.062-0.041l2.938,1.167c1.023,0.225,2.047,0.45,3.07,0.675
					c-1.023,0.225-2.047,0.45-3.07,0.675l-2.938,1.167l-0.062-0.031L70.282,21.778z"/>
			</g>
		</g>
	</g>
	<line fill="none" stroke="#000000" stroke-width="0.5" stroke-miterlimit="10" x1="71.18" y1="21.778" x2="86.699" y2="21.778"/>
</g>
<g>
	<g>
		<path fill="#010101" d="M100.71,22.137c-0.04,0.04-0.087,0.06-0.141,0.06h-6.235c-0.053,0-0.1-0.02-0.14-0.06
			c-0.04-0.04-0.06-0.087-0.06-0.14s0.02-0.1,0.06-0.14s0.086-0.06,0.14-0.06h6.235c0.054,0,0.101,0.02,0.141,0.06
			c0.039,0.04,0.06,0.087,0.06,0.14S100.75,22.097,100.71,22.137z M100.71,24.076c-0.04,0.04-0.087,0.06-0.141,0.06h-6.235
			c-0.053,0-0.1-0.02-0.14-0.06s-0.06-0.087-0.06-0.14s0.02-0.1,0.06-0.14c0.04-0.04,0.086-0.06,0.14-0.06h6.235
			c0.054,0,0.101,0.02,0.141,0.06c0.039,0.04,0.06,0.086,0.06,0.14S100.75,24.036,100.71,24.076z"/>
	</g>
</g>
<g>
	<g>
		<g>
			<line fill="none" stroke="#000000" stroke-width="0.5" stroke-miterlimit="10" x1="31.038" y1="21.778" x2="15.52" y2="21.778"/>
			<g>
				<path d="M16.417,21.778l1.096,1.801l-0.062,0.041l-2.938-1.167c-1.023-0.225-2.047-0.45-3.07-0.675
					c1.023-0.225,2.047-0.45,3.07-0.675l2.938-1.167l0.062,0.031L16.417,21.778z"/>
			</g>
		</g>
	</g>
	<line fill="none" stroke="#000000" stroke-width="0.5" stroke-miterlimit="10" x1="15.52" y1="21.778" x2="0" y2="21.778"/>
</g>
<g>
	<g>
		<g>
			
				<line fill="none" stroke="#000000" stroke-width="0.5" stroke-linecap="round" stroke-miterlimit="10" x1="158.136" y1="38.977" x2="136.402" y2="38.977"/>
			<g>
				<path d="M137.299,38.977l1.096,1.801l-0.062,0.041l-2.938-1.167c-1.023-0.225-2.047-0.45-3.07-0.675
					c1.023-0.225,2.047-0.45,3.07-0.675l2.938-1.167l0.062,0.031L137.299,38.977z"/>
			</g>
		</g>
	</g>
	
		<line fill="none" stroke="#000000" stroke-width="0.5" stroke-linecap="round" stroke-miterlimit="10" x1="136.402" y1="38.977" x2="114.667" y2="38.977"/>
</g>
<g>
	<g>
		
			<line fill="none" stroke="#000000" stroke-width="0.5" stroke-linecap="round" stroke-miterlimit="10" stroke-dasharray="2,1" x1="158.136" y1="38.977" x2="158.136" y2="19.902"/>
		<g>
			<path d="M158.136,20.799l-1.802,1.096l-0.041-0.062l1.167-2.938c0.226-1.023,0.45-2.047,0.676-3.07
				c0.226,1.023,0.45,2.047,0.676,3.07l1.167,2.938l-0.031,0.062L158.136,20.799z"/>
		</g>
	</g>
</g>
<g>
	<g>
		<g>
			
				<line fill="none" stroke="#000000" stroke-width="0.5" stroke-linecap="round" stroke-miterlimit="10" x1="158.136" y1="3.087" x2="136.402" y2="3.087"/>
			<g>
				<path d="M137.299,3.087l1.096,1.801l-0.062,0.041l-2.938-1.166c-1.023-0.225-2.047-0.451-3.07-0.676
					c1.023-0.225,2.047-0.45,3.07-0.676l2.938-1.166l0.062,0.03L137.299,3.087z"/>
			</g>
		</g>
	</g>
	
		<line fill="none" stroke="#000000" stroke-width="0.5" stroke-linecap="round" stroke-miterlimit="10" x1="136.402" y1="3.087" x2="114.667" y2="3.087"/>
</g>
<g>
	<g>
		<path fill="#010101" d="M132.349,36.521v-0.215c0.335-0.11,0.594-0.282,0.778-0.515c0.184-0.232,0.275-0.479,0.275-0.739
			c0-0.062-0.015-0.114-0.044-0.156c-0.022-0.029-0.045-0.044-0.068-0.044c-0.036,0-0.114,0.032-0.234,0.098
			c-0.059,0.029-0.121,0.044-0.186,0.044c-0.159,0-0.286-0.047-0.38-0.142s-0.142-0.225-0.142-0.391c0-0.159,0.061-0.296,0.183-0.41
			c0.122-0.113,0.271-0.171,0.446-0.171c0.215,0,0.406,0.094,0.573,0.281c0.167,0.187,0.251,0.435,0.251,0.744
			c0,0.335-0.116,0.646-0.349,0.935C133.222,36.128,132.854,36.354,132.349,36.521z"/>
	</g>
	<g>
		<path fill="#010101" d="M148.488,37.442h-1.111l0.046-0.138c0.082-0.023,0.141-0.043,0.178-0.06
			c0.038-0.017,0.072-0.041,0.104-0.07c0.033-0.03,0.064-0.077,0.098-0.14c0.033-0.063,0.071-0.159,0.114-0.286l0.246-0.74
			c0.044-0.131,0.08-0.251,0.108-0.358s0.045-0.194,0.051-0.264c0.004-0.068,0-0.122-0.013-0.16c-0.013-0.039-0.032-0.071-0.057-0.1
			c-0.026-0.026-0.059-0.049-0.099-0.064c-0.039-0.016-0.097-0.024-0.17-0.024s-0.147,0.015-0.224,0.045
			c-0.075,0.028-0.164,0.078-0.267,0.149c-0.104,0.072-0.185,0.144-0.242,0.213c-0.06,0.069-0.104,0.148-0.134,0.239l-0.351,1.053
			c-0.055,0.161-0.084,0.274-0.09,0.337c-0.007,0.063,0.007,0.11,0.037,0.145c0.031,0.032,0.092,0.061,0.179,0.086l-0.046,0.138
			h-1.105l0.046-0.138c0.081-0.023,0.14-0.043,0.176-0.06c0.037-0.017,0.071-0.041,0.103-0.07c0.032-0.03,0.064-0.077,0.098-0.139
			c0.033-0.063,0.071-0.159,0.115-0.29l0.41-1.23c0.039-0.121,0.07-0.217,0.091-0.291c0.021-0.073,0.027-0.132,0.02-0.176
			c-0.008-0.045-0.031-0.077-0.07-0.1c-0.039-0.021-0.099-0.04-0.178-0.055l0.05-0.149l0.669-0.025h0.172l-0.185,0.46l0.035,0.012
			c0.187-0.141,0.333-0.242,0.438-0.303c0.105-0.06,0.208-0.106,0.306-0.14c0.099-0.032,0.197-0.049,0.295-0.049
			c0.102,0,0.188,0.012,0.261,0.035c0.071,0.023,0.13,0.06,0.175,0.108s0.074,0.109,0.09,0.183c0.016,0.072,0.016,0.159,0.002,0.26
			c-0.014,0.103-0.047,0.231-0.1,0.388l-0.354,1.063c-0.044,0.13-0.071,0.224-0.082,0.282c-0.014,0.058-0.015,0.104-0.007,0.135
			c0.008,0.032,0.026,0.06,0.056,0.081c0.027,0.021,0.082,0.044,0.162,0.069L148.488,37.442z"/>
	</g>
	<g>
		<path fill="#010101" d="M135.643,34.598c0.14-0.039,0.241-0.073,0.305-0.104c0.063-0.028,0.122-0.069,0.177-0.121
			c0.055-0.053,0.111-0.132,0.168-0.24c0.056-0.106,0.123-0.273,0.199-0.502l0.709-2.128c0.069-0.208,0.122-0.375,0.157-0.502
			s0.047-0.229,0.033-0.306c-0.014-0.076-0.054-0.134-0.121-0.171c-0.068-0.037-0.169-0.069-0.307-0.095l0.086-0.258l1.151-0.044
			h0.298l-1.163,3.489c-0.093,0.28-0.145,0.475-0.157,0.584c-0.01,0.108,0.013,0.191,0.067,0.248
			c0.054,0.058,0.157,0.106,0.309,0.149l-0.08,0.239h-1.912L135.643,34.598z M139.149,28.257l-0.315,0.947h-0.897l0.315-0.947
			H139.149z"/>
	</g>
	<g>
		<path fill="#010101" d="M144.11,30.41l0.059-0.175c0.549,0,0.967,0.093,1.253,0.28c0.285,0.187,0.465,0.488,0.541,0.903
			c0.074,0.415,0.029,0.87-0.136,1.364c-0.14,0.419-0.351,0.804-0.633,1.152c-0.281,0.348-0.596,0.611-0.943,0.788
			c-0.347,0.178-0.649,0.266-0.91,0.266c-0.286,0-0.504-0.081-0.65-0.243c-0.148-0.163-0.244-0.415-0.29-0.757
			c-0.294,0.345-0.58,0.598-0.86,0.76c-0.279,0.16-0.559,0.24-0.839,0.24c-0.243,0-0.473-0.087-0.687-0.261
			s-0.344-0.442-0.389-0.806c-0.044-0.362,0.004-0.755,0.146-1.178c0.152-0.458,0.385-0.876,0.695-1.254
			c0.241-0.293,0.504-0.535,0.792-0.728c0.286-0.191,0.568-0.327,0.845-0.407c0.277-0.08,0.608-0.119,0.997-0.119l-0.059,0.175
			c-0.468,0.045-0.913,0.259-1.334,0.642c-0.422,0.383-0.756,0.944-1.004,1.686c-0.244,0.732-0.311,1.268-0.199,1.611
			c0.068,0.204,0.226,0.308,0.473,0.308c0.205,0,0.428-0.085,0.668-0.254c0.239-0.169,0.498-0.476,0.775-0.918
			c-0.016-0.38-0.015-0.664,0.003-0.849c0.019-0.186,0.056-0.362,0.112-0.532c0.105-0.316,0.269-0.587,0.49-0.815
			c0.11-0.114,0.213-0.17,0.311-0.17c0.101,0,0.169,0.057,0.202,0.17c0.068,0.215,0.051,0.477-0.052,0.786
			c-0.126,0.378-0.389,0.848-0.787,1.411c-0.022,0.446,0.026,0.746,0.146,0.901c0.119,0.154,0.286,0.231,0.501,0.231
			c0.254,0,0.492-0.1,0.715-0.298c0.299-0.267,0.572-0.766,0.816-1.499c0.296-0.887,0.317-1.543,0.064-1.966
			C144.791,30.597,144.513,30.449,144.11,30.41z"/>
	</g>
	<g>
		<path fill="#010101" stroke="#010101" stroke-width="0.2856" stroke-miterlimit="10" d="M127.815,32.138h0.156
			c0.107,0,0.195-0.012,0.263-0.034c0.082-0.029,0.171-0.079,0.269-0.149s0.236-0.188,0.415-0.354
			c0.15-0.14,0.263-0.258,0.339-0.356c0.076-0.098,0.129-0.187,0.159-0.269c0.026-0.068,0.039-0.137,0.039-0.205
			c0-0.098-0.03-0.174-0.09-0.229c-0.061-0.055-0.159-0.093-0.295-0.112v-0.239h2.103v0.239c-0.15,0.029-0.309,0.096-0.479,0.2
			c-0.169,0.104-0.343,0.241-0.522,0.41l-1.122,1.064l1.405,1.834c0.163,0.215,0.31,0.374,0.441,0.477s0.276,0.17,0.432,0.202v0.239
			h-1.874v-0.239c0.085-0.01,0.147-0.028,0.188-0.056c0.041-0.028,0.061-0.074,0.061-0.14c0-0.049-0.009-0.097-0.027-0.144
			s-0.055-0.111-0.11-0.193c-0.055-0.081-0.156-0.223-0.302-0.424l-0.581-0.781c-0.111-0.146-0.189-0.242-0.237-0.288
			c-0.047-0.045-0.097-0.078-0.149-0.098c-0.052-0.02-0.122-0.029-0.209-0.029h-0.273v1.172c0,0.279,0.013,0.474,0.039,0.583
			c0.026,0.108,0.076,0.191,0.149,0.249c0.073,0.057,0.192,0.106,0.358,0.148v0.239h-1.937v-0.239
			c0.163-0.042,0.276-0.086,0.339-0.132c0.063-0.045,0.109-0.1,0.137-0.163c0.027-0.063,0.047-0.149,0.059-0.259
			c0.011-0.109,0.017-0.251,0.017-0.427v-4.085c0-0.312-0.002-0.53-0.007-0.654s-0.018-0.229-0.039-0.315
			c-0.021-0.086-0.051-0.154-0.088-0.202c-0.038-0.049-0.088-0.088-0.151-0.117s-0.178-0.059-0.344-0.088v-0.254l1.176-0.049h0.292
			V32.138z"/>
	</g>
</g>
<g>
	<g>
		<path fill="#010101" d="M133.014,14.531v-0.215c0.335-0.11,0.594-0.282,0.778-0.515c0.184-0.232,0.275-0.479,0.275-0.739
			c0-0.062-0.015-0.114-0.044-0.156c-0.022-0.029-0.045-0.044-0.068-0.044c-0.036,0-0.114,0.032-0.234,0.098
			c-0.059,0.029-0.121,0.044-0.186,0.044c-0.159,0-0.286-0.047-0.38-0.142s-0.142-0.225-0.142-0.391c0-0.159,0.061-0.296,0.183-0.41
			c0.122-0.113,0.271-0.171,0.446-0.171c0.215,0,0.406,0.094,0.573,0.281c0.167,0.187,0.251,0.435,0.251,0.744
			c0,0.335-0.116,0.646-0.349,0.935C133.886,14.139,133.518,14.365,133.014,14.531z"/>
	</g>
	<g>
		<path fill="#010101" d="M149.153,15.453h-1.111l0.046-0.138c0.082-0.023,0.141-0.043,0.178-0.06
			c0.038-0.017,0.072-0.041,0.104-0.07c0.033-0.03,0.064-0.077,0.098-0.14c0.033-0.063,0.071-0.159,0.114-0.286l0.246-0.74
			c0.044-0.131,0.08-0.251,0.108-0.358s0.045-0.194,0.051-0.264c0.004-0.068,0-0.122-0.013-0.16c-0.013-0.039-0.032-0.071-0.057-0.1
			c-0.026-0.026-0.059-0.049-0.099-0.064c-0.039-0.016-0.097-0.024-0.17-0.024s-0.147,0.015-0.224,0.045
			c-0.075,0.028-0.164,0.078-0.267,0.149c-0.104,0.072-0.185,0.144-0.242,0.213c-0.06,0.069-0.104,0.148-0.134,0.239l-0.351,1.053
			c-0.055,0.161-0.084,0.274-0.09,0.337c-0.007,0.063,0.007,0.11,0.037,0.145c0.031,0.032,0.092,0.061,0.179,0.086l-0.046,0.138
			h-1.105l0.046-0.138c0.081-0.023,0.14-0.043,0.176-0.06c0.037-0.017,0.071-0.041,0.103-0.07c0.032-0.03,0.064-0.077,0.098-0.139
			c0.033-0.063,0.071-0.159,0.115-0.29l0.41-1.23c0.039-0.121,0.07-0.217,0.091-0.291c0.021-0.073,0.027-0.132,0.02-0.176
			c-0.008-0.045-0.031-0.077-0.07-0.1c-0.039-0.021-0.099-0.04-0.178-0.055l0.05-0.149l0.669-0.025h0.172l-0.185,0.46l0.035,0.012
			c0.187-0.141,0.333-0.242,0.438-0.303c0.105-0.06,0.208-0.106,0.306-0.14c0.099-0.032,0.197-0.049,0.295-0.049
			c0.102,0,0.188,0.012,0.261,0.035c0.071,0.023,0.13,0.06,0.175,0.108s0.074,0.109,0.09,0.183c0.016,0.072,0.016,0.159,0.002,0.26
			c-0.014,0.103-0.047,0.231-0.1,0.388l-0.354,1.063c-0.044,0.13-0.071,0.224-0.082,0.282c-0.014,0.058-0.015,0.104-0.007,0.135
			c0.008,0.032,0.026,0.06,0.056,0.081c0.027,0.021,0.082,0.044,0.162,0.069L149.153,15.453z"/>
	</g>
	<g>
		<path fill="#010101" d="M136.307,12.608c0.14-0.039,0.241-0.073,0.305-0.104c0.063-0.028,0.122-0.069,0.177-0.121
			c0.055-0.053,0.111-0.132,0.168-0.24c0.056-0.106,0.123-0.273,0.199-0.502l0.709-2.128c0.069-0.208,0.122-0.375,0.157-0.502
			s0.047-0.229,0.033-0.306c-0.014-0.076-0.054-0.134-0.121-0.171c-0.068-0.037-0.169-0.069-0.307-0.095l0.086-0.258l1.151-0.044
			h0.298L138,11.627c-0.093,0.28-0.145,0.475-0.157,0.584c-0.01,0.108,0.013,0.191,0.067,0.248c0.054,0.058,0.157,0.106,0.309,0.149
			l-0.08,0.239h-1.912L136.307,12.608z M139.814,6.268l-0.315,0.947h-0.897l0.315-0.947H139.814z"/>
	</g>
	<g>
		<path fill="#010101" d="M144.775,8.42l0.059-0.175c0.549,0,0.967,0.093,1.253,0.28c0.285,0.187,0.465,0.488,0.541,0.903
			c0.074,0.415,0.029,0.87-0.136,1.364c-0.14,0.419-0.351,0.804-0.633,1.152c-0.281,0.348-0.596,0.611-0.943,0.788
			c-0.347,0.178-0.649,0.266-0.91,0.266c-0.286,0-0.504-0.081-0.65-0.243c-0.148-0.163-0.244-0.415-0.29-0.757
			c-0.294,0.345-0.58,0.598-0.86,0.76c-0.279,0.16-0.559,0.24-0.839,0.24c-0.243,0-0.473-0.087-0.687-0.261
			s-0.344-0.442-0.389-0.806c-0.044-0.362,0.004-0.755,0.146-1.178c0.152-0.458,0.385-0.876,0.695-1.254
			c0.241-0.293,0.504-0.535,0.792-0.728c0.286-0.191,0.568-0.327,0.845-0.407c0.277-0.08,0.608-0.119,0.997-0.119l-0.059,0.175
			c-0.468,0.045-0.913,0.259-1.334,0.642c-0.422,0.383-0.756,0.944-1.004,1.686c-0.244,0.732-0.311,1.268-0.199,1.611
			c0.068,0.204,0.226,0.308,0.473,0.308c0.205,0,0.428-0.085,0.668-0.254c0.239-0.169,0.498-0.476,0.775-0.918
			c-0.016-0.38-0.015-0.664,0.003-0.849c0.019-0.186,0.056-0.362,0.112-0.532c0.105-0.316,0.269-0.587,0.49-0.815
			c0.11-0.114,0.213-0.17,0.311-0.17c0.101,0,0.169,0.057,0.202,0.17c0.068,0.215,0.051,0.477-0.052,0.786
			c-0.126,0.378-0.389,0.848-0.787,1.411c-0.022,0.446,0.026,0.746,0.146,0.901c0.119,0.154,0.286,0.231,0.501,0.231
			c0.254,0,0.492-0.1,0.715-0.298c0.299-0.267,0.572-0.766,0.816-1.499c0.296-0.887,0.317-1.543,0.064-1.966
			C145.456,8.607,145.177,8.459,144.775,8.42z"/>
	</g>
	<g>
		<path fill="#010101" stroke="#010101" stroke-width="0.2856" stroke-miterlimit="10" d="M128.479,10.149h0.156
			c0.107,0,0.195-0.012,0.263-0.034c0.082-0.029,0.171-0.079,0.269-0.149s0.236-0.188,0.415-0.354
			c0.15-0.14,0.263-0.258,0.339-0.356c0.076-0.098,0.129-0.187,0.159-0.269c0.026-0.068,0.039-0.137,0.039-0.205
			c0-0.098-0.03-0.174-0.09-0.229c-0.061-0.055-0.159-0.093-0.295-0.112V8.202h2.103V8.44c-0.15,0.029-0.309,0.096-0.479,0.2
			c-0.169,0.104-0.343,0.241-0.522,0.41l-1.122,1.064l1.405,1.834c0.163,0.215,0.31,0.374,0.441,0.477s0.276,0.17,0.432,0.202v0.239
			h-1.874v-0.239c0.085-0.01,0.147-0.028,0.188-0.056c0.041-0.028,0.061-0.074,0.061-0.14c0-0.049-0.009-0.097-0.027-0.144
			s-0.055-0.111-0.11-0.193c-0.055-0.081-0.156-0.223-0.302-0.424l-0.581-0.781c-0.111-0.146-0.189-0.242-0.237-0.288
			c-0.047-0.045-0.097-0.078-0.149-0.098c-0.052-0.02-0.122-0.029-0.209-0.029h-0.273v1.172c0,0.279,0.013,0.474,0.039,0.583
			c0.026,0.108,0.076,0.191,0.149,0.249c0.073,0.057,0.192,0.106,0.358,0.148v0.239h-1.937v-0.239
			c0.163-0.042,0.276-0.086,0.339-0.132c0.063-0.045,0.109-0.1,0.137-0.163c0.027-0.063,0.047-0.149,0.059-0.259
			c0.011-0.109,0.017-0.251,0.017-0.427V7.562c0-0.312-0.002-0.53-0.007-0.654s-0.018-0.229-0.039-0.315
			c-0.021-0.086-0.051-0.154-0.088-0.202c-0.038-0.049-0.088-0.088-0.151-0.117s-0.178-0.059-0.344-0.088V5.932l1.176-0.049h0.292
			V10.149z"/>
	</g>
</g>
<circle fill="#FFFFFF" stroke="#000000" stroke-width="0.5" stroke-miterlimit="10" cx="160.972" cy="3.087" r="2.836"/>
<circle fill="#FFFFFF" stroke="#000000" stroke-width="0.5" stroke-miterlimit="10" cx="160.972" cy="38.977" r="2.836"/>
<line fill="none" stroke="#000000" stroke-width="0.5" stroke-linecap="round" stroke-miterlimit="10" stroke-dasharray="2,1" x1="158.136" y1="15.826" x2="158.136" y2="3.087"/>
<g>
	<g>
		<path fill="#010101" stroke="#010101" stroke-width="0.2856" stroke-miterlimit="10" d="M164.526,14.549h0.156
			c0.107,0,0.195-0.011,0.263-0.034c0.082-0.029,0.171-0.078,0.269-0.148s0.236-0.188,0.415-0.354
			c0.15-0.14,0.263-0.258,0.339-0.356c0.076-0.098,0.129-0.187,0.159-0.269c0.026-0.068,0.039-0.137,0.039-0.205
			c0-0.098-0.03-0.174-0.09-0.229c-0.061-0.055-0.159-0.093-0.295-0.112v-0.239h2.103v0.239c-0.149,0.029-0.31,0.096-0.479,0.2
			c-0.169,0.104-0.343,0.241-0.521,0.41l-1.123,1.063l1.405,1.835c0.163,0.215,0.311,0.374,0.442,0.477
			c0.131,0.103,0.275,0.17,0.432,0.202v0.239h-1.874v-0.239c0.085-0.01,0.147-0.028,0.188-0.056c0.041-0.028,0.061-0.074,0.061-0.14
			c0-0.049-0.009-0.097-0.027-0.144s-0.055-0.111-0.11-0.193c-0.055-0.081-0.156-0.223-0.302-0.424l-0.581-0.781
			c-0.111-0.146-0.189-0.242-0.237-0.288c-0.047-0.045-0.097-0.078-0.149-0.098c-0.052-0.02-0.122-0.029-0.209-0.029h-0.273v1.172
			c0,0.279,0.013,0.474,0.039,0.583c0.026,0.108,0.076,0.191,0.149,0.249c0.073,0.057,0.192,0.106,0.358,0.148v0.239h-1.937v-0.239
			c0.163-0.042,0.276-0.086,0.339-0.132c0.063-0.045,0.109-0.1,0.137-0.163c0.027-0.063,0.047-0.149,0.059-0.259
			c0.011-0.109,0.017-0.251,0.017-0.427v-4.085c0-0.312-0.002-0.53-0.007-0.654s-0.018-0.229-0.039-0.315
			c-0.021-0.086-0.051-0.154-0.088-0.202c-0.038-0.049-0.088-0.088-0.151-0.117s-0.178-0.059-0.344-0.088v-0.254l1.176-0.049h0.292
			V14.549z"/>
	</g>
</g>
<g>
	<g>
		<path fill="#010101" d="M48.765,27.382v-0.124c0.193-0.063,0.344-0.163,0.449-0.298c0.106-0.134,0.16-0.276,0.16-0.427
			c0-0.036-0.009-0.066-0.025-0.091c-0.014-0.017-0.026-0.025-0.04-0.025c-0.021,0-0.065,0.019-0.135,0.057
			c-0.034,0.017-0.07,0.025-0.107,0.025c-0.093,0-0.166-0.027-0.221-0.082c-0.054-0.055-0.081-0.13-0.081-0.226
			c0-0.092,0.035-0.171,0.105-0.237c0.07-0.065,0.156-0.099,0.258-0.099c0.124,0,0.234,0.055,0.332,0.162
			c0.097,0.108,0.145,0.252,0.145,0.431c0,0.193-0.066,0.374-0.201,0.54C49.269,27.155,49.056,27.286,48.765,27.382z"/>
	</g>
	<g>
		<path fill="#010101" d="M47.102,25.684c0,0.109,0.007,0.191,0.019,0.247c0.013,0.056,0.034,0.101,0.065,0.135
			c0.03,0.035,0.075,0.063,0.134,0.082c0.058,0.02,0.132,0.035,0.22,0.045c0.089,0.011,0.205,0.018,0.35,0.021v0.206h-2.084v-0.206
			c0.208-0.01,0.357-0.022,0.447-0.038c0.089-0.016,0.157-0.04,0.204-0.072c0.047-0.031,0.081-0.077,0.103-0.135
			c0.022-0.059,0.033-0.153,0.033-0.285v-2.288c0-0.075-0.014-0.131-0.04-0.165c-0.026-0.035-0.064-0.053-0.115-0.053
			c-0.061,0-0.146,0.031-0.257,0.094c-0.111,0.062-0.248,0.147-0.412,0.257l-0.124-0.218l1.32-0.787h0.155
			c-0.012,0.181-0.018,0.431-0.018,0.751V25.684z"/>
		<path fill="#010101" d="M51.806,25.969c0.092,0,0.166-0.006,0.223-0.018c0.057-0.011,0.102-0.029,0.135-0.056
			c0.034-0.026,0.062-0.062,0.081-0.104s0.044-0.107,0.074-0.196h0.24l-0.048,0.824H50.19v-0.136
			c0.08-0.197,0.189-0.399,0.327-0.606c0.137-0.207,0.331-0.45,0.584-0.73c0.218-0.241,0.375-0.424,0.471-0.548
			c0.105-0.135,0.184-0.252,0.235-0.351s0.089-0.192,0.111-0.279c0.022-0.088,0.034-0.176,0.034-0.265
			c0-0.141-0.022-0.266-0.068-0.373c-0.045-0.108-0.113-0.193-0.207-0.256c-0.093-0.062-0.21-0.093-0.351-0.093
			c-0.352,0-0.589,0.195-0.711,0.587h-0.342v-0.542c0.228-0.107,0.44-0.185,0.639-0.232c0.199-0.048,0.377-0.072,0.535-0.072
			c0.35,0,0.613,0.077,0.792,0.229c0.179,0.153,0.269,0.376,0.269,0.668c0,0.1-0.01,0.191-0.03,0.274
			c-0.02,0.084-0.05,0.167-0.093,0.249c-0.042,0.082-0.099,0.17-0.171,0.264c-0.071,0.094-0.15,0.189-0.236,0.286
			c-0.087,0.097-0.236,0.258-0.448,0.484c-0.357,0.378-0.62,0.708-0.787,0.99H51.806z"/>
	</g>
	<g>
		<path fill="#010101" d="M45.595,19.338l0.046-0.138c0.128-0.031,0.217-0.064,0.268-0.1c0.053-0.037,0.096-0.089,0.131-0.157
			c0.034-0.067,0.074-0.171,0.121-0.31l0.813-2.441c0.043-0.13,0.071-0.224,0.081-0.284c0.01-0.059,0.01-0.104-0.001-0.138
			c-0.011-0.033-0.03-0.06-0.06-0.079c-0.029-0.019-0.083-0.042-0.162-0.066l0.047-0.138h1.543c0.299,0,0.529,0.033,0.688,0.096
			c0.16,0.064,0.263,0.159,0.311,0.284c0.046,0.125,0.037,0.286-0.028,0.483c-0.055,0.164-0.135,0.306-0.236,0.426
			c-0.104,0.121-0.219,0.22-0.348,0.299c-0.127,0.079-0.283,0.152-0.465,0.22l-0.008,0.026c0.229,0.077,0.384,0.195,0.462,0.357
			c0.077,0.16,0.08,0.352,0.006,0.574c-0.085,0.256-0.212,0.464-0.38,0.626c-0.167,0.161-0.366,0.279-0.595,0.351
			s-0.49,0.108-0.781,0.108H45.595z M46.543,19.07c0.132,0.013,0.283,0.02,0.452,0.02c0.247,0,0.448-0.03,0.605-0.093
			c0.157-0.062,0.286-0.154,0.388-0.275c0.102-0.122,0.183-0.273,0.243-0.456c0.061-0.182,0.078-0.333,0.051-0.452
			c-0.028-0.118-0.101-0.207-0.221-0.265c-0.119-0.059-0.302-0.087-0.546-0.087h-0.438L46.543,19.07z M47.655,17.213
			c0.286,0,0.528-0.069,0.726-0.208s0.34-0.339,0.427-0.602c0.044-0.13,0.059-0.238,0.045-0.324
			c-0.014-0.085-0.05-0.154-0.106-0.205c-0.058-0.051-0.134-0.087-0.228-0.108c-0.095-0.021-0.201-0.032-0.319-0.032
			c-0.071,0-0.166,0.001-0.284,0.005c-0.117,0.004-0.207,0.007-0.266,0.011l-0.487,1.462H47.655z"/>
		<path fill="#010101" d="M52.288,18.633c-0.036,0.108-0.062,0.191-0.074,0.246c-0.012,0.055-0.018,0.098-0.016,0.13
			c0.003,0.033,0.01,0.06,0.021,0.081s0.033,0.04,0.063,0.057c0.028,0.017,0.077,0.035,0.145,0.054l-0.047,0.138h-1.183l0.046-0.138
			c0.113-0.027,0.194-0.056,0.248-0.088c0.051-0.032,0.097-0.081,0.135-0.146c0.037-0.066,0.082-0.177,0.134-0.333l0.394-1.182
			h-1.567l-0.394,1.182c-0.042,0.126-0.068,0.218-0.079,0.276c-0.012,0.059-0.013,0.105-0.005,0.138
			c0.009,0.034,0.029,0.062,0.059,0.085c0.032,0.022,0.087,0.045,0.166,0.068l-0.047,0.138h-1.188l0.047-0.138
			c0.127-0.031,0.216-0.064,0.268-0.1c0.052-0.037,0.095-0.089,0.13-0.157c0.034-0.067,0.075-0.171,0.121-0.31l0.813-2.441
			c0.043-0.13,0.07-0.224,0.081-0.284c0.01-0.059,0.009-0.104-0.001-0.138c-0.011-0.033-0.03-0.06-0.06-0.079
			c-0.029-0.019-0.083-0.042-0.161-0.066l0.045-0.138h1.188l-0.045,0.138c-0.09,0.021-0.156,0.042-0.2,0.062
			c-0.043,0.021-0.081,0.047-0.112,0.078c-0.033,0.032-0.064,0.078-0.096,0.14c-0.03,0.062-0.067,0.157-0.11,0.287l-0.333,0.999
			h1.567l0.333-0.999c0.055-0.163,0.084-0.275,0.088-0.335c0.005-0.06-0.007-0.106-0.033-0.138
			c-0.027-0.032-0.092-0.063-0.193-0.093l0.047-0.138h1.182l-0.045,0.138c-0.115,0.027-0.198,0.057-0.251,0.089
			c-0.052,0.033-0.097,0.083-0.134,0.148c-0.037,0.065-0.08,0.176-0.132,0.33L52.288,18.633z"/>
	</g>
	<g>
		<path fill="#010101" d="M44.431,23.834h-4.977v-0.181l2.551-3.06l-2.551-3.202v-0.175h4.825l0.151,1.649h-0.2
			c-0.049-0.449-0.173-0.77-0.374-0.961c-0.2-0.192-0.488-0.288-0.866-0.288h-2.273l2.083,2.621l-2.347,2.825h2.586
			c0.433,0,0.757-0.081,0.974-0.243c0.216-0.163,0.396-0.469,0.539-0.918l0.181,0.039L44.431,23.834z"/>
	</g>
	<g>
		<path fill="#010101" d="M38.7,21.475c-0.04,0.04-0.086,0.06-0.14,0.06h-5.686c-0.054,0-0.1-0.02-0.14-0.06s-0.06-0.086-0.06-0.14
			c0-0.054,0.02-0.1,0.06-0.14s0.086-0.06,0.14-0.06h5.686c0.053,0,0.1,0.02,0.14,0.06s0.06,0.086,0.06,0.14
			C38.76,21.389,38.74,21.435,38.7,21.475z"/>
	</g>
</g>
</svg>
