<?xml version="1.0" encoding="utf-8"?>
<!-- Generator: Adobe Illustrator 15.1.0, SVG Export Plug-In . SVG Version: 6.00 Build 0)  -->
<!DOCTYPE svg PUBLIC "-//W3C//DTD SVG 1.1//EN" "http://www.w3.org/Graphics/SVG/1.1/DTD/svg11.dtd">
<svg version="1.1" id="Layer_1" xmlns="http://www.w3.org/2000/svg" xmlns:xlink="http://www.w3.org/1999/xlink" x="0px" y="0px"
	 width="515.841px" height="59.879px" viewBox="0 0 515.841 59.879" enable-background="new 0 0 515.841 59.879"
	 xml:space="preserve">
<g>
	<g>
		<g>
			
				<line fill="none" stroke="#000000" stroke-width="0.5" stroke-miterlimit="10" x1="155.44" y1="37.879" x2="134.299" y2="37.879"/>
			<g>
				<path d="M135.197,37.879l1.096,1.802l-0.062,0.041l-2.938-1.167c-1.023-0.226-2.047-0.45-3.07-0.676
					c1.023-0.225,2.047-0.45,3.07-0.676l2.938-1.167l0.062,0.031L135.197,37.879z"/>
			</g>
		</g>
	</g>
	
		<line fill="none" stroke="#000000" stroke-width="0.5" stroke-miterlimit="10" x1="134.299" y1="37.879" x2="113.159" y2="37.879"/>
</g>
<g>
	<g>
		<g>
			
				<line fill="none" stroke="#000000" stroke-width="0.5" stroke-miterlimit="10" x1="193.367" y1="37.879" x2="172.226" y2="37.879"/>
			<g>
				<path d="M173.124,37.879l1.096,1.802l-0.062,0.041l-2.938-1.167c-1.023-0.226-2.047-0.45-3.07-0.676
					c1.023-0.225,2.047-0.45,3.07-0.676l2.938-1.167l0.062,0.031L173.124,37.879z"/>
			</g>
		</g>
	</g>
	
		<line fill="none" stroke="#000000" stroke-width="0.5" stroke-miterlimit="10" x1="172.226" y1="37.879" x2="151.085" y2="37.879"/>
</g>
<polygon fill="#FFFFFF" stroke="#000000" stroke-width="0.5" stroke-miterlimit="10" points="153.243,40.716 155.44,34.503 
	157.637,40.716 "/>
<g>
	<path d="M205.326,34.916v2.818h2.71v0.72h-2.71v2.842h-0.768v-2.842h-2.711v-0.72h2.711v-2.818H205.326z"/>
</g>
<g>
	<g>
		<g>
			
				<line fill="none" stroke="#000000" stroke-width="0.5" stroke-miterlimit="10" x1="299.495" y1="54.808" x2="278.354" y2="54.808"/>
			<g>
				<path d="M279.251,54.808l1.096,1.801l-0.062,0.041l-2.938-1.167c-1.023-0.225-2.047-0.45-3.07-0.675
					c1.023-0.225,2.047-0.45,3.07-0.675l2.938-1.167l0.062,0.031L279.251,54.808z"/>
			</g>
		</g>
	</g>
	
		<line fill="none" stroke="#000000" stroke-width="0.5" stroke-miterlimit="10" x1="278.354" y1="54.808" x2="257.213" y2="54.808"/>
</g>
<line fill="none" stroke="#000000" stroke-width="0.5" stroke-miterlimit="10" stroke-dasharray="2,1" x1="257.213" y1="54.808" x2="257.213" y2="18.918"/>
<circle fill="#FFFFFF" stroke="#000000" stroke-width="0.5" stroke-miterlimit="10" cx="254.376" cy="18.918" r="2.837"/>
<circle fill="#FFFFFF" stroke="#000000" stroke-width="0.5" stroke-miterlimit="10" cx="260.049" cy="18.918" r="2.836"/>
<g>
	<g>
		<g>
			
				<line fill="none" stroke="#000000" stroke-width="0.5" stroke-linecap="round" stroke-miterlimit="10" x1="515.591" y1="54.808" x2="493.857" y2="54.808"/>
			<g>
				<path d="M494.754,54.808l1.096,1.801l-0.062,0.041l-2.938-1.167c-1.023-0.225-2.047-0.45-3.07-0.675
					c1.023-0.225,2.047-0.45,3.07-0.675l2.938-1.167l0.062,0.031L494.754,54.808z"/>
			</g>
		</g>
	</g>
	
		<line fill="none" stroke="#000000" stroke-width="0.5" stroke-linecap="round" stroke-miterlimit="10" x1="493.857" y1="54.808" x2="472.123" y2="54.808"/>
</g>
<g>
	<g>
		<path fill="none" stroke="#000000" stroke-width="0.5" stroke-linecap="round" stroke-miterlimit="10" d="M475.592,18.252
			c3.437-1.377,5.864-4.739,5.864-8.668c0-5.155-4.18-9.334-9.334-9.334c-5.155,0-9.334,4.179-9.334,9.334s4.179,9.334,9.334,9.334"
			/>
		<g>
			<polygon points="472.123,18.918 477.417,19.844 475.83,18.109 476.55,15.873 			"/>
		</g>
	</g>
</g>
<line fill="none" stroke="#000000" stroke-width="0.5" stroke-linecap="round" stroke-miterlimit="10" stroke-dasharray="2,1" x1="472.123" y1="54.808" x2="472.123" y2="18.918"/>
<g>
	<path d="M415.407,34.916v2.818h2.711v0.72h-2.711v2.842h-0.768v-2.842h-2.711v-0.72h2.711v-2.818H415.407z"/>
</g>
<rect x="31.038" y="25.297" fill="none" stroke="#000000" stroke-width="0.5" stroke-miterlimit="10" width="24.623" height="24.625"/>
<g>
	<g>
		<g>
			
				<line fill="none" stroke="#000000" stroke-width="0.5" stroke-miterlimit="10" x1="86.699" y1="37.609" x2="71.181" y2="37.609"/>
			<g>
				<path d="M72.078,37.609l1.096,1.802l-0.062,0.04l-2.938-1.166c-1.023-0.226-2.047-0.45-3.07-0.676
					c1.023-0.225,2.047-0.45,3.07-0.676l2.938-1.166l0.062,0.03L72.078,37.609z"/>
			</g>
		</g>
	</g>
	<line fill="none" stroke="#000000" stroke-width="0.5" stroke-miterlimit="10" x1="71.181" y1="37.609" x2="55.661" y2="37.609"/>
</g>
<g>
	<g>
		<path fill="#010101" d="M100.71,37.968c-0.04,0.04-0.087,0.06-0.141,0.06h-6.235c-0.053,0-0.1-0.02-0.14-0.06
			c-0.04-0.04-0.06-0.087-0.06-0.14s0.02-0.1,0.06-0.14s0.086-0.06,0.14-0.06h6.235c0.054,0,0.101,0.02,0.141,0.06
			c0.039,0.04,0.06,0.087,0.06,0.14S100.75,37.928,100.71,37.968z M100.71,39.907c-0.04,0.04-0.087,0.06-0.141,0.06h-6.235
			c-0.053,0-0.1-0.02-0.14-0.06s-0.06-0.087-0.06-0.14s0.02-0.1,0.06-0.14c0.04-0.04,0.086-0.06,0.14-0.06h6.235
			c0.054,0,0.101,0.02,0.141,0.06c0.039,0.04,0.06,0.086,0.06,0.14S100.75,39.867,100.71,39.907z"/>
	</g>
</g>
<g>
	<g>
		<g>
			<line fill="none" stroke="#000000" stroke-width="0.5" stroke-miterlimit="10" x1="31.038" y1="37.609" x2="15.52" y2="37.609"/>
			<g>
				<path d="M16.417,37.609l1.096,1.801l-0.062,0.041l-2.938-1.167c-1.023-0.225-2.047-0.45-3.07-0.675
					c1.023-0.225,2.047-0.45,3.07-0.675l2.938-1.167l0.062,0.031L16.417,37.609z"/>
			</g>
		</g>
	</g>
	<line fill="none" stroke="#000000" stroke-width="0.5" stroke-miterlimit="10" x1="15.52" y1="37.609" x2="0" y2="37.609"/>
</g>
<g>
	<g>
		<path fill="#010101" d="M49.18,43.087v-0.124c0.193-0.063,0.344-0.163,0.449-0.298c0.106-0.134,0.16-0.276,0.16-0.427
			c0-0.036-0.009-0.066-0.025-0.091c-0.014-0.017-0.026-0.025-0.04-0.025c-0.021,0-0.065,0.019-0.135,0.057
			c-0.034,0.017-0.07,0.025-0.107,0.025c-0.093,0-0.166-0.027-0.221-0.082c-0.054-0.055-0.081-0.13-0.081-0.226
			c0-0.092,0.035-0.171,0.105-0.237c0.07-0.065,0.156-0.099,0.258-0.099c0.124,0,0.234,0.055,0.332,0.162
			c0.097,0.108,0.145,0.252,0.145,0.431c0,0.193-0.066,0.374-0.201,0.54C49.684,42.86,49.471,42.991,49.18,43.087z"/>
	</g>
	<g>
		<path fill="#010101" d="M47.517,41.389c0,0.109,0.007,0.191,0.019,0.247c0.013,0.056,0.034,0.101,0.065,0.135
			c0.03,0.035,0.075,0.063,0.134,0.082c0.058,0.02,0.132,0.035,0.22,0.045c0.089,0.011,0.205,0.018,0.35,0.021v0.206H46.22v-0.206
			c0.208-0.01,0.357-0.022,0.447-0.038c0.089-0.016,0.157-0.04,0.204-0.072c0.047-0.031,0.081-0.077,0.103-0.135
			c0.022-0.059,0.033-0.153,0.033-0.285v-2.288c0-0.075-0.014-0.131-0.04-0.165c-0.026-0.035-0.064-0.053-0.115-0.053
			c-0.061,0-0.146,0.031-0.257,0.094c-0.111,0.062-0.248,0.147-0.412,0.257l-0.124-0.218l1.32-0.787h0.155
			c-0.012,0.181-0.018,0.431-0.018,0.751V41.389z"/>
		<path fill="#010101" d="M52.102,41.389c0,0.109,0.007,0.191,0.019,0.247c0.013,0.056,0.034,0.101,0.065,0.135
			c0.03,0.035,0.075,0.063,0.134,0.082c0.058,0.02,0.132,0.035,0.22,0.045c0.089,0.011,0.205,0.018,0.35,0.021v0.206h-2.084v-0.206
			c0.208-0.01,0.357-0.022,0.447-0.038c0.089-0.016,0.157-0.04,0.204-0.072c0.047-0.031,0.081-0.077,0.103-0.135
			c0.022-0.059,0.033-0.153,0.033-0.285v-2.288c0-0.075-0.014-0.131-0.04-0.165c-0.026-0.035-0.064-0.053-0.115-0.053
			c-0.061,0-0.146,0.031-0.257,0.094c-0.111,0.062-0.248,0.147-0.412,0.257l-0.124-0.218l1.32-0.787h0.155
			c-0.012,0.181-0.018,0.431-0.018,0.751V41.389z"/>
	</g>
	<g>
		<path fill="#010101" d="M46.043,35.032l0.046-0.138c0.128-0.031,0.217-0.064,0.268-0.1c0.053-0.037,0.096-0.089,0.131-0.157
			c0.034-0.067,0.074-0.171,0.121-0.31l0.813-2.441c0.043-0.13,0.071-0.224,0.081-0.284c0.01-0.059,0.009-0.104-0.001-0.138
			c-0.011-0.033-0.03-0.06-0.06-0.079s-0.083-0.042-0.162-0.066l0.047-0.138h1.543c0.299,0,0.529,0.032,0.688,0.096
			c0.161,0.064,0.264,0.159,0.312,0.284c0.046,0.125,0.037,0.286-0.028,0.483c-0.055,0.164-0.135,0.306-0.236,0.426
			c-0.104,0.121-0.219,0.22-0.348,0.299c-0.127,0.079-0.283,0.152-0.465,0.22l-0.008,0.026c0.229,0.077,0.384,0.195,0.462,0.356
			c0.077,0.161,0.08,0.352,0.006,0.575c-0.085,0.255-0.212,0.464-0.38,0.626c-0.167,0.162-0.366,0.279-0.595,0.352
			c-0.229,0.072-0.49,0.108-0.781,0.108H46.043z M46.992,34.764c0.132,0.013,0.283,0.02,0.452,0.02c0.247,0,0.448-0.031,0.604-0.093
			c0.158-0.062,0.287-0.154,0.389-0.275c0.102-0.122,0.183-0.273,0.243-0.456s0.078-0.333,0.051-0.452
			c-0.028-0.118-0.101-0.207-0.221-0.265c-0.119-0.059-0.302-0.087-0.546-0.087h-0.438L46.992,34.764z M48.103,32.908
			c0.286,0,0.528-0.07,0.726-0.208c0.197-0.138,0.34-0.339,0.427-0.603c0.044-0.129,0.059-0.237,0.045-0.323
			c-0.014-0.085-0.05-0.154-0.106-0.205c-0.058-0.051-0.134-0.087-0.228-0.108c-0.095-0.021-0.201-0.033-0.319-0.033
			c-0.071,0-0.166,0.002-0.284,0.006c-0.117,0.003-0.207,0.007-0.266,0.011l-0.487,1.462H48.103z"/>
		<path fill="#010101" d="M52.735,34.327c-0.036,0.108-0.062,0.19-0.074,0.245s-0.017,0.099-0.015,0.131
			c0.002,0.033,0.009,0.06,0.021,0.081s0.032,0.04,0.063,0.057c0.028,0.017,0.077,0.035,0.144,0.054l-0.046,0.138h-1.183
			l0.047-0.138c0.111-0.027,0.193-0.056,0.246-0.088c0.052-0.032,0.098-0.081,0.135-0.146c0.038-0.066,0.083-0.177,0.135-0.333
			l0.394-1.182h-1.567l-0.394,1.182c-0.042,0.126-0.069,0.218-0.079,0.276c-0.012,0.059-0.013,0.104-0.004,0.138
			c0.008,0.034,0.027,0.062,0.059,0.085c0.031,0.022,0.086,0.044,0.164,0.068l-0.046,0.138h-1.188l0.046-0.138
			c0.128-0.031,0.217-0.064,0.268-0.1c0.053-0.037,0.096-0.089,0.131-0.157c0.034-0.067,0.074-0.171,0.121-0.31l0.813-2.441
			c0.043-0.13,0.071-0.224,0.081-0.284c0.01-0.059,0.009-0.104-0.001-0.138c-0.011-0.033-0.03-0.06-0.06-0.079
			s-0.083-0.042-0.162-0.066l0.047-0.138h1.188l-0.047,0.138c-0.089,0.021-0.155,0.042-0.199,0.062
			c-0.043,0.021-0.081,0.047-0.112,0.078c-0.033,0.032-0.064,0.078-0.096,0.14c-0.03,0.062-0.067,0.157-0.11,0.287l-0.333,0.999
			h1.567l0.333-0.999c0.054-0.163,0.084-0.275,0.088-0.335c0.005-0.06-0.007-0.106-0.034-0.138
			c-0.027-0.032-0.091-0.063-0.192-0.093l0.046-0.138h1.184l-0.047,0.138c-0.114,0.027-0.197,0.056-0.25,0.089
			c-0.052,0.033-0.097,0.083-0.133,0.148c-0.038,0.066-0.082,0.176-0.133,0.33L52.735,34.327z"/>
	</g>
	<g>
		<path fill="#010101" d="M44.846,39.539H39.87v-0.181l2.551-3.06l-2.551-3.202v-0.175h4.825l0.151,1.649h-0.2
			c-0.049-0.449-0.173-0.77-0.374-0.961c-0.2-0.192-0.489-0.288-0.866-0.288h-2.273l2.083,2.621l-2.347,2.825h2.586
			c0.433,0,0.757-0.081,0.974-0.243c0.216-0.163,0.396-0.469,0.539-0.918l0.18,0.039L44.846,39.539z"/>
	</g>
	<g>
		<path fill="#010101" d="M39.115,37.18c-0.04,0.04-0.086,0.06-0.14,0.06H33.29c-0.054,0-0.1-0.02-0.14-0.06s-0.06-0.086-0.06-0.14
			c0-0.054,0.02-0.1,0.06-0.14s0.086-0.06,0.14-0.06h5.686c0.053,0,0.1,0.02,0.14,0.06s0.06,0.086,0.06,0.14
			C39.175,37.094,39.155,37.14,39.115,37.18z"/>
	</g>
</g>
<g>
	<g>
		<path fill="#010101" d="M130.912,33.57v-0.215c0.335-0.11,0.594-0.282,0.778-0.515c0.184-0.232,0.275-0.479,0.275-0.739
			c0-0.062-0.015-0.114-0.044-0.156c-0.022-0.029-0.045-0.044-0.068-0.044c-0.036,0-0.114,0.032-0.234,0.098
			c-0.059,0.029-0.121,0.044-0.186,0.044c-0.159,0-0.286-0.047-0.38-0.142s-0.142-0.225-0.142-0.391c0-0.159,0.061-0.296,0.183-0.41
			c0.122-0.113,0.271-0.171,0.446-0.171c0.215,0,0.406,0.094,0.573,0.281c0.167,0.187,0.251,0.435,0.251,0.744
			c0,0.335-0.116,0.646-0.349,0.935C131.784,33.178,131.416,33.404,130.912,33.57z"/>
	</g>
	<g>
		<path fill="#010101" d="M147.051,34.492h-1.111l0.046-0.138c0.082-0.023,0.141-0.043,0.178-0.06
			c0.038-0.017,0.072-0.041,0.104-0.07c0.033-0.03,0.064-0.077,0.098-0.14c0.033-0.063,0.071-0.159,0.114-0.286l0.246-0.74
			c0.044-0.131,0.08-0.251,0.108-0.358s0.045-0.194,0.051-0.264c0.004-0.068,0-0.122-0.013-0.16c-0.013-0.039-0.032-0.071-0.057-0.1
			c-0.026-0.026-0.059-0.049-0.099-0.064c-0.039-0.016-0.097-0.024-0.17-0.024s-0.147,0.015-0.224,0.045
			c-0.075,0.028-0.164,0.078-0.267,0.149c-0.104,0.072-0.185,0.144-0.242,0.213c-0.06,0.069-0.104,0.148-0.134,0.239l-0.351,1.053
			c-0.055,0.161-0.084,0.274-0.09,0.337c-0.007,0.063,0.007,0.11,0.037,0.145c0.031,0.032,0.092,0.061,0.179,0.086l-0.046,0.138
			h-1.105l0.046-0.138c0.081-0.023,0.14-0.043,0.176-0.06c0.037-0.017,0.071-0.041,0.103-0.07c0.032-0.03,0.064-0.077,0.098-0.139
			c0.033-0.063,0.071-0.159,0.115-0.29l0.41-1.23c0.039-0.121,0.07-0.217,0.091-0.291c0.021-0.073,0.027-0.132,0.02-0.176
			c-0.008-0.045-0.031-0.077-0.07-0.1c-0.039-0.021-0.099-0.04-0.178-0.055l0.05-0.149l0.669-0.025h0.172l-0.185,0.46l0.035,0.012
			c0.187-0.141,0.333-0.242,0.438-0.303c0.105-0.06,0.208-0.106,0.306-0.14c0.099-0.032,0.197-0.049,0.295-0.049
			c0.102,0,0.188,0.012,0.261,0.035c0.071,0.023,0.13,0.06,0.175,0.108s0.074,0.109,0.09,0.183c0.016,0.072,0.016,0.159,0.002,0.26
			c-0.014,0.103-0.047,0.231-0.1,0.388l-0.354,1.063c-0.044,0.13-0.071,0.224-0.082,0.282c-0.014,0.058-0.015,0.104-0.007,0.135
			c0.008,0.032,0.026,0.06,0.056,0.081c0.027,0.021,0.082,0.044,0.162,0.069L147.051,34.492z"/>
	</g>
	<g>
		<path fill="#010101" d="M134.205,31.647c0.14-0.039,0.241-0.073,0.305-0.104c0.063-0.028,0.122-0.069,0.177-0.121
			c0.055-0.053,0.111-0.132,0.168-0.24c0.056-0.106,0.123-0.273,0.199-0.502l0.709-2.128c0.069-0.208,0.122-0.375,0.157-0.502
			s0.047-0.229,0.033-0.306c-0.014-0.076-0.054-0.134-0.121-0.171c-0.068-0.037-0.169-0.069-0.307-0.095l0.086-0.258l1.151-0.044
			h0.298l-1.163,3.489c-0.093,0.28-0.145,0.475-0.157,0.584c-0.01,0.108,0.013,0.191,0.067,0.248
			c0.054,0.058,0.157,0.106,0.309,0.149l-0.08,0.239h-1.912L134.205,31.647z M137.711,25.307l-0.315,0.947h-0.897l0.315-0.947
			H137.711z"/>
	</g>
	<g>
		<path fill="#010101" d="M142.672,27.459l0.059-0.175c0.549,0,0.967,0.093,1.253,0.28c0.285,0.187,0.465,0.488,0.541,0.903
			c0.074,0.415,0.029,0.87-0.136,1.364c-0.14,0.419-0.351,0.804-0.633,1.152c-0.281,0.348-0.596,0.611-0.943,0.788
			c-0.347,0.178-0.649,0.266-0.91,0.266c-0.286,0-0.504-0.081-0.65-0.243c-0.148-0.163-0.244-0.415-0.29-0.757
			c-0.294,0.345-0.58,0.598-0.86,0.76c-0.279,0.16-0.559,0.24-0.839,0.24c-0.243,0-0.473-0.087-0.687-0.261
			s-0.344-0.442-0.389-0.806c-0.044-0.362,0.004-0.755,0.146-1.178c0.152-0.458,0.385-0.876,0.695-1.254
			c0.241-0.293,0.504-0.535,0.792-0.728c0.286-0.191,0.568-0.327,0.845-0.407c0.277-0.08,0.608-0.119,0.997-0.119l-0.059,0.175
			c-0.468,0.045-0.913,0.259-1.334,0.642c-0.422,0.383-0.756,0.944-1.004,1.686c-0.244,0.732-0.311,1.268-0.199,1.611
			c0.068,0.204,0.226,0.308,0.473,0.308c0.205,0,0.428-0.085,0.668-0.254c0.239-0.169,0.498-0.476,0.775-0.918
			c-0.016-0.38-0.015-0.664,0.003-0.849c0.019-0.186,0.056-0.362,0.112-0.532c0.105-0.316,0.269-0.587,0.49-0.815
			c0.11-0.114,0.213-0.17,0.311-0.17c0.101,0,0.169,0.057,0.202,0.17c0.068,0.215,0.051,0.477-0.052,0.786
			c-0.126,0.378-0.389,0.848-0.787,1.411c-0.022,0.446,0.026,0.746,0.146,0.901c0.119,0.154,0.286,0.231,0.501,0.231
			c0.254,0,0.492-0.1,0.715-0.298c0.299-0.267,0.572-0.766,0.816-1.499c0.296-0.887,0.317-1.543,0.064-1.966
			C143.353,27.646,143.075,27.499,142.672,27.459z"/>
	</g>
	<g>
		<path fill="#010101" stroke="#010101" stroke-width="0.2856" stroke-miterlimit="10" d="M126.377,29.188h0.156
			c0.107,0,0.195-0.012,0.263-0.034c0.082-0.029,0.171-0.079,0.269-0.149s0.236-0.188,0.415-0.354
			c0.15-0.14,0.263-0.258,0.339-0.356c0.076-0.098,0.129-0.187,0.159-0.269c0.026-0.068,0.039-0.137,0.039-0.205
			c0-0.098-0.03-0.174-0.09-0.229c-0.061-0.055-0.159-0.093-0.295-0.112v-0.239h2.103v0.239c-0.15,0.029-0.309,0.096-0.479,0.2
			c-0.169,0.104-0.343,0.241-0.522,0.41l-1.122,1.064l1.405,1.834c0.163,0.215,0.31,0.374,0.441,0.477s0.276,0.17,0.432,0.202v0.239
			h-1.874v-0.239c0.085-0.01,0.147-0.028,0.188-0.056c0.041-0.028,0.061-0.074,0.061-0.14c0-0.049-0.009-0.097-0.027-0.144
			s-0.055-0.111-0.11-0.193c-0.055-0.081-0.156-0.223-0.302-0.424l-0.581-0.781c-0.111-0.146-0.189-0.242-0.237-0.288
			c-0.047-0.045-0.097-0.078-0.149-0.098c-0.052-0.02-0.122-0.029-0.209-0.029h-0.273v1.172c0,0.279,0.013,0.474,0.039,0.583
			c0.026,0.108,0.076,0.191,0.149,0.249c0.073,0.057,0.192,0.106,0.358,0.148v0.239h-1.937v-0.239
			c0.163-0.042,0.276-0.086,0.339-0.132c0.063-0.045,0.109-0.1,0.137-0.163c0.027-0.063,0.047-0.149,0.059-0.259
			c0.011-0.109,0.017-0.251,0.017-0.427v-4.085c0-0.312-0.002-0.53-0.007-0.654s-0.018-0.229-0.039-0.315
			c-0.021-0.086-0.051-0.154-0.088-0.202c-0.038-0.049-0.088-0.088-0.151-0.117s-0.178-0.059-0.344-0.088v-0.254l1.176-0.049h0.292
			V29.188z"/>
	</g>
</g>
<g>
	<g>
		<path fill="#010101" d="M171.606,33.571v-0.215c0.335-0.11,0.594-0.282,0.778-0.515c0.184-0.232,0.275-0.479,0.275-0.739
			c0-0.062-0.015-0.114-0.044-0.156c-0.022-0.029-0.045-0.044-0.068-0.044c-0.036,0-0.114,0.032-0.234,0.098
			c-0.059,0.029-0.121,0.044-0.186,0.044c-0.159,0-0.286-0.047-0.38-0.142s-0.142-0.225-0.142-0.391c0-0.159,0.061-0.296,0.183-0.41
			c0.122-0.113,0.271-0.171,0.446-0.171c0.215,0,0.406,0.094,0.573,0.281c0.167,0.187,0.251,0.435,0.251,0.744
			c0,0.335-0.116,0.646-0.349,0.935C172.479,33.178,172.11,33.405,171.606,33.571z"/>
	</g>
	<g>
		<path fill="#010101" d="M187.745,34.493h-1.111l0.046-0.138c0.082-0.023,0.141-0.043,0.178-0.06
			c0.038-0.017,0.072-0.041,0.104-0.07c0.033-0.03,0.064-0.077,0.098-0.14c0.033-0.063,0.071-0.159,0.114-0.286l0.246-0.74
			c0.044-0.131,0.08-0.251,0.108-0.358s0.045-0.194,0.051-0.264c0.004-0.068,0-0.122-0.013-0.16c-0.013-0.039-0.032-0.071-0.057-0.1
			c-0.026-0.026-0.059-0.049-0.099-0.064c-0.039-0.016-0.097-0.024-0.17-0.024s-0.147,0.015-0.224,0.045
			c-0.075,0.028-0.164,0.078-0.267,0.149c-0.104,0.072-0.185,0.144-0.242,0.213c-0.06,0.069-0.104,0.148-0.134,0.239l-0.351,1.053
			c-0.055,0.161-0.084,0.274-0.09,0.337c-0.007,0.063,0.007,0.11,0.037,0.145c0.031,0.032,0.092,0.061,0.179,0.086l-0.046,0.138
			h-1.105l0.046-0.138c0.081-0.023,0.14-0.043,0.176-0.06c0.037-0.017,0.071-0.041,0.103-0.07c0.032-0.03,0.064-0.077,0.098-0.139
			c0.033-0.063,0.071-0.159,0.115-0.29l0.41-1.23c0.039-0.121,0.07-0.217,0.091-0.291c0.021-0.073,0.027-0.132,0.02-0.176
			c-0.008-0.045-0.031-0.077-0.07-0.1c-0.039-0.021-0.099-0.04-0.178-0.055l0.05-0.149l0.669-0.025h0.172l-0.185,0.46l0.035,0.012
			c0.187-0.141,0.333-0.242,0.438-0.303c0.105-0.06,0.208-0.106,0.306-0.14c0.099-0.032,0.197-0.049,0.295-0.049
			c0.102,0,0.188,0.012,0.261,0.035c0.071,0.023,0.13,0.06,0.175,0.108s0.074,0.109,0.09,0.183c0.016,0.072,0.016,0.159,0.002,0.26
			c-0.014,0.103-0.047,0.231-0.1,0.388l-0.354,1.063c-0.044,0.13-0.071,0.224-0.082,0.282c-0.014,0.058-0.015,0.104-0.007,0.135
			c0.008,0.032,0.026,0.06,0.056,0.081c0.027,0.021,0.082,0.044,0.162,0.069L187.745,34.493z"/>
	</g>
	<g>
		<path fill="#010101" d="M174.899,31.648c0.14-0.039,0.241-0.073,0.305-0.104c0.063-0.028,0.122-0.069,0.177-0.121
			c0.055-0.053,0.111-0.132,0.168-0.24c0.056-0.106,0.123-0.273,0.199-0.502l0.709-2.128c0.069-0.208,0.122-0.375,0.157-0.502
			s0.047-0.229,0.033-0.306c-0.014-0.076-0.054-0.134-0.121-0.171c-0.068-0.037-0.169-0.069-0.307-0.095l0.086-0.258l1.151-0.044
			h0.298l-1.163,3.489c-0.093,0.28-0.145,0.475-0.157,0.584c-0.01,0.108,0.013,0.191,0.067,0.248
			c0.054,0.058,0.157,0.106,0.309,0.149l-0.08,0.239h-1.912L174.899,31.648z M178.406,25.308l-0.315,0.947h-0.897l0.315-0.947
			H178.406z"/>
	</g>
	<g>
		<path fill="#010101" d="M183.367,27.46l0.059-0.175c0.549,0,0.967,0.093,1.253,0.28c0.285,0.187,0.465,0.488,0.541,0.903
			c0.074,0.415,0.029,0.87-0.136,1.364c-0.14,0.419-0.351,0.804-0.633,1.152c-0.281,0.348-0.596,0.611-0.943,0.788
			c-0.347,0.178-0.649,0.266-0.91,0.266c-0.286,0-0.504-0.081-0.65-0.243c-0.148-0.163-0.244-0.415-0.29-0.757
			c-0.294,0.345-0.58,0.598-0.86,0.76c-0.279,0.16-0.559,0.24-0.839,0.24c-0.243,0-0.473-0.087-0.687-0.261
			s-0.344-0.442-0.389-0.806c-0.044-0.362,0.004-0.755,0.146-1.178c0.152-0.458,0.385-0.876,0.695-1.254
			c0.241-0.293,0.504-0.535,0.792-0.728c0.286-0.191,0.568-0.327,0.845-0.407c0.277-0.08,0.608-0.119,0.997-0.119l-0.059,0.175
			c-0.468,0.045-0.913,0.259-1.334,0.642c-0.422,0.383-0.756,0.944-1.004,1.686c-0.244,0.732-0.311,1.268-0.199,1.611
			c0.068,0.204,0.226,0.308,0.473,0.308c0.205,0,0.428-0.085,0.668-0.254c0.239-0.169,0.498-0.476,0.775-0.918
			c-0.016-0.38-0.015-0.664,0.003-0.849c0.019-0.186,0.056-0.362,0.112-0.532c0.105-0.316,0.269-0.587,0.49-0.815
			c0.11-0.114,0.213-0.17,0.311-0.17c0.101,0,0.169,0.057,0.202,0.17c0.068,0.215,0.051,0.477-0.052,0.786
			c-0.126,0.378-0.389,0.848-0.787,1.411c-0.022,0.446,0.026,0.746,0.146,0.901c0.119,0.154,0.286,0.231,0.501,0.231
			c0.254,0,0.492-0.1,0.715-0.298c0.299-0.267,0.572-0.766,0.816-1.499c0.296-0.887,0.317-1.543,0.064-1.966
			C184.047,27.647,183.769,27.499,183.367,27.46z"/>
	</g>
	<g>
		<path fill="#010101" stroke="#010101" stroke-width="0.2856" stroke-miterlimit="10" d="M167.072,29.188h0.156
			c0.107,0,0.195-0.012,0.263-0.034c0.082-0.029,0.171-0.079,0.269-0.149s0.236-0.188,0.415-0.354
			c0.15-0.14,0.263-0.258,0.339-0.356c0.076-0.098,0.129-0.187,0.159-0.269c0.026-0.068,0.039-0.137,0.039-0.205
			c0-0.098-0.03-0.174-0.09-0.229c-0.061-0.055-0.159-0.093-0.295-0.112v-0.239h2.103v0.239c-0.15,0.029-0.309,0.096-0.479,0.2
			c-0.169,0.104-0.343,0.241-0.522,0.41l-1.122,1.064l1.405,1.834c0.163,0.215,0.31,0.374,0.441,0.477s0.276,0.17,0.432,0.202v0.239
			h-1.874v-0.239c0.085-0.01,0.147-0.028,0.188-0.056c0.041-0.028,0.061-0.074,0.061-0.14c0-0.049-0.009-0.097-0.027-0.144
			s-0.055-0.111-0.11-0.193c-0.055-0.081-0.156-0.223-0.302-0.424l-0.581-0.781c-0.111-0.146-0.189-0.242-0.237-0.288
			c-0.047-0.045-0.097-0.078-0.149-0.098c-0.052-0.02-0.122-0.029-0.209-0.029h-0.273v1.172c0,0.279,0.013,0.474,0.039,0.583
			c0.026,0.108,0.076,0.191,0.149,0.249c0.073,0.057,0.192,0.106,0.358,0.148v0.239h-1.937v-0.239
			c0.163-0.042,0.276-0.086,0.339-0.132c0.063-0.045,0.109-0.1,0.137-0.163c0.027-0.063,0.047-0.149,0.059-0.259
			c0.011-0.109,0.017-0.251,0.017-0.427v-4.085c0-0.312-0.002-0.53-0.007-0.654s-0.018-0.229-0.039-0.315
			c-0.021-0.086-0.051-0.154-0.088-0.202c-0.038-0.049-0.088-0.088-0.151-0.117s-0.178-0.059-0.344-0.088v-0.254l1.176-0.049h0.292
			V29.188z"/>
	</g>
</g>
<g>
	<g>
		<g>
			
				<line fill="none" stroke="#000000" stroke-width="0.5" stroke-miterlimit="10" x1="257.213" y1="54.808" x2="236.073" y2="54.808"/>
			<g>
				<path d="M236.97,54.808l1.096,1.801l-0.062,0.041l-2.938-1.167c-1.023-0.225-2.047-0.45-3.07-0.675
					c1.023-0.225,2.047-0.45,3.07-0.675l2.938-1.167l0.062,0.031L236.97,54.808z"/>
			</g>
		</g>
	</g>
	
		<line fill="none" stroke="#000000" stroke-width="0.5" stroke-miterlimit="10" x1="236.073" y1="54.808" x2="214.932" y2="54.808"/>
</g>
<g>
	<g>
		<path fill="#010101" d="M272.956,49.854v-0.215c0.336-0.11,0.595-0.282,0.779-0.515c0.184-0.232,0.275-0.479,0.275-0.739
			c0-0.062-0.016-0.114-0.045-0.156c-0.021-0.029-0.045-0.044-0.067-0.044c-0.036,0-0.114,0.032-0.234,0.098
			c-0.059,0.029-0.12,0.044-0.186,0.044c-0.159,0-0.286-0.047-0.38-0.142c-0.095-0.095-0.143-0.225-0.143-0.391
			c0-0.159,0.062-0.296,0.184-0.41c0.122-0.113,0.271-0.171,0.446-0.171c0.215,0,0.405,0.094,0.573,0.281
			c0.168,0.187,0.252,0.435,0.252,0.744c0,0.335-0.117,0.646-0.35,0.935S273.46,49.688,272.956,49.854z"/>
	</g>
	<g>
		<path fill="#010101" d="M289.095,50.776h-1.111l0.046-0.138c0.082-0.023,0.141-0.043,0.178-0.06
			c0.038-0.017,0.072-0.041,0.104-0.07c0.033-0.03,0.064-0.077,0.098-0.14c0.033-0.063,0.071-0.159,0.114-0.286l0.246-0.74
			c0.044-0.131,0.08-0.251,0.108-0.358s0.045-0.194,0.051-0.264c0.004-0.068,0-0.122-0.013-0.16c-0.013-0.039-0.032-0.071-0.057-0.1
			c-0.026-0.026-0.059-0.049-0.099-0.064c-0.039-0.016-0.097-0.024-0.17-0.024s-0.147,0.015-0.224,0.045
			c-0.075,0.028-0.164,0.078-0.267,0.149c-0.104,0.072-0.185,0.144-0.242,0.213c-0.06,0.069-0.104,0.148-0.134,0.239l-0.351,1.053
			c-0.055,0.161-0.084,0.274-0.09,0.337c-0.007,0.063,0.007,0.11,0.037,0.145c0.031,0.032,0.092,0.061,0.179,0.086l-0.046,0.138
			h-1.105l0.046-0.138c0.081-0.023,0.14-0.043,0.176-0.06c0.037-0.017,0.071-0.041,0.103-0.07c0.032-0.03,0.064-0.077,0.098-0.139
			c0.033-0.063,0.071-0.159,0.115-0.29l0.41-1.23c0.039-0.121,0.07-0.217,0.091-0.291c0.021-0.073,0.027-0.132,0.02-0.176
			c-0.008-0.045-0.031-0.077-0.07-0.1c-0.039-0.021-0.099-0.04-0.178-0.055l0.05-0.149l0.669-0.025h0.172l-0.185,0.46l0.035,0.012
			c0.187-0.141,0.333-0.242,0.438-0.303c0.105-0.06,0.208-0.106,0.306-0.14c0.099-0.032,0.197-0.049,0.295-0.049
			c0.102,0,0.188,0.012,0.261,0.035c0.071,0.023,0.13,0.06,0.175,0.108s0.074,0.109,0.09,0.183c0.016,0.072,0.016,0.159,0.002,0.26
			c-0.014,0.103-0.047,0.231-0.1,0.388l-0.354,1.063c-0.044,0.13-0.071,0.224-0.082,0.282c-0.014,0.058-0.015,0.104-0.007,0.135
			c0.008,0.032,0.026,0.06,0.056,0.081c0.027,0.021,0.082,0.044,0.162,0.069L289.095,50.776z"/>
	</g>
	<g>
		<path fill="#010101" d="M276.249,47.931c0.141-0.039,0.242-0.073,0.305-0.104c0.063-0.028,0.122-0.069,0.178-0.121
			c0.055-0.053,0.11-0.132,0.168-0.24c0.056-0.106,0.123-0.273,0.198-0.502l0.71-2.128c0.068-0.208,0.121-0.375,0.156-0.502
			s0.047-0.229,0.033-0.306c-0.014-0.076-0.053-0.134-0.12-0.171c-0.067-0.037-0.169-0.069-0.308-0.095l0.086-0.258l1.152-0.044
			h0.297l-1.162,3.489c-0.094,0.28-0.145,0.475-0.156,0.584c-0.01,0.108,0.012,0.191,0.066,0.248
			c0.055,0.058,0.156,0.106,0.309,0.149l-0.08,0.239h-1.912L276.249,47.931z M279.756,41.591l-0.316,0.947h-0.896l0.314-0.947
			H279.756z"/>
	</g>
	<g>
		<path fill="#010101" d="M284.717,43.743l0.059-0.175c0.549,0,0.967,0.093,1.252,0.28c0.285,0.187,0.465,0.488,0.541,0.903
			c0.074,0.415,0.029,0.87-0.135,1.364c-0.141,0.419-0.352,0.804-0.633,1.152s-0.596,0.611-0.943,0.788
			c-0.348,0.178-0.65,0.266-0.91,0.266c-0.287,0-0.504-0.081-0.65-0.243c-0.148-0.163-0.244-0.415-0.291-0.757
			c-0.293,0.345-0.58,0.598-0.859,0.76c-0.279,0.16-0.559,0.24-0.84,0.24c-0.242,0-0.473-0.087-0.686-0.261
			c-0.215-0.174-0.344-0.442-0.389-0.806c-0.045-0.362,0.004-0.755,0.145-1.178c0.152-0.458,0.385-0.876,0.695-1.254
			c0.242-0.293,0.504-0.535,0.793-0.728c0.285-0.191,0.568-0.327,0.844-0.407c0.277-0.08,0.609-0.119,0.998-0.119l-0.059,0.175
			c-0.469,0.045-0.914,0.259-1.334,0.642c-0.422,0.383-0.756,0.944-1.004,1.686c-0.244,0.732-0.311,1.268-0.199,1.611
			c0.068,0.204,0.225,0.308,0.473,0.308c0.205,0,0.428-0.085,0.668-0.254c0.238-0.169,0.498-0.476,0.775-0.918
			c-0.016-0.38-0.016-0.664,0.002-0.849c0.02-0.186,0.057-0.362,0.113-0.532c0.105-0.316,0.268-0.587,0.49-0.815
			c0.109-0.114,0.213-0.17,0.311-0.17c0.1,0,0.168,0.057,0.201,0.17c0.068,0.215,0.051,0.477-0.051,0.786
			c-0.127,0.378-0.389,0.848-0.787,1.411c-0.023,0.446,0.025,0.746,0.145,0.901c0.119,0.154,0.287,0.231,0.502,0.231
			c0.254,0,0.492-0.1,0.715-0.298c0.299-0.267,0.572-0.766,0.816-1.499c0.295-0.887,0.316-1.543,0.064-1.966
			C285.397,43.93,285.12,43.782,284.717,43.743z"/>
	</g>
	<g>
		<path fill="#010101" stroke="#010101" stroke-width="0.2856" stroke-miterlimit="10" d="M268.422,45.472h0.156
			c0.107,0,0.195-0.012,0.263-0.034c0.081-0.029,0.171-0.079,0.269-0.149s0.236-0.188,0.414-0.354c0.15-0.14,0.264-0.258,0.34-0.356
			s0.129-0.187,0.158-0.269c0.026-0.068,0.039-0.137,0.039-0.205c0-0.098-0.029-0.174-0.09-0.229
			c-0.061-0.055-0.158-0.093-0.295-0.112v-0.239h2.103v0.239c-0.149,0.029-0.31,0.096-0.479,0.2
			c-0.169,0.104-0.343,0.241-0.522,0.41l-1.121,1.064l1.404,1.834c0.163,0.215,0.311,0.374,0.441,0.477
			c0.133,0.103,0.276,0.17,0.432,0.202v0.239h-1.873v-0.239c0.085-0.01,0.147-0.028,0.188-0.056c0.041-0.028,0.062-0.074,0.062-0.14
			c0-0.049-0.009-0.097-0.026-0.144c-0.019-0.047-0.055-0.111-0.11-0.193c-0.056-0.081-0.155-0.223-0.302-0.424l-0.581-0.781
			c-0.11-0.146-0.189-0.242-0.237-0.288c-0.047-0.045-0.096-0.078-0.148-0.098c-0.052-0.02-0.121-0.029-0.209-0.029h-0.273v1.172
			c0,0.279,0.013,0.474,0.039,0.583c0.025,0.108,0.075,0.191,0.148,0.249c0.073,0.057,0.192,0.106,0.358,0.148v0.239h-1.937v-0.239
			c0.162-0.042,0.275-0.086,0.339-0.132c0.063-0.045,0.108-0.1,0.137-0.163c0.027-0.063,0.047-0.149,0.059-0.259
			c0.011-0.109,0.017-0.251,0.017-0.427v-4.085c0-0.312-0.002-0.53-0.008-0.654c-0.004-0.124-0.018-0.229-0.038-0.315
			c-0.021-0.086-0.051-0.154-0.088-0.202c-0.038-0.049-0.088-0.088-0.151-0.117s-0.178-0.059-0.344-0.088v-0.254l1.176-0.049h0.293
			V45.472z"/>
	</g>
</g>
<g>
	<g>
		<path fill="#010101" d="M232.685,49.854V49.64c0.335-0.11,0.594-0.282,0.778-0.515c0.184-0.232,0.275-0.479,0.275-0.739
			c0-0.062-0.015-0.114-0.044-0.156c-0.022-0.029-0.045-0.044-0.068-0.044c-0.036,0-0.114,0.032-0.234,0.098
			c-0.059,0.029-0.121,0.044-0.186,0.044c-0.159,0-0.286-0.047-0.38-0.142s-0.142-0.225-0.142-0.391c0-0.159,0.061-0.296,0.183-0.41
			c0.122-0.113,0.271-0.171,0.446-0.171c0.215,0,0.406,0.094,0.573,0.281c0.167,0.187,0.251,0.435,0.251,0.744
			c0,0.335-0.116,0.646-0.349,0.935C233.558,49.462,233.189,49.688,232.685,49.854z"/>
	</g>
	<g>
		<path fill="#010101" d="M248.824,50.776h-1.111l0.046-0.138c0.082-0.023,0.141-0.043,0.178-0.06
			c0.038-0.017,0.072-0.041,0.104-0.07c0.033-0.03,0.064-0.077,0.098-0.14c0.033-0.063,0.071-0.159,0.114-0.286l0.246-0.74
			c0.044-0.131,0.08-0.251,0.108-0.358s0.045-0.194,0.051-0.264c0.004-0.068,0-0.122-0.013-0.16c-0.013-0.039-0.032-0.071-0.057-0.1
			c-0.026-0.026-0.059-0.049-0.099-0.064c-0.039-0.016-0.097-0.024-0.17-0.024s-0.147,0.015-0.224,0.045
			c-0.075,0.028-0.164,0.078-0.267,0.149c-0.104,0.072-0.185,0.144-0.242,0.213c-0.06,0.069-0.104,0.148-0.134,0.239l-0.351,1.053
			c-0.055,0.161-0.084,0.274-0.09,0.337c-0.007,0.063,0.007,0.11,0.037,0.145c0.031,0.032,0.092,0.061,0.179,0.086l-0.046,0.138
			h-1.105l0.046-0.138c0.081-0.023,0.14-0.043,0.176-0.06c0.037-0.017,0.071-0.041,0.103-0.07c0.032-0.03,0.064-0.077,0.098-0.139
			c0.033-0.063,0.071-0.159,0.115-0.29l0.41-1.23c0.039-0.121,0.07-0.217,0.091-0.291c0.021-0.073,0.027-0.132,0.02-0.176
			c-0.008-0.045-0.031-0.077-0.07-0.1c-0.039-0.021-0.099-0.04-0.178-0.055l0.05-0.149l0.669-0.025h0.172l-0.185,0.46l0.035,0.012
			c0.187-0.141,0.333-0.242,0.438-0.303c0.105-0.06,0.208-0.106,0.306-0.14c0.099-0.032,0.197-0.049,0.295-0.049
			c0.102,0,0.188,0.012,0.261,0.035c0.071,0.023,0.13,0.06,0.175,0.108s0.074,0.109,0.09,0.183c0.016,0.072,0.016,0.159,0.002,0.26
			c-0.014,0.103-0.047,0.231-0.1,0.388l-0.354,1.063c-0.044,0.13-0.071,0.224-0.082,0.282c-0.014,0.058-0.015,0.104-0.007,0.135
			c0.008,0.032,0.026,0.06,0.056,0.081c0.027,0.021,0.082,0.044,0.162,0.069L248.824,50.776z"/>
	</g>
	<g>
		<path fill="#010101" d="M235.978,47.932c0.14-0.039,0.241-0.073,0.305-0.104c0.063-0.028,0.122-0.069,0.177-0.121
			c0.055-0.053,0.111-0.132,0.168-0.24c0.056-0.106,0.123-0.273,0.199-0.502l0.709-2.128c0.069-0.208,0.122-0.375,0.157-0.502
			s0.047-0.229,0.033-0.306c-0.014-0.076-0.054-0.134-0.121-0.171c-0.068-0.037-0.169-0.069-0.307-0.095l0.086-0.258l1.151-0.044
			h0.298l-1.163,3.489c-0.093,0.28-0.145,0.475-0.157,0.584c-0.01,0.108,0.013,0.191,0.067,0.248
			c0.054,0.058,0.157,0.106,0.309,0.149l-0.08,0.239h-1.912L235.978,47.932z M239.485,41.591l-0.315,0.947h-0.897l0.315-0.947
			H239.485z"/>
	</g>
	<g>
		<path fill="#010101" d="M244.446,43.744l0.059-0.175c0.549,0,0.967,0.093,1.253,0.28c0.285,0.187,0.465,0.488,0.541,0.903
			c0.074,0.415,0.029,0.87-0.136,1.364c-0.14,0.419-0.351,0.804-0.633,1.152c-0.281,0.348-0.596,0.611-0.943,0.788
			c-0.347,0.178-0.649,0.266-0.91,0.266c-0.286,0-0.504-0.081-0.65-0.243c-0.148-0.163-0.244-0.415-0.29-0.757
			c-0.294,0.345-0.58,0.598-0.86,0.76c-0.279,0.16-0.559,0.24-0.839,0.24c-0.243,0-0.473-0.087-0.687-0.261
			s-0.344-0.442-0.389-0.806c-0.044-0.362,0.004-0.755,0.146-1.178c0.152-0.458,0.385-0.876,0.695-1.254
			c0.241-0.293,0.504-0.535,0.792-0.728c0.286-0.191,0.568-0.327,0.845-0.407c0.277-0.08,0.608-0.119,0.997-0.119l-0.059,0.175
			c-0.468,0.045-0.913,0.259-1.334,0.642c-0.422,0.383-0.756,0.944-1.004,1.686c-0.244,0.732-0.311,1.268-0.199,1.611
			c0.068,0.204,0.226,0.308,0.473,0.308c0.205,0,0.428-0.085,0.668-0.254c0.239-0.169,0.498-0.476,0.775-0.918
			c-0.016-0.38-0.015-0.664,0.003-0.849c0.019-0.186,0.056-0.362,0.112-0.532c0.105-0.316,0.269-0.587,0.49-0.815
			c0.11-0.114,0.213-0.17,0.311-0.17c0.101,0,0.169,0.057,0.202,0.17c0.068,0.215,0.051,0.477-0.052,0.786
			c-0.126,0.378-0.389,0.848-0.787,1.411c-0.022,0.446,0.026,0.746,0.146,0.901c0.119,0.154,0.286,0.231,0.501,0.231
			c0.254,0,0.492-0.1,0.715-0.298c0.299-0.267,0.572-0.766,0.816-1.499c0.296-0.887,0.317-1.543,0.064-1.966
			C245.126,43.931,244.848,43.783,244.446,43.744z"/>
	</g>
	<g>
		<path fill="#010101" stroke="#010101" stroke-width="0.2856" stroke-miterlimit="10" d="M228.151,45.472h0.156
			c0.107,0,0.195-0.012,0.263-0.034c0.082-0.029,0.171-0.079,0.269-0.149s0.236-0.188,0.415-0.354
			c0.15-0.14,0.263-0.258,0.339-0.356c0.076-0.098,0.129-0.187,0.159-0.269c0.026-0.068,0.039-0.137,0.039-0.205
			c0-0.098-0.03-0.174-0.09-0.229c-0.061-0.055-0.159-0.093-0.295-0.112v-0.239h2.103v0.239c-0.15,0.029-0.309,0.096-0.479,0.2
			c-0.169,0.104-0.343,0.241-0.522,0.41l-1.122,1.064l1.405,1.834c0.163,0.215,0.31,0.374,0.441,0.477s0.276,0.17,0.432,0.202v0.239
			h-1.874v-0.239c0.085-0.01,0.147-0.028,0.188-0.056c0.041-0.028,0.061-0.074,0.061-0.14c0-0.049-0.009-0.097-0.027-0.144
			s-0.055-0.111-0.11-0.193c-0.055-0.081-0.156-0.223-0.302-0.424l-0.581-0.781c-0.111-0.146-0.189-0.242-0.237-0.288
			c-0.047-0.045-0.097-0.078-0.149-0.098c-0.052-0.02-0.122-0.029-0.209-0.029h-0.273v1.172c0,0.279,0.013,0.474,0.039,0.583
			c0.026,0.108,0.076,0.191,0.149,0.249c0.073,0.057,0.192,0.106,0.358,0.148v0.239h-1.937v-0.239
			c0.163-0.042,0.276-0.086,0.339-0.132c0.063-0.045,0.109-0.1,0.137-0.163c0.027-0.063,0.047-0.149,0.059-0.259
			c0.011-0.109,0.017-0.251,0.017-0.427v-4.085c0-0.312-0.002-0.53-0.007-0.654s-0.018-0.229-0.039-0.315
			c-0.021-0.086-0.051-0.154-0.088-0.202c-0.038-0.049-0.088-0.088-0.151-0.117s-0.178-0.059-0.344-0.088v-0.254l1.176-0.049h0.292
			V45.472z"/>
	</g>
</g>
<g>
	<g>
		<g>
			
				<line fill="none" stroke="#000000" stroke-width="0.5" stroke-linecap="round" stroke-miterlimit="10" x1="472.123" y1="54.808" x2="450.388" y2="54.808"/>
			<g>
				<path d="M451.286,54.808l1.096,1.801l-0.062,0.041l-2.938-1.166c-1.023-0.225-2.047-0.451-3.07-0.676
					c1.023-0.225,2.047-0.45,3.07-0.676l2.938-1.166l0.062,0.03L451.286,54.808z"/>
			</g>
		</g>
	</g>
	
		<line fill="none" stroke="#000000" stroke-width="0.5" stroke-linecap="round" stroke-miterlimit="10" x1="450.388" y1="54.808" x2="428.654" y2="54.808"/>
</g>
<g>
	<g>
		<path fill="#010101" d="M491.639,48.552v-0.215c0.334-0.11,0.594-0.282,0.777-0.515s0.275-0.479,0.275-0.739
			c0-0.062-0.014-0.114-0.043-0.156c-0.023-0.029-0.046-0.044-0.068-0.044c-0.036,0-0.114,0.032-0.234,0.098
			c-0.059,0.029-0.121,0.044-0.186,0.044c-0.159,0-0.286-0.047-0.381-0.142c-0.094-0.095-0.141-0.225-0.141-0.391
			c0-0.159,0.061-0.296,0.183-0.41c0.122-0.113,0.271-0.171,0.446-0.171c0.215,0,0.406,0.094,0.573,0.281
			c0.167,0.187,0.251,0.435,0.251,0.744c0,0.335-0.115,0.646-0.349,0.935C492.511,48.159,492.143,48.386,491.639,48.552z"/>
	</g>
	<g>
		<path fill="#010101" d="M507.778,49.474h-1.111l0.046-0.138c0.082-0.023,0.141-0.043,0.178-0.06
			c0.038-0.017,0.072-0.041,0.104-0.07c0.033-0.03,0.064-0.077,0.098-0.14c0.033-0.063,0.071-0.159,0.114-0.286l0.246-0.74
			c0.044-0.131,0.08-0.251,0.108-0.358s0.045-0.194,0.051-0.264c0.004-0.068,0-0.122-0.013-0.16c-0.013-0.039-0.032-0.071-0.057-0.1
			c-0.026-0.026-0.059-0.049-0.099-0.064c-0.039-0.016-0.097-0.024-0.17-0.024s-0.147,0.015-0.224,0.045
			c-0.075,0.028-0.164,0.078-0.267,0.149c-0.104,0.072-0.185,0.144-0.242,0.213c-0.06,0.069-0.104,0.148-0.134,0.239l-0.351,1.053
			c-0.055,0.161-0.084,0.274-0.09,0.337c-0.007,0.063,0.007,0.11,0.037,0.145c0.031,0.032,0.092,0.061,0.179,0.086l-0.046,0.138
			h-1.105l0.046-0.138c0.081-0.023,0.14-0.043,0.176-0.06c0.037-0.017,0.071-0.041,0.103-0.07c0.032-0.03,0.064-0.077,0.098-0.139
			c0.033-0.063,0.071-0.159,0.115-0.29l0.41-1.23c0.039-0.121,0.07-0.217,0.091-0.291c0.021-0.073,0.027-0.132,0.02-0.176
			c-0.008-0.045-0.031-0.077-0.07-0.1c-0.039-0.021-0.099-0.04-0.178-0.055l0.05-0.149l0.669-0.025h0.172l-0.185,0.46l0.035,0.012
			c0.187-0.141,0.333-0.242,0.438-0.303c0.105-0.06,0.208-0.106,0.306-0.14c0.099-0.032,0.197-0.049,0.295-0.049
			c0.102,0,0.188,0.012,0.261,0.035c0.071,0.023,0.13,0.06,0.175,0.108s0.074,0.109,0.09,0.183c0.016,0.072,0.016,0.159,0.002,0.26
			c-0.014,0.103-0.047,0.231-0.1,0.388l-0.354,1.063c-0.044,0.13-0.071,0.224-0.082,0.282c-0.014,0.058-0.015,0.104-0.007,0.135
			c0.008,0.032,0.026,0.06,0.056,0.081c0.027,0.021,0.082,0.044,0.162,0.069L507.778,49.474z"/>
	</g>
	<g>
		<path fill="#010101" d="M494.932,46.629c0.14-0.039,0.241-0.073,0.305-0.104c0.063-0.028,0.121-0.069,0.177-0.121
			c0.055-0.053,0.11-0.132,0.168-0.24c0.056-0.106,0.123-0.273,0.198-0.502l0.71-2.128c0.069-0.208,0.122-0.375,0.157-0.502
			s0.047-0.229,0.033-0.306c-0.014-0.076-0.054-0.134-0.121-0.171c-0.067-0.037-0.169-0.069-0.307-0.095l0.086-0.258l1.151-0.044
			h0.298l-1.162,3.489c-0.094,0.28-0.146,0.475-0.157,0.584c-0.01,0.108,0.013,0.191,0.067,0.248
			c0.054,0.058,0.156,0.106,0.309,0.149l-0.08,0.239h-1.912L494.932,46.629z M498.439,40.289l-0.315,0.947h-0.897l0.315-0.947
			H498.439z"/>
	</g>
	<g>
		<path fill="#010101" d="M503.4,42.441l0.059-0.175c0.549,0,0.967,0.093,1.253,0.28c0.285,0.187,0.465,0.488,0.541,0.903
			c0.074,0.415,0.029,0.87-0.136,1.364c-0.14,0.419-0.351,0.804-0.633,1.152c-0.281,0.348-0.596,0.611-0.943,0.788
			c-0.347,0.178-0.649,0.266-0.91,0.266c-0.286,0-0.504-0.081-0.65-0.243c-0.148-0.163-0.244-0.415-0.29-0.757
			c-0.294,0.345-0.58,0.598-0.86,0.76c-0.279,0.16-0.559,0.24-0.839,0.24c-0.243,0-0.473-0.087-0.687-0.261
			s-0.344-0.442-0.389-0.806c-0.044-0.362,0.004-0.755,0.146-1.178c0.152-0.458,0.385-0.876,0.695-1.254
			c0.241-0.293,0.504-0.535,0.792-0.728c0.286-0.191,0.568-0.327,0.845-0.407c0.277-0.08,0.608-0.119,0.997-0.119l-0.059,0.175
			c-0.468,0.045-0.913,0.259-1.334,0.642c-0.422,0.383-0.756,0.944-1.004,1.686c-0.244,0.732-0.311,1.268-0.199,1.611
			c0.068,0.204,0.226,0.308,0.473,0.308c0.205,0,0.428-0.085,0.668-0.254c0.239-0.169,0.498-0.476,0.775-0.918
			c-0.016-0.38-0.015-0.664,0.003-0.849c0.019-0.186,0.056-0.362,0.112-0.532c0.105-0.316,0.269-0.587,0.49-0.815
			c0.11-0.114,0.213-0.17,0.311-0.17c0.101,0,0.169,0.057,0.202,0.17c0.068,0.215,0.051,0.477-0.052,0.786
			c-0.126,0.378-0.389,0.848-0.787,1.411c-0.022,0.446,0.026,0.746,0.146,0.901c0.119,0.154,0.286,0.231,0.501,0.231
			c0.254,0,0.492-0.1,0.715-0.298c0.299-0.267,0.572-0.766,0.816-1.499c0.296-0.887,0.317-1.543,0.064-1.966
			C504.081,42.628,503.802,42.48,503.4,42.441z"/>
	</g>
	<g>
		<path fill="#010101" stroke="#010101" stroke-width="0.2856" stroke-miterlimit="10" d="M487.104,44.169h0.156
			c0.107,0,0.195-0.012,0.264-0.034c0.082-0.029,0.171-0.079,0.269-0.149s0.235-0.188,0.415-0.354
			c0.149-0.14,0.262-0.258,0.339-0.356c0.076-0.098,0.13-0.187,0.159-0.269c0.025-0.068,0.038-0.137,0.038-0.205
			c0-0.098-0.03-0.174-0.09-0.229c-0.061-0.055-0.159-0.093-0.296-0.112v-0.239h2.104v0.239c-0.15,0.029-0.309,0.096-0.479,0.2
			c-0.169,0.104-0.343,0.241-0.521,0.41l-1.123,1.064l1.406,1.834c0.162,0.215,0.309,0.374,0.441,0.477
			c0.131,0.103,0.275,0.17,0.432,0.202v0.239h-1.874v-0.239c0.085-0.01,0.147-0.028,0.188-0.056c0.04-0.028,0.061-0.074,0.061-0.14
			c0-0.049-0.009-0.097-0.027-0.144c-0.018-0.047-0.055-0.111-0.109-0.193c-0.055-0.081-0.156-0.223-0.303-0.424l-0.58-0.781
			c-0.111-0.146-0.189-0.242-0.236-0.288c-0.048-0.045-0.098-0.078-0.149-0.098s-0.122-0.029-0.21-0.029h-0.273v1.172
			c0,0.279,0.014,0.474,0.039,0.583c0.026,0.108,0.076,0.191,0.149,0.249c0.073,0.057,0.192,0.106,0.358,0.148v0.239h-1.938v-0.239
			c0.163-0.042,0.276-0.086,0.34-0.132c0.063-0.045,0.109-0.1,0.137-0.163s0.047-0.149,0.059-0.259s0.017-0.251,0.017-0.427v-4.085
			c0-0.312-0.003-0.53-0.007-0.654c-0.006-0.124-0.018-0.229-0.039-0.315c-0.021-0.086-0.051-0.154-0.088-0.202
			c-0.037-0.049-0.088-0.088-0.151-0.117s-0.179-0.059-0.344-0.088v-0.254l1.176-0.049h0.292V44.169z"/>
	</g>
</g>
<g>
	<g>
		<path fill="#010101" d="M447,48.561v-0.215c0.334-0.11,0.594-0.282,0.777-0.515s0.275-0.479,0.275-0.739
			c0-0.062-0.014-0.114-0.043-0.156c-0.023-0.029-0.046-0.044-0.068-0.044c-0.036,0-0.114,0.032-0.234,0.098
			c-0.059,0.029-0.121,0.044-0.186,0.044c-0.159,0-0.286-0.047-0.381-0.142c-0.094-0.095-0.141-0.225-0.141-0.391
			c0-0.159,0.061-0.296,0.183-0.41c0.122-0.113,0.271-0.171,0.446-0.171c0.215,0,0.406,0.094,0.573,0.281
			c0.167,0.187,0.251,0.435,0.251,0.744c0,0.335-0.115,0.646-0.349,0.935C447.873,48.168,447.504,48.395,447,48.561z"/>
	</g>
	<g>
		<path fill="#010101" d="M463.139,49.482h-1.111l0.046-0.138c0.082-0.023,0.141-0.043,0.178-0.06
			c0.038-0.017,0.072-0.041,0.104-0.07c0.033-0.03,0.064-0.077,0.098-0.14c0.033-0.063,0.071-0.159,0.114-0.286l0.246-0.74
			c0.044-0.131,0.08-0.251,0.108-0.358s0.045-0.194,0.051-0.264c0.004-0.068,0-0.122-0.013-0.16c-0.013-0.039-0.032-0.071-0.057-0.1
			c-0.026-0.026-0.059-0.049-0.099-0.064c-0.039-0.016-0.097-0.024-0.17-0.024s-0.147,0.015-0.224,0.045
			c-0.075,0.028-0.164,0.078-0.267,0.149c-0.104,0.072-0.185,0.144-0.242,0.213c-0.06,0.069-0.104,0.148-0.134,0.239l-0.351,1.053
			c-0.055,0.161-0.084,0.274-0.09,0.337c-0.007,0.063,0.007,0.11,0.037,0.145c0.031,0.032,0.092,0.061,0.179,0.086l-0.046,0.138
			h-1.105l0.046-0.138c0.081-0.023,0.14-0.043,0.176-0.06c0.037-0.017,0.071-0.041,0.103-0.07c0.032-0.03,0.064-0.077,0.098-0.139
			c0.033-0.063,0.071-0.159,0.115-0.29l0.41-1.23c0.039-0.121,0.07-0.217,0.091-0.291c0.021-0.073,0.027-0.132,0.02-0.176
			c-0.008-0.045-0.031-0.077-0.07-0.1c-0.039-0.021-0.099-0.04-0.178-0.055l0.05-0.149l0.669-0.025h0.172l-0.185,0.46l0.035,0.012
			c0.187-0.141,0.333-0.242,0.438-0.303c0.105-0.06,0.208-0.106,0.306-0.14c0.099-0.032,0.197-0.049,0.295-0.049
			c0.102,0,0.188,0.012,0.261,0.035c0.071,0.023,0.13,0.06,0.175,0.108s0.074,0.109,0.09,0.183c0.016,0.072,0.016,0.159,0.002,0.26
			c-0.014,0.103-0.047,0.231-0.1,0.388l-0.354,1.063c-0.044,0.13-0.071,0.224-0.082,0.282c-0.014,0.058-0.015,0.104-0.007,0.135
			c0.008,0.032,0.026,0.06,0.056,0.081c0.027,0.021,0.082,0.044,0.162,0.069L463.139,49.482z"/>
	</g>
	<g>
		<path fill="#010101" d="M450.293,46.638c0.14-0.039,0.241-0.073,0.305-0.104c0.063-0.028,0.121-0.069,0.177-0.121
			c0.055-0.053,0.11-0.132,0.168-0.24c0.056-0.106,0.123-0.273,0.198-0.502l0.71-2.128c0.069-0.208,0.122-0.375,0.157-0.502
			s0.047-0.229,0.033-0.306c-0.014-0.076-0.054-0.134-0.121-0.171c-0.067-0.037-0.169-0.069-0.307-0.095l0.086-0.258l1.151-0.044
			h0.298l-1.162,3.489c-0.094,0.28-0.146,0.475-0.157,0.584c-0.01,0.108,0.013,0.191,0.067,0.248
			c0.054,0.058,0.156,0.106,0.309,0.149l-0.08,0.239h-1.912L450.293,46.638z M453.8,40.297l-0.315,0.947h-0.897l0.315-0.947H453.8z"
			/>
	</g>
	<g>
		<path fill="#010101" d="M458.761,42.45l0.059-0.175c0.549,0,0.967,0.093,1.253,0.28c0.285,0.187,0.465,0.488,0.541,0.903
			c0.074,0.415,0.029,0.87-0.136,1.364c-0.14,0.419-0.351,0.804-0.633,1.152c-0.281,0.348-0.596,0.611-0.943,0.788
			c-0.347,0.178-0.649,0.266-0.91,0.266c-0.286,0-0.504-0.081-0.65-0.243c-0.148-0.163-0.244-0.415-0.29-0.757
			c-0.294,0.345-0.58,0.598-0.86,0.76c-0.279,0.16-0.559,0.24-0.839,0.24c-0.243,0-0.473-0.087-0.687-0.261
			s-0.344-0.442-0.389-0.806c-0.044-0.362,0.004-0.755,0.146-1.178c0.152-0.458,0.385-0.876,0.695-1.254
			c0.241-0.293,0.504-0.535,0.792-0.728c0.286-0.191,0.568-0.327,0.845-0.407c0.277-0.08,0.608-0.119,0.997-0.119l-0.059,0.175
			c-0.468,0.045-0.913,0.259-1.334,0.642c-0.422,0.383-0.756,0.944-1.004,1.686c-0.244,0.732-0.311,1.268-0.199,1.611
			c0.068,0.204,0.226,0.308,0.473,0.308c0.205,0,0.428-0.085,0.668-0.254c0.239-0.169,0.498-0.476,0.775-0.918
			c-0.016-0.38-0.015-0.664,0.003-0.849c0.019-0.186,0.056-0.362,0.112-0.532c0.105-0.316,0.269-0.587,0.49-0.815
			c0.11-0.114,0.213-0.17,0.311-0.17c0.101,0,0.169,0.057,0.202,0.17c0.068,0.215,0.051,0.477-0.052,0.786
			c-0.126,0.378-0.389,0.848-0.787,1.411c-0.022,0.446,0.026,0.746,0.146,0.901c0.119,0.154,0.286,0.231,0.501,0.231
			c0.254,0,0.492-0.1,0.715-0.298c0.299-0.267,0.572-0.766,0.816-1.499c0.296-0.887,0.317-1.543,0.064-1.966
			C459.442,42.637,459.164,42.489,458.761,42.45z"/>
	</g>
	<g>
		<path fill="#010101" stroke="#010101" stroke-width="0.2856" stroke-miterlimit="10" d="M442.465,44.178h0.156
			c0.107,0,0.195-0.012,0.264-0.034c0.082-0.029,0.171-0.079,0.269-0.149s0.235-0.188,0.415-0.354
			c0.149-0.14,0.262-0.258,0.339-0.356c0.076-0.098,0.13-0.187,0.159-0.269c0.025-0.068,0.038-0.137,0.038-0.205
			c0-0.098-0.03-0.174-0.09-0.229c-0.061-0.055-0.159-0.093-0.296-0.112v-0.239h2.104v0.239c-0.15,0.029-0.309,0.096-0.479,0.2
			c-0.169,0.104-0.343,0.241-0.521,0.41l-1.123,1.064l1.406,1.834c0.162,0.215,0.309,0.374,0.441,0.477
			c0.131,0.103,0.275,0.17,0.432,0.202v0.239h-1.874v-0.239c0.085-0.01,0.147-0.028,0.188-0.056c0.04-0.028,0.061-0.074,0.061-0.14
			c0-0.049-0.009-0.097-0.027-0.144c-0.018-0.047-0.055-0.111-0.109-0.193c-0.055-0.081-0.156-0.223-0.303-0.424l-0.58-0.781
			c-0.111-0.146-0.189-0.242-0.236-0.288c-0.048-0.045-0.098-0.078-0.149-0.098s-0.122-0.029-0.21-0.029h-0.273v1.172
			c0,0.279,0.014,0.474,0.039,0.583c0.026,0.108,0.076,0.191,0.149,0.249c0.073,0.057,0.192,0.106,0.358,0.148v0.239h-1.938v-0.239
			c0.163-0.042,0.276-0.086,0.34-0.132c0.063-0.045,0.109-0.1,0.137-0.163s0.047-0.149,0.059-0.259s0.017-0.251,0.017-0.427v-4.085
			c0-0.312-0.003-0.53-0.007-0.654c-0.006-0.124-0.018-0.229-0.039-0.315c-0.021-0.086-0.051-0.154-0.088-0.202
			c-0.037-0.049-0.088-0.088-0.151-0.117s-0.179-0.059-0.344-0.088v-0.254l1.176-0.049h0.292V44.178z"/>
	</g>
</g>
<g>
	<g>
		<path fill="#010101" d="M490.313,22.125V21.91c0.336-0.11,0.595-0.282,0.779-0.515c0.184-0.232,0.275-0.479,0.275-0.739
			c0-0.062-0.016-0.114-0.045-0.156c-0.021-0.029-0.045-0.044-0.067-0.044c-0.036,0-0.114,0.032-0.234,0.098
			c-0.059,0.029-0.12,0.044-0.186,0.044c-0.159,0-0.286-0.047-0.38-0.142c-0.095-0.095-0.143-0.225-0.143-0.391
			c0-0.159,0.062-0.296,0.184-0.41c0.122-0.113,0.271-0.171,0.446-0.171c0.215,0,0.405,0.094,0.573,0.281
			c0.168,0.187,0.252,0.435,0.252,0.744c0,0.335-0.117,0.646-0.35,0.935S490.818,21.959,490.313,22.125z"/>
	</g>
	<g>
		<path fill="#010101" d="M506.453,23.047h-1.111l0.046-0.138c0.082-0.023,0.141-0.043,0.178-0.06
			c0.038-0.017,0.072-0.041,0.104-0.07c0.033-0.03,0.064-0.077,0.098-0.14c0.033-0.063,0.071-0.159,0.114-0.286l0.246-0.74
			c0.044-0.131,0.08-0.251,0.108-0.358s0.045-0.194,0.051-0.264c0.004-0.068,0-0.122-0.013-0.16c-0.013-0.039-0.032-0.071-0.057-0.1
			c-0.026-0.026-0.059-0.049-0.099-0.064c-0.039-0.016-0.097-0.024-0.17-0.024s-0.147,0.015-0.224,0.045
			c-0.075,0.028-0.164,0.078-0.267,0.149c-0.104,0.072-0.185,0.144-0.242,0.213c-0.06,0.069-0.104,0.148-0.134,0.239l-0.351,1.053
			c-0.055,0.161-0.084,0.274-0.09,0.337c-0.007,0.063,0.007,0.11,0.037,0.145c0.031,0.032,0.092,0.061,0.179,0.086l-0.046,0.138
			h-1.105l0.046-0.138c0.081-0.023,0.14-0.043,0.176-0.06c0.037-0.017,0.071-0.041,0.103-0.07c0.032-0.03,0.064-0.077,0.098-0.139
			c0.033-0.063,0.071-0.159,0.115-0.29l0.41-1.23c0.039-0.121,0.07-0.217,0.091-0.291c0.021-0.073,0.027-0.132,0.02-0.176
			c-0.008-0.045-0.031-0.077-0.07-0.1c-0.039-0.021-0.099-0.04-0.178-0.055l0.05-0.149l0.669-0.025h0.172l-0.185,0.46l0.035,0.012
			c0.187-0.141,0.333-0.242,0.438-0.303c0.105-0.06,0.208-0.106,0.306-0.14c0.099-0.032,0.197-0.049,0.295-0.049
			c0.102,0,0.188,0.012,0.261,0.035c0.071,0.023,0.13,0.06,0.175,0.108s0.074,0.109,0.09,0.183c0.016,0.072,0.016,0.159,0.002,0.26
			c-0.014,0.103-0.047,0.231-0.1,0.388l-0.354,1.063c-0.044,0.13-0.071,0.224-0.082,0.282c-0.014,0.058-0.015,0.104-0.007,0.135
			c0.008,0.032,0.026,0.06,0.056,0.081c0.027,0.021,0.082,0.044,0.162,0.069L506.453,23.047z"/>
	</g>
	<g>
		<path fill="#010101" d="M493.607,20.202c0.14-0.039,0.241-0.073,0.305-0.104c0.063-0.028,0.122-0.069,0.177-0.121
			c0.055-0.053,0.111-0.132,0.168-0.24c0.057-0.106,0.123-0.273,0.199-0.502l0.709-2.128c0.069-0.208,0.122-0.375,0.157-0.502
			s0.047-0.229,0.033-0.306c-0.014-0.076-0.054-0.134-0.12-0.171c-0.068-0.037-0.17-0.069-0.308-0.095l0.086-0.258l1.151-0.044
			h0.298l-1.163,3.489c-0.093,0.28-0.145,0.475-0.156,0.584c-0.01,0.108,0.013,0.191,0.066,0.248
			c0.055,0.058,0.157,0.106,0.31,0.149l-0.08,0.239h-1.912L493.607,20.202z M497.114,13.862l-0.315,0.947h-0.897l0.315-0.947
			H497.114z"/>
	</g>
	<g>
		<path fill="#010101" d="M502.075,16.014l0.059-0.175c0.549,0,0.967,0.093,1.253,0.28c0.285,0.187,0.465,0.488,0.541,0.903
			c0.074,0.415,0.029,0.87-0.136,1.364c-0.14,0.419-0.351,0.804-0.633,1.152c-0.281,0.348-0.596,0.611-0.943,0.788
			c-0.347,0.178-0.649,0.266-0.91,0.266c-0.286,0-0.504-0.081-0.65-0.243c-0.148-0.163-0.244-0.415-0.29-0.757
			c-0.294,0.345-0.58,0.598-0.86,0.76c-0.279,0.16-0.559,0.24-0.839,0.24c-0.243,0-0.473-0.087-0.687-0.261
			s-0.344-0.442-0.389-0.806c-0.044-0.362,0.004-0.755,0.146-1.178c0.152-0.458,0.385-0.876,0.695-1.254
			c0.241-0.293,0.504-0.535,0.792-0.728c0.286-0.191,0.568-0.327,0.845-0.407c0.277-0.08,0.608-0.119,0.997-0.119l-0.059,0.175
			c-0.468,0.045-0.913,0.259-1.334,0.642c-0.422,0.383-0.756,0.944-1.004,1.686c-0.244,0.732-0.311,1.268-0.199,1.611
			c0.068,0.204,0.226,0.308,0.473,0.308c0.205,0,0.428-0.085,0.668-0.254c0.239-0.169,0.498-0.476,0.775-0.918
			c-0.016-0.38-0.015-0.664,0.003-0.849c0.019-0.186,0.056-0.362,0.112-0.532c0.105-0.316,0.269-0.587,0.49-0.815
			c0.11-0.114,0.213-0.17,0.311-0.17c0.101,0,0.169,0.057,0.202,0.17c0.068,0.215,0.051,0.477-0.052,0.786
			c-0.126,0.378-0.389,0.848-0.787,1.411c-0.022,0.446,0.026,0.746,0.146,0.901c0.119,0.154,0.286,0.231,0.501,0.231
			c0.254,0,0.492-0.1,0.715-0.298c0.299-0.267,0.572-0.766,0.816-1.499c0.296-0.887,0.317-1.543,0.064-1.966
			C502.755,16.201,502.477,16.053,502.075,16.014z"/>
	</g>
	<g>
		<path fill="#010101" stroke="#010101" stroke-width="0.2856" stroke-miterlimit="10" d="M489.468,22.56h-1.991V22.32
			c0.156-0.032,0.27-0.068,0.34-0.107c0.069-0.039,0.123-0.089,0.16-0.148c0.038-0.061,0.064-0.142,0.078-0.244
			c0.016-0.103,0.022-0.262,0.022-0.476V19.66c-0.176,0.199-0.339,0.357-0.49,0.477c-0.151,0.118-0.319,0.215-0.505,0.29
			s-0.383,0.112-0.591,0.112c-0.536,0-0.948-0.2-1.237-0.601c-0.287-0.4-0.432-0.982-0.432-1.747c0-0.54,0.094-0.996,0.281-1.369
			s0.447-0.651,0.783-0.834c0.334-0.184,0.722-0.276,1.161-0.276c0.23,0,0.438,0.023,0.624,0.071
			c0.186,0.047,0.376,0.123,0.571,0.227l0.341-0.297l0.332,0.078v5.554c0,0.191,0.008,0.344,0.021,0.456
			c0.016,0.112,0.041,0.201,0.078,0.266c0.038,0.065,0.094,0.115,0.166,0.151c0.074,0.036,0.169,0.07,0.286,0.103V22.56z
			 M488.078,17.552c0-0.303-0.02-0.537-0.059-0.703c-0.039-0.166-0.106-0.307-0.2-0.422c-0.094-0.115-0.205-0.198-0.332-0.249
			c-0.127-0.05-0.275-0.076-0.448-0.076c-0.42,0-0.741,0.169-0.964,0.508s-0.334,0.815-0.334,1.43c0,0.625,0.09,1.1,0.271,1.426
			c0.181,0.325,0.452,0.487,0.813,0.487c0.137,0,0.253-0.012,0.349-0.036s0.19-0.064,0.283-0.12c0.093-0.055,0.188-0.13,0.283-0.225
			c0.096-0.094,0.164-0.18,0.207-0.256s0.074-0.165,0.098-0.266c0.022-0.102,0.034-0.231,0.034-0.391V17.552z"/>
	</g>
</g>
<g>
	<g>
		<g>
			
				<line fill="none" stroke="#000000" stroke-width="0.5" stroke-linecap="round" stroke-miterlimit="10" x1="409.591" y1="54.808" x2="387.857" y2="54.808"/>
			<g>
				<path d="M388.754,54.808l1.096,1.801l-0.062,0.041l-2.938-1.167c-1.023-0.225-2.047-0.45-3.07-0.675
					c1.023-0.225,2.047-0.45,3.07-0.675l2.938-1.167l0.062,0.031L388.754,54.808z"/>
			</g>
		</g>
	</g>
	
		<line fill="none" stroke="#000000" stroke-width="0.5" stroke-linecap="round" stroke-miterlimit="10" x1="387.857" y1="54.808" x2="366.123" y2="54.808"/>
</g>
<g>
	<g>
		
			<line fill="none" stroke="#000000" stroke-width="0.5" stroke-linecap="round" stroke-miterlimit="10" stroke-dasharray="2,1" x1="366.123" y1="54.808" x2="366.123" y2="35.733"/>
		<g>
			<path d="M366.123,36.63l-1.802,1.096l-0.041-0.062l1.167-2.938c0.226-1.023,0.45-2.047,0.676-3.07
				c0.226,1.023,0.45,2.047,0.676,3.07l1.167,2.938l-0.031,0.062L366.123,36.63z"/>
		</g>
	</g>
</g>
<g>
	<g>
		<g>
			
				<line fill="none" stroke="#000000" stroke-width="0.5" stroke-linecap="round" stroke-miterlimit="10" x1="366.123" y1="18.918" x2="344.388" y2="18.918"/>
			<g>
				<path d="M345.286,18.918l1.096,1.801l-0.062,0.041l-2.938-1.166c-1.023-0.225-2.047-0.451-3.07-0.676
					c1.023-0.225,2.047-0.45,3.07-0.676l2.938-1.166l0.062,0.03L345.286,18.918z"/>
			</g>
		</g>
	</g>
	
		<line fill="none" stroke="#000000" stroke-width="0.5" stroke-linecap="round" stroke-miterlimit="10" x1="344.388" y1="18.918" x2="322.654" y2="18.918"/>
</g>
<g>
	<g>
		<path fill="#010101" d="M389.805,51.157v-0.215c0.336-0.11,0.595-0.282,0.779-0.515c0.184-0.232,0.275-0.479,0.275-0.739
			c0-0.062-0.016-0.114-0.045-0.156c-0.021-0.029-0.045-0.044-0.067-0.044c-0.036,0-0.114,0.032-0.234,0.098
			c-0.059,0.029-0.12,0.044-0.186,0.044c-0.159,0-0.286-0.047-0.38-0.142c-0.095-0.095-0.143-0.225-0.143-0.391
			c0-0.159,0.062-0.296,0.184-0.41c0.122-0.113,0.271-0.171,0.446-0.171c0.215,0,0.405,0.094,0.573,0.281
			c0.168,0.187,0.252,0.435,0.252,0.744c0,0.335-0.117,0.646-0.35,0.935S390.31,50.991,389.805,51.157z"/>
	</g>
	<g>
		<path fill="#010101" d="M405.945,52.079h-1.111l0.046-0.138c0.082-0.023,0.141-0.043,0.178-0.06
			c0.038-0.017,0.072-0.041,0.104-0.07c0.033-0.03,0.064-0.077,0.098-0.14c0.033-0.063,0.071-0.159,0.114-0.286l0.246-0.74
			c0.044-0.131,0.08-0.251,0.108-0.358s0.045-0.194,0.051-0.264c0.004-0.068,0-0.122-0.013-0.16c-0.013-0.039-0.032-0.071-0.057-0.1
			c-0.026-0.026-0.059-0.049-0.099-0.064c-0.039-0.016-0.097-0.024-0.17-0.024s-0.147,0.015-0.224,0.045
			c-0.075,0.028-0.164,0.078-0.267,0.149c-0.104,0.072-0.185,0.144-0.242,0.213c-0.06,0.069-0.104,0.148-0.134,0.239l-0.351,1.053
			c-0.055,0.161-0.084,0.274-0.09,0.337c-0.007,0.063,0.007,0.11,0.037,0.145c0.031,0.032,0.092,0.061,0.179,0.086l-0.046,0.138
			h-1.105l0.046-0.138c0.081-0.023,0.14-0.043,0.176-0.06c0.037-0.017,0.071-0.041,0.103-0.07c0.032-0.03,0.064-0.077,0.098-0.139
			c0.033-0.063,0.071-0.159,0.115-0.29l0.41-1.23c0.039-0.121,0.07-0.217,0.091-0.291c0.021-0.073,0.027-0.132,0.02-0.176
			c-0.008-0.045-0.031-0.077-0.07-0.1c-0.039-0.021-0.099-0.04-0.178-0.055l0.05-0.149l0.669-0.025h0.172l-0.185,0.46l0.035,0.012
			c0.187-0.141,0.333-0.242,0.438-0.303c0.105-0.06,0.208-0.106,0.306-0.14c0.099-0.032,0.197-0.049,0.295-0.049
			c0.102,0,0.188,0.012,0.261,0.035c0.071,0.023,0.13,0.06,0.175,0.108s0.074,0.109,0.09,0.183c0.016,0.072,0.016,0.159,0.002,0.26
			c-0.014,0.103-0.047,0.231-0.1,0.388l-0.354,1.063c-0.044,0.13-0.071,0.224-0.082,0.282c-0.014,0.058-0.015,0.104-0.007,0.135
			c0.008,0.032,0.026,0.06,0.056,0.081c0.027,0.021,0.082,0.044,0.162,0.069L405.945,52.079z"/>
	</g>
	<g>
		<path fill="#010101" d="M393.099,49.234c0.14-0.039,0.241-0.073,0.305-0.104c0.063-0.028,0.122-0.069,0.177-0.121
			c0.055-0.053,0.111-0.132,0.168-0.24c0.057-0.106,0.123-0.273,0.199-0.502l0.709-2.128c0.069-0.208,0.122-0.375,0.157-0.502
			s0.047-0.229,0.033-0.306c-0.014-0.076-0.054-0.134-0.12-0.171c-0.068-0.037-0.17-0.069-0.308-0.095l0.086-0.258l1.151-0.044
			h0.298l-1.163,3.489c-0.093,0.28-0.145,0.475-0.156,0.584c-0.01,0.108,0.013,0.191,0.066,0.248
			c0.055,0.058,0.157,0.106,0.31,0.149l-0.08,0.239h-1.912L393.099,49.234z M396.606,42.894l-0.315,0.947h-0.897l0.315-0.947
			H396.606z"/>
	</g>
	<g>
		<path fill="#010101" d="M401.567,45.046l0.059-0.175c0.549,0,0.967,0.093,1.253,0.28c0.285,0.187,0.465,0.488,0.541,0.903
			c0.074,0.415,0.029,0.87-0.136,1.364c-0.14,0.419-0.351,0.804-0.633,1.152c-0.281,0.348-0.596,0.611-0.943,0.788
			c-0.347,0.178-0.649,0.266-0.91,0.266c-0.286,0-0.504-0.081-0.65-0.243c-0.148-0.163-0.244-0.415-0.29-0.757
			c-0.294,0.345-0.58,0.598-0.86,0.76c-0.279,0.16-0.559,0.24-0.839,0.24c-0.243,0-0.473-0.087-0.687-0.261
			s-0.344-0.442-0.389-0.806c-0.044-0.362,0.004-0.755,0.146-1.178c0.152-0.458,0.385-0.876,0.695-1.254
			c0.241-0.293,0.504-0.535,0.792-0.728c0.286-0.191,0.568-0.327,0.845-0.407c0.277-0.08,0.608-0.119,0.997-0.119l-0.059,0.175
			c-0.468,0.045-0.913,0.259-1.334,0.642c-0.422,0.383-0.756,0.944-1.004,1.686c-0.244,0.732-0.311,1.268-0.199,1.611
			c0.068,0.204,0.226,0.308,0.473,0.308c0.205,0,0.428-0.085,0.668-0.254c0.239-0.169,0.498-0.476,0.775-0.918
			c-0.016-0.38-0.015-0.664,0.003-0.849c0.019-0.186,0.056-0.362,0.112-0.532c0.105-0.316,0.269-0.587,0.49-0.815
			c0.11-0.114,0.213-0.17,0.311-0.17c0.101,0,0.169,0.057,0.202,0.17c0.068,0.215,0.051,0.477-0.052,0.786
			c-0.126,0.378-0.389,0.848-0.787,1.411c-0.022,0.446,0.026,0.746,0.146,0.901c0.119,0.154,0.286,0.231,0.501,0.231
			c0.254,0,0.492-0.1,0.715-0.298c0.299-0.267,0.572-0.766,0.816-1.499c0.296-0.887,0.317-1.543,0.064-1.966
			C402.248,45.233,401.969,45.085,401.567,45.046z"/>
	</g>
	<g>
		<path fill="#010101" stroke="#010101" stroke-width="0.2856" stroke-miterlimit="10" d="M385.272,46.775h0.156
			c0.107,0,0.195-0.012,0.263-0.034c0.081-0.029,0.171-0.079,0.269-0.149s0.236-0.188,0.414-0.354c0.15-0.14,0.264-0.258,0.34-0.356
			s0.129-0.187,0.158-0.269c0.026-0.068,0.039-0.137,0.039-0.205c0-0.098-0.029-0.174-0.09-0.229
			c-0.061-0.055-0.158-0.093-0.295-0.112v-0.239h2.103v0.239c-0.149,0.029-0.31,0.096-0.479,0.2
			c-0.169,0.104-0.343,0.241-0.522,0.41l-1.121,1.064l1.404,1.834c0.163,0.215,0.311,0.374,0.441,0.477
			c0.133,0.103,0.276,0.17,0.432,0.202v0.239h-1.873v-0.239c0.085-0.01,0.147-0.028,0.188-0.056c0.041-0.028,0.062-0.074,0.062-0.14
			c0-0.049-0.009-0.097-0.026-0.144c-0.019-0.047-0.055-0.111-0.11-0.193c-0.056-0.081-0.155-0.223-0.302-0.424l-0.581-0.781
			c-0.11-0.146-0.189-0.242-0.237-0.288c-0.047-0.045-0.096-0.078-0.148-0.098c-0.052-0.02-0.121-0.029-0.209-0.029h-0.273v1.172
			c0,0.279,0.013,0.474,0.039,0.583c0.025,0.108,0.075,0.191,0.148,0.249c0.073,0.057,0.192,0.106,0.358,0.148v0.239h-1.937v-0.239
			c0.162-0.042,0.275-0.086,0.339-0.132c0.063-0.045,0.108-0.1,0.137-0.163c0.027-0.063,0.047-0.149,0.059-0.259
			c0.011-0.109,0.017-0.251,0.017-0.427v-4.085c0-0.312-0.002-0.53-0.008-0.654c-0.004-0.124-0.018-0.229-0.038-0.315
			c-0.021-0.086-0.051-0.154-0.088-0.202c-0.038-0.049-0.088-0.088-0.151-0.117s-0.178-0.059-0.344-0.088v-0.254l1.176-0.049h0.293
			V46.775z"/>
	</g>
</g>
<g>
	<g>
		<path fill="#010101" d="M341,30.362v-0.215c0.334-0.11,0.594-0.282,0.777-0.515s0.275-0.479,0.275-0.739
			c0-0.062-0.014-0.114-0.043-0.156c-0.023-0.029-0.046-0.044-0.068-0.044c-0.036,0-0.114,0.032-0.234,0.098
			c-0.059,0.029-0.121,0.044-0.186,0.044c-0.159,0-0.286-0.047-0.381-0.142c-0.094-0.095-0.141-0.225-0.141-0.391
			c0-0.159,0.061-0.296,0.183-0.41c0.122-0.113,0.271-0.171,0.446-0.171c0.215,0,0.406,0.094,0.573,0.281
			c0.167,0.187,0.251,0.435,0.251,0.744c0,0.335-0.115,0.646-0.349,0.935C341.873,29.97,341.504,30.196,341,30.362z"/>
	</g>
	<g>
		<path fill="#010101" d="M357.139,31.284h-1.111l0.046-0.138c0.082-0.023,0.141-0.043,0.178-0.06
			c0.038-0.017,0.072-0.041,0.104-0.07c0.033-0.03,0.064-0.077,0.098-0.14c0.033-0.063,0.071-0.159,0.114-0.286l0.246-0.74
			c0.044-0.131,0.08-0.251,0.108-0.358s0.045-0.194,0.051-0.264c0.004-0.068,0-0.122-0.013-0.16c-0.013-0.039-0.032-0.071-0.057-0.1
			c-0.026-0.026-0.059-0.049-0.099-0.064c-0.039-0.016-0.097-0.024-0.17-0.024s-0.147,0.015-0.224,0.045
			c-0.075,0.028-0.164,0.078-0.267,0.149c-0.104,0.072-0.185,0.144-0.242,0.213c-0.06,0.069-0.104,0.148-0.134,0.239l-0.351,1.053
			c-0.055,0.161-0.084,0.274-0.09,0.337c-0.007,0.063,0.007,0.11,0.037,0.145c0.031,0.032,0.092,0.061,0.179,0.086l-0.046,0.138
			h-1.105l0.046-0.138c0.081-0.023,0.14-0.043,0.176-0.06c0.037-0.017,0.071-0.041,0.103-0.07c0.032-0.03,0.064-0.077,0.098-0.139
			c0.033-0.063,0.071-0.159,0.115-0.29l0.41-1.23c0.039-0.121,0.07-0.217,0.091-0.291c0.021-0.073,0.027-0.132,0.02-0.176
			c-0.008-0.045-0.031-0.077-0.07-0.1c-0.039-0.021-0.099-0.04-0.178-0.055l0.05-0.149l0.669-0.025h0.172l-0.185,0.46l0.035,0.012
			c0.187-0.141,0.333-0.242,0.438-0.303c0.105-0.06,0.208-0.106,0.306-0.14c0.099-0.032,0.197-0.049,0.295-0.049
			c0.102,0,0.188,0.012,0.261,0.035c0.071,0.023,0.13,0.06,0.175,0.108s0.074,0.109,0.09,0.183c0.016,0.072,0.016,0.159,0.002,0.26
			c-0.014,0.103-0.047,0.231-0.1,0.388l-0.354,1.063c-0.044,0.13-0.071,0.224-0.082,0.282c-0.014,0.058-0.015,0.104-0.007,0.135
			c0.008,0.032,0.026,0.06,0.056,0.081c0.027,0.021,0.082,0.044,0.162,0.069L357.139,31.284z"/>
	</g>
	<g>
		<path fill="#010101" d="M344.293,28.439c0.14-0.039,0.241-0.073,0.305-0.104c0.063-0.028,0.121-0.069,0.177-0.121
			c0.055-0.053,0.11-0.132,0.168-0.24c0.056-0.106,0.123-0.273,0.198-0.502l0.71-2.128c0.069-0.208,0.122-0.375,0.157-0.502
			s0.047-0.229,0.033-0.306c-0.014-0.076-0.054-0.134-0.121-0.171c-0.067-0.037-0.169-0.069-0.307-0.095l0.086-0.258l1.151-0.044
			h0.298l-1.162,3.489c-0.094,0.28-0.146,0.475-0.157,0.584c-0.01,0.108,0.013,0.191,0.067,0.248
			c0.054,0.058,0.156,0.106,0.309,0.149l-0.08,0.239h-1.912L344.293,28.439z M347.8,22.099l-0.315,0.947h-0.897l0.315-0.947H347.8z"
			/>
	</g>
	<g>
		<path fill="#010101" d="M352.761,24.251l0.059-0.175c0.549,0,0.967,0.093,1.253,0.28c0.285,0.187,0.465,0.488,0.541,0.903
			c0.074,0.415,0.029,0.87-0.136,1.364c-0.14,0.419-0.351,0.804-0.633,1.152c-0.281,0.348-0.596,0.611-0.943,0.788
			c-0.347,0.178-0.649,0.266-0.91,0.266c-0.286,0-0.504-0.081-0.65-0.243c-0.148-0.163-0.244-0.415-0.29-0.757
			c-0.294,0.345-0.58,0.598-0.86,0.76c-0.279,0.16-0.559,0.24-0.839,0.24c-0.243,0-0.473-0.087-0.687-0.261
			s-0.344-0.442-0.389-0.806c-0.044-0.362,0.004-0.755,0.146-1.178c0.152-0.458,0.385-0.876,0.695-1.254
			c0.241-0.293,0.504-0.535,0.792-0.728c0.286-0.191,0.568-0.327,0.845-0.407c0.277-0.08,0.608-0.119,0.997-0.119l-0.059,0.175
			c-0.468,0.045-0.913,0.259-1.334,0.642c-0.422,0.383-0.756,0.944-1.004,1.686c-0.244,0.732-0.311,1.268-0.199,1.611
			c0.068,0.204,0.226,0.308,0.473,0.308c0.205,0,0.428-0.085,0.668-0.254c0.239-0.169,0.498-0.476,0.775-0.918
			c-0.016-0.38-0.015-0.664,0.003-0.849c0.019-0.186,0.056-0.362,0.112-0.532c0.105-0.316,0.269-0.587,0.49-0.815
			c0.11-0.114,0.213-0.17,0.311-0.17c0.101,0,0.169,0.057,0.202,0.17c0.068,0.215,0.051,0.477-0.052,0.786
			c-0.126,0.378-0.389,0.848-0.787,1.411c-0.022,0.446,0.026,0.746,0.146,0.901c0.119,0.154,0.286,0.231,0.501,0.231
			c0.254,0,0.492-0.1,0.715-0.298c0.299-0.267,0.572-0.766,0.816-1.499c0.296-0.887,0.317-1.543,0.064-1.966
			C353.442,24.438,353.164,24.291,352.761,24.251z"/>
	</g>
	<g>
		<path fill="#010101" stroke="#010101" stroke-width="0.2856" stroke-miterlimit="10" d="M336.465,25.98h0.156
			c0.107,0,0.195-0.012,0.264-0.034c0.082-0.029,0.171-0.079,0.269-0.149s0.235-0.188,0.415-0.354
			c0.149-0.14,0.262-0.258,0.339-0.356c0.076-0.098,0.13-0.187,0.159-0.269c0.025-0.068,0.038-0.137,0.038-0.205
			c0-0.098-0.03-0.174-0.09-0.229c-0.061-0.055-0.159-0.093-0.296-0.112v-0.239h2.104v0.239c-0.15,0.029-0.309,0.096-0.479,0.2
			c-0.169,0.104-0.343,0.241-0.521,0.41l-1.123,1.064l1.406,1.834c0.162,0.215,0.309,0.374,0.441,0.477
			c0.131,0.103,0.275,0.17,0.432,0.202v0.239h-1.874v-0.239c0.085-0.01,0.147-0.028,0.188-0.056c0.04-0.028,0.061-0.074,0.061-0.14
			c0-0.049-0.009-0.097-0.027-0.144c-0.018-0.047-0.055-0.111-0.109-0.193c-0.055-0.081-0.156-0.223-0.303-0.424l-0.58-0.781
			c-0.111-0.146-0.189-0.242-0.236-0.288c-0.048-0.045-0.098-0.078-0.149-0.098s-0.122-0.029-0.21-0.029h-0.273v1.172
			c0,0.279,0.014,0.474,0.039,0.583c0.026,0.108,0.076,0.191,0.149,0.249c0.073,0.057,0.192,0.106,0.358,0.148v0.239h-1.938v-0.239
			c0.163-0.042,0.276-0.086,0.34-0.132c0.063-0.045,0.109-0.1,0.137-0.163s0.047-0.149,0.059-0.259s0.017-0.251,0.017-0.427v-4.085
			c0-0.312-0.003-0.53-0.007-0.654c-0.006-0.124-0.018-0.229-0.039-0.315c-0.021-0.086-0.051-0.154-0.088-0.202
			c-0.037-0.049-0.088-0.088-0.151-0.117s-0.179-0.059-0.344-0.088v-0.254l1.176-0.049h0.292V25.98z"/>
	</g>
</g>
<circle fill="#FFFFFF" stroke="#000000" stroke-width="0.5" stroke-miterlimit="10" cx="368.958" cy="18.918" r="2.836"/>
<circle fill="#FFFFFF" stroke="#000000" stroke-width="0.5" stroke-miterlimit="10" cx="363.287" cy="54.808" r="2.836"/>
<line fill="none" stroke="#000000" stroke-width="0.5" stroke-linecap="round" stroke-miterlimit="10" stroke-dasharray="2,1" x1="366.123" y1="31.657" x2="366.123" y2="18.918"/>
<g>
	<g>
		<path fill="#010101" stroke="#010101" stroke-width="0.2856" stroke-miterlimit="10" d="M372.512,30.38h0.156
			c0.107,0,0.195-0.011,0.264-0.034c0.082-0.029,0.171-0.078,0.269-0.148s0.235-0.188,0.415-0.354
			c0.149-0.14,0.262-0.258,0.339-0.356c0.076-0.098,0.13-0.187,0.159-0.269c0.025-0.068,0.038-0.137,0.038-0.205
			c0-0.098-0.03-0.174-0.09-0.229c-0.061-0.055-0.159-0.093-0.296-0.112v-0.239h2.104v0.239c-0.149,0.029-0.31,0.096-0.479,0.2
			c-0.169,0.104-0.343,0.241-0.521,0.41l-1.123,1.063l1.405,1.835c0.163,0.215,0.311,0.374,0.442,0.477
			c0.131,0.103,0.275,0.17,0.432,0.202v0.239h-1.874v-0.239c0.085-0.01,0.147-0.028,0.188-0.056c0.04-0.028,0.061-0.074,0.061-0.14
			c0-0.049-0.009-0.097-0.027-0.144c-0.018-0.047-0.055-0.111-0.109-0.193c-0.055-0.081-0.156-0.223-0.303-0.424l-0.58-0.781
			c-0.111-0.146-0.189-0.242-0.236-0.288c-0.048-0.045-0.098-0.078-0.149-0.098s-0.122-0.029-0.21-0.029h-0.273v1.172
			c0,0.279,0.014,0.474,0.039,0.583c0.026,0.108,0.076,0.191,0.149,0.249c0.073,0.057,0.192,0.106,0.358,0.148v0.239h-1.938v-0.239
			c0.163-0.042,0.276-0.086,0.34-0.132c0.063-0.045,0.109-0.1,0.137-0.163s0.047-0.149,0.059-0.259s0.017-0.251,0.017-0.427v-4.085
			c0-0.312-0.003-0.53-0.007-0.654c-0.006-0.124-0.018-0.229-0.039-0.315c-0.021-0.086-0.051-0.154-0.088-0.202
			c-0.037-0.049-0.088-0.088-0.151-0.117s-0.179-0.059-0.344-0.088v-0.254l1.176-0.049h0.292V30.38z"/>
	</g>
</g>
<g>
	<path d="M310.407,34.916v2.818h2.711v0.72h-2.711v2.842h-0.768v-2.842h-2.711v-0.72h2.711v-2.818H310.407z"/>
</g>
</svg>
