<?xml version="1.0" encoding="utf-8"?>
<!-- Generator: Adobe Illustrator 15.1.0, SVG Export Plug-In . SVG Version: 6.00 Build 0)  -->
<!DOCTYPE svg PUBLIC "-//W3C//DTD SVG 1.1//EN" "http://www.w3.org/Graphics/SVG/1.1/DTD/svg11.dtd">
<svg version="1.1" id="Layer_1" xmlns="http://www.w3.org/2000/svg" xmlns:xlink="http://www.w3.org/1999/xlink" x="0px" y="0px"
	 width="103px" height="97.667px" viewBox="0 0 103 97.667" enable-background="new 0 0 103 97.667" xml:space="preserve">
<g>
	<g>
		<line fill="none" stroke="#000000" stroke-width="0.5" stroke-miterlimit="10" x1="10.644" y1="97.667" x2="10.644" y2="4.076"/>
		<g>
			<path d="M10.644,4.974L8.843,6.069L8.802,6.008L9.969,3.07c0.225-1.023,0.45-2.047,0.675-3.07c0.225,1.023,0.45,2.047,0.675,3.07
				l1.167,2.938l-0.031,0.062L10.644,4.974z"/>
		</g>
	</g>
</g>
<g>
	<g>
		<line fill="none" stroke="#000000" stroke-width="0.5" stroke-miterlimit="10" x1="0" y1="84.955" x2="98.924" y2="84.955"/>
		<g>
			<path d="M98.026,84.955l-1.096-1.802l0.062-0.041l2.938,1.167c1.023,0.226,2.047,0.45,3.07,0.676
				c-1.023,0.225-2.047,0.45-3.07,0.676l-2.938,1.167l-0.062-0.031L98.026,84.955z"/>
		</g>
	</g>
</g>
<g>
	<g>
		<path fill="#010101" d="M88.084,92.389h0.172c0.111,0,0.231-0.021,0.359-0.064c0.129-0.043,0.267-0.11,0.414-0.201
			s0.343-0.235,0.59-0.432c0.187-0.15,0.324-0.278,0.414-0.384c0.089-0.105,0.149-0.198,0.182-0.276s0.049-0.154,0.049-0.226
			c0-0.175-0.122-0.273-0.365-0.295l0.06-0.263h1.739l0.102,0.263c-0.297,0.268-0.612,0.531-0.944,0.789l-1.358,1.057l0.805,2.034
			c0.072,0.183,0.146,0.322,0.221,0.421s0.162,0.171,0.26,0.218c0.099,0.046,0.225,0.075,0.379,0.086l-0.059,0.263h-1.434
			l-0.784-2.206c-0.05-0.14-0.093-0.234-0.129-0.284c-0.036-0.05-0.077-0.086-0.124-0.107c-0.046-0.021-0.122-0.032-0.225-0.032
			h-0.397l-0.558,2.63h-0.929l1.379-6.134c0.04-0.179,0.067-0.309,0.083-0.389s0.027-0.155,0.035-0.223s0.011-0.129,0.011-0.183
			c0-0.15-0.045-0.256-0.137-0.316c-0.091-0.061-0.255-0.095-0.491-0.102l0.064-0.279l1.358-0.048h0.312L88.084,92.389z"/>
	</g>
</g>
<path fill="none" stroke="#010101" stroke-miterlimit="10" d="M10.644,84.955"/>
<g>
	<g>
		<path fill="#010101" d="M34.248,74.083l-0.491,1.473h-0.479c0.004-0.16,0.001-0.299-0.011-0.42
			c-0.012-0.12-0.032-0.221-0.061-0.302c-0.027-0.082-0.067-0.146-0.118-0.195c-0.05-0.049-0.118-0.083-0.203-0.1
			s-0.191-0.027-0.318-0.027h-1.542l-0.853,2.557h1.044c0.144,0,0.263-0.02,0.357-0.06c0.095-0.041,0.186-0.11,0.272-0.208
			c0.086-0.098,0.188-0.251,0.306-0.459h0.459l-0.624,1.874h-0.459c0.019-0.194,0.018-0.342-0.004-0.441
			c-0.023-0.099-0.064-0.17-0.126-0.213c-0.063-0.042-0.17-0.063-0.324-0.063h-1.044l-0.938,2.815h1.518
			c0.159,0,0.293-0.013,0.401-0.04c0.108-0.028,0.209-0.075,0.304-0.143c0.094-0.066,0.186-0.153,0.276-0.261
			c0.092-0.107,0.175-0.219,0.251-0.335c0.075-0.114,0.183-0.283,0.322-0.504h0.483l-0.664,1.713h-4.518l0.08-0.239
			c0.218-0.052,0.372-0.11,0.462-0.174s0.164-0.153,0.225-0.271c0.06-0.117,0.13-0.296,0.21-0.537l1.407-4.222
			c0.075-0.225,0.121-0.387,0.139-0.49c0.018-0.103,0.018-0.183,0-0.239c-0.02-0.056-0.054-0.103-0.104-0.137
			c-0.051-0.034-0.143-0.072-0.278-0.114l0.079-0.239H34.248z"/>
		<path fill="#010101" d="M54.696,76.19l-0.34,1.02h-0.62c0.016-0.211,0.003-0.378-0.038-0.5c-0.041-0.122-0.107-0.208-0.197-0.256
			c-0.091-0.049-0.217-0.073-0.376-0.073c-0.228,0-0.454,0.073-0.679,0.22c-0.224,0.146-0.438,0.369-0.64,0.668
			c-0.202,0.3-0.375,0.666-0.52,1.099c-0.092,0.276-0.157,0.529-0.194,0.759c-0.037,0.229-0.036,0.426,0.004,0.589
			c0.04,0.162,0.123,0.289,0.249,0.379c0.126,0.092,0.304,0.138,0.535,0.138c0.225,0,0.448-0.045,0.671-0.132
			c0.223-0.088,0.476-0.242,0.757-0.464l0.171,0.322c-0.227,0.183-0.42,0.322-0.58,0.423c-0.16,0.099-0.323,0.182-0.49,0.248
			c-0.166,0.066-0.326,0.115-0.479,0.146c-0.151,0.031-0.311,0.046-0.477,0.046c-0.613,0-1.017-0.203-1.205-0.612
			c-0.189-0.407-0.155-0.998,0.102-1.769c0.16-0.482,0.394-0.909,0.699-1.281c0.307-0.373,0.658-0.66,1.054-0.862
			c0.396-0.202,0.808-0.302,1.237-0.302c0.268,0,0.508,0.015,0.725,0.046C54.28,76.073,54.491,76.122,54.696,76.19z"/>
		<path fill="#010101" d="M56.128,78.026h0.155c0.107,0,0.198-0.011,0.274-0.034c0.092-0.03,0.197-0.079,0.318-0.149
			c0.121-0.069,0.298-0.187,0.533-0.354c0.196-0.14,0.349-0.259,0.457-0.356c0.109-0.097,0.191-0.187,0.248-0.269
			c0.049-0.069,0.085-0.136,0.107-0.205c0.032-0.097,0.027-0.174-0.014-0.229c-0.042-0.055-0.128-0.093-0.257-0.112l0.079-0.239
			h2.103l-0.079,0.239c-0.16,0.03-0.342,0.097-0.545,0.2c-0.204,0.104-0.424,0.241-0.659,0.411l-1.476,1.063l0.792,1.835
			c0.092,0.214,0.187,0.374,0.284,0.476c0.097,0.103,0.219,0.171,0.364,0.203l-0.08,0.239H56.86l0.08-0.239
			c0.088-0.011,0.156-0.029,0.207-0.057c0.049-0.027,0.085-0.074,0.107-0.139c0.016-0.05,0.022-0.097,0.021-0.144
			c-0.004-0.048-0.019-0.111-0.047-0.193c-0.028-0.081-0.082-0.223-0.161-0.425l-0.319-0.78c-0.063-0.146-0.109-0.243-0.141-0.288
			c-0.033-0.045-0.071-0.079-0.117-0.098c-0.045-0.02-0.112-0.029-0.2-0.029h-0.272l-0.391,1.171
			c-0.093,0.28-0.145,0.475-0.155,0.584c-0.011,0.108,0.012,0.191,0.065,0.248c0.055,0.058,0.157,0.106,0.31,0.149l-0.08,0.239
			h-1.937l0.08-0.239c0.176-0.043,0.304-0.086,0.383-0.132c0.078-0.045,0.142-0.1,0.191-0.164c0.048-0.063,0.096-0.149,0.145-0.259
			c0.047-0.109,0.1-0.251,0.158-0.427l1.361-4.085c0.104-0.312,0.175-0.53,0.211-0.654c0.037-0.123,0.059-0.229,0.066-0.315
			c0.008-0.086,0-0.154-0.021-0.202c-0.021-0.049-0.059-0.088-0.112-0.118c-0.054-0.029-0.158-0.058-0.314-0.088l0.084-0.253
			l1.192-0.049h0.293L56.128,78.026z"/>
	</g>
	<g>
		<path fill="#010101" d="M47.133,77.436c-0.04,0.04-0.087,0.06-0.141,0.06h-6.235c-0.053,0-0.1-0.02-0.14-0.06
			c-0.04-0.04-0.06-0.087-0.06-0.14s0.02-0.1,0.06-0.14s0.086-0.06,0.14-0.06h6.235c0.054,0,0.101,0.02,0.141,0.06
			c0.039,0.04,0.06,0.087,0.06,0.14S47.172,77.396,47.133,77.436z M47.133,79.375c-0.04,0.04-0.087,0.061-0.141,0.061h-6.235
			c-0.053,0-0.1-0.021-0.14-0.061s-0.06-0.086-0.06-0.14c0-0.053,0.02-0.1,0.06-0.14c0.04-0.04,0.086-0.06,0.14-0.06h6.235
			c0.054,0,0.101,0.02,0.141,0.06c0.039,0.04,0.06,0.086,0.06,0.14C47.193,79.289,47.172,79.334,47.133,79.375z"/>
	</g>
	<g>
		<path fill="#010101" stroke="#010101" stroke-width="0.1651" stroke-miterlimit="10" d="M34.752,81.771h0.09
			c0.062,0,0.113-0.007,0.152-0.021c0.047-0.017,0.099-0.045,0.155-0.086c0.057-0.04,0.136-0.108,0.24-0.204
			c0.086-0.081,0.152-0.149,0.196-0.206c0.044-0.057,0.075-0.108,0.091-0.155c0.015-0.039,0.023-0.079,0.023-0.118
			c0-0.057-0.018-0.101-0.052-0.133c-0.035-0.032-0.092-0.054-0.171-0.065v-0.138h1.216v0.138c-0.086,0.018-0.179,0.056-0.276,0.116
			s-0.198,0.14-0.302,0.237l-0.649,0.614l0.813,1.062c0.094,0.124,0.179,0.216,0.255,0.275c0.076,0.059,0.159,0.098,0.25,0.116
			v0.139H35.7v-0.139c0.049-0.005,0.085-0.016,0.108-0.032c0.023-0.016,0.035-0.043,0.035-0.08c0-0.028-0.005-0.056-0.015-0.083
			c-0.011-0.027-0.032-0.064-0.063-0.111c-0.032-0.048-0.09-0.129-0.175-0.246L35.254,82.2c-0.064-0.085-0.109-0.141-0.137-0.167
			s-0.056-0.045-0.086-0.056c-0.03-0.012-0.071-0.018-0.122-0.018h-0.158v0.678c0,0.161,0.007,0.273,0.022,0.337
			s0.043,0.111,0.086,0.144c0.042,0.033,0.111,0.062,0.208,0.086v0.139h-1.12v-0.139c0.094-0.024,0.16-0.05,0.196-0.076
			s0.063-0.058,0.079-0.094c0.016-0.037,0.027-0.087,0.034-0.149c0.006-0.063,0.01-0.146,0.01-0.247v-2.362
			c0-0.18-0.001-0.306-0.004-0.378c-0.002-0.071-0.01-0.132-0.022-0.182s-0.029-0.089-0.051-0.117s-0.051-0.051-0.087-0.067
			c-0.037-0.018-0.103-0.034-0.199-0.051v-0.147l0.68-0.027h0.169V81.771z"/>
	</g>
</g>
<g>
	<g>
		<path fill="#010101" d="M90.676,55.316c-0.02,0.024-0.043,0.036-0.069,0.036c-0.047,0-0.076-0.008-0.09-0.024
			c-0.378-0.348-0.701-0.746-0.97-1.193c-0.269-0.447-0.489-0.926-0.661-1.436c-0.173-0.51-0.301-1.044-0.383-1.602
			c-0.083-0.558-0.125-1.118-0.125-1.68c0-0.562,0.042-1.122,0.125-1.68c0.082-0.558,0.21-1.092,0.383-1.602
			c0.172-0.51,0.393-0.989,0.661-1.436c0.269-0.447,0.592-0.845,0.97-1.193c0.014-0.016,0.043-0.024,0.09-0.024
			c0.026,0,0.05,0.012,0.069,0.036c0.014,0.032,0.021,0.059,0.021,0.083c0,0.032-0.01,0.06-0.03,0.083
			c-0.318,0.356-0.587,0.756-0.806,1.199c-0.219,0.443-0.396,0.912-0.532,1.407s-0.232,1.007-0.288,1.537
			c-0.057,0.53-0.085,1.06-0.085,1.59c0,0.538,0.028,1.07,0.085,1.596c0.056,0.526,0.152,1.037,0.288,1.531
			c0.136,0.495,0.313,0.963,0.532,1.407c0.219,0.443,0.487,0.843,0.806,1.199c0.021,0.023,0.03,0.051,0.03,0.083
			C90.696,55.257,90.689,55.285,90.676,55.316z"/>
	</g>
	<g>
		<path fill="#010101" d="M99.178,51.097c-0.083,0.558-0.211,1.092-0.384,1.602c-0.172,0.51-0.393,0.989-0.661,1.436
			c-0.269,0.447-0.592,0.845-0.97,1.193c-0.026,0.016-0.047,0.024-0.06,0.024h-0.03c-0.026,0-0.05-0.012-0.069-0.036
			c-0.014-0.032-0.021-0.059-0.021-0.083c0-0.032,0.011-0.06,0.03-0.083c0.318-0.356,0.587-0.756,0.806-1.199
			c0.219-0.443,0.396-0.912,0.532-1.407c0.136-0.494,0.232-1.005,0.288-1.531c0.057-0.526,0.085-1.058,0.085-1.596
			c0-0.53-0.028-1.06-0.085-1.59c-0.056-0.53-0.152-1.042-0.288-1.537s-0.313-0.963-0.532-1.407
			c-0.219-0.443-0.487-0.843-0.806-1.199c-0.02-0.023-0.03-0.051-0.03-0.083c0-0.04,0.007-0.067,0.021-0.083
			c0.02-0.024,0.043-0.036,0.069-0.036h0.03c0.013,0,0.033,0.008,0.06,0.024c0.378,0.348,0.701,0.746,0.97,1.193
			c0.269,0.447,0.489,0.926,0.661,1.436c0.173,0.51,0.301,1.044,0.384,1.602c0.082,0.558,0.124,1.118,0.124,1.68
			C99.302,49.979,99.26,50.539,99.178,51.097z"/>
	</g>
	
		<line fill="none" stroke="#010101" stroke-width="0.4998" stroke-linecap="square" stroke-miterlimit="10" x1="72.198" y1="56.566" x2="100.02" y2="56.566"/>
	
		<line fill="none" stroke="#010101" stroke-width="0" stroke-linecap="square" stroke-miterlimit="10" x1="65.547" y1="59.034" x2="66.515" y2="57.691"/>
	
		<line fill="none" stroke="#010101" stroke-width="0" stroke-linecap="square" stroke-miterlimit="10" x1="66.515" y1="57.691" x2="68.951" y2="67.624"/>
	
		<line fill="none" stroke="#010101" stroke-width="0" stroke-linecap="square" stroke-miterlimit="10" x1="68.951" y1="67.624" x2="71.636" y2="41.543"/>
	
		<line fill="none" stroke="#010101" stroke-width="0" stroke-linecap="square" stroke-miterlimit="10" x1="71.636" y1="41.543" x2="100.801" y2="41.543"/>
	<polygon fill-rule="evenodd" clip-rule="evenodd" fill="#010101" points="65.422,58.94 66.796,57.098 68.919,65.5 71.417,41.293 
		100.801,41.293 100.801,41.793 71.854,41.793 69.201,67.624 68.701,67.624 66.234,58.284 65.672,59.128 	"/>
	<g>
		<path fill="#010101" d="M79.675,54.547c-0.406,0-0.709-0.16-0.907-0.479s-0.297-0.805-0.297-1.456c0-0.346,0.03-0.645,0.091-0.897
			c0.062-0.252,0.147-0.46,0.257-0.625c0.11-0.165,0.242-0.286,0.396-0.365s0.322-0.119,0.505-0.119c0.412,0,0.719,0.159,0.92,0.477
			s0.302,0.798,0.302,1.441c0,0.666-0.107,1.169-0.323,1.511C80.403,54.376,80.089,54.547,79.675,54.547z M79.021,52.527
			c0,0.613,0.057,1.063,0.171,1.35c0.113,0.287,0.29,0.43,0.528,0.43c0.228,0,0.396-0.135,0.507-0.405
			c0.109-0.27,0.165-0.688,0.165-1.254c0-0.433-0.028-0.783-0.085-1.051s-0.135-0.46-0.235-0.577
			c-0.101-0.116-0.223-0.175-0.365-0.175c-0.13,0-0.238,0.039-0.326,0.116c-0.087,0.077-0.158,0.188-0.212,0.333
			c-0.053,0.145-0.091,0.321-0.114,0.529C79.031,52.031,79.021,52.266,79.021,52.527z"/>
	</g>
	<g>
		<path fill="#010101" d="M93.78,51.994c-0.703,0-1.226-0.276-1.568-0.83c-0.344-0.553-0.516-1.393-0.516-2.519
			c0-0.599,0.054-1.116,0.159-1.552s0.254-0.796,0.444-1.081c0.189-0.285,0.418-0.496,0.685-0.632
			c0.268-0.137,0.559-0.205,0.874-0.205c0.712,0,1.242,0.275,1.59,0.825c0.349,0.55,0.522,1.381,0.522,2.494
			c0,1.152-0.187,2.023-0.559,2.614C95.04,51.699,94.495,51.994,93.78,51.994z M92.648,48.5c0,1.061,0.098,1.839,0.295,2.335
			c0.196,0.496,0.502,0.744,0.915,0.744c0.394,0,0.686-0.233,0.876-0.7c0.189-0.467,0.285-1.19,0.285-2.169
			c0-0.748-0.049-1.354-0.146-1.818c-0.098-0.463-0.233-0.796-0.407-0.998s-0.385-0.303-0.632-0.303c-0.225,0-0.412,0.067-0.563,0.2
			s-0.273,0.326-0.366,0.576s-0.158,0.555-0.197,0.915C92.668,47.642,92.648,48.047,92.648,48.5z"/>
	</g>
	<g>
		<path fill="#010101" d="M77.762,51.901h-1.923l0.08-0.239c0.14-0.039,0.242-0.073,0.307-0.103c0.065-0.029,0.125-0.069,0.18-0.121
			c0.056-0.053,0.111-0.133,0.168-0.242c0.059-0.109,0.124-0.274,0.197-0.496l0.427-1.278c0.076-0.228,0.138-0.435,0.187-0.62
			c0.049-0.186,0.078-0.337,0.086-0.457c0.01-0.119,0.003-0.211-0.019-0.278s-0.056-0.123-0.1-0.17s-0.102-0.084-0.171-0.112
			c-0.068-0.028-0.165-0.042-0.292-0.042s-0.257,0.025-0.387,0.076c-0.131,0.05-0.285,0.137-0.463,0.261
			c-0.179,0.124-0.317,0.246-0.42,0.366c-0.102,0.121-0.179,0.259-0.23,0.415l-0.607,1.821c-0.093,0.28-0.145,0.474-0.156,0.583
			c-0.01,0.108,0.013,0.192,0.066,0.248c0.055,0.058,0.157,0.107,0.309,0.149l-0.08,0.239H73.01l0.08-0.239
			c0.14-0.039,0.241-0.073,0.305-0.103c0.063-0.029,0.122-0.069,0.177-0.121c0.055-0.053,0.11-0.133,0.168-0.24
			c0.056-0.106,0.123-0.274,0.198-0.502l0.709-2.128c0.07-0.208,0.123-0.375,0.158-0.502c0.035-0.127,0.047-0.229,0.033-0.306
			c-0.014-0.076-0.054-0.133-0.121-0.17c-0.067-0.037-0.169-0.069-0.307-0.096l0.086-0.258l1.156-0.043h0.298l-0.318,0.795
			l0.061,0.02c0.322-0.244,0.574-0.418,0.758-0.522c0.183-0.104,0.358-0.185,0.529-0.242c0.17-0.057,0.34-0.085,0.508-0.085
			c0.176,0,0.326,0.02,0.451,0.061c0.125,0.041,0.227,0.103,0.304,0.187c0.077,0.085,0.129,0.19,0.155,0.315
			c0.027,0.125,0.028,0.276,0.004,0.451c-0.024,0.176-0.082,0.399-0.172,0.669l-0.613,1.84c-0.074,0.224-0.122,0.387-0.143,0.488
			c-0.021,0.101-0.023,0.179-0.01,0.234c0.014,0.055,0.046,0.101,0.095,0.139c0.05,0.037,0.144,0.077,0.282,0.12L77.762,51.901z"/>
		<path fill="#010101" d="M83.759,47.235l-0.08,0.239c-0.161,0.036-0.277,0.07-0.351,0.103c-0.073,0.033-0.133,0.075-0.182,0.127
			s-0.087,0.122-0.116,0.209s-0.05,0.18-0.061,0.276c-0.01,0.097-0.014,0.208-0.011,0.334l0.026,2.469l1.783-2.367
			c0.117-0.156,0.205-0.284,0.266-0.385s0.104-0.195,0.133-0.283c0.046-0.137,0.045-0.241-0.005-0.312
			c-0.05-0.072-0.165-0.129-0.347-0.171l0.08-0.239h1.825l-0.079,0.239c-0.137,0.026-0.247,0.065-0.333,0.119
			c-0.087,0.054-0.184,0.139-0.29,0.254c-0.107,0.116-0.242,0.278-0.405,0.485l-2.85,3.617h-0.576l-0.107-3.646
			c-0.007-0.251-0.022-0.423-0.045-0.515c-0.022-0.093-0.059-0.162-0.106-0.208c-0.049-0.045-0.129-0.082-0.24-0.107l0.08-0.239
			H83.759z"/>
	</g>
	<g>
		<path fill="#010101" d="M53.271,54.5l-0.34,1.02h-0.62c0.016-0.211,0.003-0.377-0.038-0.5c-0.041-0.121-0.107-0.208-0.197-0.256
			c-0.091-0.049-0.217-0.073-0.376-0.073c-0.228,0-0.454,0.073-0.679,0.219c-0.224,0.146-0.438,0.369-0.64,0.668
			c-0.202,0.301-0.375,0.666-0.52,1.099c-0.092,0.276-0.156,0.529-0.194,0.759c-0.037,0.229-0.036,0.426,0.004,0.589
			c0.04,0.162,0.123,0.289,0.249,0.38c0.125,0.092,0.304,0.137,0.535,0.137c0.225,0,0.448-0.044,0.671-0.132
			s0.476-0.242,0.757-0.464l0.171,0.322c-0.227,0.183-0.42,0.322-0.581,0.423c-0.16,0.099-0.323,0.182-0.49,0.248
			s-0.327,0.116-0.479,0.146c-0.152,0.031-0.31,0.046-0.476,0.046c-0.614,0-1.018-0.203-1.206-0.612
			c-0.189-0.407-0.155-0.997,0.102-1.769c0.161-0.481,0.394-0.908,0.7-1.281c0.307-0.372,0.657-0.66,1.054-0.861
			c0.395-0.202,0.808-0.302,1.237-0.302c0.267,0,0.508,0.015,0.724,0.046C52.855,54.382,53.066,54.431,53.271,54.5z"/>
	</g>
	<g>
		<path fill="#010101" d="M84.681,62.914l0.061,0.02c0.261-0.194,0.47-0.342,0.629-0.441c0.158-0.099,0.306-0.179,0.442-0.238
			c0.138-0.061,0.262-0.104,0.372-0.13c0.111-0.026,0.221-0.039,0.328-0.039c0.325,0,0.565,0.075,0.721,0.225
			c0.154,0.149,0.22,0.379,0.195,0.688c0.326-0.247,0.584-0.43,0.774-0.546c0.19-0.118,0.375-0.208,0.554-0.271
			c0.179-0.064,0.359-0.096,0.542-0.096c0.218,0,0.395,0.031,0.531,0.096c0.138,0.063,0.238,0.16,0.304,0.292
			c0.064,0.132,0.089,0.297,0.074,0.495c-0.017,0.198-0.08,0.465-0.191,0.801l-0.613,1.84c-0.083,0.247-0.132,0.418-0.146,0.513
			c-0.016,0.094-0.016,0.167-0.003,0.219c0.014,0.052,0.046,0.098,0.095,0.135c0.049,0.038,0.141,0.076,0.274,0.115l-0.08,0.238
			h-1.918l0.08-0.238c0.14-0.039,0.242-0.073,0.308-0.104c0.064-0.028,0.125-0.069,0.179-0.121c0.056-0.053,0.112-0.133,0.169-0.242
			c0.058-0.109,0.123-0.273,0.197-0.495l0.426-1.278c0.092-0.276,0.16-0.505,0.206-0.686s0.071-0.325,0.075-0.433
			c0.006-0.107-0.004-0.191-0.027-0.254c-0.023-0.062-0.054-0.115-0.095-0.161c-0.04-0.045-0.093-0.081-0.159-0.107
			c-0.066-0.025-0.161-0.038-0.285-0.038c-0.13,0-0.26,0.025-0.389,0.077c-0.13,0.052-0.281,0.14-0.455,0.265
			c-0.172,0.123-0.309,0.247-0.409,0.373c-0.101,0.125-0.179,0.272-0.235,0.441l-0.594,1.781c-0.082,0.247-0.13,0.418-0.146,0.513
			c-0.015,0.094-0.017,0.167-0.002,0.219c0.013,0.052,0.045,0.098,0.094,0.135c0.049,0.038,0.141,0.076,0.274,0.115l-0.08,0.238
			h-1.918l0.08-0.238c0.14-0.039,0.242-0.073,0.308-0.104c0.065-0.028,0.124-0.069,0.18-0.121c0.055-0.053,0.11-0.133,0.168-0.242
			s0.124-0.273,0.197-0.495l0.426-1.278c0.097-0.29,0.167-0.525,0.212-0.708c0.044-0.182,0.067-0.328,0.07-0.439
			c0.003-0.11-0.011-0.2-0.042-0.269c-0.03-0.067-0.067-0.12-0.112-0.155c-0.042-0.036-0.099-0.063-0.168-0.081
			c-0.068-0.018-0.15-0.026-0.244-0.026c-0.134,0-0.269,0.029-0.406,0.09c-0.137,0.06-0.285,0.146-0.445,0.261
			s-0.291,0.232-0.395,0.356s-0.178,0.257-0.226,0.4l-0.61,1.83c-0.061,0.186-0.104,0.327-0.126,0.424
			c-0.024,0.099-0.034,0.175-0.03,0.23c0.002,0.056,0.014,0.1,0.035,0.134s0.057,0.067,0.107,0.098
			c0.049,0.031,0.129,0.063,0.238,0.096l-0.08,0.238h-1.912l0.08-0.238c0.136-0.039,0.236-0.073,0.3-0.104
			c0.063-0.028,0.122-0.069,0.179-0.121c0.057-0.053,0.113-0.133,0.168-0.24c0.055-0.106,0.121-0.274,0.197-0.502l0.709-2.128
			c0.069-0.209,0.122-0.375,0.157-0.502c0.036-0.127,0.047-0.229,0.034-0.306c-0.015-0.076-0.055-0.134-0.121-0.171
			c-0.068-0.037-0.17-0.069-0.308-0.096l0.086-0.258l1.156-0.044H85L84.681,62.914z"/>
	</g>
	<g>
		<path fill="#010101" d="M62.569,55.736c-0.04,0.04-0.086,0.06-0.14,0.06h-6.235c-0.053,0-0.1-0.02-0.14-0.06
			s-0.06-0.087-0.06-0.141c0-0.053,0.02-0.1,0.06-0.14s0.086-0.06,0.14-0.06h6.235c0.053,0,0.1,0.02,0.14,0.06s0.06,0.087,0.06,0.14
			C62.629,55.649,62.609,55.696,62.569,55.736z M62.569,57.675c-0.04,0.04-0.086,0.061-0.14,0.061h-6.235
			c-0.053,0-0.1-0.021-0.14-0.061s-0.06-0.086-0.06-0.14c0-0.053,0.02-0.1,0.06-0.14s0.086-0.061,0.14-0.061h6.235
			c0.053,0,0.1,0.021,0.14,0.061s0.06,0.087,0.06,0.14C62.629,57.589,62.609,57.635,62.569,57.675z"/>
	</g>
</g>
<g>
	<g>
		<path fill="none" stroke="#010101" stroke-miterlimit="10" d="M10.644,84.955c0.404-0.299,0.805-0.598,1.204-0.897"/>
		<path fill="none" stroke="#010101" stroke-miterlimit="10" stroke-dasharray="2.9804,1.9869" d="M13.436,82.857
			C46.312,57.805,63.239,32.226,68.778,9.753"/>
		<path fill="none" stroke="#010101" stroke-miterlimit="10" d="M69.008,8.796c0.114-0.489,0.223-0.977,0.326-1.462"/>
	</g>
</g>
<path fill="none" stroke="#010101" stroke-linecap="round" stroke-miterlimit="10" d="M10.644,84.955
	c15.605-11.562,27.778-23.258,36.968-34.73"/>
<g>
	<g>
		<path fill="#010101" d="M22.43,2.879l-0.491,1.473H21.46c0.005-0.16,0.002-0.299-0.011-0.42c-0.013-0.12-0.032-0.221-0.061-0.302
			c-0.027-0.082-0.067-0.146-0.118-0.195c-0.05-0.049-0.117-0.083-0.202-0.1s-0.191-0.027-0.318-0.027h-1.542l-0.853,2.557H19.4
			c0.144,0,0.263-0.02,0.357-0.06c0.095-0.041,0.186-0.11,0.272-0.208c0.086-0.098,0.188-0.251,0.306-0.459h0.459L20.17,7.012
			h-0.459c0.019-0.194,0.018-0.342-0.004-0.441c-0.023-0.099-0.064-0.17-0.126-0.213c-0.063-0.042-0.17-0.063-0.324-0.063h-1.044
			L17.275,9.11h1.518c0.159,0,0.293-0.013,0.401-0.04c0.108-0.028,0.209-0.075,0.304-0.143c0.094-0.066,0.186-0.153,0.276-0.261
			c0.092-0.107,0.175-0.219,0.251-0.335c0.075-0.114,0.183-0.283,0.322-0.504h0.483l-0.664,1.713h-4.518l0.08-0.239
			c0.218-0.052,0.372-0.11,0.462-0.174s0.164-0.153,0.225-0.271c0.06-0.117,0.13-0.296,0.21-0.537l1.407-4.222
			c0.075-0.225,0.121-0.387,0.139-0.49c0.018-0.103,0.018-0.183,0-0.239c-0.02-0.056-0.054-0.103-0.104-0.137
			c-0.051-0.034-0.143-0.072-0.278-0.114l0.079-0.239H22.43z"/>
	</g>
	<g>
		<path fill="#010101" stroke="#010101" stroke-width="0.1651" stroke-miterlimit="10" d="M22.926,10.567h0.091
			c0.062,0,0.112-0.007,0.152-0.021c0.047-0.017,0.099-0.045,0.155-0.086c0.056-0.04,0.136-0.108,0.239-0.204
			c0.087-0.081,0.152-0.149,0.196-0.206s0.074-0.108,0.092-0.155c0.015-0.039,0.022-0.079,0.022-0.118
			c0-0.057-0.018-0.101-0.053-0.133c-0.034-0.032-0.091-0.054-0.17-0.065V9.441h1.216v0.138c-0.087,0.018-0.179,0.056-0.277,0.116
			c-0.098,0.061-0.198,0.14-0.302,0.237l-0.648,0.614l0.813,1.062c0.094,0.124,0.179,0.216,0.255,0.275
			c0.076,0.059,0.16,0.098,0.25,0.116v0.139h-1.083V12c0.049-0.005,0.085-0.016,0.108-0.032c0.023-0.016,0.035-0.043,0.035-0.08
			c0-0.028-0.005-0.056-0.016-0.083c-0.01-0.027-0.031-0.064-0.063-0.111c-0.031-0.048-0.09-0.129-0.175-0.246l-0.336-0.451
			c-0.063-0.085-0.109-0.141-0.137-0.167s-0.056-0.045-0.086-0.056c-0.03-0.012-0.07-0.018-0.121-0.018h-0.158v0.678
			c0,0.161,0.008,0.273,0.022,0.337c0.016,0.063,0.044,0.111,0.087,0.144c0.042,0.033,0.111,0.062,0.207,0.086v0.139h-1.12V12
			c0.094-0.024,0.159-0.05,0.196-0.076c0.036-0.026,0.063-0.058,0.079-0.094c0.016-0.037,0.027-0.087,0.033-0.149
			c0.007-0.063,0.011-0.146,0.011-0.247V9.071c0-0.18-0.002-0.306-0.005-0.378c-0.003-0.071-0.01-0.132-0.022-0.182
			c-0.012-0.05-0.029-0.089-0.051-0.117s-0.051-0.051-0.087-0.067c-0.037-0.018-0.104-0.034-0.199-0.051V8.129l0.68-0.027h0.169
			V10.567z"/>
	</g>
</g>
</svg>
