<?xml version="1.0" encoding="utf-8"?>
<!-- Generator: Adobe Illustrator 15.1.0, SVG Export Plug-In . SVG Version: 6.00 Build 0)  -->
<!DOCTYPE svg PUBLIC "-//W3C//DTD SVG 1.1//EN" "http://www.w3.org/Graphics/SVG/1.1/DTD/svg11.dtd">
<svg version="1.1" id="Layer_1" xmlns="http://www.w3.org/2000/svg" xmlns:xlink="http://www.w3.org/1999/xlink" x="0px" y="0px"
	 width="86.702px" height="71.083px" viewBox="0 0 86.702 71.083" enable-background="new 0 0 86.702 71.083" xml:space="preserve">
<rect x="31.04" y="0.25" fill="none" stroke="#000000" stroke-width="0.5" stroke-miterlimit="10" width="24.623" height="24.625"/>
<g>
	<g>
		<g>
			<line fill="none" stroke="#000000" stroke-width="0.5" stroke-miterlimit="10" x1="31.04" y1="12.562" x2="15.52" y2="12.562"/>
			<g>
				<path d="M16.417,12.562l1.096,1.803l-0.062,0.039l-2.938-1.166c-1.023-0.225-2.047-0.449-3.07-0.676
					c1.023-0.225,2.047-0.449,3.07-0.676l2.938-1.166l0.062,0.031L16.417,12.562z"/>
			</g>
		</g>
	</g>
	<line fill="none" stroke="#000000" stroke-width="0.5" stroke-miterlimit="10" x1="15.52" y1="12.562" x2="0" y2="12.562"/>
</g>
<g>
	<g>
		<path fill="#010101" d="M49.509,18.741v-0.125c0.193-0.064,0.344-0.162,0.45-0.297c0.105-0.135,0.159-0.277,0.159-0.428
			c0-0.035-0.009-0.066-0.025-0.09c-0.014-0.018-0.026-0.025-0.04-0.025c-0.021,0-0.065,0.018-0.135,0.057
			c-0.034,0.016-0.07,0.025-0.107,0.025c-0.092,0-0.166-0.027-0.22-0.082c-0.055-0.055-0.082-0.131-0.082-0.227
			c0-0.092,0.035-0.17,0.105-0.236s0.157-0.1,0.259-0.1c0.124,0,0.234,0.055,0.331,0.162c0.097,0.109,0.146,0.252,0.146,0.432
			c0,0.193-0.067,0.373-0.202,0.539S49.8,18.645,49.509,18.741z"/>
	</g>
	<g>
		<path fill="#010101" d="M47.847,17.042c0,0.109,0.006,0.191,0.019,0.248c0.012,0.055,0.033,0.1,0.064,0.135
			s0.076,0.063,0.134,0.082c0.059,0.02,0.132,0.035,0.221,0.045c0.088,0.01,0.205,0.018,0.35,0.021v0.205h-2.085v-0.205
			c0.209-0.01,0.357-0.021,0.447-0.039c0.089-0.016,0.157-0.039,0.204-0.07c0.047-0.033,0.082-0.078,0.104-0.137
			s0.032-0.152,0.032-0.285v-2.287c0-0.074-0.013-0.131-0.039-0.164c-0.026-0.035-0.065-0.053-0.116-0.053
			c-0.061,0-0.146,0.031-0.257,0.094c-0.11,0.061-0.248,0.146-0.412,0.256l-0.124-0.217l1.32-0.787h0.155
			c-0.011,0.18-0.017,0.43-0.017,0.75V17.042z"/>
		<path fill="#010101" d="M52.624,17.042c0,0.109,0.006,0.191,0.019,0.248c0.012,0.055,0.033,0.1,0.064,0.135
			s0.076,0.063,0.134,0.082c0.059,0.02,0.132,0.035,0.221,0.045c0.088,0.01,0.205,0.018,0.35,0.021v0.205h-2.085v-0.205
			c0.209-0.01,0.357-0.021,0.447-0.039c0.089-0.016,0.157-0.039,0.204-0.07c0.047-0.033,0.082-0.078,0.104-0.137
			s0.032-0.152,0.032-0.285v-2.287c0-0.074-0.013-0.131-0.039-0.164c-0.026-0.035-0.065-0.053-0.116-0.053
			c-0.061,0-0.146,0.031-0.257,0.094c-0.11,0.061-0.248,0.146-0.412,0.256l-0.124-0.217l1.32-0.787h0.155
			c-0.011,0.18-0.017,0.43-0.017,0.75V17.042z"/>
	</g>
	<g>
		<path fill="#010101" d="M45.176,15.192h-4.978v-0.18l2.552-3.06l-2.552-3.201V8.577h4.826l0.151,1.649h-0.2
			c-0.048-0.449-0.173-0.769-0.373-0.961s-0.489-0.288-0.866-0.288h-2.274l2.084,2.62l-2.347,2.826h2.586
			c0.433,0,0.757-0.082,0.974-0.244c0.217-0.163,0.396-0.469,0.539-0.918l0.181,0.039L45.176,15.192z"/>
	</g>
	<g>
		<path fill="#010101" d="M39.438,12.834c-0.04,0.04-0.086,0.06-0.14,0.06h-5.688c-0.053,0-0.1-0.02-0.14-0.06
			c-0.04-0.04-0.06-0.087-0.06-0.14s0.02-0.1,0.06-0.14c0.04-0.04,0.086-0.06,0.14-0.06h5.688c0.053,0,0.1,0.02,0.14,0.06
			c0.04,0.04,0.06,0.086,0.06,0.14S39.478,12.794,39.438,12.834z"/>
	</g>
</g>
<g>
	<g>
		<g>
			
				<line fill="none" stroke="#000000" stroke-width="0.5" stroke-miterlimit="10" x1="86.702" y1="12.562" x2="71.182" y2="12.562"/>
			<g>
				<path d="M72.079,12.562l1.096,1.803l-0.061,0.039l-2.938-1.166c-1.023-0.225-2.047-0.449-3.07-0.676
					c1.023-0.225,2.047-0.449,3.07-0.676l2.938-1.166l0.061,0.031L72.079,12.562z"/>
			</g>
		</g>
	</g>
	<line fill="none" stroke="#000000" stroke-width="0.5" stroke-miterlimit="10" x1="71.182" y1="12.562" x2="55.663" y2="12.562"/>
</g>
<rect x="31.04" y="45.778" fill="none" stroke="#000000" stroke-width="0.5" stroke-miterlimit="10" width="24.623" height="24.624"/>
<g>
	<g>
		<g>
			<line fill="none" stroke="#000000" stroke-width="0.5" stroke-miterlimit="10" x1="31.04" y1="58.089" x2="15.52" y2="58.089"/>
			<g>
				<path d="M16.417,58.089l1.096,1.803l-0.061,0.039l-2.938-1.166c-1.023-0.225-2.047-0.449-3.07-0.676
					c1.023-0.225,2.047-0.449,3.07-0.676l2.938-1.166l0.061,0.031L16.417,58.089z"/>
			</g>
		</g>
	</g>
	<line fill="none" stroke="#000000" stroke-width="0.5" stroke-miterlimit="10" x1="15.52" y1="58.089" x2="0" y2="58.089"/>
</g>
<g>
	<g>
		<path fill="#010101" d="M49.509,64.268v-0.125c0.193-0.064,0.344-0.162,0.45-0.297c0.105-0.135,0.159-0.277,0.159-0.428
			c0-0.035-0.009-0.066-0.025-0.09c-0.014-0.018-0.026-0.025-0.04-0.025c-0.021,0-0.065,0.018-0.135,0.057
			c-0.034,0.016-0.07,0.025-0.107,0.025c-0.092,0-0.166-0.027-0.22-0.082c-0.055-0.055-0.082-0.131-0.082-0.227
			c0-0.092,0.035-0.17,0.105-0.236s0.157-0.1,0.259-0.1c0.124,0,0.234,0.055,0.331,0.162c0.097,0.109,0.146,0.252,0.146,0.432
			c0,0.193-0.067,0.373-0.202,0.539S49.8,64.172,49.509,64.268z"/>
	</g>
	<g>
		<path fill="#010101" d="M47.847,62.569c0,0.109,0.006,0.191,0.019,0.248c0.012,0.055,0.033,0.1,0.064,0.135
			s0.076,0.063,0.134,0.082c0.059,0.02,0.132,0.035,0.221,0.045c0.088,0.01,0.205,0.018,0.35,0.021v0.205h-2.085V63.1
			c0.209-0.01,0.357-0.021,0.447-0.039c0.089-0.016,0.157-0.039,0.204-0.07c0.047-0.033,0.082-0.078,0.104-0.137
			s0.032-0.152,0.032-0.285v-2.287c0-0.074-0.013-0.131-0.039-0.164c-0.026-0.035-0.065-0.053-0.116-0.053
			c-0.061,0-0.146,0.031-0.257,0.094c-0.11,0.061-0.248,0.146-0.412,0.256l-0.124-0.217l1.32-0.787h0.155
			c-0.011,0.18-0.017,0.43-0.017,0.75V62.569z"/>
		<path fill="#010101" d="M52.643,62.854c0.093,0,0.167-0.006,0.223-0.016c0.057-0.012,0.102-0.031,0.136-0.057
			c0.034-0.027,0.061-0.061,0.081-0.104c0.02-0.043,0.044-0.107,0.074-0.195h0.24l-0.048,0.822h-2.322V63.17
			c0.081-0.197,0.189-0.4,0.327-0.607c0.137-0.205,0.332-0.449,0.584-0.73c0.218-0.24,0.375-0.422,0.471-0.547
			c0.105-0.135,0.185-0.252,0.236-0.352c0.052-0.098,0.089-0.191,0.111-0.279c0.022-0.086,0.033-0.174,0.033-0.264
			c0-0.141-0.022-0.266-0.067-0.373s-0.114-0.193-0.207-0.256c-0.094-0.061-0.21-0.092-0.352-0.092
			c-0.352,0-0.589,0.195-0.711,0.586H51.11v-0.541c0.228-0.107,0.441-0.186,0.64-0.232c0.198-0.049,0.377-0.072,0.534-0.072
			c0.351,0,0.614,0.076,0.793,0.229s0.269,0.376,0.269,0.667c0,0.1-0.01,0.191-0.03,0.275c-0.02,0.084-0.051,0.166-0.093,0.248
			s-0.1,0.17-0.171,0.264s-0.15,0.189-0.237,0.287c-0.086,0.096-0.235,0.258-0.448,0.482c-0.357,0.379-0.62,0.709-0.787,0.99H52.643
			z"/>
	</g>
	<g>
		<path fill="#010101" d="M45.176,60.719h-4.978v-0.18l2.552-3.06l-2.552-3.2v-0.176h4.826l0.151,1.648h-0.2
			c-0.048-0.448-0.173-0.769-0.373-0.961c-0.2-0.191-0.489-0.287-0.866-0.287h-2.274l2.084,2.619l-2.347,2.826h2.586
			c0.433,0,0.757-0.082,0.974-0.244c0.217-0.163,0.396-0.469,0.539-0.918l0.181,0.039L45.176,60.719z"/>
	</g>
	<g>
		<path fill="#010101" d="M39.438,58.362c-0.04,0.039-0.086,0.06-0.14,0.06H33.61c-0.053,0-0.1-0.021-0.14-0.06
			c-0.04-0.04-0.06-0.087-0.06-0.141c0-0.053,0.02-0.1,0.06-0.139c0.04-0.041,0.086-0.061,0.14-0.061h5.688
			c0.053,0,0.1,0.02,0.14,0.061c0.04,0.039,0.06,0.086,0.06,0.139C39.498,58.275,39.478,58.322,39.438,58.362z"/>
	</g>
</g>
<g>
	<g>
		<g>
			
				<line fill="none" stroke="#000000" stroke-width="0.5" stroke-miterlimit="10" x1="55.663" y1="58.089" x2="71.182" y2="58.089"/>
			<g>
				<path d="M70.284,58.089l-1.096-1.802l0.063-0.041l2.938,1.167c1.023,0.226,2.047,0.45,3.07,0.676
					c-1.023,0.226-2.047,0.45-3.07,0.676l-2.938,1.167l-0.063-0.031L70.284,58.089z"/>
			</g>
		</g>
	</g>
	<line fill="none" stroke="#000000" stroke-width="0.5" stroke-miterlimit="10" x1="71.182" y1="58.089" x2="86.702" y2="58.089"/>
</g>
</svg>
