<?xml version="1.0" encoding="utf-8"?>
<!-- Generator: Adobe Illustrator 15.1.0, SVG Export Plug-In . SVG Version: 6.00 Build 0)  -->
<!DOCTYPE svg PUBLIC "-//W3C//DTD SVG 1.1//EN" "http://www.w3.org/Graphics/SVG/1.1/DTD/svg11.dtd">
<svg version="1.1" id="Layer_1" xmlns="http://www.w3.org/2000/svg" xmlns:xlink="http://www.w3.org/1999/xlink" x="0px" y="0px"
	 width="559.881px" height="113.839px" viewBox="0 0 559.881 113.839" enable-background="new 0 0 559.881 113.839"
	 xml:space="preserve">
<g>
	<g>
		<path fill="#010101" d="M49.124,60.343H43.65v-0.198l2.807-3.366l-2.807-3.522v-0.193h5.308l0.166,1.815h-0.22
			c-0.054-0.494-0.19-0.847-0.41-1.058c-0.221-0.211-0.538-0.317-0.953-0.317H45.04l2.292,2.883l-2.582,3.108h2.845
			c0.476,0,0.833-0.089,1.07-0.268c0.238-0.18,0.436-0.516,0.594-1.01l0.198,0.043L49.124,60.343z"/>
	</g>
	<g>
		<path fill="#010101" d="M42.804,57.748c-0.044,0.044-0.095,0.066-0.154,0.066h-6.254c-0.059,0-0.11-0.022-0.154-0.066
			s-0.066-0.095-0.066-0.154c0-0.059,0.022-0.109,0.066-0.153s0.095-0.066,0.154-0.066h6.254c0.059,0,0.11,0.022,0.154,0.066
			s0.066,0.095,0.066,0.153C42.87,57.653,42.848,57.704,42.804,57.748z"/>
	</g>
</g>
<rect x="31.039" y="44.607" fill="none" stroke="#000000" stroke-width="0.5" stroke-miterlimit="10" width="24.623" height="24.625"/>
<g>
	<g>
		<g>
			<line fill="none" stroke="#000000" stroke-width="0.5" stroke-miterlimit="10" x1="31.039" y1="56.92" x2="15.52" y2="56.92"/>
			<g>
				<path d="M16.417,56.92l1.096,1.802l-0.062,0.04l-2.938-1.166c-1.023-0.226-2.047-0.45-3.07-0.676
					c1.023-0.225,2.047-0.45,3.07-0.676l2.938-1.166l0.062,0.03L16.417,56.92z"/>
			</g>
		</g>
	</g>
	<line fill="none" stroke="#000000" stroke-width="0.5" stroke-miterlimit="10" x1="15.52" y1="56.92" x2="0" y2="56.92"/>
</g>
<g>
	<path d="M98.106,56.301v-0.72h6.188v0.72H98.106z M98.106,58.651v-0.72h6.188v0.72H98.106z"/>
</g>
<g>
	<g>
		<g>
			
				<line fill="none" stroke="#000000" stroke-width="0.5" stroke-miterlimit="10" x1="157.96" y1="38.974" x2="136.819" y2="38.974"/>
			<g>
				<path d="M137.717,38.974l1.096,1.802l-0.062,0.041l-2.938-1.167c-1.023-0.225-2.047-0.45-3.07-0.676
					c1.023-0.225,2.047-0.449,3.07-0.675l2.938-1.167l0.062,0.031L137.717,38.974z"/>
			</g>
		</g>
	</g>
	
		<line fill="none" stroke="#000000" stroke-width="0.5" stroke-miterlimit="10" x1="136.819" y1="38.974" x2="115.679" y2="38.974"/>
</g>
<g>
	<g>
		<g>
			
				<line fill="none" stroke="#000000" stroke-width="0.5" stroke-miterlimit="10" x1="200.241" y1="74.864" x2="179.101" y2="74.864"/>
			<g>
				<path d="M179.998,74.864l1.096,1.802l-0.062,0.041l-2.938-1.167c-1.023-0.226-2.047-0.45-3.07-0.676
					c1.023-0.226,2.047-0.45,3.07-0.676l2.938-1.167l0.062,0.031L179.998,74.864z"/>
			</g>
		</g>
	</g>
	<line fill="none" stroke="#000000" stroke-width="0.5" stroke-miterlimit="10" x1="179.101" y1="74.864" x2="157.96" y2="74.864"/>
</g>
<line fill="none" stroke="#000000" stroke-width="0.5" stroke-miterlimit="10" stroke-dasharray="2,1" x1="157.96" y1="74.864" x2="157.96" y2="38.974"/>
<circle fill="#FFFFFF" stroke="#000000" stroke-width="0.5" stroke-miterlimit="10" cx="160.796" cy="38.975" r="2.836"/>
<circle fill="#FFFFFF" stroke="#000000" stroke-width="0.5" stroke-miterlimit="10" cx="155.124" cy="74.864" r="2.836"/>
<g>
	<g>
		<path fill="#010101" d="M216.268,57.984c-0.04,0.04-0.087,0.06-0.141,0.06h-2.917v2.929c0,0.053-0.021,0.1-0.061,0.14
			c-0.039,0.04-0.086,0.061-0.14,0.061s-0.101-0.021-0.14-0.061c-0.04-0.04-0.061-0.087-0.061-0.14v-2.929h-2.918
			c-0.053,0-0.1-0.02-0.139-0.06c-0.041-0.04-0.061-0.086-0.061-0.14c0-0.054,0.02-0.1,0.061-0.14c0.039-0.04,0.086-0.06,0.139-0.06
			h2.918v-2.929c0-0.053,0.021-0.1,0.061-0.14c0.039-0.04,0.086-0.06,0.14-0.06s0.101,0.02,0.14,0.06
			c0.04,0.04,0.061,0.086,0.061,0.14v2.929h2.917c0.054,0,0.101,0.02,0.141,0.06c0.039,0.04,0.06,0.086,0.06,0.14
			C216.327,57.897,216.307,57.944,216.268,57.984z"/>
	</g>
</g>
<g>
	<g>
		<g>
			
				<line fill="none" stroke="#000000" stroke-width="0.5" stroke-miterlimit="10" x1="272.491" y1="21.031" x2="251.351" y2="21.031"/>
			<g>
				<path d="M252.248,21.031l1.096,1.801l-0.062,0.041l-2.938-1.166c-1.023-0.225-2.047-0.451-3.07-0.676
					c1.023-0.225,2.047-0.449,3.07-0.676l2.938-1.166l0.062,0.031L252.248,21.031z"/>
			</g>
		</g>
	</g>
	<line fill="none" stroke="#000000" stroke-width="0.5" stroke-miterlimit="10" x1="251.351" y1="21.031" x2="230.21" y2="21.031"/>
</g>
<g>
	<g>
		<g>
			
				<line fill="none" stroke="#000000" stroke-width="0.5" stroke-miterlimit="10" x1="272.491" y1="56.919" x2="293.632" y2="56.919"/>
			<g>
				<path d="M292.734,56.919l-1.096-1.802l0.062-0.041l2.938,1.167c1.023,0.226,2.047,0.45,3.07,0.676
					c-1.023,0.225-2.047,0.45-3.07,0.676l-2.938,1.167l-0.062-0.031L292.734,56.919z"/>
			</g>
		</g>
	</g>
	
		<line fill="none" stroke="#000000" stroke-width="0.5" stroke-miterlimit="10" x1="293.632" y1="56.919" x2="314.772" y2="56.919"/>
</g>
<line fill="none" stroke="#000000" stroke-width="0.5" stroke-miterlimit="10" stroke-dasharray="2,1" x1="272.491" y1="56.919" x2="272.491" y2="21.031"/>
<circle fill="#FFFFFF" stroke="#000000" stroke-width="0.5" stroke-miterlimit="10" cx="275.327" cy="21.031" r="2.836"/>
<circle fill="#FFFFFF" stroke="#000000" stroke-width="0.5" stroke-miterlimit="10" cx="269.655" cy="56.919" r="2.836"/>
<line fill="none" stroke="#000000" stroke-width="0.5" stroke-miterlimit="10" stroke-dasharray="2,1" x1="314.772" y1="92.809" x2="314.772" y2="56.919"/>
<circle fill="#FFFFFF" stroke="#000000" stroke-width="0.5" stroke-miterlimit="10" cx="317.608" cy="56.92" r="2.836"/>
<circle fill="#FFFFFF" stroke="#000000" stroke-width="0.5" stroke-miterlimit="10" cx="311.937" cy="92.807" r="2.836"/>
<g>
	<g>
		<g>
			
				<line fill="none" stroke="#000000" stroke-width="0.5" stroke-miterlimit="10" x1="357.054" y1="92.809" x2="335.913" y2="92.809"/>
			<g>
				<path d="M336.811,92.809l1.096,1.803l-0.062,0.041l-2.938-1.168c-1.023-0.225-2.047-0.449-3.07-0.676
					c1.023-0.225,2.047-0.449,3.07-0.676l2.938-1.166l0.062,0.031L336.811,92.809z"/>
			</g>
		</g>
	</g>
	
		<line fill="none" stroke="#000000" stroke-width="0.5" stroke-miterlimit="10" x1="335.913" y1="92.809" x2="314.772" y2="92.809"/>
</g>
<g>
	<g>
		<path fill="#010101" d="M378.768,57.399c-0.04,0.04-0.087,0.06-0.141,0.06h-2.917v2.929c0,0.053-0.021,0.1-0.061,0.14
			c-0.039,0.04-0.086,0.061-0.14,0.061s-0.101-0.021-0.14-0.061c-0.04-0.04-0.061-0.087-0.061-0.14v-2.929h-2.918
			c-0.053,0-0.1-0.02-0.139-0.06c-0.041-0.04-0.061-0.086-0.061-0.14c0-0.054,0.02-0.1,0.061-0.14c0.039-0.04,0.086-0.06,0.139-0.06
			h2.918V54.13c0-0.053,0.021-0.1,0.061-0.14c0.039-0.04,0.086-0.06,0.14-0.06s0.101,0.02,0.14,0.06
			c0.04,0.04,0.061,0.086,0.061,0.14v2.929h2.917c0.054,0,0.101,0.02,0.141,0.06c0.039,0.04,0.06,0.086,0.06,0.14
			C378.827,57.313,378.807,57.359,378.768,57.399z"/>
	</g>
</g>
<g>
	<g>
		<g>
			<line fill="none" stroke="#000000" stroke-width="0.5" stroke-miterlimit="10" x1="428.21" y1="3.086" x2="407.069" y2="3.086"/>
			<g>
				<path d="M407.967,3.086l1.096,1.801l-0.062,0.041l-2.938-1.166c-1.023-0.225-2.047-0.451-3.07-0.676
					c1.023-0.225,2.047-0.449,3.07-0.676l2.938-1.166l0.062,0.031L407.967,3.086z"/>
			</g>
		</g>
	</g>
	<line fill="none" stroke="#000000" stroke-width="0.5" stroke-miterlimit="10" x1="407.069" y1="3.086" x2="385.929" y2="3.086"/>
</g>
<g>
	<g>
		<g>
			
				<line fill="none" stroke="#000000" stroke-width="0.5" stroke-miterlimit="10" x1="428.21" y1="38.975" x2="449.351" y2="38.975"/>
			<g>
				<path d="M448.453,38.975l-1.096-1.803l0.062-0.04l2.938,1.167c1.023,0.225,2.047,0.449,3.07,0.676
					c-1.023,0.225-2.047,0.449-3.07,0.676l-2.938,1.166l-0.062-0.031L448.453,38.975z"/>
			</g>
		</g>
	</g>
	
		<line fill="none" stroke="#000000" stroke-width="0.5" stroke-miterlimit="10" x1="449.351" y1="38.975" x2="470.491" y2="38.975"/>
</g>
<line fill="none" stroke="#000000" stroke-width="0.5" stroke-miterlimit="10" stroke-dasharray="2,1" x1="428.21" y1="38.975" x2="428.21" y2="3.086"/>
<circle fill="#FFFFFF" stroke="#000000" stroke-width="0.5" stroke-miterlimit="10" cx="431.046" cy="3.086" r="2.836"/>
<circle fill="#FFFFFF" stroke="#000000" stroke-width="0.5" stroke-miterlimit="10" cx="425.374" cy="38.975" r="2.836"/>
<line fill="none" stroke="#000000" stroke-width="0.5" stroke-miterlimit="10" stroke-dasharray="2,1" x1="470.491" y1="74.863" x2="470.491" y2="38.975"/>
<circle fill="#FFFFFF" stroke="#000000" stroke-width="0.5" stroke-miterlimit="10" cx="473.327" cy="38.975" r="2.836"/>
<circle fill="#FFFFFF" stroke="#000000" stroke-width="0.5" stroke-miterlimit="10" cx="473.327" cy="74.861" r="2.836"/>
<g>
	<g>
		<g>
			
				<line fill="none" stroke="#000000" stroke-width="0.5" stroke-miterlimit="10" x1="470.491" y1="74.863" x2="449.351" y2="74.863"/>
			<g>
				<path d="M450.248,74.863l1.096,1.803l-0.062,0.041l-2.938-1.168c-1.023-0.225-2.047-0.449-3.07-0.676
					c1.023-0.225,2.047-0.449,3.07-0.676l2.938-1.166l0.062,0.031L450.248,74.863z"/>
			</g>
		</g>
	</g>
	<line fill="none" stroke="#000000" stroke-width="0.5" stroke-miterlimit="10" x1="449.351" y1="74.863" x2="428.21" y2="74.863"/>
</g>
<line fill="none" stroke="#000000" stroke-width="0.5" stroke-miterlimit="10" stroke-dasharray="2,1" x1="428.21" y1="110.752" x2="428.21" y2="74.863"/>
<circle fill="#FFFFFF" stroke="#000000" stroke-width="0.5" stroke-miterlimit="10" cx="425.374" cy="74.861" r="2.836"/>
<circle fill="#FFFFFF" stroke="#000000" stroke-width="0.5" stroke-miterlimit="10" cx="425.374" cy="110.751" r="2.836"/>
<g>
	<g>
		<g>
			
				<line fill="none" stroke="#000000" stroke-width="0.5" stroke-miterlimit="10" x1="470.491" y1="110.752" x2="449.351" y2="110.752"/>
			<g>
				<path d="M450.248,110.752l1.096,1.803l-0.062,0.041l-2.938-1.168c-1.023-0.225-2.047-0.449-3.07-0.676
					c1.023-0.225,2.047-0.449,3.07-0.676l2.938-1.166l0.062,0.031L450.248,110.752z"/>
			</g>
		</g>
	</g>
	
		<line fill="none" stroke="#000000" stroke-width="0.5" stroke-miterlimit="10" x1="449.351" y1="110.752" x2="428.21" y2="110.752"/>
</g>
<g>
	<g>
		<path fill="#010101" d="M520.595,57.984c-0.04,0.04-0.087,0.06-0.141,0.06h-2.918v2.929c0,0.053-0.02,0.1-0.06,0.14
			s-0.087,0.061-0.14,0.061s-0.1-0.021-0.141-0.061c-0.039-0.04-0.059-0.087-0.059-0.14v-2.929h-2.918c-0.054,0-0.1-0.02-0.141-0.06
			c-0.039-0.04-0.06-0.086-0.06-0.14c0-0.054,0.021-0.1,0.06-0.14c0.041-0.04,0.087-0.06,0.141-0.06h2.918v-2.929
			c0-0.053,0.02-0.1,0.059-0.14c0.041-0.04,0.088-0.06,0.141-0.06s0.1,0.02,0.14,0.06s0.06,0.086,0.06,0.14v2.929h2.918
			c0.054,0,0.101,0.02,0.141,0.06c0.039,0.04,0.06,0.086,0.06,0.14C520.654,57.897,520.634,57.944,520.595,57.984z"/>
	</g>
</g>
<g>
	<path d="M552.938,68.281c0,0.277-0.046,0.462-0.138,0.554s-0.259,0.138-0.501,0.138c-0.234,0-0.396-0.045-0.486-0.135
		s-0.135-0.27-0.135-0.539c0-0.277,0.046-0.462,0.138-0.554s0.259-0.138,0.501-0.138c0.234,0,0.396,0.045,0.486,0.135
		S552.938,68.011,552.938,68.281z"/>
	<path d="M555.967,68.281c0,0.277-0.046,0.462-0.138,0.554s-0.259,0.138-0.501,0.138c-0.234,0-0.396-0.045-0.486-0.135
		s-0.135-0.27-0.135-0.539c0-0.277,0.046-0.462,0.138-0.554s0.259-0.138,0.501-0.138c0.234,0,0.396,0.045,0.486,0.135
		S555.967,68.011,555.967,68.281z"/>
	<path d="M558.996,68.281c0,0.277-0.046,0.462-0.138,0.554s-0.259,0.138-0.501,0.138c-0.234,0-0.396-0.045-0.486-0.135
		s-0.135-0.27-0.135-0.539c0-0.277,0.046-0.462,0.138-0.554s0.259-0.138,0.501-0.138c0.234,0,0.396,0.045,0.486,0.135
		S558.996,68.011,558.996,68.281z"/>
</g>
<g>
	<g>
		<g>
			<line fill="none" stroke="#000000" stroke-width="0.5" stroke-miterlimit="10" x1="86.701" y1="56.92" x2="71.182" y2="56.92"/>
			<g>
				<path d="M72.079,56.92l1.096,1.802l-0.062,0.04l-2.938-1.166c-1.023-0.226-2.047-0.45-3.07-0.676
					c1.023-0.225,2.047-0.45,3.07-0.676l2.938-1.166l0.062,0.03L72.079,56.92z"/>
			</g>
		</g>
	</g>
	<line fill="none" stroke="#000000" stroke-width="0.5" stroke-miterlimit="10" x1="71.182" y1="56.92" x2="55.662" y2="56.92"/>
</g>
</svg>
