<?xml version="1.0" encoding="utf-8"?>
<!-- Generator: Adobe Illustrator 15.1.0, SVG Export Plug-In . SVG Version: 6.00 Build 0)  -->
<!DOCTYPE svg PUBLIC "-//W3C//DTD SVG 1.1//EN" "http://www.w3.org/Graphics/SVG/1.1/DTD/svg11.dtd">
<svg version="1.1" id="Layer_1" xmlns="http://www.w3.org/2000/svg" xmlns:xlink="http://www.w3.org/1999/xlink" x="0px" y="0px"
	 width="155.521px" height="46.137px" viewBox="0 0 155.521 46.137" enable-background="new 0 0 155.521 46.137"
	 xml:space="preserve">
<rect x="55.364" y="1.221" fill="none" stroke="#000000" stroke-width="0.5" stroke-miterlimit="10" width="44.666" height="44.666"/>
<circle fill="#FFFFFF" stroke="#000000" stroke-width="0.5" stroke-miterlimit="10" cx="102.866" cy="6.532" r="2.836"/>
<circle fill="#FFFFFF" stroke="#000000" stroke-width="0.5" stroke-miterlimit="10" cx="102.866" cy="17.88" r="2.836"/>
<circle fill="#FFFFFF" stroke="#000000" stroke-width="0.5" stroke-miterlimit="10" cx="102.866" cy="29.228" r="2.836"/>
<circle fill="#FFFFFF" stroke="#000000" stroke-width="0.5" stroke-miterlimit="10" cx="102.866" cy="40.575" r="2.836"/>
<circle fill="#FFFFFF" stroke="#000000" stroke-width="0.5" stroke-miterlimit="10" cx="52.528" cy="4.858" r="2.836"/>
<circle fill="#FFFFFF" stroke="#000000" stroke-width="0.5" stroke-miterlimit="10" cx="52.528" cy="14.206" r="2.836"/>
<circle fill="#FFFFFF" stroke="#000000" stroke-width="0.5" stroke-miterlimit="10" cx="52.528" cy="23.554" r="2.836"/>
<circle fill="#FFFFFF" stroke="#000000" stroke-width="0.5" stroke-miterlimit="10" cx="52.528" cy="32.901" r="2.836"/>
<circle fill="#FFFFFF" stroke="#000000" stroke-width="0.5" stroke-miterlimit="10" cx="52.528" cy="42.249" r="2.836"/>
<g>
	<path d="M15.834,8.534c-0.043,0.199-0.07,0.345-0.082,0.437s-0.018,0.169-0.018,0.231c0,0.117,0.02,0.209,0.059,0.275
		s0.1,0.117,0.182,0.152s0.217,0.063,0.404,0.082l-0.053,0.287H14.51l0.885-3.949c0.051-0.227,0.086-0.407,0.105-0.542
		s0.029-0.247,0.029-0.337c0-0.113-0.017-0.201-0.05-0.264s-0.089-0.109-0.167-0.141S15.1,4.716,14.908,4.708l0.064-0.311
		l1.43-0.053h0.346L15.834,8.534z M17.281,2.101l-0.27,1.137h-1.037l0.27-1.137H17.281z"/>
	<path d="M25.379,9.853c0,0.031-0.007,0.059-0.021,0.082s-0.037,0.042-0.07,0.056s-0.077,0.024-0.132,0.032
		s-0.121,0.012-0.199,0.012c-0.082,0-0.15-0.004-0.205-0.012s-0.1-0.019-0.135-0.032s-0.061-0.032-0.076-0.056
		s-0.023-0.051-0.023-0.082V9.155c-0.277,0.301-0.565,0.535-0.864,0.703s-0.626,0.252-0.981,0.252c-0.387,0-0.717-0.075-0.99-0.226
		s-0.495-0.354-0.665-0.609s-0.294-0.557-0.372-0.902s-0.117-0.71-0.117-1.093c0-0.453,0.049-0.862,0.146-1.228
		s0.242-0.677,0.434-0.935s0.429-0.456,0.712-0.595s0.61-0.208,0.981-0.208c0.309,0,0.591,0.067,0.847,0.202
		s0.509,0.333,0.759,0.595V2.048c0-0.027,0.007-0.054,0.021-0.079s0.04-0.045,0.079-0.059s0.089-0.025,0.149-0.035
		s0.138-0.015,0.231-0.015c0.098,0,0.178,0.005,0.24,0.015s0.111,0.021,0.146,0.035s0.062,0.033,0.079,0.059
		s0.026,0.052,0.026,0.079V9.853z M24.406,6.144c-0.262-0.324-0.515-0.571-0.759-0.741s-0.499-0.255-0.765-0.255
		c-0.246,0-0.455,0.059-0.627,0.176s-0.312,0.271-0.419,0.463s-0.186,0.408-0.234,0.65s-0.073,0.488-0.073,0.738
		c0,0.266,0.021,0.525,0.062,0.779s0.112,0.479,0.214,0.677s0.236,0.355,0.404,0.475s0.379,0.179,0.633,0.179
		c0.129,0,0.253-0.018,0.372-0.053s0.241-0.094,0.366-0.176s0.256-0.188,0.393-0.319s0.281-0.292,0.434-0.483V6.144z"/>
	<path d="M32.018,7.146c0,0.457-0.05,0.868-0.149,1.233s-0.246,0.677-0.439,0.935s-0.431,0.455-0.712,0.592
		s-0.604,0.205-0.967,0.205c-0.168,0-0.323-0.017-0.466-0.05s-0.282-0.087-0.419-0.161s-0.273-0.168-0.41-0.281
		s-0.281-0.25-0.434-0.41v0.645c0,0.031-0.008,0.059-0.023,0.082s-0.041,0.042-0.076,0.056s-0.079,0.024-0.132,0.032
		s-0.12,0.012-0.202,0.012c-0.078,0-0.145-0.004-0.199-0.012s-0.1-0.019-0.135-0.032s-0.059-0.032-0.07-0.056
		s-0.018-0.051-0.018-0.082V2.024c0-0.031,0.007-0.059,0.021-0.082s0.039-0.043,0.076-0.059s0.087-0.027,0.149-0.035
		s0.141-0.012,0.234-0.012c0.098,0,0.178,0.004,0.24,0.012s0.111,0.02,0.146,0.035s0.061,0.035,0.076,0.059s0.023,0.051,0.023,0.082
		v3.158c0.156-0.16,0.308-0.295,0.454-0.404s0.29-0.198,0.431-0.267s0.281-0.118,0.422-0.149s0.289-0.047,0.445-0.047
		c0.383,0,0.71,0.076,0.981,0.229s0.492,0.356,0.662,0.612s0.294,0.556,0.372,0.899S32.018,6.763,32.018,7.146z M31.016,7.257
		c0-0.27-0.021-0.531-0.062-0.785c-0.042-0.254-0.113-0.479-0.216-0.674c-0.102-0.195-0.237-0.353-0.406-0.472
		s-0.38-0.179-0.631-0.179c-0.126,0-0.25,0.018-0.371,0.053c-0.122,0.035-0.246,0.094-0.372,0.176s-0.257,0.188-0.392,0.316
		c-0.136,0.129-0.28,0.291-0.434,0.486v2.104c0.268,0.324,0.522,0.571,0.767,0.741c0.243,0.17,0.497,0.255,0.761,0.255
		c0.243,0,0.451-0.059,0.624-0.176s0.313-0.272,0.422-0.466s0.187-0.41,0.236-0.65C30.991,7.746,31.016,7.503,31.016,7.257z"/>
</g>
<g>
	<path d="M124.16,10.099c-0.125,0.594-0.295,1.071-0.51,1.433s-0.494,0.633-0.838,0.814s-0.754,0.272-1.23,0.272
		c-0.195,0-0.361-0.02-0.498-0.059l0.135-0.516c0.063,0.02,0.132,0.032,0.208,0.038s0.155,0.009,0.237,0.009
		c0.188,0,0.347-0.028,0.478-0.085s0.253-0.15,0.366-0.281s0.218-0.313,0.313-0.548s0.185-0.537,0.267-0.908l0.949-4.219
		c0.051-0.219,0.086-0.396,0.105-0.533s0.029-0.252,0.029-0.346c0-0.113-0.017-0.201-0.05-0.264s-0.089-0.109-0.167-0.141
		s-0.213-0.051-0.404-0.059l0.064-0.311l1.43-0.053h0.334L124.16,10.099z M125.924,2.101l-0.27,1.137h-1.037l0.27-1.137H125.924z"/>
	<path d="M133.945,9.853c0,0.031-0.007,0.059-0.021,0.082s-0.037,0.042-0.07,0.056s-0.077,0.024-0.132,0.032
		s-0.121,0.012-0.199,0.012c-0.082,0-0.15-0.004-0.205-0.012s-0.1-0.019-0.135-0.032s-0.061-0.032-0.076-0.056
		s-0.023-0.051-0.023-0.082V9.155c-0.277,0.301-0.565,0.535-0.864,0.703s-0.626,0.252-0.981,0.252c-0.387,0-0.717-0.075-0.99-0.226
		s-0.495-0.354-0.665-0.609s-0.294-0.557-0.372-0.902s-0.117-0.71-0.117-1.093c0-0.453,0.049-0.862,0.146-1.228
		s0.242-0.677,0.434-0.935s0.429-0.456,0.712-0.595s0.61-0.208,0.981-0.208c0.309,0,0.591,0.067,0.847,0.202
		s0.509,0.333,0.759,0.595V2.048c0-0.027,0.007-0.054,0.021-0.079s0.04-0.045,0.079-0.059s0.089-0.025,0.149-0.035
		s0.138-0.015,0.231-0.015c0.098,0,0.178,0.005,0.24,0.015s0.111,0.021,0.146,0.035s0.062,0.033,0.079,0.059
		s0.026,0.052,0.026,0.079V9.853z M132.973,6.144c-0.262-0.324-0.515-0.571-0.759-0.741s-0.499-0.255-0.765-0.255
		c-0.246,0-0.455,0.059-0.627,0.176s-0.312,0.271-0.419,0.463s-0.186,0.408-0.234,0.65s-0.073,0.488-0.073,0.738
		c0,0.266,0.021,0.525,0.062,0.779s0.112,0.479,0.214,0.677s0.236,0.355,0.404,0.475s0.379,0.179,0.633,0.179
		c0.129,0,0.253-0.018,0.372-0.053s0.241-0.094,0.366-0.176s0.256-0.188,0.393-0.319s0.281-0.292,0.434-0.483V6.144z"/>
	<path d="M140.584,7.146c0,0.457-0.05,0.868-0.149,1.233s-0.246,0.677-0.439,0.935s-0.431,0.455-0.712,0.592
		s-0.604,0.205-0.967,0.205c-0.168,0-0.323-0.017-0.466-0.05s-0.282-0.087-0.419-0.161s-0.273-0.168-0.41-0.281
		s-0.281-0.25-0.434-0.41v0.645c0,0.031-0.008,0.059-0.023,0.082s-0.041,0.042-0.076,0.056s-0.079,0.024-0.132,0.032
		s-0.12,0.012-0.202,0.012c-0.078,0-0.145-0.004-0.199-0.012s-0.1-0.019-0.135-0.032s-0.059-0.032-0.07-0.056
		s-0.018-0.051-0.018-0.082V2.024c0-0.031,0.007-0.059,0.021-0.082s0.039-0.043,0.076-0.059s0.087-0.027,0.149-0.035
		s0.141-0.012,0.234-0.012c0.098,0,0.178,0.004,0.24,0.012s0.111,0.02,0.146,0.035s0.061,0.035,0.076,0.059s0.023,0.051,0.023,0.082
		v3.158c0.156-0.16,0.308-0.295,0.454-0.404s0.29-0.198,0.431-0.267s0.281-0.118,0.422-0.149s0.289-0.047,0.445-0.047
		c0.383,0,0.71,0.076,0.981,0.229s0.492,0.356,0.662,0.612s0.294,0.556,0.372,0.899S140.584,6.763,140.584,7.146z M139.582,7.257
		c0-0.27-0.021-0.531-0.062-0.785c-0.042-0.254-0.113-0.479-0.216-0.674c-0.102-0.195-0.237-0.353-0.406-0.472
		s-0.38-0.179-0.631-0.179c-0.126,0-0.25,0.018-0.371,0.053c-0.122,0.035-0.246,0.094-0.372,0.176s-0.257,0.188-0.392,0.316
		c-0.136,0.129-0.28,0.291-0.434,0.486v2.104c0.268,0.324,0.522,0.571,0.767,0.741c0.243,0.17,0.497,0.255,0.761,0.255
		c0.243,0,0.451-0.059,0.624-0.176s0.313-0.272,0.422-0.466s0.187-0.41,0.236-0.65C139.558,7.746,139.582,7.503,139.582,7.257z"/>
</g>
<g>
	<path d="M5.227,26.765c0,0.031-0.008,0.059-0.023,0.082s-0.042,0.043-0.079,0.059s-0.089,0.027-0.155,0.035
		s-0.15,0.012-0.252,0.012c-0.105,0-0.192-0.003-0.261-0.009s-0.126-0.016-0.173-0.029s-0.085-0.033-0.114-0.059
		S4.113,26.8,4.09,26.765l-2.227-2.918v2.924c0,0.031-0.008,0.058-0.023,0.079s-0.041,0.04-0.076,0.056s-0.084,0.027-0.146,0.035
		s-0.143,0.012-0.24,0.012c-0.094,0-0.172-0.004-0.234-0.012s-0.112-0.02-0.149-0.035s-0.063-0.034-0.076-0.056
		s-0.021-0.048-0.021-0.079v-7.828c0-0.031,0.007-0.059,0.021-0.082s0.039-0.043,0.076-0.059s0.087-0.027,0.149-0.035
		s0.141-0.012,0.234-0.012c0.098,0,0.178,0.004,0.24,0.012s0.111,0.02,0.146,0.035s0.061,0.035,0.076,0.059s0.023,0.051,0.023,0.082
		v4.77l1.992-2.191c0.031-0.039,0.064-0.071,0.1-0.097s0.077-0.047,0.126-0.064s0.106-0.029,0.173-0.035s0.146-0.009,0.24-0.009
		c0.098,0,0.18,0.003,0.246,0.009s0.12,0.016,0.161,0.029s0.07,0.031,0.088,0.053s0.026,0.05,0.026,0.085
		c0,0.047-0.013,0.094-0.038,0.141s-0.067,0.102-0.126,0.164l-1.91,1.91l2.145,2.783c0.051,0.066,0.087,0.12,0.108,0.161
		S5.227,26.73,5.227,26.765z"/>
	<path d="M7.43,19.716c0,0.227-0.043,0.381-0.129,0.463s-0.244,0.123-0.475,0.123c-0.227,0-0.382-0.04-0.466-0.12
		s-0.126-0.231-0.126-0.454c0-0.227,0.043-0.381,0.129-0.463s0.244-0.123,0.475-0.123c0.227,0,0.382,0.04,0.466,0.12
		S7.43,19.494,7.43,19.716z M7.318,26.771c0,0.031-0.008,0.058-0.023,0.079s-0.041,0.04-0.076,0.056s-0.084,0.027-0.146,0.035
		s-0.143,0.012-0.24,0.012c-0.094,0-0.172-0.004-0.234-0.012s-0.112-0.02-0.149-0.035s-0.063-0.034-0.076-0.056
		s-0.021-0.048-0.021-0.079v-5.273c0-0.027,0.007-0.053,0.021-0.076s0.039-0.043,0.076-0.059s0.087-0.027,0.149-0.035
		s0.141-0.012,0.234-0.012c0.098,0,0.178,0.004,0.24,0.012s0.111,0.02,0.146,0.035s0.061,0.035,0.076,0.059s0.023,0.049,0.023,0.076
		V26.771z"/>
	<path d="M16.928,26.771c0,0.031-0.008,0.058-0.023,0.079s-0.041,0.04-0.076,0.056s-0.084,0.027-0.146,0.035
		s-0.141,0.012-0.234,0.012c-0.098,0-0.178-0.004-0.24-0.012s-0.112-0.02-0.149-0.035s-0.063-0.034-0.079-0.056
		s-0.023-0.048-0.023-0.079v-3.205c0-0.223-0.02-0.426-0.059-0.609s-0.102-0.342-0.188-0.475s-0.195-0.234-0.328-0.305
		s-0.289-0.105-0.469-0.105c-0.223,0-0.446,0.086-0.671,0.258s-0.472,0.424-0.741,0.756v3.686c0,0.031-0.008,0.058-0.023,0.079
		s-0.042,0.04-0.079,0.056s-0.087,0.027-0.149,0.035s-0.141,0.012-0.234,0.012c-0.09,0-0.167-0.004-0.231-0.012
		s-0.115-0.02-0.152-0.035s-0.063-0.034-0.076-0.056s-0.021-0.048-0.021-0.079v-3.205c0-0.223-0.021-0.426-0.064-0.609
		s-0.107-0.342-0.193-0.475s-0.194-0.234-0.325-0.305s-0.286-0.105-0.466-0.105c-0.223,0-0.447,0.086-0.674,0.258
		s-0.473,0.424-0.738,0.756v3.686c0,0.031-0.008,0.058-0.023,0.079s-0.041,0.04-0.076,0.056s-0.084,0.027-0.146,0.035
		s-0.143,0.012-0.24,0.012c-0.094,0-0.172-0.004-0.234-0.012s-0.112-0.02-0.149-0.035S9.14,26.872,9.126,26.85
		s-0.021-0.048-0.021-0.079v-5.273c0-0.031,0.006-0.058,0.018-0.079s0.035-0.041,0.07-0.059s0.08-0.029,0.135-0.035
		s0.127-0.009,0.217-0.009c0.086,0,0.157,0.003,0.214,0.009s0.101,0.018,0.132,0.035s0.054,0.037,0.067,0.059
		s0.021,0.048,0.021,0.079v0.697c0.297-0.332,0.585-0.575,0.864-0.729s0.562-0.231,0.847-0.231c0.219,0,0.415,0.025,0.589,0.076
		s0.327,0.122,0.46,0.214s0.246,0.201,0.34,0.328s0.172,0.269,0.234,0.425c0.176-0.191,0.343-0.354,0.501-0.486
		s0.311-0.24,0.457-0.322s0.289-0.142,0.428-0.179s0.278-0.056,0.419-0.056c0.34,0,0.625,0.06,0.855,0.179s0.417,0.278,0.56,0.478
		s0.244,0.433,0.305,0.7s0.091,0.55,0.091,0.847V26.771z"/>
	<path d="M23.191,23.906c0,0.152-0.038,0.261-0.115,0.325c-0.076,0.064-0.163,0.097-0.262,0.097h-3.473
		c0,0.293,0.029,0.557,0.088,0.791c0.06,0.234,0.157,0.436,0.295,0.604c0.137,0.168,0.315,0.297,0.535,0.387
		c0.221,0.09,0.489,0.135,0.808,0.135c0.251,0,0.475-0.021,0.671-0.062s0.366-0.087,0.509-0.138
		c0.144-0.051,0.262-0.097,0.354-0.138c0.093-0.041,0.162-0.062,0.209-0.062c0.027,0,0.052,0.007,0.074,0.021
		c0.021,0.014,0.038,0.034,0.05,0.062s0.021,0.065,0.026,0.114s0.009,0.108,0.009,0.179c0,0.051-0.002,0.095-0.006,0.132
		s-0.009,0.07-0.015,0.1s-0.016,0.056-0.029,0.079s-0.031,0.046-0.053,0.067s-0.085,0.057-0.19,0.105s-0.242,0.097-0.41,0.144
		s-0.362,0.089-0.583,0.126s-0.456,0.056-0.706,0.056c-0.434,0-0.813-0.061-1.14-0.182s-0.601-0.301-0.823-0.539
		s-0.391-0.537-0.504-0.896s-0.17-0.777-0.17-1.254c0-0.453,0.059-0.86,0.176-1.222s0.286-0.668,0.507-0.92s0.487-0.445,0.8-0.58
		s0.662-0.202,1.049-0.202c0.414,0,0.767,0.066,1.058,0.199s0.53,0.312,0.718,0.536s0.325,0.488,0.413,0.791s0.132,0.626,0.132,0.97
		V23.906z M22.219,23.619c0.012-0.508-0.102-0.906-0.339-1.195c-0.238-0.289-0.591-0.434-1.059-0.434
		c-0.239,0-0.45,0.045-0.631,0.135s-0.332,0.209-0.454,0.357c-0.121,0.148-0.216,0.321-0.282,0.519
		c-0.067,0.197-0.104,0.403-0.112,0.618H22.219z"/>
	<path d="M29.203,26.771c0,0.031-0.008,0.058-0.023,0.079s-0.041,0.04-0.076,0.056s-0.084,0.027-0.146,0.035
		s-0.141,0.012-0.234,0.012c-0.098,0-0.178-0.004-0.24-0.012s-0.111-0.02-0.146-0.035s-0.061-0.034-0.076-0.056
		s-0.023-0.048-0.023-0.079v-3.088c0-0.301-0.023-0.543-0.07-0.727s-0.115-0.342-0.205-0.475s-0.206-0.234-0.349-0.305
		s-0.308-0.105-0.495-0.105c-0.242,0-0.484,0.086-0.727,0.258s-0.496,0.424-0.762,0.756v3.686c0,0.031-0.008,0.058-0.023,0.079
		s-0.041,0.04-0.076,0.056s-0.084,0.027-0.146,0.035s-0.143,0.012-0.24,0.012c-0.094,0-0.172-0.004-0.234-0.012
		s-0.112-0.02-0.149-0.035s-0.063-0.034-0.076-0.056s-0.021-0.048-0.021-0.079v-5.273c0-0.031,0.006-0.058,0.018-0.079
		s0.035-0.041,0.07-0.059s0.08-0.029,0.135-0.035s0.127-0.009,0.217-0.009c0.086,0,0.157,0.003,0.214,0.009s0.101,0.018,0.132,0.035
		s0.054,0.037,0.067,0.059s0.021,0.048,0.021,0.079v0.697c0.297-0.332,0.593-0.575,0.888-0.729s0.593-0.231,0.894-0.231
		c0.352,0,0.647,0.06,0.888,0.179s0.435,0.278,0.583,0.478s0.255,0.433,0.319,0.7s0.097,0.589,0.097,0.964V26.771z"/>
	<path d="M35.871,24.076c0,0.43-0.057,0.825-0.17,1.187s-0.282,0.673-0.507,0.935s-0.506,0.466-0.844,0.612s-0.729,0.22-1.175,0.22
		c-0.434,0-0.812-0.064-1.134-0.193s-0.591-0.316-0.806-0.563s-0.375-0.545-0.48-0.896s-0.158-0.75-0.158-1.195
		c0-0.43,0.056-0.825,0.167-1.187s0.279-0.673,0.504-0.935s0.505-0.465,0.841-0.609s0.729-0.217,1.178-0.217
		c0.434,0,0.812,0.064,1.134,0.193s0.591,0.316,0.806,0.563s0.376,0.545,0.483,0.896S35.871,23.634,35.871,24.076z M34.869,24.14
		c0-0.285-0.026-0.555-0.08-0.809c-0.053-0.254-0.141-0.477-0.263-0.668s-0.288-0.343-0.497-0.454s-0.469-0.167-0.78-0.167
		c-0.288,0-0.535,0.051-0.742,0.152s-0.377,0.245-0.511,0.431c-0.135,0.186-0.234,0.405-0.299,0.659
		c-0.065,0.254-0.098,0.531-0.098,0.832c0,0.289,0.026,0.561,0.08,0.814c0.053,0.254,0.142,0.476,0.266,0.665s0.291,0.34,0.5,0.451
		s0.469,0.167,0.78,0.167c0.284,0,0.53-0.051,0.739-0.152s0.38-0.244,0.514-0.428c0.135-0.184,0.232-0.402,0.296-0.656
		S34.869,24.445,34.869,24.14z M32.613,20.542c-0.02,0.023-0.041,0.043-0.064,0.059s-0.052,0.028-0.085,0.038
		s-0.073,0.017-0.12,0.021s-0.104,0.006-0.17,0.006c-0.074,0-0.134-0.003-0.179-0.009s-0.079-0.016-0.103-0.029
		s-0.035-0.032-0.035-0.056s0.008-0.051,0.023-0.082l1.002-1.512c0.02-0.031,0.043-0.058,0.07-0.079s0.063-0.039,0.105-0.053
		s0.095-0.023,0.155-0.029s0.136-0.009,0.226-0.009c0.121,0,0.219,0.006,0.293,0.018s0.127,0.03,0.158,0.056
		s0.043,0.056,0.035,0.091s-0.033,0.078-0.076,0.129L32.613,20.542z M34.594,20.542c-0.023,0.027-0.049,0.049-0.076,0.064
		s-0.059,0.027-0.094,0.035s-0.076,0.014-0.123,0.018s-0.104,0.006-0.17,0.006c-0.133,0-0.226-0.014-0.278-0.041
		s-0.06-0.07-0.021-0.129l1.066-1.535c0.02-0.031,0.042-0.056,0.067-0.073s0.06-0.032,0.103-0.044s0.098-0.021,0.164-0.026
		s0.15-0.009,0.252-0.009c0.109,0,0.198,0.006,0.267,0.018s0.117,0.03,0.146,0.056s0.04,0.057,0.032,0.094s-0.033,0.077-0.076,0.12
		L34.594,20.542z"/>
	<path d="M5.221,33.486c0,0.016-0.001,0.032-0.003,0.05s-0.005,0.036-0.009,0.056S5.2,33.632,5.194,33.656s-0.013,0.049-0.021,0.076
		l-1.799,5.01c-0.016,0.043-0.036,0.078-0.062,0.105s-0.063,0.049-0.114,0.064s-0.115,0.026-0.193,0.032s-0.176,0.009-0.293,0.009
		s-0.215-0.004-0.293-0.012s-0.142-0.02-0.19-0.035s-0.087-0.037-0.114-0.064s-0.049-0.061-0.064-0.1l-1.793-5.01
		c-0.016-0.047-0.028-0.088-0.038-0.123s-0.016-0.062-0.018-0.079s-0.003-0.032-0.003-0.044c0-0.031,0.008-0.059,0.023-0.082
		s0.042-0.042,0.079-0.056s0.086-0.022,0.146-0.026s0.136-0.006,0.226-0.006c0.113,0,0.204,0.003,0.272,0.009
		s0.121,0.017,0.158,0.032s0.064,0.035,0.082,0.059s0.034,0.053,0.05,0.088l1.488,4.348l0.023,0.07l0.018-0.07l1.471-4.348
		c0.008-0.035,0.021-0.064,0.041-0.088s0.048-0.043,0.085-0.059s0.088-0.026,0.152-0.032s0.149-0.009,0.255-0.009
		c0.09,0,0.164,0.002,0.223,0.006s0.104,0.014,0.138,0.029s0.057,0.034,0.07,0.056S5.221,33.455,5.221,33.486z"/>
	<path d="M11.109,36.076c0,0.43-0.057,0.825-0.17,1.187s-0.282,0.673-0.507,0.935s-0.506,0.466-0.844,0.612s-0.729,0.22-1.175,0.22
		c-0.434,0-0.812-0.064-1.134-0.193s-0.591-0.316-0.806-0.563s-0.375-0.545-0.48-0.896s-0.158-0.75-0.158-1.195
		c0-0.43,0.056-0.825,0.167-1.187s0.279-0.673,0.504-0.935s0.505-0.465,0.841-0.609s0.729-0.217,1.178-0.217
		c0.434,0,0.812,0.064,1.134,0.193s0.591,0.316,0.806,0.563s0.376,0.545,0.483,0.896S11.109,35.634,11.109,36.076z M10.107,36.14
		c0-0.285-0.026-0.555-0.08-0.809c-0.053-0.254-0.141-0.477-0.263-0.668s-0.288-0.343-0.497-0.454s-0.469-0.167-0.78-0.167
		c-0.288,0-0.535,0.051-0.742,0.152s-0.377,0.245-0.511,0.431C7.1,34.811,7,35.031,6.936,35.285
		c-0.065,0.254-0.098,0.531-0.098,0.832c0,0.289,0.026,0.561,0.08,0.814c0.053,0.254,0.142,0.476,0.266,0.665s0.291,0.34,0.5,0.451
		s0.469,0.167,0.78,0.167c0.284,0,0.53-0.051,0.739-0.152s0.38-0.244,0.514-0.428c0.135-0.184,0.232-0.402,0.296-0.656
		S10.107,36.445,10.107,36.14z"/>
	<path d="M17.074,38.771c0,0.031-0.008,0.058-0.023,0.079s-0.041,0.04-0.076,0.056s-0.084,0.027-0.146,0.035
		s-0.141,0.012-0.234,0.012c-0.098,0-0.178-0.004-0.24-0.012s-0.111-0.02-0.146-0.035s-0.061-0.034-0.076-0.056
		s-0.023-0.048-0.023-0.079v-3.088c0-0.301-0.023-0.543-0.07-0.727s-0.115-0.342-0.205-0.475s-0.206-0.234-0.349-0.305
		s-0.308-0.105-0.495-0.105c-0.242,0-0.484,0.086-0.727,0.258s-0.496,0.424-0.762,0.756v3.686c0,0.031-0.008,0.058-0.023,0.079
		s-0.041,0.04-0.076,0.056s-0.084,0.027-0.146,0.035s-0.143,0.012-0.24,0.012c-0.094,0-0.172-0.004-0.234-0.012
		s-0.112-0.02-0.149-0.035s-0.063-0.034-0.076-0.056s-0.021-0.048-0.021-0.079v-5.273c0-0.031,0.006-0.058,0.018-0.079
		s0.035-0.041,0.07-0.059s0.08-0.029,0.135-0.035s0.127-0.009,0.217-0.009c0.086,0,0.157,0.003,0.214,0.009s0.101,0.018,0.132,0.035
		s0.054,0.037,0.067,0.059s0.021,0.048,0.021,0.079v0.697c0.297-0.332,0.593-0.575,0.888-0.729s0.593-0.231,0.894-0.231
		c0.352,0,0.647,0.06,0.888,0.179s0.435,0.278,0.583,0.478s0.255,0.433,0.319,0.7s0.097,0.589,0.097,0.964V38.771z"/>
	<path d="M22.811,38.777c0,0.047-0.016,0.082-0.047,0.105s-0.074,0.041-0.129,0.053s-0.135,0.018-0.24,0.018
		c-0.102,0-0.183-0.006-0.243-0.018s-0.104-0.029-0.132-0.053s-0.041-0.059-0.041-0.105V38.25c-0.23,0.246-0.487,0.438-0.771,0.574
		s-0.583,0.205-0.899,0.205c-0.277,0-0.528-0.036-0.753-0.108s-0.416-0.177-0.574-0.313s-0.281-0.305-0.369-0.504
		s-0.132-0.426-0.132-0.68c0-0.297,0.061-0.555,0.182-0.773s0.295-0.4,0.521-0.545s0.504-0.253,0.832-0.325s0.697-0.108,1.107-0.108
		h0.727v-0.41c0-0.203-0.021-0.383-0.064-0.539s-0.112-0.286-0.208-0.39s-0.22-0.182-0.372-0.234s-0.34-0.079-0.563-0.079
		c-0.238,0-0.452,0.028-0.642,0.085s-0.355,0.119-0.498,0.188s-0.262,0.131-0.357,0.188s-0.167,0.085-0.214,0.085
		c-0.031,0-0.059-0.008-0.082-0.023s-0.044-0.039-0.062-0.07s-0.03-0.071-0.038-0.12s-0.012-0.103-0.012-0.161
		c0-0.098,0.007-0.175,0.021-0.231s0.047-0.11,0.1-0.161s0.144-0.11,0.272-0.179s0.277-0.131,0.445-0.188s0.352-0.104,0.551-0.141
		s0.4-0.056,0.604-0.056c0.379,0,0.701,0.043,0.967,0.129s0.48,0.212,0.645,0.378s0.283,0.372,0.357,0.618s0.111,0.533,0.111,0.861
		V38.777z M21.85,36.369h-0.826c-0.266,0-0.496,0.022-0.691,0.067s-0.357,0.111-0.486,0.199s-0.224,0.193-0.284,0.316
		s-0.091,0.265-0.091,0.425c0,0.273,0.087,0.491,0.261,0.653s0.417,0.243,0.729,0.243c0.254,0,0.489-0.064,0.706-0.193
		s0.444-0.326,0.683-0.592V36.369z"/>
	<path d="M25.553,38.771c0,0.031-0.008,0.058-0.023,0.079s-0.041,0.04-0.076,0.056s-0.084,0.027-0.146,0.035
		s-0.143,0.012-0.24,0.012c-0.094,0-0.172-0.004-0.234-0.012s-0.112-0.02-0.149-0.035s-0.063-0.034-0.076-0.056
		s-0.021-0.048-0.021-0.079v-7.828c0-0.031,0.007-0.059,0.021-0.082s0.039-0.043,0.076-0.059s0.087-0.027,0.149-0.035
		s0.141-0.012,0.234-0.012c0.098,0,0.178,0.004,0.24,0.012s0.111,0.02,0.146,0.035s0.061,0.035,0.076,0.059s0.023,0.051,0.023,0.082
		V38.771z"/>
	<path d="M31.313,38.777c0,0.047-0.016,0.082-0.047,0.105s-0.074,0.041-0.129,0.053s-0.135,0.018-0.24,0.018
		c-0.102,0-0.183-0.006-0.243-0.018s-0.104-0.029-0.132-0.053s-0.041-0.059-0.041-0.105V38.25c-0.23,0.246-0.487,0.438-0.771,0.574
		s-0.583,0.205-0.899,0.205c-0.277,0-0.528-0.036-0.753-0.108s-0.416-0.177-0.574-0.313s-0.281-0.305-0.369-0.504
		s-0.132-0.426-0.132-0.68c0-0.297,0.061-0.555,0.182-0.773s0.295-0.4,0.521-0.545s0.504-0.253,0.832-0.325s0.697-0.108,1.107-0.108
		h0.727v-0.41c0-0.203-0.021-0.383-0.064-0.539s-0.112-0.286-0.208-0.39s-0.22-0.182-0.372-0.234s-0.34-0.079-0.563-0.079
		c-0.238,0-0.452,0.028-0.642,0.085s-0.355,0.119-0.498,0.188s-0.262,0.131-0.357,0.188s-0.167,0.085-0.214,0.085
		c-0.031,0-0.059-0.008-0.082-0.023s-0.044-0.039-0.062-0.07s-0.03-0.071-0.038-0.12s-0.012-0.103-0.012-0.161
		c0-0.098,0.007-0.175,0.021-0.231s0.047-0.11,0.1-0.161s0.144-0.11,0.272-0.179s0.277-0.131,0.445-0.188s0.352-0.104,0.551-0.141
		s0.4-0.056,0.604-0.056c0.379,0,0.701,0.043,0.967,0.129s0.48,0.212,0.645,0.378s0.283,0.372,0.357,0.618s0.111,0.533,0.111,0.861
		V38.777z M30.352,36.369h-0.826c-0.266,0-0.496,0.022-0.691,0.067s-0.357,0.111-0.486,0.199s-0.224,0.193-0.284,0.316
		s-0.091,0.265-0.091,0.425c0,0.273,0.087,0.491,0.261,0.653s0.417,0.243,0.729,0.243c0.254,0,0.489-0.064,0.706-0.193
		s0.444-0.326,0.683-0.592V36.369z"/>
	<path d="M37.418,38.765c0,0.031-0.008,0.059-0.023,0.082s-0.042,0.043-0.079,0.059s-0.089,0.027-0.155,0.035
		s-0.15,0.012-0.252,0.012c-0.105,0-0.192-0.003-0.261-0.009s-0.126-0.016-0.173-0.029s-0.085-0.033-0.114-0.059
		s-0.056-0.056-0.079-0.091l-2.227-2.918v2.924c0,0.031-0.008,0.058-0.023,0.079s-0.041,0.04-0.076,0.056s-0.084,0.027-0.146,0.035
		s-0.143,0.012-0.24,0.012c-0.094,0-0.172-0.004-0.234-0.012s-0.112-0.02-0.149-0.035s-0.063-0.034-0.076-0.056
		s-0.021-0.048-0.021-0.079v-7.828c0-0.031,0.007-0.059,0.021-0.082s0.039-0.043,0.076-0.059s0.087-0.027,0.149-0.035
		s0.141-0.012,0.234-0.012c0.098,0,0.178,0.004,0.24,0.012s0.111,0.02,0.146,0.035s0.061,0.035,0.076,0.059s0.023,0.051,0.023,0.082
		v4.77l1.992-2.191c0.031-0.039,0.064-0.071,0.1-0.097s0.077-0.047,0.126-0.064s0.106-0.029,0.173-0.035s0.146-0.009,0.24-0.009
		c0.098,0,0.18,0.003,0.246,0.009s0.12,0.016,0.161,0.029s0.07,0.031,0.088,0.053s0.026,0.05,0.026,0.085
		c0,0.047-0.013,0.094-0.038,0.141s-0.067,0.102-0.126,0.164l-1.91,1.91l2.145,2.783c0.051,0.066,0.087,0.12,0.108,0.161
		S37.418,38.73,37.418,38.765z"/>
</g>
<g>
	<path d="M123.623,26.901c0,0.457-0.05,0.868-0.149,1.233s-0.246,0.677-0.439,0.935s-0.431,0.455-0.712,0.592
		s-0.604,0.205-0.967,0.205c-0.168,0-0.323-0.017-0.466-0.05s-0.282-0.087-0.419-0.161s-0.273-0.168-0.41-0.281
		s-0.281-0.25-0.434-0.41v0.645c0,0.031-0.008,0.059-0.023,0.082s-0.041,0.042-0.076,0.056s-0.079,0.024-0.132,0.032
		s-0.12,0.012-0.202,0.012c-0.078,0-0.145-0.004-0.199-0.012s-0.1-0.019-0.135-0.032s-0.059-0.032-0.07-0.056
		s-0.018-0.051-0.018-0.082V21.78c0-0.031,0.007-0.059,0.021-0.082s0.039-0.043,0.076-0.059s0.087-0.027,0.149-0.035
		s0.141-0.012,0.234-0.012c0.098,0,0.178,0.004,0.24,0.012s0.111,0.02,0.146,0.035s0.061,0.035,0.076,0.059s0.023,0.051,0.023,0.082
		v3.158c0.156-0.16,0.308-0.295,0.454-0.404s0.29-0.198,0.431-0.267s0.281-0.118,0.422-0.149s0.289-0.047,0.445-0.047
		c0.383,0,0.71,0.076,0.981,0.229s0.492,0.356,0.662,0.612s0.294,0.556,0.372,0.899S123.623,26.518,123.623,26.901z M122.621,27.012
		c0-0.27-0.021-0.531-0.062-0.785c-0.042-0.254-0.113-0.479-0.216-0.674c-0.102-0.195-0.237-0.353-0.406-0.472
		s-0.38-0.179-0.631-0.179c-0.126,0-0.25,0.018-0.371,0.053c-0.122,0.035-0.246,0.094-0.372,0.176s-0.257,0.188-0.392,0.316
		c-0.136,0.129-0.28,0.291-0.434,0.486v2.104c0.268,0.324,0.522,0.571,0.767,0.741c0.243,0.17,0.497,0.255,0.761,0.255
		c0.243,0,0.451-0.059,0.624-0.176s0.313-0.272,0.422-0.466s0.187-0.41,0.236-0.65C122.597,27.501,122.621,27.258,122.621,27.012z"
		/>
	<path d="M129.576,26.743c0,0.152-0.038,0.261-0.115,0.325c-0.076,0.064-0.163,0.097-0.262,0.097h-3.473
		c0,0.293,0.029,0.557,0.088,0.791c0.06,0.234,0.157,0.436,0.295,0.604c0.137,0.168,0.315,0.297,0.535,0.387
		c0.221,0.09,0.489,0.135,0.808,0.135c0.251,0,0.475-0.021,0.671-0.062s0.366-0.087,0.509-0.138
		c0.144-0.051,0.262-0.097,0.354-0.138c0.093-0.041,0.162-0.062,0.209-0.062c0.027,0,0.052,0.007,0.074,0.021
		c0.021,0.014,0.038,0.034,0.05,0.062s0.021,0.065,0.026,0.114s0.009,0.108,0.009,0.179c0,0.051-0.002,0.095-0.006,0.132
		s-0.009,0.07-0.015,0.1s-0.016,0.056-0.029,0.079s-0.031,0.046-0.053,0.067s-0.085,0.057-0.19,0.105s-0.242,0.097-0.41,0.144
		s-0.362,0.089-0.583,0.126s-0.456,0.056-0.706,0.056c-0.434,0-0.813-0.061-1.14-0.182s-0.601-0.301-0.823-0.539
		s-0.391-0.537-0.504-0.896s-0.17-0.777-0.17-1.254c0-0.453,0.059-0.86,0.176-1.222s0.286-0.668,0.507-0.92s0.487-0.445,0.8-0.58
		s0.662-0.202,1.049-0.202c0.414,0,0.767,0.066,1.058,0.199s0.53,0.312,0.718,0.536s0.325,0.488,0.413,0.791s0.132,0.626,0.132,0.97
		V26.743z M128.604,26.456c0.012-0.508-0.102-0.906-0.339-1.195c-0.238-0.289-0.591-0.434-1.059-0.434
		c-0.239,0-0.45,0.045-0.631,0.135s-0.332,0.209-0.454,0.357c-0.121,0.148-0.216,0.321-0.282,0.519
		c-0.067,0.197-0.104,0.403-0.112,0.618H128.604z"/>
	<path d="M132.125,29.842c0,0.391-0.029,0.706-0.088,0.946s-0.15,0.442-0.275,0.606s-0.285,0.288-0.48,0.372
		s-0.432,0.126-0.709,0.126c-0.125,0-0.231-0.008-0.319-0.023s-0.155-0.033-0.202-0.053s-0.079-0.042-0.097-0.067
		s-0.03-0.055-0.038-0.088s-0.013-0.067-0.015-0.103s-0.003-0.078-0.003-0.129c0-0.07,0.003-0.131,0.009-0.182
		s0.016-0.092,0.029-0.123s0.029-0.054,0.047-0.067s0.04-0.021,0.067-0.021c0.023,0,0.069,0.005,0.138,0.015
		s0.147,0.015,0.237,0.015c0.129,0,0.239-0.02,0.331-0.059s0.167-0.103,0.226-0.19s0.102-0.202,0.129-0.343s0.041-0.354,0.041-0.639
		v-5.502c0-0.027,0.008-0.053,0.023-0.076s0.042-0.043,0.079-0.059s0.087-0.027,0.149-0.035s0.141-0.012,0.234-0.012
		s0.172,0.004,0.234,0.012s0.112,0.02,0.149,0.035s0.063,0.035,0.079,0.059s0.023,0.049,0.023,0.076V29.842z M132.236,22.553
		c0,0.227-0.043,0.381-0.129,0.463s-0.244,0.123-0.475,0.123c-0.227,0-0.381-0.04-0.463-0.12s-0.123-0.231-0.123-0.454
		c0-0.227,0.042-0.381,0.126-0.463s0.241-0.123,0.472-0.123s0.387,0.04,0.469,0.12S132.236,22.331,132.236,22.553z"/>
	<path d="M138.822,26.913c0,0.43-0.057,0.825-0.17,1.187s-0.282,0.673-0.507,0.935s-0.506,0.466-0.844,0.612s-0.729,0.22-1.175,0.22
		c-0.434,0-0.812-0.064-1.134-0.193s-0.591-0.316-0.806-0.563s-0.375-0.545-0.48-0.896s-0.158-0.75-0.158-1.195
		c0-0.43,0.056-0.825,0.167-1.187s0.279-0.673,0.504-0.935s0.505-0.465,0.841-0.609s0.729-0.217,1.178-0.217
		c0.434,0,0.812,0.064,1.134,0.193s0.591,0.316,0.806,0.563s0.376,0.545,0.483,0.896S138.822,26.471,138.822,26.913z M137.82,26.977
		c0-0.285-0.026-0.555-0.08-0.809c-0.053-0.254-0.141-0.477-0.263-0.668s-0.288-0.343-0.497-0.454s-0.469-0.167-0.78-0.167
		c-0.288,0-0.535,0.051-0.742,0.152s-0.377,0.245-0.511,0.431c-0.135,0.186-0.234,0.405-0.299,0.659
		c-0.065,0.254-0.098,0.531-0.098,0.832c0,0.289,0.026,0.561,0.08,0.814c0.053,0.254,0.142,0.476,0.266,0.665s0.291,0.34,0.5,0.451
		s0.469,0.167,0.78,0.167c0.284,0,0.53-0.051,0.739-0.152s0.38-0.244,0.514-0.428c0.135-0.184,0.232-0.402,0.296-0.656
		S137.82,27.282,137.82,26.977z M135.699,22.624c0,0.215-0.039,0.361-0.117,0.439s-0.223,0.117-0.434,0.117
		s-0.354-0.038-0.428-0.114s-0.111-0.218-0.111-0.425c0-0.219,0.038-0.367,0.114-0.445s0.22-0.117,0.431-0.117
		c0.215,0,0.359,0.039,0.434,0.117S135.699,22.417,135.699,22.624z M137.773,22.624c0,0.215-0.039,0.361-0.117,0.439
		s-0.223,0.117-0.434,0.117s-0.354-0.038-0.428-0.114s-0.111-0.218-0.111-0.425c0-0.219,0.038-0.367,0.114-0.445
		s0.22-0.117,0.431-0.117c0.215,0,0.359,0.039,0.434,0.117S137.773,22.417,137.773,22.624z"/>
	<path d="M144.518,24.323c0,0.016-0.001,0.032-0.003,0.05s-0.005,0.036-0.009,0.056s-0.009,0.041-0.015,0.064
		s-0.013,0.049-0.021,0.076l-1.799,5.01c-0.016,0.043-0.036,0.078-0.062,0.105s-0.063,0.049-0.114,0.064s-0.115,0.026-0.193,0.032
		s-0.176,0.009-0.293,0.009s-0.215-0.004-0.293-0.012s-0.142-0.02-0.19-0.035s-0.087-0.037-0.114-0.064s-0.049-0.061-0.064-0.1
		l-1.793-5.01c-0.016-0.047-0.028-0.088-0.038-0.123s-0.016-0.062-0.018-0.079s-0.003-0.032-0.003-0.044
		c0-0.031,0.008-0.059,0.023-0.082s0.042-0.042,0.079-0.056s0.086-0.022,0.146-0.026s0.136-0.006,0.226-0.006
		c0.113,0,0.204,0.003,0.272,0.009s0.121,0.017,0.158,0.032s0.064,0.035,0.082,0.059s0.034,0.053,0.05,0.088l1.488,4.348l0.023,0.07
		l0.018-0.07l1.471-4.348c0.008-0.035,0.021-0.064,0.041-0.088s0.048-0.043,0.085-0.059s0.088-0.026,0.152-0.032
		s0.149-0.009,0.255-0.009c0.09,0,0.164,0.002,0.223,0.006s0.104,0.014,0.138,0.029s0.057,0.034,0.07,0.056
		S144.518,24.292,144.518,24.323z"/>
	<path d="M150.406,26.913c0,0.43-0.057,0.825-0.17,1.187s-0.282,0.673-0.507,0.935s-0.506,0.466-0.844,0.612s-0.729,0.22-1.175,0.22
		c-0.434,0-0.812-0.064-1.134-0.193s-0.591-0.316-0.806-0.563s-0.375-0.545-0.48-0.896s-0.158-0.75-0.158-1.195
		c0-0.43,0.056-0.825,0.167-1.187s0.279-0.673,0.504-0.935s0.505-0.465,0.841-0.609s0.729-0.217,1.178-0.217
		c0.434,0,0.812,0.064,1.134,0.193s0.591,0.316,0.806,0.563s0.376,0.545,0.483,0.896S150.406,26.471,150.406,26.913z
		 M149.404,26.977c0-0.285-0.026-0.555-0.08-0.809c-0.053-0.254-0.141-0.477-0.263-0.668s-0.288-0.343-0.497-0.454
		s-0.469-0.167-0.78-0.167c-0.288,0-0.535,0.051-0.742,0.152s-0.377,0.245-0.511,0.431c-0.135,0.186-0.234,0.405-0.299,0.659
		c-0.065,0.254-0.098,0.531-0.098,0.832c0,0.289,0.026,0.561,0.08,0.814c0.053,0.254,0.142,0.476,0.266,0.665s0.291,0.34,0.5,0.451
		s0.469,0.167,0.78,0.167c0.284,0,0.53-0.051,0.739-0.152s0.38-0.244,0.514-0.428c0.135-0.184,0.232-0.402,0.296-0.656
		S149.404,27.282,149.404,26.977z M147.148,23.379c-0.02,0.023-0.041,0.043-0.064,0.059s-0.052,0.028-0.085,0.038
		s-0.073,0.017-0.12,0.021s-0.104,0.006-0.17,0.006c-0.074,0-0.134-0.003-0.179-0.009s-0.079-0.016-0.103-0.029
		s-0.035-0.032-0.035-0.056s0.008-0.051,0.023-0.082l1.002-1.512c0.02-0.031,0.043-0.058,0.07-0.079s0.063-0.039,0.105-0.053
		s0.095-0.023,0.155-0.029s0.136-0.009,0.226-0.009c0.121,0,0.219,0.006,0.293,0.018s0.127,0.03,0.158,0.056
		s0.043,0.056,0.035,0.091s-0.033,0.078-0.076,0.129L147.148,23.379z M149.129,23.379c-0.023,0.027-0.049,0.049-0.076,0.064
		s-0.059,0.027-0.094,0.035s-0.076,0.014-0.123,0.018s-0.104,0.006-0.17,0.006c-0.133,0-0.226-0.014-0.278-0.041
		s-0.06-0.07-0.021-0.129l1.066-1.535c0.02-0.031,0.042-0.056,0.067-0.073s0.06-0.032,0.103-0.044s0.098-0.021,0.164-0.026
		s0.15-0.009,0.252-0.009c0.109,0,0.198,0.006,0.267,0.018s0.117,0.03,0.146,0.056s0.04,0.057,0.032,0.094s-0.033,0.077-0.076,0.12
		L149.129,23.379z"/>
	<path d="M123.096,36.323c0,0.016-0.001,0.032-0.003,0.05s-0.005,0.036-0.009,0.056s-0.009,0.041-0.015,0.064
		s-0.013,0.049-0.021,0.076l-1.799,5.01c-0.016,0.043-0.036,0.078-0.062,0.105s-0.063,0.049-0.114,0.064s-0.115,0.026-0.193,0.032
		s-0.176,0.009-0.293,0.009s-0.215-0.004-0.293-0.012s-0.142-0.02-0.19-0.035s-0.087-0.037-0.114-0.064s-0.049-0.061-0.064-0.1
		l-1.793-5.01c-0.016-0.047-0.028-0.088-0.038-0.123s-0.016-0.062-0.018-0.079s-0.003-0.032-0.003-0.044
		c0-0.031,0.008-0.059,0.023-0.082s0.042-0.042,0.079-0.056s0.086-0.022,0.146-0.026s0.136-0.006,0.226-0.006
		c0.113,0,0.204,0.003,0.272,0.009s0.121,0.017,0.158,0.032s0.064,0.035,0.082,0.059s0.034,0.053,0.05,0.088l1.488,4.348l0.023,0.07
		l0.018-0.07l1.471-4.348c0.008-0.035,0.021-0.064,0.041-0.088s0.048-0.043,0.085-0.059s0.088-0.026,0.152-0.032
		s0.149-0.009,0.255-0.009c0.09,0,0.164,0.002,0.223,0.006s0.104,0.014,0.138,0.029s0.057,0.034,0.07,0.056
		S123.096,36.292,123.096,36.323z"/>
	<path d="M128.984,38.913c0,0.43-0.057,0.825-0.17,1.187s-0.282,0.673-0.507,0.935s-0.506,0.466-0.844,0.612s-0.729,0.22-1.175,0.22
		c-0.434,0-0.812-0.064-1.134-0.193s-0.591-0.316-0.806-0.563s-0.375-0.545-0.48-0.896s-0.158-0.75-0.158-1.195
		c0-0.43,0.056-0.825,0.167-1.187s0.279-0.673,0.504-0.935s0.505-0.465,0.841-0.609s0.729-0.217,1.178-0.217
		c0.434,0,0.812,0.064,1.134,0.193s0.591,0.316,0.806,0.563s0.376,0.545,0.483,0.896S128.984,38.471,128.984,38.913z
		 M127.982,38.977c0-0.285-0.026-0.555-0.08-0.809c-0.053-0.254-0.141-0.477-0.263-0.668s-0.288-0.343-0.497-0.454
		s-0.469-0.167-0.78-0.167c-0.288,0-0.535,0.051-0.742,0.152s-0.377,0.245-0.511,0.431c-0.135,0.186-0.234,0.405-0.299,0.659
		c-0.065,0.254-0.098,0.531-0.098,0.832c0,0.289,0.026,0.561,0.08,0.814c0.053,0.254,0.142,0.476,0.266,0.665s0.291,0.34,0.5,0.451
		s0.469,0.167,0.78,0.167c0.284,0,0.53-0.051,0.739-0.152s0.38-0.244,0.514-0.428c0.135-0.184,0.232-0.402,0.296-0.656
		S127.982,39.282,127.982,38.977z"/>
	<path d="M134.949,41.608c0,0.031-0.008,0.058-0.023,0.079s-0.041,0.04-0.076,0.056s-0.084,0.027-0.146,0.035
		s-0.141,0.012-0.234,0.012c-0.098,0-0.178-0.004-0.24-0.012s-0.111-0.02-0.146-0.035s-0.061-0.034-0.076-0.056
		s-0.023-0.048-0.023-0.079V38.52c0-0.301-0.023-0.543-0.07-0.727s-0.115-0.342-0.205-0.475s-0.206-0.234-0.349-0.305
		s-0.308-0.105-0.495-0.105c-0.242,0-0.484,0.086-0.727,0.258s-0.496,0.424-0.762,0.756v3.686c0,0.031-0.008,0.058-0.023,0.079
		s-0.041,0.04-0.076,0.056s-0.084,0.027-0.146,0.035s-0.143,0.012-0.24,0.012c-0.094,0-0.172-0.004-0.234-0.012
		s-0.112-0.02-0.149-0.035s-0.063-0.034-0.076-0.056s-0.021-0.048-0.021-0.079v-5.273c0-0.031,0.006-0.058,0.018-0.079
		s0.035-0.041,0.07-0.059s0.08-0.029,0.135-0.035s0.127-0.009,0.217-0.009c0.086,0,0.157,0.003,0.214,0.009s0.101,0.018,0.132,0.035
		s0.054,0.037,0.067,0.059s0.021,0.048,0.021,0.079v0.697c0.297-0.332,0.593-0.575,0.888-0.729s0.593-0.231,0.894-0.231
		c0.352,0,0.647,0.06,0.888,0.179s0.435,0.278,0.583,0.478s0.255,0.433,0.319,0.7s0.097,0.589,0.097,0.964V41.608z"/>
	<path d="M140.686,41.614c0,0.047-0.016,0.082-0.047,0.105s-0.074,0.041-0.129,0.053s-0.135,0.018-0.24,0.018
		c-0.102,0-0.183-0.006-0.243-0.018s-0.104-0.029-0.132-0.053s-0.041-0.059-0.041-0.105v-0.527c-0.23,0.246-0.487,0.438-0.771,0.574
		s-0.583,0.205-0.899,0.205c-0.277,0-0.528-0.036-0.753-0.108s-0.416-0.177-0.574-0.313s-0.281-0.305-0.369-0.504
		s-0.132-0.426-0.132-0.68c0-0.297,0.061-0.555,0.182-0.773s0.295-0.4,0.521-0.545s0.504-0.253,0.832-0.325s0.697-0.108,1.107-0.108
		h0.727v-0.41c0-0.203-0.021-0.383-0.064-0.539s-0.112-0.286-0.208-0.39s-0.22-0.182-0.372-0.234s-0.34-0.079-0.563-0.079
		c-0.238,0-0.452,0.028-0.642,0.085s-0.355,0.119-0.498,0.188s-0.262,0.131-0.357,0.188s-0.167,0.085-0.214,0.085
		c-0.031,0-0.059-0.008-0.082-0.023s-0.044-0.039-0.062-0.07s-0.03-0.071-0.038-0.12s-0.012-0.103-0.012-0.161
		c0-0.098,0.007-0.175,0.021-0.231s0.047-0.11,0.1-0.161s0.144-0.11,0.272-0.179s0.277-0.131,0.445-0.188s0.352-0.104,0.551-0.141
		s0.4-0.056,0.604-0.056c0.379,0,0.701,0.043,0.967,0.129s0.48,0.212,0.645,0.378s0.283,0.372,0.357,0.618s0.111,0.533,0.111,0.861
		V41.614z M139.725,39.206h-0.826c-0.266,0-0.496,0.022-0.691,0.067s-0.357,0.111-0.486,0.199s-0.224,0.193-0.284,0.316
		s-0.091,0.265-0.091,0.425c0,0.273,0.087,0.491,0.261,0.653s0.417,0.243,0.729,0.243c0.254,0,0.489-0.064,0.706-0.193
		s0.444-0.326,0.683-0.592V39.206z"/>
	<path d="M143.428,41.608c0,0.031-0.008,0.058-0.023,0.079s-0.041,0.04-0.076,0.056s-0.084,0.027-0.146,0.035
		s-0.143,0.012-0.24,0.012c-0.094,0-0.172-0.004-0.234-0.012s-0.112-0.02-0.149-0.035s-0.063-0.034-0.076-0.056
		s-0.021-0.048-0.021-0.079V33.78c0-0.031,0.007-0.059,0.021-0.082s0.039-0.043,0.076-0.059s0.087-0.027,0.149-0.035
		s0.141-0.012,0.234-0.012c0.098,0,0.178,0.004,0.24,0.012s0.111,0.02,0.146,0.035s0.061,0.035,0.076,0.059s0.023,0.051,0.023,0.082
		V41.608z"/>
	<path d="M149.188,41.614c0,0.047-0.016,0.082-0.047,0.105s-0.074,0.041-0.129,0.053s-0.135,0.018-0.24,0.018
		c-0.102,0-0.183-0.006-0.243-0.018s-0.104-0.029-0.132-0.053s-0.041-0.059-0.041-0.105v-0.527c-0.23,0.246-0.487,0.438-0.771,0.574
		s-0.583,0.205-0.899,0.205c-0.277,0-0.528-0.036-0.753-0.108s-0.416-0.177-0.574-0.313s-0.281-0.305-0.369-0.504
		s-0.132-0.426-0.132-0.68c0-0.297,0.061-0.555,0.182-0.773s0.295-0.4,0.521-0.545s0.504-0.253,0.832-0.325s0.697-0.108,1.107-0.108
		h0.727v-0.41c0-0.203-0.021-0.383-0.064-0.539s-0.112-0.286-0.208-0.39s-0.22-0.182-0.372-0.234s-0.34-0.079-0.563-0.079
		c-0.238,0-0.452,0.028-0.642,0.085s-0.355,0.119-0.498,0.188s-0.262,0.131-0.357,0.188s-0.167,0.085-0.214,0.085
		c-0.031,0-0.059-0.008-0.082-0.023s-0.044-0.039-0.062-0.07s-0.03-0.071-0.038-0.12s-0.012-0.103-0.012-0.161
		c0-0.098,0.007-0.175,0.021-0.231s0.047-0.11,0.1-0.161s0.144-0.11,0.272-0.179s0.277-0.131,0.445-0.188s0.352-0.104,0.551-0.141
		s0.4-0.056,0.604-0.056c0.379,0,0.701,0.043,0.967,0.129s0.48,0.212,0.645,0.378s0.283,0.372,0.357,0.618s0.111,0.533,0.111,0.861
		V41.614z M148.227,39.206H147.4c-0.266,0-0.496,0.022-0.691,0.067s-0.357,0.111-0.486,0.199s-0.224,0.193-0.284,0.316
		s-0.091,0.265-0.091,0.425c0,0.273,0.087,0.491,0.261,0.653s0.417,0.243,0.729,0.243c0.254,0,0.489-0.064,0.706-0.193
		s0.444-0.326,0.683-0.592V39.206z"/>
	<path d="M155.293,41.602c0,0.031-0.008,0.059-0.023,0.082s-0.042,0.043-0.079,0.059s-0.089,0.027-0.155,0.035
		s-0.15,0.012-0.252,0.012c-0.105,0-0.192-0.003-0.261-0.009s-0.126-0.016-0.173-0.029s-0.085-0.033-0.114-0.059
		s-0.056-0.056-0.079-0.091l-2.227-2.918v2.924c0,0.031-0.008,0.058-0.023,0.079s-0.041,0.04-0.076,0.056s-0.084,0.027-0.146,0.035
		s-0.143,0.012-0.24,0.012c-0.094,0-0.172-0.004-0.234-0.012s-0.112-0.02-0.149-0.035s-0.063-0.034-0.076-0.056
		s-0.021-0.048-0.021-0.079V33.78c0-0.031,0.007-0.059,0.021-0.082s0.039-0.043,0.076-0.059s0.087-0.027,0.149-0.035
		s0.141-0.012,0.234-0.012c0.098,0,0.178,0.004,0.24,0.012s0.111,0.02,0.146,0.035s0.061,0.035,0.076,0.059s0.023,0.051,0.023,0.082
		v4.77l1.992-2.191c0.031-0.039,0.064-0.071,0.1-0.097s0.077-0.047,0.126-0.064s0.106-0.029,0.173-0.035s0.146-0.009,0.24-0.009
		c0.098,0,0.18,0.003,0.246,0.009s0.12,0.016,0.161,0.029s0.07,0.031,0.088,0.053s0.026,0.05,0.026,0.085
		c0,0.047-0.013,0.094-0.038,0.141s-0.067,0.102-0.126,0.164l-1.91,1.91l2.145,2.783c0.051,0.066,0.087,0.12,0.108,0.161
		S155.293,41.567,155.293,41.602z"/>
</g>
<g>
	<g>
		<path fill="#010101" d="M80.676,22.65c-0.012,0.014-0.024,0.021-0.04,0.021c-0.026,0-0.044-0.004-0.052-0.014
			c-0.218-0.201-0.404-0.43-0.56-0.688c-0.155-0.257-0.282-0.533-0.382-0.828c-0.1-0.294-0.173-0.602-0.221-0.923
			s-0.072-0.644-0.072-0.968s0.024-0.646,0.072-0.968c0.048-0.321,0.121-0.629,0.221-0.923c0.1-0.294,0.227-0.57,0.382-0.828
			c0.155-0.257,0.342-0.487,0.56-0.688c0.008-0.009,0.025-0.014,0.052-0.014c0.016,0,0.028,0.007,0.04,0.021
			c0.008,0.019,0.012,0.034,0.012,0.048c0,0.019-0.006,0.034-0.018,0.048c-0.184,0.206-0.339,0.436-0.465,0.691
			s-0.229,0.526-0.307,0.811c-0.079,0.285-0.135,0.581-0.167,0.886c-0.032,0.305-0.049,0.611-0.049,0.917
			c0,0.31,0.017,0.617,0.049,0.92s0.088,0.598,0.167,0.882c0.078,0.285,0.181,0.555,0.307,0.811s0.281,0.486,0.465,0.691
			c0.012,0.014,0.018,0.03,0.018,0.048C80.688,22.616,80.684,22.632,80.676,22.65z"/>
	</g>
	<g>
		<path fill="#010101" d="M86.063,20.219c-0.049,0.321-0.122,0.629-0.222,0.923c-0.1,0.294-0.227,0.57-0.382,0.828
			c-0.154,0.258-0.342,0.487-0.56,0.688c-0.016,0.009-0.026,0.014-0.034,0.014h-0.018c-0.016,0-0.028-0.007-0.04-0.021
			c-0.008-0.018-0.012-0.034-0.012-0.048c0-0.018,0.006-0.034,0.018-0.048c0.184-0.205,0.339-0.436,0.465-0.691
			s0.229-0.525,0.308-0.811c0.078-0.285,0.134-0.579,0.166-0.882s0.049-0.61,0.049-0.92c0-0.306-0.017-0.611-0.049-0.917
			c-0.032-0.306-0.088-0.601-0.166-0.886c-0.079-0.285-0.182-0.555-0.308-0.811s-0.281-0.485-0.465-0.691
			c-0.012-0.014-0.018-0.029-0.018-0.048c0-0.022,0.004-0.039,0.012-0.048c0.012-0.014,0.024-0.021,0.04-0.021h0.018
			c0.008,0,0.019,0.005,0.034,0.014c0.218,0.201,0.405,0.43,0.56,0.688c0.155,0.258,0.282,0.534,0.382,0.828
			c0.1,0.294,0.173,0.602,0.222,0.923c0.047,0.322,0.071,0.645,0.071,0.968S86.109,19.897,86.063,20.219z"/>
	</g>
	<g>
		<path fill="#010101" d="M81.027,29.29v-0.124c0.193-0.063,0.344-0.163,0.449-0.298c0.106-0.134,0.16-0.276,0.16-0.427
			c0-0.036-0.009-0.066-0.025-0.091c-0.014-0.017-0.026-0.025-0.04-0.025c-0.021,0-0.065,0.019-0.135,0.057
			c-0.034,0.017-0.07,0.025-0.107,0.025c-0.093,0-0.166-0.027-0.221-0.082c-0.054-0.055-0.081-0.13-0.081-0.226
			c0-0.092,0.035-0.171,0.105-0.237c0.07-0.065,0.156-0.099,0.258-0.099c0.124,0,0.234,0.055,0.332,0.162
			c0.097,0.108,0.145,0.252,0.145,0.431c0,0.193-0.066,0.374-0.201,0.54C81.531,29.063,81.318,29.194,81.027,29.29z"/>
	</g>
	<g>
		<path fill="#010101" d="M82.823,18.477l0.036,0.009c0.146-0.126,0.274-0.226,0.387-0.298c0.113-0.072,0.227-0.128,0.343-0.167
			c0.115-0.04,0.238-0.059,0.368-0.059c0.109,0,0.206,0.005,0.29,0.017l-0.217,0.649h-0.318c-0.011-0.102-0.033-0.176-0.069-0.223
			c-0.035-0.045-0.099-0.068-0.187-0.068c-0.068,0-0.141,0.02-0.221,0.059c-0.08,0.039-0.164,0.097-0.252,0.172
			c-0.086,0.075-0.152,0.146-0.197,0.211c-0.046,0.066-0.084,0.144-0.113,0.234l-0.33,0.988c-0.057,0.17-0.086,0.289-0.086,0.354
			c-0.002,0.064,0.018,0.112,0.055,0.143c0.038,0.029,0.103,0.054,0.192,0.07l-0.046,0.138h-1.137l0.046-0.138
			c0.079-0.023,0.138-0.042,0.173-0.059c0.037-0.017,0.072-0.041,0.104-0.071c0.033-0.03,0.065-0.077,0.098-0.139
			c0.031-0.062,0.069-0.159,0.113-0.29l0.409-1.23c0.041-0.121,0.07-0.217,0.092-0.291c0.021-0.073,0.027-0.131,0.02-0.176
			s-0.031-0.077-0.07-0.099c-0.039-0.021-0.099-0.04-0.178-0.055l0.049-0.146l0.67-0.029h0.172L82.823,18.477z"/>
	</g>
	<g>
		<path fill="#010101" d="M78.294,28.188c0.081-0.023,0.141-0.043,0.176-0.06c0.037-0.017,0.071-0.041,0.103-0.07
			c0.032-0.03,0.065-0.077,0.098-0.139c0.033-0.063,0.071-0.159,0.115-0.29l0.409-1.23c0.041-0.121,0.07-0.217,0.092-0.291
			c0.021-0.073,0.027-0.132,0.02-0.176c-0.008-0.045-0.031-0.077-0.07-0.1c-0.039-0.021-0.099-0.04-0.178-0.055l0.05-0.149
			l0.666-0.025h0.172l-0.673,2.018c-0.053,0.161-0.083,0.274-0.09,0.337c-0.006,0.063,0.008,0.11,0.039,0.144
			s0.091,0.062,0.178,0.087l-0.046,0.138h-1.105L78.294,28.188z M80.322,24.522l-0.183,0.547h-0.519l0.183-0.547H80.322z"/>
		<path fill="#010101" d="M83.771,28.271c-0.087,0.263-0.185,0.475-0.292,0.632c-0.107,0.158-0.246,0.293-0.418,0.402
			c-0.171,0.11-0.389,0.2-0.652,0.27l-0.014-0.248c0.133-0.046,0.235-0.089,0.31-0.128c0.075-0.041,0.141-0.088,0.198-0.142
			c0.057-0.055,0.111-0.126,0.162-0.217c0.051-0.09,0.1-0.205,0.146-0.346l0.699-2.097c0.049-0.146,0.08-0.252,0.096-0.316
			c0.017-0.063,0.021-0.113,0.015-0.15c-0.007-0.037-0.025-0.067-0.059-0.09c-0.031-0.021-0.095-0.044-0.192-0.064l0.05-0.149
			l0.669-0.025h0.172L83.771,28.271z M85.035,24.522l-0.183,0.547h-0.516l0.183-0.547H85.035z"/>
	</g>
	<g>
		<path fill="#010101" d="M77.349,21.125c0.623,0.071,1.033,0.326,1.227,0.766c0.193,0.439,0.188,0.964-0.016,1.576
			c-0.094,0.28-0.225,0.551-0.393,0.813c-0.17,0.263-0.352,0.491-0.549,0.688c-0.197,0.196-0.4,0.359-0.605,0.488
			c-0.205,0.128-0.417,0.227-0.635,0.295c-0.152,0.045-0.355,0.083-0.607,0.112l-0.674,2.021H74.55l0.674-2.021
			c-0.475-0.049-0.82-0.203-1.037-0.464c-0.379-0.452-0.434-1.082-0.164-1.889c0.105-0.318,0.24-0.605,0.408-0.858
			c0.165-0.254,0.349-0.477,0.551-0.668c0.203-0.193,0.406-0.35,0.611-0.472c0.205-0.122,0.41-0.214,0.617-0.275
			c0.146-0.045,0.346-0.083,0.592-0.112l0.779-2.338h0.547L77.349,21.125z M76.703,21.422c-0.231,0.052-0.42,0.123-0.563,0.215
			c-0.234,0.146-0.453,0.355-0.656,0.627c-0.203,0.271-0.381,0.641-0.537,1.105c-0.171,0.514-0.246,0.934-0.223,1.261
			s0.105,0.573,0.244,0.739c0.064,0.081,0.182,0.149,0.352,0.205L76.703,21.422z M75.866,25.575c0.213-0.045,0.389-0.11,0.527-0.195
			c0.254-0.156,0.482-0.372,0.686-0.649c0.203-0.276,0.387-0.661,0.551-1.156c0.152-0.452,0.229-0.835,0.232-1.149
			c0.004-0.313-0.057-0.555-0.178-0.725c-0.082-0.11-0.227-0.203-0.435-0.278L75.866,25.575z"/>
	</g>
	<g>
		<path fill="#010101" d="M73.048,23.375c-0.04,0.04-0.086,0.06-0.14,0.06h-5.686c-0.054,0-0.101-0.02-0.14-0.06
			c-0.041-0.04-0.061-0.086-0.061-0.14c0-0.054,0.02-0.1,0.061-0.14c0.039-0.04,0.086-0.06,0.14-0.06h5.686
			c0.054,0,0.1,0.02,0.14,0.06s0.061,0.086,0.061,0.14C73.108,23.289,73.088,23.335,73.048,23.375z"/>
	</g>
</g>
</svg>
