<?xml version="1.0" encoding="utf-8"?>
<!-- Generator: Adobe Illustrator 15.1.0, SVG Export Plug-In . SVG Version: 6.00 Build 0)  -->
<!DOCTYPE svg PUBLIC "-//W3C//DTD SVG 1.1//EN" "http://www.w3.org/Graphics/SVG/1.1/DTD/svg11.dtd">
<svg version="1.1" id="Layer_1" xmlns="http://www.w3.org/2000/svg" xmlns:xlink="http://www.w3.org/1999/xlink" x="0px" y="0px"
	 width="135.675px" height="58.37px" viewBox="0 0 135.675 58.37" enable-background="new 0 0 135.675 58.37" xml:space="preserve">
<g>
	<g>
		<path fill="none" stroke="#000000" stroke-width="0.5" stroke-linecap="round" stroke-miterlimit="10" d="M51.66,18.252
			c3.437-1.377,5.864-4.739,5.864-8.668c0-5.155-4.18-9.334-9.334-9.334c-5.155,0-9.334,4.179-9.334,9.334s4.179,9.334,9.334,9.334"
			/>
		<g>
			<polygon points="48.19,18.918 53.484,19.844 51.897,18.109 52.618,15.873 			"/>
		</g>
	</g>
</g>
<g>
	<path d="M76.257,33.946v2.818h2.71v0.72h-2.71v2.843h-0.768v-2.843h-2.711v-0.72h2.711v-2.818H76.257z"/>
</g>
<line fill="none" stroke="#000000" stroke-width="0.5" stroke-linecap="round" stroke-miterlimit="10" stroke-dasharray="2,1" x1="48.19" y1="54.808" x2="48.19" y2="19.036"/>
<g>
	<g>
		<path fill="none" stroke="#000000" stroke-width="0.5" stroke-linecap="round" stroke-miterlimit="10" d="M117.477,54.811
			c6.456-0.005,12.691-3.505,15.896-9.622c4.6-8.779,1.211-19.624-7.569-24.222c-1.555-0.814-3.174-1.378-4.813-1.707"/>
		<g>
			<polygon points="117.477,18.915 122.65,17.461 121.246,19.346 122.188,21.5 			"/>
		</g>
	</g>
</g>
<line fill="none" stroke="#000000" stroke-width="0.5" stroke-linecap="round" stroke-miterlimit="10" stroke-dasharray="2,1" x1="117.477" y1="54.808" x2="117.477" y2="19.036"/>
<path fill="none" stroke="#000000" stroke-width="0.5" stroke-linecap="round" stroke-miterlimit="10" d="M117.477,19.036"/>
<g>
	<g>
		<path fill="#010101" d="M8.503,38.458c-0.011,0.014-0.024,0.021-0.04,0.021c-0.027,0-0.044-0.004-0.052-0.014
			c-0.218-0.201-0.405-0.43-0.56-0.688C7.696,37.52,7.569,37.244,7.47,36.95c-0.1-0.294-0.173-0.602-0.222-0.923
			c-0.047-0.321-0.071-0.644-0.071-0.968s0.024-0.646,0.071-0.968c0.049-0.321,0.122-0.629,0.222-0.923
			c0.1-0.294,0.227-0.57,0.382-0.828c0.154-0.257,0.342-0.487,0.56-0.688c0.008-0.009,0.024-0.014,0.052-0.014
			c0.016,0,0.029,0.007,0.04,0.021c0.008,0.019,0.012,0.034,0.012,0.048c0,0.019-0.006,0.034-0.017,0.048
			c-0.185,0.206-0.34,0.436-0.466,0.691s-0.229,0.526-0.308,0.811c-0.078,0.285-0.133,0.581-0.166,0.886
			c-0.033,0.305-0.049,0.611-0.049,0.917c0,0.31,0.016,0.617,0.049,0.92s0.088,0.598,0.166,0.882
			c0.079,0.285,0.182,0.555,0.308,0.811s0.281,0.486,0.466,0.691c0.011,0.014,0.017,0.03,0.017,0.048
			C8.515,38.424,8.511,38.44,8.503,38.458z"/>
	</g>
	<g>
		<path fill="#010101" d="M13.327,36.026c-0.049,0.321-0.122,0.629-0.222,0.923c-0.1,0.294-0.227,0.57-0.382,0.828
			c-0.155,0.258-0.341,0.487-0.56,0.688c-0.016,0.009-0.027,0.014-0.034,0.014h-0.018c-0.015,0-0.028-0.007-0.04-0.021
			c-0.008-0.018-0.012-0.034-0.012-0.048c0-0.018,0.006-0.034,0.018-0.048c0.184-0.205,0.338-0.436,0.465-0.691
			s0.229-0.525,0.307-0.811c0.079-0.285,0.135-0.579,0.167-0.882s0.049-0.61,0.049-0.92c0-0.306-0.017-0.611-0.049-0.917
			c-0.032-0.306-0.088-0.601-0.167-0.886c-0.078-0.285-0.18-0.555-0.307-0.811s-0.281-0.485-0.465-0.691
			c-0.012-0.014-0.018-0.029-0.018-0.048c0-0.022,0.004-0.039,0.012-0.048c0.012-0.014,0.025-0.021,0.04-0.021h0.018
			c0.007,0,0.019,0.005,0.034,0.014c0.219,0.201,0.404,0.43,0.56,0.688c0.155,0.258,0.282,0.534,0.382,0.828
			c0.1,0.294,0.173,0.602,0.222,0.923c0.047,0.322,0.071,0.645,0.071,0.968S13.374,35.705,13.327,36.026z"/>
	</g>
	<g>
		<path fill="#010101" d="M9.197,45.098v-0.124c0.194-0.063,0.344-0.163,0.451-0.298c0.105-0.134,0.158-0.276,0.158-0.427
			c0-0.036-0.008-0.066-0.025-0.091c-0.013-0.017-0.025-0.025-0.039-0.025c-0.021,0-0.066,0.019-0.135,0.057
			c-0.034,0.017-0.07,0.025-0.107,0.025c-0.092,0-0.166-0.027-0.221-0.082s-0.082-0.13-0.082-0.226c0-0.092,0.036-0.171,0.106-0.237
			c0.07-0.065,0.157-0.099,0.259-0.099c0.123,0,0.234,0.055,0.33,0.162c0.098,0.108,0.146,0.252,0.146,0.431
			c0,0.193-0.068,0.374-0.202,0.54C9.702,44.871,9.489,45.002,9.197,45.098z"/>
	</g>
	<g>
		<path fill="#010101" d="M10.59,35.782c0,0.109,0.006,0.191,0.019,0.247c0.013,0.056,0.034,0.101,0.065,0.136
			s0.075,0.062,0.134,0.082c0.058,0.02,0.132,0.035,0.22,0.045s0.205,0.018,0.35,0.021v0.206H9.293v-0.206
			c0.209-0.009,0.357-0.022,0.447-0.038c0.089-0.016,0.157-0.04,0.204-0.072c0.047-0.032,0.081-0.077,0.103-0.136
			c0.021-0.058,0.033-0.153,0.033-0.285v-2.288c0-0.075-0.014-0.13-0.04-0.165c-0.026-0.035-0.065-0.052-0.116-0.052
			c-0.06,0-0.145,0.031-0.256,0.093s-0.248,0.148-0.412,0.257l-0.124-0.217l1.32-0.787h0.155c-0.012,0.181-0.018,0.431-0.018,0.75
			V35.782z"/>
	</g>
	<g>
		<path fill="#010101" d="M7.535,43.399c0,0.109,0.006,0.191,0.019,0.247s0.034,0.101,0.065,0.135
			c0.031,0.035,0.075,0.063,0.134,0.082c0.058,0.02,0.132,0.035,0.22,0.045c0.088,0.011,0.205,0.018,0.35,0.021v0.206H6.238V43.93
			c0.209-0.01,0.357-0.022,0.447-0.038c0.089-0.016,0.157-0.04,0.204-0.072c0.047-0.031,0.081-0.077,0.103-0.135
			c0.021-0.059,0.033-0.153,0.033-0.285v-2.288c0-0.075-0.014-0.131-0.04-0.165c-0.026-0.035-0.065-0.053-0.116-0.053
			c-0.06,0-0.145,0.031-0.256,0.094c-0.111,0.062-0.248,0.147-0.412,0.257l-0.124-0.218l1.32-0.787h0.155
			C7.541,40.42,7.535,40.67,7.535,40.99V43.399z"/>
		<path fill="#010101" d="M12.121,43.399c0,0.109,0.006,0.191,0.018,0.247s0.034,0.101,0.064,0.135
			c0.031,0.035,0.076,0.063,0.135,0.082s0.131,0.035,0.22,0.045c0.089,0.011,0.205,0.018,0.35,0.021v0.206h-2.084V43.93
			c0.208-0.01,0.357-0.022,0.446-0.038c0.09-0.016,0.158-0.04,0.205-0.072c0.047-0.031,0.081-0.077,0.104-0.135
			c0.021-0.059,0.031-0.153,0.031-0.285v-2.288c0-0.075-0.013-0.131-0.039-0.165c-0.026-0.035-0.064-0.053-0.115-0.053
			c-0.061,0-0.146,0.031-0.257,0.094c-0.11,0.062-0.249,0.147-0.412,0.257l-0.124-0.218l1.32-0.787h0.154
			c-0.011,0.181-0.016,0.431-0.016,0.751V43.399z"/>
	</g>
	<g>
		<path fill="#010101" d="M5.176,36.933c0.623,0.071,1.033,0.326,1.226,0.766c0.194,0.439,0.188,0.964-0.015,1.576
			c-0.094,0.28-0.225,0.551-0.394,0.813c-0.169,0.263-0.351,0.491-0.548,0.688c-0.198,0.196-0.4,0.359-0.605,0.488
			c-0.205,0.128-0.417,0.227-0.635,0.295c-0.152,0.045-0.355,0.083-0.607,0.112l-0.674,2.021H2.377l0.674-2.021
			c-0.475-0.049-0.82-0.203-1.037-0.464c-0.379-0.452-0.434-1.082-0.164-1.889C1.955,39,2.09,38.713,2.258,38.459
			c0.165-0.254,0.349-0.477,0.551-0.668c0.203-0.193,0.406-0.35,0.611-0.472c0.205-0.122,0.41-0.214,0.617-0.275
			c0.146-0.045,0.346-0.083,0.592-0.112l0.779-2.338h0.547L5.176,36.933z M4.53,37.23c-0.231,0.052-0.42,0.123-0.563,0.215
			c-0.234,0.146-0.453,0.355-0.656,0.627c-0.203,0.271-0.381,0.641-0.537,1.105c-0.171,0.514-0.246,0.934-0.223,1.261
			s0.105,0.573,0.244,0.739c0.064,0.081,0.182,0.149,0.352,0.205L4.53,37.23z M3.693,41.383c0.213-0.045,0.389-0.11,0.527-0.195
			c0.254-0.156,0.482-0.372,0.686-0.649c0.203-0.276,0.387-0.661,0.551-1.156c0.151-0.452,0.229-0.835,0.232-1.149
			c0.004-0.313-0.057-0.555-0.178-0.725c-0.082-0.11-0.227-0.203-0.435-0.278L3.693,41.383z"/>
	</g>
	<g>
		<path fill="#010101" d="M23.608,38.214c-0.04,0.04-0.087,0.06-0.141,0.06h-6.234c-0.054,0-0.101-0.02-0.141-0.06
			c-0.04-0.04-0.06-0.087-0.06-0.14s0.02-0.1,0.06-0.14s0.087-0.06,0.141-0.06h6.234c0.054,0,0.101,0.02,0.141,0.06
			c0.039,0.04,0.06,0.087,0.06,0.14S23.647,38.174,23.608,38.214z M23.608,40.152c-0.04,0.04-0.087,0.061-0.141,0.061h-6.234
			c-0.054,0-0.101-0.021-0.141-0.061s-0.06-0.086-0.06-0.14c0-0.053,0.02-0.1,0.06-0.14s0.087-0.061,0.141-0.061h6.234
			c0.054,0,0.101,0.021,0.141,0.061c0.039,0.04,0.06,0.087,0.06,0.14C23.668,40.066,23.647,40.112,23.608,40.152z"/>
	</g>
</g>
<circle fill="#FFFFFF" stroke="#000000" stroke-width="0.5" stroke-miterlimit="10" cx="114.64" cy="19.036" r="2.836"/>
<circle fill="#FFFFFF" stroke="#000000" stroke-width="0.5" stroke-miterlimit="10" cx="114.64" cy="54.808" r="2.836"/>
<circle fill="#FFFFFF" stroke="#000000" stroke-width="0.5" stroke-miterlimit="10" cx="51.027" cy="54.808" r="2.836"/>
<circle fill="#FFFFFF" stroke="#000000" stroke-width="0.5" stroke-miterlimit="10" cx="45.354" cy="54.808" r="2.836"/>
</svg>
